<?xml version="1.0" encoding="UTF-8"?>
<svg width="10px" height="6px" viewBox="0 0 10 6" version="1.1" xmlns="http://www.w3.org/2000/svg" xmlns:xlink="http://www.w3.org/1999/xlink">
    <!-- Generator: Sketch 50.2 (55047) - http://www.bohemiancoding.com/sketch -->
    <title>Shape</title>
    <desc>Created with Sketch.</desc>
    <defs></defs>
    <g id="Web" stroke="none" stroke-width="1" fill="none" fill-rule="evenodd">
        <g id="Desktop-HD" transform="translate(-1175.000000, -5075.000000)" fill="#CFCFCF" fill-rule="nonzero">
            <g id="TICKETS-#5" transform="translate(93.000000, 4821.000000)">
                <g id="content" transform="translate(63.000000, 0.000000)">
                    <g id="Super-Early-Bird-Student" transform="translate(1.000000, 0.000000)">
                        <g id="flaticon1531054923-svg" transform="translate(1023.000000, 257.000000) rotate(-270.000000) translate(-1023.000000, -257.000000) translate(1020.000000, 252.000000)">
                            <path d="M5.78412817,5.49505142 L1.25827398,9.79475907 C0.970374986,10.0684136 0.503596117,10.0684136 0.215836891,9.79475907 C-0.0719456302,9.52134793 -0.0719456302,9.07790137 0.215836891,8.80451237 L4.22051912,4.99992807 L0.215953364,1.19547657 C-0.0718291568,0.921954777 -0.0718291568,0.478552475 0.215953364,0.205141342 C0.503735885,-0.0683804474 0.97049146,-0.0683804474 1.25839045,0.205141342 L5.78424464,4.50491538 C5.9281359,4.64168734 6,4.82075238 6,4.99990594 C6,5.17914803 5.92799613,5.35834586 5.78412817,5.49505142 Z" id="Shape"></path>
                        </g>
                    </g>
                </g>
            </g>
        </g>
    </g>
</svg>