<?xml version="1.0" encoding="UTF-8"?>
<svg width="42px" height="42px" viewBox="0 0 42 42" version="1.1" xmlns="http://www.w3.org/2000/svg" xmlns:xlink="http://www.w3.org/1999/xlink">
    <!-- Generator: Sketch 50.2 (55047) - http://www.bohemiancoding.com/sketch -->
    <title>Group 6</title>
    <desc>Created with Sketch.</desc>
    <defs></defs>
    <g id="Web" stroke="none" stroke-width="1" fill="none" fill-rule="evenodd">
        <g id="Desktop-HD" transform="translate(-304.000000, -10220.000000)">
            <g id="FOOTER-#10" transform="translate(-105.000000, 10153.000000)">
                <g id="Group-6" transform="translate(411.000000, 68.000000)">
                    <path d="M36.4031433,16.20392 C37.0682116,17.0859143 38.3221424,17.261707 39.2041373,16.5970721 C40.0856992,15.9320043 40.2619249,14.6780743 39.5968567,13.79608 C38.9317884,12.9140857 37.6778576,12.738293 36.7958627,13.4029279 C35.9143008,14.0679957 35.7380751,15.3219257 36.4031433,16.20392" id="Fill-35" fill="#0FD895"></path>
                    <path d="M12.4031168,3.20399168 C13.06819,4.08600568 14.32213,4.26180229 15.2041314,3.59671956 C16.0856998,2.93206984 16.2619269,1.67811179 15.5968537,0.79609779 C14.9317805,-0.0859162105 13.6778404,-0.261712815 12.796272,0.40293691 C11.9142706,1.06801963 11.7380436,2.32197768 12.4031168,3.20399168" id="Fill-36" fill="#0FD895"></path>
                    <path d="M18.3023376,14.4029938 C18.8011425,15.0645043 19.7415975,15.1963517 20.4030986,14.6975397 C21.0642749,14.1990524 21.1964452,13.2585838 20.6976403,12.5970733 C20.1988354,11.9355628 19.2583803,11.8037154 18.597204,12.3022027 C17.935703,12.8010147 17.8035327,13.7414833 18.3023376,14.4029938" id="Fill-36" fill="#0FD895"></path>
                    <path d="M13.4031433,40.20392 C14.0682116,41.0859143 15.3221424,41.261707 16.2041373,40.5970721 C17.0856992,39.9320043 17.2619249,38.6780743 16.5968567,37.79608 C15.9317884,36.9140857 14.6778576,36.738293 13.7958627,37.4029279 C12.9143008,38.0679957 12.7380751,39.3219257 13.4031433,40.20392" id="Fill-37" fill="#0FD895"></path>
                    <path d="M18,18.6447423 L18,27.3552577 C18,28.2634448 18.6717361,29 19.5,29 C20.3286149,29 21,28.2634448 21,27.3552577 L21,18.6447423 C21,17.7361703 20.3286149,17 19.5,17 C18.6717361,17 18,17.7361703 18,18.6447423" id="Fill-38" fill="#0FD895"></path>
                    <path d="M8.85430952,4 C3.53602118,7.43146306 0,13.5175072 0,20.45358 C0,27.4523499 3.6008593,33.5862208 9,37" id="Stroke-39" stroke="#017FFF" stroke-width="3.1408" stroke-linecap="round" stroke-linejoin="round"></path>
                    <path d="M36,11 C32.5993491,5.02052006 26.2597937,1 19,1" id="Stroke-40" stroke="#017FFF" stroke-width="3.1408" stroke-linecap="round" stroke-linejoin="round"></path>
                    <path d="M19,39 C29.4933419,39 38,30.4933419 38,20" id="Stroke-41" stroke="#017FFF" stroke-width="3.1408" stroke-linecap="round" stroke-linejoin="round"></path>
                </g>
            </g>
        </g>
    </g>
</svg>