<?xml version="1.0" encoding="UTF-8"?>
<svg width="43px" height="43px" viewBox="0 0 43 43" version="1.1" xmlns="http://www.w3.org/2000/svg" xmlns:xlink="http://www.w3.org/1999/xlink">
    <!-- Generator: Sketch 50.2 (55047) - http://www.bohemiancoding.com/sketch -->
    <title>Group 9</title>
    <desc>Created with Sketch.</desc>
    <defs></defs>
    <g id="Web" stroke="none" stroke-width="1" fill="none" fill-rule="evenodd">
        <g id="Desktop-HD" transform="translate(-1059.000000, -10219.000000)">
            <g id="FOOTER-#10" transform="translate(-105.000000, 10153.000000)">
                <g id="Group-9" transform="translate(1166.000000, 67.000000)">
                    <path d="M20.1009215,14.4345525 C16.5172718,14.4345525 13.6093594,17.3515996 13.6093594,20.9539888 C13.6093594,24.5570214 16.5172718,27.4785732 20.1009215,27.4785732 C23.6845712,27.4785732 26.5918431,24.5570214 26.5918431,20.9539888 C26.5918431,17.3515996 23.6832902,14.4345525 20.1009215,14.4345525 Z" id="Path" fill="#0FD895"></path>
                    <path d="M37.0169706,16.7263512 C37.6343824,17.549717 38.7984608,17.7138243 39.6172549,17.0933694 C40.4356471,16.4725103 40.5992451,15.3019323 39.9818333,14.4785665 C39.3644216,13.6552006 38.2003431,13.4910933 37.381549,14.1115482 C36.5631569,14.7324073 36.3995588,15.9029853 37.0169706,16.7263512" id="Fill-42" fill="#0FD895"></path>
                    <path d="M12.8281765,3.22056438 C13.4455882,4.04393023 14.6096667,4.20803751 15.4284608,3.58717843 C16.2468529,2.96672356 16.410451,1.79614551 15.7930392,0.972779662 C15.1756275,0.149413815 14.011549,-0.0146934667 13.1927549,0.605761405 C12.3743627,1.22662048 12.2107647,2.39719853 12.8281765,3.22056438" id="Fill-43" fill="#0FD895"></path>
                    <path d="M13.3804706,40.6202906 C13.9978824,41.4436564 15.1619608,41.6077637 15.9807549,40.9873089 C16.7991471,40.3664498 16.9627451,39.1958717 16.3453333,38.3725059 C15.7279216,37.54914 14.5638431,37.3850327 13.745049,38.0054876 C12.9266569,38.6263467 12.7630588,39.7969247 13.3804706,40.6202906" id="Fill-44" fill="#0FD895"></path>
                    <path d="M9.51642157,4.27800542 C4.04332353,7.7291088 0.404372549,13.8499871 0.404372549,20.8257592 C0.404372549,27.8645873 4.11004902,34.0335659 9.66635294,37.4668843" id="Stroke-45" stroke="#017FFF" stroke-width="3.1408" stroke-linecap="round" stroke-linejoin="round"></path>
                    <path d="M36.6101863,11.0387404 C33.2501961,5.22020757 26.9864412,1.30790613 19.813451,1.30790613" id="Stroke-46" stroke="#017FFF" stroke-width="3.1408" stroke-linecap="round" stroke-linejoin="round"></path>
                    <path d="M19.813451,40.3432888 C30.5329412,40.3432888 39.2229314,31.6047782 39.2229314,20.8254358" id="Stroke-47" stroke="#017FFF" stroke-width="3.1408" stroke-linecap="round" stroke-linejoin="round"></path>
                </g>
            </g>
        </g>
    </g>
</svg>