<?xml version="1.0" encoding="UTF-8"?>
<svg width="52px" height="53px" viewBox="0 0 52 53" version="1.1" xmlns="http://www.w3.org/2000/svg" xmlns:xlink="http://www.w3.org/1999/xlink">
    <!-- Generator: Sketch 50.2 (55047) - http://www.bohemiancoding.com/sketch -->
    <title>Group 7</title>
    <desc>Created with Sketch.</desc>
    <defs></defs>
    <g id="Web" stroke="none" stroke-width="1" fill="none" fill-rule="evenodd">
        <g id="Desktop-HD" transform="translate(-804.000000, -10215.000000)">
            <g id="FOOTER-#10" transform="translate(-105.000000, 10153.000000)">
                <g id="Group-7" transform="translate(911.000000, 63.000000)">
                    <path d="M45.5039292,21.0049 C46.3352645,22.1073929 47.9026781,22.3271337 49.0051716,21.4963401 C50.107124,20.6650053 50.3274062,19.0975928 49.4960708,17.9951 C48.6647355,16.8926071 47.0973219,16.6728663 45.9948284,17.5036599 C44.892876,18.3349947 44.6725938,19.9024072 45.5039292,21.0049" id="Fill-89" fill="#0FD895"></path>
                    <path d="M15.5038959,4.00490002 C16.3352374,5.10739286 17.9026626,5.3271337 19.0051643,4.49634013 C20.1071248,3.66500532 20.3274086,2.09759282 19.4960671,0.995099979 C18.6647256,-0.107392861 17.0973005,-0.327133702 15.99534,0.503659872 C14.8928383,1.33499468 14.6725544,2.90240718 15.5038959,4.00490002" id="Fill-90" fill="#0FD895"></path>
                    <path d="M15.5039292,50.0049 C16.3352645,51.1073929 17.9026781,51.3271337 19.0051716,50.4963401 C20.107124,49.6650053 20.3274062,48.0975928 19.4960708,46.9951 C18.6647355,45.8926071 17.0973219,45.6728663 15.9948284,46.5036599 C14.892876,47.3349947 14.6725938,48.9024072 15.5039292,50.0049" id="Fill-91" fill="#0FD895"></path>
                    <path d="M22,20.1929898 L22,31.8064971 C22,33.0179264 22.8956481,34 24,34 C25.1048198,34 26,33.0179264 26,31.8064971 L26,20.1929898 C26,18.9815605 25.1048198,18 24,18 C22.8956481,18 22,18.9815605 22,20.1929898" id="Fill-92" fill="#0FD895"></path>
                    <path d="M22,20.1929898 L22,31.8064971 C22,33.0179264 22.8956481,34 24,34 C25.1048198,34 26,33.0179264 26,31.8064971 L26,20.1929898 C26,18.9815605 25.1048198,18 24,18 C22.8956481,18 22,18.9815605 22,20.1929898" id="Fill-92" fill="#0FD895" transform="translate(24.000000, 26.000000) rotate(-270.000000) translate(-24.000000, -26.000000) "></path>
                    <path d="M11.805746,5 C4.7146949,9.26333289 0,16.8247817 0,25.4423267 C0,34.1377681 4.80114573,41.7581386 12,46" id="Stroke-93" stroke="#017FFF" stroke-width="3.926" stroke-linecap="round" stroke-linejoin="round"></path>
                    <path d="M45,13 C40.7991959,5.82462408 32.9679805,1 24,1" id="Stroke-94" stroke="#017FFF" stroke-width="3.926" stroke-linecap="round" stroke-linejoin="round"></path>
                    <path d="M24,50 C37.2547477,50 48,39.2547477 48,26" id="Stroke-95" stroke="#017FFF" stroke-width="3.926" stroke-linecap="round" stroke-linejoin="round"></path>
                </g>
            </g>
        </g>
    </g>
</svg>