<?xml version="1.0" encoding="UTF-8"?>
<svg width="119px" height="97px" viewBox="0 0 119 97" version="1.1" xmlns="http://www.w3.org/2000/svg" xmlns:xlink="http://www.w3.org/1999/xlink">
    <!-- Generator: Sketch 50.2 (55047) - http://www.bohemiancoding.com/sketch -->
    <title>arrow</title>
    <desc>Created with Sketch.</desc>
    <defs></defs>
    <g id="Web" stroke="none" stroke-width="1" fill="none" fill-rule="evenodd">
        <g id="Desktop-HD" transform="translate(-911.000000, -1835.000000)">
            <g id="ABOUT-#2" transform="translate(94.000000, 1262.000000)">
                <g id="arrow" transform="translate(817.000000, 573.000000)">
                    <path d="M79.6999631,7.06770264 C81.326679,5.45065576 81.326679,2.82916108 79.6999631,1.21278516 C78.0732473,-0.404261721 75.4360777,-0.404261721 73.8100369,1.21278516 C72.183321,2.82916108 72.183321,5.45065576 73.8100369,7.06770264 C75.4360777,8.68474953 78.0732473,8.68474953 79.6999631,7.06770264" id="Fill-1" fill="#FF697E"></path>
                    <path d="M93.9799631,20.0798978 C95.606679,18.4628509 95.606679,15.8413562 93.9799631,14.2249803 C92.3532473,12.6079334 89.7160777,12.6079334 88.0900369,14.2249803 C86.463321,15.8413562 86.463321,18.4628509 88.0900369,20.0798978 C89.7160777,21.6969446 92.3532473,21.6969446 93.9799631,20.0798978" id="Fill-3" fill="#FF697E"></path>
                    <path d="M107.069963,33.0920929 C108.696679,31.475046 108.696679,28.8535513 107.069963,27.2371754 C105.443247,25.6201285 102.806078,25.6201285 101.180037,27.2371754 C99.553321,28.8535513 99.553321,31.475046 101.180037,33.0920929 C102.806078,34.7091398 105.443247,34.7091398 107.069963,33.0920929" id="Fill-4" fill="#FF697E"></path>
                    <path d="M99.9299631,50.8359953 C101.556679,49.2189484 101.556679,46.5974538 99.9299631,44.9810778 C98.3032473,43.364031 95.6660777,43.364031 94.0400369,44.9810778 C92.413321,46.5974538 92.413321,49.2189484 94.0400369,50.8359953 C95.6660777,52.4530422 98.3032473,52.4530422 99.9299631,50.8359953" id="Fill-5" fill="#FF697E"></path>
                    <path d="M8.33,47.9085366 C8.33,45.6216725 6.46501418,43.7682927 4.16533749,43.7682927 C1.86498582,43.7682927 0,45.6216725 0,47.9085366 C0,50.1954006 1.86498582,52.0487805 4.16533749,52.0487805 C6.46501418,52.0487805 8.33,50.1954006 8.33,47.9085366" id="Fill-6" fill="#FF697E"></path>
                    <path d="M82.11,47.9085366 C82.11,45.6216725 80.2450142,43.7682927 77.9453375,43.7682927 C75.6449858,43.7682927 73.78,45.6216725 73.78,47.9085366 C73.78,50.1954006 75.6449858,52.0487805 77.9453375,52.0487805 C80.2450142,52.0487805 82.11,50.1954006 82.11,47.9085366" id="Fill-55" fill="#FF697E"></path>
                    <path d="M101.180037,68.5798978 C102.806753,70.1969446 105.443922,70.1969446 107.069963,68.5798978 C108.696679,66.9628509 108.696679,64.3413562 107.069963,62.7249803 C105.443922,61.1079334 102.806753,61.1079334 101.180037,62.7249803 C99.553321,64.3413562 99.553321,66.9628509 101.180037,68.5798978" id="Fill-56" fill="#FF697E"></path>
                    <path d="M88.0900369,82.7750197 C89.7167527,84.3920666 92.3539223,84.3920666 93.9799631,82.7750197 C95.606679,81.1579728 95.606679,78.5364781 93.9799631,76.9201022 C92.3539223,75.3030554 89.7167527,75.3030554 88.0900369,76.9201022 C86.463321,78.5364781 86.463321,81.1579728 88.0900369,82.7750197" id="Fill-57" fill="#FF697E"></path>
                    <path d="M73.8100369,95.7872148 C75.4367527,97.4042617 78.0739223,97.4042617 79.6999631,95.7872148 C81.326679,94.170168 81.326679,91.5486733 79.6999631,89.9322974 C78.0739223,88.3152505 75.4367527,88.3152505 73.8100369,89.9322974 C72.183321,91.5486733 72.183321,94.170168 73.8100369,95.7872148" id="Fill-58" fill="#FF697E"></path>
                    <path d="M111.890037,50.8359953 C113.516753,52.4530422 116.153922,52.4530422 117.779963,50.8359953 C119.406679,49.2189484 119.406679,46.5974538 117.779963,44.9810778 C116.153922,43.364031 113.516753,43.364031 111.890037,44.9810778 C110.263321,46.5974538 110.263321,49.2189484 111.890037,50.8359953" id="Fill-59" fill="#FF697E"></path>
                    <path d="M21.9264727,52.0487805 L61.3735273,52.0487805 C63.6250168,52.0487805 65.45,50.1952478 65.45,47.9085366 C65.45,45.6218254 63.6250168,43.7682927 61.3735273,43.7682927 L21.9264727,43.7682927 C19.6749832,43.7682927 17.85,45.6218254 17.85,47.9085366 C17.85,50.1952478 19.6749832,52.0487805 21.9264727,52.0487805" id="Fill-69" fill="#FFCF6E"></path>
                </g>
            </g>
        </g>
    </g>
</svg>