<?xml version="1.0" encoding="UTF-8"?>
<svg width="38px" height="21px" viewBox="0 0 38 21" version="1.1" xmlns="http://www.w3.org/2000/svg" xmlns:xlink="http://www.w3.org/1999/xlink">
    <!-- Generator: Sketch 50.2 (55047) - http://www.bohemiancoding.com/sketch -->
    <title>Combined Shape</title>
    <desc>Created with Sketch.</desc>
    <defs></defs>
    <g id="Web" stroke="none" stroke-width="1" fill="none" fill-rule="evenodd">
        <g id="Desktop-HD" transform="translate(-675.000000, -7953.000000)" fill="#BCBCBC" fill-rule="nonzero">
            <g id="LOCATION-#8" transform="translate(95.000000, 6698.000000)">
                <g id="ACCOMODATION-info" transform="translate(0.000000, 1077.000000)">
                    <g id="How-to-get-to-shift" transform="translate(0.000000, 25.000000)">
                        <g id="buttons" transform="translate(0.000000, 133.000000)">
                            <g id="bus" transform="translate(549.000000, 0.000000)">
                                <g id="flaticon1531057573-svg" transform="translate(31.000000, 20.000000)">
                                    <path d="M8.49989252,14 C6.5667936,14 5,15.5663411 5,17.5 C5,19.4336589 6.56668612,21 8.49989252,21 C10.4337438,21 12,19.4337664 12,17.5 C12,15.5662336 10.4337438,14 8.49989252,14 Z M8.49989252,19.0215148 C7.65958296,19.0215148 6.97867211,18.3406278 6.97867211,17.5 C6.97867211,16.6591572 7.65958296,15.9784852 8.49989252,15.9784852 C9.34030955,15.9784852 10.0217578,16.6591572 10.0217578,17.5 C10.0217578,18.3406278 9.34030955,19.0215148 8.49989252,19.0215148 Z M29.4998388,14 C31.4337198,14 33,15.5662336 33,17.5 C33,19.4337664 31.4337198,21 29.4998388,21 C27.5664952,21 26,19.4336589 26,17.5 C26,15.5663411 27.5666027,14 29.4998388,14 Z M29.4998388,19.0215148 C30.3403762,19.0215148 31.0218349,18.3406278 31.0218349,17.5 C31.0218349,16.6591572 30.3403762,15.9784852 29.4998388,15.9784852 C28.6595163,15.9784852 27.9784875,16.6591572 27.9784875,17.5 C27.9784875,18.3406278 28.6595163,19.0215148 29.4998388,19.0215148 Z M35.8907802,0 C37.0511112,0 38.0005419,0.958518338 37.9999998,2.13008941 L37.9999998,15.8699106 C37.9999998,17.0415911 37.0507859,18 35.890238,18 L33.316062,18 C33.316062,15.6820388 31.4482121,13.7964236 29.1520558,13.7964236 C26.8564416,13.7964236 24.9884832,15.6822578 24.9884832,18 L12.5884148,18 C12.5884148,15.6820388 10.7204565,13.7964236 8.424517,13.7964236 C6.12879437,13.7964236 4.26094447,15.6822578 4.26094447,18 L2.10976172,18 C0.949430726,18 0,17.0413722 0,15.8699106 L0,10.9704641 C0,9.79878353 0.189864459,7.90101575 0.422017404,6.75309288 L1.68796118,2.08717231 C1.92011413,0.939249437 3.05930088,0 4.21963188,0 L35.8907802,0 Z M8.98668639,9.14708107 L8.986794,1.29916518 L4.83885252,1.29916518 C3.97510609,1.29916518 3.13944811,2.01860854 2.98178694,2.89782916 L1.85609699,7.54852852 C1.72275761,8.29237301 2.1167491,8.92000572 2.76407463,9.09616182 L3.72295585,6.74485112 C3.85769426,6.41404311 4.22607253,6.25894552 4.54591484,6.39866706 C4.8654343,6.53838859 5.01513169,6.91989302 4.88017804,7.25081245 L4.10683119,9.14708107 L8.98668639,9.14708107 Z M18.3046227,9.14708107 L18.3046227,1.29916518 L10.2430253,1.29916518 L10.2430253,9.14708107 L18.3046227,9.14708107 Z M27.6224513,9.14708107 L27.6224513,1.29916518 L19.5609615,1.29916518 L19.5609615,9.14708107 L27.6224513,9.14708107 Z M36.7164334,7.52123045 L36.7164334,2.92523864 C36.7164334,2.03097623 36.0097024,1.2992766 35.1458484,1.2992766 L28.8787902,1.2992766 L28.8787902,9.14719249 L35.1458484,9.14719249 C36.0098101,9.14719249 36.7164334,8.41549286 36.7164334,7.52123045 Z" id="Combined-Shape"></path>
                                </g>
                            </g>
                        </g>
                    </g>
                </g>
            </g>
        </g>
    </g>
</svg>