<?xml version="1.0" encoding="UTF-8"?>
<svg width="512px" height="236px" viewBox="0 0 512 236" version="1.1" xmlns="http://www.w3.org/2000/svg" xmlns:xlink="http://www.w3.org/1999/xlink">
    <!-- Generator: Sketch 50.2 (55047) - http://www.bohemiancoding.com/sketch -->
    <title>Combined Shape</title>
    <desc>Created with Sketch.</desc>
    <defs></defs>
    <g id="Page-1" stroke="none" stroke-width="1" fill="none" fill-rule="evenodd">
        <path d="M110.933,149.834 C87.407,149.834 68.266,168.974 68.266,192.501 C68.266,216.027 87.406,235.168 110.933,235.168 C134.459,235.168 153.6,216.028 153.6,192.501 C153.6,168.975 134.46,149.834 110.933,149.834 Z M110.933,218.101 C96.819,218.101 85.333,206.615 85.333,192.501 C85.333,178.387 96.819,166.901 110.933,166.901 C125.047,166.901 136.533,178.387 136.533,192.501 C136.533,206.615 125.047,218.101 110.933,218.101 Z M401.067,149.834 C424.593,149.834 443.733,168.975 443.734,192.501 C443.734,216.028 424.593,235.168 401.067,235.168 C377.54,235.168 358.4,216.027 358.4,192.501 C358.4,168.974 377.541,149.834 401.067,149.834 Z M401.067,218.101 C415.181,218.101 426.667,206.615 426.667,192.501 C426.667,178.387 415.181,166.901 401.067,166.901 C386.953,166.901 375.467,178.387 375.467,192.501 C375.467,206.615 386.953,218.101 401.067,218.101 Z M503.467,149.834 C508.177,149.834 512,153.657 511.997,158.366 L511.997,192.499 C511.997,197.209 508.174,201.032 503.464,201.032 L469.331,201.032 C464.271,201.032 460.184,197.679 460.798,192.499 C460.798,159.509 434.055,132.766 401.065,132.766 C368.152,132.766 341.468,159.39 341.34,192.269 C341.34,192.321 341.332,192.363 341.332,192.406 C341.324,197.142 337.535,201.033 332.799,201.033 L179.199,201.033 C174.139,201.033 170.052,197.68 170.666,192.5 C170.666,159.51 143.923,132.767 110.933,132.767 C78.02,132.767 51.336,159.391 51.208,192.27 C51.208,192.322 51.199,192.364 51.199,192.407 C51.191,197.143 47.402,201.034 42.666,201.034 L8.533,201.034 C3.823,201.034 0,197.211 0,192.501 L0,158.368 C0,153.658 3.823,149.835 8.533,149.835 L9.523,128.647 C10.155,115.181 16.888,102.526 28.237,95.256 C50.15,81.227 87.407,73.598 123.904,73.069 C172.937,13.728 249.31,-9.218 351.036,4.845 C351.138,4.862 351.241,4.879 351.343,4.896 C406.426,14.547 431.352,43.774 449.485,74.485 L497.63,90.536 C501.12,91.696 503.467,94.965 503.467,98.634 L503.467,149.834 Z M273.067,68.768 L273.067,23.303 C273.067,20.794 270.865,18.78 268.365,19.002 C221.96,23.106 184.303,38.543 154.692,65.534 C151.783,68.188 153.575,73.035 157.517,73.035 L268.8,73.035 C271.156,73.035 273.067,71.123 273.067,68.768 Z M375.586,68.81 L375.927,32.322 C375.944,30.513 374.86,28.866 373.162,28.243 C365.772,25.538 357.649,23.336 348.535,21.732 C329.395,19.086 311.389,17.849 294.374,17.866 C292.019,17.866 290.133,19.811 290.133,22.175 L290.133,68.767 C290.133,71.123 292.045,73.034 294.4,73.034 L371.319,73.034 C373.657,73.034 375.56,71.148 375.586,68.81 Z M420.122,73.034 C423.671,73.034 425.634,68.972 423.501,66.131 C416.666,57.017 408.995,48.987 399.77,42.246 C396.928,40.164 392.909,42.076 392.875,45.6 L392.653,68.725 C392.628,71.097 394.548,73.034 396.92,73.034 L420.122,73.034 Z" id="Combined-Shape" fill="#000000" fill-rule="nonzero"></path>
    </g>
</svg>