<?xml version="1.0" encoding="UTF-8"?>
<svg width="27px" height="27px" viewBox="0 0 27 27" version="1.1" xmlns="http://www.w3.org/2000/svg" xmlns:xlink="http://www.w3.org/1999/xlink">
    <!-- Generator: Sketch 50.2 (55047) - http://www.bohemiancoding.com/sketch -->
    <title>Shape</title>
    <desc>Created with Sketch.</desc>
    <defs></defs>
    <g id="Web" stroke="none" stroke-width="1" fill="none" fill-rule="evenodd">
        <g id="Desktop-HD" transform="translate(-408.000000, -7949.000000)" fill="#FFFFFF" fill-rule="nonzero">
            <g id="LOCATION-#8" transform="translate(95.000000, 6698.000000)">
                <g id="ACCOMODATION-info" transform="translate(0.000000, 1077.000000)">
                    <g id="How-to-get-to-shift" transform="translate(0.000000, 25.000000)">
                        <g id="buttons" transform="translate(0.000000, 133.000000)">
                            <g id="Plane" transform="translate(275.000000, 0.000000)">
                                <g id="flaticon1531057369-svg" transform="translate(38.000000, 16.000000)">
                                    <path d="M26.2371904,0.762815764 C25.2052317,-0.269089974 23.5269079,-0.251845842 22.5164121,0.801100901 L16.9853159,6.56480702 L3.48737604,2.09783854 L0.653906079,4.93136057 L11.9048875,11.8588083 L6.21189681,17.7911061 L2.56104425,17.1917275 L0,19.7527712 L5.36730328,21.632698 L7.24723052,27 L9.80827477,24.4389563 L9.20889602,20.7881046 L15.1411953,15.095168 L22.0686446,26.3460941 L24.9021673,23.512572 L20.4352505,10.0146354 L26.1988525,4.48359321 C27.2518522,3.47309762 27.2690964,1.79477424 26.2371904,0.762815764 Z" id="Shape"></path>
                                </g>
                            </g>
                        </g>
                    </g>
                </g>
            </g>
        </g>
    </g>
</svg>