<?xml version="1.0" encoding="UTF-8"?>
<svg width="40px" height="36px" viewBox="0 0 40 36" version="1.1" xmlns="http://www.w3.org/2000/svg" xmlns:xlink="http://www.w3.org/1999/xlink">
    <!-- Generator: Sketch 50.2 (55047) - http://www.bohemiancoding.com/sketch -->
    <title>Combined Shape</title>
    <desc>Created with Sketch.</desc>
    <defs></defs>
    <g id="Web" stroke="none" stroke-width="1" fill="none" fill-rule="evenodd">
        <g id="Desktop-HD" transform="translate(-192.000000, -4821.000000)" fill="#0FD895" fill-rule="nonzero">
            <g id="TICKETS-#5" transform="translate(93.000000, 4821.000000)">
                <g id="content" transform="translate(63.000000, 0.000000)">
                    <g id="Super-Early-Bird-Student" transform="translate(1.000000, 0.000000)">
                        <path d="M74.3333333,23.7735344 C74.7015,23.7735344 75,23.4694011 75,23.0942864 L75,17.6603017 C75,17.2851869 74.7015,16.9810536 74.3333333,16.9810536 L65.9426667,16.9810536 L70.138,12.7065454 C70.39825,12.441299 70.39825,12.011335 70.138,11.7460886 L66.4953333,8.03467703 C66.235,7.76951556 65.813,7.76951556 65.5526667,8.03467703 C64.5110833,9.09591726 62.82225,9.09591726 61.7806667,8.03467703 C60.7390833,6.9734368 60.7390833,5.25273159 61.7806667,4.19149136 C62.0409167,3.92624498 62.0409167,3.49628094 61.7806667,3.23103456 L58.8046667,0.198871104 C58.5443333,-0.0662903679 58.1223333,-0.0662903679 57.862,0.198871104 L41.3906667,16.9810536 L35.6666667,16.9810536 C35.2985,16.9810536 35,17.2851869 35,17.6603017 L35,23.0942864 C35,23.4694011 35.2985,23.7735344 35.6666667,23.7735344 C37.1394167,23.7735344 38.3333333,24.9899829 38.3333333,26.4905268 C38.3333333,27.9910707 37.1394167,29.2075191 35.6666667,29.2075191 C35.2985,29.2075191 35,29.5116525 35,29.8867672 L35,35.3207519 C35,35.6958667 35.2985,36 35.6666667,36 L74.3333333,36 C74.7015,36 75,35.6958667 75,35.3207519 L75,29.8867672 C75,29.5116525 74.7015,29.2075191 74.3333333,29.2075191 C72.8605833,29.2075191 71.6666667,27.9910707 71.6666667,26.4905268 C71.6666667,24.9899829 72.8605833,23.7735344 74.3333333,23.7735344 Z M58.3333333,1.6395563 L60.4053333,3.75065935 C59.1210833,5.582082 59.5371667,8.1274793 61.3346667,9.43596583 C62.7255833,10.4485549 64.5944167,10.4485549 65.9853333,9.43596583 L68.724,12.226317 L64.0573333,16.9810536 L61.9426667,16.9810536 L63.4713333,15.4235377 C63.7315833,15.1582913 63.7315833,14.7283273 63.4713333,14.4630809 L56.138,6.99135197 C55.8776667,6.7261905 55.4556667,6.7261905 55.1953333,6.99135197 L45.3906667,16.9810536 L43.276,16.9810536 L58.3333333,1.6395563 Z M60.0573333,16.9810536 L47.276,16.9810536 L55.6666667,8.43203716 L62.0573333,14.9433093 L60.0573333,16.9810536 Z M70.385,27.166039 C70.6676667,28.8792725 71.9851667,30.2216365 73.6666667,30.5096377 L73.6666667,34.6415038 L68.3333333,34.6415038 L68.3333333,31.9245115 L67,31.9245115 L67,34.6415038 L43,34.6415038 L43,33.9622557 L41.6666667,33.9622557 L41.6666667,34.6415038 L36.3333333,34.6415038 L36.3333333,30.5096377 C38.5119167,30.1365607 39.9811667,28.0347124 39.615,25.8150146 C39.3323333,24.1017811 38.0149167,22.759417 36.3333333,22.4714159 L36.3333333,18.3395498 L41.6666667,18.3395498 L41.6666667,20.377294 L43,20.377294 L43,18.3395498 L73.6666667,18.3395498 L73.6666667,22.4714159 C71.4880833,22.8444929 70.0188333,24.9464261 70.385,27.166039 Z M67,20 L67,23 L68,23 L68,20 L67,20 Z M67,24 L67,27 L68,27 L68,24 L67,24 Z M67,28 L67,31 L68,31 L68,28 L67,28 Z M42,22 L42,25 L43,25 L43,22 L42,22 Z M42,26 L42,29 L43,29 L43,26 L42,26 Z M42,30 L42,33 L43,33 L43,30 L42,30 Z M64.3333333,21.95 C63.5969167,21.95 63,21.3680062 63,20.65 C63,20.2910375 62.7015,20 62.3333333,20 L47.6666667,20 C47.2985,20 47,20.2910375 47,20.65 C47,21.3680062 46.4030833,21.95 45.6666667,21.95 C45.2985,21.95 45,22.2410375 45,22.6 L45,30.4 C45,30.7589625 45.2985,31.05 45.6666667,31.05 C46.4030833,31.05 47,31.6319937 47,32.35 C47,32.7089625 47.2985,33 47.6666667,33 L62.3333333,33 C62.7015,33 63,32.7089625 63,32.35 C63,31.6319937 63.5969167,31.05 64.3333333,31.05 C64.7015,31.05 65,30.7589625 65,30.4 L65,22.6 C65,22.2410375 64.7015,21.95 64.3333333,21.95 Z M63.6666667,29.8319 C62.7280833,30.0702875 61.9951667,30.7848813 61.7506667,31.7 L48.2493333,31.7 C48.0048333,30.7848813 47.2719167,30.0702875 46.3333333,29.8319 L46.3333333,23.1681 C47.2719167,22.9297125 48.0048333,22.2151188 48.2493333,21.3 L61.7506667,21.3 C61.9951667,22.2151188 62.7280833,22.9297125 63.6666667,23.1681 L63.6666667,29.8319 Z" id="Combined-Shape"></path>
                    </g>
                </g>
            </g>
        </g>
    </g>
</svg>