<?xml version="1.0" encoding="UTF-8"?>
<svg width="19px" height="19px" viewBox="0 0 19 19" version="1.1" xmlns="http://www.w3.org/2000/svg" xmlns:xlink="http://www.w3.org/1999/xlink">
    <!-- Generator: Sketch 50.2 (55047) - http://www.bohemiancoding.com/sketch -->
    <title>Combined Shape</title>
    <desc>Created with Sketch.</desc>
    <defs></defs>
    <g id="Web" stroke="none" stroke-width="1" fill="none" fill-rule="evenodd">
        <g id="Desktop-HD" transform="translate(-1066.000000, -5363.000000)" fill="#FFCF6E" fill-rule="nonzero">
            <g id="TICKETS-#5" transform="translate(93.000000, 4850.000000)">
                <g id="content" transform="translate(63.000000, 53.000000)">
                    <g id="pay-with-crypto-button" transform="translate(892.000000, 449.000000)">
                        <g id="bitcoin" transform="translate(18.000000, 11.000000)">
                            <path d="M9.50734937,3.43824942e-06 C4.26030735,-0.00441257658 0.00441945308,4.24561204 3.43824942e-06,9.49265406 C-0.00441257658,14.7396961 4.24561204,18.995584 9.49265406,19 C14.738991,18.995584 18.9919102,14.7463387 19,9.50000172 C19,4.25589134 14.7514598,0.00441945308 9.50734937,3.43824942e-06 Z M9.49265406,17.4191409 C5.11912947,17.4191409 1.57355198,13.8735263 1.57355198,9.50000172 C1.57355198,5.12647712 5.11912947,1.58089964 9.49265406,1.58089964 C13.8646943,1.58531565 17.4073401,5.12796149 17.4117561,9.50000172 C17.4117561,13.8735263 13.8661787,17.4191409 9.49265406,17.4191409 Z M12.5746367,9.09789426 C13.2194304,8.73858871 13.5679279,8.01930738 13.4477823,7.29775481 C13.2985231,6.18375864 11.9552655,5.76320359 10.8955364,5.674699 L10.8955364,4 L9.85075962,4 L9.85075962,5.65995444 L9.14928275,5.65995444 L9.14928275,4 L8.10450593,4 L8.10450593,5.65995444 L6,5.65995444 L6,6.72971692 L6.78358262,6.72971692 C7.13433988,6.72971692 7.30597103,6.83300331 7.30597103,7.11333611 L7.30597103,11.7095802 C7.30597103,12.0931994 7.11193029,12.2112676 6.90297492,12.2112676 L6.10447768,12.2112676 L6.10447768,13.3031469 L8.13433517,13.3031469 L8.13433517,15 L9.18656931,15 L9.18656931,13.3031469 L9.88804618,13.3031469 L9.88804618,15 L10.9104511,15 L10.9104511,13.3031469 L11.1343211,13.3031469 C13.2835708,13.3031469 14,12.2629108 14,10.8464278 C13.9828256,10.0112378 13.3970124,9.29266394 12.5746367,9.09789426 Z M9.14924509,6.79610467 L9.89550349,6.79610467 C10.4178919,6.79610467 11.4477541,6.8846465 11.4477541,7.72568214 C11.4835718,8.27458188 11.0813289,8.75560452 10.5298269,8.82493374 L9.14924509,8.82493374 C9.14924509,8.82493374 9.14924509,6.79610467 9.14924509,6.79610467 Z M10.3059569,12.107944 L10.3059569,12.1005717 L9.14924509,12.1005717 L9.14924509,9.88728671 L10.4925403,9.88728671 C10.8059734,9.88728671 11.9850571,9.99057309 11.9850571,10.8168642 C11.9850571,11.6431553 11.4253822,12.107944 10.3059569,12.107944 Z" id="Combined-Shape"></path>
                        </g>
                    </g>
                </g>
            </g>
        </g>
    </g>
</svg>