<?xml version="1.0" encoding="UTF-8"?>
<svg width="105px" height="105px" viewBox="0 0 105 105" version="1.1" xmlns="http://www.w3.org/2000/svg" xmlns:xlink="http://www.w3.org/1999/xlink">
    <!-- Generator: Sketch 50.2 (55047) - http://www.bohemiancoding.com/sketch -->
    <title>Group</title>
    <desc>Created with Sketch.</desc>
    <defs></defs>
    <g id="Page-13" stroke="none" stroke-width="1" fill="none" fill-rule="evenodd">
        <g id="ShiftMoney_Identity_DeliveryPresentation" transform="translate(-1623.000000, -205.000000)">
            <g id="Group" transform="translate(1627.000000, 206.000000)">
                <path d="M91.0906,41.1979 C92.6266,43.2349 95.5226,43.6409 97.5596,42.1059 C99.5956,40.5699 100.0026,37.6739 98.4666,35.6369 C96.9306,33.5999 94.0346,33.1939 91.9976,34.7289 C89.9616,36.2649 89.5546,39.1609 91.0906,41.1979" id="Fill-2308-Copy" fill="#0FD895"></path>
                <path d="M30.9137,7.7847 C32.4497,9.8217 35.3457,10.2277 37.3827,8.6917 C39.4187,7.1567 39.8257,4.2607 38.2897,2.2237 C36.7537,0.1867 33.8577,-0.2193 31.8207,1.3157 C29.7847,2.8517 29.3777,5.7477 30.9137,7.7847" id="Fill-2310-Copy" fill="#0FD895"></path>
                <path d="M32.2875,100.3113 C33.8235,102.3483 36.7195,102.7543 38.7565,101.2193 C40.7925,99.6833 41.1995,96.7873 39.6635,94.7503 C38.1275,92.7133 35.2315,92.3073 33.1945,93.8423 C31.1585,95.3783 30.7515,98.2743 32.2875,100.3113" id="Fill-2312-Copy" fill="#0FD895"></path>
                <path d="M22.6747,10.4008 C9.0587,18.9388 0.0057,34.0818 0.0057,51.3398 C0.0057,68.7538 9.2247,84.0158 23.0477,92.5098" id="Stroke-2314-Copy" stroke="#017FFF" stroke-width="7.852" stroke-linecap="round" stroke-linejoin="round"></path>
                <path d="M90.0789,27.1268 C81.7199,12.7318 66.1369,3.0528 48.2919,3.0528" id="Stroke-2316-Copy" stroke="#017FFF" stroke-width="7.852" stroke-linecap="round" stroke-linejoin="round"></path>
                <path d="M48.2922,99.626 C74.9602,99.626 96.5792,78.007 96.5792,51.339" id="Stroke-2318-Copy" stroke="#017FFF" stroke-width="7.852" stroke-linecap="round" stroke-linejoin="round"></path>
                <path d="M46.3849944,63.5517553 C45.2560584,63.579411 44.1181255,63.1624742 43.2564991,62.3008478 L33.2518442,52.2961929 C31.5823651,50.6267138 31.5830722,47.9206162 33.2518442,46.2518442 C34.9213233,44.5823651 37.6267138,44.5823651 39.2961929,46.2518442 L46.3901847,53.3458359 L59.4841764,40.2518442 C61.1536555,38.5823651 63.8597532,38.5830722 65.5285252,40.2518442 C67.1980043,41.9213233 67.1980043,44.6267138 65.5285252,46.2961929 L49.5238703,62.3008478 C48.6595331,63.165185 47.5173377,63.5822196 46.3849944,63.5517553 Z" id="Combined-Shape" fill="#0FD895"></path>
            </g>
        </g>
    </g>
</svg>