<?xml version="1.0" encoding="UTF-8"?>
<svg width="53px" height="53px" viewBox="0 0 53 53" version="1.1" xmlns="http://www.w3.org/2000/svg" xmlns:xlink="http://www.w3.org/1999/xlink">
    <!-- Generator: Sketch 50.2 (55047) - http://www.bohemiancoding.com/sketch -->
    <title>Group 12</title>
    <desc>Created with Sketch.</desc>
    <defs></defs>
    <g id="Web" stroke="none" stroke-width="1" fill="none" fill-rule="evenodd">
        <g id="Desktop-HD" transform="translate(-235.000000, -7081.000000)">
            <g id="LOCATION-#8" transform="translate(95.000000, 6708.000000)">
                <g id="header" transform="translate(142.000000, 226.000000)">
                    <g id="Location-header">
                        <g id="Group-8" transform="translate(0.000000, 148.000000)">
                            <g id="Group-12">
                                <path d="M25.0035853,17.8713507 C20.5458746,17.8713507 16.9287153,21.4829329 16.9287153,25.9430337 C16.9287153,30.4039313 20.5458746,34.0210906 25.0035853,34.0210906 C29.4612959,34.0210906 33.0776585,30.4039313 33.0776585,25.9430337 C33.0776585,21.4829329 29.4597025,17.8713507 25.0035853,17.8713507 Z" id="Path" fill="#FF697E"></path>
                                <g id="Group">
                                    <path d="M46.0455,20.7088157 C46.8135,21.7282211 48.2615,21.9314015 49.28,21.1632193 C50.298,20.3945366 50.5015,18.9452495 49.7335,17.9258442 C48.9655,16.9064388 47.5175,16.7032584 46.499,17.4714406 C45.481,18.2401233 45.2775,19.6894104 46.0455,20.7088157" id="Fill-42" fill="#0FD895"></path>
                                    <path d="M15.957,3.98736542 C16.725,5.00677076 18.173,5.2099512 19.1915,4.44126853 C20.2095,3.67308631 20.413,2.2237992 19.645,1.20439387 C18.877,0.184988533 17.429,-0.0181919111 16.4105,0.749990311 C15.3925,1.51867298 15.189,2.96796009 15.957,3.98736542" id="Fill-43" fill="#0FD895"></path>
                                    <path d="M16.644,50.2917884 C17.412,51.3111937 18.86,51.5143741 19.8785,50.7461919 C20.8965,49.9775092 21.1,48.5282221 20.332,47.5088168 C19.564,46.4894115 18.116,46.286231 17.0975,47.0544132 C16.0795,47.8230959 15.876,49.272383 16.644,50.2917884" id="Fill-44" fill="#0FD895"></path>
                                    <path d="M11.8375,5.29657813 C5.0295,9.5693728 0.503,17.147603 0.503,25.7842732 C0.503,34.4990128 5.1125,42.1367959 12.024,46.387571" id="Stroke-45" stroke="#017FFF" stroke-width="3.926" stroke-linecap="round" stroke-linejoin="round"></path>
                                    <path d="M45.5395,13.6670119 C41.36,6.46311413 33.5685,1.61931236 24.646,1.61931236" id="Stroke-46" stroke="#017FFF" stroke-width="3.926" stroke-linecap="round" stroke-linejoin="round"></path>
                                    <path d="M24.646,49.9488338 C37.98,49.9488338 48.7895,39.1297253 48.7895,25.7838729" id="Stroke-47" stroke="#017FFF" stroke-width="3.926" stroke-linecap="round" stroke-linejoin="round"></path>
                                </g>
                            </g>
                        </g>
                    </g>
                </g>
            </g>
        </g>
    </g>
</svg>