<?xml version="1.0" encoding="UTF-8"?>
<svg width="38px" height="23px" viewBox="0 0 38 23" version="1.1" xmlns="http://www.w3.org/2000/svg" xmlns:xlink="http://www.w3.org/1999/xlink">
    <!-- Generator: Sketch 50.2 (55047) - http://www.bohemiancoding.com/sketch -->
    <title>Combined Shape</title>
    <desc>Created with Sketch.</desc>
    <defs></defs>
    <g id="Web" stroke="none" stroke-width="1" fill="none" fill-rule="evenodd">
        <g id="Desktop-HD" transform="translate(-125.000000, -7952.000000)" fill="#BCBCBC" fill-rule="nonzero">
            <g id="LOCATION-#8" transform="translate(95.000000, 6698.000000)">
                <g id="ACCOMODATION-info" transform="translate(0.000000, 1077.000000)">
                    <g id="How-to-get-to-shift" transform="translate(0.000000, 25.000000)">
                        <g id="buttons" transform="translate(0.000000, 133.000000)">
                            <g id="booking.com">
                                <g id="flaticon1531058316-svg" transform="translate(30.000000, 19.000000)">
                                    <path d="M34.9570312,16.9551282 L3.04296875,16.9551282 L3.04296875,23 L0,23 L0,1.54807692 C0,1.1549391 0.1484375,0.798586538 0.4453125,0.479166667 C0.7421875,0.159746795 1.10088672,0 1.52148437,0 C1.94208203,0 2.30078125,0.159746795 2.59765625,0.479166667 C2.89453125,0.798439103 3.04296875,1.15471795 3.04296875,1.54807692 L3.04296875,13.9326923 L38,13.9326923 L38,23 L34.9570312,23 L34.9570312,16.9551282 Z M7.46710526,7 C6.78730263,7 6.20611842,6.75553333 5.72368421,6.26666667 C5.24125,5.7778 5,5.18886667 5,4.5 C5,3.81113333 5.24125,3.2222 5.72368421,2.73333333 C6.20611842,2.24446667 6.78730263,2 7.46710526,2 C8.14690789,2 8.73901316,2.24446667 9.24342105,2.73333333 C9.74782895,3.22213333 10,3.811 10,4.5 C10,5.1888 9.74782895,5.77773333 9.24342105,6.26666667 C8.73901316,6.75553333 8.14690789,7 7.46710526,7 Z M38,10 L6.41534989,10 C5.47175847,10 5,9.66510185 5,8.99537037 C5,8.32563889 5.47175847,7.99074074 6.41534989,7.99074074 L12.0767494,7.99074074 L12.0767494,4.23148148 C12.0767494,3.88582407 12.2132935,3.59415741 12.486456,3.35648148 C12.7596185,3.11880556 13.094833,3 13.4920993,3 L13.6410835,3 L35.765237,4.87962963 C36.4105621,4.96602778 36.944447,5.1712963 37.3668172,5.49537037 C37.7889639,5.81944444 38,6.24074074 38,6.75925926 L38,10 Z" id="Combined-Shape"></path>
                                </g>
                            </g>
                        </g>
                    </g>
                </g>
            </g>
        </g>
    </g>
</svg>