<?xml version="1.0" encoding="UTF-8"?>
<svg width="22px" height="21px" viewBox="0 0 22 21" version="1.1" xmlns="http://www.w3.org/2000/svg" xmlns:xlink="http://www.w3.org/1999/xlink">
    <!-- Generator: Sketch 50.2 (55047) - http://www.bohemiancoding.com/sketch -->
    <title>Facebook__x28_alt_x29_</title>
    <desc>Created with Sketch.</desc>
    <defs></defs>
    <g id="Web" stroke="none" stroke-width="1" fill="none" fill-rule="evenodd">
        <g id="Desktop-HD" transform="translate(-659.000000, -10432.000000)" fill="#FFFFFF" fill-rule="nonzero">
            <g id="FOOTER-#10" transform="translate(-105.000000, 10153.000000)">
                <path d="M786,282.500233 C786,280.6611 784.260533,279 782.333333,279 L767.666667,279 C765.739467,279 764,280.6611 764,282.500233 L764,296.499767 C764,298.3389 765.739467,300 767.666911,300 L775,300 L775,292.066667 L772.311111,292.066667 L772.311111,288.566667 L775,288.566667 L775,287.203067 C775,284.8513 776.849956,282.733333 779.125,282.733333 L782.088889,282.733333 L782.088889,286.233333 L779.125,286.233333 C778.800622,286.233333 778.422222,286.609233 778.422222,287.172267 L778.422222,288.566667 L782.088889,288.566667 L782.088889,292.066667 L778.422222,292.066667 L778.422222,300 L782.333333,300 C784.260533,300 786,298.3389 786,296.499767 L786,282.500233 Z" id="Facebook__x28_alt_x29_"></path>
            </g>
        </g>
    </g>
</svg>