<?xml version="1.0" encoding="UTF-8"?>
<svg width="22px" height="21px" viewBox="0 0 22 21" version="1.1" xmlns="http://www.w3.org/2000/svg" xmlns:xlink="http://www.w3.org/1999/xlink">
    <!-- Generator: Sketch 50.2 (55047) - http://www.bohemiancoding.com/sketch -->
    <title>Shape</title>
    <desc>Created with Sketch.</desc>
    <defs></defs>
    <g id="Web" stroke="none" stroke-width="1" fill="none" fill-rule="evenodd">
        <g id="Desktop-HD" transform="translate(-811.000000, -10432.000000)" fill="#FFFFFF" fill-rule="nonzero">
            <g id="FOOTER-#10" transform="translate(-105.000000, 10153.000000)">
                <path d="M936.789807,280.155166 C935.983262,279.385103 935.011516,279 933.87532,279 L920.125031,279 C918.988835,279 918.017089,279.385103 917.210193,280.155166 C916.403448,280.925372 916,281.852886 916,282.937467 L916,296.062389 C916,297.146875 916.403448,298.074484 917.210193,298.84469 C918.017089,299.614897 918.988835,300 920.125031,300 L933.875169,300 C935.011365,300 935.983112,299.614897 936.789656,298.84469 C937.596552,298.074484 938,297.146923 938,296.062389 L938,282.937467 C937.99995,281.852886 937.596502,280.925372 936.789807,280.155166 Z M925.109534,291.550715 C924.517406,292.115967 923.801414,292.398594 922.961006,292.398594 C922.120699,292.398594 921.404606,292.115967 920.812578,291.550715 C920.220651,290.985655 919.924562,290.302171 919.924562,289.499928 C919.924562,288.69759 920.22045,288.014154 920.812578,287.449093 C921.404456,286.883985 922.120699,286.601359 922.961006,286.601359 C923.801364,286.601359 924.517356,286.883985 925.109534,287.449093 C925.701412,288.014106 925.997451,288.69759 925.997451,289.499928 C925.997451,290.301835 925.701412,290.985655 925.109534,291.550715 Z M933.187422,291.550715 C932.595795,292.115967 931.879552,292.398594 931.038994,292.398594 C930.198787,292.398594 929.482594,292.115967 928.890265,291.550715 C928.298639,290.985655 928.002349,290.302171 928.002349,289.499928 C928.002349,288.69759 928.298639,288.014154 928.890265,287.449093 C929.482594,286.883985 930.198636,286.601359 931.038994,286.601359 C931.879201,286.601359 932.595444,286.883985 933.187422,287.449093 C933.779399,288.014106 934.075689,288.69759 934.075689,289.499928 C934.075689,290.301835 933.779349,290.985655 933.187422,291.550715 Z" id="Shape"></path>
            </g>
        </g>
    </g>
</svg>