<?xml version="1.0" encoding="UTF-8"?>
<svg width="22px" height="18px" viewBox="0 0 22 18" version="1.1" xmlns="http://www.w3.org/2000/svg" xmlns:xlink="http://www.w3.org/1999/xlink">
    <!-- Generator: Sketch 50.2 (55047) - http://www.bohemiancoding.com/sketch -->
    <title>Shape</title>
    <desc>Created with Sketch.</desc>
    <defs></defs>
    <g id="Web" stroke="none" stroke-width="1" fill="none" fill-rule="evenodd">
        <g id="Desktop-HD" transform="translate(-588.000000, -10434.000000)" fill="#FFFFFF" fill-rule="nonzero">
            <g id="FOOTER-#10" transform="translate(-105.000000, 10153.000000)">
                <path d="M699.748635,299 C707.855594,299 712.291639,292.072835 712.291639,286.075787 C712.291639,285.880906 712.291639,285.686024 712.283042,285.491142 C713.142741,284.853346 713.890679,284.047244 714.483871,283.134843 C713.692948,283.498031 712.841846,283.737205 711.94776,283.852362 C712.85904,283.294291 713.555396,282.399606 713.890679,281.336614 C713.039577,281.859252 712.093909,282.231299 711.088061,282.435039 C710.279944,281.549213 709.136545,281 707.872788,281 C705.43984,281 703.462533,283.037402 703.462533,285.544291 C703.462533,285.898622 703.505518,286.244094 703.574294,286.580709 C699.911978,286.394685 696.662317,284.57874 694.487279,281.832677 C694.109011,282.505906 693.894087,283.285433 693.894087,284.11811 C693.894087,285.694882 694.676413,287.08563 695.8542,287.900591 C695.132053,287.874016 694.452891,287.670276 693.859699,287.333661 C693.859699,287.351378 693.859699,287.369094 693.859699,287.395669 C693.859699,289.59252 695.381365,291.435039 697.39306,291.851378 C697.02339,291.957677 696.636526,292.010827 696.232467,292.010827 C695.948767,292.010827 695.673663,291.984252 695.407156,291.931102 C695.965961,293.738189 697.599388,295.049213 699.525113,295.084646 C698.012044,296.307087 696.112109,297.033465 694.048832,297.033465 C693.696356,297.033465 693.343879,297.015748 693,296.971457 C694.942919,298.247047 697.264106,299 699.748635,299" id="Shape"></path>
            </g>
        </g>
    </g>
</svg>