<?xml version="1.0" encoding="UTF-8"?>
<svg width="32px" height="21px" viewBox="0 0 32 21" version="1.1" xmlns="http://www.w3.org/2000/svg" xmlns:xlink="http://www.w3.org/1999/xlink">
    <!-- Generator: Sketch 50.2 (55047) - http://www.bohemiancoding.com/sketch -->
    <title>Shape</title>
    <desc>Created with Sketch.</desc>
    <defs></defs>
    <g id="Web" stroke="none" stroke-width="1" fill="none" fill-rule="evenodd">
        <g id="Desktop-HD" transform="translate(-730.000000, -10432.000000)" fill="#FFFFFF" fill-rule="nonzero">
            <g id="FOOTER-#10" transform="translate(-105.000000, 10153.000000)">
                <path d="M865.64,281.023636 C864.772,279.549818 863.83,279.278727 861.912,279.175636 C859.996,279.051545 855.178,279 851.004,279 C846.822,279 842.002,279.051545 840.088,279.173727 C838.174,279.278727 837.23,279.547909 836.354,281.023636 C835.46,282.495545 835,285.030818 835,289.494273 C835,289.498091 835,289.5 835,289.5 C835,289.503818 835,289.505727 835,289.505727 L835,289.509545 C835,293.953909 835.46,296.508273 836.354,297.964909 C837.23,299.438727 838.172,299.706 840.086,299.830091 C842.002,299.937 846.822,300 851.004,300 C855.178,300 859.996,299.937 861.914,299.832 C863.832,299.707909 864.774,299.440636 865.642,297.966818 C866.544,296.510182 867,293.955818 867,289.511455 C867,289.511455 867,289.505727 867,289.501909 C867,289.501909 867,289.498091 867,289.496182 C867,285.030818 866.544,282.495545 865.64,281.023636 Z M847,295.227273 L847,283.772727 L857,289.5 L847,295.227273 Z" id="Shape"></path>
            </g>
        </g>
    </g>
</svg>