<?xml version="1.0" encoding="UTF-8"?>
<svg width="69px" height="25px" viewBox="0 0 69 25" version="1.1" xmlns="http://www.w3.org/2000/svg" xmlns:xlink="http://www.w3.org/1999/xlink">
    <!-- Generator: Sketch 50.2 (55047) - http://www.bohemiancoding.com/sketch -->
    <title>american-express</title>
    <desc>Created with Sketch.</desc>
    <defs></defs>
    <g id="Web" stroke="none" stroke-width="1" fill="none" fill-rule="evenodd">
        <g id="Desktop-HD" transform="translate(-373.000000, -5332.000000)" fill-rule="nonzero">
            <g id="TICKETS-#5" transform="translate(93.000000, 4850.000000)">
                <g id="content" transform="translate(63.000000, 53.000000)">
                    <g id="Payment-method" transform="translate(405.500000, 441.500000) rotate(-360.000000) translate(-405.500000, -441.500000) translate(33.000000, 429.000000)">
                        <g id="american-express" transform="translate(184.441748, 0.000000)">
                            <polygon id="Shape" fill="#2FABF7" points="5.34328214 5.35778497 7.12437619 5.35778497 6.23382917 2.67889248"></polygon>
                            <path d="M36.1403285,3.68347717 C35.912465,3.57185665 35.5706698,3.57185665 35.2288746,3.57185665 L32.9502399,3.57185665 L32.9502399,5.35778497 L35.2288746,5.35778497 C35.5706698,5.35778497 35.912465,5.35778497 36.1403285,5.24616445 C36.368192,5.13454393 36.4821237,4.79968237 36.4821237,4.46482081 C36.5960554,4.01833873 36.368192,3.79509769 36.1403285,3.68347717 Z" id="Shape" fill="#228FE0"></path>
                            <path d="M58.3733818,0 L58.3733818,1.29885696 L57.7259875,0 L52.6547326,0 L52.6547326,1.29885696 L52.0073383,0 L45.1017996,0 C43.9149101,0 42.9438188,0.21647616 42.0806264,0.649428481 L42.0806264,0 L37.2251695,0 L37.2251695,0.649428481 C36.6856743,0.21647616 36.0382801,0 35.1750877,0 L17.8033419,0 L16.6164525,2.705952 L15.429563,0 L9.92671188,0 L9.92671188,1.29885696 L9.27931762,0 L4.63965881,0 L2.48167797,5.08718977 L0,10.7155699 L2.48167797,10.7155699 L5.50285115,10.7155699 L6.1502454,8.98376066 L7.66083199,8.98376066 L8.30822624,10.7155699 L14.5663707,10.7155699 L14.5663707,9.41671298 L15.1058659,10.7155699 L18.2349381,10.7155699 L18.7744333,9.41671298 L18.7744333,10.7155699 L33.7724002,10.7155699 L33.7724002,7.90137985 L33.9881983,7.90137985 C34.2039964,7.90137985 34.2039964,7.90137985 34.2039964,8.22609409 L34.2039964,10.6073319 L41.9727274,10.6073319 L41.9727274,9.95790338 C42.6201216,10.2826176 43.591213,10.6073319 44.8860015,10.6073319 L48.1229728,10.6073319 L48.770367,8.87552258 L50.2809536,8.87552258 L50.9283479,10.6073319 L57.1864923,10.6073319 L57.1864923,8.98376066 L58.1575837,10.6073319 L63.2288387,10.6073319 L63.2288387,0 L58.3733818,0 Z M21.9035056,9.09199874 L20.0692218,9.09199874 L20.0692218,3.13890433 L17.4796448,9.09199874 L15.8611592,9.09199874 L13.2715822,3.13890433 L13.2715822,9.09199874 L9.60301475,9.09199874 L8.84772145,7.46842753 L5.17915402,7.46842753 L4.53175977,9.20023682 L2.48167797,9.20023682 L5.71864923,1.51533312 L8.41612529,1.51533312 L11.4372985,8.7672845 L11.4372985,1.51533312 L14.3505726,1.51533312 L16.7243515,6.71076097 L18.8823324,1.51533312 L21.9035056,1.51533312 L21.9035056,9.09199874 Z M29.2406404,3.13890433 L25.0325778,3.13890433 L25.0325778,4.54599937 L29.1327414,4.54599937 L29.1327414,6.06133249 L25.0325778,6.06133249 L25.0325778,7.57666561 L29.2406404,7.57666561 L29.2406404,9.20023682 L23.1982941,9.20023682 L23.1982941,1.51533312 L29.2406404,1.51533312 L29.2406404,3.13890433 Z M37.3330686,6.27780865 C37.5488667,6.71076097 37.6567657,7.03547521 37.6567657,7.68490369 L37.6567657,9.20023682 L35.822482,9.20023682 L35.822482,8.22609409 C35.822482,7.79314177 35.822482,7.14371329 35.4987849,6.71076097 C35.1750877,6.38604673 34.8513906,6.38604673 34.2039964,6.38604673 L32.2618136,6.38604673 L32.2618136,9.20023682 L30.4275299,9.20023682 L30.4275299,1.51533312 L34.5276935,1.51533312 C35.4987849,1.51533312 36.1461791,1.51533312 36.6856743,1.84004736 C37.2251695,2.1647616 37.5488667,2.705952 37.5488667,3.57185665 C37.5488667,4.76247553 36.7935734,5.41190401 36.2540782,5.62838017 C36.7935734,5.73661825 37.1172705,6.06133249 37.3330686,6.27780865 Z M40.5700398,9.09199874 L38.7357561,9.09199874 L38.7357561,1.40709504 L40.5700398,1.40709504 L40.5700398,9.09199874 Z M61.8261511,9.09199874 L59.2365741,9.09199874 L55.7838048,3.35538049 L55.7838048,9.09199874 L52.1152373,9.09199874 L51.4678431,7.46842753 L47.6913766,7.46842753 L47.0439824,9.20023682 L44.9939006,9.20023682 C44.1307082,9.20023682 43.0517178,8.98376066 42.4043236,8.33433217 C41.7569293,7.68490369 41.4332322,6.81899905 41.4332322,5.41190401 C41.4332322,4.32952321 41.6490303,3.24714241 42.4043236,2.38123776 C42.9438188,1.73180928 43.9149101,1.51533312 45.1017996,1.51533312 L46.8281843,1.51533312 L46.8281843,3.13890433 L45.1017996,3.13890433 C44.4544054,3.13890433 44.1307082,3.24714241 43.6991121,3.57185665 C43.3754149,3.89657089 43.1596168,4.54599937 43.1596168,5.30366593 C43.1596168,6.16957057 43.2675159,6.71076097 43.6991121,7.14371329 C44.0228092,7.46842753 44.4544054,7.57666561 44.9939006,7.57666561 L45.7491939,7.57666561 L48.2308718,1.6235712 L50.9283479,1.6235712 L53.9495211,8.87552258 L53.9495211,1.6235712 L56.6469971,1.6235712 L59.7760693,6.92723713 L59.7760693,1.6235712 L61.6103531,1.6235712 L61.6103531,9.09199874 L61.8261511,9.09199874 Z" id="Shape" fill="#0571C1"></path>
                            <g id="Group" transform="translate(27.606958, 2.678892)" fill="#228FE0">
                                <polygon id="Shape" points="21.5036747 3.07102023 24.017446 3.07102023 22.8152076 0.0271771701"></polygon>
                                <polygon id="Shape" points="2.9236254 18.7250702 2.9236254 12.5286754 0.0819708056 15.5725185"></polygon>
                            </g>
                            <polygon id="Shape" fill="#2FABF7" points="18.7014875 16.0733549 18.7014875 17.4553233 22.5456822 17.4553233 22.5456822 18.9435969 18.7014875 18.9435969 18.7014875 20.5381757 22.9612708 20.5381757 24.9353167 18.3057653 23.0651679 16.0733549"></polygon>
                            <path d="M34.3973788,16.0733549 L32.0596929,16.0733549 L32.0596929,17.8592832 L34.5086972,17.8592832 C35.1766074,17.8592832 35.6218809,17.5616285 35.6218809,16.9663191 C35.5105626,16.3710096 35.0652891,16.0733549 34.3973788,16.0733549 Z" id="SVGCleanerId_0" fill="#228FE0"></path>
                            <path d="M68.0279984,18.265176 L68.0279984,13.3944624 L66.7221046,13.3944624 L63.4573701,13.3944624 C62.4779497,13.3944624 61.7161784,13.6109386 61.1720559,14.0438909 L61.1720559,13.3944624 L56.1661297,13.3944624 C55.4043583,13.3944624 54.424938,13.6109386 53.98964,14.0438909 L53.98964,13.3944624 L45.1748569,13.3944624 L45.1748569,14.0438909 C44.52191,13.5027005 43.3248406,13.3944624 42.7807182,13.3944624 L36.9041961,13.3944624 L36.9041961,14.0438909 C36.3600737,13.5027005 35.0541799,13.3944624 34.401233,13.3944624 L27.871764,13.3944624 L26.3482212,15.0180336 L24.9335029,13.3944624 L15.1392994,13.3944624 L15.1392994,24.0017943 L24.715854,24.0017943 L26.2393967,22.3782231 L27.654115,24.0017943 L33.5306371,24.0017943 L33.5306371,21.5123184 L34.2924085,21.5123184 C35.0541799,21.5123184 36.0336002,21.5123184 36.7953716,21.1876042 L36.7953716,24.1100324 L41.6924734,24.1100324 L41.6924734,21.2958423 L41.9101224,21.2958423 C42.2365958,21.2958423 42.2365958,21.2958423 42.2365958,21.6205565 L42.2365958,24.1100324 L57.0367256,24.1100324 C58.0161459,24.1100324 58.9955663,23.8935562 59.5396887,23.4606039 L59.5396887,24.1100324 L64.2191415,24.1100324 C65.1985618,24.1100324 66.1779822,24.0017943 66.8309291,23.568842 C67.9191739,22.9194135 68.5721208,21.7287946 68.5721208,20.3216996 C68.5721208,19.564033 68.3544719,18.8063664 68.0279984,18.265176 Z M34.2924085,19.9969853 L32.1159188,19.9969853 L32.1159188,22.5946992 L28.6335354,22.5946992 L26.4570457,20.1052234 L24.1717315,22.5946992 L16.9893156,22.5946992 L16.9893156,14.9097955 L24.280556,14.9097955 L26.4570457,17.3992714 L28.7423598,14.9097955 L34.5100575,14.9097955 C35.9247758,14.9097955 37.557143,15.3427479 37.557143,17.3992714 C37.4483185,19.564033 35.9247758,19.9969853 34.2924085,19.9969853 Z M45.1748569,19.564033 C45.3925058,19.8887472 45.5013303,20.3216996 45.5013303,20.971128 L45.5013303,22.4864612 L43.6513141,22.4864612 L43.6513141,21.5123184 C43.6513141,21.0793661 43.6513141,20.3216996 43.3248406,19.9969853 C43.1071917,19.6722711 42.6718937,19.6722711 42.0189468,19.6722711 L40.0601061,19.6722711 L40.0601061,22.4864612 L38.2100899,22.4864612 L38.2100899,14.8015575 L42.3454203,14.8015575 C43.2160162,14.8015575 43.9777875,14.8015575 44.52191,15.1262717 C45.0660324,15.4509859 45.5013303,15.9921763 45.5013303,16.858081 C45.5013303,18.0486999 44.7395589,18.6981284 44.1954365,18.9146045 C44.7395589,19.1310807 45.0660324,19.3475568 45.1748569,19.564033 Z M52.6837462,16.4251287 L48.4395914,16.4251287 L48.4395914,17.8322237 L52.5749217,17.8322237 L52.5749217,19.3475568 L48.4395914,19.3475568 L48.4395914,20.86289 L52.6837462,20.86289 L52.6837462,22.4864612 L46.5895751,22.4864612 L46.5895751,14.8015575 L52.6837462,14.8015575 L52.6837462,16.4251287 Z M57.2543745,22.4864612 L53.7719911,22.4864612 L53.7719911,20.86289 L57.2543745,20.86289 C57.580848,20.86289 57.798497,20.86289 58.0161459,20.6464138 C58.1249704,20.5381757 58.2337949,20.3216996 58.2337949,20.1052234 C58.2337949,19.8887472 58.1249704,19.6722711 58.0161459,19.564033 C57.9073214,19.4557949 57.6896725,19.3475568 57.363199,19.3475568 C55.6220073,19.2393188 53.5543421,19.3475568 53.5543421,16.9663191 C53.5543421,15.8839383 54.207289,14.6933194 56.1661297,14.6933194 L59.7573377,14.6933194 L59.7573377,16.5333667 L56.3837787,16.5333667 C56.0573052,16.5333667 55.8396562,16.5333667 55.6220073,16.6416048 C55.4043583,16.7498429 55.4043583,16.9663191 55.4043583,17.1827952 C55.4043583,17.5075095 55.6220073,17.6157476 55.8396562,17.7239856 C56.0573052,17.8322237 56.2749542,17.8322237 56.4926032,17.8322237 L57.4720235,17.8322237 C58.4514439,17.8322237 59.1043908,18.0486999 59.5396887,18.4816522 C59.8661621,18.8063664 60.0838111,19.3475568 60.0838111,20.1052234 C60.0838111,21.7287946 59.1043908,22.4864612 57.2543745,22.4864612 Z M66.6132801,21.7287946 C66.1779822,22.1617469 65.4162108,22.4864612 64.327966,22.4864612 L60.8455825,22.4864612 L60.8455825,20.86289 L64.327966,20.86289 C64.6544394,20.86289 64.8720884,20.86289 65.0897374,20.6464138 C65.1985618,20.5381757 65.3073863,20.3216996 65.3073863,20.1052234 C65.3073863,19.8887472 65.1985618,19.6722711 65.0897374,19.564033 C64.9809129,19.4557949 64.7632639,19.3475568 64.4367905,19.3475568 C62.6955987,19.2393188 60.6279335,19.3475568 60.6279335,16.9663191 C60.6279335,15.8839383 61.2808804,14.6933194 63.2397211,14.6933194 L66.8309291,14.6933194 L66.8309291,16.5333667 L63.5661946,16.5333667 C63.2397211,16.5333667 63.0220722,16.5333667 62.8044232,16.6416048 C62.5867742,16.7498429 62.5867742,16.9663191 62.5867742,17.1827952 C62.5867742,17.5075095 62.6955987,17.6157476 63.0220722,17.7239856 C63.2397211,17.8322237 63.4573701,17.8322237 63.6750191,17.8322237 L64.6544394,17.8322237 C65.6338598,17.8322237 66.2868067,18.0486999 66.7221046,18.4816522 C66.8309291,18.4816522 66.8309291,18.5898903 66.8309291,18.5898903 C67.1574025,19.0228426 67.266227,19.564033 67.266227,20.1052234 C67.266227,20.7546519 67.0485781,21.2958423 66.6132801,21.7287946 Z" id="Shape" fill="#0571C1"></path>
                            <path d="M43.2647047,16.1849754 C43.0368412,16.0733549 42.695046,16.0733549 42.3532508,16.0733549 L40.0746161,16.0733549 L40.0746161,17.8592832 L42.3532508,17.8592832 C42.695046,17.8592832 43.0368412,17.8592832 43.2647047,17.7476627 C43.4925681,17.6360422 43.6064999,17.3011806 43.6064999,16.9663191 C43.7204316,16.519837 43.4925681,16.2965959 43.2647047,16.1849754 Z" id="SVGCleanerId_1" fill="#228FE0"></path>
                            <g id="Group" transform="translate(27.606958, 2.678892)" fill="#228FE0">
                                <path d="M8.27905136,0.462011892 C8.06046255,0.353303212 7.73257933,0.353303212 7.40469611,0.353303212 L5.21880796,0.353303212 L5.21880796,2.0926421 L7.40469611,2.0926421 C7.73257933,2.0926421 8.06046255,2.0926421 8.27905136,1.98393342 C8.49764018,1.87522474 8.60693459,1.5490987 8.60693459,1.22297266 C8.71622899,0.788137934 8.49764018,0.570720573 8.27905136,0.462011892 Z" id="Shape"></path>
                                <polygon id="Shape" points="21.5036747 3.07102023 24.017446 3.07102023 22.8152076 0.0271771701"></polygon>
                                <polygon id="Shape" points="2.9236254 18.7250702 2.9236254 12.5286754 0.0819708056 15.5725185"></polygon>
                            </g>
                            <path d="M34.3973788,16.0733549 L32.0596929,16.0733549 L32.0596929,17.8592832 L34.5086972,17.8592832 C35.1766074,17.8592832 35.6218809,17.5616285 35.6218809,16.9663191 C35.5105626,16.3710096 35.0652891,16.0733549 34.3973788,16.0733549 Z" id="SVGCleanerId_0_1_" fill="#228FE0"></path>
                            <path d="M43.2647047,16.1849754 C43.0368412,16.0733549 42.695046,16.0733549 42.3532508,16.0733549 L40.0746161,16.0733549 L40.0746161,17.8592832 L42.3532508,17.8592832 C42.695046,17.8592832 43.0368412,17.8592832 43.2647047,17.7476627 C43.4925681,17.6360422 43.6064999,17.3011806 43.6064999,16.9663191 C43.7204316,16.519837 43.4925681,16.2965959 43.2647047,16.1849754 Z" id="SVGCleanerId_1_1_" fill="#228FE0"></path>
                            <g id="Group" fill="#2FABF7">
                                <polygon id="Shape" points="33.7316231 22.3190014 32.2033295 20.665742 32.2033295 22.539436 28.6009231 22.539436 26.4176465 20.0044383 24.0160423 22.539436 16.8112296 22.539436 16.8112296 14.8242256 24.1252061 14.8242256 26.4176465 17.3592233 27.5092848 16.0366158 24.7801891 13.2811835 15.1737722 13.2811835 15.1737722 24.082478 24.7801891 24.082478 26.4176465 22.4292187 27.8367763 24.082478 33.7316231 24.082478"></polygon>
                                <polygon id="Shape" points="22.3785849 10.8564031 20.9594551 9.31336107 20.3044721 9.31336107 20.3044721 8.65205733 18.6670147 6.99879797 17.5753764 9.31336107 16.0470828 9.31336107 13.4271509 3.25141008 13.4271509 9.31336107 9.71558076 9.31336107 8.95143395 7.66010171 5.23986378 7.66010171 4.47571698 9.31336107 2.51076806 9.31336107 5.78568292 1.59815072 8.51477864 1.59815072 11.5713658 8.9827092 11.5713658 1.59815072 13.2088233 1.59815072 11.6805297 0.0551086454 10.0430722 0.0551086454 10.0430722 1.37771613 9.4972531 0.0551086454 4.69404463 0.0551086454 2.51076806 5.23532131 0 10.8564031 2.51076806 10.8564031 5.67651909 10.8564031 6.33150207 9.20314378 7.85979567 9.20314378 8.62394247 10.8564031 14.7371169 10.8564031 14.7371169 9.53379565 15.282936 10.8564031 18.4486871 10.8564031 18.9945062 9.53379565 18.9945062 10.8564031"></polygon>
                                <polygon id="Shape" points="17.3570488 5.78640777 15.6104275 4.02293111 16.9203935 6.88858067"></polygon>
                            </g>
                            <g id="Group" transform="translate(10.686564, 0.000000)" fill="#228FE0">
                                <path d="M56.1421798,23.5280661 C57.1228292,22.8629617 57.7765955,21.7544545 57.8855565,20.5350965 L56.3601019,18.9831864 C56.4690629,19.3157386 56.578024,19.6482907 56.578024,20.0916936 C56.578024,20.756798 56.3601019,21.3110516 55.9242577,21.7544545 C55.4884135,22.1978574 54.7256862,22.5304096 53.6360757,22.5304096 L50.1493222,22.5304096 L50.1493222,20.8676487 L53.6360757,20.8676487 C53.9629588,20.8676487 54.1808809,20.8676487 54.398803,20.6459473 C54.5077641,20.5350965 54.6167251,20.3133951 54.6167251,20.0916936 C54.6167251,19.8699922 54.5077641,19.6482907 54.398803,19.53744 C54.289842,19.4265893 54.0719199,19.3157386 53.7450367,19.3157386 C52.00166,19.2048878 49.9314001,19.3157386 49.9314001,16.8770227 C49.9314001,15.7685154 50.5851664,14.7708589 52.2195821,14.5491575 L51.0210105,13.3297995 C50.8030884,13.4406502 50.6941274,13.5515009 50.5851664,13.5515009 L50.5851664,12.8863966 L45.5729582,12.8863966 C44.8102308,12.8863966 43.8295814,13.1080981 43.3937372,13.5515009 L43.3937372,12.8863966 L34.4589313,12.8863966 L34.4589313,13.5515009 C33.805165,12.9972473 32.6065935,12.8863966 32.0617883,12.8863966 L26.1778917,12.8863966 L26.1778917,13.5515009 C25.6330864,12.9972473 24.3255539,12.8863966 23.6717876,12.8863966 L17.1341247,12.8863966 L15.6086701,14.5491575 L14.1921765,12.8863966 L12.9936049,12.8863966 L16.2624364,16.2119183 L17.8968521,14.4383067 L23.6717876,14.4383067 C25.0882812,14.4383067 26.7226969,14.8817096 26.7226969,16.9878734 C26.7226969,19.2048878 25.1972423,19.6482907 23.5628265,19.6482907 L21.3836056,19.6482907 L21.3836056,21.3110516 L23.0180213,22.9738124 L23.0180213,21.3110516 L23.5628265,21.3110516 C24.3255539,21.3110516 25.3062033,21.3110516 26.0689306,20.9784994 L26.0689306,23.971469 L30.9721778,23.971469 L30.9721778,21.0893501 L31.1900999,21.0893501 C31.516983,21.0893501 31.516983,21.0893501 31.516983,21.4219023 L31.516983,23.971469 L46.3356855,23.971469 C47.3163349,23.971469 48.2969844,23.7497675 48.8417896,23.3063646 L48.8417896,23.971469 L53.5271146,23.971469 C54.398803,24.0823197 55.3794524,23.971469 56.1421798,23.5280661 Z M34.4589313,19.53744 C34.6768534,19.8699922 34.7858144,20.3133951 34.7858144,20.9784994 L34.7858144,22.5304096 L32.9334766,22.5304096 L32.9334766,21.532753 C32.9334766,21.0893501 32.9334766,20.3133951 32.6065935,19.9808429 C32.3886714,19.6482907 31.9528272,19.6482907 31.2990609,19.6482907 L29.3377621,19.6482907 L29.3377621,22.5304096 L27.4854243,22.5304096 L27.4854243,14.6600082 L31.6259441,14.6600082 C32.4976324,14.6600082 33.2603598,14.6600082 33.805165,14.9925604 C34.3499703,15.3251125 34.7858144,15.8793661 34.7858144,16.7661719 C34.7858144,17.9855299 34.0230871,18.6506342 33.4782819,18.8723357 C34.0230871,19.0940371 34.3499703,19.3157386 34.4589313,19.53744 Z M41.9772436,16.322769 L37.7277627,16.322769 L37.7277627,17.7638284 L41.8682825,17.7638284 L41.8682825,19.3157386 L37.7277627,19.3157386 L37.7277627,20.8676487 L41.9772436,20.8676487 L41.9772436,22.5304096 L35.8754249,22.5304096 L35.8754249,14.6600082 L41.9772436,14.6600082 L41.9772436,16.322769 Z M46.5536076,22.5304096 L43.0668541,22.5304096 L43.0668541,20.8676487 L46.5536076,20.8676487 C46.8804907,20.8676487 47.0984128,20.8676487 47.3163349,20.6459473 C47.425296,20.5350965 47.534257,20.3133951 47.534257,20.0916936 C47.534257,19.8699922 47.425296,19.6482907 47.3163349,19.53744 C47.2073739,19.4265893 46.9894518,19.3157386 46.6625686,19.3157386 C44.9191919,19.2048878 42.848932,19.3157386 42.848932,16.8770227 C42.848932,15.7685154 43.5026983,14.5491575 45.4639971,14.5491575 L49.0597117,14.5491575 L49.0597117,16.4336198 L45.6819192,16.4336198 C45.3550361,16.4336198 45.137114,16.4336198 44.9191919,16.5444705 C44.7012698,16.6553212 44.7012698,16.8770227 44.7012698,17.0987241 C44.7012698,17.4312763 44.9191919,17.542127 45.137114,17.6529777 C45.3550361,17.7638284 45.5729582,17.7638284 45.7908803,17.7638284 L46.7715297,17.7638284 C47.7521791,17.7638284 48.4059454,17.9855299 48.8417896,18.4289328 C49.1686727,18.761485 49.3865948,19.3157386 49.3865948,20.0916936 C49.3865948,21.7544545 48.4059454,22.5304096 46.5536076,22.5304096 Z" id="Shape"></path>
                                <path d="M51.7837379,17.0987241 C51.7837379,17.4312763 51.8926989,17.542127 52.2195821,17.6529777 C52.4375042,17.7638284 52.6554263,17.7638284 52.8733484,17.7638284 L53.8539978,17.7638284 C54.5077641,17.7638284 54.9436083,17.8746792 55.3794524,18.0963806 L53.7450367,16.4336198 L52.7643873,16.4336198 C52.4375042,16.4336198 52.2195821,16.4336198 52.00166,16.5444705 C51.8926989,16.6553212 51.7837379,16.8770227 51.7837379,17.0987241 Z" id="Shape"></path>
                                <polygon id="Shape" points="47.9701012 10.4476807 48.2054083 10.80224 48.3230619 10.80224"></polygon>
                                <polygon id="Shape" points="41.9772436 4.3508909 43.8295814 8.89577056 43.8295814 6.2353532"></polygon>
                                <path d="M23.3449044,8.00896477 L23.5628265,8.00896477 C23.7807486,8.00896477 23.7807486,8.00896477 23.7807486,8.34151694 L23.7807486,10.7802329 L31.6259441,10.7802329 L31.6259441,10.1151285 C32.2797104,10.4476807 33.2603598,10.7802329 34.5678924,10.7802329 L37.8367238,10.7802329 L38.4904901,9.00662128 L40.0159447,9.00662128 L40.669711,10.7802329 L46.9894518,10.7802329 L46.9894518,9.67172563 L45.4639971,8.1198155 L45.4639971,9.33917346 L41.7593215,9.33917346 L41.2145163,7.56556188 L37.4008796,7.56556188 L36.7471133,9.33917346 L34.6768534,9.33917346 C33.805165,9.33917346 32.7155545,9.11747201 32.0617883,8.45236767 C31.408022,7.78726333 31.0811388,6.90045754 31.0811388,5.45939813 C31.0811388,4.3508909 31.2990609,3.24238366 32.0617883,2.35557787 C32.6065935,1.69047353 33.5872429,1.46877209 34.7858144,1.46877209 L36.5291912,1.46877209 L36.5291912,3.13153294 L34.7858144,3.13153294 C34.1320482,3.13153294 33.805165,3.24238366 33.3693208,3.57493583 C33.0424377,3.907488 32.8245156,4.57259234 32.8245156,5.34854741 C32.8245156,6.2353532 32.9334766,6.78960681 33.3693208,7.23300971 C33.696204,7.56556188 34.1320482,7.6764126 34.6768534,7.6764126 L35.4395807,7.6764126 L37.9456848,1.57962281 L39.0352953,1.57962281 L37.5098406,0.0277126809 L34.6768534,0.0277126809 C33.4782819,0.0277126809 32.4976324,0.249414128 31.6259441,0.692817022 L31.6259441,0.0277126809 L26.831658,0.0277126809 L26.831658,0.692817022 C26.2868527,0.249414128 25.6330864,0.0277126809 24.7613981,0.0277126809 L7.2186694,0.0277126809 L6.02009788,2.79898077 L4.82152636,0.0277126809 L0.0272402619,0.0277126809 L1.55269493,1.57962281 L3.73191588,1.57962281 L5.58425369,5.68109958 L6.23801998,6.34620392 L8.19931883,1.46877209 L11.2502282,1.46877209 L11.2502282,9.33917346 L9.39789036,9.33917346 L9.39789036,3.24238366 L7.54555255,7.6764126 L10.7054229,10.8910836 L23.2359434,10.8910836 L23.3449044,8.00896477 Z M28.3571126,1.46877209 L30.2094504,1.46877209 L30.2094504,9.33917346 L28.3571126,9.33917346 L28.3571126,1.46877209 Z M18.7685405,3.13153294 L14.5190596,3.13153294 L14.5190596,4.57259234 L18.6595794,4.57259234 L18.6595794,6.12450247 L14.5190596,6.12450247 L14.5190596,7.6764126 L18.7685405,7.6764126 L18.7685405,9.33917346 L12.6667218,9.33917346 L12.6667218,1.46877209 L18.7685405,1.46877209 L18.7685405,3.13153294 Z M21.8194498,9.22832273 L19.967112,9.22832273 L19.967112,1.35792136 L24.1076318,1.35792136 C25.0882812,1.35792136 25.7420475,1.35792136 26.2868527,1.69047353 C26.831658,2.0230257 27.1585411,2.57727932 27.1585411,3.46408511 C27.1585411,4.68344307 26.3958138,5.34854741 25.8510085,5.57024886 C26.2868527,5.68109958 26.6137359,6.01365175 26.7226969,6.2353532 C26.940619,6.67875609 27.0495801,7.01130826 27.0495801,7.6764126 L27.0495801,9.22832273 L25.1972423,9.22832273 L25.1972423,8.23066622 C25.1972423,7.78726333 25.1972423,7.12215899 24.8703591,6.67875609 C24.7613981,6.45705464 24.4345149,6.45705464 23.7807486,6.45705464 L21.8194498,6.45705464 L21.8194498,9.22832273 Z" id="Shape"></path>
                            </g>
                        </g>
                    </g>
                </g>
            </g>
        </g>
    </g>
</svg>