<?xml version="1.0" encoding="UTF-8"?>
<svg width="62px" height="21px" viewBox="0 0 62 21" version="1.1" xmlns="http://www.w3.org/2000/svg" xmlns:xlink="http://www.w3.org/1999/xlink">
    <!-- Generator: Sketch 50.2 (55047) - http://www.bohemiancoding.com/sketch -->
    <title>discover</title>
    <desc>Created with Sketch.</desc>
    <defs></defs>
    <g id="Web" stroke="none" stroke-width="1" fill="none" fill-rule="evenodd">
        <g id="Desktop-HD" transform="translate(-872.000000, -5334.000000)" fill-rule="nonzero">
            <g id="TICKETS-#5" transform="translate(93.000000, 4850.000000)">
                <g id="content" transform="translate(63.000000, 53.000000)">
                    <g id="Payment-method" transform="translate(405.500000, 441.500000) rotate(-360.000000) translate(-405.500000, -441.500000) translate(33.000000, 429.000000)">
                        <g id="discover" transform="translate(683.519417, 2.836474)">
                            <ellipse id="Oval" fill="#EF9122" cx="32.1516515" cy="4.96383019" rx="4.84476941" ry="4.96383019"></ellipse>
                            <path d="M27.3068821,4.96383019 C27.3068821,2.19554028 29.4497609,0 32.1516515,0 C34.8535421,0 36.9964209,2.19554028 36.9964209,4.96383019 C36.9964209,7.73212011 34.8535421,9.92766038 32.1516515,9.92766038" id="Shape" fill="#F26E21"></path>
                            <path d="M29.0686164,1.53837713 C31.0705873,-0.512792375 34.3738391,-0.512792375 36.37581,1.53837713 C38.3777808,3.58954663 38.3777808,6.9739763 36.37581,9.0251458" id="Shape" fill="#F44500"></path>
                            <path d="M2.74047562,0 L0,0 L0,9.92766038 L2.74047562,9.92766038 C4.20858756,9.92766038 5.28520299,9.52244976 6.16607015,8.81333116 C7.24268558,7.90160724 7.92780448,6.48337005 7.92780448,4.96383019 C7.92780448,2.02605314 5.87244776,0 2.74047562,0 Z M4.9915806,7.49639662 C4.40433582,8.0029099 3.62134279,8.30681787 2.44685324,8.30681787 L1.85960846,8.30681787 L1.85960846,1.72214517 L2.34897911,1.72214517 C3.52346866,1.72214517 4.30646169,1.92475048 4.89370647,2.53256642 C5.57882538,3.14038237 5.97032189,4.05210628 5.97032189,4.96383019 C6.06819602,5.87555411 5.67669951,6.88858067 4.9915806,7.49639662 Z" id="Shape" fill="#595A5B"></path>
                            <rect id="SVGCleanerId_0" fill="#595A5B" x="8.80867165" y="0" width="1.76173433" height="9.92766038"></rect>
                            <path d="M15.5965304,3.75901704 C14.3529532,3.37347683 14.0420589,3.08432167 14.0420589,2.60239641 C14.0420589,2.0240861 14.6638475,1.54216084 15.492899,1.54216084 C16.1146875,1.54216084 16.6328447,1.73493094 17.1510019,2.31324125 L18.1873162,1.06023558 C17.3582647,0.385540209 16.3219504,0 15.1820047,0 C13.4202703,0 11.9694303,1.15662063 11.9694303,2.69878146 C11.9694303,4.0481722 12.5912189,4.62648251 14.4565846,5.30117788 C15.2856361,5.59033303 15.5965304,5.68671808 15.8037932,5.87948819 C16.218319,6.07225829 16.4255818,6.4577985 16.4255818,6.84333871 C16.4255818,7.61441913 15.8037932,8.19272944 14.8711104,8.19272944 C13.9384275,8.19272944 13.109376,7.71080418 12.6948503,6.93972376 L11.4512731,8.09634439 C12.383956,9.34935007 13.5239018,9.92766038 14.9747418,9.92766038 C17.0473704,9.92766038 18.4982105,8.6746547 18.4982105,6.84333871 C18.4982105,5.20479282 17.8764219,4.53009746 15.5965304,3.75901704 Z" id="Shape" fill="#595A5B"></path>
                            <path d="M18.4982105,5.05928847 C18.4982105,7.82757838 20.8974144,9.92766038 23.9224977,9.92766038 C24.7570035,9.92766038 25.487196,9.73674384 26.4260149,9.35491075 L26.4260149,7.15937047 C25.5915092,7.92303665 24.8613167,8.20941147 24.026811,8.20941147 C22.0448598,8.20941147 20.5844748,6.87299565 20.5844748,4.96383019 C20.5844748,3.15012301 22.0448598,1.71824891 23.9224977,1.71824891 C24.8613167,1.71824891 25.5915092,2.00462373 26.4260149,2.76828991 L26.4260149,0.572749638 C25.5915092,0.190916546 24.8613167,0 23.9224977,0 C21.0017277,0.190916546 18.4982105,2.38645682 18.4982105,5.05928847 Z" id="Shape" fill="#3B3D3F"></path>
                            <polygon id="Shape" fill="#000000" points="41.3543953 6.48738203 38.943601 0 36.9964209 0 40.7980582 9.92766038 41.8180096 9.92766038 45.8050926 0 43.8579125 0"></polygon>
                            <polygon id="Shape" fill="#000000" points="47.5668269 9.92766038 52.8520299 9.92766038 52.8520299 8.30681787 49.4887189 8.30681787 49.4887189 5.57164613 52.7559353 5.57164613 52.7559353 3.84950097 49.4887189 3.84950097 49.4887189 1.72214517 52.8520299 1.72214517 52.8520299 0 47.5668269 0"></polygon>
                            <g id="Group" fill="#595A5B">
                                <path d="M57.7408426,5.78066301 C59.2113225,5.4790632 59.9955784,4.4737305 59.9955784,2.96573146 C59.9955784,1.1561326 58.7211626,0.0502666349 56.5644588,0.0502666349 L53.721531,0.0502666349 L53.721531,9.90252707 L55.5841388,9.90252707 L55.5841388,5.98172955 L55.8782348,5.98172955 L58.5250986,9.90252707 L60.7798344,9.90252707 L57.7408426,5.78066301 Z M56.1723308,4.57426377 L55.5841388,4.57426377 L55.5841388,1.55826568 L56.1723308,1.55826568 C57.3487147,1.55826568 58.0349386,2.06093203 58.0349386,3.06626473 C58.0349386,4.07159742 57.3487147,4.57426377 56.1723308,4.57426377 Z" id="Shape"></path>
                                <path d="M2.74489575,0.0502666349 L0,0.0502666349 L0,9.90252707 L2.74489575,9.90252707 C4.21537561,9.90252707 5.29372751,9.50039399 6.17601543,8.7966611 C7.25436733,7.89186167 7.94059126,6.4843959 7.94059126,4.97639685 C7.94059126,2.06093203 5.88191945,0.0502666349 2.74489575,0.0502666349 Z M4.99963154,7.48972859 C4.41143959,7.99239494 3.62718366,8.29399475 2.45079977,8.29399475 L1.86260783,8.29399475 L1.86260783,1.75933222 L2.35276778,1.75933222 C3.52915167,1.75933222 4.3134076,1.96039876 4.90159955,2.56359838 C5.58782348,3.166798 5.97995145,4.07159742 5.97995145,4.97639685 C6.07798344,5.88119628 5.68585547,6.88652898 4.99963154,7.48972859 Z" id="Shape"></path>
                            </g>
                            <rect id="SVGCleanerId_0_1_" fill="#595A5B" x="8.80867165" y="0" width="1.76173433" height="9.92766038"></rect>
                            <g id="Group" transform="translate(11.451273, 0.000000)" fill="#595A5B">
                                <path d="M4.0014474,3.80360964 C2.82310706,3.42085647 2.52852198,3.13379159 2.52852198,2.65535013 C2.52852198,2.08122037 3.11769215,1.60277891 3.90325237,1.60277891 C4.49242254,1.60277891 4.98339768,1.79415549 5.47437282,2.36828525 L6.4563231,1.12433744 C5.67076288,0.454519391 4.6888126,0.0717662196 3.60866729,0.0717662196 C1.93935181,0.0717662196 0.564621412,1.22002573 0.564621412,2.75103842 C0.564621412,4.09067452 1.15379158,4.66480428 2.92130209,5.33462233 C3.70686231,5.62168721 4.0014474,5.7173755 4.19783746,5.90875208 C4.59061757,6.10012867 4.78700762,6.48288184 4.78700762,6.86563501 C4.78700762,7.63114136 4.19783746,8.20527111 3.3140822,8.20527111 C2.43032695,8.20527111 1.64476672,7.72682965 1.25198661,6.96132331 L0.0736462712,8.10958282 C0.957401525,9.35353063 2.03754684,9.92766038 3.41227723,9.92766038 C5.37617779,9.92766038 6.75090819,8.68371258 6.75090819,6.86563501 C6.75090819,5.23893403 6.16173802,4.56911598 4.0014474,3.80360964 Z" id="Shape"></path>
                                <path d="M12.5444149,9.7362838 C13.3299751,9.7362838 14.0173403,9.54490721 14.9010955,9.16215404 L14.9010955,6.96132331 C14.1155353,7.72682965 13.4281701,8.01389453 12.6426099,8.01389453 C10.7769043,8.01389453 9.40217395,6.67425843 9.40217395,4.76049257 C9.40217395,3.80360964 9.79495406,3.0381033 10.3841242,2.36828525 L9.10758887,1.12433744 C8.12563858,1.98553208 7.43827339,3.32516818 7.43827339,4.76049257 C7.34007836,7.63114136 9.59856401,9.7362838 12.5444149,9.7362838 Z" id="Shape"></path>
                            </g>
                            <path d="M57.7457364,5.77425145 C59.2138483,5.47034348 59.9968413,4.45731691 59.9968413,2.93777705 C59.9968413,1.11432923 58.7244776,0 56.5712468,0 L53.732897,0 L53.732897,9.92766038 L55.5925055,9.92766038 L55.5925055,5.97685676 L55.8861279,5.97685676 L58.5287294,9.92766038 L60.7798344,9.92766038 L57.7457364,5.77425145 Z M56.1797503,4.55861956 L55.5925055,4.55861956 L55.5925055,1.51953985 L56.1797503,1.51953985 C57.3542398,1.51953985 58.0393587,2.02605314 58.0393587,3.03907971 C58.0393587,4.05210628 57.3542398,4.55861956 56.1797503,4.55861956 Z" id="Shape" fill="#000000"></path>
                            <g id="Group" transform="translate(13.213007, 13.537719)" fill="#F26E21">
                                <polygon id="Shape" points="0.0995762882 5.87010525 0.0995762882 0.0789700258 3.88347524 4.18541137 3.88347524 0.394850129 4.68008554 0.394850129 4.68008554 6.18598535 0.896186594 2.07954401 0.896186594 5.87010525"></polygon>
                                <polygon id="Shape" points="8.66313707 1.23719707 6.57203502 1.23719707 6.57203502 2.50071748 8.56356078 2.50071748 8.56356078 3.34306442 6.57203502 3.34306442 6.57203502 5.13305168 8.66313707 5.13305168 8.66313707 5.87010525 5.77542471 5.87010525 5.77542471 0.394850129 8.66313707 0.394850129"></polygon>
                                <polygon id="Shape" points="11.1525443 1.23719707 11.1525443 5.87010525 10.355934 5.87010525 10.355934 1.23719707 9.16101851 1.23719707 9.16101851 0.500143497 12.3474597 0.500143497 12.3474597 1.23719707"></polygon>
                                <polygon id="Shape" points="13.5423752 0.500143497 14.8368669 4.18541137 16.230935 0.289556761 17.5254267 4.18541137 18.9194948 0.500143497 19.9152576 0.500143497 17.625003 6.29127872 16.3305113 2.39542412 14.9364432 6.29127872 12.7457649 0.500143497"></polygon>
                                <path d="M20.0148339,3.13247769 C20.0148339,2.39542412 20.3135628,1.65837054 20.8114442,1.1319037 C21.3093257,0.605436864 22.0063597,0.289556761 22.7033937,0.289556761 C23.4004277,0.289556761 24.0974617,0.605436864 24.5953432,1.1319037 C25.0932246,1.65837054 25.3919535,2.39542412 25.3919535,3.13247769 C25.3919535,3.86953126 25.0932246,4.60658484 24.5953432,5.13305168 C24.0974617,5.65951851 23.4004277,5.97539862 22.7033937,5.97539862 C22.0063597,5.97539862 21.408902,5.76481188 20.9110205,5.23834504 C20.3135628,4.71187821 20.0148339,4.080118 20.0148339,3.13247769 Z M20.8114442,3.13247769 C20.8114442,3.7642379 21.0105968,4.18541137 21.408902,4.60658484 C21.8072071,5.02775831 22.2055123,5.23834504 22.7033937,5.23834504 C23.2012751,5.23834504 23.6991566,5.02775831 24.0974617,4.60658484 C24.4957669,4.18541137 24.6949195,3.7642379 24.6949195,3.13247769 C24.6949195,2.50071748 24.4957669,2.07954401 24.0974617,1.65837054 C23.6991566,1.23719707 23.3008514,1.02661034 22.7033937,1.02661034 C22.2055123,1.02661034 21.7076308,1.23719707 21.3093257,1.65837054 C21.0105968,2.07954401 20.8114442,2.60601085 20.8114442,3.13247769 Z" id="Shape"></path>
                                <path d="M28.1800896,3.55365116 L29.7733102,5.87010525 L28.7775473,5.87010525 L27.283903,3.65894453 L27.1843267,3.65894453 L27.1843267,5.87010525 L26.3877164,5.87010525 L26.3877164,0.394850129 L27.283903,0.394850129 C27.980937,0.394850129 28.4788184,0.500143497 28.7775473,0.8160236 C29.0762762,1.1319037 29.2754287,1.55307717 29.2754287,1.97425064 C29.2754287,2.39542412 29.1758524,2.71130422 28.9766999,2.92189095 C28.7775473,3.34306442 28.4788184,3.55365116 28.1800896,3.55365116 Z M27.1843267,2.92189095 L27.3834793,2.92189095 C28.0805133,2.92189095 28.4788184,2.60601085 28.4788184,2.07954401 C28.4788184,1.55307717 28.0805133,1.23719707 27.3834793,1.23719707 L27.0847504,1.23719707 L27.0847504,2.92189095 L27.1843267,2.92189095 Z" id="Shape"></path>
                                <polygon id="Shape" points="31.2669545 2.60601085 33.2584803 0.394850129 34.2542431 0.394850129 31.9639885 2.81659759 34.2542431 5.76481188 33.2584803 5.76481188 31.3665308 3.34306442 31.1673782 3.55365116 31.1673782 5.76481188 30.3707679 5.76481188 30.3707679 0.289556761 31.1673782 0.289556761 31.1673782 2.60601085"></polygon>
                            </g>
                            <g id="Group" transform="translate(36.996421, 0.000000)" fill="#3B3D3F">
                                <polygon id="Shape" points="14.1576855 7.99055592 12.3598842 7.99055592 12.3598842 6.2471619 10.3623271 4.31005744 10.3623271 9.54023949 15.7557311 9.54023949"></polygon>
                                <polygon id="Shape" points="6.96648016 1.01697984 4.76916742 6.44087235 2.17234328 0.0484276116 0.0749083888 0.0484276116 4.16990031 9.83080516 5.26855668 9.83080516 8.46464794 2.46980819"></polygon>
                            </g>
                        </g>
                    </g>
                </g>
            </g>
        </g>
    </g>
</svg>