<?xml version="1.0" encoding="UTF-8"?>
<svg width="38px" height="24px" viewBox="0 0 38 24" version="1.1" xmlns="http://www.w3.org/2000/svg" xmlns:xlink="http://www.w3.org/1999/xlink">
    <!-- Generator: Sketch 50.2 (55047) - http://www.bohemiancoding.com/sketch -->
    <title>mastercard</title>
    <desc>Created with Sketch.</desc>
    <defs></defs>
    <g id="Web" stroke="none" stroke-width="1" fill="none" fill-rule="evenodd">
        <g id="Desktop-HD" transform="translate(-723.000000, -5333.000000)" fill-rule="nonzero">
            <g id="TICKETS-#5" transform="translate(93.000000, 4850.000000)">
                <g id="content" transform="translate(63.000000, 53.000000)">
                    <g id="Payment-method" transform="translate(405.500000, 441.500000) rotate(-360.000000) translate(-405.500000, -441.500000) translate(33.000000, 429.000000)">
                        <g id="mastercard" transform="translate(534.037217, 1.418237)">
                            <path d="M37.6256118,11.3458976 C37.6256118,17.5891428 32.4496017,22.6917952 25.9795891,22.6917952 C19.5711956,22.6917952 14.3335664,17.5891428 14.3335664,11.3458976 C14.3335664,5.10265235 19.5095765,9.09494702e-13 25.9179699,9.09494702e-13 C32.4496017,9.08428333e-13 37.6256118,5.10265235 37.6256118,11.3458976 Z" id="Shape" fill="#FFB600"></path>
                            <path d="M25.9795891,9.09494702e-13 C32.3879825,9.09494702e-13 37.6256118,5.10265235 37.6256118,11.3458976 C37.6256118,17.5891428 32.4496017,22.6917952 25.9795891,22.6917952 C19.5711956,22.6917952 14.3335664,17.5891428 14.3335664,11.3458976" id="Shape" fill="#F7981D"></path>
                            <path d="M25.9795891,9.09494702e-13 C32.3879825,9.09494702e-13 37.6256118,5.10265235 37.6256118,11.3458976 C37.6256118,17.5891428 32.4496017,22.6917952 25.9795891,22.6917952" id="Shape" fill="#FF8500"></path>
                            <path d="M11.1089892,0 C4.99013418,0.0600312041 0,5.10265235 0,11.3458976 C0,17.5891428 4.99013418,22.6917952 11.2278019,22.6917952 C14.1387135,22.6917952 16.7525933,21.5512023 18.7724096,19.7502662 C19.1882541,19.3900789 19.5446922,18.9698605 19.9011304,18.5496421 L17.5842824,18.5496421 C17.2872506,18.1894549 16.9902188,17.7692364 16.7525933,17.4090492 L20.7328194,17.4090492 C20.9704448,17.048862 21.2080703,16.6286435 21.3862894,16.2084251 L16.0991234,16.2084251 C15.9209043,15.8482379 15.7426852,15.4280195 15.6238725,15.007801 L21.8021339,15.007801 C22.158572,13.8672082 22.3961975,12.6665841 22.3961975,11.4059288 C22.3961975,10.5654919 22.2773848,9.78508627 22.158572,9.00468062 L15.2674344,9.00468062 C15.3268407,8.58446219 15.4456534,8.22427497 15.5644661,7.80405654 L21.7427275,7.80405654 C21.6239148,7.38383811 21.4456957,6.96361968 21.2674766,6.60343246 L16.039717,6.60343246 C16.2179361,6.18321403 16.4555615,5.8230268 16.693187,5.40280837 L20.6734131,5.40280837 C20.4357876,4.98258994 20.1387558,4.56237151 19.7823177,4.20218429 L17.5842824,4.20218429 C17.9407205,3.78196586 18.2971587,3.42177864 18.7130032,3.06159141 C16.7525933,1.20062408 14.0793072,0.120062408 11.1683956,0.120062408 C11.1683956,0 11.1683956,0 11.1089892,0 Z" id="Shape" fill="#FF5050"></path>
                            <path d="M0,11.2855471 C0,17.562001 4.99013418,22.6917952 11.2278019,22.6917952 C14.1387135,22.6917952 16.7525933,21.5451353 18.7724096,19.7346197 C19.1882541,19.3725166 19.5446922,18.950063 19.9011304,18.5276093 L17.5842824,18.5276093 C17.2872506,18.1655062 16.9902188,17.7430526 16.7525933,17.3809495 L20.7328194,17.3809495 C20.9704448,17.0188464 21.2080703,16.5963927 21.3862894,16.1739391 L16.0991234,16.1739391 C15.9209043,15.811836 15.7426852,15.3893824 15.6238725,14.9669287 L21.8021339,14.9669287 C22.158572,13.8202689 22.3961975,12.6132585 22.3961975,11.3458976 C22.3961975,10.5009903 22.2773848,9.71643357 22.158572,8.93187682 L15.2674344,8.93187682 C15.3268407,8.50942319 15.4456534,8.14732007 15.5644661,7.72486644 L21.7427275,7.72486644 C21.6239148,7.30241281 21.4456957,6.87995917 21.2674766,6.51785606 L16.039717,6.51785606 C16.2179361,6.09540242 16.4555615,5.73329931 16.693187,5.31084568 L20.6734131,5.31084568 C20.4357876,4.88839204 20.1387558,4.46593841 19.7823177,4.1038353 L17.5842824,4.1038353 C17.9407205,3.68138166 18.2971587,3.31927855 18.7130032,2.95717543 C16.7525933,1.08630934 14.0793072,0 11.1683956,0 L11.1089892,0" id="Shape" fill="#E52836"></path>
                            <path d="M11.7686124,22.6917952 C14.7720604,22.6917952 17.469034,21.5451353 19.5530591,19.7346197 C19.9821231,19.3725166 20.3498923,18.950063 20.7176614,18.5276093 L18.327162,18.5276093 C18.0206877,18.1655062 17.7142135,17.7430526 17.469034,17.3809495 L21.5757894,17.3809495 C21.8209688,17.0188464 22.0661482,16.5963927 22.2500328,16.1739391 L16.7947906,16.1739391 C16.610906,15.811836 16.4270215,15.3893824 16.3044318,14.9669287 L22.6790968,14.9669287 C23.0468659,13.8202689 23.2920454,12.6132585 23.2920454,11.3458976 C23.2920454,10.5009903 23.1694557,9.71643357 23.0468659,8.93187682 L15.9366626,8.93187682 C15.9979575,8.50942319 16.1205472,8.14732007 16.2431369,7.72486644 L22.617802,7.72486644 C22.4952122,7.30241281 22.3113277,6.87995917 22.1274431,6.51785606 L16.7334958,6.51785606 C16.9173803,6.09540242 17.1625597,5.73329931 17.4077392,5.31084568 L21.5144945,5.31084568 C21.2693151,4.88839204 20.9628408,4.46593841 20.5950717,4.1038353 L18.327162,4.1038353 C18.6949312,3.68138166 19.0627003,3.31927855 19.4917643,2.95717543 C17.469034,1.08630934 14.7107655,9.09494702e-13 11.7073175,9.09494702e-13 L11.6460227,9.09494702e-13" id="Shape" fill="#CB2026"></path>
                            <g id="Group" transform="translate(0.895848, 8.727614)" fill="#FFFFFF">
                                <path d="M14.0045869,5.91322753 L14.1807453,4.88746357 C14.1220258,4.88746357 14.0045869,4.94780263 13.8871481,4.94780263 C13.476112,4.94780263 13.4173925,4.7064464 13.476112,4.58576829 L13.8284286,2.47390132 L14.4743425,2.47390132 L14.6505008,1.32745924 L14.0633064,1.32745924 L14.1807453,0.603390565 L13.0063564,0.603390565 C13.0063564,0.603390565 12.3017231,4.58576829 12.3017231,5.06848074 C12.3017231,5.79254942 12.7127592,6.0942447 13.2412342,6.0942447 C13.5935508,6.0942447 13.8871481,5.97356659 14.0045869,5.91322753 Z" id="Shape"></path>
                                <path d="M14.415623,3.98237773 C14.415623,5.67187131 15.5312924,6.0942447 16.4708035,6.0942447 C17.3515951,6.0942447 17.7039118,5.91322753 17.7039118,5.91322753 L17.9387896,4.76678546 C17.9387896,4.76678546 17.2928757,5.06848074 16.7056813,5.06848074 C15.4138536,5.06848074 15.6487313,4.10305584 15.6487313,4.10305584 L18.0562284,4.10305584 C18.0562284,4.10305584 18.2323868,3.31864811 18.2323868,3.01695282 C18.2323868,2.23254509 17.8213507,1.26712019 16.529523,1.26712019 C15.2964147,1.14644207 14.415623,2.47390132 14.415623,3.98237773 Z M16.4708035,2.23254509 C17.1167174,2.23254509 16.9992785,3.01695282 16.9992785,3.07729188 L15.7074508,3.07729188 C15.7074508,3.01695282 15.8248896,2.23254509 16.4708035,2.23254509 Z" id="Shape"></path>
                                <path d="M23.9281727,5.91322753 L24.1630504,4.58576829 C24.1630504,4.58576829 23.575856,4.88746357 23.1648199,4.88746357 C22.3427477,4.88746357 21.9904311,4.22373395 21.9904311,3.49966528 C21.9904311,2.05152792 22.6950644,1.26712019 23.5171366,1.26712019 C24.104331,1.26712019 24.5740865,1.62915452 24.5740865,1.62915452 L24.7502448,0.362034339 C24.7502448,0.362034339 24.0456115,0.0603390565 23.3996977,0.0603390565 C22.0491505,0.0603390565 20.6986033,1.26712019 20.6986033,3.56000433 C20.6986033,5.06848074 21.4032366,6.0942447 22.8125033,6.0942447 C23.2822588,6.0942447 23.9281727,5.91322753 23.9281727,5.91322753 Z" id="Shape"></path>
                                <path d="M7.54544831,1.14644207 C6.72337612,1.14644207 6.1361817,1.3877983 6.1361817,1.3877983 L5.96002337,2.41356226 C5.96002337,2.41356226 6.48849835,2.17220603 7.2518511,2.17220603 C7.6628872,2.17220603 8.01520385,2.23254509 8.01520385,2.59457943 C8.01520385,2.83593565 7.95648441,2.89627471 7.95648441,2.89627471 C7.95648441,2.89627471 7.60416775,2.89627471 7.42800943,2.89627471 C6.42977891,2.89627471 5.31410951,3.31864811 5.31410951,4.7064464 C5.31410951,5.79254942 6.01874282,6.03390565 6.42977891,6.03390565 C7.2518511,6.03390565 7.60416775,5.49085414 7.6628872,5.49085414 L7.60416775,5.97356659 L8.66111771,5.97356659 L9.13087325,2.65491848 C9.13087325,1.20678113 7.95648441,1.14644207 7.54544831,1.14644207 Z M7.78032608,3.86169961 C7.78032608,4.04271678 7.6628872,5.00814169 6.95825389,5.00814169 C6.60593724,5.00814169 6.48849835,4.7064464 6.48849835,4.52542924 C6.48849835,4.22373395 6.66465668,3.80136056 7.54544831,3.80136056 C7.72160664,3.86169961 7.78032608,3.86169961 7.78032608,3.86169961 Z" id="Shape"></path>
                                <path d="M10.2465426,6.03390565 C10.5401399,6.03390565 12.0081259,6.0942447 12.0081259,4.46509018 C12.0081259,2.95661377 10.5988593,3.25830905 10.5988593,2.65491848 C10.5988593,2.3532232 10.8337371,2.23254509 11.2447732,2.23254509 C11.4209315,2.23254509 12.0668454,2.29288415 12.0668454,2.29288415 L12.2430037,1.20678113 C12.2430037,1.20678113 11.8319676,1.08610302 11.1273343,1.08610302 C10.2465426,1.08610302 9.36575102,1.44813736 9.36575102,2.65491848 C9.36575102,4.04271678 10.8337371,3.92203867 10.8337371,4.46509018 C10.8337371,4.82712452 10.422701,4.88746357 10.1291038,4.88746357 C9.60062878,4.88746357 9.07215381,4.7064464 9.07215381,4.7064464 L8.89599548,5.79254942 C8.95471492,5.91322753 9.24831213,6.03390565 10.2465426,6.03390565 Z" id="Shape"></path>
                                <path d="M33.6756,0.181017169 L33.4407223,1.81017169 C33.4407223,1.81017169 32.9709667,1.20678113 32.3250529,1.20678113 C31.2681029,1.20678113 30.3285918,2.53424037 30.3285918,4.10305584 C30.3285918,5.06848074 30.7983474,6.0942447 31.7965779,6.0942447 C32.5012112,6.0942447 32.9122473,5.61153225 32.9122473,5.61153225 L32.8535279,6.03390565 L34.0279167,6.03390565 L34.9087083,0.241356226 L33.6756,0.181017169 Z M33.1471251,3.37898716 C33.1471251,4.04271678 32.8535279,4.88746357 32.207614,4.88746357 C31.7965779,4.88746357 31.5617001,4.52542924 31.5617001,3.92203867 C31.5617001,2.95661377 31.9727362,2.3532232 32.5012112,2.3532232 C32.9122473,2.3532232 33.1471251,2.65491848 33.1471251,3.37898716 Z" id="Shape"></path>
                                <polygon id="Shape" points="1.14502912 5.97356659 1.84966243 1.62915452 1.96710131 5.97356659 2.7891735 5.97356659 4.315879 1.62915452 3.66996513 5.97356659 4.90307342 5.97356659 5.84258449 0.181017169 3.9048429 0.181017169 2.73045406 3.7410215 2.67173462 0.181017169 0.968870795 0.181017169 0.0293597211 5.97356659"></polygon>
                                <path d="M19.3480562,5.97356659 C19.7003728,3.98237773 19.7590923,2.3532232 20.5811645,2.65491848 C20.6986033,1.87051075 20.8747617,1.56881547 20.9922006,1.26712019 C20.9922006,1.26712019 20.9334811,1.26712019 20.7573228,1.26712019 C20.2288478,1.26712019 19.8178117,1.99118886 19.8178117,1.99118886 L19.9352506,1.32745924 L18.8195812,1.32745924 L18.0562284,6.03390565 L19.3480562,6.03390565 L19.3480562,5.97356659 Z" id="Shape"></path>
                                <path d="M26.629267,1.14644207 C25.8071948,1.14644207 25.2200004,1.3877983 25.2200004,1.3877983 L25.0438421,2.41356226 C25.0438421,2.41356226 25.572317,2.17220603 26.3356698,2.17220603 C26.7467059,2.17220603 27.0990225,2.23254509 27.0990225,2.59457943 C27.0990225,2.83593565 27.0403031,2.89627471 27.0403031,2.89627471 C27.0403031,2.89627471 26.6879864,2.89627471 26.5118281,2.89627471 C25.5135976,2.89627471 24.3979282,3.31864811 24.3979282,4.7064464 C24.3979282,5.79254942 25.1025615,6.03390565 25.5135976,6.03390565 C26.3356698,6.03390565 26.6879864,5.49085414 26.7467059,5.49085414 L26.6879864,5.97356659 L27.7449364,5.97356659 L28.2146919,2.65491848 C28.2734114,1.20678113 27.0403031,1.14644207 26.629267,1.14644207 Z M26.9228642,3.86169961 C26.9228642,4.04271678 26.8054253,5.00814169 26.100792,5.00814169 C25.7484754,5.00814169 25.6310365,4.7064464 25.6310365,4.52542924 C25.6310365,4.22373395 25.8071948,3.80136056 26.6879864,3.80136056 C26.8641448,3.86169961 26.8641448,3.86169961 26.9228642,3.86169961 Z" id="Shape"></path>
                                <path d="M29.2129224,5.97356659 C29.5652391,3.98237773 29.6239585,2.3532232 30.4460307,2.65491848 C30.5634696,1.87051075 30.7396279,1.56881547 30.8570668,1.26712019 C30.8570668,1.26712019 30.7983474,1.26712019 30.6221891,1.26712019 C30.0937141,1.26712019 29.682678,1.99118886 29.682678,1.99118886 L29.8001169,1.32745924 L28.6844475,1.32745924 L27.9210947,6.03390565 L29.2129224,6.03390565 L29.2129224,5.97356659 Z" id="Shape"></path>
                            </g>
                            <g id="Group" transform="translate(0.895848, 8.727614)" fill="#DCE5E5">
                                <path d="M12.1842842,5.06848074 C12.1842842,5.79254942 12.5953203,6.0942447 13.1237953,6.0942447 C13.5348314,6.0942447 13.8871481,5.97356659 14.0045869,5.91322753 L14.1807453,4.88746357 C14.1220258,4.88746357 14.0045869,4.94780263 13.8871481,4.94780263 C13.476112,4.94780263 13.4173925,4.7064464 13.476112,4.58576829 L13.8284286,2.47390132 L14.4743425,2.47390132 L14.6505008,1.32745924 L14.0633064,1.32745924 L14.1807453,0.603390565" id="Shape"></path>
                                <path d="M15.0028175,3.98237773 C15.0028175,5.67187131 15.5312924,6.0942447 16.4708035,6.0942447 C17.3515951,6.0942447 17.7039118,5.91322753 17.7039118,5.91322753 L17.9387896,4.76678546 C17.9387896,4.76678546 17.2928757,5.06848074 16.7056813,5.06848074 C15.4138536,5.06848074 15.6487313,4.10305584 15.6487313,4.10305584 L18.0562284,4.10305584 C18.0562284,4.10305584 18.2323868,3.31864811 18.2323868,3.01695282 C18.2323868,2.23254509 17.8213507,1.26712019 16.529523,1.26712019 C15.2964147,1.14644207 15.0028175,2.47390132 15.0028175,3.98237773 Z M16.4708035,2.23254509 C17.1167174,2.23254509 17.2341563,3.01695282 17.2341563,3.07729188 L15.7074508,3.07729188 C15.7074508,3.01695282 15.8248896,2.23254509 16.4708035,2.23254509 Z" id="Shape"></path>
                                <path d="M23.9281727,5.91322753 L24.1630504,4.58576829 C24.1630504,4.58576829 23.575856,4.88746357 23.1648199,4.88746357 C22.3427477,4.88746357 21.9904311,4.22373395 21.9904311,3.49966528 C21.9904311,2.05152792 22.6950644,1.26712019 23.5171366,1.26712019 C24.104331,1.26712019 24.5740865,1.62915452 24.5740865,1.62915452 L24.7502448,0.362034339 C24.7502448,0.362034339 24.0456115,0.0603390565 23.3996977,0.0603390565 C22.0491505,0.0603390565 21.2857978,1.26712019 21.2857978,3.56000433 C21.2857978,5.06848074 21.4032366,6.0942447 22.8125033,6.0942447 C23.2822588,6.0942447 23.9281727,5.91322753 23.9281727,5.91322753 Z" id="Shape"></path>
                                <path d="M5.96002337,2.47390132 C5.96002337,2.47390132 6.48849835,2.23254509 7.2518511,2.23254509 C7.6628872,2.23254509 8.01520385,2.29288415 8.01520385,2.65491848 C8.01520385,2.89627471 7.95648441,2.95661377 7.95648441,2.95661377 C7.95648441,2.95661377 7.60416775,2.95661377 7.42800943,2.95661377 C6.42977891,2.95661377 5.31410951,3.37898716 5.31410951,4.76678546 C5.31410951,5.85288848 6.01874282,6.0942447 6.42977891,6.0942447 C7.2518511,6.0942447 7.60416775,5.5511932 7.6628872,5.5511932 L7.60416775,6.03390565 L8.66111771,6.03390565 L9.13087325,2.71525754 C9.13087325,1.32745924 7.95648441,1.26712019 7.48672887,1.26712019 L5.96002337,2.47390132 Z M8.3675205,3.86169961 C8.3675205,4.04271678 7.6628872,5.00814169 6.95825389,5.00814169 C6.60593724,5.00814169 6.48849835,4.7064464 6.48849835,4.52542924 C6.48849835,4.22373395 6.66465668,3.80136056 7.54544831,3.80136056 C7.72160664,3.86169961 8.3675205,3.86169961 8.3675205,3.86169961 Z" id="Shape"></path>
                                <path d="M8.95471492,5.91322753 C8.95471492,5.91322753 9.30703157,6.03390565 10.3052621,6.03390565 C10.5988593,6.03390565 12.0668454,6.0942447 12.0668454,4.46509018 C12.0668454,2.95661377 10.6575787,3.25830905 10.6575787,2.65491848 C10.6575787,2.3532232 10.8924565,2.23254509 11.3034926,2.23254509 C11.4796509,2.23254509 12.1255648,2.29288415 12.1255648,2.29288415 L12.3017231,1.20678113 C12.3017231,1.20678113 11.890687,1.08610302 11.1860537,1.08610302 C10.3052621,1.08610302 10.0116649,1.44813736 10.0116649,2.65491848 C10.0116649,4.04271678 10.8924565,3.92203867 10.8924565,4.46509018 C10.8924565,4.82712452 10.4814204,4.88746357 10.1878232,4.88746357" id="Shape"></path>
                                <path d="M33.4407223,1.81017169 C33.4407223,1.81017169 32.9709667,1.20678113 32.3250529,1.20678113 C31.2681029,1.20678113 30.9157863,2.53424037 30.9157863,4.10305584 C30.9157863,5.06848074 30.7983474,6.0942447 31.7965779,6.0942447 C32.5012112,6.0942447 32.9122473,5.61153225 32.9122473,5.61153225 L32.8535279,6.03390565 L34.0279167,6.03390565 L34.9087083,0.241356226 L33.4407223,1.81017169 Z M33.3820028,3.37898716 C33.3820028,4.04271678 32.8535279,4.88746357 32.207614,4.88746357 C31.7965779,4.88746357 31.5617001,4.52542924 31.5617001,3.92203867 C31.5617001,2.95661377 31.9727362,2.3532232 32.5012112,2.3532232 C32.9122473,2.3532232 33.3820028,2.65491848 33.3820028,3.37898716 Z" id="Shape"></path>
                                <polygon id="Shape" points="1.14502912 5.97356659 1.84966243 1.62915452 1.96710131 5.97356659 2.7891735 5.97356659 4.315879 1.62915452 3.66996513 5.97356659 4.90307342 5.97356659 5.84258449 0.181017169 4.37459844 0.181017169 2.73045406 3.7410215 2.67173462 0.181017169 2.02582075 0.181017169 0.0293597211 5.97356659"></polygon>
                                <path d="M18.1149479,5.97356659 L19.3480562,5.97356659 C19.7003728,3.98237773 19.7590923,2.3532232 20.5811645,2.65491848 C20.6986033,1.87051075 20.8747617,1.56881547 20.9922006,1.26712019 C20.9922006,1.26712019 20.9334811,1.26712019 20.7573228,1.26712019 C20.2288478,1.26712019 19.8178117,1.99118886 19.8178117,1.99118886 L19.9352506,1.32745924" id="Shape"></path>
                                <path d="M25.0438421,2.47390132 C25.0438421,2.47390132 25.572317,2.23254509 26.3356698,2.23254509 C26.7467059,2.23254509 27.0990225,2.29288415 27.0990225,2.65491848 C27.0990225,2.89627471 27.0403031,2.95661377 27.0403031,2.95661377 C27.0403031,2.95661377 26.6879864,2.95661377 26.5118281,2.95661377 C25.5135976,2.95661377 24.3979282,3.37898716 24.3979282,4.76678546 C24.3979282,5.85288848 25.1025615,6.0942447 25.5135976,6.0942447 C26.3356698,6.0942447 26.6879864,5.5511932 26.7467059,5.5511932 L26.6879864,6.03390565 L27.7449364,6.03390565 L28.2146919,2.71525754 C28.2146919,1.32745924 27.0403031,1.26712019 26.5705476,1.26712019 L25.0438421,2.47390132 Z M27.4513392,3.86169961 C27.4513392,4.04271678 26.7467059,5.00814169 26.0420726,5.00814169 C25.6897559,5.00814169 25.572317,4.7064464 25.572317,4.52542924 C25.572317,4.22373395 25.7484754,3.80136056 26.629267,3.80136056 C26.8641448,3.86169961 27.4513392,3.86169961 27.4513392,3.86169961 Z" id="Shape"></path>
                                <path d="M27.9798142,5.97356659 L29.2129224,5.97356659 C29.5652391,3.98237773 29.6239585,2.3532232 30.4460307,2.65491848 C30.5634696,1.87051075 30.7396279,1.56881547 30.8570668,1.26712019 C30.8570668,1.26712019 30.7983474,1.26712019 30.6221891,1.26712019 C30.0937141,1.26712019 29.682678,1.99118886 29.682678,1.99118886 L29.8001169,1.32745924" id="Shape"></path>
                            </g>
                        </g>
                    </g>
                </g>
            </g>
        </g>
    </g>
</svg>