<?xml version="1.0" encoding="UTF-8"?>
<svg width="73px" height="20px" viewBox="0 0 73 20" version="1.1" xmlns="http://www.w3.org/2000/svg" xmlns:xlink="http://www.w3.org/1999/xlink">
    <!-- Generator: Sketch 50.2 (55047) - http://www.bohemiancoding.com/sketch -->
    <title>paypal</title>
    <desc>Created with Sketch.</desc>
    <defs></defs>
    <g id="Web" stroke="none" stroke-width="1" fill="none" fill-rule="evenodd">
        <g id="Desktop-HD" transform="translate(-189.000000, -5334.000000)" fill-rule="nonzero">
            <g id="TICKETS-#5" transform="translate(93.000000, 4850.000000)">
                <g id="content" transform="translate(63.000000, 53.000000)">
                    <g id="Payment-method" transform="translate(405.500000, 441.500000) rotate(-360.000000) translate(-405.500000, -441.500000) translate(33.000000, 429.000000)">
                        <g id="paypal" transform="translate(0.000000, 2.836474)">
                            <path d="M56.2403905,5.26773816 L52.2528734,5.26773816 C52.0183136,5.26773816 51.7837538,5.48953766 51.6664738,5.71133717 L50.024555,15.4705152 C50.024555,15.6923147 50.1418349,15.8032145 50.3763948,15.8032145 L52.4874332,15.8032145 C52.7219931,15.8032145 52.839273,15.6923147 52.839273,15.4705152 L53.3083926,12.6980215 C53.3083926,12.476222 53.5429525,12.2544225 53.8947922,12.2544225 L55.1848713,12.2544225 C57.8823093,12.2544225 59.4069482,11.0345252 59.758788,8.59473069 C59.9933478,7.59663293 59.758788,6.70943492 59.2896683,6.15493617 C58.5859888,5.60043742 57.5304696,5.26773816 56.2403905,5.26773816 M56.7095102,8.92742994 C56.4749503,10.2582269 55.4194311,10.2582269 54.3639119,10.2582269 L53.6602324,10.2582269 L54.1293521,7.70753268 C54.1293521,7.59663293 54.246632,7.48573318 54.4811918,7.48573318 L54.7157516,7.48573318 C55.4194311,7.48573318 56.1231106,7.48573318 56.4749503,7.92933218 C56.7095102,8.04023193 56.7095102,8.37293119 56.7095102,8.92742994" id="Shape" fill="#139AD6"></path>
                            <g id="Group" transform="translate(21.439095, 4.389782)" fill="#263B80">
                                <path d="M6.19490129,0.0273648736 L2.23947136,0.0273648736 C2.00679901,0.0273648736 1.77412666,0.246283862 1.65779049,0.465202851 L0.0290840436,10.0976383 C0.0290840436,10.3165573 0.145420218,10.4260168 0.378092567,10.4260168 L2.23947136,10.4260168 C2.47214371,10.4260168 2.70481606,10.2070978 2.82115223,9.98817885 L3.28649693,7.36115099 C3.28649693,7.142232 3.51916928,6.92331301 3.8681778,6.92331301 L5.14787572,6.92331301 C7.82360774,6.92331301 9.335978,5.71925858 9.68498653,3.3111497 C9.91765888,2.32601425 9.68498653,1.4503383 9.21964183,0.903040828 C8.52162478,0.355743356 7.59093539,0.0273648736 6.19490129,0.0273648736 M6.66024599,3.63952819 C6.42757364,4.95304212 5.38054807,4.95304212 4.3335225,4.95304212 L3.75184163,4.95304212 L4.21718633,2.43547375 C4.21718633,2.32601425 4.3335225,2.21655476 4.56619485,2.21655476 L4.7988672,2.21655476 C5.49688425,2.21655476 6.19490129,2.21655476 6.54390982,2.65439274 C6.66024599,2.76385223 6.77658216,3.09223071 6.66024599,3.63952819" id="Shape"></path>
                                <path d="M18.1775273,3.53006869 L16.3161485,3.53006869 C16.1998123,3.53006869 15.96714,3.63952819 15.96714,3.74898768 L15.8508038,4.29628515 L15.7344676,4.07736616 C15.2691229,3.53006869 14.4547697,3.3111497 13.5240803,3.3111497 C11.4300291,3.3111497 9.56865035,4.84358262 9.21964183,6.92331301 C8.98696948,8.01790796 9.335978,9.00304341 9.91765888,9.65980037 C10.4993397,10.3165573 11.313693,10.5354763 12.3607185,10.5354763 C14.1057612,10.5354763 15.0364506,9.55034088 15.0364506,9.55034088 L14.9201144,10.0976383 C14.9201144,10.3165573 15.0364506,10.4260168 15.2691229,10.4260168 L17.0141655,10.4260168 C17.2468379,10.4260168 17.4795102,10.2070978 17.5958464,9.98817885 L18.642872,3.85844717 C18.5265358,3.74898768 18.2938634,3.53006869 18.1775273,3.53006869 M15.5017953,7.03277251 C15.2691229,8.01790796 14.4547697,8.78412442 13.2914079,8.78412442 C12.7097271,8.78412442 12.2443824,8.56520543 12.01171,8.34628644 C11.7790377,8.01790796 11.6627015,7.58006998 11.6627015,7.03277251 C11.7790377,6.04763706 12.7097271,5.2814206 13.7567526,5.2814206 C14.3384335,5.2814206 14.687442,5.50033959 15.0364506,5.71925858 C15.3854591,6.04763706 15.5017953,6.59493453 15.5017953,7.03277251" id="Shape"></path>
                            </g>
                            <path d="M67.4527195,8.14104989 L65.7017273,8.14104989 C65.5922903,8.14104989 65.3734162,8.26077121 65.3734162,8.38049253 L65.2639792,8.97909914 L65.1545422,8.7396565 C64.7167942,8.14104989 63.9507351,7.90160724 63.0752389,7.90160724 C61.1053727,7.90160724 59.3543805,9.57770575 59.0260694,11.8524109 C58.8071954,13.0496241 59.1355065,14.127116 59.6826915,14.8454439 C60.2298766,15.5637718 60.9959357,15.8032145 61.9808688,15.8032145 C63.622424,15.8032145 64.4979201,14.7257226 64.4979201,14.7257226 L64.3884831,15.3243292 C64.3884831,15.5637718 64.4979201,15.6834932 64.7167942,15.6834932 L66.3583494,15.6834932 C66.5772234,15.6834932 66.7960974,15.4440505 66.9055344,15.2046079 L67.8904675,8.50021385 C67.7810305,8.38049253 67.6715935,8.14104989 67.4527195,8.14104989 M64.9356682,11.9721322 C64.7167942,13.0496241 63.9507351,13.8876733 62.8563649,13.8876733 C62.3091799,13.8876733 61.8714318,13.6482307 61.6525578,13.4087881 C61.4336837,13.0496241 61.3242467,12.5707388 61.3242467,11.9721322 C61.4336837,10.8946403 62.3091799,10.056591 63.294113,10.056591 C63.841298,10.056591 64.1696091,10.2960337 64.4979201,10.5354763 C64.9356682,10.8946403 65.0451052,11.4932469 64.9356682,11.9721322" id="Shape" fill="#139AD6"></path>
                            <path d="M49.7404001,8.77956361 L47.8309245,8.77956361 C47.6062803,8.77956361 47.4939582,8.89056958 47.3816361,9.00157556 L44.91055,12.7757788 L43.7873291,9.22358751 C43.675007,9.00157556 43.5626849,8.89056958 43.2257186,8.89056958 L41.4285651,8.89056958 C41.2039209,8.89056958 41.0915988,9.11258154 41.0915988,9.33459349 L43.1133965,15.2179102 L41.2039209,17.8820537 C41.0915988,18.1040656 41.2039209,18.4370836 41.4285651,18.4370836 L43.2257186,18.4370836 C43.4503628,18.4370836 43.5626849,18.3260776 43.675007,18.2150716 L49.8527222,9.44559947 C50.1896885,9.11258154 49.9650443,8.77956361 49.7404001,8.77956361" id="Shape" fill="#263B80"></path>
                            <path d="M69.6274313,5.53195309 L67.8904675,15.4718835 C67.8904675,15.6927708 68.0145364,15.8032145 68.2626741,15.8032145 L69.9996378,15.8032145 C70.2477754,15.8032145 70.4959131,15.5823271 70.619982,15.3614398 L72.3569457,5.64239676 C72.3569457,5.42150942 72.2328768,5.31106575 71.9847392,5.31106575 L69.9996378,5.31106575 C69.8755689,5.20062208 69.7515001,5.31106575 69.6274313,5.53195309" id="Shape" fill="#139AD6"></path>
                            <path d="M13.3369425,1.33548291 C12.5251286,0.445160972 11.0174742,0 8.92995281,0 L3.13128215,0 C2.78336191,0 2.43544168,0.333870729 2.31946826,0.667741457 L0,15.2467633 C0,15.580634 0.231946826,15.8032145 0.463893652,15.8032145 L4.05906946,15.8032145 L4.98685676,10.3499926 L4.98685676,10.5725731 C5.10283018,10.2387023 5.45075042,9.90483162 5.79867066,9.90483162 L7.53827185,9.90483162 C10.9015008,9.90483162 13.4529159,8.5693487 14.2647298,4.89677069 C14.2647298,4.78548044 14.2647298,4.6741902 14.2647298,4.56289996 C14.1487564,4.56289996 14.1487564,4.56289996 14.2647298,4.56289996 C14.3807032,3.1161268 14.1487564,2.22580486 13.3369425,1.33548291" id="Shape" fill="#263B80"></path>
                            <path d="M13.8262337,4.3897818 C13.8262337,4.50044857 13.8262337,4.61111534 13.8262337,4.72178211 C13.0287742,8.48445222 10.5224728,9.70178667 7.21871182,9.70178667 L5.50986995,9.70178667 C5.16810158,9.70178667 4.82633321,10.033787 4.71241041,10.3657873 L3.5731825,17.1164601 C3.5731825,17.3377937 3.68710529,17.5591272 4.02887367,17.5591272 L6.99086624,17.5591272 C7.33263461,17.5591272 7.67440299,17.3377937 7.67440299,17.0057934 L7.67440299,16.8951266 L8.24401694,13.4644568 L8.24401694,13.2431233 C8.24401694,12.9111229 8.58578532,12.6897894 8.92755369,12.6897894 L9.38324485,12.6897894 C12.2313146,12.6897894 14.5097705,11.5831217 15.0793844,8.26311869 C15.30723,6.93511747 15.1933072,5.71778302 14.5097705,4.94311564 C14.3958477,4.72178211 14.1680021,4.50044857 13.8262337,4.3897818" id="Shape" fill="#139AD6"></path>
                            <path d="M13.3001793,4.74096435 C13.1898959,4.74096435 13.0796125,4.6239035 12.9693291,4.6239035 C12.8590457,4.6239035 12.7487623,4.6239035 12.6384789,4.50684265 C12.1973452,4.3897818 11.7562116,4.3897818 11.2047945,4.3897818 L6.9037415,4.3897818 C6.79345809,4.3897818 6.68317468,4.3897818 6.57289127,4.50684265 C6.35232445,4.6239035 6.24204104,4.85802519 6.24204104,5.09214689 L5.35977375,11.179311 L5.35977375,11.4134327 C5.47005716,11.0622501 5.8009074,10.7110676 6.13175763,10.7110676 L7.78600879,10.7110676 C10.9842277,10.7110676 13.4104627,9.30633742 14.1824466,5.44332944 C14.1824466,5.32626859 14.1824466,5.20920774 14.29273,5.09214689 C14.0721632,4.97508604 13.9618798,4.85802519 13.741313,4.85802519 C13.4104627,4.74096435 13.4104627,4.74096435 13.3001793,4.74096435" id="Shape" fill="#232C65"></path>
                        </g>
                    </g>
                </g>
            </g>
        </g>
    </g>
</svg>