<?xml version="1.0" encoding="UTF-8"?>
<svg width="57px" height="20px" viewBox="0 0 57 20" version="1.1" xmlns="http://www.w3.org/2000/svg" xmlns:xlink="http://www.w3.org/1999/xlink">
    <!-- Generator: Sketch 50.2 (55047) - http://www.bohemiancoding.com/sketch -->
    <title>visa</title>
    <desc>Created with Sketch.</desc>
    <defs></defs>
    <g id="Web" stroke="none" stroke-width="1" fill="none" fill-rule="evenodd">
        <g id="Desktop-HD" transform="translate(-554.000000, -5334.000000)" fill-rule="nonzero">
            <g id="TICKETS-#5" transform="translate(93.000000, 4850.000000)">
                <g id="content" transform="translate(63.000000, 53.000000)">
                    <g id="Payment-method" transform="translate(405.500000, 441.500000) rotate(-360.000000) translate(-405.500000, -441.500000) translate(33.000000, 429.000000)">
                        <g id="visa" transform="translate(365.266990, 2.836474)">
                            <polygon id="Shape" fill="#3C58BF" points="21.1644066 16.6811709 23.9175002 0.877956361 28.2192088 0.877956361 25.5521494 16.6811709"></polygon>
                            <polygon id="Shape" fill="#293688" points="21.1644066 16.6811709 24.6918077 0.877956361 28.2192088 0.877956361 25.5521494 16.6811709"></polygon>
                            <path d="M41.4469629,0.739331672 C40.5247666,0.369665836 39.0492524,0 37.2048597,0 C32.5938778,0 29.2739709,2.31041148 29.2739709,5.637404 C29.2739709,8.13264839 31.5794618,9.42647882 33.4238546,10.2582269 C35.2682473,11.0899751 35.8215651,11.6444738 35.8215651,12.3838055 C35.8215651,13.492803 34.3460509,14.0473018 33.054976,14.0473018 C31.2105833,14.0473018 30.1961673,13.7700524 28.6284335,13.1231372 L27.982896,12.8458878 L27.3373585,16.6349626 C28.4439942,17.0970449 30.4728262,17.5591272 32.5938778,17.5591272 C37.4815186,17.5591272 40.7092059,15.2487157 40.7092059,11.7368903 C40.7092059,9.79614465 39.5103506,8.31748131 36.7437615,7.11606734 C35.083808,6.28431921 34.069392,5.82223692 34.069392,4.99048879 C34.069392,4.25115711 34.8993687,3.51182544 36.7437615,3.51182544 C38.3114953,3.51182544 39.4181309,3.78907482 40.2481077,4.15874066 L40.7092059,4.34357357 L41.4469629,0.739331672 Z" id="Shape" fill="#3C58BF"></path>
                            <path d="M41.4469629,0.739331672 C40.5247666,0.369665836 39.0492524,0 37.2048597,0 C32.5938778,0 30.1039476,2.31041148 30.1039476,5.637404 C30.1039476,8.13264839 31.5794618,9.42647882 33.4238546,10.2582269 C35.2682473,11.0899751 35.8215651,11.6444738 35.8215651,12.3838055 C35.8215651,13.492803 34.3460509,14.0473018 33.054976,14.0473018 C31.2105833,14.0473018 30.1961673,13.7700524 28.6284335,13.1231372 L27.982896,12.8458878 L27.3373585,16.6349626 C28.4439942,17.0970449 30.4728262,17.5591272 32.5938778,17.5591272 C37.4815186,17.5591272 40.7092059,15.2487157 40.7092059,11.7368903 C40.7092059,9.79614465 39.5103506,8.31748131 36.7437615,7.11606734 C35.083808,6.28431921 34.069392,5.82223692 34.069392,4.99048879 C34.069392,4.25115711 34.8993687,3.51182544 36.7437615,3.51182544 C38.3114953,3.51182544 39.4181309,3.78907482 40.2481077,4.15874066 L40.7092059,4.34357357 L41.4469629,0.739331672 Z" id="Shape" fill="#293688"></path>
                            <path d="M48.9814529,0.877956361 C47.8767174,0.877956361 47.0481658,0.965751997 46.5878593,2.01929963 L39.6832624,16.6811709 L44.6545722,16.6811709 L45.5751851,14.0473018 L51.4671078,14.0473018 L52.0194756,16.6811709 L56.4384176,16.6811709 L52.5718433,0.877956361 L48.9814529,0.877956361 Z M46.8640432,11.4134327 C47.1402271,10.623272 48.7052691,6.76026398 48.7052691,6.76026398 C48.7052691,6.76026398 49.0735142,5.79451198 49.3496981,5.17994253 L49.625882,6.67246834 C49.625882,6.67246834 50.5464949,10.623272 50.7306175,11.5012283 L46.8640432,11.5012283 L46.8640432,11.4134327 Z" id="Shape" fill="#3C58BF"></path>
                            <path d="M50.0861884,0.877956361 C48.9814529,0.877956361 48.1529013,0.965751997 47.6925948,2.01929963 L39.6832624,16.6811709 L44.6545722,16.6811709 L45.5751851,14.0473018 L51.4671078,14.0473018 L52.0194756,16.6811709 L56.4384176,16.6811709 L52.5718433,0.877956361 L50.0861884,0.877956361 Z M46.8640432,11.4134327 C47.2322884,10.5354763 48.7052691,6.76026398 48.7052691,6.76026398 C48.7052691,6.76026398 49.0735142,5.79451198 49.3496981,5.17994253 L49.625882,6.67246834 C49.625882,6.67246834 50.5464949,10.623272 50.7306175,11.5012283 L46.8640432,11.5012283 L46.8640432,11.4134327 Z" id="Shape" fill="#293688"></path>
                            <path d="M13.1542666,11.8524109 L12.6888456,9.56972433 C11.8510879,6.93585525 9.15164619,4.03859926 6.17295193,2.63386908 L10.3617407,16.6811709 L15.3882873,16.6811709 L22.9281072,0.877956361 L17.9015606,0.877956361 L13.1542666,11.8524109 Z" id="Shape" fill="#3C58BF"></path>
                            <path d="M13.1542666,11.8524109 L12.6888456,9.56972433 C11.8510879,6.93585525 9.15164619,4.03859926 6.17295193,2.63386908 L10.3617407,16.6811709 L15.3882873,16.6811709 L22.9281072,0.877956361 L18.8324025,0.877956361 L13.1542666,11.8524109 Z" id="Shape" fill="#293688"></path>
                            <path d="M0,0.877956361 L0.769973748,1.07110676 C6.24534262,2.51973475 10.0096587,6.18959234 11.4640536,10.5354763 L9.92410608,2.32658436 C9.66744817,1.16768196 8.89747442,0.877956361 7.9563954,0.877956361 L0,0.877956361 Z" id="Shape" fill="#FFBC00"></path>
                            <path d="M0,0.877956361 C5.47536887,2.20819327 10.0096587,5.66680924 11.4640536,9.65751997 L10.0096587,3.36106526 C9.75300081,2.29687573 8.89747442,1.67609851 7.9563954,1.67609851 L0,0.877956361 Z" id="Shape" fill="#F7981D"></path>
                            <path d="M0,0.877956361 C5.47536887,2.20819327 10.0096587,5.66680924 11.4640536,9.65751997 L10.4374219,6.198904 C10.180764,5.13471447 9.83855345,4.07052494 8.6408165,3.62711264 L0,0.877956361 Z" id="Shape" fill="#ED7C00"></path>
                            <g id="Group" transform="translate(6.172952, 2.633869)" fill="#051244">
                                <path d="M11.0317128,9.55322139 L8.00688834,6.3212858 L6.58344153,9.93344911 L6.22757982,7.55702588 C5.42689099,4.705318 2.84689363,1.56843933 0,0.0475284646 L4.00344417,15.2566371 L8.80757718,15.2566371 L11.0317128,9.55322139 Z" id="Shape"></path>
                                <polygon id="Shape" points="19.3054974 15.2566371 15.4799841 11.0741323 14.7682607 15.2566371"></polygon>
                                <path d="M29.5365214,9.36310753 C29.8923831,9.74333525 30.070314,10.028506 29.9813486,10.4087338 C29.9813486,11.5494169 28.5579018,12.1197585 27.3123858,12.1197585 C25.5330773,12.1197585 24.5544576,11.8345877 23.0420453,11.1691892 L22.4192874,10.8840184 L21.7965294,14.7813525 C22.8641145,15.2566371 24.8213539,15.7319218 26.8675587,15.7319218 C29.7144523,15.7319218 32.0275534,14.8764094 33.3620348,13.3554986 L29.5365214,9.36310753 Z" id="Shape"></path>
                                <path d="M34.6965161,15.2566371 L38.8778912,15.2566371 L39.7675454,12.4049293 L45.4613327,12.4049293 L45.9951253,15.2566371 L50.2654657,15.2566371 L48.7530535,8.31748131 L43.4151279,2.80417941 L43.6820242,4.32509028 C43.6820242,4.32509028 44.5716784,8.6026521 44.7496093,9.55322139 L41.0130614,9.55322139 C41.3689231,8.6026521 42.7923699,4.51520414 42.7923699,4.51520414 C42.7923699,4.51520414 43.1482316,3.46957792 43.4151279,2.80417941" id="Shape"></path>
                            </g>
                        </g>
                    </g>
                </g>
            </g>
        </g>
    </g>
</svg>