<?xml version="1.0" encoding="UTF-8"?>
<svg width="481px" height="224px" viewBox="0 0 481 224" version="1.1" xmlns="http://www.w3.org/2000/svg" xmlns:xlink="http://www.w3.org/1999/xlink">
    <!-- Generator: Sketch 50.2 (55047) - http://www.bohemiancoding.com/sketch -->
    <title>Group 25</title>
    <desc>Created with Sketch.</desc>
    <defs></defs>
    <g id="Page-1" stroke="none" stroke-width="1" fill="none" fill-rule="evenodd">
        <g id="AVR-Logo" transform="translate(-59.000000, -54.000000)">
            <g id="Group-25" transform="translate(59.000000, 53.951000)">
                <path d="M195.3821,173.249 L138.8001,61.334 C133.4741,50.796 120.6511,48.439 111.9281,54.181 L111.9281,76.212 L99.5771,76.212 L99.5771,100.913 L74.8761,100.913 L74.8761,113.264 L62.5261,113.264 L62.5261,100.913 L74.8761,100.913 L74.8761,88.562 L87.2271,88.562 L87.2271,76.212 L99.5771,76.212 L99.5771,63.861 L87.2271,63.861 L87.2271,51.511 L74.8761,51.511 L74.8761,63.861 L87.2271,63.861 L87.2271,76.212 L74.8761,76.212 L74.8761,88.562 L62.5261,88.562 L62.5261,76.212 L74.8761,76.212 L74.8761,63.861 L62.5261,63.861 L62.5261,76.212 L50.1751,76.212 L50.1751,88.562 L62.5261,88.562 L62.5261,100.913 L50.1751,100.913 L50.1751,113.264 L25.4741,113.264 L25.4741,125.613 L13.1231,125.613 L13.1231,113.264 L0.7731,113.264 L0.7731,125.614 L13.1231,125.614 L13.1231,137.965 L25.4741,137.965 L25.4741,150.314 L37.8241,150.314 L37.8241,137.965 L50.1751,137.965 L50.1751,150.314 L62.5261,150.314 L62.5261,162.665 L50.1751,162.665 L50.1751,175.016 L37.8241,175.016 L37.8241,187.366 L25.4741,187.366 L25.4741,199.717 L37.8241,199.717 L37.8241,187.366 L50.1751,187.366 L62.5261,187.366 L62.5261,199.717 L50.1751,199.717 L50.1751,211.036 L72.7221,211.036 L84.7581,187.366 L74.8751,187.366 L74.8751,175.016 L87.2261,175.016 L87.2261,182.512 L109.8781,137.965 L99.5761,137.965 L99.5761,125.614 L99.5771,125.614 L99.5771,125.613 L111.9281,125.613 L111.9281,133.934 L121.4501,115.205 L173.4821,211.036 L246.1641,211.036 L227.0571,173.249 L195.3821,173.249 Z" id="Fill-2" fill="#20AAE0"></path>
                <polygon id="Fill-4" fill="#20AAE0" points="25.473 137.964 37.824 137.964 37.824 125.614 25.473 125.614"></polygon>
                <polygon id="Fill-6" fill="#20AAE0" points="74.8762 150.3145 62.5252 150.3145 62.5252 137.9635 50.1752 137.9635 50.1752 113.2635 62.5252 113.2635 62.5252 125.6145 74.8762 125.6145"></polygon>
                <polygon id="Fill-7" fill="#20AAE0" points="74.876 125.613 87.227 125.613 87.227 113.263 74.876 113.263"></polygon>
                <polygon id="Fill-8" fill="#20AAE0" points="37.824 223.387 50.175 223.387 50.175 211.036 37.824 211.036"></polygon>
                <polygon id="Fill-9" fill="#20AAE0" points="25.473 100.914 37.824 100.914 37.824 88.563 25.473 88.563"></polygon>
                <polygon id="Fill-10" fill="#20AAE0" points="111.927 162.665 124.278 162.665 124.278 150.314 111.927 150.314"></polygon>
                <path d="M480.3586,63.7822 L480.3586,50.7202 C480.3586,23.0702 457.9496,0.6622 430.2986,0.6622 L135.5776,0.6622 L115.7966,40.6822 L425.3866,40.6822 C430.3156,40.6822 434.9986,42.7852 438.2676,46.4812 L438.6456,46.9092 C444.3456,53.3332 444.4286,62.9612 438.8586,69.5002 C437.2156,71.4222 435.2126,72.9322 432.9766,73.9522 C430.7436,74.9862 428.2786,75.5452 425.7646,75.5452 L360.0646,75.5452 L340.3176,113.8422 L371.7626,113.8422 L436.3446,211.0362 L480.3586,211.0362 L418.0596,113.8422 L430.2986,113.8422 C457.9496,113.8422 480.3586,91.4322 480.3586,63.7822" id="Fill-11" fill="#32B900"></path>
                <path d="M306.5735,75.5449 L270.2495,146.9629 L218.2345,51.1319 L145.4215,51.1319 L164.5275,88.9189 L196.3185,88.9189 L252.9165,200.8339 C259.8335,214.5019 279.4005,214.4209 286.1855,200.6689 L348.0085,75.5449 L306.5735,75.5449 Z" id="Fill-12" fill="#32B900"></path>
                <polygon id="Fill-13" fill="#7EC900" points="62.525 76.21 74.876 76.21 74.876 63.859 62.525 63.859"></polygon>
                <polygon id="Fill-14" fill="#7EC900" points="87.226 76.21 99.577 76.21 99.577 63.859 87.226 63.859"></polygon>
                <polygon id="Fill-15" fill="#7EC900" points="62.525 125.615 74.876 125.615 74.876 113.264 62.525 113.264"></polygon>
                <polygon id="Fill-16" fill="#7EC900" points="25.473 125.615 37.824 125.615 37.824 113.264 25.473 113.264"></polygon>
                <polygon id="Fill-17" fill="#7EC900" points="50.175 150.315 62.526 150.315 62.526 137.964 50.175 137.964"></polygon>
                <polygon id="Fill-18" fill="#7EC900" points="62.525 187.367 74.876 187.367 74.876 175.016 62.525 175.016"></polygon>
                <polygon id="Fill-19" fill="#000060" points="37.824 125.615 50.175 125.615 50.175 113.264 37.824 113.264"></polygon>
                <polygon id="Fill-20" fill="#000060" points="111.927 162.665 124.278 162.665 124.278 150.314 111.927 150.314"></polygon>
                <polygon id="Fill-21" fill="#000060" points="87.226 113.264 99.577 113.264 99.577 100.913 87.226 100.913"></polygon>
                <polygon id="Fill-22" fill="#000060" points="62.525 100.913 74.876 100.913 74.876 88.562 62.525 88.562"></polygon>
                <polygon id="Fill-23" fill="#000060" points="74.876 76.21 87.227 76.21 87.227 63.859 74.876 63.859"></polygon>
                <polygon id="Fill-24" fill="#000060" points="50.175 175.016 62.526 175.016 62.526 162.665 50.175 162.665"></polygon>
            </g>
        </g>
    </g>
</svg>