<?xml version="1.0" encoding="UTF-8"?>
<svg width="273px" height="79px" viewBox="0 0 273 79" version="1.1" xmlns="http://www.w3.org/2000/svg" xmlns:xlink="http://www.w3.org/1999/xlink">
    <!-- Generator: Sketch 50.2 (55047) - http://www.bohemiancoding.com/sketch -->
    <title>Group</title>
    <desc>Created with Sketch.</desc>
    <defs></defs>
    <g id="Page-1" stroke="none" stroke-width="1" fill="none" fill-rule="evenodd">
        <g id="logo_BankZee_familyBanking">
            <g id="Group">
                <path d="M14.723,40.839 C13.473,40.617 12.245,40.278 11.059,39.798 C8.787,38.878 6.739,37.541 5.069,35.739 C3.481,34.027 2.3,32.027 1.543,29.818 C0.829,27.732 0.489,25.556 0.489,23.353 C0.489,20.889 0.909,18.466 1.81,16.169 C2.759,13.751 4.224,11.633 6.151,9.89 C8.109,8.119 10.432,6.872 12.928,6.04 C15.625,5.141 18.489,4.807 21.323,4.807 L36.117,4.807 C38.447,4.807 40.753,5.139 42.979,5.828 C45.277,6.539 47.411,7.637 49.283,9.152 C50.974,10.52 52.352,12.18 53.404,14.068 C57.412,8.741 62.907,5.309 69.889,5.309 C74.332,5.309 78.457,6.649 81.619,9.696 C82.735,7.749 83.94,5.831 85.094,4.512 C87.232,2.069 90.164,0.769 93.407,0.769 C97.134,0.769 100.122,2.279 101.947,4.807 L108.079,4.807 L114.988,13.989 L114.988,4.807 C163.066,4.807 210.56,4.807 263.84,4.807 L272.787,20.486 L272.787,78.394 L14.723,78.394 L14.723,40.839" id="Fill-1" fill="#354651"></path>
                <path d="M79.585,37.189 C76.333,41.622 73.247,44.957 70.339,47.203 C67.43,49.438 64.486,50.561 61.506,50.561 C59.13,50.561 57.06,49.391 55.299,47.05 C53.549,44.697 52.674,41.374 52.674,37.047 C52.674,30.638 54.294,24.833 57.557,19.666 C60.808,14.487 64.923,11.909 69.889,11.909 C73.188,11.909 75.742,12.926 77.539,14.971 C79.348,17.017 80.815,19.547 81.938,22.574 C82.73,21.262 83.664,19.63 84.752,17.691 C87.424,12.796 89.197,9.852 90.061,8.859 C90.936,7.865 92.047,7.369 93.407,7.369 C96.02,7.369 97.32,8.705 97.32,11.389 C97.32,12.512 96.706,13.895 95.488,15.503 C94.956,16.225 93.962,17.632 92.508,19.736 L88.831,24.998 C86.596,28.143 85.473,30.035 85.473,30.674 C85.473,31.761 86.596,34.422 88.855,38.666 C91.101,42.899 93.064,46.068 94.719,48.173 C95.736,49.414 96.245,50.289 96.245,50.774 C96.245,51.306 95.961,51.791 95.393,52.229 C94.838,52.666 94.235,52.879 93.62,52.879 C88.855,52.879 84.184,47.653 79.585,37.189 Z M60.608,36.361 C60.608,40.889 61.612,43.148 63.622,43.148 C65.562,43.148 68.21,41.185 71.568,37.259 C74.926,33.334 76.605,30.815 76.605,29.704 C76.605,28.368 75.872,26.24 74.394,23.331 C72.916,20.422 71.32,18.968 69.606,18.968 C67.229,18.968 65.136,20.907 63.327,24.785 C61.506,28.675 60.608,32.53 60.608,36.361 Z" id="Fill-2" fill="#FFFFFE"></path>
                <polyline id="Fill-3" fill="#FFFFFE" points="237.951 50.483 237.951 11.407 260.007 11.407 264.467 19.222 246.324 19.222 246.324 27.037 257.216 27.037 261.675 34.852 246.324 34.852 246.324 42.668 260.007 42.668 264.467 50.483 237.951 50.483"></polyline>
                <polyline id="Fill-4" fill="#FFFFFE" points="207.375 50.483 207.375 11.407 229.432 11.407 233.891 19.222 215.749 19.222 215.749 27.037 226.64 27.037 231.1 34.852 215.749 34.852 215.749 42.668 229.432 42.668 233.891 50.483 207.375 50.483"></polyline>
                <path d="M168.464,50.483 L168.464,44.9 L185.434,19.222 L168.464,19.222 L168.464,11.407 L196.039,11.407 L196.039,16.989 L179.07,42.668 L190.234,42.668 C192.28,42.668 193.788,42.249 194.755,41.412 C195.723,40.575 196.207,39.616 196.207,38.537 C196.207,37.644 195.937,36.853 195.397,36.164 C194.858,35.476 194.011,35.132 192.857,35.132 L192.857,27.317 C194.83,27.317 196.551,27.614 198.021,28.21 C199.492,28.806 200.701,29.614 201.65,30.638 C202.599,31.662 203.306,32.852 203.771,34.211 C204.236,35.569 204.469,37.012 204.469,38.537 C204.469,40.286 204.18,41.886 203.603,43.338 C203.026,44.789 202.152,46.045 200.98,47.106 C199.808,48.167 198.328,48.995 196.542,49.59 C194.755,50.185 192.653,50.483 190.234,50.483 L168.464,50.483" id="Fill-5" fill="#FFFFFE"></path>
                <polyline id="Fill-6" fill="#FFFFFE" points="156.351 50.483 143.734 33.792 143.734 50.483 135.361 50.483 135.361 11.407 143.734 11.407 143.734 28.154 156.351 11.407 166.119 11.407 151.438 30.946 166.119 50.483 156.351 50.483"></polyline>
                <polyline id="Fill-7" fill="#FFFFFE" points="124.379 50.483 107.576 28.154 107.576 50.483 99.203 50.483 99.203 11.407 104.785 11.407 121.588 33.737 121.588 11.407 129.961 11.407 129.961 50.483 124.379 50.483"></polyline>
                <path d="M36.117,27.037 C36.675,27.037 37.224,27.001 37.763,26.926 C38.303,26.851 38.787,26.675 39.214,26.396 C39.643,26.116 39.978,25.717 40.22,25.195 C40.461,24.675 40.582,23.986 40.582,23.13 C40.582,22.311 40.461,21.641 40.22,21.121 C39.978,20.6 39.652,20.2 39.243,19.92 C38.833,19.641 38.358,19.455 37.82,19.362 C37.28,19.269 36.712,19.222 36.117,19.222 L29.697,19.222 L29.697,27.037 L36.117,27.037 Z M37.233,42.668 C37.828,42.668 38.396,42.621 38.935,42.528 C39.475,42.435 39.949,42.249 40.358,41.97 C40.769,41.69 41.094,41.3 41.336,40.798 C41.578,40.295 41.698,39.616 41.698,38.761 C41.698,37.905 41.578,37.216 41.336,36.695 C41.094,36.174 40.759,35.774 40.331,35.495 C39.903,35.215 39.419,35.039 38.88,34.964 C38.34,34.891 37.791,34.852 37.233,34.852 L29.697,34.852 L29.697,42.668 L37.233,42.668 Z M21.323,50.483 L21.323,19.222 C19.277,19.222 17.77,19.641 16.803,20.479 C15.835,21.315 15.351,22.274 15.351,23.353 C15.351,24.246 15.621,25.037 16.16,25.726 C16.7,26.414 17.546,26.758 18.7,26.758 L18.7,34.573 C16.728,34.573 15.006,34.276 13.536,33.68 C12.066,33.085 10.857,32.276 9.908,31.252 C8.959,30.229 8.252,29.038 7.787,27.679 C7.322,26.321 7.089,24.879 7.089,23.353 C7.089,21.641 7.377,20.05 7.954,18.58 C8.531,17.111 9.405,15.845 10.578,14.785 C11.75,13.724 13.23,12.896 15.016,12.301 C16.803,11.705 18.904,11.407 21.323,11.407 L36.117,11.407 C37.828,11.407 39.466,11.65 41.029,12.133 C42.592,12.617 43.959,13.334 45.131,14.283 C46.304,15.231 47.234,16.413 47.923,17.827 C48.611,19.242 48.955,20.878 48.955,22.74 C48.955,24.675 48.584,26.284 47.839,27.568 C47.095,28.852 46.09,29.885 44.825,30.666 C46.425,31.411 47.7,32.462 48.649,33.82 C49.598,35.178 50.072,36.955 50.072,39.151 C50.072,41.012 49.728,42.649 49.04,44.064 C48.351,45.477 47.42,46.659 46.248,47.608 C45.076,48.557 43.708,49.273 42.145,49.757 C40.582,50.241 38.945,50.483 37.233,50.483 L21.323,50.483 Z" id="Fill-8" fill="#FFFFFE"></path>
                <path d="M31.43,59.319 L31.43,71.794 L30.585,71.794 C30.452,71.794 30.342,71.771 30.252,71.724 C30.162,71.678 30.072,71.599 29.985,71.489 L22.768,62.088 C22.78,62.233 22.789,62.375 22.794,62.514 C22.8,62.654 22.803,62.784 22.803,62.906 L22.803,71.794 L21.323,71.794 L21.323,59.319 L22.194,59.319 C22.269,59.319 22.333,59.323 22.385,59.331 C22.438,59.34 22.484,59.354 22.525,59.375 C22.565,59.395 22.606,59.424 22.646,59.462 C22.687,59.499 22.731,59.549 22.777,59.607 L29.993,69 C29.982,68.849 29.973,68.701 29.964,68.558 C29.956,68.416 29.95,68.283 29.95,68.155 L29.95,59.319 L31.43,59.319 Z M43.024,70.418 L43.015,71.794 L35.329,71.794 L35.329,59.319 L43.015,59.319 L43.015,60.695 L37.018,60.695 L37.018,64.838 L41.875,64.838 L41.875,66.162 L37.018,66.162 L37.018,70.418 L43.024,70.418 Z M55.611,71.794 L53.94,71.794 C53.812,71.794 53.713,71.759 53.641,71.692 C53.568,71.625 53.507,71.553 53.461,71.472 L50.118,66.231 C50.072,66.371 50.02,66.49 49.961,66.588 L46.706,71.472 C46.648,71.553 46.587,71.625 46.52,71.692 C46.453,71.759 46.36,71.794 46.244,71.794 L44.677,71.794 L48.969,65.387 L44.851,59.319 L46.532,59.319 C46.653,59.319 46.744,59.34 46.801,59.38 C46.859,59.421 46.912,59.479 46.958,59.554 L50.214,64.551 C50.255,64.429 50.315,64.296 50.397,64.151 L53.47,59.589 C53.516,59.508 53.571,59.441 53.635,59.392 C53.699,59.343 53.774,59.319 53.861,59.319 L55.472,59.319 L51.337,65.308 L55.611,71.794 Z M66.544,60.738 L62.505,60.738 L62.505,71.794 L60.825,71.794 L60.825,60.738 L56.777,60.738 L56.777,59.319 L66.544,59.319 L66.544,60.738 Z M83.348,65.796 L83.348,70.584 C82.721,71.036 82.054,71.373 81.343,71.597 C80.632,71.82 79.852,71.933 79.004,71.933 C78,71.933 77.095,71.777 76.288,71.466 C75.482,71.156 74.794,70.72 74.222,70.16 C73.651,69.6 73.209,68.93 72.902,68.147 C72.594,67.363 72.441,66.501 72.441,65.561 C72.441,64.609 72.592,63.742 72.89,62.958 C73.189,62.175 73.613,61.502 74.164,60.941 C74.716,60.382 75.386,59.949 76.175,59.642 C76.964,59.334 77.846,59.18 78.822,59.18 C79.315,59.18 79.773,59.215 80.197,59.288 C80.62,59.36 81.012,59.465 81.372,59.601 C81.732,59.737 82.065,59.903 82.373,60.097 C82.681,60.292 82.968,60.512 83.235,60.756 L82.756,61.522 C82.681,61.638 82.585,61.711 82.466,61.743 C82.347,61.774 82.213,61.748 82.068,61.661 C81.929,61.58 81.77,61.481 81.59,61.365 C81.41,61.249 81.192,61.136 80.934,61.029 C80.676,60.921 80.371,60.831 80.02,60.756 C79.669,60.68 79.251,60.643 78.769,60.643 C78.067,60.643 77.431,60.756 76.863,60.985 C76.294,61.214 75.809,61.542 75.409,61.969 C75.009,62.395 74.701,62.912 74.486,63.518 C74.272,64.125 74.164,64.807 74.164,65.561 C74.164,66.345 74.277,67.044 74.501,67.662 C74.724,68.28 75.044,68.805 75.459,69.238 C75.873,69.67 76.375,70.001 76.967,70.227 C77.559,70.453 78.224,70.566 78.961,70.566 C79.541,70.566 80.058,70.5 80.507,70.369 C80.957,70.239 81.395,70.059 81.825,69.827 L81.825,67.084 L79.883,67.084 C79.773,67.084 79.686,67.053 79.619,66.989 C79.553,66.925 79.518,66.847 79.518,66.754 L79.518,65.796 L83.348,65.796 Z M94.342,70.418 L94.333,71.794 L86.647,71.794 L86.647,59.319 L94.333,59.319 L94.333,60.695 L88.335,60.695 L88.335,64.838 L93.193,64.838 L93.193,66.162 L88.335,66.162 L88.335,70.418 L94.342,70.418 Z M107.521,59.319 L107.521,71.794 L106.676,71.794 C106.543,71.794 106.433,71.771 106.343,71.724 C106.253,71.678 106.163,71.599 106.076,71.489 L98.859,62.088 C98.871,62.233 98.879,62.375 98.885,62.514 C98.891,62.654 98.894,62.784 98.894,62.906 L98.894,71.794 L97.414,71.794 L97.414,59.319 L98.285,59.319 C98.36,59.319 98.424,59.323 98.476,59.331 C98.529,59.34 98.575,59.354 98.616,59.375 C98.656,59.395 98.697,59.424 98.737,59.462 C98.778,59.499 98.822,59.549 98.868,59.607 L106.084,69 C106.073,68.849 106.064,68.701 106.055,68.558 C106.047,68.416 106.041,68.283 106.041,68.155 L106.041,59.319 L107.521,59.319 Z M117.744,60.695 L117.744,65.056 L122.871,65.056 L122.871,66.432 L117.744,66.432 L117.744,71.794 L116.055,71.794 L116.055,59.319 L123.742,59.319 L123.742,60.695 L117.744,60.695 Z M132.228,67.163 L130.27,62.088 C130.212,61.937 130.151,61.76 130.087,61.56 C130.023,61.36 129.962,61.147 129.904,60.921 C129.782,61.391 129.657,61.783 129.53,62.097 L127.571,67.163 L132.228,67.163 Z M135.745,71.794 L134.44,71.794 C134.289,71.794 134.167,71.756 134.074,71.681 C133.981,71.605 133.911,71.51 133.865,71.393 L132.699,68.382 L127.101,68.382 L125.935,71.393 C125.9,71.498 125.833,71.591 125.734,71.672 C125.636,71.753 125.514,71.794 125.369,71.794 L124.063,71.794 L129.051,59.319 L130.757,59.319 L135.745,71.794 Z M151.083,59.319 L151.083,71.794 L149.603,71.794 L149.603,62.628 C149.603,62.506 149.609,62.375 149.618,62.236 C149.626,62.097 149.635,61.954 149.647,61.809 L145.364,69.609 C145.23,69.87 145.027,70.001 144.755,70.001 L144.511,70.001 C144.238,70.001 144.035,69.87 143.901,69.609 L139.531,61.774 C139.566,62.082 139.584,62.366 139.584,62.628 L139.584,71.794 L138.104,71.794 L138.104,59.319 L139.349,59.319 C139.5,59.319 139.616,59.334 139.697,59.363 C139.778,59.392 139.857,59.473 139.932,59.607 L144.241,67.285 C144.311,67.424 144.38,67.569 144.447,67.72 C144.514,67.871 144.575,68.025 144.633,68.181 C144.691,68.025 144.752,67.868 144.815,67.714 C144.879,67.56 144.949,67.415 145.024,67.276 L149.255,59.607 C149.325,59.473 149.403,59.392 149.487,59.363 C149.571,59.334 149.687,59.319 149.838,59.319 L151.083,59.319 Z M154.982,71.793 L156.671,71.793 L156.671,59.319 L154.982,59.319 L154.982,71.793 Z M167.648,70.375 L167.648,71.794 L160.57,71.794 L160.57,59.319 L162.251,59.319 L162.251,70.375 L167.648,70.375 Z M173.262,66.823 L173.262,71.794 L171.573,71.794 L171.573,66.823 L167.003,59.319 L168.483,59.319 C168.634,59.319 168.753,59.354 168.84,59.427 C168.927,59.499 169.002,59.595 169.066,59.711 L171.921,64.56 C172.026,64.763 172.122,64.952 172.209,65.129 C172.296,65.306 172.371,65.486 172.435,65.666 C172.499,65.486 172.571,65.306 172.653,65.129 C172.734,64.952 172.824,64.763 172.922,64.56 L175.769,59.711 C175.821,59.613 175.894,59.523 175.987,59.441 C176.079,59.36 176.198,59.319 176.344,59.319 L177.832,59.319 L173.262,66.823 Z M188.482,70.453 C188.963,70.453 189.378,70.398 189.726,70.288 C190.075,70.178 190.362,70.021 190.585,69.821 C190.809,69.621 190.971,69.382 191.076,69.107 C191.18,68.831 191.233,68.529 191.233,68.199 C191.233,67.554 191.003,67.044 190.545,66.669 C190.086,66.295 189.398,66.11 188.482,66.11 L185.783,66.11 L185.783,70.453 L188.482,70.453 Z M185.783,60.651 L185.783,64.908 L188.012,64.908 C188.487,64.908 188.902,64.856 189.254,64.752 C189.605,64.647 189.895,64.502 190.124,64.316 C190.353,64.13 190.522,63.904 190.632,63.64 C190.742,63.376 190.797,63.089 190.797,62.775 C190.797,62.038 190.577,61.499 190.136,61.159 C189.695,60.82 189.01,60.651 188.081,60.651 L185.783,60.651 Z M188.081,59.319 C188.847,59.319 189.509,59.395 190.063,59.546 C190.617,59.697 191.073,59.912 191.43,60.19 C191.787,60.469 192.048,60.808 192.216,61.211 C192.384,61.615 192.469,62.07 192.469,62.575 C192.469,62.883 192.422,63.176 192.326,63.457 C192.231,63.739 192.085,64.003 191.894,64.247 C191.702,64.49 191.462,64.708 191.169,64.902 C190.876,65.097 190.53,65.256 190.136,65.378 C191.053,65.552 191.743,65.877 192.204,66.356 C192.666,66.835 192.895,67.465 192.895,68.242 C192.895,68.77 192.8,69.252 192.605,69.687 C192.411,70.123 192.126,70.497 191.752,70.81 C191.378,71.123 190.916,71.364 190.371,71.536 C189.825,71.707 189.204,71.794 188.508,71.794 L184.103,71.794 L184.103,59.319 L188.081,59.319 Z M202.522,67.163 L200.564,62.088 C200.505,61.937 200.445,61.76 200.381,61.56 C200.317,61.36 200.256,61.147 200.198,60.921 C200.076,61.391 199.951,61.783 199.824,62.097 L197.865,67.163 L202.522,67.163 Z M206.039,71.794 L204.733,71.794 C204.583,71.794 204.461,71.756 204.368,71.681 C204.275,71.605 204.205,71.51 204.159,71.393 L202.992,68.382 L197.395,68.382 L196.229,71.393 C196.194,71.498 196.127,71.591 196.028,71.672 C195.93,71.753 195.808,71.794 195.663,71.794 L194.357,71.794 L199.345,59.319 L201.051,59.319 L206.039,71.794 Z M218.504,59.319 L218.504,71.794 L217.66,71.794 C217.526,71.794 217.416,71.771 217.326,71.724 C217.236,71.678 217.146,71.599 217.059,71.489 L209.843,62.088 C209.854,62.233 209.863,62.375 209.869,62.514 C209.875,62.654 209.877,62.784 209.877,62.906 L209.877,71.794 L208.398,71.794 L208.398,59.319 L209.268,59.319 C209.344,59.319 209.407,59.323 209.46,59.331 C209.512,59.34 209.558,59.354 209.599,59.375 C209.64,59.395 209.68,59.424 209.721,59.462 C209.761,59.499 209.805,59.549 209.851,59.607 L217.068,69 C217.056,68.849 217.048,68.701 217.039,68.558 C217.03,68.416 217.024,68.283 217.024,68.155 L217.024,59.319 L218.504,59.319 Z M224.084,64.786 L224.719,64.786 C224.94,64.786 225.116,64.757 225.25,64.702 C225.383,64.647 225.505,64.554 225.616,64.421 L229.768,59.72 C229.884,59.569 230.006,59.465 230.133,59.406 C230.261,59.349 230.418,59.319 230.603,59.319 L232.031,59.319 L227.278,64.691 C227.162,64.83 227.052,64.943 226.944,65.033 C226.837,65.123 226.721,65.198 226.599,65.256 C226.756,65.308 226.898,65.384 227.026,65.486 C227.153,65.587 227.278,65.721 227.4,65.883 L232.362,71.794 L230.899,71.794 C230.789,71.794 230.696,71.785 230.618,71.771 C230.54,71.756 230.47,71.733 230.412,71.701 C230.354,71.669 230.305,71.631 230.261,71.588 C230.218,71.544 230.174,71.495 230.133,71.437 L225.833,66.484 C225.717,66.339 225.592,66.234 225.459,66.173 C225.325,66.112 225.122,66.083 224.849,66.083 L224.084,66.083 L224.084,71.794 L222.403,71.794 L222.403,59.319 L224.084,59.319 L224.084,64.786 Z M234.651,71.793 L236.34,71.793 L236.34,59.319 L234.651,59.319 L234.651,71.793 Z M250.345,59.319 L250.345,71.794 L249.501,71.794 C249.367,71.794 249.257,71.771 249.167,71.724 C249.077,71.678 248.987,71.599 248.9,71.489 L241.684,62.088 C241.695,62.233 241.704,62.375 241.71,62.514 C241.716,62.654 241.718,62.784 241.718,62.906 L241.718,71.794 L240.239,71.794 L240.239,59.319 L241.109,59.319 C241.185,59.319 241.248,59.323 241.301,59.331 C241.353,59.34 241.399,59.354 241.44,59.375 C241.481,59.395 241.521,59.424 241.562,59.462 C241.602,59.499 241.646,59.549 241.692,59.607 L248.909,69 C248.897,68.849 248.889,68.701 248.88,68.558 C248.871,68.416 248.865,68.283 248.865,68.155 L248.865,59.319 L250.345,59.319 Z M264.377,65.796 L264.377,70.584 C263.75,71.036 263.083,71.373 262.372,71.597 C261.661,71.82 260.881,71.933 260.033,71.933 C259.029,71.933 258.124,71.777 257.317,71.466 C256.511,71.156 255.823,70.72 255.251,70.16 C254.68,69.6 254.238,68.93 253.931,68.147 C253.623,67.363 253.47,66.501 253.47,65.561 C253.47,64.609 253.621,63.742 253.919,62.958 C254.218,62.175 254.642,61.502 255.193,60.941 C255.745,60.382 256.415,59.949 257.204,59.642 C257.993,59.334 258.875,59.18 259.851,59.18 C260.344,59.18 260.802,59.215 261.226,59.288 C261.649,59.36 262.041,59.465 262.401,59.601 C262.761,59.737 263.094,59.903 263.402,60.097 C263.71,60.292 263.997,60.512 264.264,60.756 L263.785,61.522 C263.71,61.638 263.614,61.711 263.495,61.743 C263.376,61.774 263.242,61.748 263.097,61.661 C262.958,61.58 262.799,61.481 262.619,61.365 C262.439,61.249 262.221,61.136 261.963,61.029 C261.705,60.921 261.4,60.831 261.049,60.756 C260.698,60.68 260.28,60.643 259.798,60.643 C259.096,60.643 258.46,60.756 257.892,60.985 C257.323,61.214 256.838,61.542 256.438,61.969 C256.038,62.395 255.73,62.912 255.515,63.518 C255.301,64.125 255.193,64.807 255.193,65.561 C255.193,66.345 255.306,67.044 255.53,67.662 C255.753,68.28 256.072,68.805 256.487,69.238 C256.902,69.67 257.404,70.001 257.996,70.227 C258.588,70.453 259.253,70.566 259.99,70.566 C260.57,70.566 261.087,70.5 261.536,70.369 C261.986,70.239 262.424,70.059 262.854,69.827 L262.854,67.084 L260.912,67.084 C260.802,67.084 260.715,67.053 260.648,66.989 C260.582,66.925 260.547,66.847 260.547,66.754 L260.547,65.796 L264.377,65.796 Z" id="Fill-9" fill="#FFFFFF"></path>
            </g>
        </g>
    </g>
</svg>