<?xml version="1.0" encoding="UTF-8"?>
<svg width="781px" height="255px" viewBox="0 0 781 255" version="1.1" xmlns="http://www.w3.org/2000/svg" xmlns:xlink="http://www.w3.org/1999/xlink">
    <!-- Generator: Sketch 50.2 (55047) - http://www.bohemiancoding.com/sketch -->
    <title>Group</title>
    <desc>Created with Sketch.</desc>
    <defs>
        <path d="M0.34,127.951 C0.34,198.067 57.375,255.105 127.488,255.105 C164.006,255.105 198.817,239.344 222.981,211.863 C223.435,211.348 223.641,210.658 223.547,209.975 C223.449,209.297 223.065,208.691 222.489,208.32 L150.793,162.137 C150.031,161.648 149.055,161.635 148.289,162.104 C142.033,165.922 134.842,167.934 127.488,167.934 C105.442,167.934 87.508,150.004 87.508,127.951 C87.508,120.574 89.52,113.664 93.019,107.727 L93.142,107.648 L93.182,107.449 C100.174,95.793 112.932,87.971 127.488,87.971 C134.842,87.971 142.033,89.988 148.284,93.801 C149.055,94.275 150.031,94.26 150.793,93.771 L222.489,47.586 C223.065,47.215 223.449,46.613 223.547,45.925 C223.641,45.252 223.435,44.563 222.981,44.045 C198.817,16.565 164.006,0.803 127.488,0.803 C57.375,0.803 0.34,57.84 0.34,127.951 Z M105.158,7.6 C112.404,6.252 119.855,5.52 127.488,5.52 C128.768,5.52 130.05,5.578 131.326,5.623 L184.324,39.758 L169.699,49.162 L105.158,7.6 Z M141.092,6.301 C162.547,8.703 182.922,16.77 200.197,29.533 L188.674,36.945 L141.092,6.301 Z M79.299,15.418 C85.491,12.756 91.951,10.608 98.612,8.992 L165.339,51.974 L150.721,61.388 L79.299,15.418 Z M26.545,58.771 C38.186,41.838 53.982,27.98 72.44,18.645 L72.44,37.41 L32.941,62.854 L26.545,58.771 Z M77.157,91.043 L77.157,19.646 L91.423,28.83 L91.423,100.135 L77.157,91.043 Z M96.14,31.863 L110.398,41.043 L110.398,86.659 C105.037,88.885 100.207,92.122 96.14,96.131 L96.14,31.863 Z M191.034,41.043 L204.178,32.58 C204.553,32.883 204.92,33.205 205.295,33.518 L205.295,53.049 L191.034,62.234 L191.034,41.043 Z M210.012,37.606 C212.629,40.002 215.178,42.482 217.605,45.119 L210.012,50.011 L210.012,37.606 Z M37.316,65.643 L72.44,43.026 L72.44,61.854 L54.305,73.537 C53.387,74.123 52.639,74.608 52.02,75.018 L37.316,65.643 Z M172.053,53.259 L186.317,44.08 L186.317,65.275 L172.053,74.461 L172.053,53.259 Z M115.115,44.08 L129.377,53.264 L129.377,83.312 C128.748,83.289 128.117,83.254 127.488,83.254 C123.195,83.254 119.051,83.875 115.115,85.008 L115.115,44.08 Z M153.078,65.481 L167.336,56.297 L167.336,77.502 L153.078,86.687 L153.078,65.481 Z M134.093,83.761 L134.093,56.297 L148.361,65.481 L148.361,88.449 C143.899,86.086 139.08,84.504 134.093,83.761 Z M16.555,76.228 C18.742,71.555 21.219,67.048 23.953,62.717 L89.402,104.442 L74.872,113.797 L16.555,76.228 Z M56.389,77.801 C59.768,75.633 65.486,71.942 72.44,67.463 L72.44,88.035 L56.389,77.801 Z M9.308,96.008 C10.74,90.721 12.498,85.564 14.598,80.584 L70.519,116.603 L55.897,126.017 L9.308,96.008 Z M5.49,118.01 C5.965,112.16 6.848,106.438 8.113,100.848 L51.535,128.82 L36.916,138.237 L5.49,118.01 Z M77.157,117.937 L85.526,112.551 C83.758,117.351 82.791,122.541 82.791,127.951 C82.791,137.801 85.998,146.918 91.423,154.311 L91.423,177.358 L77.157,186.543 L77.157,117.937 Z M58.176,130.156 L72.44,120.975 L72.44,214.063 L58.176,223.246 L58.176,130.156 Z M6.008,142.954 C5.402,138.031 5.057,133.031 5.057,127.951 C5.057,126.428 5.115,124.92 5.168,123.41 L32.556,141.039 L17.854,150.502 L6.008,142.954 Z M39.197,212.641 L39.197,142.371 L53.459,133.191 L53.459,225.385 C48.377,221.517 43.611,217.25 39.197,212.641 Z M20.217,186.899 L20.217,154.59 L34.48,145.411 L34.48,207.441 C29.064,201.113 24.27,194.242 20.217,186.899 Z M6.921,149.129 L15.5,154.598 L15.5,177.352 C11.56,168.445 8.654,158.992 6.921,149.129 Z M96.14,159.774 C99.246,162.84 102.805,165.454 106.707,167.508 L96.14,174.317 L96.14,159.774 Z M98.133,203.086 L151.893,168.461 L166.511,177.875 L112.756,212.494 L98.133,203.086 Z M79.152,190.867 L111.834,169.812 C116.707,171.645 121.98,172.651 127.488,172.651 C131.399,172.651 135.275,172.137 139.012,171.141 L93.781,200.277 L79.152,190.867 Z M117.117,215.301 L170.861,180.678 L185.481,190.097 L131.736,224.711 L117.117,215.301 Z M136.092,227.519 L189.832,192.898 L204.455,202.312 L150.721,236.928 L136.092,227.519 Z M77.157,239.52 L77.157,195.189 L91.423,204.37 L91.423,244.961 C86.521,243.446 81.769,241.61 77.157,239.52 Z M210.017,205.899 L217.605,210.786 C215.178,213.418 212.639,215.902 210.017,218.295 L210.017,205.899 Z M191.034,216.57 L205.3,207.383 L205.3,222.387 C200.773,226.117 196.008,229.496 191.034,232.52 L191.034,216.57 Z M96.14,246.302 L96.14,207.406 L110.398,216.586 L110.398,249.164 C105.549,248.485 100.789,247.534 96.14,246.302 Z M172.059,228.793 L186.317,219.609 L186.317,235.258 C181.707,237.787 176.951,240.019 172.059,241.937 L172.059,228.793 Z M115.115,249.76 L115.115,219.623 L129.377,228.803 L129.377,250.34 C128.748,250.346 128.117,250.391 127.488,250.391 C123.312,250.391 119.187,250.17 115.115,249.76 Z M58.215,228.828 L72.44,219.672 L72.44,237.26 C67.502,234.765 62.742,231.947 58.215,228.828 Z M153.078,241.024 L167.342,231.836 L167.342,243.66 C162.674,245.274 157.918,246.629 153.078,247.664 L153.078,241.024 Z M134.093,231.84 L148.361,241.019 L148.361,248.555 C143.66,249.37 138.898,249.941 134.093,250.203 L134.093,231.84 Z" id="path-1"></path>
    </defs>
    <g id="Page-1" stroke="none" stroke-width="1" fill="none" fill-rule="evenodd">
        <g id="RGB_Landscape_Primary" transform="translate(-31.000000, -171.000000)">
            <g id="Group-22" transform="translate(31.000000, 170.280000)">
                <g id="Group">
                    <path d="M397.8809,67.5195 C405.2349,67.5015 411.2189,73.4585 411.2289,80.8185 C411.2479,88.1715 405.2829,94.1505 397.9239,94.1655 C390.5689,94.1775 384.5899,88.2285 384.5779,80.8695 C384.5589,73.5155 390.5159,67.5295 397.8809,67.5195 Z M389.3047,186.4258 L389.1587,109.5528 L406.7577,109.5198 L406.9027,186.3908 L389.3047,186.4258 Z M511.3359,67.3066 C518.6909,67.2906 524.6739,73.2476 524.6859,80.6016 C524.7049,87.9566 518.7399,93.9356 511.3869,93.9456 C504.0249,93.9626 498.0489,88.0096 498.0329,80.6566 C498.0199,73.2986 503.9729,67.3206 511.3359,67.3066 Z M502.7656,186.2109 L502.6176,109.3379 L520.2126,109.3069 L520.3596,186.1759 L502.7656,186.2109 Z M462.2207,78.6641 L462.2777,109.4201 L484.2287,109.3731 L484.2597,126.9711 L462.3127,127.0121 L462.3577,148.7931 C462.3767,160.8981 472.2437,170.7271 484.3437,170.7031 L484.3767,188.301164 C462.5707,188.3401 444.7927,170.6331 444.7537,148.8281 L444.7127,127.0411 L422.7637,127.0881 L422.7287,109.4921 L444.6777,109.4451 L444.6207,78.6991 L462.2207,78.6641 Z M325.8477,91.3984 C303.9007,91.4434 286.0767,109.3324 286.1187,131.2774 C286.1587,153.2224 304.0507,171.0434 325.9977,171.0034 C339.4277,170.9804 351.2907,164.2524 358.4847,154.0174 L374.8617,161.1914 C364.7867,177.5974 346.7017,188.5624 326.0337,188.6014 C294.3247,188.6604 268.5817,163.0074 268.5237,131.3124 C268.4647,99.6114 294.1097,73.8634 325.8127,73.8004 C346.4827,73.7674 364.6157,84.6564 374.7517,101.0314 L358.3967,108.2614 C351.1617,98.0624 339.2777,91.3784 325.8477,91.3984 Z M746.3848,106.2031 C765.3808,106.1681 780.7928,121.5291 780.8378,140.5161 L780.9198,185.6831 L763.3218,185.7171 L763.2348,140.5511 L763.2398,140.5511 C763.2148,131.2971 755.6718,123.7791 746.4158,123.7991 C737.1798,123.8181 729.6778,131.3361 729.6698,140.5661 L729.7538,185.7851 L712.1598,185.8201 L712.0138,108.9471 L729.6078,108.9121 L729.6118,110.6251 C734.5708,107.8301 740.2908,106.2131 746.3848,106.2031 Z M543.6035,126.8613 L543.5665,109.2593 L603.1425,109.1483 L603.1585,117.7503 L603.1735,126.7463 L603.1775,130.2423 L565.0015,168.8513 L603.2555,168.7833 L603.2895,186.3753 L543.7165,186.4883 L543.6995,177.8903 L543.6775,168.8943 L543.6735,165.3983 L581.8555,126.7833 L543.6035,126.8613 Z M657.7225,106.3694 C680.2595,106.3284 698.5605,124.5584 698.5995,147.0934 C698.6055,149.0824 698.4175,151.0154 698.1525,152.9234 L691.3395,152.9374 L680.2465,152.9574 L635.3765,153.0474 C637.9945,163.0154 647.0685,170.3984 657.8435,170.3714 C665.3965,170.3594 672.0815,166.7074 676.3145,161.1014 L692.6775,168.2654 C685.5405,180.0434 672.6505,187.9434 657.8765,187.9724 C635.3435,188.0114 617.0375,169.7854 616.9945,147.2504 C616.9535,124.7144 635.1875,106.4124 657.7225,106.3694 Z M637.8105,135.4434 L677.7425,135.3714 C673.6855,128.5434 666.2555,123.9514 657.7535,123.9644 C649.2575,123.9844 641.8415,128.6054 637.8105,135.4434 Z" id="Combined-Shape" fill="#4E39A8"></path>
                    <mask id="mask-2" fill="white">
                        <use xlink:href="#path-1"></use>
                    </mask>
                    <use id="Clip-2" fill="#4E39A8" xlink:href="#path-1"></use>
                </g>
            </g>
        </g>
    </g>
</svg>