<?xml version="1.0" encoding="UTF-8"?>
<svg width="140px" height="140px" viewBox="0 0 140 140" version="1.1" xmlns="http://www.w3.org/2000/svg" xmlns:xlink="http://www.w3.org/1999/xlink">
    <!-- Generator: Sketch 50.2 (55047) - http://www.bohemiancoding.com/sketch -->
    <title>Combined Shape</title>
    <desc>Created with Sketch.</desc>
    <defs></defs>
    <g id="Page-1" stroke="none" stroke-width="1" fill="none" fill-rule="evenodd">
        <g id="gex_logotyp_cmyk" transform="translate(-1.000000, -1.000000)" fill="#C0243A">
            <g id="Group-7" transform="translate(0.000000, 0.732000)">
                <path d="M43.8865,49.4648 C46.0325,51.3128 46.4355,52.6708 46.1315,54.8888 C45.5875,58.8508 40.9025,60.0478 40.9025,60.0478 C38.7005,60.5578 39.0665,60.5058 36.7565,60.8948 C35.1555,61.1038 33.9805,61.1768 32.6085,61.1768 C27.6005,61.1768 25.0985,59.2648 25.0985,55.9828 C25.0985,53.5038 26.2685,51.6308 28.6115,50.0288 C30.6285,48.6708 33.0025,47.9408 35.6365,47.8218 C38.2985,47.7028 42.0545,47.8868 43.8865,49.4648 Z M44.7421,121.1037 C41.9261,124.5747 38.5101,126.3117 34.4901,126.3117 C30.3901,126.3117 27.2341,125.0407 25.0231,122.4967 C22.8121,119.9527 21.7071,116.6217 21.7071,112.5037 C21.7071,105.7207 24.0791,99.7437 28.8231,94.5767 C32.2791,90.7007 37.6241,86.8247 44.8611,82.9487 C47.8371,91.5077 49.3241,99.1387 49.3241,105.8417 C49.3241,107.3747 49.2821,108.7887 49.2031,110.0817 C48.8021,114.2787 47.3141,117.9547 44.7421,121.1037 Z M70.8662,0.3217 C109.4552,0.3217 140.7372,31.6047 140.7372,70.1927 C140.7372,108.7817 109.4552,140.0647 70.8662,140.0647 C58.9442,140.0647 47.7222,137.0757 37.9022,131.8117 C50.0382,129.8117 56.1072,120.9127 56.1072,105.1147 C56.1072,98.4927 54.5322,90.0957 51.3832,79.9207 C55.2892,78.1047 58.3632,76.5667 60.6122,75.3027 C61.0862,75.8267 61.6032,76.3397 62.1722,76.8407 C65.5632,79.8287 69.1552,81.3227 72.9522,81.3227 C76.7462,81.3227 81.4172,80.1527 85.2142,77.8097 C86.2732,77.1557 92.1182,72.6577 99.8322,67.0327 L102.7462,69.1007 C105.9742,71.7647 108.3972,73.7847 110.0132,75.1567 C111.5462,76.7727 112.7182,77.9837 113.5262,78.7907 C114.0902,79.1117 114.6562,79.2747 115.2222,79.2747 C116.0282,79.2747 116.4332,78.8297 116.4332,77.9427 C116.4332,75.9247 114.8982,73.5817 111.8302,70.9177 C109.4872,69.0607 107.1462,67.2037 104.8052,65.3457 L103.5232,64.4057 C114.9612,56.2357 127.1252,47.2727 126.5322,46.6807 C125.6392,45.7867 118.8382,50.8907 101.4062,62.8527 L101.1712,62.6807 C98.1832,59.5317 95.4372,55.9787 92.9342,52.0217 C92.1262,50.8107 91.3602,50.2047 90.6332,50.2047 C89.1792,50.2047 88.4532,50.9727 88.4532,52.5057 C88.4532,54.6417 91.5872,58.9017 97.8512,65.2857 C96.4092,66.2707 94.9042,67.2947 93.3312,68.3607 C93.1972,68.4517 87.5402,72.0857 82.8132,74.6117 C80.1682,76.0247 78.3612,76.2357 76.5862,76.2357 C74.9702,76.2357 73.1942,75.8317 71.2562,75.0237 C69.3182,74.2177 67.9042,73.2487 67.0172,72.1167 C73.8802,68.5647 78.4422,64.1647 80.7042,58.9137 C81.1892,57.7847 81.4312,56.6547 81.4312,55.5227 C81.4312,53.2627 80.7042,51.2227 79.2512,49.4057 C77.7972,47.5887 75.9392,46.6807 73.6792,46.6807 C69.8822,46.6807 66.1272,49.1027 62.4142,53.9477 C58.8592,58.4717 57.0842,62.7107 57.0842,66.6667 C57.0842,68.8537 57.6512,70.9057 58.7762,72.8247 C56.4582,73.7307 53.6342,75.0427 50.2932,76.7717 L45.5692,64.0537 C47.5872,63.3267 49.2822,62.0547 50.6562,60.2377 C52.0292,58.4207 52.7152,56.4637 52.7152,54.3627 C52.7152,50.8917 51.0592,48.2277 47.7492,46.3687 C45.0852,44.8357 41.8542,44.0677 38.0592,44.0677 C33.3752,44.0677 29.1362,45.1577 25.3412,47.3377 C20.7382,50.0027 18.4372,53.5567 18.4372,57.9967 C18.4372,61.3087 19.6482,63.8927 22.0702,65.7487 C24.2512,67.3657 27.0762,68.1717 30.5492,68.1717 C32.8912,68.1717 35.4742,67.8077 38.3012,67.0817 C40.1582,70.8777 41.8942,74.9547 43.5102,79.3147 C34.7072,83.7547 28.2062,88.1157 24.0092,92.3967 C18.3742,98.1077 15.4402,104.7797 15.1912,112.4097 C6.2842,100.6817 0.9942,86.0557 0.9942,70.1927 C0.9942,31.6047 32.2772,0.3217 70.8662,0.3217 Z M71.9752,103.8837 C76.1622,103.9047 76.9632,101.1947 76.9632,99.3887 C76.9632,97.5617 76.1622,94.8527 71.9752,94.8527 L65.5092,94.8527 L65.5092,109.5077 L68.0752,109.5077 L68.0752,103.8837 L71.9752,103.8837 Z M93.3782,109.5077 L96.1292,109.5077 L90.4842,94.8527 L87.7542,94.8527 L82.1302,109.5077 L84.7782,109.5077 L86.1532,105.6287 L92.0032,105.6287 L93.3782,109.5077 Z M108.5422,103.7607 L114.0232,94.8527 L111.1492,94.8527 L107.3312,101.4207 L103.4522,94.8527 L100.4762,94.8527 L105.9772,103.7607 L105.9772,109.5077 L108.5422,109.5077 L108.5422,103.7607 Z M71.0745,64.91 C69.2575,67.374 67.2585,69.009 65.0785,69.816 C63.7865,68.686 63.1405,67.111 63.1405,65.092 C63.1405,62.911 63.8865,60.51 65.3815,57.885 C66.8745,55.261 68.6315,53.948 70.6505,53.948 C72.7495,53.948 73.7995,55.28 73.7995,57.945 C73.7995,60.125 72.8915,62.448 71.0745,64.91 Z M71.8722,96.9463 C73.2272,96.9463 74.3972,97.4393 74.3972,99.3683 C74.3972,101.2153 72.9812,101.7903 71.8312,101.7903 L68.0752,101.7903 L68.0752,96.9463 L71.8722,96.9463 Z M89.1093,97.3773 L89.1293,97.3773 L91.3263,103.6783 L86.8513,103.6783 L89.0683,97.3773 L89.1093,97.3773 Z" id="Combined-Shape"></path>
            </g>
        </g>
    </g>
</svg>