<svg xmlns="http://www.w3.org/2000/svg" viewBox="0 0 392.55 87.61"><title>Insoro-Logo-Black</title><g id="Ebene_2" data-name="Ebene 2"><g id="Ebene_1-2" data-name="Ebene 1"><path d="M115.82,82.14V21.51h7.54V82.14Zm-.7-67.38V5.64h8.95v9.12Z"/><path d="M209.41,83.28c-8.34.57-14.58-2.36-22.24-10.38l5-5.24c3.24,3.41,4.57,4.73,6.43,6a18,18,0,0,0,10.62,2.78c7.39-.51,12.17-5,11.76-11.3a8.54,8.54,0,0,0-2-5,9.37,9.37,0,0,0-2.77-2.47,41.82,41.82,0,0,0-8.74-3.47c-6.74-2.2-7.45-2.57-10.46-4.61-4.46-3-6.78-6.95-7.11-12-.61-9.34,6.59-16.83,17-17.54,7.52-.51,13.06,2.19,19,9.21l-4.74,5.22c-1-1.05-1.63-1.85-2.22-2.51A29,29,0,0,0,216,29.21a13.85,13.85,0,0,0-9-2.61c-6,.27-10,4.46-9.66,9.76a8.12,8.12,0,0,0,2.13,5.31,9.87,9.87,0,0,0,3.32,2.44c2,1,2.83,1.21,8.58,3,5.76,2,8,3,10.32,4.62a16.07,16.07,0,0,1,6.7,12.15C229.14,74.24,221,82.49,209.41,83.28Z"/><path d="M264.89,83.4c-17,0-30.83-14.11-30.83-31.57s13.84-31.72,30.83-31.72S296,34.5,296,51.55C296,69.29,282.16,83.4,264.89,83.4ZM265,27c-13-.14-23.3,11.17-23.3,25,0,13.68,10.14,24.44,23.16,24.44s23.57-11.17,23.57-24.58C288.46,38.13,277.91,27,265,27Z"/><path d="M331.19,30.17a15.66,15.66,0,0,0-5.76-1.25c-8.22,0-14.11,7.54-14.11,17.88V82.14h-7.54V21.51h7.54v9.08c5.48-7.82,10.28-10.89,16.85-10.89,2.2,0,4.07.92,6.26,1.62Z"/><path d="M361.45,83.4c-17,0-30.83-14.11-30.83-31.57s13.84-31.72,30.83-31.72,31.1,14.39,31.1,31.44C392.55,69.29,378.71,83.4,361.45,83.4ZM361.59,27c-13-.14-23.3,11.17-23.3,25,0,13.68,10.14,24.44,23.16,24.44S385,65.24,385,51.83C385,38.13,374.47,27,361.59,27Z"/><path d="M157.92,20.11c-.31,0-.6,0-.9,0s-.6,0-.91,0c-13.29,0-21.51,8.94-21.51,23.75V82.14h7.54v-38c0-10.73,5.46-16.87,14.88-16.9s14.88,6.17,14.88,16.9v38h7.53V43.86C179.43,29.05,171.21,20.11,157.92,20.11Z"/><path d="M43,0C19.24,0,0,19.61,0,43.8S19.24,87.61,43,87.61s43-19.62,43-43.81S66.7,0,43,0ZM29,59.71h-.46a9.46,9.46,0,0,1-9.36-9.55V26.8h.46A9.45,9.45,0,0,1,29,36.34Zm17.89,3.14a9.45,9.45,0,0,1-9.36,9.54h-.46v-29a9.45,9.45,0,0,1,9.36-9.54h.46Zm17.88-2.32H64.3A9.45,9.45,0,0,1,54.94,51V17.58h.47a9.45,9.45,0,0,1,9.35,9.54Z"/></g></g></svg>