<svg xmlns="http://www.w3.org/2000/svg" viewBox="0 0 225.37 30.44"><title>Irresident logo</title><g id="Layer_2" data-name="Layer 2"><g id="Grid"><path d="M1.55,32.77l-.2-3.13,2.31-.16V16.21l-2.23-.16.2-3.14H8V29.68l2.3.15-.2,2.94ZM5.8,9.45A2.37,2.37,0,0,1,3.22,7.07,2.38,2.38,0,0,1,5.8,4.64,2.37,2.37,0,0,1,8.38,7.07,2.35,2.35,0,0,1,5.8,9.45Z" transform="translate(-1.35 -2.97)" fill="#00274c"/><path d="M13,32.77l-.2-3.13,2.31-.16V16.21l-2.47-.16.2-3.14h5.64l.44,2.74h0a6.47,6.47,0,0,1,5.44-3.38,10.26,10.26,0,0,1,3.66.64v6.47H24.87l-.24-3.61a10.21,10.21,0,0,0-1.15,0,4.62,4.62,0,0,0-4.09,2.66V29.68l2.74.15-.2,2.94Z" transform="translate(-1.35 -2.97)" fill="#00274c"/><path d="M30.51,32.77l-.2-3.13,2.31-.16V16.21l-2.47-.16.2-3.14H36l.44,2.74h0a6.47,6.47,0,0,1,5.44-3.38,10.26,10.26,0,0,1,3.66.64v6.47H42.43l-.24-3.61a10.3,10.3,0,0,0-1.15,0A4.62,4.62,0,0,0,37,18.39V29.68l2.74.15-.2,2.94Z" transform="translate(-1.35 -2.97)" fill="#00274c"/><path d="M52.12,23.91c.36,4.34,2.62,6.28,6.28,6.28a7.39,7.39,0,0,0,5.52-2.42l2,2.18s-2.27,3.46-7.71,3.46c-6.4,0-10.41-3.65-10.41-10.61s4-10.53,9.77-10.53c5.57,0,8.63,3,8.63,8.7a7.33,7.33,0,0,1-.6,2.94Zm0-2.9h10a7,7,0,0,0,.08-.87c0-3.06-1.47-4.77-4.65-4.77S52.52,17.4,52.16,21Z" transform="translate(-1.35 -2.97)" fill="#00274c"/><path d="M80.92,18.55l-.27-1.91A5.92,5.92,0,0,0,77,15.29c-2,0-3.49.84-3.49,2.31,0,4.13,11.28,2.58,11.28,9.25,0,3.66-2.46,6.56-8.9,6.56a19.19,19.19,0,0,1-6.56-1L68.89,27l2.66-.2.32,3.1a15.45,15.45,0,0,0,3.85.52c3.22,0,4.57-1.39,4.57-3.06,0-4.17-11.09-2.14-11.09-9.26,0-3.57,3.1-5.8,7.12-5.8a8.86,8.86,0,0,1,4.8,1.59l.52-1.19h2.19l0,5.88Z" transform="translate(-1.35 -2.97)" fill="#00274c"/><path d="M87.4,32.77l-.2-3.13,2.3-.16V16.21l-2.22-.16.2-3.14h6.35V29.68l2.31.15-.2,2.94ZM91.65,9.45a2.37,2.37,0,0,1-2.58-2.38,2.58,2.58,0,0,1,5.16,0A2.35,2.35,0,0,1,91.65,9.45Z" transform="translate(-1.35 -2.97)" fill="#00274c"/><path d="M114.3,32.77,113.94,31c-.24.32-2,2.46-6.32,2.46-5.44,0-9.1-4.33-9.1-10.49,0-6.52,3.3-10.65,9.26-10.65,4.13,0,5.88,1.71,5.88,1.71h.12V6.27l-2.27-.16.2-3.14h6.36V29.68l2.3.15-.19,2.94Zm-.52-5.16V17.24a5.9,5.9,0,0,0-4.49-1.75c-4.45,0-6.32,2.5-6.32,7.31s2.07,7.35,6,7.35A5.55,5.55,0,0,0,113.78,27.61Z" transform="translate(-1.35 -2.97)" fill="#00274c"/><path d="M127.13,23.91c.35,4.34,2.62,6.28,6.27,6.28a7.43,7.43,0,0,0,5.53-2.42l2,2.18s-2.26,3.46-7.71,3.46c-6.39,0-10.41-3.65-10.41-10.61s4-10.53,9.78-10.53c5.56,0,8.62,3,8.62,8.7a7.43,7.43,0,0,1-.59,2.94Zm0-2.9h10a7,7,0,0,0,.08-.87c0-3.06-1.47-4.77-4.65-4.77C129.27,15.37,127.52,17.4,127.17,21Z" transform="translate(-1.35 -2.97)" fill="#00274c"/><path d="M143.81,32.77l-.2-3.13,2.31-.16V16.21l-2.23-.16.2-3.14h5.84l.36,1.59c.08-.12,1.94-2.23,6.63-2.23,4.53,0,7.16,1.91,7.16,6.4v11l2.3.15-.2,2.94h-6.44V19.46c0-2.54-1.43-3.57-4.33-3.57a7.08,7.08,0,0,0-5,1.75v12l2.3.15-.2,2.94Z" transform="translate(-1.35 -2.97)" fill="#00274c"/><path d="M174.88,16.25V26.34c0,2.42.67,3.57,2.46,3.57a23.27,23.27,0,0,0,2.9-.27v2.82a11.89,11.89,0,0,1-4.25.67c-3.66,0-5.44-1.55-5.44-5.8V16.25h-2.39V13.11l2.39-.16.55-6h3.78v6h5.68v3.34Z" transform="translate(-1.35 -2.97)" fill="#00274c"/><path d="M187.63,33.25a2.44,2.44,0,1,1,0-4.85,2.51,2.51,0,0,1,2.62,2.43A2.44,2.44,0,0,1,187.63,33.25Z" transform="translate(-1.35 -2.97)" fill="#00acc0"/><path d="M195.18,32.77l-.2-3.13,2.3-.16V16.21l-2.22-.16.2-3.14h6.35V29.68l2.31.15-.2,2.94Zm4.25-23.32a2.41,2.41,0,1,1,0-4.81A2.37,2.37,0,0,1,202,7.07,2.35,2.35,0,0,1,199.43,9.45Z" transform="translate(-1.35 -2.97)" fill="#00acc0"/><path d="M206.3,22.68c0-6.51,3.54-10.41,10.21-10.41s10.21,3.9,10.21,10.41S223,33.41,216.51,33.41C209.84,33.41,206.3,29.2,206.3,22.68Zm15.93,0c0-4.61-1.67-7.35-5.72-7.35s-5.72,2.74-5.72,7.35,1.67,7.63,5.72,7.63S222.23,27.37,222.23,22.72Z" transform="translate(-1.35 -2.97)" fill="#00acc0"/></g></g></svg>