<?xml version="1.0" encoding="UTF-8"?>
<svg width="1833px" height="367px" viewBox="0 0 1833 367" version="1.1" xmlns="http://www.w3.org/2000/svg" xmlns:xlink="http://www.w3.org/1999/xlink">
    <!-- Generator: Sketch 50.2 (55047) - http://www.bohemiancoding.com/sketch -->
    <title>Asset 2</title>
    <desc>Created with Sketch.</desc>
    <defs>
        <linearGradient x1="49.9602717%" y1="59.5299591%" x2="49.8423683%" y2="107.489386%" id="linearGradient-1">
            <stop stop-color="#001B35" offset="0%"></stop>
            <stop stop-color="#001E3E" offset="4%"></stop>
            <stop stop-color="#00254F" offset="15%"></stop>
            <stop stop-color="#002A5A" offset="29%"></stop>
            <stop stop-color="#002C61" offset="47%"></stop>
            <stop stop-color="#002D63" offset="100%"></stop>
        </linearGradient>
        <linearGradient x1="50.6746386%" y1="52.8550573%" x2="56.3787139%" y2="141.560815%" id="linearGradient-2">
            <stop stop-color="#0065A3" offset="0%"></stop>
            <stop stop-color="#026FB8" offset="6%"></stop>
            <stop stop-color="#037ACE" offset="14%"></stop>
            <stop stop-color="#0482DF" offset="24%"></stop>
            <stop stop-color="#0588EA" offset="36%"></stop>
            <stop stop-color="#068BF1" offset="53%"></stop>
            <stop stop-color="#068CF3" offset="100%"></stop>
        </linearGradient>
        <linearGradient x1="51.9850097%" y1="29.1510327%" x2="54.4535783%" y2="-2.04743761%" id="linearGradient-3">
            <stop stop-color="#0065A3" offset="0%"></stop>
            <stop stop-color="#0375C5" offset="28%"></stop>
            <stop stop-color="#0482DE" offset="55%"></stop>
            <stop stop-color="#0689EE" offset="80%"></stop>
            <stop stop-color="#068CF3" offset="100%"></stop>
        </linearGradient>
    </defs>
    <g id="Page-1" stroke="none" stroke-width="1" fill="none" fill-rule="evenodd">
        <g id="Asset-2">
            <g id="neoeyed" transform="translate(539.000000, 0.000000)" fill="#414042" fill-rule="nonzero">
                <path d="M36.75,75.37 C51.8313849,63.9972659 70.2314826,57.8943502 89.12,58 C136.89,58 177.22,98 177.58,145.75 L177.58,199.53 C168.73,214.75 155.29,226.07 141.49,234.92 L141.49,146.13 C141.13,116.41 118.84,93.06 89.12,93.06 C60.46,93.06 36.75,116.41 36.75,146.13 L36.75,235 C22.95,226.15 9.51,215.18 0.66,200 L0.66,93.06 C9.51,79.26 21.89,65.81 36.75,58.06 L36.75,75.37 Z M221.45,146.49 C221.505009,175.386434 244.913577,198.799473 273.81,198.86 C289.68551,198.943529 304.806265,192.091709 315.21,180.1 L356.21,180.1 C342.329867,213.344139 309.835419,234.99396 273.81,235 C224.63,235 186.06,195.37 186.06,146.54 C186.06,97.71 224.63,58 273.81,58 C322.99,58 363,97.66 363,146.49 L221.45,146.49 Z M548.39,146.49 C548.39,195.32 508.39,234.95 459.22,234.95 C410.05,234.95 371.47,195.32 371.47,146.49 C371.47,97.66 410,58 459.22,58 C508.44,58 548.39,97.66 548.39,146.49 Z M592.26,146.49 C592.315009,175.386434 615.723577,198.799473 644.62,198.86 C660.487965,198.935007 675.599185,192.084198 686,180.1 L727,180.1 C713.122673,213.337426 680.638142,234.985894 644.62,235 C595.44,235 556.87,195.37 556.87,146.54 C556.87,97.71 595.44,58 644.62,58 C693.8,58 733.79,97.63 733.79,146.46 L592.26,146.49 Z M919.19,93.06 L919.19,234.59 C919.192457,254.565188 912.321095,273.932825 899.73,289.44 C899.73,289.44 878.15,296.87 851.61,289.44 C870.36,278.12 883.1,257.95 883.1,234.59 L883.1,217.59 C868.023686,228.977016 849.623134,235.094137 830.73,235 C782.97,235 742.63,195 742.27,147.25 L742.27,93.41 C751.12,78.2 764.57,66.88 778.37,58.03 L778.37,146.84 C778.72,176.56 801.01,199.92 830.73,199.92 C859.39,199.92 883.1,176.56 883.1,146.84 L883.1,58 C896.9,66.88 910.35,77.84 919.19,93.06 Z M963.06,146.49 C963.120508,175.388052 986.531948,198.799492 1015.43,198.86 C1031.30465,198.939507 1046.42381,192.088411 1056.83,180.1 L1097.83,180.1 C1083.95203,213.345924 1051.45623,234.996646 1015.43,235 C966.25,235 927.68,195.37 927.68,146.54 C927.68,97.71 966.25,58 1015.43,58 C1064.61,58 1104.6,97.63 1104.6,146.46 L963.06,146.49 Z M1290,35.38 L1290,199.56 C1281.15,214.78 1267.71,227.56 1253.91,234.95 L1253.91,217.26 C1238.69,228.58 1221.36,234.95 1201.54,234.95 C1153.07,234.95 1113.08,196.03 1113.08,145.78 C1113.08,96.95 1153.08,58.03 1201.54,58.03 C1220.43401,57.8588352 1238.85158,63.9569948 1253.91,75.37 L1253.91,0 C1268.77,8.85 1281.15,20.17 1290,35.38 Z M315.57,111.81 C305.66,100.14 290.8,93.06 273.81,93.06 C258.336027,92.9793381 243.646885,99.8648734 233.81,111.81 L315.57,111.81 Z M513,146.49 C513,116.41 489.29,93.06 459.22,93.06 C430.22,93.06 406.85,116.41 406.85,146.49 C406.818042,160.38916 412.325316,173.728251 422.153533,183.556467 C431.981749,193.384684 445.32084,198.891958 459.22,198.86 C489.29,198.86 513,175.5 513,146.49 Z M686.38,111.81 C676.47,100.14 661.61,93.06 644.62,93.06 C629.145712,92.9779076 614.455987,99.8637164 604.62,111.81 L686.38,111.81 Z M1057.18,111.81 C1047.28,100.14 1032.41,93.06 1015.43,93.06 C999.955712,92.9779076 985.265987,99.8637164 975.43,111.81 L1057.18,111.81 Z M1253.91,145.78 C1253.91,117.12 1229.85,93.06 1201.54,93.06 C1171.82,93.06 1148.11,117.12 1148.11,145.78 C1148.11,175.86 1171.82,199.56 1201.54,199.56 C1229.85,199.56 1253.91,175.86 1253.91,145.78 Z" id="Combined-Shape"></path>
            </g>
            <g id="logo" transform="translate(0.000000, 5.000000)">
                <g id="leaf2" transform="translate(20.000000, 74.000000)">
                    <polygon id="Shape" points="3.92 165.79 4.4 165.97 5.4 166.53"></polygon>
                    <polygon id="Shape" fill="#002D63" fill-rule="nonzero" points="1.26 164.76 1.86 164.94 1.98 165.04"></polygon>
                    <polygon id="Shape" fill="#002D63" fill-rule="nonzero" points="3.92 165.79 2.92 165.24 3.42 165.39 4.42 165.97"></polygon>
                    <path d="M2.27,164.74 C2.27,164.74 3.03,165.09 4.49,165.74 L3.39,165.43 L2.27,164.74 Z" id="Shape" fill="#002D63" fill-rule="nonzero"></path>
                    <path d="M398.22,121.69 C319.82,173.37 177.87,234.69 4.4,165.97 L3.4,165.39 L4.5,165.7 C32.81,173.55 243,223 376.81,0.77 L464.58,68.47 C464.58,68.47 440.73,93.65 398.22,121.69 Z" id="Shape" fill="#80BBFF" fill-rule="nonzero"></path>
                    <path d="M0.84,164.14 C0.84,164.14 1.53,164.53 2.89,165.24 L1.89,164.94 L0.84,164.14 Z" id="Shape" fill="#002D63" fill-rule="nonzero"></path>
                    <path d="M5.36,166.53 C153.36,253.59 281.27,237.31 359.48,210.65 L392.15,258.74 C392.15,258.74 196.59,319.53 2,165 L3.94,165.75 L5.36,166.53 Z" id="Shape" fill="url(#linearGradient-1)" fill-rule="nonzero"></path>
                    <polygon id="Shape" fill="#002D63" fill-rule="nonzero" points="2 165 1.88 164.9 2.88 165.2 3.88 165.75"></polygon>
                    <path d="M359.48,210.65 C281.27,237.31 153.36,253.59 5.36,166.53 L4.36,165.97 C177.83,234.73 319.78,173.37 398.18,121.69 L440.89,171.08 C440.89,171.08 411,193.1 359.48,210.65 Z" id="Shape" fill="url(#linearGradient-2)" fill-rule="nonzero"></path>
                </g>
                <path d="M294.88,0.49 C201,2 85.53,28.79 0.45,187.14 C0.3,187.5 0.14,187.85 0,188.22 C0.2,187.94 0.43,187.64 0.68,187.31 C18.36,163.84 150.54,-43.78 392,51 L413.6,16.41 C413.6,16.41 349.53,-0.42 294.88,0.49 Z" id="leaf1" fill="url(#linearGradient-3)" fill-rule="nonzero"></path>
            </g>
            <g id="kill-the-password" transform="translate(542.000000, 289.000000)" fill="#414042" fill-rule="nonzero">
                <path d="M9.23,0.43 L16.94,0.43 L10.94,40.67 L25.76,24.12 L35.76,24.12 L19.68,42.12 L33.4,60 L24,60 L10.71,42.7 L8.11,60 L0.31,60 L9.23,0.43 Z M90.32,24.12 L97.93,24.12 L92.81,60 L85.21,60 L90.32,24.12 Z M91.8,8 C91.8055013,5.30160958 93.9916096,3.11550132 96.69,3.11 C97.9949522,3.09510636 99.2490213,3.61552696 100.16,4.55 C101.107839,5.4451393 101.637358,6.69640067 101.62,8 C101.628045,9.30996704 101.11122,10.5686116 100.184916,11.4949156 C99.2586116,12.4212197 97.999967,12.9380451 96.69,12.93 C95.3849291,12.9503022 94.1306731,12.4246746 93.23,11.48 C92.3015904,10.5616144 91.7855602,9.3058208 91.8,8 Z M158,0.43 L165.7,0.43 L156.87,60 L149.16,60 L158,0.43 Z M222.17,0.43 L229.88,0.43 L221.09,60 L213.38,60 L222.17,0.43 Z M357.93,8.06 L365.55,8.06 L363.17,24.12 L369.77,24.12 L368.77,31.2 L362.11,31.2 L357.84,60 L350.13,60 L354.46,31.16 L348.83,31.16 L349.83,24.08 L355.48,24.08 L357.93,8.06 Z M422.87,0.43 L430.6,0.43 L426.73,30.75 C428.506141,28.6138715 430.54956,26.7149709 432.81,25.1 C434.575218,23.8837715 436.666374,23.2285424 438.81,23.22 C441.786649,23.1727923 444.652627,24.3473733 446.74,26.47 C448.883172,28.5218093 450.075236,31.3733414 450.03,34.34 C450.031705,34.8513715 450.001647,35.3623552 449.94,35.87 L447,60 L439.17,60 L442.09,37.48 L442.09,36.41 C442.167885,34.5995841 441.585027,32.8225808 440.45,31.41 C439.444369,30.151031 437.911033,29.4305479 436.3,29.46 C433.806667,29.46 431.443333,30.8566667 429.21,33.65 C426.914521,36.5519454 425.483164,40.0419608 425.08,43.72 L423,60 L415.36,60 L422.87,0.43 Z M534.86,44 L506.38,44 C506.766667,47.62 507.926667,50.3866667 509.86,52.3 C511.882761,54.248247 514.613938,55.2850827 517.42,55.17 C520.67,55.17 524.13,53.27 527.77,49.47 L532.17,53.91 C528.855439,58.0624133 523.960313,60.6456372 518.661773,61.0384731 C513.363232,61.431309 508.140678,59.598214 504.25,55.98 C500.804534,52.5089916 498.947825,47.7676877 499.12,42.88 C499.026039,37.6694986 501.067433,32.6473086 504.77,28.98 C508.341181,25.2347936 513.315791,23.1535794 518.49,23.24 C522.937633,23.1832927 527.197965,25.0278603 530.2,28.31 C533.389876,31.5918511 535.132918,36.0142787 535.04,40.59 C535.043352,41.7291269 534.983259,42.8675564 534.86,44 Z M667,24.12 L666.4,28.12 C670.566667,24.84 674.523333,23.2 678.27,23.2 C682.878084,23.2094778 687.268218,25.1630694 690.36,28.58 C693.70483,31.8458877 695.587435,36.3251896 695.58,41 C695.664282,46.2535438 693.677824,51.329248 690.05,55.13 C686.740118,58.9099076 681.954206,61.0694048 676.93,61.05 C670.37,61.05 665.67,58.1133333 662.83,52.24 L659.1,77.37 L651.49,77.37 L659.29,24.1 L667,24.12 Z M777,24.12 L784.61,24.12 L779.33,60 L771.62,60 L772.19,56.15 C768.69,59.4033333 764.92,61.03 760.88,61.03 C756.126242,61.0467544 751.592018,59.030735 748.42,55.49 C744.978659,51.9971779 743.077437,47.2729297 743.14,42.37 C743.064063,37.2922026 745.060993,32.4027942 748.67,28.83 C752.080641,25.1815071 756.865839,23.1317444 761.86,23.18 C767.9,23.18 772.543333,26.0866667 775.79,31.9 L777,24.12 Z M832.17,54.16 L836.38,48.83 C837.751505,50.3539665 839.310589,51.6980043 841.02,52.83 C842.443118,53.7078239 844.088175,54.159 845.76,54.13 C847.044483,54.181688 848.313194,53.8321809 849.39,53.13 C850.27559,52.5969909 850.832248,51.6529295 850.87,50.62 C850.87,49.02 849.28,47.3533333 846.1,45.62 C843.553917,44.3594958 841.291259,42.5936016 839.45,40.43 C838.15828,38.6481685 837.490437,36.4899811 837.55,34.29 C837.528095,31.3107322 838.806086,28.4699404 841.05,26.51 C843.308741,24.3691597 846.318451,23.2019093 849.43,23.26 C852.51,23.26 856.143333,24.8133333 860.33,27.92 L856.12,33.26 C853.12,31.17 850.7,30.12 848.94,30.12 C847.738271,30.0747167 846.5659,30.497774 845.67,31.3 C844.81107,32.0569939 844.331409,33.1554555 844.36,34.3 C844.371763,35.3068966 844.790133,36.2662615 845.52,36.96 C846.95365,38.2158525 848.543461,39.2813285 850.25,40.13 C852.349281,41.2159765 854.206672,42.7161772 855.71,44.54 C856.999439,46.2386238 857.666628,48.3284426 857.6,50.46 C857.650823,53.3909873 856.380201,56.1892938 854.14,58.08 C851.712139,60.1565586 848.592702,61.2451493 845.4,61.13 C843.022588,61.1647756 840.675488,60.5934873 838.58,59.47 C836.176084,58.0499538 834.012553,56.257699 832.17,54.16 Z M906.84,54.16 L911.06,48.83 C912.429447,50.3560674 913.988814,51.7003493 915.7,52.83 C917.119562,53.7075356 918.761349,54.1587667 920.43,54.13 C921.714483,54.181688 922.983194,53.8321809 924.06,53.13 C924.95381,52.6051818 925.513394,51.656158 925.54,50.62 C925.54,49.02 923.95,47.3533333 920.77,45.62 C918.224948,44.3624221 915.96501,42.5959943 914.13,40.43 C912.834725,38.6494255 912.163333,36.4911295 912.22,34.29 C912.203422,31.3118573 913.480462,28.4731806 915.72,26.51 C917.982396,24.3685595 920.995394,23.2014266 924.11,23.26 C927.18,23.26 930.82,24.81 935,27.92 L930.79,33.26 C927.77,31.1666667 925.376667,30.12 923.61,30.12 C922.408924,30.0788914 921.238063,30.5014038 920.34,31.3 C919.483634,32.0580336 919.007505,33.156793 919.04,34.3 C919.04801,35.3056642 919.462863,36.2652365 920.19,36.96 C921.62365,38.2158525 923.213461,39.2813285 924.92,40.13 C927.021118,41.2131606 928.879038,42.7137888 930.38,44.54 C931.669439,46.2386238 932.336628,48.3284426 932.27,50.46 C932.325141,53.3918809 931.053715,56.1919567 928.81,58.08 C926.383132,60.1582869 923.262999,61.2471205 920.07,61.13 C917.692588,61.1647756 915.345488,60.5934873 913.25,59.47 C910.846084,58.0499538 908.682553,56.257699 906.84,54.16 Z M983.71,24.12 L989.84,24.12 L996.34,45.91 L1009.52,22.77 L1009.62,22.77 L1016.25,45.91 L1028.86,24.12 L1035.96,24.12 L1014.73,61.43 L1014.63,61.43 L1007.91,38.29 L994.72,61.43 L983.71,24.12 Z M1082.47,42.86 C1082.39719,37.6500965 1084.49902,32.6455664 1088.27,29.05 C1091.95622,25.3039472 1097.01503,23.2298361 1102.27,23.31 C1107.31663,23.1576759 1112.21302,25.0384099 1115.86,28.53 C1119.42603,31.9011034 1121.39874,36.6239734 1121.29,41.53 C1121.42936,46.7186019 1119.37434,51.7254337 1115.63,55.32 C1111.84442,58.993546 1106.73264,60.9776523 1101.46,60.82 C1095.9,60.82 1091.34,59.1366667 1087.78,55.77 C1084.24333,52.4253539 1082.31007,47.7250932 1082.47,42.86 Z M1170.37,60 L1175.71,24.08 L1183.51,24.08 L1182.39,31.7 C1183.12683,30.3796502 1183.96607,29.119119 1184.9,27.93 C1185.92476,26.3710979 1187.29311,25.0677443 1188.9,24.12 C1190.4306,23.4400004 1192.09627,23.1184951 1193.77,23.18 C1195.74866,23.2625562 1197.70225,23.6539487 1199.56,24.34 L1196.06,31.79 C1194.37601,31.0351548 1192.5638,30.6075538 1190.72,30.53 C1188.1696,30.3813519 1185.69339,31.4183335 1184.01,33.34 C1182.43667,35.2133333 1181.31,38.4033333 1180.63,42.91 L1178.08,60 L1170.37,60 Z M1282.85,0.43 L1290.47,0.43 L1281.47,60.04 L1274,60.04 L1274.47,56.04 C1272.65616,57.5463628 1270.67676,58.8413651 1268.57,59.9 C1266.68373,60.7409473 1264.63477,61.1541549 1262.57,61.11 C1258.05,61.11 1254.05,59.24 1250.57,55.5 C1245.40845,49.9087795 1244.03374,41.7978762 1247.06465,34.8181216 C1250.09556,27.838367 1256.96071,23.3055676 1264.57,23.26 C1270.63,23.26 1275.18667,26.17 1278.24,31.99 L1282.85,0.43 Z M506.92,38.31 L527.92,38.31 C526.76,32.4166667 523.426667,29.47 517.92,29.47 C515.356144,29.4093463 512.849378,30.2319893 510.82,31.8 C508.796918,33.4371071 507.41594,35.7351957 506.92,38.29 L506.92,38.31 Z M687.32,41.12 C687.36395,38.0243447 686.168599,35.0395681 684,32.83 C681.954113,30.57875 679.041764,29.3118782 676,29.35 C672.603683,29.2404266 669.334704,30.6477002 667.08,33.19 C664.690431,35.9582923 663.452242,39.5368726 663.62,43.19 C663.623646,46.2607798 664.910725,49.1902453 667.17,51.27 C669.30639,53.514918 672.271,54.7839158 675.37,54.78 C678.631459,54.7758645 681.718711,53.3074929 683.78,50.78 C686.133627,48.1255111 687.391722,44.6764713 687.3,41.13 L687.32,41.12 Z M775,41.31 C775.032975,38.1849796 773.773685,35.1851196 771.52,33.02 C769.329599,30.7433565 766.288767,29.4836677 763.130085,29.5444116 C759.971403,29.6051554 756.98125,30.9808247 754.88,33.34 C752.552331,35.8265922 751.289078,39.1246876 751.36,42.53 C751.253456,45.7760237 752.448789,48.9299749 754.68,51.29 C756.859547,53.5808082 759.909241,54.8384887 763.07,54.75 C766.336801,54.8209517 769.466056,53.4358717 771.61,50.97 C773.928709,48.2990666 775.141141,44.8441728 775,41.31 Z M1102.47,30.93 C1099.17761,30.8506369 1095.99298,32.1057339 1093.64,34.41 C1091.32835,36.5354269 1090.02413,39.5398569 1090.05,42.68 C1089.91228,45.5472 1091.00351,48.3371171 1093.05,50.35 C1095.23202,52.3272651 1098.10867,53.3592641 1101.05,53.22 C1104.36895,53.3666397 1107.61919,52.2438951 1110.14,50.08 C1114.61476,45.7377133 1114.76191,38.6030994 1110.47,34.08 C1108.35662,31.9893978 1105.48167,30.8516985 1102.51,30.93 L1102.47,30.93 Z M1277.29,41.65 C1277.33492,38.4729354 1276.09016,35.4133364 1273.84,33.17 C1271.62601,30.8512086 1268.5406,29.5678539 1265.33523,29.6324936 C1262.12987,29.6971333 1259.09871,31.1038349 1256.98,33.51 C1254.63413,36.120135 1253.38109,39.5319915 1253.48,43.04 C1253.41587,46.2079109 1254.65601,49.2630554 1256.91,51.49 C1259.13396,53.7855879 1262.21684,55.0461268 1265.41205,54.9663417 C1268.60726,54.8865565 1271.62339,53.4737234 1273.73,51.07 C1276.08812,48.5072421 1277.36376,45.1318112 1277.29,41.65 Z" id="Combined-Shape"></path>
            </g>
        </g>
    </g>
</svg>