<?xml version="1.0" encoding="UTF-8"?>
<svg width="210px" height="157px" viewBox="0 0 210 157" version="1.1" xmlns="http://www.w3.org/2000/svg" xmlns:xlink="http://www.w3.org/1999/xlink">
    <!-- Generator: Sketch 50.2 (55047) - http://www.bohemiancoding.com/sketch -->
    <title>Group</title>
    <desc>Created with Sketch.</desc>
    <defs>
        <linearGradient x1="7.59089492%" y1="76.4979288%" x2="92.4082147%" y2="23.5004193%" id="linearGradient-1">
            <stop stop-color="#203955" offset="0%"></stop>
            <stop stop-color="#00B0AE" offset="100%"></stop>
        </linearGradient>
    </defs>
    <g id="Page-1" stroke="none" stroke-width="1" fill="none" fill-rule="evenodd">
        <g id="Irresident_Logo" transform="translate(-670.000000, -385.000000)">
            <g id="Group-276" transform="translate(670.000000, 384.000000)">
                <g id="Group">
                    <path d="M59.41,48.453 C59.41,74.663 80.655,95.91 106.864,95.91 C133.074,95.91 154.323,74.663 154.323,48.453 C154.323,22.239 133.074,0.993 106.864,0.993 C80.655,0.993 59.41,22.239 59.41,48.453 Z M103.374,29.139 L103.374,22.002 L107.081,22.002 L107.081,29.139 L116.201,29.139 C124.211,29.139 130.699,35.629 130.699,43.632 C130.699,51.639 124.211,58.131 116.201,58.131 L110.786,58.131 L110.786,58.128 L107.081,58.128 L107.081,66.12 L110.786,66.12 L110.786,62.413 L114.495,62.413 L114.495,66.12 L114.495,69.828 L107.081,69.828 L107.081,77.24 L103.374,77.24 L103.374,69.828 L103.374,36.551 L107.081,36.551 L107.081,54.422 L110.786,54.422 L116.201,54.422 C122.155,54.422 126.995,49.583 126.995,43.632 C126.995,37.685 122.155,32.845 116.201,32.845 L99.667,32.845 L99.667,54.422 L99.667,58.131 L99.667,69.828 L99.667,77.24 L95.959,77.24 L95.959,69.828 L88.547,69.828 L88.547,66.12 L88.547,62.413 L92.254,62.413 L92.254,66.12 L95.959,66.12 L95.959,58.131 L95.959,54.422 L95.959,32.845 L92.254,32.845 L92.254,36.551 L88.547,36.551 L88.547,32.845 L88.547,29.139 L95.959,29.139 L95.959,22.002 L99.667,22.002 L99.667,29.139 L103.374,29.139 Z" id="Fill-274" fill="url(#linearGradient-1)"></path>
                    <path d="M200.3657,127.8965 L205.1627,122.0965 L201.9497,121.7655 L197.9887,127.7295 L200.3657,127.8965 Z M205.6197,136.3205 L205.4537,132.9805 L194.7367,132.9805 L194.7367,142.4065 L207.0807,142.3665 L207.0807,144.9945 L194.7367,144.9945 L194.7367,154.6675 L206.5787,154.6675 L206.9147,150.9165 L209.5007,151.0805 L209.3327,157.3785 L188.0647,157.3785 L187.8967,154.8765 L191.2327,154.7505 L191.2327,132.7325 L187.8537,132.6055 L188.0217,130.2715 L205.3717,130.2715 L208.3737,130.1035 L208.3737,136.3205 L205.6197,136.3205 Z M146.1957,157.3785 L136.7697,132.7325 L133.5177,132.6055 L133.6837,130.2715 L143.0687,130.2715 L143.0687,132.6055 L140.3557,132.7325 L148.5707,154.7505 L156.7467,132.7725 L153.8697,132.6905 L154.0357,130.2715 L163.2527,130.2715 L163.2527,132.6055 L160.1647,132.7325 L150.7817,157.3785 L146.1957,157.3785 Z M98.8637,157.3785 L98.6957,154.8765 L102.0337,154.7505 L102.0337,132.7325 L98.6547,132.6055 L98.8227,130.2715 L108.7897,130.2715 L108.7897,132.7725 L105.5357,132.8995 L105.5357,154.9175 L108.8717,155.0435 L108.7077,157.3785 L98.8637,157.3785 Z M55.3677,132.8135 L55.3677,145.0765 L59.9147,145.0765 C63.2507,145.0765 66.0437,142.6155 66.0437,138.4455 C66.0437,134.5265 63.5437,132.8135 58.9147,132.8135 L55.3677,132.8135 Z M67.8367,157.3785 L66.4617,156.0005 L60.4577,147.7035 L55.3677,147.7035 L55.3677,155.0855 L58.4147,155.2115 L58.2467,157.3785 L48.9457,157.3785 L48.7797,154.8765 L52.1137,154.6275 L52.1137,132.7325 L48.7367,132.6055 L48.9047,130.2715 L59.4967,130.2715 C65.8777,130.2715 69.6317,132.8135 69.6317,138.2785 C69.6317,142.5745 67.0867,145.6195 63.8757,146.9525 L69.7997,154.8355 L73.9677,154.8765 L73.8027,157.3785 L67.8367,157.3785 Z M7.4557,132.8135 L7.4557,145.4515 L10.9577,145.4515 C14.7097,145.4515 18.0887,143.6575 18.0887,138.6545 C18.0887,134.3995 15.2507,132.8135 10.9987,132.8135 L7.4557,132.8135 Z M1.0317,157.3785 L0.8637,154.8765 L4.2017,154.7505 L4.2017,132.7325 L0.8227,132.6055 L0.9907,130.2715 L11.5827,130.2715 C17.9207,130.2715 21.7157,132.6905 21.7157,138.4455 C21.7157,145.2025 16.4617,147.9125 11.6237,147.9125 L7.4557,147.9125 L7.4557,155.0855 L11.3737,155.2115 L11.2467,157.3785 L1.0317,157.3785 Z" id="Fill-327" fill="#203954"></path>
                </g>
            </g>
        </g>
    </g>
</svg>