<?xml version="1.0" encoding="UTF-8"?>
<svg width="663px" height="131px" viewBox="0 0 663 131" version="1.1" xmlns="http://www.w3.org/2000/svg" xmlns:xlink="http://www.w3.org/1999/xlink">
    <!-- Generator: Sketch 50.2 (55047) - http://www.bohemiancoding.com/sketch -->
    <title>Group</title>
    <desc>Created with Sketch.</desc>
    <defs></defs>
    <g id="Page-1" stroke="none" stroke-width="1" fill="none" fill-rule="evenodd">
        <g id="SYNSWAP-LOGO-VECTOR-2018">
            <g id="Group">
                <path d="M207.598,42.117 C204.566,42.117 202.223,42.805 200.559,44.18 C198.891,45.551 198.059,47.262 198.059,49.309 C198.059,51.246 198.816,52.914 200.328,54.316 C201.844,55.719 203.75,57.023 206.051,58.234 C208.352,59.445 210.836,60.672 213.5,61.91 C216.164,63.148 218.645,64.562 220.949,66.148 C223.246,67.738 225.156,69.621 226.668,71.805 C228.184,73.988 228.941,76.613 228.941,79.68 C228.941,82.051 228.41,84.219 227.352,86.184 C226.289,88.148 224.793,89.832 222.855,91.234 C220.918,92.637 218.555,93.723 215.77,94.504 C212.984,95.285 209.867,95.676 206.414,95.676 C203.812,95.676 200.785,95.367 197.332,94.754 C193.883,94.145 190.277,93.062 186.523,91.516 L189.523,84.914 C192.609,86.156 195.562,87.031 198.379,87.543 C201.191,88.059 203.723,88.312 205.961,88.312 C207.777,88.312 209.426,88.098 210.91,87.664 C212.395,87.234 213.668,86.625 214.727,85.844 C215.785,85.059 216.602,84.156 217.18,83.129 C217.754,82.102 218.043,80.992 218.043,79.805 C218.043,77.699 217.281,75.918 215.77,74.457 C214.258,73 212.363,71.664 210.094,70.449 C207.824,69.23 205.355,68.043 202.691,66.883 C200.027,65.723 197.559,64.371 195.289,62.832 C193.02,61.293 191.125,59.496 189.613,57.441 C188.098,55.391 187.344,52.875 187.344,49.906 C187.344,47.477 187.84,45.316 188.84,43.426 C189.84,41.535 191.215,39.953 192.973,38.684 C194.727,37.418 196.789,36.441 199.148,35.77 C201.512,35.094 204.055,34.754 206.777,34.754 C208.109,34.754 209.426,34.797 210.73,34.879 C212.031,34.961 213.379,35.098 214.77,35.285 C216.164,35.477 217.617,35.75 219.133,36.105 C220.645,36.457 222.277,36.883 224.035,37.371 L221.039,43.977 C218.312,43.277 215.859,42.793 213.68,42.52 C211.5,42.254 209.473,42.117 207.598,42.117" id="Fill-5" fill="#59595C"></path>
                <path d="M275.895,51.258 L285.523,35.805 L297.785,35.805 L278.531,64.125 C277.922,63.477 277.316,62.656 276.711,61.656 C276.105,60.656 275.625,59.578 275.258,58.418 C274.898,57.262 274.73,56.062 274.762,54.82 C274.789,53.578 275.168,52.391 275.895,51.258 Z M254.641,35.805 L275.805,67.277 L275.805,94.625 L264.816,94.625 L264.816,68.977 L242.109,35.805 L254.641,35.805 Z" id="Fill-6" fill="#59595C"></path>
                <path d="M358.816,94.625 C353.672,87.34 348.57,80.117 343.516,72.941 C338.457,65.77 333.355,58.539 328.211,51.258 L326.758,48.426 L326.938,51.18 L326.938,94.625 L317.312,94.625 L317.312,35.809 L328.391,35.809 L356.094,75.207 C356.395,75.641 356.684,76.043 356.957,76.418 C357.23,76.797 357.516,77.203 357.82,77.633 L359,80.707 L358.816,77.633 L358.816,35.809 L368.809,35.809 L368.809,94.625 L358.816,94.625 Z" id="Fill-7" fill="#59595C"></path>
                <path d="M411.945,42.117 C408.918,42.117 406.57,42.805 404.906,44.18 C403.238,45.551 402.41,47.262 402.41,49.309 C402.41,51.246 403.164,52.914 404.676,54.316 C406.191,55.719 408.098,57.023 410.402,58.234 C412.699,59.445 415.184,60.672 417.848,61.91 C420.512,63.148 422.992,64.562 425.297,66.148 C427.594,67.738 429.504,69.621 431.02,71.805 C432.531,73.988 433.289,76.613 433.289,79.68 C433.289,82.051 432.758,84.219 431.699,86.184 C430.637,88.148 429.141,89.832 427.203,91.234 C425.266,92.637 422.902,93.723 420.121,94.504 C417.332,95.285 414.215,95.676 410.762,95.676 C408.16,95.676 405.133,95.367 401.68,94.754 C398.23,94.145 394.625,93.062 390.875,91.516 L393.871,84.914 C396.961,86.156 399.91,87.031 402.727,87.543 C405.543,88.059 408.066,88.312 410.309,88.312 C412.125,88.312 413.773,88.098 415.258,87.664 C416.742,87.234 418.016,86.625 419.074,85.844 C420.133,85.059 420.949,84.156 421.527,83.129 C422.102,82.102 422.391,80.992 422.391,79.805 C422.391,77.699 421.633,75.918 420.121,74.457 C418.605,73 416.715,71.664 414.441,70.449 C412.172,69.23 409.703,68.043 407.039,66.883 C404.375,65.723 401.91,64.371 399.637,62.832 C397.367,61.293 395.473,59.496 393.961,57.441 C392.449,55.391 391.691,52.875 391.691,49.906 C391.691,47.477 392.191,45.316 393.188,43.426 C394.188,41.535 395.562,39.953 397.32,38.684 C399.078,37.418 401.137,36.441 403.496,35.77 C405.859,35.094 408.402,34.754 411.125,34.754 C412.457,34.754 413.773,34.797 415.078,34.879 C416.379,34.961 417.727,35.098 419.121,35.285 C420.512,35.477 421.965,35.75 423.48,36.105 C424.992,36.457 426.629,36.883 428.383,37.371 L425.387,43.977 C422.664,43.277 420.211,42.793 418.031,42.52 C415.848,42.254 413.82,42.117 411.945,42.117" id="Fill-8" fill="#59595C"></path>
                <polygon id="Fill-9" fill="#59595C" points="486.141 36.617 498.582 36.617 510.934 80.707 511.844 84.996 512.66 80.871 525.285 35.809 536.184 35.809 517.93 94.625 506.121 94.625 492.953 50.367 492.227 47.051 491.5 50.289 478.422 94.625 466.25 94.625 447.902 35.809 459.074 35.809 471.789 80.707 472.516 84.996 473.516 80.707"></polygon>
                <path d="M566.363,35.809 L577.539,35.809 L601.242,94.625 L589.344,94.625 L572.27,49.48 L571.543,46.73 L570.816,49.559 L562.188,72.457 L561.098,74.074 L562.367,73.91 L571.27,73.91 C572.48,73.91 573.555,74.141 574.496,74.602 C575.43,75.059 576.234,75.641 576.902,76.34 C577.566,77.043 578.141,77.836 578.625,78.727 C579.109,79.617 579.504,80.465 579.805,81.273 L558.918,81.273 L553.922,94.625 L542.66,94.625 L566.363,35.809 Z" id="Fill-10" fill="#59595C"></path>
                <path d="M662.191,52.797 C662.191,55.441 661.602,57.812 660.422,59.918 C659.242,62.02 657.664,63.84 655.699,65.379 C653.73,66.914 651.488,68.129 648.977,69.02 C646.465,69.906 643.844,70.461 641.121,70.676 C639.727,70.785 638.273,70.797 636.762,70.715 C635.246,70.637 633.641,70.379 631.949,69.949 C632.312,69.25 632.734,68.52 633.219,67.766 C633.703,67.008 634.262,66.336 634.898,65.742 C635.535,65.148 636.262,64.648 637.082,64.246 C637.895,63.84 638.82,63.609 639.848,63.559 C641.18,63.504 642.5,63.191 643.801,62.629 C645.102,62.059 646.238,61.293 647.207,60.32 C648.176,59.352 648.961,58.219 649.566,56.922 C650.172,55.629 650.477,54.254 650.477,52.797 C650.477,51.289 650.145,49.883 649.477,48.59 C648.809,47.297 647.871,46.164 646.66,45.191 C645.449,44.223 644.027,43.453 642.391,42.887 C640.758,42.32 638.973,42.035 637.035,42.035 C635.34,42.035 633.898,42.078 632.719,42.156 C631.539,42.238 630.129,42.359 628.496,42.52 L628.496,94.625 L617.051,94.543 L617.051,36.453 C619.23,36.129 621.184,35.848 622.91,35.605 C624.637,35.363 626.27,35.172 627.816,35.039 C629.359,34.906 630.871,34.809 632.355,34.754 C633.84,34.703 635.398,34.672 637.035,34.672 C640.668,34.672 644.027,35.117 647.117,35.996 C650.203,36.875 652.867,38.102 655.105,39.676 C657.348,41.25 659.09,43.156 660.332,45.395 C661.57,47.633 662.191,50.102 662.191,52.797" id="Fill-11" fill="#59595C"></path>
                <path d="M109.758,17.926 C122.262,29.801 130.078,46.566 130.078,65.176 C130.078,79.457 125.465,92.656 117.672,103.395 C117.465,101.008 117.062,98.691 116.434,96.457 C115.738,91.68 114.117,87.23 111.539,83.121 C108.012,77.668 103.605,73.473 98.32,70.531 C93.367,67.844 84.676,64.363 72.254,60.082 C58.91,55.465 49.973,51.477 45.438,48.121 C41.074,45.016 38.891,40.777 38.891,35.402 C38.891,30.367 41.66,26.043 47.199,22.434 C49.406,20.977 51.871,19.828 54.57,18.957 C58.188,18.043 62.184,17.578 66.566,17.578 C77.785,17.578 87.32,20.004 95.184,24.863 C100.82,28.332 104.457,33.133 106.184,39.211 C106.75,41.203 107.102,43.332 107.25,45.602 C107.293,46.281 107.363,46.945 107.371,47.648 L110.152,47.648 C110.328,44.293 110.414,41.465 110.414,39.168 C110.414,35.727 110.285,31.75 110.023,27.246 C109.848,23.633 109.762,20.531 109.758,17.926 Z M109.727,107.715 C109.766,108.449 109.793,109.188 109.793,109.941 C109.793,110.902 109.762,111.832 109.711,112.734 C106.953,115.316 103.969,117.652 100.797,119.73 C101.031,118.172 101.18,116.57 101.18,114.891 C101.18,113.488 101.086,112.164 100.949,110.883 C100.234,104.156 97.68,99.031 93.234,95.547 C87.934,91.484 76.586,86.582 59.184,80.844 C47.613,77.047 39.27,73.465 34.145,70.109 C29.113,66.844 24.875,62.43 21.43,56.863 C18.164,51.387 16.527,45.117 16.527,38.051 C16.527,34.027 16.973,30.5 17.836,27.441 C18.586,24.793 19.641,22.492 21.031,20.566 C12.906,26.836 8.844,35.488 8.844,46.531 C8.844,53.773 10.695,60.352 14.406,66.27 C18.117,72.008 22.754,76.426 28.316,79.52 C33.527,82.344 42.426,86.801 55.738,90.512 C91.879,100.594 95.781,116.195 97.441,121.793 C87.93,127.234 76.918,130.352 65.176,130.352 C29.18,130.352 0,101.168 0,65.176 C0,29.18 29.18,0 65.176,0 C71.066,0 76.77,0.801 82.199,2.27 C87.855,3.875 93.207,6.188 98.164,9.105 C88.918,7.34 80.781,6.445 73.781,6.445 C73.59,6.445 73.406,6.457 73.215,6.457 C72.988,6.457 72.754,6.445 72.531,6.445 C57.605,6.445 46.082,9.23 37.957,14.793 C29.828,20.535 25.77,28.438 25.77,38.508 C25.77,47.25 28.418,53.699 33.719,57.848 C39.016,61.91 50.363,66.812 67.762,72.555 C79.332,76.352 87.68,79.93 92.801,83.285 C97.836,86.551 102.074,90.969 105.52,96.531 C107.559,99.949 108.961,103.68 109.727,107.715 Z" id="Combined-Shape" fill="#49C3CF"></path>
            </g>
        </g>
    </g>
</svg>