<?xml version="1.0" encoding="UTF-8"?>
<svg width="1267px" height="347px" viewBox="0 0 1267 347" version="1.1" xmlns="http://www.w3.org/2000/svg" xmlns:xlink="http://www.w3.org/1999/xlink">
    <!-- Generator: Sketch 50.2 (55047) - http://www.bohemiancoding.com/sketch -->
    <title>Asset 1</title>
    <desc>Created with Sketch.</desc>
    <defs></defs>
    <g id="Page-1" stroke="none" stroke-width="1" fill="none" fill-rule="evenodd">
        <g id="Asset-1" transform="translate(-1.000000, 0.000000)" fill-rule="nonzero">
            <path d="M520.4,0 C518.27,0 499.56,0.35 499.56,12.31 C499.56,24.27 518.27,24.61 520.4,24.61 C522.53,24.61 541.25,24.27 541.25,12.31 C541.25,0.35 522.53,0 520.4,0 M520.4,17 C512.04,17 506.53,14.2 505.22,12.33 C506.53,10.45 512.04,7.66 520.4,7.66 C528.76,7.66 534.28,10.46 535.59,12.33 C534.28,14.18 528.76,17 520.4,17" id="Shape" fill="#000000"></path>
            <path d="M118.65,130.12 C119.477146,131.012905 119.903435,132.205069 119.83,133.42 C119.83,134.993333 118.653333,136.993333 116.3,139.42 C113.483797,142.206483 110.321238,144.619573 106.89,146.6 C102.621569,149.105531 98.0825098,151.118418 93.36,152.6 C91.3904688,153.193908 89.3868081,153.668107 87.36,154.02 L87.36,62.12 C88.46,62.33 89.62,62.44 90.69,62.71 C95.5901749,63.8527505 100.379032,65.4289573 105,67.42 C108.454827,68.8529425 111.698054,70.7504322 114.64,73.06 C117,75.06 118.17,76.63 118.17,77.88 C118.229303,79.0372129 117.805587,80.167121 117,81 L120,82.4 L134.6,57.22 L131.77,55.35 C131.3,55.97 130.91,56.49 130.59,56.87 C130.27,57.25 129.5,57.46 128.24,57.46 C127.14,57.46 125.14,56.8 122.24,55.46 C119.34,54.12 115.61,52.68 111.06,51.11 C105.816,49.3494211 100.473551,47.8969428 95.06,46.76 C92.63,46.23 89.96,45.89 87.26,45.57 L87.26,25.18 L75.17,25.18 L75.17,44.75 C74.82,44.75 74.53,44.75 74.17,44.75 C71,44.75 67.94,44.91 64.95,45.17 L64.95,25.17 L52.81,25.17 L52.81,47.05 C49.7256357,47.7269246 46.6864204,48.5952719 43.71,49.65 C35.2651918,52.6105619 27.4453134,57.1173349 20.65,62.94 C14.4955018,68.2394925 9.52455262,74.7742976 6.06,82.12 C2.69377339,89.2757976 0.965179601,97.0920478 1,105 C0.903203596,114.107396 2.74745768,123.130946 6.41,131.47 C9.94168924,139.439517 15.1142154,146.574741 21.59,152.41 C28.3984821,158.444333 36.3632929,163.030648 45,165.89 C47.53,166.76 50.14,167.48 52.81,168.11 L52.81,193.2 L65,193.2 L65,170.06 C68.3,170.38 71.67,170.59 75.16,170.59 L75.16,193.2 L87.32,193.2 L87.32,170 C91.7095404,169.610881 96.0583468,168.851512 100.32,167.73 C106.239033,166.19908 111.963064,163.99469 117.38,161.16 C121.035298,159.230105 124.500614,156.960071 127.73,154.38 C130.17,152.38 131.73,151.3 132.55,151.3 C133.920892,151.276629 135.22635,151.885105 136.09,152.95 L139.14,150.83 L121.73,128.24 L118.65,130.12 Z M37.94,141.69 C32.6861985,137.558832 28.3249386,132.404925 25.12,126.54 C21.88404,120.605093 20.2244912,113.939353 20.3,107.18 C20.3,99.0466667 21.8666667,92.0466667 25,86.18 C27.9458248,80.5452294 32.0812991,75.6181461 37.12,71.74 C41.843341,68.197518 47.1547944,65.5164019 52.81,63.82 L52.81,150.07 C47.4826835,147.992448 42.4763364,145.171117 37.94,141.69 Z M64.94,153.85 L64.94,61.28 C67.613045,60.9309197 70.3044312,60.740586 73,60.71 C73.74,60.71 74.42,60.81 75.16,60.83 L75.16,155 C71.748182,154.886888 68.3507833,154.50234 65,153.85 L64.94,153.85 Z" id="Shape" fill="#FFCC33"></path>
            <path d="M239.78,65 C234.319602,60.0471093 227.971247,56.1722713 221.07,53.58 C213.206081,50.6591216 204.867913,49.2247804 196.48,49.35 C188.09216,49.2257097 179.754162,50.6600217 171.89,53.58 C164.988753,56.1722713 158.640398,60.0471093 153.18,65 C148.068211,69.6895667 144.017743,75.4175009 141.3,81.8 C135.807069,95.0568659 135.807069,109.953134 141.3,123.21 C144.017625,129.589668 148.06821,135.314358 153.18,140 C158.59575,144.925944 164.963354,148.690011 171.89,151.06 C179.801355,153.768621 188.118426,155.101247 196.48,155 C204.838177,155.121541 213.155323,153.809197 221.07,151.12 C228.001648,148.73217 234.369629,144.947459 239.78,140 C244.899727,135.305649 248.951144,129.566142 251.66,123.17 C257.139773,109.910519 257.139773,95.0194808 251.66,81.76 C248.940835,75.3898827 244.890166,69.6753024 239.78,65 M237.19,118 C235.196843,122.790924 232.234872,127.118125 228.49,130.71 C224.505532,134.443331 219.827125,137.358416 214.72,139.29 C202.929619,143.530079 190.030381,143.530079 178.24,139.29 C173.131717,137.360758 168.452877,134.445402 164.47,130.71 C160.725128,127.118125 157.763157,122.790924 155.77,118 C153.703079,113.001637 152.66245,107.638653 152.71,102.23 C152.679941,96.9006703 153.720516,91.6195808 155.77,86.7 C157.765881,81.913479 160.727583,77.5900752 164.47,74 C168.440049,70.2721867 173.124298,67.3874782 178.24,65.52 C190.060053,61.4536716 202.899947,61.4536716 214.72,65.52 C219.834493,67.389974 224.518267,70.2743897 228.49,74 C232.232417,77.5900752 235.194119,81.913479 237.19,86.7 C239.230858,91.6218614 240.267819,96.9018626 240.24,102.23 C240.285836,107.637525 239.248798,112.999522 237.19,118" id="Shape" fill="#FFCC33"></path>
            <path d="M273.32,53.56 C275.83,53.56 277.44,54 278.15,54.86 C278.86,55.72 279.21,57.49 279.21,60.15 L279.21,144.86 C279.21,147.526667 278.856667,149.293333 278.15,150.16 C277.443333,151.026667 275.833333,151.456667 273.32,151.45 L273.32,154.28 L299.68,154.28 L299.68,151.45 C297.173333,151.45 295.566667,151.02 294.86,150.16 C294.153333,149.3 293.8,147.533333 293.8,144.86 L293.8,60.15 C293.8,57.49 294.15,55.72 294.86,54.86 C295.57,54 297.17,53.56 299.68,53.56 L299.68,50.74 L273.32,50.74 L273.32,53.56 Z" id="Shape" fill="#FFCC33"></path>
            <path d="M404.18,53.56 C406.69,53.56 408.38,54 409.24,54.86 C410.1,55.72 410.54,57.49 410.54,60.15 L410.54,132.86 L346.77,59.68 C345.04,57.49 344.18,56.15 344.18,55.68 C344.18,55.21 344.61,54.54 345.47,54.15 C347.107536,53.6509963 348.821586,53.4511366 350.53,53.56 L350.53,50.74 L316.17,50.74 L316.17,53.56 C318.68,53.56 320.37,54 321.24,54.86 C322.11,55.72 322.53,57.49 322.53,60.15 L322.53,144.86 C322.53,147.526667 322.1,149.293333 321.24,150.16 C320.38,151.026667 318.69,151.456667 316.17,151.45 L316.17,154.28 L342.06,154.28 L342.06,151.45 C339.553333,151.45 337.866667,151.02 337,150.16 C336.133333,149.3 335.703333,147.533333 335.71,144.86 L335.71,69.1 L402.3,145.1 C403.08,146.04 403.75,146.79 404.3,147.34 C404.841546,147.863061 405.14206,148.587193 405.13,149.34 C405.181355,150.030158 404.804233,150.681189 404.18,150.98 C403.55,151.3 401.67,151.45 398.54,151.45 L398.54,154.28 L430.06,154.28 L430.06,151.45 C427.56,151.45 425.87,151.02 425.01,150.16 C424.15,149.3 423.71,147.53 423.71,144.86 L423.71,60.15 C423.71,57.49 424.14,55.72 425.01,54.86 C425.88,54 427.56,53.56 430.06,53.56 L430.06,50.74 L404.18,50.74 L404.18,53.56 Z" id="Shape" fill="#FFCC33"></path>
            <path d="M508.09,37 C510.283333,37 511.773333,37.51 512.56,38.53 C513.396443,39.7354221 513.80806,41.1848766 513.73,42.65 L513.73,149.49 C513.806534,150.954952 513.395055,152.403922 512.56,153.61 C511.766667,154.63 510.276667,155.14 508.09,155.14 L508.09,158 L532.71,158 L532.71,155.18 C530.51,155.18 529.03,154.67 528.24,153.65 C527.397216,152.447164 526.981769,150.996622 527.06,149.53 L527.06,42.66 C526.98021,41.1932019 527.395799,39.7421598 528.24,38.54 C529.03,37.54 530.51,37.01 532.71,37.01 L532.71,34.18 L508.09,34.18 L508.09,37 Z" id="Shape" fill="#FFCC33"></path>
            <path d="M651.11,64.15 C646.464359,59.3125941 640.796163,55.5747963 634.52,53.21 C627.773333,50.5433333 619.773333,49.21 610.52,49.21 L553.57,49.21 L553.57,52 C556.08,52 557.69,52.44 558.4,53.3 C559.11,54.16 559.45,55.93 559.45,58.59 L559.45,143.31 C559.45,145.97 559.1,147.74 558.4,148.6 C557.7,149.46 556.08,149.89 553.57,149.89 L553.57,152.72 L610.52,152.72 C619.773333,152.72 627.773333,151.386667 634.52,148.72 C640.801138,146.360205 646.471066,142.617848 651.11,137.77 C655.47458,133.058965 658.730667,127.43171 660.64,121.3 C662.710504,114.733879 663.742941,107.8847 663.7,101 C663.76457,94.0580829 662.731836,87.1495623 660.64,80.53 C658.706356,74.4416319 655.452229,68.8553229 651.11,64.17 M645.93,115.94 C642.969387,125.463014 635.753394,133.070658 626.4,136.53 C621.3,138.57 615.063333,139.59 607.69,139.59 L574,139.59 L574,62.39 L607.65,62.39 C615.016667,62.39 621.253333,63.41 626.36,65.45 C635.719654,68.8907354 642.950347,76.4835166 645.93,86 C648.903373,95.7380887 648.903373,106.141911 645.93,115.88" id="Shape" fill="#FFCC33"></path>
            <path d="M777.67,63.45 C772.228959,58.4840684 765.893037,54.5983528 759,52 C743.091749,46.3601 725.728251,46.3601 709.82,52 C702.915663,54.5859296 696.566171,58.4614618 691.11,63.42 C685.978505,68.118394 681.916783,73.864827 679.2,80.27 C673.707069,93.5268659 673.707069,108.423134 679.2,121.68 C681.908856,128.076142 685.960273,133.815649 691.08,138.51 C696.494227,143.438006 702.862281,147.20234 709.79,149.57 C725.775177,154.743411 742.984823,154.743411 758.97,149.57 C765.894765,147.202403 772.25956,143.437984 777.67,138.51 C782.789727,133.815649 786.841144,128.076142 789.55,121.68 C795.042931,108.423134 795.042931,93.5268659 789.55,80.27 C786.838264,73.8783579 782.787151,68.1426926 777.67,63.45 M775.09,116.51 C773.0955,121.299753 770.129774,125.624061 766.38,129.21 C762.401855,132.953997 757.721902,135.873446 752.61,137.8 C740.823073,142.04019 727.926927,142.04019 716.14,137.8 C711.028098,135.873446 706.348145,132.953997 702.37,129.21 C698.620041,125.626328 695.657186,121.301241 693.67,116.51 C691.598338,111.513063 690.557519,106.149104 690.61,100.74 C690.575025,95.4102057 691.615791,90.1281456 693.67,85.21 C695.662066,80.4214065 698.624272,76.0972662 702.37,72.51 C706.335826,68.769429 711.020696,65.8741323 716.14,64 C727.956111,59.930592 740.793889,59.930592 752.61,64 C757.726795,65.8652207 762.411475,68.7501947 766.38,72.48 C770.12558,76.0695023 773.090665,80.3928761 775.09,85.18 C777.119192,90.1037458 778.139344,95.3847342 778.09,100.71 C778.156573,106.114563 777.136377,111.477394 775.09,116.48" id="Shape" fill="#FFCC33"></path>
            <path d="M908.92,132.51 C908.92,135.176667 908.526667,137.02 907.74,138.04 C906.953333,139.06 905.373333,139.57 903,139.57 L829.15,139.57 L829.15,58.62 C829.15,55.96 829.51,54.19 830.21,53.33 C830.91,52.47 832.52,52 835,52 L835,49.21 L808.68,49.21 L808.68,52 C811.19,52 812.79,52.44 813.5,53.3 C814.21,54.16 814.56,55.93 814.56,58.59 L814.56,143.3 C814.56,145.966667 814.206667,147.733333 813.5,148.6 C812.79,149.46 811.19,149.89 808.68,149.89 L808.68,152.72 L903,152.72 C905.36,152.72 906.93,153.03 907.71,153.66 C908.49,154.29 908.89,155.46 908.89,157.19 L911.71,157.19 L911.71,132.51 L908.92,132.51 Z" id="Shape" fill="#FFCC33"></path>
            <path d="M937.77,133.47 C941.100357,133.397326 944.319478,134.669834 946.7,137 C949.07044,139.205185 950.393481,142.312877 950.34,145.55 C950.366242,148.75558 949.015192,151.818204 946.63,153.96 C941.651681,158.672491 933.858319,158.672491 928.88,153.96 C926.507351,151.766431 925.174027,148.671085 925.21,145.44 C925.171942,142.255227 926.496454,139.205938 928.85,137.06 C931.239092,134.742336 934.441478,133.453483 937.77,133.47 Z" id="Shape" fill="#000000"></path>
            <path d="M1036,125.57 L1047.43,145.47 L1045.87,146.84 C1045.18042,146.122182 1044.28034,145.642374 1043.3,145.47 C1042.53333,145.47 1040.75333,146.47 1037.96,148.47 C1032.91983,152.15631 1027.41576,155.162198 1021.59,157.41 C1016.31387,159.162626 1010.77875,160.00794 1005.22,159.91 C992.86,159.91 982.78,156.393333 974.98,149.36 C970.415619,145.126706 966.817251,139.959382 964.43,134.21 C961.589355,127.454015 960.160084,120.188554 960.23,112.86 C960.23,102.28 962.8,92.9466667 967.94,84.86 C976.013333,72.1933333 988.393333,65.86 1005.08,65.86 C1010.67026,65.7685166 1016.23662,66.6100623 1021.55,68.35 C1027.39903,70.5786702 1032.91922,73.5893755 1037.96,77.3 C1040.75,79.3 1042.53,80.3 1043.3,80.3 C1044.28034,80.1276256 1045.18042,79.6478178 1045.87,78.93 L1047.43,80.38 L1036,100 L1034.51,98.72 C1034.52511,98.3174442 1034.56855,97.9164522 1034.64,97.52 C1034.69,97.04 1034.71,96.69 1034.71,96.52 C1034.71,93.9 1031.66667,90.9333333 1025.58,87.62 C1020.25838,84.579483 1014.2486,82.9479624 1008.12,82.88 C999.92,82.88 993.156667,85.4533333 987.83,90.6 C981.743333,96.38 978.7,103.796667 978.7,112.85 C978.7,121.903333 981.743333,129.35 987.83,135.19 C993.203333,140.276667 999.966667,142.82 1008.12,142.82 C1014.90718,142.706092 1021.53223,140.727228 1027.27,137.1 C1032.23,134.093333 1034.71,131.463333 1034.71,129.21 C1034.71,129.1 1034.64,128.35 1034.51,126.95 L1036,125.57 Z" id="Shape" fill="#FFCC33"></path>
            <path d="M1103.48,65.8 C1116.52,65.8 1127.38667,69.4666667 1136.08,76.8 C1146.48,85.6133333 1151.68,97.8866667 1151.68,113.62 C1151.68,128.393333 1146.48,140.18 1136.08,148.98 C1127.48,156.313333 1116.66,159.98 1103.62,159.98 C1090.58,159.98 1079.76333,156.313333 1071.17,148.98 C1060.71667,140.18 1055.49,128.15 1055.49,112.89 C1055.49,97.4833333 1060.71667,85.4533333 1071.17,76.8 C1079.82333,69.6 1090.59333,65.9333333 1103.48,65.8 Z M1103.55,82.87 C1095.10333,82.87 1088.21333,85.8533333 1082.88,91.82 C1077.94,97.4 1075.47333,104.4 1075.48,112.82 C1075.48667,121.24 1077.95333,128.223333 1082.88,133.77 C1088.21333,139.77 1095.12667,142.77 1103.62,142.77 C1112.11333,142.77 1119.00333,139.77 1124.29,133.77 C1129.23,128.236667 1131.7,121.39 1131.7,113.23 C1131.7,104.356667 1129.23,97.2133333 1124.29,91.8 C1118.92333,85.9333333 1112.01,82.9566667 1103.55,82.87 Z" id="Shape" fill="#FFCC33"></path>
            <path d="M1211.18,158 L1181.28,98.64 L1181.28,149.7 C1181.18214,151.051985 1181.53369,152.398425 1182.28,153.53 C1183.2623,154.603044 1184.53299,155.370317 1185.94,155.74 L1185.94,158 L1158.7,158 L1158.7,155.7 C1160.10002,155.403285 1161.37049,154.671802 1162.33,153.61 C1163.09771,152.470938 1163.47012,151.111285 1163.39,149.74 L1163.39,76 C1163.48938,74.6478763 1163.1377,73.3009539 1162.39,72.17 C1161.41917,71.0991558 1160.14065,70.3550994 1158.73,70.04 L1158.73,67.73 L1193.37,67.73 L1193.37,70 C1191.28413,70.5269377 1189.85032,72.4400767 1189.93,74.59 C1189.93,76.79 1190.76,79.4566667 1192.42,82.59 L1212.87,123.41 L1233.46,83.16 C1235.80667,78.92 1236.98,75.92 1236.98,74.16 C1236.98,71.96 1235.78333,70.5666667 1233.39,69.98 L1233.39,67.73 L1267.15,67.73 L1267.15,70 C1265.73935,70.3150994 1264.46083,71.0591558 1263.49,72.13 C1262.74235,73.257242 1262.39058,74.6010127 1262.49,75.95 L1262.49,149.68 C1262.39589,151.041068 1262.74687,152.395835 1263.49,153.54 C1264.45528,154.62558 1265.73439,155.383959 1267.15,155.71 L1267.15,158 L1238.15,158 L1238.15,155.7 C1239.54994,155.404484 1240.81852,154.668571 1241.77,153.6 C1242.54464,152.464131 1242.91771,151.102071 1242.83,149.73 L1242.83,98.6 L1211.18,158 Z" id="Shape" fill="#FFCC33"></path>
            <g id="Group" transform="translate(230.000000, 194.000000)" fill="#000000" stroke="#000000" stroke-width="3">
                <path d="M60.22,37.55 C68.94,40.4766667 73.3033333,46.5266667 73.31,55.7 C73.3832216,59.874444 72.1527654,63.9678083 69.79,67.41 C67.5189159,70.7126247 64.238199,73.1898292 60.44,74.47 C56.52,75.85 50.93,76.5366667 43.67,76.53 L-5.68434189e-14,76.5300481 L0,74.77 C1.06765563,74.5889904 2.0490793,74.0702379 2.8,73.29 C3.37056451,72.3072877 3.62213189,71.1717404 3.52,70.04 L3.52,8 C3.61910639,6.86207918 3.36787345,5.72106288 2.8,4.73 C2.05998679,3.93890539 1.07227335,3.42388338 -5.68434189e-14,3.27 L-5.68434189e-14,1.51 L44.76,1.51 C48.4250713,1.4359571 52.0863224,1.78832315 55.67,2.56 C58.413439,3.19012068 61.0016737,4.36690017 63.28,6.02 C68.34,9.64666667 70.87,14.8533333 70.87,21.64 C70.8433333,28.84 67.2933333,34.1433333 60.22,37.55 Z M12.11,33.87 L41,33.87 C44.0749678,33.918901 47.1501741,33.7886805 50.21,33.48 C52.1447851,33.2538648 54.041202,32.7730357 55.85,32.05 C57.884492,31.2434648 59.6154422,29.820239 60.8,27.98 C61.9905247,26.0720911 62.5986943,23.8583537 62.55,21.61 C62.6191275,18.5576193 61.496409,15.5983772 59.42,13.36 C57.6376142,11.5104395 55.3543218,10.2210917 52.85,9.65 C48.7677874,8.84878296 44.6078508,8.51330421 40.45,8.65 L12.11,8.65 L12.11,33.87 Z M12.11,69.39 L42.24,69.39 C45.4522074,69.4445052 48.6647652,69.304248 51.86,68.97 C53.8729715,68.722374 55.8378506,68.176387 57.69,67.35 C59.8379362,66.3756303 61.6329158,64.762244 62.83,62.73 C65.722732,57.5074168 65.1694684,51.0539928 61.43,46.4 C59.6301376,44.3101476 57.2321272,42.8231718 54.56,42.14 C51.7733333,41.38 47.4833333,41 41.69,41 L12.11,41 L12.11,69.39 Z" id="Shape"></path>
                <path d="M99.75,69.39 L147.7,69.39 C148.837921,69.4891064 149.978937,69.2378734 150.97,68.67 C151.761095,67.9299868 152.276117,66.9422733 152.43,65.87 L154.18,65.87 L154.18,80.05 L152.43,80.05 C152.276117,78.9777267 151.761095,77.9900132 150.97,77.25 C149.978937,76.6821266 148.837921,76.4308936 147.7,76.53 L87.6,76.53 L87.6,74.77 C88.679758,74.5992979 89.6738198,74.0794352 90.43,73.29 C90.9787815,72.2996515 91.219063,71.1678909 91.12,70.04 L91.12,8 C91.2197806,6.87283442 90.972006,5.74214443 90.41,4.76 C89.6544228,3.97873458 88.6706408,3.45708509 87.6,3.27 L87.6,1.51 L103.27,1.51 L103.27,3.27 C102.201101,3.45375043 101.219527,3.97608782 100.47,4.76 C99.8989802,5.73887614 99.6473061,6.87140972 99.75,8 L99.75,69.39 Z" id="Shape"></path>
                <path d="M203.5,0.16 C216.74,0.16 227.406667,3.62333333 235.5,10.55 C240.018174,14.3529015 243.531409,19.2089276 245.73,24.69 C247.621362,29.3895102 248.57265,34.4143481 248.53,39.48 C248.532046,46.6237946 246.408635,53.6066818 242.43,59.54 C238.004317,66.4033577 231.459655,71.634874 223.79,74.44 C217.329914,76.8066353 210.489026,77.9626029 203.61,77.85 C190.45,77.85 179.84,74.3866667 171.78,67.46 C157.578189,55.1443765 154.594636,34.2595055 164.78,18.46 C169.245108,11.6235816 175.801293,6.41441367 183.47,3.61 C189.893103,1.29585943 196.672813,0.128111184 203.5,0.16 Z M203.5,7.7 C192.253333,7.7 183.346667,10.85 176.78,17.15 C170.78,22.9366667 167.78,30.2133333 167.78,38.98 C167.78,47.7466667 170.78,55.04 176.78,60.86 C183.313333,67.1733333 192.256667,70.3266667 203.61,70.32 C214.963333,70.3133333 223.943333,67.16 230.55,60.86 C236.44458,55.3059958 239.714092,47.5172901 239.55,39.42 C239.55,30.22 236.55,22.7966667 230.55,17.15 C227.26559,13.9694589 223.322702,11.5491059 219,10.06 C213.993256,8.4474979 208.759773,7.65065797 203.5,7.7 Z" id="Shape"></path>
                <path d="M342.28,8 L334.14,21.58 L332.66,20.7 C332.940501,19.8664419 333.10537,18.9983554 333.15,18.12 C333.15,16.61 330.8,14.73 326.15,12.45 C319.560823,9.25630472 312.32203,7.63057084 305,7.7 C294.74,7.7 286.406667,10.5366667 280,16.21 C273.506667,21.9966667 270.263333,29.4866667 270.27,38.68 C270.081244,47.4053943 273.7867,55.7619123 280.38,61.48 C286.913333,67.3733333 294.96,70.32 304.52,70.32 C313.449388,70.4578146 322.164805,67.5832068 329.26,62.16 C332.493333,59.7 334.106667,57.9566667 334.1,56.93 C333.967348,56.0316688 333.650746,55.1703755 333.17,54.4 L334.49,53.4 L344.27,65.27 L342.9,66.38 C342.23847,65.6452549 341.345901,65.1583993 340.37,65 C339.582934,65.1948471 338.861704,65.5951475 338.28,66.16 C335.598764,68.2245889 332.797154,70.1279467 329.89,71.86 C327.576767,73.1733833 325.13796,74.2520863 322.61,75.08 C316.807573,77.0093188 310.724382,77.9589725 304.61,77.89 C291.943333,77.89 281.66,74.3733333 273.76,67.34 C265.44,59.9666667 261.28,50.5633333 261.28,39.13 C261.096537,30.655048 263.85655,22.3785432 269.09,15.71 C277.216667,5.37 289.403333,0.2 305.65,0.2 C316.608773,0.256906843 327.359297,3.19890145 336.82,8.73 C337.238469,9.00400857 337.707775,9.19105092 338.2,9.28 C338.67,9.28 339.54,8.58 340.78,7.19 L342.28,8 Z" id="Shape"></path>
                <path d="M368.72,47.72 L368.72,70 C368.624153,71.1217691 368.875508,72.2458842 369.44,73.22 C370.184053,74.0147416 371.167165,74.5449203 372.24,74.73 L372.24,76.49 L356.57,76.49 L356.57,74.73 C357.640315,74.5483199 358.624729,74.029838 359.38,73.25 C359.941601,72.2640524 360.189277,71.1303238 360.09,70 L360.09,8 C360.186432,6.86347481 359.939067,5.72419965 359.38,4.73 C358.635454,3.93948068 357.644853,3.42479102 356.57,3.27 L356.57,1.51 L372.24,1.51 L372.24,3.27 C371.171101,3.45375043 370.189527,3.97608782 369.44,4.76 C368.86898,5.73887614 368.617306,6.87140972 368.72,8 L368.72,39.2 L409.23,7.51 C410.65,6.41 411.37,5.51 411.37,4.81 C411.37,4.11 410.67,3.49 409.28,3.27 L409.28,1.51 L429.1,1.51 L429.1,3.27 C426.713227,3.49227372 424.450137,4.43377524 422.61,5.97 L392.11,29.62 L425.69,72.11 C426.282122,72.9513701 427.049789,73.6542122 427.94,74.17 C428.951776,74.5870103 430.035657,74.8010683 431.13,74.8 L431.13,76.56 L412.82,76.56 L412.82,74.8 C414.4,74.44 415.18,73.91 415.18,73.21 C415.18,72.77 414.38,71.5 412.77,69.42 L385.59,34.67 L368.72,47.72 Z" id="Shape"></path>
                <path d="M514.37,8 L506.23,21.58 L504.75,20.7 C505.030501,19.8664419 505.19537,18.9983554 505.24,18.12 C505.24,16.61 502.9,14.73 498.24,12.45 C491.657318,9.27152257 484.429513,7.6562176 477.12,7.73 C466.86,7.73 458.526667,10.5666667 452.12,16.24 C445.626667,22.0266667 442.383333,29.5166667 442.39,38.71 C442.200932,47.4375801 445.910681,55.7955111 452.51,61.51 C459.03,67.4033333 467.073333,70.35 476.64,70.35 C485.572442,70.4877256 494.290993,67.6132456 501.39,62.19 C504.61,59.73 506.22,57.9866667 506.22,56.96 C506.087348,56.0616688 505.770746,55.2003755 505.29,54.43 L506.61,53.43 L516.4,65.3 L515,66.34 C514.341237,65.6246868 513.4604,65.152558 512.5,65 C511.713636,65.1966273 510.992843,65.5966843 510.41,66.16 C507.731915,68.2241434 504.93366,70.127491 502.03,71.86 C499.712357,73.1715579 497.27042,74.2501638 494.74,75.08 C488.937573,77.0093188 482.854382,77.9589725 476.74,77.89 C464.073333,77.89 453.79,74.3733333 445.89,67.34 C437.57,59.9666667 433.41,50.5633333 433.41,39.13 C433.231509,30.6558008 435.990979,22.3809256 441.22,15.71 C449.36,5.37 461.546667,0.2 477.78,0.2 C488.741911,0.257034066 499.495629,3.19895875 508.96,8.73 C509.375958,9.00182767 509.84155,9.18874405 510.33,9.28 C510.81,9.28 511.67,8.58 512.92,7.19 L514.37,8 Z" id="Shape"></path>
                <path d="M592.23,41.51 L540.82,41.51 L540.82,70 C540.720937,71.1278909 540.961218,72.2596515 541.51,73.25 C542.26618,74.0394352 543.260242,74.5592979 544.34,74.73 L544.34,76.49 L528.67,76.49 L528.67,74.73 C529.749758,74.5592979 530.74382,74.0394352 531.5,73.25 C532.048782,72.2596515 532.289063,71.1278909 532.19,70 L532.19,8 C532.289106,6.86207918 532.037873,5.72106288 531.47,4.73 C530.728043,3.94146845 529.741285,3.4269448 528.67,3.27 L528.67,1.51 L544.34,1.51 L544.34,3.27 C543.26845,3.45442619 542.283887,3.97648974 541.53,4.76 C540.967994,5.74214443 540.720219,6.87283442 540.82,8 L540.82,34.39 L592.23,34.39 L592.23,8 C592.329106,6.86207918 592.077873,5.72106288 591.51,4.73 C590.768043,3.94146845 589.781285,3.4269448 588.71,3.27 L588.71,1.51 L604.38,1.51 L604.38,3.27 C603.30845,3.45442619 602.323887,3.97648974 601.57,4.76 C601.007994,5.74214443 600.760219,6.87283442 600.86,8 L600.86,70 C600.766264,71.1203913 601.013778,72.2429224 601.57,73.22 C602.316671,74.0166451 603.303587,74.5469809 604.38,74.73 L604.38,76.49 L588.71,76.49 L588.71,74.73 C589.776744,74.5463088 590.757377,74.0279741 591.51,73.25 C592.080565,72.2672877 592.332132,71.1317404 592.23,70 L592.23,41.51 Z" id="Shape"></path>
                <path d="M674.12,55.47 L634,55.47 L627.4,69.72 C626.914226,70.6041783 626.59557,71.5703156 626.46,72.57 C626.46,73.67 627.55,74.41 629.72,74.77 L629.72,76.53 L613,76.53 L613,74.77 C614.299489,74.6221426 615.5113,74.0408961 616.44,73.12 C617.720801,71.4394804 618.767059,69.5925498 619.55,67.63 L647,8.3 C647.497909,7.39459642 647.836185,6.41021254 648,5.39 C648,4.39 647.1,3.72 645.3,3.24 L645.3,1.48 L663.56,1.48 L663.56,3.24 C661.76,3.82666667 660.86,4.59666667 660.86,5.55 C661.048529,6.51302764 661.385906,7.44081447 661.86,8.3 L688.2,65.48 C690.14,69.7 691.423333,72.1733333 692.05,72.9 C692.67,73.64 694.05,74.26 696.12,74.77 L696.12,76.53 L678.27,76.53 L678.27,74.77 C680.41,74.48 681.47,73.67 681.47,72.35 C681.270312,71.1541826 680.860668,70.0031156 680.26,68.95 L674.12,55.47 Z M671,48.33 L654.1,11.24 L637.22,48.33 L671,48.33 Z" id="Shape"></path>
                <path d="M707.41,70 L707.41,8 C707.511488,6.86315341 707.263801,5.72239543 706.7,4.73 C705.955454,3.93948068 704.964853,3.42479102 703.89,3.27 L703.89,1.51 L719.56,1.51 L719.56,3.27 C718.492022,3.45643832 717.511242,3.97835369 716.76,4.76 C716.193079,5.7402445 715.944961,6.87250497 716.05,8 L716.05,70 C715.948508,71.126846 716.185257,72.2583661 716.73,73.25 C717.48618,74.0394352 718.480242,74.5592979 719.56,74.73 L719.56,76.49 L703.89,76.49 L703.89,74.73 C704.973326,74.5613785 705.971199,74.0413601 706.73,73.25 C707.270208,72.2566943 707.506667,71.1265597 707.41,70 Z" id="Shape"></path>
                <path d="M747.5,11 L747.5,70 C747.401784,71.1206864 747.64959,72.2445385 748.21,73.22 C748.954053,74.0147416 749.937165,74.5449203 751.01,74.73 L751.01,76.49 L736.11,76.49 L736.11,74.73 C737.193326,74.5613785 738.191199,74.0413601 738.95,73.25 C739.490208,72.2566943 739.726667,71.1265597 739.63,70 L739.63,8 C739.726432,6.86347481 739.479067,5.72419965 738.92,4.73 C738.175454,3.93948068 737.184853,3.42479102 736.11,3.27 L736.11,1.51 L757.68,1.51 L757.68,3.27 C755.95,3.86 755.09,4.68 755.09,5.75 C755.09,6.48 755.95,7.86 757.68,9.87 L802.92,62.76 L802.92,8 C803.019106,6.86207918 802.767873,5.72106288 802.2,4.73 C801.459987,3.93890539 800.472273,3.42388338 799.4,3.27 L799.4,1.51 L814.3,1.51 L814.3,3.27 C813.225147,3.42479102 812.234546,3.93948068 811.49,4.73 C810.930933,5.72419965 810.683568,6.86347481 810.78,8 L810.78,70 C810.680723,71.1303238 810.928399,72.2640524 811.49,73.25 C812.245271,74.029838 813.229685,74.5483199 814.3,74.73 L814.3,76.49 L797,76.49 L797,74.73 C798.69,74.29 799.53,73.54 799.53,72.48 C799.53,71.6666667 798.76,70.3333333 797.22,68.48 L747.5,11 Z" id="Shape"></path>
                <path d="M136.63,105.42 L136.63,144.42 C136.566964,145.16248 136.734591,145.906324 137.11,146.55 C137.603343,147.073267 138.251981,147.423883 138.96,147.55 L138.96,148.71 L129.12,148.71 L129.12,147.55 C129.836132,147.430763 130.4932,147.079389 130.99,146.55 C131.348704,145.897004 131.50533,145.152162 131.44,144.41 L131.44,103.41 C131.505818,102.659009 131.341913,101.905744 130.97,101.25 C130.485086,100.715871 129.832489,100.363116 129.12,100.25 L129.12,99.09 L143.36,99.09 L143.36,100.25 C142.22,100.64 141.65,101.18 141.65,101.88 C141.65,102.373333 142.22,103.283333 143.36,104.61 L173.22,139.53 L173.22,103.42 C173.285818,102.669009 173.121913,101.915744 172.75,101.26 C172.265086,100.725871 171.612489,100.373116 170.9,100.26 L170.9,99.1 L180.74,99.1 L180.74,100.26 C180.027511,100.373116 179.374914,100.725871 178.89,101.26 C178.514018,101.914416 178.346569,102.667937 178.41,103.42 L178.41,144.42 C178.341497,145.166028 178.509423,145.914701 178.89,146.56 C179.383343,147.083267 180.031981,147.433883 180.74,147.56 L180.74,148.72 L169.3,148.72 L169.3,147.56 C170.41,147.26 170.97,146.77 170.97,146.07 C170.722977,145.067538 170.19169,144.157752 169.44,143.45 L136.63,105.42 Z" id="Shape"></path>
                <path d="M199.65,125.56 L199.65,144 L231.41,144 C232.160869,144.063925 232.91358,143.900141 233.57,143.53 C234.102321,143.039558 234.454485,142.384532 234.57,141.67 L235.73,141.67 L235.73,151 L234.57,151 C234.452368,150.289048 234.10037,149.63785 233.57,149.15 C232.918522,148.776474 232.167913,148.612387 231.42,148.68 L191.63,148.68 L191.63,147.52 C192.345173,147.397955 193.001397,147.047033 193.5,146.52 C193.858704,145.867004 194.01533,145.122162 193.95,144.38 L193.95,103.38 C194.014245,102.635492 193.850311,101.889068 193.48,101.24 C192.98493,100.718985 192.33708,100.368796 191.63,100.24 L191.63,99.08 L230.94,99.08 C231.684508,99.1442454 232.430932,98.9803111 233.08,98.61 C233.605576,98.1184345 233.956634,97.4689761 234.08,96.76 L235.24,96.76 L235.24,106.12 L234.08,106.12 C233.962474,105.411867 233.610272,104.763814 233.08,104.28 C232.425584,103.904018 231.672063,103.736569 230.92,103.8 L199.65,103.8 L199.65,120.8 L220.16,120.8 C220.912063,120.863431 221.665584,120.695982 222.32,120.32 C222.854129,119.835086 223.206884,119.182489 223.32,118.47 L224.48,118.47 L224.48,127.84 L223.32,127.84 C223.206884,127.127511 222.854129,126.474914 222.32,125.99 C221.665584,125.614018 220.912063,125.446569 220.16,125.51 L199.65,125.56 Z" id="Shape"></path>
                <path d="M279.29,106.55 L266.74,142.77 C266.357847,143.73103 266.112129,144.740831 266.01,145.77 C266.01,146.56 266.7,147.16 268.08,147.55 L268.08,148.71 L256,148.71 L256,147.55 C257.38,147.28 258.08,146.69 258.08,145.77 C257.951272,144.73822 257.682114,143.728877 257.28,142.77 L244.02,106.29 C243.495194,104.645831 242.780362,103.068502 241.89,101.59 C241.242866,100.873608 240.358475,100.41543 239.4,100.3 L239.4,99.14 L251.04,99.14 L251.04,100.3 C249.59,100.47 248.86,101.09 248.86,102.15 C249.076978,103.307873 249.412063,104.440458 249.86,105.53 L262.2,140.53 L274.45,105.53 C274.899655,104.375029 275.250905,103.184125 275.5,101.97 C275.5,101.1 274.81,100.54 273.43,100.3 L273.43,99.14 L286.1,99.14 L286.1,100.3 C284.72,100.64 284.03,101.3 284.03,102.15 C284.248396,103.307531 284.583438,104.439973 285.03,105.53 L297.03,140.53 L308.91,105.53 C309.348967,104.422139 309.644691,103.262765 309.79,102.08 C309.79,101.16 309.11,100.57 307.79,100.3 L307.79,99.14 L318.79,99.14 L318.79,100.3 C317.783857,100.440901 316.861474,100.937569 316.19,101.7 C315.31276,103.129358 314.639583,104.6743 314.19,106.29 L301.52,142.77 C301.155282,143.663934 300.909839,144.601994 300.79,145.56 C300.79,146.56 301.48,147.19 302.86,147.56 L302.86,148.72 L290.92,148.72 L290.92,147.56 C292.3,147.24 292.99,146.56 292.99,145.56 C292.840504,144.711793 292.595617,143.8832 292.26,143.09 L279.29,106.55 Z" id="Shape"></path>
                <path d="M369,102.22 L363.81,111.59 L362.81,111.04 C363.096158,110.400622 363.304322,109.729127 363.43,109.04 C363.43,108.32 362.53,107.53 360.74,106.68 C355.902244,104.414055 350.622094,103.249417 345.28,103.27 C341.240855,103.171375 337.235503,104.027951 333.59,105.77 C332.085743,106.508834 330.78471,107.603898 329.8,108.96 C328.90106,110.150142 328.410075,111.598547 328.4,113.09 C328.405829,114.314519 328.786188,115.507938 329.49,116.51 C330.195662,117.568152 331.187528,118.403955 332.35,118.92 C333.821769,119.56691 335.382632,119.988309 336.98,120.17 C338.76,120.403333 341.66,120.576667 345.68,120.69 C349.670562,120.749614 353.655598,121.009943 357.62,121.47 C359.688443,121.719932 361.694313,122.343378 363.54,123.31 C367.470119,125.300244 369.880314,129.397967 369.71,133.8 C369.764869,138.16187 367.675693,142.272952 364.12,144.8 C359.98,147.986667 354.28,149.583333 347.02,149.59 C343.313565,149.64968 339.615324,149.222701 336.02,148.32 C332.137582,147.157497 328.389832,145.585319 324.84,143.63 C324.160632,143.272675 323.442636,142.994199 322.7,142.8 C322.33,142.8 321.76,143.24 320.99,144.11 L319.99,143.49 L325.43,134.38 L326.43,134.96 C326.08335,135.580533 325.849719,136.257725 325.74,136.96 C325.74,137.733333 327.29,138.93 330.39,140.55 C332.923671,141.908137 335.608957,142.962112 338.39,143.69 C341.138882,144.363873 343.959742,144.69969 346.79,144.69 C352.91,144.69 357.556667,143.356667 360.73,140.69 C362.706046,139.156094 363.870471,136.801448 363.89,134.3 C363.89,131.05 362.08,128.82 358.48,127.58 C357.314186,127.169472 356.101308,126.90741 354.87,126.8 C353.623333,126.686667 350.083333,126.523333 344.25,126.31 C340.971731,126.230685 337.703361,125.916547 334.47,125.37 C332.262357,124.964827 330.134847,124.205002 328.17,123.12 C326.463374,122.161998 325.052187,120.75427 324.09,119.05 C323.084281,117.31993 322.562708,115.351078 322.58,113.35 C322.560135,109.931665 323.983547,106.663628 326.5,104.35 C328.801549,102.315446 331.538009,100.834337 334.5,100.02 C338.138916,98.9305038 341.92172,98.3978094 345.72,98.44 C348.827723,98.4263942 351.927145,98.7618295 354.96,99.44 C358.271477,100.266709 361.496191,101.408586 364.59,102.85 C365.062102,103.084727 365.563083,103.256203 366.08,103.36 C366.52,103.36 367.08,102.87 367.86,101.89 L369,102.22 Z" id="Shape"></path>
                <path d="M425,98.27 C433.733333,98.27 440.773333,100.556667 446.12,105.13 C449.09921,107.641129 451.416938,110.844744 452.87,114.46 C454.121522,117.560306 454.750152,120.876754 454.72,124.22 C454.731712,128.93584 453.339238,133.548409 450.72,137.47 C447.797169,141.998511 443.479656,145.452521 438.42,147.31 C434.123876,148.881847 429.573862,149.644703 425,149.56 C416.333333,149.56 409.333333,147.273333 404,142.7 C394.616748,134.559343 392.651532,120.755936 399.39,110.32 C402.339338,105.80849 406.667774,102.370996 411.73,100.52 C415.98616,98.9937878 420.478631,98.2320651 425,98.27 Z M425,103.27 C417.566667,103.27 411.683333,105.35 407.35,109.51 C399.415087,117.493752 399.415087,130.386248 407.35,138.37 C411.663333,142.53 417.57,144.61 425.07,144.61 C432.57,144.61 438.496667,142.53 442.85,138.37 C446.736149,134.698985 448.886905,129.554609 448.77,124.21 C448.77,118.143333 446.796667,113.243333 442.85,109.51 C440.681722,107.412926 438.080924,105.815586 435.23,104.83 C431.926783,103.757127 428.473027,103.220326 425,103.24 L425,103.27 Z" id="Shape"></path>
                <path d="M471.38,103.42 L471.38,130.83 C471.298592,133.121805 471.469622,135.415609 471.89,137.67 C472.234352,138.998675 472.969362,140.193501 474,141.1 C476.58,143.42 481.406667,144.58 488.48,144.58 C496.166667,144.58 501.21,143.213333 503.61,140.48 C504.421187,139.545529 504.972901,138.414515 505.21,137.2 C505.538292,135.093415 505.672189,132.961105 505.61,130.83 L505.61,103.42 C505.670767,102.682102 505.506927,101.943079 505.14,101.3 C504.650265,100.772058 503.999954,100.420538 503.29,100.3 L503.29,99.14 L513.13,99.14 L513.13,100.3 C512.415468,100.415515 511.760442,100.767679 511.27,101.3 C510.902748,101.957517 510.739158,102.709333 510.8,103.46 L510.8,132 C510.909989,134.703561 510.572097,137.4067 509.8,140 C508.540704,143.29872 505.969842,145.927516 502.7,147.26 C499.226667,148.806667 494.416667,149.583333 488.27,149.59 C479.07,149.59 472.78,147.81 469.4,144.25 C468.052321,142.883967 467.060033,141.208409 466.51,139.37 C465.897171,136.95627 465.621222,134.469362 465.69,131.98 L465.69,103.42 C465.750842,102.669333 465.587252,101.917517 465.22,101.26 C464.735086,100.725871 464.082489,100.373116 463.37,100.26 L463.37,99.1 L473.7,99.1 L473.7,100.26 C472.990046,100.380538 472.339735,100.732058 471.85,101.26 C471.475065,101.914585 471.310952,102.668807 471.38,103.42 Z" id="Shape"></path>
                <path d="M545.07,103.86 L545.07,144.4 C545.009695,145.141055 545.173441,145.883135 545.54,146.53 C546.033343,147.053267 546.681981,147.403883 547.39,147.53 L547.39,148.69 L537.05,148.69 L537.05,147.53 C537.75708,147.401204 538.40493,147.051015 538.9,146.53 C539.271514,145.881395 539.435531,145.134591 539.37,144.39 L539.37,103.86 L522.6,103.86 C521.850187,103.793663 521.097723,103.95391 520.44,104.32 C519.90388,104.807485 519.550952,105.46393 519.44,106.18 L518.28,106.18 L518.28,96.82 L519.44,96.82 C519.549996,97.533542 519.903281,98.1871195 520.44,98.67 C521.09642,99.0401405 521.849131,99.2039248 522.6,99.14 L561.84,99.14 C562.590667,99.2008419 563.342483,99.0372521 564,98.67 C564.536719,98.1871195 564.890004,97.533542 565,96.82 L566.16,96.82 L566.16,106.18 L565,106.18 C564.889048,105.46393 564.53612,104.807485 564,104.32 C563.341204,103.956782 562.589624,103.796723 561.84,103.86 L545.07,103.86 Z" id="Shape"></path>
                <path d="M580.35,144 L612,144 C612.750869,144.063925 613.50358,143.900141 614.16,143.53 C614.699403,143.045086 615.053003,142.38739 615.16,141.67 L616.33,141.67 L616.33,151 L615.16,151 C615.055689,150.28456 614.701421,149.629164 614.16,149.15 C613.505415,148.775065 612.751193,148.610952 612,148.68 L572.33,148.68 L572.33,147.52 C573.045173,147.397955 573.701397,147.047033 574.2,146.52 C574.558704,145.867004 574.71533,145.122162 574.65,144.38 L574.65,103.38 C574.714245,102.635492 574.550311,101.889068 574.18,101.24 C573.68493,100.718985 573.03708,100.368796 572.33,100.24 L572.33,99.08 L582.67,99.08 L582.67,100.24 C581.96292,100.368796 581.31507,100.718985 580.82,101.24 C580.449689,101.889068 580.285755,102.635492 580.35,103.38 L580.35,144 Z" id="Shape"></path>
                <path d="M630.77,125.56 L630.77,144 L662.53,144 C663.280869,144.063925 664.03358,143.900141 664.69,143.53 C665.222321,143.039558 665.574485,142.384532 665.69,141.67 L666.85,141.67 L666.85,151 L665.69,151 C665.572368,150.289048 665.22037,149.63785 664.69,149.15 C664.038522,148.776474 663.287913,148.612387 662.54,148.68 L622.75,148.68 L622.75,147.52 C623.465173,147.397955 624.121397,147.047033 624.62,146.52 C624.978704,145.867004 625.13533,145.122162 625.07,144.38 L625.07,103.38 C625.134245,102.635492 624.970311,101.889068 624.6,101.24 C624.10493,100.718985 623.45708,100.368796 622.75,100.24 L622.75,99.08 L662.06,99.08 C662.804508,99.1442454 663.550932,98.9803111 664.2,98.61 C664.725576,98.1184345 665.076634,97.4689761 665.2,96.76 L666.36,96.76 L666.36,106.12 L665.2,106.12 C665.082474,105.411867 664.730272,104.763814 664.2,104.28 C663.545584,103.904018 662.792063,103.736569 662.04,103.8 L630.77,103.8 L630.77,120.8 L651.28,120.8 C652.032063,120.863431 652.785584,120.695982 653.44,120.32 C653.974129,119.835086 654.326884,119.182489 654.44,118.47 L655.6,118.47 L655.6,127.84 L654.4,127.84 C654.286884,127.127511 653.934129,126.474914 653.4,125.99 C652.745584,125.614018 651.992063,125.446569 651.24,125.51 L630.77,125.56 Z" id="Shape"></path>
                <path d="M698.29,103.86 L698.29,144.4 C698.224601,145.141394 698.388677,145.884972 698.76,146.53 C699.253343,147.053267 699.901981,147.403883 700.61,147.53 L700.61,148.69 L690.26,148.69 L690.26,147.53 C690.968019,147.403883 691.616657,147.053267 692.11,146.53 C692.490577,145.884701 692.658503,145.136028 692.59,144.39 L692.59,103.86 L675.82,103.86 C675.070187,103.793663 674.317723,103.95391 673.66,104.32 C673.119928,104.804387 672.766189,105.462342 672.66,106.18 L671.5,106.18 L671.5,96.82 L672.66,96.82 C672.765965,97.5348902 673.119945,98.189753 673.66,98.67 C674.31642,99.0401405 675.069131,99.2039248 675.82,99.14 L715.06,99.14 C715.810667,99.2008419 716.562483,99.0372521 717.22,98.67 C717.756719,98.1871195 718.110004,97.533542 718.22,96.82 L719.38,96.82 L719.38,106.18 L718.22,106.18 C718.109048,105.46393 717.75612,104.807485 717.22,104.32 C716.561204,103.956782 715.809624,103.796723 715.06,103.86 L698.29,103.86 Z" id="Shape"></path>
            </g>
            <rect id="Rectangle-path" fill="#000000" x="83.41" y="233.72" width="122.44" height="8.75"></rect>
            <rect id="Rectangle-path" fill="#000000" x="1065.13" y="233.72" width="122.44" height="8.75"></rect>
        </g>
    </g>
</svg>