<?xml version="1.0" encoding="UTF-8"?>
<svg width="603px" height="88px" viewBox="0 0 603 88" version="1.1" xmlns="http://www.w3.org/2000/svg" xmlns:xlink="http://www.w3.org/1999/xlink">
    <!-- Generator: Sketch 50.2 (55047) - http://www.bohemiancoding.com/sketch -->
    <title>Shape</title>
    <desc>Created with Sketch.</desc>
    <defs></defs>
    <g id="Page-1" stroke="none" stroke-width="1" fill="none" fill-rule="evenodd">
        <g id="Asset-1" fill="#522363" fill-rule="nonzero">
            <path d="M214.14,30.12 C214.723279,31.011098 215.029497,32.055021 215.02,33.12 C215.057327,34.353691 214.63703,35.5575933 213.84,36.5 C213.06079,37.4177877 211.903051,37.9266031 210.7,37.88 C209.661377,37.9149248 208.647606,37.5579629 207.86,36.88 C207.05299,36.1467122 206.619508,35.0887227 206.68,34 C206.730236,32.2630293 207.723008,30.6914591 209.27,29.9 C208.900407,29.3988975 208.301379,29.1201046 207.68,29.16 C205.650711,29.1781952 203.711804,30.0019605 202.29,31.45 C200.644648,33.0407812 199.362102,34.9680112 198.53,37.1 C197.668585,39.0805846 197.203169,41.210628 197.16,43.37 L197.16,59.37 C197.16,61.71 197.826667,63.33 199.16,64.23 C200.990602,65.2415232 203.072987,65.7065892 205.16,65.57 L205.16,67.16 C198.96,66.96 195.083333,66.86 193.53,66.86 C192.2,66.86 189.23,66.96 184.6,67.16 L184.6,65.55 C185.746273,65.5927922 186.890961,65.430233 187.98,65.07 C188.777797,64.775634 189.427887,64.1794194 189.79,63.41 C190.218166,62.3716761 190.412761,61.2518995 190.36,60.13 L190.36,36.47 C190.36,34.13 189.93,32.47 189.09,31.38 C188.25,30.29 186.74,29.79 184.6,29.79 L184.6,28.2 C186.17,28.35 187.74,28.42 189.29,28.42 C191.9465,28.5066097 194.599816,28.1690377 197.15,27.42 L197.15,36.87 C197.747343,35.235769 198.572128,33.6939258 199.6,32.29 C200.639741,30.8502538 201.934445,29.6131675 203.42,28.64 C204.80704,27.7078307 206.43884,27.2068089 208.11,27.2 C209.342649,27.1760441 210.563188,27.446894 211.67,27.99 C212.669485,28.4655938 213.522627,29.2012997 214.14,30.12 Z M241.34,28.2 L241.34,29.72 C242.83248,29.7064791 244.30664,30.0493071 245.64,30.72 C246.552109,31.2805375 247.076407,32.3021487 247,33.37 C246.917196,34.563564 246.640225,35.7356247 246.18,36.84 L237.84,58.73 L228.73,36.14 C228.174039,34.9672987 227.83523,33.7035406 227.73,32.41 C227.669995,31.7406007 227.920677,31.0807158 228.41,30.62 C228.898153,30.2225613 229.493281,29.978942 230.12,29.92 C231.076491,29.8185099 232.038255,29.7750969 233,29.79 L233,28.2 C228.62,28.52 225.35,28.68 223.19,28.68 C220.708688,28.6870125 218.229728,28.5266485 215.77,28.2 L215.77,29.79 C216.683662,29.8070393 217.572827,30.0883768 218.33,30.6 C219.472496,31.4930018 220.367539,32.6634425 220.93,34 L234.66,67 L231.96,73.9 C230.46,77.84 228.32,79.81 225.54,79.81 C225.389175,79.8168915 225.238747,79.7895409 225.1,79.73 C226.367484,79.0832758 227.146897,77.76217 227.1,76.34 C227.148424,75.3539262 226.74322,74.3998545 226,73.75 C225.227888,73.1141691 224.249546,72.7833118 223.25,72.82 C222.16613,72.7382407 221.100514,73.1333355 220.331925,73.9019248 C219.563335,74.670514 219.168241,75.7361299 219.25,76.82 C219.18444,78.0966953 219.716683,79.3312034 220.69,80.16 C221.736413,80.9893452 223.045928,81.4152037 224.38,81.36 C226.530747,81.4773236 228.643935,80.7609886 230.28,79.36 C231.76459,77.8692278 232.877878,76.0502869 233.53,74.05 L236.11,67.48 L248.54,35 C248.988526,33.5266585 249.741438,32.1639213 250.75,31 C251.463661,30.2509083 252.413652,29.7706154 253.44,29.64 L253.44,28.2 C251.84,28.35 249.93,28.42 247.69,28.42 C246.11,28.42 244,28.35 241.34,28.2 Z M292.7,35.77 C293.985905,38.9957038 294.605023,42.4484747 294.52,45.92 C294.548136,49.6231418 293.925332,53.3024222 292.68,56.79 C291.549838,59.9982277 289.565133,62.8369774 286.94,65 C284.170969,67.1691379 280.725377,68.2916997 277.21,68.17 C275.413277,68.2050573 273.63198,67.8323867 272,67.08 C270.547556,66.4117551 269.293355,65.3780733 268.36,64.08 L268.36,73.75 C268.36,75.75 268.97,77.22 270.17,78.02 C271.841834,78.9327967 273.739591,79.3491237 275.64,79.22 L275.64,80.8 L271.34,80.62 C269.113333,80.52 266.916667,80.47 264.75,80.47 C263.15,80.47 261.5,80.52 259.8,80.62 L256.59,80.8 L256.59,79.25 C258.44,79.25 259.73,78.91 260.47,78.25 C261.21,77.59 261.57,76.35 261.57,74.58 L261.57,36.47 C261.57,34.13 261.146667,32.4333333 260.3,31.38 C259.453333,30.3266667 257.96,29.7966667 255.82,29.79 L255.82,28.2 C257.39,28.35 258.95,28.42 260.5,28.42 C263.1565,28.5066097 265.809816,28.1690377 268.36,27.42 L268.36,35.42 C269.366475,32.9733152 271.061786,30.871547 273.24,29.37 C277.625889,26.4890894 283.304111,26.4890894 287.69,29.37 C289.937541,30.9804646 291.676234,33.2015493 292.7,35.77 Z M287.18,47 C287.18,35.3066667 284.25,29.4633333 278.39,29.47 C276.105474,29.4721617 273.908453,30.3488233 272.25,31.92 C270.277036,33.8533484 268.920099,36.3271475 268.35,39.03 L268.35,61.6 C269.792011,64.6880252 272.944396,66.6109801 276.35,66.48 C283.563333,66.48 287.173333,59.9866667 287.18,47 Z M321.32,63.6 C320.333458,64.7914511 318.866875,65.4807452 317.32,65.48 C315.944744,65.576139 314.604204,65.0206665 313.7,63.98 C312.893333,62.9933333 312.486667,61.3533333 312.48,59.06 L312.48,29.79 L323.67,29.79 L323.67,28.28 L312.46,28.28 L312.46,15.65 C310.269986,16.3738358 307.976484,16.7352566 305.67,16.72 L305.67,28.28 L298.4,28.28 L298.4,29.79 L305.67,29.79 L305.67,55.11 C305.608499,57.2999322 305.833743,59.4885007 306.34,61.62 C306.736955,63.1532548 307.522185,64.5584024 308.62,65.7 C309.465035,66.5500795 310.49029,67.1994076 311.62,67.6 C312.973561,68.0473557 314.395102,68.2538175 315.82,68.21 C321.153333,68.21 324.426667,64.73 325.64,57.77 L324.16,57.4 C323.683114,59.6511376 322.713186,61.7685869 321.32,63.6 Z M362,36.12 C363.603498,39.7741366 364.365595,43.7418255 364.23,47.73 C364.364979,51.711661 363.602844,55.6727088 362,59.32 C360.717609,62.1409749 358.589228,64.4930278 355.91,66.05 C350.368491,68.9298746 343.771509,68.9298746 338.23,66.05 C335.550772,64.4930278 333.422391,62.1409749 332.14,59.32 C330.528773,55.6750514 329.762994,51.7128295 329.9,47.73 C329.762389,43.7406597 330.528129,39.7718002 332.14,36.12 C333.419425,33.2867884 335.547515,30.9210794 338.23,29.35 C343.764365,26.4410344 350.375635,26.4410344 355.91,29.35 C358.592485,30.9210794 360.720575,33.2867884 362,36.12 Z M356.88,47.73 C356.88,41.23 356.003333,36.43 354.25,33.33 C352.49,30.23 350.09,28.68 347.07,28.68 C344.05,28.68 341.65,30.23 339.89,33.33 C338.13,36.43 337.25,41.23 337.25,47.73 C337.25,54.23 338.13,58.98 339.89,62.06 C341.65,65.14 344.04,66.7 347.07,66.7 C350.1,66.7 352.49,65.15 354.25,62.06 C356.01,58.97 356.88,54.2 356.88,47.73 Z M14.24,56.17 C13.6208523,56.909485 12.704448,57.3346966 11.74,57.33 C10.8875661,57.3910055 10.0554832,57.0507761 9.49,56.41 C8.91065397,55.5000782 8.64707918,54.4246931 8.74,53.35 L8.74,35.16 L15.68,35.16 L15.68,34.22 L8.74,34.22 L8.74,26.38 C7.37851155,26.8287966 5.95354241,27.0550358 4.52,27.05 L4.52,34.22 L0,34.22 L0,35.16 L4.52,35.16 L4.52,50.89 C4.48409871,52.2354163 4.62190251,53.5798436 4.93,54.89 C5.17719255,55.841695 5.66637185,56.7132609 6.35,57.42 C6.86879704,57.9442264 7.49714377,58.3471879 8.19,58.6 C9.02908825,58.8883046 9.91308228,59.0237826 10.8,59 C14.1,59 16.1333333,56.8366667 16.9,52.51 L16,52.31 C15.7078801,53.7116042 15.1065947,55.0303325 14.24,56.17 Z M40.11,56.05 C39.8546894,55.4151634 39.7354529,54.7338117 39.76,54.05 L39.76,41.47 C39.7921142,40.1924497 39.6644585,38.9158931 39.38,37.67 C39.1577112,36.7876958 38.7215315,35.9737227 38.11,35.3 C36.7637994,34.0382728 34.9497095,33.3997131 33.11,33.54 C31.4474238,33.5202956 29.8136473,33.9747005 28.4,34.85 C26.8749375,35.8933263 25.7279309,37.4016224 25.13,39.15 L25.13,21.59 C23.5519743,22.0834418 21.9026225,22.3098897 20.25,22.26 C19.3,22.26 18.33,22.21 17.34,22.12 L17.34,23.12 C18.3706373,23.012272 19.3941427,23.3804394 20.12,24.12 C20.7264897,25.0528502 21.0044938,26.1613476 20.91,27.27 L20.91,54 C20.9345471,54.6838117 20.8153106,55.3651634 20.56,56 C20.32835,56.4680895 19.9227868,56.826995 19.43,57 C18.7570905,57.225072 18.0490497,57.3267047 17.34,57.3 L17.34,58.3 C20.21,58.17 22.09,58.11 22.98,58.11 C23.87,58.11 25.6,58.17 28.23,58.3 L28.23,57.3 C27.6058219,57.3275524 26.98271,57.2254029 26.4,57 C25.9509951,56.806895 25.593105,56.4490049 25.4,56 C25.1745137,55.3580798 25.0694206,54.6800604 25.09,54 L25.09,43.53 C25.0887457,42.0197124 25.398512,40.5253456 26,39.14 C26.4925501,37.9457406 27.3016004,36.9084967 28.34,36.14 C29.3153617,35.4003252 30.5058884,34.999971 31.73,35 C32.5958889,34.9371233 33.4553333,35.1892743 34.15,35.71 C34.7138812,36.1873919 35.1041277,36.8378028 35.26,37.56 C35.4655401,38.4956114 35.5595283,39.4522766 35.54,40.41 L35.54,54 C35.5605794,54.6800604 35.4554863,55.3580798 35.23,56 C35.0404222,56.4513852 34.6813852,56.8104222 34.23,57 C33.64729,57.2254029 33.0241781,57.3275524 32.4,57.3 L32.4,58.3 C35.03,58.17 36.79,58.11 37.67,58.11 C38.55,58.11 40.38,58.17 43.31,58.3 L43.31,57.3 C42.5977379,57.3255195 41.8866261,57.2239321 41.21,57 C40.737172,56.8324854 40.3445562,56.4934082 40.11,56.05 Z M64.82,52.36 L65.76,52.73 C65.3708352,53.8575732 64.7738717,54.9022593 64,55.81 C63.17338,56.7873275 62.1515071,57.5809821 61,58.14 C59.7503718,58.7299512 58.3816752,59.024221 57,59 C54.9681337,59.0520592 52.9634022,58.5248634 51.22,57.48 C49.5812852,56.4485736 48.28368,54.9561537 47.49,53.19 C46.6001216,51.1901476 46.16304,49.0183985 46.21,46.83 C46.1532829,44.4025827 46.5957591,41.9893855 47.51,39.74 C48.2735304,37.8734297 49.5623106,36.2685336 51.22,35.12 C52.8802581,34.0279733 54.8332727,33.4664816 56.82,33.51 C59.256857,33.3588334 61.6359761,34.2921801 63.32,36.06 C64.84,37.77 65.6,40.35 65.6,43.82 L50.9,43.82 C50.7816833,44.8154737 50.7282371,45.8175888 50.74,46.82 C50.6941035,48.6732039 51.0346675,50.5156554 51.74,52.23 C52.3070234,53.6248874 53.2271533,54.8482811 54.41,55.78 C55.3994196,56.5695618 56.6242343,57.00599 57.89,57.02 C61.0566667,57.0466667 63.3666667,55.4933333 64.82,52.36 Z M50.82,42.96 L61.06,42.96 C61.1311005,41.5188015 60.9998231,40.0747509 60.67,38.67 C60.4285424,37.5294988 59.9060665,36.4673602 59.15,35.58 C58.519122,34.8345083 57.5864472,34.4122343 56.61,34.43 C55.6436425,34.4300723 54.7058862,34.7579345 53.95,35.36 C53.0370396,36.1176487 52.3316238,37.0949076 51.9,38.2 C51.2783211,39.7291877 50.9166695,41.3515498 50.83,43 L50.82,42.96 Z M404.56,63.41 C404.131834,62.3716761 403.937239,61.2518995 403.99,60.13 L403.99,39.94 C404.046275,37.8857176 403.8413,35.8326096 403.38,33.83 C403.032714,32.4134187 402.34635,31.1024635 401.38,30.01 C399.56,28.1166667 396.893333,27.17 393.38,27.17 C390.68374,27.1317414 388.03511,27.8825343 385.76,29.33 C383.30333,31.0409213 381.4598,33.4942878 380.5,36.33 L380.5,27.39 C377.949816,28.1390377 375.2965,28.4766097 372.64,28.39 C371.09,28.39 369.53,28.32 367.95,28.17 L367.95,29.76 C370.09,29.76 371.586667,30.29 372.44,31.35 C373.28,32.4 373.71,34.1 373.71,36.44 L373.71,60.13 C373.762761,61.2518995 373.568166,62.3716761 373.14,63.41 C372.777887,64.1794194 372.127797,64.775634 371.33,65.07 C370.240961,65.430233 369.096273,65.5927922 367.95,65.55 L367.95,67.14 C372.58,66.94 375.6,66.84 377.03,66.84 C378.46,66.84 381.29,66.94 385.52,67.14 L385.52,65.55 C384.514204,65.5931602 383.510229,65.4298016 382.57,65.07 C381.848192,64.7454189 381.283884,64.1487623 381,63.41 C380.623979,62.3589877 380.454211,61.2453125 380.5,60.13 L380.5,43.33 C380.466191,40.9308035 380.918618,38.5496102 381.83,36.33 C382.598103,34.351132 383.895356,32.6214617 385.58,31.33 C387.164136,30.130439 389.10311,29.4934985 391.09,29.52 C392.49338,29.4390402 393.879665,29.8609531 395,30.71 C395.907715,31.4865247 396.533472,32.5411708 396.78,33.71 C397.086623,35.2167791 397.227461,36.7525843 397.2,38.29 L397.2,60.13 C397.245789,61.2453125 397.076021,62.3589877 396.7,63.41 C396.420842,64.1450795 395.864245,64.7411766 395.15,65.07 C394.217057,65.4309745 393.219356,65.5944203 392.22,65.55 L392.22,67.14 C396.446667,66.94 399.263333,66.84 400.67,66.84 C402.1,66.84 405.12,66.94 409.75,67.14 L409.75,65.55 C408.603727,65.5927922 407.459039,65.430233 406.37,65.07 C405.574458,64.7719479 404.925591,64.1768545 404.56,63.41 Z M446.56,36.12 C448.16844,39.7725974 448.930756,43.7414245 448.79,47.73 C448.929803,51.712037 448.167463,55.6741496 446.56,59.32 C445.277609,62.1409749 443.149228,64.4930278 440.47,66.05 C434.928491,68.9298746 428.331509,68.9298746 422.79,66.05 C420.110772,64.4930278 417.982391,62.1409749 416.7,59.32 C415.092537,55.6741496 414.330197,51.712037 414.47,47.73 C414.329244,43.7414245 415.09156,39.7725974 416.7,36.12 C417.979425,33.2867884 420.107515,30.9210794 422.79,29.35 C428.324365,26.4410344 434.935635,26.4410344 440.47,29.35 C443.141332,30.9258894 445.258488,33.2910955 446.53,36.12 L446.56,36.12 Z M441.45,47.73 C441.45,41.23 440.57,36.43 438.81,33.33 C437.05,30.23 434.656667,28.68 431.63,28.68 C428.596667,28.68 426.203333,30.23 424.45,33.33 C422.696667,36.43 421.816667,41.23 421.81,47.73 C421.81,54.2033333 422.69,58.98 424.45,62.06 C426.21,65.14 428.603333,66.6866667 431.63,66.7 C434.656667,66.7 437.05,65.1533333 438.81,62.06 C440.57,58.9666667 441.44,54.19 441.42,47.73 L441.45,47.73 Z M513.14,63.41 C512.711834,62.3716761 512.517239,61.2518995 512.57,60.13 L512.57,39.94 C512.613068,37.9020145 512.425204,35.8657067 512.01,33.87 C511.706583,32.4327316 511.034588,31.0990813 510.06,30 C508.24,28.1066667 505.62,27.16 502.2,27.16 C496.482388,26.9913954 491.34695,30.6368211 489.62,36.09 C489.504528,33.8651813 488.689047,31.7337303 487.29,30 C485.47,28.1066667 482.85,27.16 479.43,27.16 C476.849124,27.1496028 474.326622,27.9276357 472.2,29.39 C469.799239,31.0971371 467.983384,33.5031447 467,36.28 L467,27.39 C464.449816,28.1390377 461.7965,28.4766097 459.14,28.39 C457.59,28.39 456.03,28.32 454.45,28.17 L454.45,29.76 C456.59,29.76 458.086667,30.29 458.94,31.35 C459.78,32.4 460.21,34.1 460.21,36.44 L460.21,60.13 C460.262761,61.2518995 460.068166,62.3716761 459.64,63.41 C459.277887,64.1794194 458.627797,64.775634 457.83,65.07 C456.740961,65.430233 455.596273,65.5927922 454.45,65.55 L454.45,67.14 C459.08,66.94 462.1,66.84 463.53,66.84 C464.96,66.84 467.79,66.94 472.02,67.14 L472.02,65.55 C471.014204,65.5931602 470.010229,65.4298016 469.07,65.07 C468.348192,64.7454189 467.783884,64.1487623 467.5,63.41 C467.123979,62.3589877 466.954211,61.2453125 467,60.13 L467,43.33 C466.969359,40.9472809 467.421794,38.5830548 468.33,36.38 C469.093741,34.4256981 470.351363,32.7029281 471.98,31.38 C473.466653,30.1910675 475.316433,29.5485869 477.22,29.56 C478.584373,29.4534906 479.940313,29.852087 481.03,30.68 C481.870086,31.4479309 482.426731,32.4766678 482.61,33.6 C482.85668,35.1439837 482.967105,36.7066696 482.94,38.27 L482.94,60.13 C482.983359,61.2427794 482.824104,62.3541741 482.47,63.41 C482.188476,64.1469158 481.628027,64.7432916 480.91,65.07 C479.970069,65.4309059 478.965863,65.594302 477.96,65.55 L477.96,67.14 C482.193333,66.94 485.023333,66.84 486.45,66.84 C487.85,66.84 490.87,66.94 495.45,67.14 L495.45,65.55 C494.31349,65.5939856 493.178432,65.4313504 492.1,65.07 C491.307998,64.7740017 490.664761,64.1774803 490.31,63.41 C489.873257,62.3739618 489.675036,61.2529864 489.73,60.13 L489.73,43.26 C489.698492,40.8804436 490.150986,38.5193122 491.06,36.32 C491.833106,34.3876854 493.09,32.6865731 494.71,31.38 C496.209319,30.1800774 498.079876,29.540057 500,29.57 C501.373943,29.4607117 502.740245,29.8592165 503.84,30.69 C504.679466,31.4598302 505.238859,32.4871436 505.43,33.61 C505.67668,35.1539837 505.787105,36.7166696 505.76,38.28 L505.76,60.13 C505.805789,61.2453125 505.636021,62.3589877 505.26,63.41 C504.980842,64.1450795 504.424245,64.7411766 503.71,65.07 C502.77379,65.4317799 501.77266,65.5952297 500.77,65.55 L500.77,67.14 C505.01,66.94 507.82,66.84 509.23,66.84 C510.64,66.84 513.68,66.94 518.31,67.14 L518.31,65.55 C517.163682,65.5936581 516.018841,65.4310772 514.93,65.07 C514.126714,64.7807243 513.471765,64.1833531 513.11,63.41 L513.14,63.41 Z M534.77,63.41 C534.341834,62.3716761 534.147239,61.2518995 534.2,60.13 L534.2,27.39 C531.64623,28.1382548 528.989749,28.4758 526.33,28.39 C524.79,28.39 523.22,28.32 521.65,28.17 L521.65,29.76 C523.79,29.76 525.283333,30.29 526.13,31.35 C526.976667,32.41 527.4,34.1066667 527.4,36.44 L527.4,60.13 C527.452761,61.2518995 527.258166,62.3716761 526.83,63.41 C526.472004,64.1787747 525.825185,64.7752861 525.03,65.07 C523.940765,65.429396 522.796229,65.5919337 521.65,65.55 L521.65,67.14 C526.27,66.94 529.32,66.84 530.8,66.84 C532.28,66.84 535.33,66.94 539.95,67.14 L539.95,65.55 C538.806997,65.5928904 537.665573,65.4303137 536.58,65.07 C535.769193,64.7852667 535.106408,64.1873197 534.74,63.41 L534.77,63.41 Z M527.87,18.33 C528.602005,18.7541457 529.434007,18.9750923 530.28,18.97 C531.123169,18.9777298 531.952636,18.7565386 532.68,18.33 C533.414713,17.9050407 534.025041,17.2947129 534.45,16.56 C534.89199,15.8304518 535.123851,14.9929834 535.12,14.14 C535.125407,13.2930981 534.893292,12.4616401 534.45,11.74 C534.007262,11.016743 533.387845,10.417974 532.65,10 C531.926876,9.56011812 531.096405,9.32827833 530.25,9.33 C529.400825,9.3310366 528.567864,9.56260668 527.84,10 C527.105806,10.4290366 526.493166,11.0382352 526.06,11.77 C525.63485,12.497943 525.413763,13.3270204 525.42,14.17 C525.41011,15.9013924 526.335349,17.5033546 527.84,18.36 L527.87,18.33 Z M567,48.41 C565.207282,46.9760604 563.337851,45.6407524 561.4,44.41 C560.69,43.95 559.49,43.18 557.81,42.13 C556.256075,41.1723712 554.807992,40.0527881 553.49,38.79 C552.304217,37.6464959 551.654505,36.0566975 551.7,34.41 C551.613128,32.8031634 552.247405,31.241302 553.43,30.15 C554.676322,29.0991 556.27112,28.5532297 557.9,28.62 C560.661167,28.43603 563.329589,29.6537325 565,31.86 C566.71824,34.3051763 567.822679,37.1280125 568.22,40.09 L569.95,40.09 C569.95,33.9766667 570.05,29.6933333 570.25,27.24 L568.51,27.24 C568.26,29.46 567.7,30.56 566.81,30.56 C566.313368,30.4953283 565.848849,30.2787857 565.48,29.94 C564.427286,29.1172892 563.25333,28.4628428 562,28 C560.476492,27.4107009 558.853269,27.1220525 557.22,27.15 C555.29379,27.1252954 553.382371,27.4892131 551.6,28.22 C549.959199,28.8903705 548.551071,30.0273034 547.55,31.49 C546.505491,33.0928675 545.978399,34.9778314 546.04,36.89 C546.00384,38.6900129 546.482623,40.4628991 547.42,42 C548.302086,43.4210617 549.433581,44.6711259 550.76,45.69 C552.093333,46.7033333 553.993333,47.9966667 556.46,49.57 C558.5,50.85 560.086667,51.9266667 561.22,52.8 C562.314047,53.6268051 563.254913,54.6387442 564,55.79 C564.685711,56.9036744 565.033122,58.1925702 565,59.5 C565.059051,60.9494082 564.712748,62.3865675 564,63.65 C563.413183,64.6599845 562.544317,65.4767177 561.5,66 C560.500177,66.4750648 559.406947,66.7210416 558.3,66.72 C556.245363,66.8272268 554.216011,66.2272446 552.55,65.02 C551.051005,63.7875538 549.945553,62.1432805 549.37,60.29 C548.573711,57.7827022 548.044114,55.1984049 547.79,52.58 L546.05,52.58 C546.05,59.7666667 545.953333,64.8 545.76,67.68 L547.49,67.68 C547.79,65.78 548.3,64.83 549.04,64.83 C549.303769,64.833757 549.55537,64.9415857 549.74,65.13 C550.702108,65.9010796 551.740896,66.5712653 552.84,67.13 C554.751466,67.8731745 556.789471,68.2366187 558.84,68.2 C561.045385,68.2355264 563.235417,67.8274459 565.28,67 C567.158347,66.2441818 568.791648,64.9846027 570,63.36 C571.190148,61.6869632 571.804329,59.6724503 571.75,57.62 C571.781218,55.8044509 571.329104,54.0132521 570.44,52.43 C569.540587,50.8967564 568.375804,49.5355859 567,48.41 Z M601.34,57.41 C600.872092,59.6586275 599.912495,61.7758871 598.53,63.61 C597.546119,64.8048809 596.077817,65.4949832 594.53,65.49 C593.155003,65.5845554 591.815141,65.0293642 590.91,63.99 C590.103333,63.0033333 589.7,61.3633333 589.7,59.07 L589.7,29.79 L600.88,29.79 L600.88,28.28 L589.68,28.28 L589.68,15.65 C587.489986,16.3738358 585.196484,16.7352566 582.89,16.72 L582.89,28.28 L575.61,28.28 L575.61,29.79 L582.89,29.79 L582.89,55.11 C582.830957,57.2992859 583.052764,59.4871111 583.55,61.62 C583.950669,63.1539381 584.739283,64.558981 585.84,65.7 C586.670611,66.5438388 587.678177,67.1927801 588.79,67.6 C590.147207,68.0465032 591.571878,68.2529281 593,68.21 C598.333333,68.21 601.606667,64.73 602.82,57.77 L601.34,57.41 Z M177.44,67.67 C167.594141,83.1508037 149.154839,90.8698686 131.216762,87.0199826 C113.278685,83.1700965 99.6307354,68.5644371 97.0043807,50.4068358 C94.3780261,32.2492345 103.328008,14.3749614 119.44,5.6 C119.67187,5.45203073 119.978868,5.51022999 120.140493,5.7327964 C120.302119,5.9553628 120.262459,6.26530137 120.05,6.44 C109.208493,16.3158249 104.381003,31.1784104 107.35,45.54 C108.613199,51.8989302 111.376483,57.8643325 115.41,62.94 C116.65,60.7 119.01,57.94 119.05,54.22 C119.116667,43.92 119.116667,33.6166667 119.05,23.31 C118.945745,21.7599841 119.620763,20.2599445 120.85,19.31 C128.44,13 136,6.65 143.58,0.42 C144.335664,-0.0451712846 145.267545,-0.123137367 146.09,0.21 C151.25,3.09 171.21,9.89 173.4,10.11 C173.78,10.11 174.4,10.7 173.67,11.38 C173.67,11.38 167.75,17.33 164.5,20.56 C163.990644,21.0040145 163.26298,21.0949725 162.66,20.79 C159.41,19.68 154.41,17.62 149.95,15.84 L149.95,42.31 L153.27,42.31 L153.27,45.65 L150,45.65 L150,78.51 C159.978294,78.0150403 169.440618,73.9267766 176.64,67 C176.825015,66.7790861 177.154086,66.7499846 177.375,66.935 C177.595914,67.1200154 177.625015,67.4490861 177.44,67.67 Z M137.85,45.67 L131.77,45.67 C130.553127,50.5603274 127.878172,54.9651093 124.1,58.3 C122.8,59.52 119.51,62.71 117.84,64.3 C117.436152,64.6599997 117.391843,65.2758992 117.74,65.69 C117.87,65.83 118,65.98 118.14,66.12 C118.28,66.26 118.68,66.67 118.96,66.94 C119.44,67.41 119.96,67.86 120.43,68.3 L121.28,69.03 L122.28,69.83 C125.130468,71.9995905 128.228904,73.8223971 131.51,75.26 C133.398901,76.0758794 135.34804,76.7445376 137.34,77.26 C137.603017,77.1957583 137.788554,76.9607454 137.79,76.69 L137.85,45.67 Z M137.85,11.87 C137.859311,11.6292501 137.723712,11.4062803 137.505665,11.3037981 C137.287618,11.2013159 137.029417,11.2392001 136.85,11.4 L135.51,12.22 C133.18,13.64 132.28,15.8 132.38,18.62 L132.49,38.24 C132.503228,39.6063351 132.433098,40.9722049 132.28,42.33 L137.78,42.33 L137.85,11.87 Z M146.49,45.67 L141.15,45.67 C141.15,55.85 141.15,66.01 141.15,75.28 C141.15,77.12 141.56,77.97 143.41,78.28 C144.46,78.39 145.5,78.46 146.53,78.5 L146.49,45.67 Z M146.49,14.51 C145.49,14.11 144.49,13.75 143.66,13.45 L142.83,13.17 C141.54,12.78 141.16,13.35 141.15,14.08 C141.15,14.54 141.15,14.97 141.15,15.4 L141.15,42.31 L146.49,42.31 L146.49,14.51 Z" id="Shape"></path>
        </g>
    </g>
</svg>