<?xml version="1.0" encoding="UTF-8"?>
<svg width="123px" height="15px" viewBox="0 0 123 15" version="1.1" xmlns="http://www.w3.org/2000/svg" xmlns:xlink="http://www.w3.org/1999/xlink">
    <!-- Generator: Sketch 50.2 (55047) - http://www.bohemiancoding.com/sketch -->
    <title>Combined Shape</title>
    <desc>Created with Sketch.</desc>
    <defs></defs>
    <g id="Page-1" stroke="none" stroke-width="1" fill="none" fill-rule="evenodd">
        <g id="dnevnik" fill="#C71C1D" fill-rule="nonzero">
            <path d="M35.3046875,5.7304688 L38.7280273,5.7304688 L38.7280273,9.1459961 L35.3046875,9.1459961 L35.3046875,5.7304688 Z M94.5214844,11.5195313 L97.9453125,11.5195313 L97.9453125,14.9350586 L94.5214844,14.9350586 L94.5214844,11.5195313 Z M12.8920898,7.3564453 C12.8920898,12.9487305 10.121582,14.8837891 4.8369141,14.8837891 L0,14.8837891 L0,0 L5.2207031,0 C9.9086914,0 12.8920898,1.765625 12.8920898,7.3564453 Z M27.4008789,14.8837891 L24.0336913,14.8837891 L20.4746093,9.972168 C19.8139648,9.0576172 18.5351562,7.1445313 18.1523437,6.4853516 C18.258789,7.1445313 18.2807617,9.1215821 18.2807617,10.3339844 L18.2807617,14.8837891 L14.3173828,14.8837891 L14.3173828,0 L17.9609375,0 L21.2416992,4.4018555 C21.9238282,5.3149414 23.2451172,7.2924805 23.565918,7.9091797 C23.4575195,7.2504883 23.4370117,5.2729492 23.4370117,4.0605469 L23.4370117,0 L27.4008789,0 L27.4008789,14.8837891 Z M55.9453125,0 L50.8105469,14.8837891 L46.6342774,14.8837891 L41.4980469,0 L46.144043,0 L47.2309569,3.9970703 C47.7416991,5.8481446 48.4663085,8.866211 48.7426757,10.2900391 C49.0205077,8.8662109 49.7451171,5.8686523 50.2558593,3.9970703 L51.3427734,0 L55.9453125,0 Z M70.0888672,14.8837891 L66.7236328,14.8837891 L63.1630859,9.972168 C62.5024414,9.0576172 61.2250976,7.1445313 60.8408203,6.4853516 C60.9467774,7.1445313 60.9692383,9.1215821 60.9692383,10.3339844 L60.9692383,14.8837891 L57.0053711,14.8837891 L57.0053711,0 L60.6489258,0 L63.9311523,4.4018555 C64.6123047,5.3149414 65.9335937,7.2924805 66.2519531,7.9091797 C66.1464843,7.2504883 66.1240234,5.2729492 66.1240234,4.0605469 L66.1240234,0 L70.0888672,0 L70.0888672,14.8837891 Z M72.3681641,0 L76.584961,0 L76.584961,14.8837891 L72.3681641,14.8837891 L72.3681641,0 Z M92.6289063,14.8837891 L87.7285157,14.8837891 L84.6181641,8.5478516 L83.0810547,10.397461 L83.0810547,14.8837891 L78.8613281,14.8837891 L78.8613281,0 L83.0810547,0 L83.0810547,1.7436523 C83.0810547,2.9980468 83.0615235,4.3378906 83.0185547,5.4228515 C83.6357422,4.4438476 84.9365234,2.7216797 85.8955078,1.5097656 L87.0888672,0 L92.1171875,0 L87.6220704,5.2529297 L92.6289063,14.8837891 Z M40.8730469,14.8837891 L29.3022461,14.8837891 L29.3022461,0 L40.7246094,0 L40.7246094,3.465332 L33.394043,3.465332 L33.394043,11.418457 L40.8730469,11.418457 L40.8730469,14.8837891 Z M101.37207,0.0639648 L105.388672,0.0639648 L105.388672,5.3139648 L105.426758,5.3139648 C105.787109,4.8793945 106.243164,4.5288085 106.794922,4.2626953 C107.330078,4.003418 108.046875,3.8745117 108.946289,3.8745117 C109.931641,3.8745117 110.777344,4.1748047 111.483399,4.7739258 C112.183594,5.3730469 112.540039,6.2993164 112.553711,7.5522461 L112.553711,15 L108.538086,15 L108.538086,9.3164063 C108.551758,8.6762696 108.479492,8.159668 108.314453,7.7661133 C108.144531,7.3779297 107.744141,7.1826172 107.117188,7.1826172 C106.723633,7.1708984 106.351563,7.2954102 105.994141,7.5610352 C105.822266,7.6972657 105.676758,7.9042969 105.553711,8.1840821 C105.441406,8.4760743 105.384766,8.8403321 105.384766,9.2744141 L105.384766,15 L101.37207,15 L101.37207,0.0639648 Z M122.364258,7.4897461 C122.132812,7.4492188 121.816406,7.4282227 121.412109,7.4282227 C119.799805,7.4018555 118.983399,8.4941407 118.973633,10.7075196 L118.973633,15 L114.959961,15 L114.959961,4.1401367 L118.816406,4.1401367 L118.816406,5.8769531 L118.855469,5.8769531 C119.180664,5.2231445 119.578125,4.7221679 120.057617,4.375 C120.512695,4.0419922 121.100586,3.8745117 121.820312,3.8745117 C122.22168,3.8745117 122.616211,3.9296875 123,4.0380859 L122.364258,7.4897461 Z M8.6518555,7.4199219 C8.6518555,4.6777344 7.7783203,3.5297852 5.1992188,3.5297852 L4.1757813,3.5297852 L4.1757813,11.3540039 L5.0727539,11.3540039 C7.6508789,11.3540039 8.6518555,10.3759766 8.6518555,7.4199219 Z" id="Combined-Shape"></path>
        </g>
    </g>
</svg>