<?xml version="1.0" encoding="UTF-8"?>
<svg width="122px" height="28px" viewBox="0 0 122 28" version="1.1" xmlns="http://www.w3.org/2000/svg" xmlns:xlink="http://www.w3.org/1999/xlink">
    <!-- Generator: Sketch 50.2 (55047) - http://www.bohemiancoding.com/sketch -->
    <title>Combined Shape</title>
    <desc>Created with Sketch.</desc>
    <defs></defs>
    <g id="Page-1" stroke="none" stroke-width="1" fill="none" fill-rule="evenodd">
        <g id="evernesto" fill="#1F1F21" fill-rule="nonzero">
            <path d="M13.0037073,0.716551232 L16.7554486,0.716551232 L3.87145161,27.0969126 L0.119710384,27.0969126 L13.0037073,0.716551232 Z M15.2434931,15.843945 C15.2434931,11.4852155 18.4135931,7.89566077 22.9505722,7.89566077 C28.1564163,7.89566077 30.5412785,11.8557446 30.5412785,16.1859216 C30.5412785,16.5276801 30.5123522,16.9265438 30.4832034,17.3254074 L19.6349506,17.3254074 C20.0712927,19.2911731 21.4673205,20.3166667 23.4449894,20.3166667 C24.9282411,20.3166667 26.0042995,19.860916 27.2258794,18.7497647 L29.7560407,20.9435147 C28.3019378,22.7096306 26.2078962,23.7922293 23.3866918,23.7922293 C18.7044137,23.7922293 15.2434931,20.5732036 15.2434931,15.843945 Z M31.7045609,8.18053223 L36.3868389,8.18053223 L39.8769084,18.4080062 L43.3959042,8.18053223 L47.9911808,8.18053223 L41.8545773,23.4504708 L37.8411644,23.4504708 L31.7045609,8.18053223 Z M50.5502684,8.18053223 L54.9708747,8.18053223 L54.9708747,11.2572312 C55.8724853,9.14913879 57.3265882,7.78166859 59.9441959,7.89566077 L59.9441959,12.4252696 L59.7114504,12.4252696 C56.7740958,12.4252696 54.9708747,14.1630509 54.9708747,17.8097107 L54.9708747,23.4504708 L50.5502684,23.4504708 L50.5502684,8.18053223 Z M61.5146715,15.843945 C61.5146715,11.456663 65.1208912,7.89566077 69.9778397,7.89566077 C74.8058618,7.89566077 78.3831552,11.3997759 78.3831552,15.843945 C78.3831552,20.2312271 74.776713,23.7922293 69.9197645,23.7922293 C65.0917424,23.7922293 61.5146715,20.2881142 61.5146715,15.843945 Z M81.581514,8.18053223 L86.0023428,8.18053223 L86.0023428,10.3457297 C87.0201036,9.06369915 88.3289075,7.89566077 90.5684707,7.89566077 C93.9130186,7.89566077 95.8617612,10.0606403 95.8617612,13.5647554 L95.8617612,23.4504708 L91.4407099,23.4504708 L91.4407099,14.9324436 C91.4407099,12.8812383 90.452098,11.8271921 88.7652496,11.8271921 C87.0784012,11.8271921 86.0023428,12.8812383 86.0023428,14.9324436 L86.0023428,23.4504708 L81.581514,23.4504708 L81.581514,8.18053223 Z M98.9439699,15.843945 C98.9439699,11.4852155 102.11407,7.89566077 106.651271,7.89566077 C111.857116,7.89566077 114.241978,11.8557446 114.241978,16.1859216 C114.241978,16.5276801 114.212829,16.9265438 114.183903,17.3254074 L103.33565,17.3254074 C103.771769,19.2911731 105.16802,20.3166667 107.145466,20.3166667 C108.62894,20.3166667 109.704999,19.860916 110.926579,18.7497647 L113.45674,20.9435147 C112.002637,22.7096306 109.908595,23.7922293 107.087614,23.7922293 C102.405113,23.7922293 98.9439699,20.5732036 98.9439699,15.843945 Z M117.062737,18.8923094 L121.774387,18.8923094 L121.774387,23.4504708 L117.062737,23.4504708 L117.062737,18.8923094 Z M26.237045,14.6188016 C25.9751507,12.6818064 24.8118684,11.3712234 22.9505722,11.3712234 C21.1182023,11.3712234 19.9257711,12.6532539 19.5768754,14.6188016 L26.237045,14.6188016 Z M74.0204015,15.843945 C74.0204015,13.5933079 72.3627019,11.6277602 69.9197645,11.6277602 C67.3896032,11.6277602 65.8772027,13.5362029 65.8772027,15.843945 C65.8772027,18.0945822 67.5349023,20.0603478 69.9778397,20.0603478 C72.5082235,20.0603478 74.0204015,18.1514693 74.0204015,15.843945 Z M109.937522,14.6188016 C109.67585,12.6818064 108.512568,11.3712234 106.651271,11.3712234 C104.818902,11.3712234 103.62647,12.6532539 103.277575,14.6188016 L109.937522,14.6188016 Z" id="Combined-Shape"></path>
        </g>
    </g>
</svg>