<?xml version="1.0" encoding="UTF-8"?>
<svg width="667px" height="131px" viewBox="0 0 667 131" version="1.1" xmlns="http://www.w3.org/2000/svg" xmlns:xlink="http://www.w3.org/1999/xlink">
    <!-- Generator: Sketch 52.4 (67378) - http://www.bohemiancoding.com/sketch -->
    <title>Asset 1</title>
    <desc>Created with Sketch.</desc>
    <g id="Page-1" stroke="none" stroke-width="1" fill="none" fill-rule="evenodd">
        <g id="Asset-1">
            <g id="Group" fill="#F9A01D" fill-rule="nonzero">
                <path d="M145.7,24 L43,24 L43,0 L156.47,0 L145.7,24 Z M47.7,19.27 L142.62,19.27 L149.14,4.76 L47.72,4.76 L47.7,19.27 Z" id="Shape"></path>
                <path d="M112.2,59.5 L0,59.5 L0,35.5 L112.2,35.5 L112.2,59.5 Z M4.73,54.77 L107.47,54.77 L107.47,40.25 L4.73,40.25 L4.73,54.77 Z" id="Shape"></path>
                <path d="M90.7,95 L43,95 L43,71 L90.7,71 L90.7,95 Z M47.7,90.27 L86,90.27 L86,75.77 L47.72,75.77 L47.7,90.27 Z" id="Shape"></path>
                <path d="M69.21,130.56 L43,130.56 L43,106.56 L69.21,106.56 L69.21,130.56 Z M47.72,125.83 L64.48,125.83 L64.48,111.3 L47.72,111.3 L47.72,125.83 Z" id="Shape"></path>
            </g>
            <g id="Group" transform="translate(202.000000, 46.000000)" fill="#58595B">
                <path d="M33.75,3.21 C36.08,3.21 36.83,3.96 36.83,6.29 L36.83,11.29 C36.83,13.62 36.08,14.29 33.75,14.29 L12.7,14.29 L12.7,25.08 L30,25.08 C32.33,25.08 33.08,25.83 33.08,28.16 L33.08,33.16 C33.08,35.49 32.33,36.16 30,36.16 L12.7,36.16 L12.7,53.49 C12.7,55.83 11.95,56.58 9.62,56.58 L3.53,56.58 C1.2,56.58 0.45,55.83 0.45,53.49 L0.45,6.29 C0.45,3.96 1.2,3.21 3.53,3.21 L33.75,3.21 Z" id="Path"></path>
                <path d="M50.06,2.53 C54.06,2.53 55.4,3.89 55.4,7.87 L55.4,8.62 C55.4,12.62 54.05,13.96 50.06,13.96 L48.48,13.96 C44.35,13.96 43.15,12.61 43.15,8.62 L43.15,7.87 C43.15,3.87 44.35,2.53 48.48,2.53 L50.06,2.53 Z M52.24,17.53 C54.24,17.53 54.95,18.21 54.95,20.31 L54.95,53.8 C54.95,55.9 54.27,56.58 52.24,56.58 L46.38,56.58 C44.27,56.58 43.6,55.9 43.6,53.8 L43.6,20.27 C43.6,18.17 44.27,17.49 46.38,17.49 L52.24,17.53 Z" id="Shape" fill-rule="nonzero"></path>
                <path d="M82.31,16.36 C93.1366667,16.36 98.55,21.5466667 98.55,31.92 L98.55,53.8 C98.55,55.9 97.87,56.58 95.84,56.58 L90,56.58 C87.9,56.58 87.22,55.9 87.22,53.8 L87.22,32.3 C87.22,28.54 85.11,26.66 80.83,26.66 C79.0534977,26.6396304 77.282918,26.8685266 75.57,27.34 C75.42,27.34 75.34,27.41 75.34,27.64 L75.34,53.8 C75.34,55.9 74.67,56.58 72.56,56.58 L66.77,56.58 C64.67,56.58 63.99,55.9 63.99,53.8 L63.99,23.43 C63.99,20.95 64.59,20.05 66.99,19.07 C71.8700811,17.1726924 77.0751846,16.2519463 82.31,16.36 Z" id="Path"></path>
                <path d="M136.29,3.21 C138.62,3.21 139.37,3.96 139.37,6.29 L139.37,11.29 C139.37,13.62 138.62,14.29 136.29,14.29 L124.56,14.29 L124.56,53.49 C124.56,55.83 123.81,56.58 121.48,56.58 L115.39,56.58 C113.06,56.58 112.39,55.83 112.39,53.49 L112.39,14.33 L100.59,14.33 C98.26,14.33 97.51,13.66 97.51,11.33 L97.51,6.33 C97.51,4 98.26,3.25 100.59,3.25 L136.29,3.21 Z" id="Path"></path>
                <path d="M137.5,33.05 C137.5,22.23 143.89,16.36 155.5,16.36 C167.45,16.36 173.61,22.98 173.61,32.22 L173.61,36.81 C173.61,39.29 172.33,40.57 169.7,40.57 L148.85,40.57 L148.85,42.45 C148.85,46.45 151.1,48.39 155.61,48.39 C158.84,48.39 161.25,47.39 162.75,45.39 C164.03,43.58 164.93,43.28 167.11,44.39 L170.79,46.27 C172.79,47.27 173.12,48.75 172,50.71 C169.07,55.36 163.58,57.71 155.46,57.71 C143.13,57.71 137.46,51.17 137.46,41.03 L137.5,33.05 Z M162.23,31.17 C162.23,27.34 159.97,25.38 155.54,25.38 C151.11,25.38 148.85,27.38 148.85,31.17 L148.85,32.37 L162.23,32.37 L162.23,31.17 Z" id="Shape" fill-rule="nonzero"></path>
                <path d="M179.9,32.3 C179.9,22.15 185.76,16.36 197.78,16.36 C206.43,16.36 212.14,20.36 214.25,26.36 C214.92,28.54 214.4,29.44 212.25,30.27 L207.44,31.85 C205.26,32.68 204.29,32.15 203.44,29.97 C202.39,27.41 200.36,26.13 197.27,26.13 C193.223333,26.13 191.196667,28.01 191.19,31.77 L191.19,42.3 C191.19,46.0533333 193.216667,47.93 197.27,47.93 C200.36,47.93 202.39,46.66 203.44,44.1 C204.27,41.99 205.24,41.62 207.44,42.3 L212.33,43.8 C214.43,44.48 215.11,45.8 214.28,47.8 C211.5,54.42 205.71,57.72 196.99,57.72 C185.57,57.72 179.86,52.39 179.86,41.79 L179.9,32.3 Z" id="Path"></path>
                <path d="M230.19,1 C232.29,1 232.97,1.67 232.97,3.78 L232.97,16.89 L233.97,16.74 C235.938846,16.4762832 237.9236,16.3493124 239.91,16.36 C250.73,16.36 256.143333,21.5466667 256.15,31.92 L256.15,53.8 C256.15,55.9 255.47,56.58 253.44,56.58 L247.58,56.58 C245.47,56.58 244.79,55.9 244.79,53.8 L244.79,32.3 C244.79,28.54 242.69,26.66 238.41,26.66 C236.665881,26.6475542 234.925602,26.8252705 233.22,27.19 L232.92,27.26 L232.92,53.8 C232.92,55.9 232.24,56.58 230.14,56.58 L224.4,56.58 C222.3,56.58 221.62,55.9 221.62,53.8 L221.62,3.74 C221.62,1.63 222.3,0.96 224.4,0.96 L230.19,1 Z" id="Path"></path>
                <path d="M282.59,20.42 C282.59,9 289.65,2.16 302.59,2.16 C314.02,2.16 319.59,6.44 322.21,15.39 C322.36,15.84 322.21,16.06 321.76,16.14 L320.93,16.44 C320.771159,16.5177425 320.585822,16.5201348 320.425028,16.4465181 C320.264233,16.3729014 320.14494,16.2310398 320.1,16.06 C317.62,7.87 312.81,4.19 302.59,4.19 C290.94,4.19 284.85,10.19 284.85,20.35 L284.85,39.35 C284.85,49.49 291.17,55.58 302.59,55.58 C313.04,55.58 317.85,51.67 320.33,43.25 C320.48,42.88 320.71,42.73 321.08,42.88 L321.98,43.18 C322.36,43.25 322.43,43.55 322.36,44 C319.88,53.1 314.36,57.61 302.59,57.61 C289.74,57.61 282.59,50.77 282.59,39.27 L282.59,20.42 Z" id="Path"></path>
                <path d="M346,17.12 C357.72,17.12 360.28,23.8 360.28,31.55 L360.28,51.39 C360.28,54.02 359.68,54.77 357.57,55.68 C353.880529,57.0898078 349.947748,57.7526361 346,57.63 C339.91,57.63 335.7,56.73 333.52,54.85 C331.34,52.97 330.14,50.19 330.14,46.28 C330.14,38.16 334.57,35.15 346.3,35.15 C348.553333,35.15 352.553333,35.4533333 358.3,36.06 L358.3,31.47 C358.3,24.63 356.3,18.99 345.97,18.99 C340.04,18.99 335.75,21.33 333.27,25.91 C333.120023,26.1720585 332.809334,26.2963339 332.52,26.21 L331.77,25.91 C331.32,25.76 331.24,25.46 331.47,25.08 C334.08,19.75 339,17.12 346,17.12 Z M358.25,37.86 C354.250917,37.1953908 350.203933,36.8609293 346.15,36.86 C335.93,36.86 332.24,39.42 332.24,46.26 C332.24,49.57 333.24,51.97 335.1,53.47 C336.96,54.97 340.59,55.81 345.92,55.81 C349.460382,55.9257668 352.988536,55.337741 356.3,54.08 C358.03,53.4 358.3,52.95 358.3,51.08 L358.25,37.86 Z" id="Shape" fill-rule="nonzero"></path>
                <path d="M409.25,17.12 C417.9,17.12 422.18,21.7 422.18,30.8 L422.18,56.05 C422.18,56.43 422.03,56.58 421.66,56.58 L420.66,56.58 C420.28,56.58 420.13,56.43 420.13,56.05 L420.13,31 C420.13,22.8 416.67,19 409.13,19 C404.692081,18.9394392 400.332118,20.1692615 396.58,22.54 C398.01775,25.0510987 398.711418,27.9194169 398.58,30.81 L398.58,56.06 C398.58,56.44 398.43,56.59 398.06,56.59 L397.06,56.59 C396.69,56.59 396.54,56.44 396.54,56.06 L396.54,31 C396.54,23 392.78,19 385.19,19 C381.941397,18.9007429 378.716809,19.5868255 375.79,21 C374.629127,21.5335382 373.914476,22.7246231 373.99,24 L373.99,56 C373.99,56.38 373.84,56.53 373.46,56.53 L372.46,56.53 C372.09,56.53 371.94,56.38 371.94,56 L371.94,23.58 C371.94,21.4 372.61,20.42 374.72,19.29 C378.052568,17.80157 381.670625,17.0608921 385.32,17.12 C389.9,17.12 393.32,18.39 395.46,20.87 C399.627539,18.3831429 404.396992,17.086156 409.25,17.12 Z" id="Path"></path>
                <path d="M449.4,17.12 C459.633333,17.12 464.746667,22.08 464.74,32 L464.74,43.2 C464.74,52.82 460,57.63 450.46,57.63 C445.518785,57.6346049 440.657157,56.3856518 436.33,54 L436.33,72.57 C436.33,72.94 436.17,73.09 435.8,73.09 L434.8,73.09 C434.42,73.09 434.27,72.94 434.27,72.57 L434.27,23.36 C434.27,20.95 434.88,20.2 437.27,19.22 C441.131041,17.7116566 445.256606,16.9974203 449.4,17.12 Z M462.71,32.07 C462.71,23.3566667 458.2,19 449.18,19 C445.499916,18.9521382 441.846634,19.6318185 438.43,21 C436.55,21.83 436.33,22 436.33,23.85 L436.33,51.92 C440.564594,54.4388708 445.402898,55.7624926 450.33,55.75 C458.52,55.75 462.66,51.54 462.66,43.2 L462.71,32.07 Z" id="Shape" fill-rule="nonzero"></path>
            </g>
        </g>
    </g>
</svg>