<?xml version="1.0" encoding="UTF-8"?>
<svg width="665px" height="180px" viewBox="0 0 665 180" version="1.1" xmlns="http://www.w3.org/2000/svg" xmlns:xlink="http://www.w3.org/1999/xlink">
    <!-- Generator: Sketch 50.2 (55047) - http://www.bohemiancoding.com/sketch -->
    <title>Group</title>
    <desc>Created with Sketch.</desc>
    <defs>
        <path d="M124.279495,179.94 C124.274425,179.346075 124.231409,174.507322 124.162,172.819 C123.828,164.583 122.518,156.608 120.323,149.074 L120.359,149.064 C119.079,144.08 118.398,138.856 118.398,133.473 C118.398,120.731 121.453,108.027 128.194,98.342 C130.35,95.246 132.881,92.458 135.811,90.077 C139.977,86.691 151.397,79.892 157.144,76.533 C158.855,75.533 159.09,73.151 157.606,71.836 C147.112,62.535 134.293,55.8 120.131,52.612 C114.119,51.258 107.866,50.543 101.446,50.543 C76.181,50.543 52.556,60.813 37.981,79.149 C35.038,82.85 29.53,90.555 27.006,94.553 C23.414,100.243 19.588,105.76 14.976,110.599 L4.171,120.817 C1.461,112.123 0,102.878 0,93.291 C0,42.277 41.356,0.921 92.37,0.921 C143.385,0.921 184.741,42.277 184.741,93.291 C184.741,133.02888 159.647252,166.904805 124.442516,179.94 L124.279495,179.94 Z" id="path-1"></path>
        <linearGradient x1="0%" y1="50.0168697%" x2="27.795607%" y2="50.0168697%" id="linearGradient-3">
            <stop stop-color="#EA8A2E" offset="0%"></stop>
            <stop stop-color="#FBDA28" offset="100%"></stop>
        </linearGradient>
    </defs>
    <g id="Page-1" stroke="none" stroke-width="1" fill="none" fill-rule="evenodd">
        <g id="icofintech">
            <g id="Group">
                <path d="M252.422,118.012 C251.58,117.17 251.16,116.132 251.16,114.896 L251.16,57.901 C251.16,56.611 251.58,55.559 252.422,54.745 C253.264,53.932 254.302,53.524 255.537,53.524 C256.828,53.524 257.88,53.932 258.694,54.745 C259.507,55.559 259.915,56.611 259.915,57.901 L259.915,114.896 C259.915,116.132 259.507,117.17 258.694,118.012 C257.88,118.853 256.828,119.274 255.537,119.274 C254.302,119.274 253.264,118.853 252.422,118.012" id="Fill-1" fill="#0A0B09"></path>
                <path d="M288.664,115.654 C283.697,112.68 279.782,108.611 276.92,103.447 C274.057,98.284 272.626,92.587 272.626,86.357 C272.626,80.183 274.057,74.528 276.92,69.394 C279.782,64.258 283.697,60.189 288.664,57.186 C293.631,54.184 299.116,52.682 305.122,52.682 C309.387,52.682 313.078,53.244 316.193,54.366 C319.308,55.489 322.464,57.342 325.663,59.922 C326.337,60.428 326.786,60.947 327.011,61.479 C327.236,62.014 327.347,62.645 327.347,63.374 C327.347,64.497 326.941,65.424 326.126,66.152 C325.314,66.882 324.372,67.246 323.306,67.246 C322.24,67.246 321.257,66.882 320.361,66.152 C318.058,64.188 315.814,62.771 313.625,61.9 C311.436,61.031 308.602,60.596 305.122,60.596 C300.745,60.596 296.717,61.747 293.041,64.048 C289.365,66.349 286.446,69.478 284.286,73.434 C282.125,77.391 281.045,81.699 281.045,86.357 C281.045,91.071 282.125,95.395 284.286,99.322 C286.446,103.251 289.365,106.366 293.041,108.667 C296.717,110.969 300.745,112.118 305.122,112.118 C310.511,112.118 315.674,110.267 320.613,106.562 C321.566,105.889 322.494,105.552 323.392,105.552 C324.456,105.552 325.341,105.931 326.042,106.688 C326.744,107.446 327.095,108.443 327.095,109.677 C327.095,110.855 326.646,111.894 325.749,112.792 C319.687,117.675 312.811,120.116 305.122,120.116 C299.116,120.116 293.631,118.63 288.664,115.654" id="Fill-2" fill="#0A0B09"></path>
                <path d="M380.015,108.793 C383.83,106.519 386.805,103.42 388.939,99.49 C391.071,95.562 392.138,91.184 392.138,86.357 C392.138,81.531 391.071,77.153 388.939,73.224 C386.805,69.296 383.845,66.209 380.057,63.963 C376.268,61.719 371.96,60.596 367.134,60.596 C362.306,60.596 357.999,61.719 354.211,63.963 C350.423,66.209 347.461,69.296 345.329,73.224 C343.196,77.153 342.13,81.531 342.13,86.357 C342.13,91.184 343.196,95.562 345.329,99.49 C347.461,103.42 350.436,106.519 354.253,108.793 C358.07,111.066 362.363,112.203 367.134,112.203 C371.904,112.203 376.198,111.066 380.015,108.793 Z M349.749,115.822 C344.669,112.96 340.727,108.962 337.921,103.826 C335.114,98.69 333.711,92.868 333.711,86.357 C333.711,79.847 335.114,74.038 337.921,68.931 C340.727,63.824 344.669,59.838 349.749,56.975 C354.828,54.113 360.622,52.682 367.134,52.682 C373.587,52.682 379.354,54.113 384.435,56.975 C389.513,59.838 393.47,63.824 396.305,68.931 C399.138,74.038 400.556,79.847 400.556,86.357 C400.556,92.868 399.138,98.69 396.305,103.826 C393.47,108.962 389.528,112.96 384.477,115.822 C379.425,118.685 373.644,120.116 367.134,120.116 C360.622,120.116 354.828,118.685 349.749,115.822 Z" id="Fill-3" fill="#0A0B09"></path>
                <path d="M436.588,118.012 C435.746,117.17 435.326,116.132 435.326,114.896 L435.326,57.901 C435.326,56.611 435.746,55.559 436.588,54.745 C437.43,53.932 438.468,53.524 439.703,53.524 L477.755,53.524 C479.046,53.524 480.084,53.903 480.87,54.66 C481.656,55.418 482.049,56.415 482.049,57.649 C482.049,58.828 481.656,59.783 480.87,60.512 C480.084,61.241 479.046,61.606 477.755,61.606 L444.08,61.606 L444.08,82.063 L468.243,82.063 C469.476,82.063 470.501,82.442 471.316,83.2 C472.128,83.958 472.536,84.926 472.536,86.104 C472.536,87.283 472.128,88.251 471.316,89.009 C470.501,89.766 469.476,90.145 468.243,90.145 L444.08,90.145 L444.08,114.896 C444.08,116.132 443.66,117.17 442.818,118.012 C441.976,118.853 440.937,119.274 439.703,119.274 C438.468,119.274 437.43,118.853 436.588,118.012" id="Fill-4" fill="#0A0B09"></path>
                <path d="M493.701,118.054 C492.886,117.241 492.48,116.216 492.48,114.98 L492.48,77.517 C492.48,76.226 492.886,75.189 493.701,74.402 C494.513,73.617 495.538,73.224 496.773,73.224 C498.064,73.224 499.102,73.617 499.888,74.402 C500.673,75.189 501.067,76.226 501.067,77.517 L501.067,114.98 C501.067,116.216 500.673,117.241 499.888,118.054 C499.102,118.868 498.064,119.274 496.773,119.274 C495.538,119.274 494.513,118.868 493.701,118.054 Z M492.859,64.09 C491.764,62.995 491.217,61.69 491.217,60.175 C491.217,58.659 491.764,57.354 492.859,56.26 C493.953,55.166 495.258,54.618 496.773,54.618 C498.288,54.618 499.593,55.166 500.688,56.26 C501.783,57.354 502.329,58.659 502.329,60.175 C502.329,61.69 501.783,62.995 500.688,64.09 C499.593,65.183 498.288,65.731 496.773,65.731 C495.258,65.731 493.953,65.183 492.859,64.09 Z" id="Fill-5" fill="#0A0B09"></path>
                <path d="M549.061,75.328 C552.147,77.013 554.561,79.468 556.301,82.695 C558.04,85.923 558.911,89.808 558.911,94.354 L558.911,115.065 C558.911,116.3 558.503,117.325 557.69,118.138 C556.876,118.952 555.851,119.358 554.618,119.358 C553.382,119.358 552.358,118.952 551.544,118.138 C550.73,117.325 550.324,116.3 550.324,115.065 L550.324,94.354 C550.324,89.808 549.103,86.372 546.661,84.042 C544.22,81.714 540.979,80.548 536.938,80.548 C534.58,80.548 532.434,81.025 530.497,81.979 C528.561,82.934 527.046,84.224 525.952,85.851 C524.857,87.48 524.31,89.304 524.31,91.324 L524.31,115.065 C524.31,116.3 523.916,117.325 523.131,118.138 C522.345,118.952 521.307,119.358 520.016,119.358 C518.781,119.358 517.756,118.952 516.944,118.138 C516.129,117.325 515.723,116.3 515.723,115.065 L515.723,77.517 C515.723,76.226 516.129,75.189 516.944,74.402 C517.756,73.617 518.781,73.224 520.016,73.224 C521.307,73.224 522.345,73.617 523.131,74.402 C523.916,75.189 524.31,76.226 524.31,77.517 L524.31,78.443 C526.106,76.647 528.238,75.259 530.708,74.276 C533.177,73.295 535.815,72.803 538.621,72.803 C542.495,72.803 545.974,73.645 549.061,75.328" id="Fill-6" fill="#0A0B09"></path>
                <path d="M581.271,116.58 C577.735,114.559 574.97,111.768 572.978,108.204 C570.986,104.641 569.99,100.669 569.99,96.291 C569.99,91.802 570.957,87.775 572.894,84.21 C574.83,80.646 577.537,77.869 581.018,75.876 C584.497,73.884 588.426,72.887 592.804,72.887 C599.426,72.887 604.927,75.413 609.305,80.464 C609.866,81.082 610.147,81.811 610.147,82.653 C610.147,83.888 609.529,84.926 608.295,85.767 C607.733,86.161 607.087,86.357 606.359,86.357 C605.067,86.357 603.972,85.851 603.076,84.842 C601.671,83.326 600.142,82.219 598.487,81.516 C596.83,80.815 594.937,80.464 592.804,80.464 C588.482,80.464 584.975,81.909 582.281,84.8 C579.587,87.691 578.24,91.521 578.24,96.291 C578.24,99.322 578.871,102.03 580.134,104.415 C581.397,106.802 583.164,108.667 585.438,110.014 C587.711,111.36 590.306,112.034 593.225,112.034 C597.041,112.034 600.128,111.053 602.486,109.088 C603.551,108.303 604.59,107.909 605.601,107.909 C606.386,107.909 607.117,108.162 607.789,108.667 C608.855,109.565 609.389,110.575 609.389,111.697 C609.389,112.539 609.052,113.297 608.379,113.971 C604.338,117.731 599.286,119.611 593.225,119.611 C588.791,119.611 584.806,118.601 581.271,116.58" id="Fill-7" fill="#0A0B09"></path>
                <path d="M654.791,75.328 C657.877,77.013 660.291,79.468 662.032,82.695 C663.771,85.923 664.641,89.808 664.641,94.354 L664.641,115.065 C664.641,116.3 664.234,117.325 663.42,118.138 C662.607,118.952 661.581,119.358 660.348,119.358 C659.113,119.358 658.088,118.952 657.275,118.138 C656.46,117.325 656.054,116.3 656.054,115.065 L656.054,94.354 C656.054,89.808 654.833,86.372 652.392,84.042 C649.951,81.714 646.709,80.548 642.668,80.548 C640.311,80.548 638.164,81.025 636.228,81.979 C634.291,82.934 632.777,84.224 631.682,85.851 C630.587,87.48 630.04,89.304 630.04,91.324 L630.04,115.065 C630.04,116.3 629.647,117.325 628.862,118.138 C628.076,118.952 627.037,119.358 625.746,119.358 C624.511,119.358 623.487,118.952 622.674,118.138 C621.86,117.325 621.453,116.3 621.453,115.065 L621.453,57.817 C621.453,56.527 621.86,55.489 622.674,54.703 C623.487,53.917 624.511,53.524 625.746,53.524 C627.037,53.524 628.076,53.917 628.862,54.703 C629.647,55.489 630.04,56.527 630.04,57.817 L630.04,78.443 C631.836,76.647 633.968,75.259 636.439,74.276 C638.908,73.295 641.545,72.803 644.352,72.803 C648.225,72.803 651.704,73.645 654.791,75.328" id="Fill-8" fill="#0A0B09"></path>
                <path d="M117.884,49.866 C117.884,49.866 128.109,69.92 128.875,98.521 C129.185,110.13 163.263,76.252 163.263,76.252 C163.263,76.252 140.607,42.746 117.884,49.866" id="Fill-9" fill="#0A0B09"></path>
                <path d="M129.935,98.218 C129.935,98.218 131.082,91.791 129.329,82.652 C128.081,76.144 130.983,80.033 141.518,80.033 C151.889,80.033 155.633,78.848 155.633,78.848 L140.153,94.431 L129.935,98.218" id="Fill-10" fill="#D2372B"></path>
                <path d="M121.073,51.407 C121.073,51.407 125.693,62.92 127.89,75.04 C128.471,78.244 153.037,79.812 158.34,75.873 C161.622,73.435 157.442,46.751 121.073,51.407" id="Fill-11" fill="#D2372B"></path>
                <g id="Group-14">
                    <mask id="mask-2" fill="white">
                        <use xlink:href="#path-1"></use>
                    </mask>
                    <g id="Clip-13"></g>
                    <polygon id="Fill-12" fill="url(#linearGradient-3)" mask="url(#mask-2)" points="0 179.94 664.641 179.94 664.641 0.921 0 0.921"></polygon>
                </g>
                <path d="M99.561,72.026 C99.561,76.701 95.772,80.49 91.097,80.49 C86.422,80.49 82.633,76.701 82.633,72.026 C82.633,67.352 86.422,63.562 91.097,63.562 C95.772,63.562 99.561,67.352 99.561,72.026" id="Fill-15" fill="#0A0B09"></path>
                <path d="M88.674,68.949 C88.674,71.256 86.805,73.125 84.498,73.125 C82.192,73.125 80.322,71.256 80.322,68.949 C80.322,66.643 82.192,64.773 84.498,64.773 C86.805,64.773 88.674,66.643 88.674,68.949" id="Fill-16" fill="#FFFFFE"></path>
            </g>
        </g>
    </g>
</svg>