<?xml version="1.0" encoding="UTF-8"?>
<svg width="727px" height="312px" viewBox="0 0 727 312" version="1.1" xmlns="http://www.w3.org/2000/svg" xmlns:xlink="http://www.w3.org/1999/xlink">
    <!-- Generator: Sketch 50.2 (55047) - http://www.bohemiancoding.com/sketch -->
    <title>Combined Shape</title>
    <desc>Created with Sketch.</desc>
    <defs></defs>
    <g id="Page-1" stroke="none" stroke-width="1" fill="none" fill-rule="evenodd">
        <g id="ICOHOLDER_LOGO" fill="#000000" fill-rule="nonzero">
            <g id="Group">
                <path d="M264.7,221.7 C262.2,220.2 260.1,218.1 258.8,215.6 L276.1,215.6 L361,264.6 C362.4,265.4 364.2,265.4 365.6,264.6 L450.5,215.6 L467.8,215.6 C466.5,218.1 464.4,220.2 461.9,221.7 L371.1,274.1 C368.7,275.5 366,276.2 363.3,276.2 C360.6,276.2 357.9,275.5 355.5,274.1 L264.7,221.7 Z M355.2,72.4 C360.2,69.5 366.5,69.5 371.4,72.4 L412,95.9 L390,95.9 L365.9,82 C364.3,81.1 362.3,81.1 360.7,82 L336.6,95.9 L314.6,95.9 L355.2,72.4 Z M237.6,95.9 L237.6,96 L226.6,96 L226.6,86 C226.6,80.3 229.6,75.1 234.5,72.3 L355.5,2.4 C360.4,-0.4 366.4,-0.4 371.3,2.4 L492.3,72.3 C497.2,75.1 500.2,80.3 500.2,85.9 L500.2,95.9 L489.2,95.9 L489.2,85.9 C489.2,84.2 488.3,82.6 486.8,81.8 L365.8,11.9 C364.3,11.1 362.5,11.1 361,11.9 L240,81.8 C238.5,82.6 237.6,84.2 237.6,85.9 L237.6,95.9 Z M363.3,241.2 C360.5,241.2 357.7,240.5 355.3,239.1 L314.7,215.6 L336.7,215.6 L360.8,229.5 C362.4,230.4 364.4,230.4 366,229.5 L390,215.5 L412,215.5 L371.4,239 C368.9,240.5 366.1,241.2 363.3,241.2 Z M489.1,215.6 L489.1,215.5 L500.1,215.5 L500.1,225.5 C500.1,231.2 497.1,236.4 492.2,239.2 L371.2,309.1 C368.8,310.5 366,311.2 363.3,311.2 C360.6,311.2 357.8,310.5 355.4,309.1 L234.4,239.2 C229.5,236.4 226.5,231.2 226.5,225.6 L226.5,215.6 L237.5,215.6 L237.5,225.6 C237.5,227.3 238.4,228.9 239.9,229.7 L360.9,299.6 C362.4,300.4 364.2,300.4 365.7,299.6 L486.7,229.7 C488.2,228.9 489.1,227.3 489.1,225.6 L489.1,215.6 Z M462,89.8 C464.5,91.2 466.5,93.4 467.9,95.9 L450.6,95.9 L365.7,46.9 C364.3,46.1 362.5,46.1 361.1,46.9 L276.2,95.9 L258.9,95.9 C260.2,93.4 262.3,91.3 264.8,89.8 L355.6,37.4 C360.4,34.6 366.4,34.6 371.2,37.4 L462,89.8 Z M13.1,201.2 L0.8,201.2 L0.8,110.2 L13.1,110.2 L13.1,201.2 Z M101.6,182.4 C102.3,182.4 102.9,182.7 103.4,183.2 L108.2,188.5 C104.5,192.8 100,196.2 94.6,198.6 C89.2,201 82.9,202.2 75.4,202.2 C68.8,202.2 62.9,201.1 57.6,198.8 C52.3,196.5 47.7,193.4 44,189.3 C40.3,185.2 37.3,180.3 35.2,174.6 C33.1,168.9 32.1,162.6 32.1,155.7 C32.1,148.8 33.2,142.6 35.4,136.8 C37.6,131.1 40.7,126.2 44.8,122.1 C48.8,118 53.6,114.8 59.2,112.5 C64.8,110.2 71,109.1 77.8,109.1 C84.5,109.1 90.3,110.1 95.1,112.2 C99.9,114.3 104.3,117.1 108,120.6 L104,126.3 C103.7,126.7 103.4,127.1 103,127.3 C102.6,127.6 102.1,127.7 101.3,127.7 C100.7,127.7 100.2,127.5 99.6,127.1 C99,126.7 98.3,126.2 97.4,125.6 C96.6,125 95.6,124.4 94.4,123.7 C93.2,123 91.9,122.4 90.3,121.8 C88.7,121.2 86.9,120.7 84.8,120.3 C82.7,119.9 80.3,119.7 77.6,119.7 C72.7,119.7 68.3,120.5 64.2,122.2 C60.2,123.9 56.7,126.3 53.8,129.3 C50.9,132.4 48.6,136.2 47,140.6 C45.4,145 44.6,150 44.6,155.5 C44.6,161.2 45.4,166.2 47,170.7 C48.6,175.2 50.9,178.9 53.7,182 C56.5,185.1 59.8,187.4 63.7,189 C67.6,190.6 71.7,191.4 76.1,191.4 C78.8,191.4 81.2,191.2 83.4,190.9 C85.6,190.6 87.6,190.1 89.4,189.4 C91.2,188.7 93,187.9 94.5,186.8 C96.1,185.8 97.7,184.5 99.3,183.1 C100.3,182.7 101,182.4 101.6,182.4 Z M209,155.8 C209,162.6 207.9,168.9 205.8,174.6 C203.6,180.3 200.6,185.2 196.7,189.3 C192.8,193.4 188,196.6 182.5,198.9 C177,201.2 170.9,202.3 164.2,202.3 C157.5,202.3 151.4,201.2 145.9,198.9 C140.4,196.6 135.7,193.5 131.7,189.3 C127.8,185.2 124.7,180.3 122.6,174.6 C120.4,168.9 119.4,162.7 119.4,155.8 C119.4,149 120.5,142.7 122.6,137 C124.8,131.3 127.8,126.4 131.7,122.3 C135.6,118.2 140.4,115 145.9,112.7 C151.4,110.4 157.5,109.3 164.2,109.3 C170.9,109.3 177,110.4 182.5,112.7 C188,115 192.8,118.2 196.7,122.3 C200.6,126.4 203.7,131.3 205.8,137 C207.9,142.7 209,149 209,155.8 Z M299.6,201.2 L287.2,201.2 L287.2,159.8 L238.2,159.8 L238.2,201.2 L225.8,201.2 L225.8,110.2 L238.2,110.2 L238.2,150.8 L287.2,150.8 L287.2,110.2 L299.6,110.2 L299.6,201.2 Z M406.3,155.8 C406.3,162.6 405.2,168.9 403.1,174.6 C400.9,180.3 397.9,185.2 394,189.3 C390.1,193.4 385.3,196.6 379.8,198.9 C374.3,201.2 368.2,202.3 361.5,202.3 C354.8,202.3 348.7,201.2 343.2,198.9 C337.7,196.6 333,193.5 329,189.3 C325.1,185.2 322,180.3 319.9,174.6 C317.7,168.9 316.7,162.7 316.7,155.8 C316.7,149 317.8,142.7 319.9,137 C322.1,131.3 325.1,126.4 329,122.3 C332.9,118.2 337.7,115 343.2,112.7 C348.7,110.4 354.8,109.3 361.5,109.3 C368.2,109.3 374.3,110.4 379.8,112.7 C385.3,115 390.1,118.2 394,122.3 C397.9,126.4 401,131.3 403.1,137 C405.2,142.7 406.3,149 406.3,155.8 Z M435.4,190.9 L474.8,190.9 L474.8,201.2 L423.1,201.2 L423.1,110.2 L435.4,110.2 L435.4,190.9 Z M567.2,155.8 C567.2,162.6 566.1,168.8 564,174.4 C561.8,180 558.8,184.8 554.9,188.7 C551,192.7 546.2,195.8 540.7,197.9 C535.2,200.1 529.1,201.2 522.4,201.2 L488.4,201.2 L488.4,110.2 L522.4,110.2 C529.1,110.2 535.2,111.3 540.7,113.5 C546.2,115.7 550.9,118.8 554.9,122.8 C558.9,126.8 561.9,131.6 564,137.2 C566.1,142.8 567.2,149 567.2,155.8 Z M640,110.3 L640,120.3 L596.3,120.3 L596.3,150.5 L631.7,150.5 L631.7,160.1 L596.3,160.1 L596.3,191.1 L640,191.1 L640,201.1 L584,201.1 L584,110.1 L640,110.1 L640,110.3 Z M671.2,163.3 L671.2,201.3 L659,201.3 L659,110.3 L684.7,110.3 C690.5,110.3 695.4,110.9 699.6,112 C703.8,113.2 707.3,114.8 710,117 C712.7,119.2 714.8,121.9 716.1,125 C717.4,128.1 718.1,131.6 718.1,135.4 C718.1,138.6 717.6,141.6 716.6,144.4 C715.6,147.2 714.1,149.7 712.2,151.9 C710.3,154.1 707.9,156 705.2,157.6 C702.4,159.2 699.3,160.4 695.8,161.2 C697.3,162.1 698.7,163.4 699.9,165.1 L726.4,201.2 L715.5,201.2 C713.3,201.2 711.6,200.3 710.5,198.6 L686.9,166.1 C686.2,165.1 685.4,164.4 684.6,163.9 C683.8,163.5 682.5,163.2 680.8,163.2 L671.2,163.2 L671.2,163.3 Z M196.4,155.8 C196.4,150.2 195.6,145.2 194.1,140.8 C192.6,136.4 190.4,132.6 187.6,129.5 C184.8,126.4 181.4,124.1 177.4,122.4 C173.4,120.7 169,119.9 164.1,119.9 C159.2,119.9 154.8,120.7 150.8,122.4 C146.8,124.1 143.4,126.4 140.6,129.5 C137.8,132.6 135.6,136.3 134.1,140.8 C132.6,145.2 131.8,150.3 131.8,155.8 C131.8,161.4 132.6,166.4 134.1,170.8 C135.6,175.2 137.8,179 140.6,182 C143.4,185.1 146.8,187.4 150.8,189 C154.8,190.6 159.2,191.4 164.1,191.4 C169,191.4 173.5,190.6 177.4,189 C181.4,187.4 184.8,185 187.6,182 C190.4,178.9 192.6,175.2 194.1,170.8 C195.6,166.4 196.4,161.4 196.4,155.8 Z M393.6,155.8 C393.6,150.2 392.8,145.2 391.3,140.8 C389.8,136.4 387.6,132.6 384.8,129.5 C382,126.4 378.6,124.1 374.6,122.4 C370.6,120.7 366.2,119.9 361.3,119.9 C356.4,119.9 352,120.7 348,122.4 C344,124.1 340.6,126.4 337.8,129.5 C335,132.6 332.8,136.3 331.3,140.8 C329.8,145.2 329,150.3 329,155.8 C329,161.4 329.8,166.4 331.3,170.8 C332.8,175.2 335,179 337.8,182 C340.6,185.1 344,187.4 348,189 C352,190.6 356.4,191.4 361.3,191.4 C366.2,191.4 370.7,190.6 374.6,189 C378.5,187.4 382,185 384.8,182 C387.6,178.9 389.8,175.2 391.3,170.8 C392.9,166.4 393.6,161.4 393.6,155.8 Z M554.6,155.8 C554.6,150.2 553.8,145.2 552.3,140.8 C550.8,136.4 548.6,132.7 545.8,129.6 C543,126.6 539.6,124.2 535.6,122.6 C531.6,121 527.2,120.2 522.3,120.2 L500.7,120.2 L500.7,191.2 L522.3,191.2 C527.2,191.2 531.6,190.4 535.6,188.8 C539.6,187.2 543,184.9 545.8,181.8 C548.6,178.8 550.8,175.1 552.3,170.7 C553.8,166.3 554.6,161.4 554.6,155.8 Z M671.2,154.3 L684.1,154.3 C687.7,154.3 690.9,153.9 693.6,153 C696.3,152.1 698.6,150.9 700.5,149.3 C702.3,147.7 703.7,145.8 704.7,143.6 C705.6,141.4 706.1,139 706.1,136.3 C706.1,130.9 704.3,126.8 700.7,124 C697.1,121.2 691.8,119.9 684.7,119.9 L671.2,119.9 L671.2,154.3 Z" id="Combined-Shape"></path>
            </g>
        </g>
    </g>
</svg>