<?xml version="1.0" encoding="UTF-8"?>
<svg width="161px" height="24px" viewBox="0 0 161 24" version="1.1" xmlns="http://www.w3.org/2000/svg" xmlns:xlink="http://www.w3.org/1999/xlink">
    <!-- Generator: Sketch 50.2 (55047) - http://www.bohemiancoding.com/sketch -->
    <title>Combined Shape</title>
    <desc>Created with Sketch.</desc>
    <defs>
        <path d="M8.974,21.282 C12.262,18.807 14.761,15.449 14.751,10.491 C14.76,10.008 15.14,9.616 15.617,9.616 C16.09,9.616 16.474,10.013 16.474,10.481 C16.466,15.374 13.244,19.539 8.974,21.282 Z M16.7878679,5.45654229 C16.8737183,4.10738052 17.233166,2.7841987 17.888,1.608 C17.888,1.608 18.557,0.449 19.324,0.891 C19.876,1.21 19.805,1.785 19.553,2.222 L19.152,2.903 C18.6597404,3.8106811 18.29699,4.75276691 18.056561,5.70416157 C20.6387442,6.63971711 20.6357364,9.82122354 20.64,9.892 C20.576,18.073 14.647,23.781 7.767,23.781 C5.128,23.781 2.699,23.06 0.641,21.804 C0.931,21.826 1.223,21.837 1.518,21.837 C7.794,21.837 12.881,16.8 12.881,10.587 C12.881,10.354 12.881,9.714 12.881,9.603 C12.881,6.965 13.954,5.448 16.474,5.448 C16.5813693,5.448 16.6859681,5.45089673 16.7878679,5.45654229 Z M125.641,6.282 L125.641,12.949 L138.974,12.949 L138.974,6.282 L140.641,6.282 L140.641,22.115 L138.974,22.115 L138.974,14.615 L125.641,14.615 L125.641,22.115 L123.974,22.115 L123.974,6.282 L125.641,6.282 Z M155.729,6.282 C156.784,6.282 157.637,6.377 158.286,6.566 C158.936,6.755 159.433,7.036 159.778,7.408 C160.124,7.78 160.353,8.247 160.468,8.808 C160.583,9.369 160.64,10.021 160.64,10.765 L160.64,12.055 C160.64,12.61 160.572,13.072 160.437,13.443 C160.302,13.815 160.113,14.114 159.869,14.34 C159.625,14.566 159.337,14.73 159.006,14.832 C158.675,14.934 158.32,15.007 157.941,15.051 C158.442,15.197 158.858,15.339 159.189,15.522 C159.521,15.704 159.778,15.926 159.961,16.189 C160.143,16.451 160.271,16.739 160.346,17.053 C160.42,17.367 160.458,17.706 160.458,18.07 L160.458,22.116 L158.59,22.116 L158.59,18.638 C158.59,18.026 158.522,17.195 158.387,16.824 C158.251,16.452 158.058,16.172 157.808,15.982 C157.557,15.792 157.249,15.669 156.884,15.61 C156.519,15.552 156.113,15.523 155.667,15.523 L145.561,15.523 L145.561,22.116 L143.974,22.116 L143.974,6.282 L155.729,6.282 Z M27.307,6.282 L31.474,6.282 L31.474,22.115 L27.307,22.115 L27.307,6.282 Z M33.974,6.282 L41.25,6.282 L50.07,17.785 L50.112,17.785 L50.112,6.282 L54.807,6.282 L54.807,22.115 L47.531,22.115 L38.711,10.612 L38.67,10.612 L38.67,22.115 L33.974,22.115 L33.974,6.282 Z M71.697,6.282 C72.885,6.282 73.89,6.384 74.714,6.588 C75.537,6.792 76.203,7.117 76.712,7.561 C77.22,8.006 77.585,8.578 77.807,9.278 C78.029,9.978 78.141,10.817 78.141,11.793 L78.141,16.605 C78.141,17.582 78.029,18.419 77.807,19.12 C77.585,19.82 77.22,20.392 76.712,20.836 C76.203,21.281 75.538,21.606 74.714,21.809 C73.89,22.014 72.885,22.115 71.697,22.115 L57.307,22.115 L57.307,6.282 L71.697,6.282 Z M106.969,14.177 L100.312,6.282 L106.101,6.282 L110.641,11.815 L115.18,6.282 L120.97,6.282 L114.312,14.177 L121.474,22.115 L115.462,22.115 L110.641,16.364 L105.82,22.115 L99.807,22.115 L106.969,14.177 Z M80.273,9.804 C80.583,8.881 81.026,8.159 81.602,7.637 C82.177,7.115 82.857,6.759 83.642,6.568 C84.427,6.378 85.303,6.282 86.272,6.282 L91.086,6.282 C92.473,6.282 93.669,6.378 94.674,6.568 C95.677,6.759 96.495,7.1 97.125,7.592 C97.754,8.084 98.22,8.761 98.521,9.623 C98.822,10.487 98.974,11.58 98.974,12.904 L98.974,15.493 L84.503,15.493 L84.503,16.426 C84.668,18.503 86.272,18.503 87.735,18.503 L91.344,18.503 C92.057,18.503 92.613,18.453 93.015,18.352 C93.417,18.252 93.714,18.122 93.905,17.961 C94.097,17.801 94.215,17.614 94.261,17.404 C94.306,17.193 94.33,16.978 94.33,16.757 L98.975,16.757 L98.975,17.419 C98.975,18.383 98.791,19.171 98.426,19.782 C98.061,20.395 97.563,20.871 96.933,21.212 C96.303,21.554 95.568,21.79 94.729,21.92 C93.889,22.051 92.994,22.116 92.045,22.116 L86.956,22.116 C86.08,22.116 85.217,22.045 84.369,21.905 C83.519,21.765 82.756,21.444 82.082,20.942 C81.406,20.441 80.858,19.708 80.438,18.744 C80.018,17.781 79.808,16.477 79.808,14.831 L79.808,13.356 C79.807,11.911 79.962,10.727 80.273,9.804 Z M158.974,11.395 L158.974,10.535 C158.974,7.949 157.661,7.949 155.633,7.949 L145.64,7.949 L145.64,13.782 L155.633,13.782 C157.712,13.782 158.974,13.782 158.974,11.395 Z M70.318,18.597 C70.793,18.597 71.196,18.553 71.526,18.465 C71.856,18.376 72.124,18.225 72.328,18.011 C72.533,17.798 72.684,17.506 72.783,17.138 C72.882,16.769 72.932,16.297 72.932,15.722 L72.932,12.675 C72.932,12.1 72.883,11.628 72.783,11.26 C72.684,10.891 72.533,10.6 72.328,10.386 C72.123,10.173 71.856,10.021 71.526,9.932 C71.196,9.844 70.793,9.8 70.318,9.8 L62.515,9.8 L62.515,18.596 L70.318,18.596 L70.318,18.597 Z M94.633,11.083 C94.516,10.741 94.302,10.473 93.991,10.276 C93.68,10.081 93.262,9.953 92.736,9.891 C92.21,9.831 90.373,9.8 89.556,9.8 C88.642,9.8 86.976,9.831 86.441,9.892 C85.906,9.954 85.497,10.082 85.215,10.277 C84.933,10.473 84.748,10.742 84.661,11.084 C84.573,11.427 84.53,11.878 84.53,12.44 L94.808,12.44 C94.807,11.878 94.749,11.426 94.633,11.083 Z" id="path-1"></path>
    </defs>
    <g id="Page-1" stroke="none" stroke-width="1" fill="none" fill-rule="evenodd">
        <mask id="mask-2" fill="white">
            <use xlink:href="#path-1"></use>
        </mask>
        <use id="Combined-Shape" fill="#EB1E25" xlink:href="#path-1"></use>
    </g>
</svg>