<?xml version="1.0" encoding="UTF-8"?>
<svg width="253px" height="42px" viewBox="0 0 253 42" version="1.1" xmlns="http://www.w3.org/2000/svg" xmlns:xlink="http://www.w3.org/1999/xlink">
    <!-- Generator: Sketch 50.2 (55047) - http://www.bohemiancoding.com/sketch -->
    <title>Group</title>
    <desc>Created with Sketch.</desc>
    <defs></defs>
    <g id="Page-1" stroke="none" stroke-width="1" fill="none" fill-rule="evenodd">
        <g id="Asset-3" fill-rule="nonzero">
            <g id="Group">
                <g id="logo" transform="translate(0.000000, 1.000000)">
                    <rect id="Rectangle-path" fill="#5D57A4" x="0" y="0" width="40" height="40"></rect>
                    <polygon id="Shape" fill="#44083C" opacity="0.5" points="0 40 0 23.1676867 4.09632693 23.1676867 19.5767453 5.10159119 28.0710289 15.0599755 39.95135 0 40 40"></polygon>
                    <polygon id="Shape" fill="#401249" opacity="0.57" points="0 40 4.09202154 34.4849885 11.1502692 34.4572748 20.0489476 23.7967667 30.4454234 31.4457275 40 20 39.8433676 29.1454965 39.8433676 40"></polygon>
                    <path d="M11.15,10.07 C11.15,9.85 11.23,9.75 11.42,9.75 L14.88,9.75 C15.07,9.75 15.16,9.85 15.16,10.07 L15.16,30.83 C15.16,31.05 15.07,31.15 14.88,31.15 L11.42,31.15 C11.23,31.15 11.15,31.05 11.15,30.83 L11.15,10.07 Z" id="Shape" fill="#FFFFFF"></path>
                    <path d="M18.7,10.07 C18.7,9.85 18.79,9.75 18.98,9.75 L30.87,9.75 C31.06,9.75 31.15,9.85 31.15,10.07 L31.15,13.43 C31.15,13.65 31.06,13.75 30.87,13.75 L22.87,13.75 C22.76,13.75 22.7,13.81 22.7,13.94 L22.7,18.44 C22.7,18.56 22.76,18.62 22.87,18.62 L29.53,18.62 C29.72,18.62 29.8,18.72 29.8,18.94 L29.8,22.27 C29.8,22.49 29.72,22.59 29.53,22.59 L22.88,22.59 C22.77,22.59 22.71,22.65 22.71,22.78 L22.71,30.78 C22.71,31 22.63,31.1 22.44,31.1 L19,31.1 C18.81,31.1 18.72,31 18.72,30.78 L18.7,10.07 Z" id="Shape" fill="#FFFFFF"></path>
                </g>
                <g id="text" transform="translate(50.000000, 0.000000)" fill="#3A3E41">
                    <polygon id="Shape" points="0.09 0.19 5.21 0.19 5.21 40.85 0.09 40.85"></polygon>
                    <path d="M10.83,14.21 L15.76,14.21 L15.76,16.83 C17.4550891,15.024148 19.7860499,13.9483199 22.26,13.83 C23.5019537,13.7247277 24.6972571,14.3281818 25.35,15.39 C25.9965424,16.5783951 26.3141414,17.9178345 26.27,19.27 L26.27,40.85 L21.34,40.85 L21.34,20.7 C21.3934858,19.9221665 21.2344812,19.1444269 20.88,18.45 C20.5023598,17.9198737 19.8667195,17.636516 19.22,17.71 C17.9112722,17.8531369 16.6906234,18.4387661 15.76,19.37 L15.76,40.85 L10.83,40.85 L10.83,14.21 Z" id="Shape"></path>
                    <polygon id="Shape" points="29.27 14.21 34.27 14.21 37.54 35.64 40.86 14.21 45.65 14.21 40.58 40.85 34.58 40.85"></polygon>
                    <path d="M51.39,40 C50.219579,39.1641384 49.3749926,37.9484994 49,36.56 C48.4787307,34.6041861 48.2429587,32.5832834 48.3,30.56 L48.3,24.48 C48.3,20.8 48.8766667,18.1033333 50.03,16.39 C51.1833333,14.6766667 53.2366667,13.8266667 56.19,13.84 C57.9145037,13.7137284 59.6300963,14.1832219 61.05,15.17 C62.1822353,16.1381311 62.9481807,17.4652991 63.22,18.93 C63.6189247,21.0795225 63.796519,23.2642681 63.75,25.45 L63.75,27.62 L53.24,27.62 L53.24,31.17 C53.24,32.77 53.24,33.97 53.35,34.76 C53.4012632,35.4835144 53.6579871,36.177363 54.09,36.76 C54.5927368,37.3287239 55.3331934,37.6286088 56.09,37.57 C56.9710007,37.6699052 57.8285306,37.2430981 58.28,36.48 C58.724694,35.4428049 58.923211,34.3167346 58.86,33.19 L58.86,31.58 L63.65,31.58 L63.65,32.58 C63.65,35.37 63.05,37.51 61.85,38.98 C60.65,40.45 58.75,41.2 56.14,41.2 C54.4722971,41.2839452 52.8177296,40.8659492 51.39,40 Z M58.91,25 L58.91,22.6 C58.9831765,21.2781157 58.8032891,19.9544159 58.38,18.7 C57.9541472,17.8772749 57.0585321,17.4094759 56.14,17.53 C55.4862924,17.482855 54.8381915,17.6787097 54.32,18.08 C53.8412421,18.5746325 53.5419864,19.2153918 53.47,19.9 C53.2879795,21.1144474 53.2110278,22.3423296 53.24,23.57 L53.24,25 L58.91,25 Z" id="Shape"></path>
                    <path d="M69.16,39.19 C67.7742691,37.7074354 66.9654193,35.7775481 66.88,33.75 L70.98,32.51 C71.0771457,33.8566073 71.480754,35.1632038 72.16,36.33 C72.6905709,37.1434076 73.6095955,37.6181103 74.58,37.58 C75.3673595,37.609202 76.1327094,37.3167806 76.7,36.77 C77.2513644,36.2329336 77.5524143,35.4893768 77.53,34.72 C77.4355714,33.1527343 76.6380484,31.7120476 75.36,30.8 L70.8,26.88 C69.8418565,26.0930355 69.0236597,25.1497425 68.38,24.09 C67.7814703,22.9978257 67.4878718,21.7647119 67.53,20.52 C67.4171763,18.6902001 68.0859079,16.8984358 69.37,15.59 C70.7430664,14.3741965 72.5384381,13.7458164 74.37,13.84 C76.1839125,13.748853 77.9414879,14.4842402 79.15,15.84 C80.3409579,17.245852 81.0428647,19.000619 81.15,20.84 L77.83,22.09 C77.7119199,20.8836527 77.3513765,19.7135874 76.77,18.65 C76.304351,17.8834701 75.4557111,17.4341902 74.56,17.48 C73.8495513,17.4695626 73.167458,17.7583498 72.680489,18.2757543 C72.19352,18.7931589 71.9465637,19.4914869 72,20.2 C72.0196464,21.246912 72.5123342,22.2286108 73.34,22.87 L78,27.2 C79.0746434,28.1342791 80.0047645,29.2227903 80.76,30.43 C81.4640178,31.6422934 81.8107011,33.0290268 81.76,34.43 C81.8809945,36.3363461 81.1481384,38.1978007 79.76,39.51 C78.2389783,40.7422097 76.3146474,41.3658355 74.36,41.26 C72.4142329,41.3231138 70.5300733,40.5730734 69.16,39.19 Z" id="Shape"></path>
                    <path d="M88.18,39.63 C87.1800446,38.2480712 86.68894,36.5627697 86.79,34.86 L86.79,17.48 L84,17.48 L84,14.21 L86.81,14.21 L86.81,6.42 L91.75,6.42 L91.75,14.21 L96,14.21 L96,17.48 L91.72,17.48 L91.72,34.53 C91.6441869,35.31721 91.8191928,36.108237 92.22,36.79 C92.7342473,37.2902884 93.4481491,37.5294823 94.16,37.44 C94.7626765,37.4389046 95.364402,37.3921037 95.96,37.3 L95.96,40.94 C94.8288081,41.1204089 93.6854722,41.2140153 92.54,41.22 C90.53,41.22 89.07,40.69 88.18,39.63 Z" id="Shape"></path>
                    <polygon id="Shape" points="100.07 0.19 114.5 0.19 114.5 4.25 105.28 4.25 105.28 17.81 112.42 17.81 112.42 21.81 105.28 21.81 105.28 40.81 100.07 40.81"></polygon>
                    <path d="M118.41,39.65 C117.763825,38.4650794 117.446191,37.1289478 117.49,35.78 L117.49,14.21 L122.42,14.21 L122.42,34.3 C122.369625,35.0883785 122.531947,35.875815 122.89,36.58 C123.257447,37.1249722 123.89662,37.4214561 124.55,37.35 C125.8543,37.2015797 127.070118,36.6165773 128,35.69 L128,14.21 L132.93,14.21 L132.93,40.85 L128,40.85 L128,38.22 C126.308063,40.0302185 123.975228,41.1069116 121.5,41.22 C120.256888,41.3185068 119.063412,40.7121131 118.41,39.65 Z" id="Shape"></path>
                    <path d="M140.68,39.63 C139.688056,38.2445956 139.200986,36.5610273 139.3,34.86 L139.3,17.48 L136.48,17.48 L136.48,14.21 L139.3,14.21 L139.3,6.42 L144.23,6.42 L144.23,14.21 L148.51,14.21 L148.51,17.48 L144.23,17.48 L144.23,34.53 C144.15893,35.3169139 144.333618,36.1065045 144.73,36.79 C145.245791,37.2877513 145.958446,37.5265276 146.67,37.44 C147.272676,37.4389046 147.874402,37.3921037 148.47,37.3 L148.47,40.94 C147.342115,41.1199786 146.202136,41.213584 145.06,41.22 C143.02,41.22 141.56,40.69 140.68,39.63 Z" id="Shape"></path>
                    <path d="M152.89,39.65 C152.243825,38.4650794 151.926191,37.1289478 151.97,35.78 L151.97,14.21 L156.9,14.21 L156.9,34.3 C156.852283,35.0870825 157.010843,35.8729887 157.36,36.58 C157.728944,37.1232126 158.366996,37.4191763 159.02,37.35 C160.32784,37.2037596 161.547512,36.618599 162.48,35.69 L162.48,14.21 L167.41,14.21 L167.41,40.85 L162.48,40.85 L162.48,38.22 C160.786797,40.028466 158.454716,41.1048113 155.98,41.22 C154.736888,41.3185068 153.543412,40.7121131 152.89,39.65 Z" id="Shape"></path>
                    <path d="M172.57,14.21 L177.51,14.21 L177.51,18 C178.203644,16.7389314 179.170584,15.6489885 180.34,14.81 C181.253567,14.2144842 182.319487,13.8950554 183.41,13.89 C183.670765,13.8910776 183.931232,13.9077741 184.19,13.94 L184.19,19.38 C183.323808,19.0345123 182.402373,18.8481926 181.47,18.83 C180.717564,18.8174907 179.976523,19.0148707 179.33,19.4 C178.575462,19.9153784 177.952144,20.6003432 177.51,21.4 L177.51,40.85 L172.57,40.85 L172.57,14.21 Z" id="Shape"></path>
                    <path d="M189.81,40 C188.631996,39.1540986 187.786606,37.923154 187.42,36.52 C186.907117,34.56275 186.674797,32.5425799 186.73,30.52 L186.73,24.48 C186.73,20.8 187.303333,18.1033333 188.45,16.39 C189.596667,14.6766667 191.65,13.8266667 194.61,13.84 C196.334504,13.7137284 198.050096,14.1832219 199.47,15.17 C200.602235,16.1381311 201.368181,17.4652991 201.64,18.93 C202.038925,21.0795225 202.216519,23.2642681 202.17,25.45 L202.17,27.62 L191.66,27.62 L191.66,31.17 C191.66,32.77 191.66,33.97 191.77,34.76 C191.826071,35.4824683 192.082318,36.1750277 192.51,36.76 C193.024535,37.3422176 193.786466,37.6432733 194.56,37.57 C195.441001,37.6699052 196.298531,37.2430981 196.75,36.48 C197.199686,35.4442997 197.398414,34.3170371 197.33,33.19 L197.33,31.58 L202.12,31.58 L202.12,32.58 C202.12,35.37 201.52,37.51 200.32,38.98 C199.12,40.45 197.22,41.2 194.61,41.2 C192.925512,41.2941046 191.252029,40.8757338 189.81,40 Z M197.33,25 L197.33,22.6 C197.403176,21.2781157 197.223289,19.9544159 196.8,18.7 C196.374147,17.8772749 195.478532,17.4094759 194.56,17.53 C193.906292,17.482855 193.258191,17.6787097 192.74,18.08 C192.265028,18.5772303 191.966409,19.2166276 191.89,19.9 C191.70798,21.1144474 191.631028,22.3423296 191.66,23.57 L191.66,25 L197.33,25 Z" id="Shape"></path>
                </g>
            </g>
        </g>
    </g>
</svg>