<?xml version="1.0" encoding="UTF-8"?>
<svg width="459px" height="96px" viewBox="0 0 459 96" version="1.1" xmlns="http://www.w3.org/2000/svg" xmlns:xlink="http://www.w3.org/1999/xlink">
    <!-- Generator: Sketch 50.2 (55047) - http://www.bohemiancoding.com/sketch -->
    <title>Group</title>
    <desc>Created with Sketch.</desc>
    <defs></defs>
    <g id="Page-1" stroke="none" stroke-width="1" fill="none" fill-rule="evenodd">
        <g id="LIDER-logo" transform="translate(-192.000000, -250.000000)">
            <g id="Group" transform="translate(192.000000, 250.000000)">
                <path d="M74.1909,95.2253 L74.1909,72.0293 L30.0569,72.0293 L30.0569,0.1633 L0.1879,0.1633 L0.1879,95.2253 L74.1909,95.2253 Z M78.2699,95.2253 L108.1339,95.2253 L108.1339,0.1633 L78.2699,0.1633 L78.2699,95.2253 Z M198.3159,60.6953 L198.3159,32.5633 C198.3159,9.4973 179.9139,0.1633 158.1839,0.1633 L115.9159,0.1633 L115.9159,95.2253 L158.4509,95.2253 C179.6519,95.2253 198.3159,85.4943 198.3159,60.6953 Z M168.1819,60.0263 C168.1819,65.8913 164.4519,72.0293 156.1849,72.0293 L145.7829,72.0293 L145.7829,23.4963 L155.5189,23.4963 C163.2529,23.4963 168.1819,28.1623 168.1819,35.2283 L168.1819,60.0263 Z M278.1939,95.2253 L278.1939,72.0293 L234.0619,72.0293 L234.0619,59.2293 L268.9949,59.2293 L268.9949,36.2943 L234.0619,36.2943 L234.0619,23.2283 L278.1939,23.2283 L278.1939,0.1633 L204.1969,0.1633 L204.1969,95.2253 L278.1939,95.2253 Z M369.3359,95.2253 L349.3359,58.8283 C361.0679,53.2303 366.4029,42.1613 366.4029,30.4293 C366.4029,14.5643 356.0039,0.1633 330.6699,0.1633 L285.0729,0.1633 L285.0729,95.2253 L314.9379,95.2253 L314.9379,63.7613 L321.2059,63.7613 L336.5369,95.2253 L369.3359,95.2253 Z M337.3369,32.9623 C337.3369,38.4273 333.6049,43.3623 326.6719,43.3623 L314.9379,43.3623 L314.9379,22.5623 L326.8059,22.5623 C334.0059,22.5623 337.3369,27.7643 337.3369,32.9623 Z" id="Fill-1" fill="#1A1919"></path>
                <polygon id="Fill-3" fill="#D8232A" points="385.976 72.788 458.128 72.788 458.128 0.635 385.976 0.635"></polygon>
            </g>
        </g>
    </g>
</svg>