<?xml version="1.0" encoding="UTF-8"?>
<svg width="792px" height="95px" viewBox="0 0 792 95" version="1.1" xmlns="http://www.w3.org/2000/svg" xmlns:xlink="http://www.w3.org/1999/xlink">
    <!-- Generator: Sketch 50.2 (55047) - http://www.bohemiancoding.com/sketch -->
    <title>Combined Shape</title>
    <desc>Created with Sketch.</desc>
    <defs></defs>
    <g id="Page-1" stroke="none" stroke-width="1" fill="none" fill-rule="evenodd">
        <g id="PoslovniPuls-crveni" transform="translate(-25.000000, -250.000000)" fill="#D92C3D">
            <path d="M49.4266,269.521 C54.5814,269.494 65.1155,268.9832 69.5982,269.8974 C75.2014,271.0534 78.5633,274.6834 78.5633,281.5399 C78.5633,288.4768 75.4257,291.9722 69.374,293.0479 C65.1155,293.8005 54.1332,293.5049 49.4266,293.3167 L49.4266,269.521 Z M25.4443,342.3603 L25.4443,250.3766 C65.7879,250.3766 77.4428,249.2204 87.5288,254.3831 C92.0112,256.6953 94.9249,259.1422 97.3905,262.4224 C102.5456,269.8435 103.8903,281.755 100.9766,291.6765 C98.0629,301.5445 92.4596,306.8413 83.2703,309.8259 C74.3049,312.7297 59.7365,311.5735 49.4266,311.7081 L49.2024,342.3603 L25.4443,342.3603 Z M559.0998,250.3766 C599.2191,250.3766 609.9775,249.1937 620.9597,254.2215 C634.856,260.6479 638.2179,276.5656 634.6318,291.3809 C628.5804,315.311 601.9087,311.6812 582.8576,311.6812 L582.8576,342.3603 L559.0998,342.3603 L559.0998,250.3766 Z M462.7236,284.7393 C464.2926,284.2824 463.8441,283.9059 464.9649,282.6153 C474.1543,271.1072 496.7915,270.193 504.6361,283.4487 C509.1185,290.6816 508.2222,301.5981 508.2222,311.3317 C508.2222,321.6835 508.2222,332.0085 508.2222,342.3603 L486.4813,342.3603 C486.0332,339.5101 486.4813,315.9564 486.4813,310.9822 C486.4813,302.2435 488.2745,290.9506 474.8267,291.5422 C470.344,291.7304 466.9821,294.1234 465.1889,297.6457 C462.9478,301.8402 463.396,306.1423 463.396,311.3317 C463.396,316.1982 463.6202,339.537 463.396,342.3603 L441.6554,342.3603 L441.6554,275.7319 L462.7236,275.7589 L462.7236,284.7393 Z M137.734,273.9844 C158.3541,272.4517 174.2672,286.272 175.8362,305.5238 C178.7499,340.2629 140.6477,355.0782 117.3382,336.1224 C110.8383,330.7983 106.5798,321.4415 105.9075,312.5146 C103.8903,291.2193 118.4587,275.3824 137.734,273.9844 Z M324.6591,273.8228 L326.9004,273.8228 C345.7273,273.7962 360.9683,289.0684 360.9683,307.9168 C360.9683,319.7475 357.3822,329.7498 348.1929,336.8753 C333.4003,348.4369 312.3317,346.0978 300.6771,334.1058 C295.7462,329.1582 293.0567,324.1035 291.4877,317.0857 C288.574,303.05 293.953,287.6434 305.1595,280.1146 C310.3146,276.7 316.8145,273.8228 324.6591,273.8228 Z M667.1307,318.5376 C668.4755,323.485 675.6477,324.453 679.458,321.6297 C683.0442,319.1023 681.6994,310.0411 681.6994,304.8248 C681.6994,292.3217 681.6994,279.8189 681.6994,267.3162 L703.6642,267.1815 C703.8882,275.5707 703.6642,284.4167 703.6642,292.8328 C703.6642,301.3829 703.8882,310.4175 703.44,318.8872 C703.2158,324.2648 700.302,331.0943 696.7162,334.7779 C696.0436,335.5039 695.5954,335.7995 695.1472,336.445 C693.8025,337.843 693.354,338.1925 691.5611,339.4565 C688.4232,341.7148 684.1647,343.624 680.3546,344.4038 C657.0451,348.5713 648.752,330.2875 648.0797,329.0777 C646.7349,326.3352 645.1659,320.366 645.1659,315.7413 L645.1659,284.578 L666.6826,284.578 L666.9068,317.5158 C666.9068,318.5912 667.1307,318.2417 667.1307,318.5376 Z M203.8524,320.6081 C204.3009,324.6681 205.6456,327.1686 208.7836,328.8895 C212.1454,330.5835 216.1797,330.8791 219.99,329.9111 C227.1623,328.0827 230.2999,319.8818 219.3177,316.8437 C205.6456,313.187 187.0427,312.9987 184.8013,297.8875 C182.1118,280.4105 198.6976,273.9575 213.7144,273.7962 C228.2828,273.6615 245.7649,278.0445 245.541,295.1989 L225.8172,295.1989 C224.6967,284.2554 210.1283,287.9391 208.1109,289.1492 C206.5422,290.1169 205.8698,292.0799 206.318,294.0965 C206.7661,295.441 208.3351,296.7582 209.4559,297.4037 C218.6453,302.1627 232.0931,300.6839 240.3859,306.6531 C254.058,316.5477 251.8166,345.1567 213.042,344.2425 C197.3529,343.8661 183.4566,336.6332 183.4566,320.6347 L203.8524,320.6081 Z M814.3846,313.8052 C817.2984,321.8987 819.3155,331.9007 804.5229,339.7521 C788.8337,348.1682 751.4039,346.8237 751.4039,320.6081 L772.024,320.6081 C772.2482,325.0712 773.8172,327.3568 776.9548,328.9969 C782.3341,331.8472 794.8854,330.933 794.213,322.6246 C793.7646,315.4187 777.6272,315.8756 765.3002,311.4391 C758.8003,309.0461 753.8695,305.1473 752.7487,297.3229 C750.2834,280.4375 767.0931,273.9575 781.8857,273.7962 C789.9545,273.7423 797.7991,274.8716 803.8505,278.3401 C809.2298,281.3247 813.4883,287.24 813.7123,295.1989 L793.7646,295.0912 C793.3164,290.6816 791.7474,288.9876 787.9374,288.1273 C784.5752,287.3475 774.7135,286.7828 774.2653,292.2143 C773.3687,301.2216 795.1096,300.0657 804.9713,304.6904 C809.2298,306.6531 812.5917,310.0411 814.3846,313.8052 Z M363.6578,275.7858 L385.8466,275.7589 C386.5192,276.5656 386.5192,276.8343 386.7432,278.3401 C387.1916,279.3081 387.4156,280.1685 387.6398,281.029 L397.7257,317.2201 C397.9497,318.4838 397.9497,319.2636 398.622,319.8818 C399.7429,318.4569 404.2256,301.1681 405.1219,297.8609 L410.5012,278.6091 C410.9494,277.2646 410.9494,276.1353 411.6217,275.8663 L433.1384,275.7589 L410.9494,342.3603 L385.8466,342.3603 L363.6578,275.7858 Z M739.9732,250.3766 L739.9732,342.3603 L718.4568,342.3603 L718.4568,250.3766 L739.9732,250.3766 Z M280.7294,250.3766 L280.7294,342.3603 L259.2128,342.3603 L259.2128,250.3766 L280.7294,250.3766 Z M522.5664,342.3603 L522.3424,275.7589 L543.8588,275.7319 L543.8588,342.3603 L522.5664,342.3603 Z M543.8588,250.3766 L543.8588,267.0202 L522.3424,267.0202 L522.3424,250.3766 L543.8588,250.3766 Z M582.8576,269.521 L582.8576,292.1604 L582.8576,293.451 L597.6502,293.451 C608.4085,293.451 612.2188,290.0903 612.2188,281.1903 C611.9946,273.5541 607.288,269.521 600.1157,269.521 L582.8576,269.521 Z M141.0959,327.814 C146.251,327.814 149.3887,325.3941 151.4061,321.9253 C155.8885,314.5312 157.0093,290.0903 140.4235,290.2782 C130.786,290.4129 127.4238,299.3664 127.1999,308.9387 C127.1999,319.2367 130.5618,327.814 141.0959,327.814 Z M322.8659,290.6011 C307.1769,294.177 308.2975,332.0085 328.9175,327.5719 C344.6067,324.2109 343.262,285.8956 322.8659,290.6011 Z" id="Combined-Shape"></path>
        </g>
    </g>
</svg>