<?xml version="1.0" encoding="UTF-8"?>
<svg width="541px" height="212px" viewBox="0 0 541 212" version="1.1" xmlns="http://www.w3.org/2000/svg" xmlns:xlink="http://www.w3.org/1999/xlink">
    <!-- Generator: Sketch 52.4 (67378) - http://www.bohemiancoding.com/sketch -->
    <title>Group</title>
    <desc>Created with Sketch.</desc>
    <g id="Page-1" stroke="none" stroke-width="1" fill="none" fill-rule="evenodd">
        <g id="ProfessionalHR" transform="translate(-209.000000, -54.000000)">
            <g id="Group" transform="translate(209.000000, 54.000000)">
                <path d="M1.8926,1.6748 L1.8926,96.0338 L14.3126,96.0338 L14.3126,57.2718 L19.5016,57.2718 C42.1796,57.2718 47.4886,45.8788 47.4886,27.2568 C47.4886,10.5458 42.1796,1.6748 18.2336,1.6748 L1.8926,1.6748 Z M21.2706,11.9378 C33.6846,11.9378 35.0806,17.5088 35.0806,28.1398 C35.0806,40.3008 33.3116,47.4008 21.0116,47.4008 L14.3126,47.4008 L14.3126,11.9378 L21.2706,11.9378 Z M95.4926,96.0338 L83.9666,52.2128 C92.8346,49.6658 94.7326,40.0448 94.7326,25.8558 C94.7326,9.0148 91.6896,1.6748 70.6636,1.6748 L50.6586,1.6748 L50.6586,96.0338 L63.1936,96.0338 L63.1936,53.7278 L72.5706,53.7278 L81.5616,96.0338 L95.4926,96.0338 Z M63.1936,44.1098 L63.1936,10.9158 L71.4346,10.9158 C82.0686,10.9158 82.9606,14.8488 82.9606,26.3738 C82.9606,39.6768 81.8156,44.1098 72.3176,44.1098 L63.1936,44.1098 Z M122.9816,0.0268 C98.0236,0.0268 96.6216,16.8668 96.6216,48.9158 C96.6216,81.2148 98.0236,97.6758 122.9816,97.6758 C147.9286,97.6758 148.5546,81.8418 148.5546,48.9158 C148.5546,16.2438 147.9286,0.0268 122.9816,0.0268 Z M122.9816,9.9038 C134.8776,9.9038 135.2546,21.0498 135.2546,48.9158 C135.2546,76.9088 134.8776,87.6688 122.9816,87.6688 C110.9506,87.6688 109.8086,76.9088 109.8086,48.9158 C109.8086,21.1758 110.9506,9.9038 122.9816,9.9038 Z M153.6326,1.6748 L153.6326,96.0338 L166.2876,96.0338 L166.2876,52.8388 L186.5486,52.8388 L187.5666,42.8288 L166.2876,42.8288 L166.2876,11.5578 L192.4996,11.5578 L192.4996,1.6748 L153.6326,1.6748 Z M194.9076,1.6748 L194.9076,96.0338 L231.7616,96.0338 L231.7616,86.3968 L207.4516,86.3968 L207.4516,51.3138 L226.4466,51.3138 L227.3356,41.3138 L207.4516,41.3138 L207.4516,11.5578 L231.1386,11.5578 L231.1386,1.6748 L194.9076,1.6748 Z M256.7136,0.0268 C239.7496,0.0268 234.6756,8.6408 234.6756,22.0648 C234.6756,37.7638 243.1586,44.7308 252.1496,50.0608 C260.6346,55.2498 265.5796,59.5558 265.5796,71.8408 C265.5796,82.3468 263.8046,87.6688 254.8196,87.6688 C246.4566,87.6688 244.4296,82.2178 243.6726,66.2628 L232.8946,68.4138 C234.1686,89.6878 238.0956,97.6758 254.8196,97.6758 C272.0516,97.6758 278.2346,88.5578 278.2346,72.3378 C278.2346,51.4498 268.2306,46.2518 258.1096,40.4248 C251.2756,36.5018 246.7046,32.2078 246.7046,22.4388 C246.7046,14.7278 248.0996,9.9038 256.8436,9.9038 C265.1936,9.9038 266.0796,14.4628 266.5946,22.7038 L276.6046,21.3088 C276.0856,9.3978 273.6876,0.0268 256.7136,0.0268 Z M303.4466,0.0268 C286.4786,0.0268 281.4106,8.6408 281.4106,22.0648 C281.4106,37.7638 289.9026,44.7308 298.8936,50.0608 C307.3696,55.2498 312.3146,59.5558 312.3146,71.8408 C312.3146,82.3468 310.5386,87.6688 301.5476,87.6688 C293.1926,87.6688 291.1586,82.2178 290.4026,66.2628 L279.6356,68.4138 C280.9046,89.6878 284.8276,97.6758 301.5476,97.6758 C318.7616,97.6758 324.9756,88.5578 324.9756,72.3378 C324.9756,51.4498 314.9776,46.2518 304.8376,40.4248 C298.0106,36.5018 293.4396,32.2078 293.4396,22.4388 C293.4396,14.7278 294.8336,9.9038 303.5666,9.9038 C311.9406,9.9038 312.8176,14.4628 313.3236,22.7038 L323.3396,21.3088 C322.8216,9.3978 320.4286,0.0268 303.4466,0.0268 Z M329.2816,96.0338 L341.8166,96.0338 L341.8166,1.6748 L329.2816,1.6748 L329.2816,96.0338 Z M374.5006,0.0268 C349.5386,0.0268 348.1506,16.8668 348.1506,48.9158 C348.1506,81.2148 349.5386,97.6758 374.5006,97.6758 C399.4506,97.6758 400.0746,81.8418 400.0746,48.9158 C400.0746,16.2438 399.4506,0.0268 374.5006,0.0268 Z M374.5006,9.9038 C386.3906,9.9038 386.7766,21.0498 386.7766,48.9158 C386.7766,76.9088 386.3906,87.6688 374.5006,87.6688 C362.4596,87.6688 361.3146,76.9088 361.3146,48.9158 C361.3146,21.1758 362.4596,9.9038 374.5006,9.9038 Z M406.1546,96.0338 L416.9336,96.0338 L416.9336,30.8068 L439.9596,96.0338 L452.9026,96.0338 L452.9026,1.6748 L442.1176,1.6748 L442.1176,67.0308 L419.2076,1.6748 L406.1546,1.6748 L406.1546,96.0338 Z M492.2816,96.0338 L506.0796,96.0338 L487.0836,1.6748 L473.7866,1.6748 L455.0386,96.0338 L466.9466,96.0338 L470.8636,73.3588 L488.4856,73.3588 L492.2816,96.0338 Z M479.7346,22.0648 L487.3296,63.3518 L471.7646,63.3518 L479.7346,22.0648 Z M508.4926,1.6748 L508.4926,96.0338 L540.5326,96.0338 L540.5326,86.3968 L521.1576,86.3968 L521.1576,1.6748 L508.4926,1.6748 Z" id="Fill-1" fill="#1D1C1A"></path>
                <path d="M11.6294,120.5117 L9.0774,120.8667 C8.9484,118.7677 8.7214,117.6047 6.5894,117.6047 C4.3604,117.6047 4.0054,118.8317 4.0054,120.8027 C4.0054,123.2887 5.1684,124.3887 6.9134,125.3887 C9.4974,126.8747 12.0494,128.1987 12.0494,133.5297 C12.0494,137.6637 10.4664,139.9907 6.0734,139.9907 C1.8094,139.9907 0.8074,137.9547 0.4844,132.5287 L3.2304,131.9787 C3.4244,136.0487 3.9414,137.4387 6.0734,137.4387 C8.3664,137.4387 8.8184,136.0817 8.8184,133.4007 C8.8184,130.2677 7.5594,129.1687 5.3944,127.8437 C3.1014,126.4887 0.9374,124.7107 0.9374,120.7047 C0.9374,117.2817 2.2294,115.0847 6.5574,115.0847 C10.8864,115.0847 11.5004,117.4747 11.6294,120.5117" id="Fill-3" fill="#1D1C1A"></path>
                <path d="M17.2837,118.1211 L17.2837,127.1661 L18.9957,127.1661 C22.1287,127.1661 22.5807,125.3571 22.5807,122.2561 C22.5807,119.5431 22.2257,118.1211 19.0597,118.1211 L17.2837,118.1211 Z M18.2847,115.5051 C24.3897,115.5051 25.7467,117.7661 25.7467,122.0291 C25.7467,126.7781 24.3897,129.6851 18.6077,129.6851 L17.2837,129.6851 L17.2837,139.5701 L14.1177,139.5701 L14.1177,115.5051 L18.2847,115.5051 Z" id="Fill-5" fill="#1D1C1A"></path>
                <polygon id="Fill-7" fill="#1D1C1A" points="36.7637 115.5049 36.7637 118.0249 30.7227 118.0249 30.7227 125.6149 35.7947 125.6149 35.5687 128.1679 30.7227 128.1679 30.7227 137.1149 36.9257 137.1149 36.9257 139.5699 27.5247 139.5699 27.5247 115.5049"></polygon>
                <path d="M41.9653,127.5537 C41.9653,134.6927 42.1593,137.4387 45.0023,137.4387 C47.8443,137.4387 47.8443,135.8877 47.9733,131.1717 L51.1713,131.4297 C50.7843,137.2437 50.6543,139.9907 45.0023,139.9907 C38.7993,139.9907 38.6063,135.7907 38.6063,127.5537 C38.6063,119.3807 38.7993,115.0847 45.0023,115.0847 C50.8163,115.0847 50.9783,117.2817 51.1713,123.4837 L48.0383,123.9037 C47.9093,118.5737 47.8443,117.6047 45.0023,117.6047 C42.1593,117.6047 41.9653,120.4797 41.9653,127.5537" id="Fill-9" fill="#1D1C1A"></path>
                <polygon id="Fill-11" fill="#1D1C1A" points="53.273 139.57 56.471 139.57 56.471 115.505 53.273 115.505"></polygon>
                <path d="M68.3584,133.7559 C68.3584,137.6639 67.9064,139.9899 63.0614,139.9899 C59.9604,139.9899 58.8294,138.7629 58.0534,136.3399 L60.5414,135.3709 C60.8644,136.7279 61.4134,137.4389 62.9964,137.4389 C64.9994,137.4389 65.1924,136.4039 65.1924,133.9489 L65.1924,115.5049 L68.3584,115.5049 L68.3584,133.7559 Z" id="Fill-13" fill="#1D1C1A"></path>
                <path d="M73.5928,131.2363 L77.5658,131.2363 L75.6278,120.7053 L73.5928,131.2363 Z M77.8568,133.7883 L73.3668,133.7883 L72.3648,139.5703 L69.3288,139.5703 L74.1098,115.5053 L77.5018,115.5053 L82.3468,139.5703 L78.8258,139.5703 L77.8568,133.7883 Z" id="Fill-14" fill="#1D1C1A"></path>
                <polygon id="Fill-15" fill="#1D1C1A" points="87.1616 115.5049 87.1616 137.1149 92.1036 137.1149 92.1036 139.5699 83.9316 139.5699 83.9316 115.5049"></polygon>
                <polygon id="Fill-16" fill="#1D1C1A" points="93.817 139.57 97.015 139.57 97.015 115.505 93.817 115.505"></polygon>
                <polygon id="Fill-17" fill="#1D1C1A" points="99.7935 115.5049 108.7735 115.5049 108.7735 117.5719 102.0225 137.0829 109.1285 137.0829 109.1285 139.5699 98.7595 139.5699 98.7595 137.4389 105.6075 118.0569 99.7935 118.0569"></polygon>
                <polygon id="Fill-18" fill="#1D1C1A" points="110.971 139.57 114.169 139.57 114.169 115.505 110.971 115.505"></polygon>
                <path d="M122.2778,126.3262 C124.7008,126.3262 124.9908,125.1952 124.9908,121.8042 C124.9908,118.8642 124.7648,117.8632 122.0518,117.8632 L119.9518,117.8632 L119.9518,126.3262 L122.2778,126.3262 Z M124.6358,139.5702 L122.3418,128.7812 L119.9518,128.7812 L119.9518,139.5702 L116.7538,139.5702 L116.7538,115.5052 L121.8578,115.5052 C127.2198,115.5052 127.9958,117.3792 127.9958,121.6742 C127.9958,125.2932 127.5108,127.7482 125.2498,128.3932 L128.1898,139.5702 L124.6358,139.5702 Z" id="Fill-19" fill="#1D1C1A"></path>
                <path d="M133.0361,131.2363 L137.0091,131.2363 L135.0711,120.7053 L133.0361,131.2363 Z M137.3001,133.7883 L132.8101,133.7883 L131.8081,139.5703 L128.7721,139.5703 L133.5531,115.5053 L136.9451,115.5053 L141.7901,139.5703 L138.2691,139.5703 L137.3001,133.7883 Z" id="Fill-20" fill="#1D1C1A"></path>
                <polygon id="Fill-21" fill="#1D1C1A" points="143.3101 115.5049 146.6371 115.5049 152.4841 132.1729 152.4841 115.5049 155.2301 115.5049 155.2301 139.5699 151.9351 139.5699 146.0561 122.9349 146.0561 139.5699 143.3101 139.5699"></polygon>
                <polygon id="Fill-22" fill="#1D1C1A" points="157.751 139.57 160.949 139.57 160.949 115.505 157.751 115.505"></polygon>
                <polygon id="Fill-23" fill="#1D1C1A" points="172.708 122.0293 172.708 139.5703 170.253 139.5703 170.253 115.5053 174.064 115.5053 178.231 134.5953 182.463 115.5053 186.049 115.5053 186.049 139.5703 183.4 139.5703 183.4 122.0293 179.685 139.5703 176.584 139.5703"></polygon>
                <path d="M191.7686,131.2363 L195.7416,131.2363 L193.8036,120.7053 L191.7686,131.2363 Z M196.0326,133.7883 L191.5426,133.7883 L190.5406,139.5703 L187.5046,139.5703 L192.2856,115.5053 L195.6776,115.5053 L200.5226,139.5703 L197.0016,139.5703 L196.0326,133.7883 Z" id="Fill-24" fill="#1D1C1A"></path>
                <path d="M213.4131,127.2305 L213.4131,139.5705 L211.0551,139.5705 L210.7641,137.2775 C210.1831,138.6985 209.0191,139.9905 206.3381,139.9905 C201.1701,139.9905 201.0091,135.0805 201.0091,127.3925 C201.0091,119.8985 201.1701,115.0845 207.4371,115.0845 C213.0581,115.0845 213.1871,117.2495 213.4131,122.6115 L210.7641,123.2575 C210.5701,119.2195 210.4731,117.6365 207.5661,117.6365 C204.4001,117.6365 204.2391,120.8995 204.2391,127.3925 C204.2391,133.4325 204.4001,137.4385 207.0811,137.4385 C208.9551,137.4385 210.2151,136.0825 210.4091,134.1755 L210.4091,129.7505 L207.4051,129.7505 L207.8251,127.2305 L213.4131,127.2305 Z" id="Fill-25" fill="#1D1C1A"></path>
                <path d="M219.0352,131.2363 L223.0092,131.2363 L221.0702,120.7053 L219.0352,131.2363 Z M223.2992,133.7883 L218.8082,133.7883 L217.8072,139.5703 L214.7712,139.5703 L219.5522,115.5053 L222.9432,115.5053 L227.7892,139.5703 L224.2682,139.5703 L223.2992,133.7883 Z" id="Fill-26" fill="#1D1C1A"></path>
                <polygon id="Fill-27" fill="#1D1C1A" points="229.5674 115.5049 238.5464 115.5049 238.5464 117.5719 231.7964 137.0829 238.9024 137.0829 238.9024 139.5699 228.5334 139.5699 228.5334 137.4389 235.3814 118.0569 229.5674 118.0569"></polygon>
                <polygon id="Fill-28" fill="#1D1C1A" points="240.745 139.57 243.943 139.57 243.943 115.505 240.745 115.505"></polygon>
                <polygon id="Fill-29" fill="#1D1C1A" points="246.4629 115.5049 249.7899 115.5049 255.6369 132.1729 255.6369 115.5049 258.3829 115.5049 258.3829 139.5699 255.0879 139.5699 249.2089 122.9349 249.2089 139.5699 246.4629 139.5699"></polygon>
                <polygon id="Fill-30" fill="#1D1C1A" points="267.9473 115.5049 276.9263 115.5049 276.9263 117.5719 270.1763 137.0829 277.2823 137.0829 277.2823 139.5699 266.9133 139.5699 266.9133 137.4389 273.7613 118.0569 267.9473 118.0569"></polygon>
                <path d="M282.3867,131.2363 L286.3607,131.2363 L284.4217,120.7053 L282.3867,131.2363 Z M286.6507,133.7883 L282.1597,133.7883 L281.1587,139.5703 L278.1227,139.5703 L282.9037,115.5053 L286.2947,115.5053 L291.1407,139.5703 L287.6197,139.5703 L286.6507,133.7883 Z" id="Fill-31" fill="#1D1C1A"></path>
                <polygon id="Fill-32" fill="#1D1C1A" points="309.4912 115.5049 309.4912 118.0249 302.8042 118.0249 302.8042 126.0029 308.2312 126.0029 307.9722 128.5549 302.8042 128.5549 302.8042 139.5699 299.5742 139.5699 299.5742 115.5049"></polygon>
                <polygon id="Fill-33" fill="#1D1C1A" points="313.4014 122.0293 313.4014 139.5703 310.9464 139.5703 310.9464 115.5053 314.7574 115.5053 318.9244 134.5953 323.1564 115.5053 326.7424 115.5053 326.7424 139.5703 324.0934 139.5703 324.0934 122.0293 320.3794 139.5703 317.2774 139.5703"></polygon>
                <path d="M332.2354,127.5537 C332.2354,134.6927 332.4294,137.4387 335.2724,137.4387 C338.1154,137.4387 338.1154,135.8877 338.2444,131.1717 L341.4424,131.4297 C341.0544,137.2437 340.9244,139.9907 335.2724,139.9907 C329.0704,139.9907 328.8764,135.7907 328.8764,127.5537 C328.8764,119.3807 329.0704,115.0847 335.2724,115.0847 C341.0874,115.0847 341.2484,117.2817 341.4424,123.4837 L338.3084,123.9037 C338.1794,118.5737 338.1154,117.6047 335.2724,117.6047 C332.4294,117.6047 332.2354,120.4797 332.2354,127.5537" id="Fill-34" fill="#1D1C1A"></path>
                <path d="M355.624,127.2305 L355.624,139.5705 L353.267,139.5705 L352.976,137.2775 C352.395,138.6985 351.231,139.9905 348.55,139.9905 C343.382,139.9905 343.22,135.0805 343.22,127.3925 C343.22,119.8985 343.382,115.0845 349.648,115.0845 C355.269,115.0845 355.398,117.2495 355.624,122.6115 L352.976,123.2575 C352.781,119.2195 352.685,117.6365 349.777,117.6365 C346.612,117.6365 346.45,120.8995 346.45,127.3925 C346.45,133.4325 346.612,137.4385 349.293,137.4385 C351.167,137.4385 352.427,136.0825 352.62,134.1755 L352.62,129.7505 L349.616,129.7505 L350.036,127.2305 L355.624,127.2305 Z" id="Fill-35" fill="#1D1C1A"></path>
                <polygon id="Fill-36" fill="#1D1C1A" points="364.832 139.57 368.03 139.57 368.03 115.505 364.832 115.505"></polygon>
                <polygon id="Fill-37" fill="#1D1C1A" points="380.6943 115.5049 380.6943 125.8739 386.2503 125.8739 386.2503 115.5049 389.4483 115.5049 389.4483 139.5699 386.2503 139.5699 386.2503 128.3939 380.6943 128.3939 380.6943 139.5699 377.4643 139.5699 377.4643 115.5049"></polygon>
                <path d="M395.0693,127.5537 C395.0693,134.6927 395.3603,137.4387 398.4293,137.4387 C401.4653,137.4387 401.5623,134.6927 401.5623,127.5537 C401.5623,120.4477 401.4653,117.6047 398.4293,117.6047 C395.3603,117.6047 395.0693,120.4797 395.0693,127.5537 M404.9543,127.5537 C404.9543,135.9517 404.7933,139.9907 398.4293,139.9907 C392.0653,139.9907 391.7103,135.7907 391.7103,127.5537 C391.7103,119.3807 392.0653,115.0847 398.4293,115.0847 C404.7933,115.0847 404.9543,119.2197 404.9543,127.5537" id="Fill-38" fill="#1D1C1A"></path>
                <path d="M412.7412,126.3262 C415.1642,126.3262 415.4552,125.1952 415.4552,121.8042 C415.4552,118.8642 415.2282,117.8632 412.5152,117.8632 L410.4162,117.8632 L410.4162,126.3262 L412.7412,126.3262 Z M415.0992,139.5702 L412.8062,128.7812 L410.4162,128.7812 L410.4162,139.5702 L407.2182,139.5702 L407.2182,115.5052 L412.3212,115.5052 C417.6832,115.5052 418.4592,117.3792 418.4592,121.6742 C418.4592,125.2932 417.9742,127.7482 415.7142,128.3932 L418.6532,139.5702 L415.0992,139.5702 Z" id="Fill-39" fill="#1D1C1A"></path>
                <polygon id="Fill-40" fill="#1D1C1A" points="429.4756 115.5049 429.4756 118.0249 423.4356 118.0249 423.4356 125.6149 428.5066 125.6149 428.2816 128.1679 423.4356 128.1679 423.4356 137.1149 429.6376 137.1149 429.6376 139.5699 420.2376 139.5699 420.2376 115.5049"></polygon>
                <path d="M434.6777,127.5537 C434.6777,134.6927 434.8717,137.4387 437.7147,137.4387 C440.5577,137.4387 440.5577,135.8877 440.6867,131.1717 L443.8847,131.4297 C443.4967,137.2437 443.3667,139.9907 437.7147,139.9907 C431.5127,139.9907 431.3187,135.7907 431.3187,127.5537 C431.3187,119.3807 431.5127,115.0847 437.7147,115.0847 C443.5297,115.0847 443.6907,117.2817 443.8847,123.4837 L440.7507,123.9037 C440.6217,118.5737 440.5577,117.6047 437.7147,117.6047 C434.8717,117.6047 434.6777,120.4797 434.6777,127.5537" id="Fill-41" fill="#1D1C1A"></path>
                <path d="M448.4404,131.2363 L452.4144,131.2363 L450.4754,120.7053 L448.4404,131.2363 Z M452.7044,133.7883 L448.2134,133.7883 L447.2124,139.5703 L444.1764,139.5703 L448.9574,115.5053 L452.3484,115.5053 L457.1944,139.5703 L453.6734,139.5703 L452.7044,133.7883 Z" id="Fill-42" fill="#1D1C1A"></path>
                <polygon id="Fill-43" fill="#1D1C1A" points="475.835 115.5049 475.835 118.0249 471.732 118.0249 471.732 139.5699 468.534 139.5699 468.534 118.0249 464.528 118.0249 464.528 115.5049"></polygon>
                <path d="M482.8135,126.3262 C485.2365,126.3262 485.5275,125.1952 485.5275,121.8042 C485.5275,118.8642 485.3005,117.8632 482.5875,117.8632 L480.4885,117.8632 L480.4885,126.3262 L482.8135,126.3262 Z M485.1715,139.5702 L482.8785,128.7812 L480.4885,128.7812 L480.4885,139.5702 L477.2905,139.5702 L477.2905,115.5052 L482.3935,115.5052 C487.7555,115.5052 488.5315,117.3792 488.5315,121.6742 C488.5315,125.2932 488.0465,127.7482 485.7865,128.3932 L488.7255,139.5702 L485.1715,139.5702 Z" id="Fill-44" fill="#1D1C1A"></path>
                <path d="M498.1914,109.3027 L495.7364,113.3727 L493.6694,113.3727 L491.1494,109.2697 L492.8294,108.4627 L494.7034,111.8227 L496.6404,108.3987 L498.1914,109.3027 Z M490.5044,115.5047 L499.4834,115.5047 L499.4834,117.5727 L492.7324,137.0827 L499.8384,137.0827 L499.8384,139.5707 L489.4694,139.5707 L489.4694,137.4387 L496.3184,118.0567 L490.5044,118.0567 L490.5044,115.5047 Z" id="Fill-45" fill="#1D1C1A"></path>
                <polygon id="Fill-46" fill="#1D1C1A" points="501.681 139.57 504.879 139.57 504.879 115.505 501.681 115.505"></polygon>
                <path d="M516.1211,109.3027 L513.6661,113.3727 L511.5991,113.3727 L509.0791,109.2697 L510.7591,108.4627 L512.6331,111.8227 L514.5701,108.3987 L516.1211,109.3027 Z M517.8651,120.5117 L515.3131,120.8667 C515.1841,118.7677 514.9581,117.6047 512.8261,117.6047 C510.5981,117.6047 510.2421,118.8317 510.2421,120.8027 C510.2421,123.2887 511.4051,124.3887 513.1491,125.3887 C515.7331,126.8747 518.2851,128.1987 518.2851,133.5297 C518.2851,137.6637 516.7021,139.9897 512.3091,139.9897 C508.0461,139.9897 507.0441,137.9547 506.7211,132.5287 L509.4671,131.9787 C509.6601,136.0487 510.1781,137.4387 512.3091,137.4387 C514.6021,137.4387 515.0551,136.0817 515.0551,133.4007 C515.0551,130.2677 513.7951,129.1687 511.6311,127.8437 C509.3381,126.4887 507.1731,124.7107 507.1731,120.7047 C507.1731,117.2817 508.4661,115.0847 512.7941,115.0847 C517.1221,115.0847 517.7361,117.4747 517.8651,120.5117 Z" id="Fill-47" fill="#1D1C1A"></path>
                <polygon id="Fill-48" fill="#1D1C1A" points="529.9482 115.5049 529.9482 118.0249 525.8452 118.0249 525.8452 139.5699 522.6472 139.5699 522.6472 118.0249 518.6412 118.0249 518.6412 115.5049"></polygon>
                <polygon id="Fill-49" fill="#1D1C1A" points="540.6406 115.5049 540.6406 118.0249 534.6006 118.0249 534.6006 125.6149 539.6716 125.6149 539.4466 128.1679 534.6006 128.1679 534.6006 137.1149 540.8026 137.1149 540.8026 139.5699 531.4026 139.5699 531.4026 115.5049"></polygon>
                <polygon id="Fill-50" fill="#7C9BA4" points="532.115 211.832 540.532 211.832 540.532 153.572 532.115 153.572"></polygon>
                <polygon id="Fill-51" fill="#7C9BA4" points="505.366 211.832 525.518 211.832 525.518 153.572 505.366 153.572"></polygon>
                <polygon id="Fill-52" fill="#7C9BA4" points="495.557 211.832 498.19 211.832 498.19 153.572 495.557 153.572"></polygon>
                <polygon id="Fill-53" fill="#7C9BA4" points="470.589 211.832 481.796 211.832 481.796 153.572 470.589 153.572"></polygon>
                <polygon id="Fill-54" fill="#7C9BA4" points="452.748 211.832 461.162 211.832 461.162 153.572 452.748 153.572"></polygon>
                <polygon id="Fill-55" fill="#A76199" points="424.962 211.832 433.376 211.832 433.376 153.572 424.962 153.572"></polygon>
                <polygon id="Fill-56" fill="#A76199" points="406.858 211.832 419.251 211.832 419.251 153.572 406.858 153.572"></polygon>
                <polygon id="Fill-57" fill="#5F8169" points="379.328 211.832 384.845 211.832 384.845 153.572 379.328 153.572"></polygon>
                <polygon id="Fill-58" fill="#5F8169" points="349.555 211.832 357.963 211.832 357.963 153.572 349.555 153.572"></polygon>
                <polygon id="Fill-59" fill="#5F8169" points="327.334 211.832 343.076 211.832 343.076 153.572 327.334 153.572"></polygon>
                <polygon id="Fill-60" fill="#E8802F" points="79.664 211.832 88.078 211.832 88.078 153.572 79.664 153.572"></polygon>
                <polygon id="Fill-61" fill="#1D1C1A" points="52.902 211.832 73.064 211.832 73.064 153.572 52.902 153.572"></polygon>
                <polygon id="Fill-62" fill="#1D1C1A" points="36.488 211.832 39.121 211.832 39.121 153.572 36.488 153.572"></polygon>
                <polygon id="Fill-63" fill="#1D1C1A" points="18.116 211.832 29.326 211.832 29.326 153.572 18.116 153.572"></polygon>
                <polygon id="Fill-64" fill="#1D1C1A" points="0.293 211.832 8.701 211.832 8.701 153.572 0.293 153.572"></polygon>
                <polygon id="Fill-65" fill="#D54C4A" points="240.651 211.832 246.176 211.832 246.176 153.572 240.651 153.572"></polygon>
                <polygon id="Fill-66" fill="#F8C32B" points="226.104 211.832 231.621 211.832 231.621 153.572 226.104 153.572"></polygon>
                <polygon id="Fill-67" fill="#F8C32B" points="209.884 211.832 216.437 211.832 216.437 153.572 209.884 153.572"></polygon>
                <polygon id="Fill-68" fill="#F8C32B" points="175.789 211.832 187.666 211.832 187.666 153.572 175.789 153.572"></polygon>
                <polygon id="Fill-69" fill="#E8802F" points="146.379 211.832 152.932 211.832 152.932 153.572 146.379 153.572"></polygon>
                <polygon id="Fill-70" fill="#E8802F" points="108.734 211.832 112.272 211.832 112.272 153.572 108.734 153.572"></polygon>
                <polygon id="Fill-71" fill="#E8802F" points="119.92 211.832 132.603 211.832 132.603 153.572 119.92 153.572"></polygon>
                <polygon id="Fill-72" fill="#D54C4A" points="294.772 211.832 306.869 211.832 306.869 153.572 294.772 153.572"></polygon>
                <polygon id="Fill-73" fill="#D54C4A" points="266.468 211.832 286.67 211.832 286.67 153.572 266.468 153.572"></polygon>
            </g>
        </g>
    </g>
</svg>