<?xml version="1.0" encoding="UTF-8"?>
<svg width="761px" height="130px" viewBox="0 0 761 130" version="1.1" xmlns="http://www.w3.org/2000/svg" xmlns:xlink="http://www.w3.org/1999/xlink">
    <!-- Generator: Sketch 50.2 (55047) - http://www.bohemiancoding.com/sketch -->
    <title>Asset 1</title>
    <desc>Created with Sketch.</desc>
    <defs></defs>
    <g id="Page-1" stroke="none" stroke-width="1" fill="none" fill-rule="evenodd">
        <g id="Asset-1" fill="#0D0802" fill-rule="nonzero">
            <path d="M202.37,0 C205.83,0.56 209.37,1 212.76,1.69 C236.24,6.51 257.76,24.08 262.96,50.45 C270.89,90.77 244.61,122.68 210.24,128.3 C194.45,130.89 178.95,129.94 164.32,123 C143.58,113.16 131.09,96.79 128.02,74 C125.39,54.46 129.94,36.66 143.48,21.78 C153.325285,10.8848829 166.57917,3.65677355 181.07,1.28 C183.85,0.78 186.66,0.43 189.46,0.02 L202.37,0 Z M165.66,64.48 C165.576543,71.1017223 167.305578,77.6201819 170.66,83.33 C180.66,100.66 205.13,105.87 219.53,86.63 C228.29,74.93 228.88,54.11 218.11,41.42 C208.16,29.68 191.27,27.49 179.48,36.52 C170.32,43.56 165.72,52.91 165.66,64.48 Z" id="Shape"></path>
            <path d="M0,2.08 C0.89,2.14 1.79,2.26 2.68,2.26 L110.77,2.26 L110.77,31.8 L74.2,31.8 L74.2,126.8 L36.38,126.8 L36.38,31.8 L33.7,31.8 C23.2866667,31.8 12.88,31.8 2.48,31.8 C1.66,31.8 0.83,31.72 3.99680289e-15,31.68 L0,2.08 Z" id="Shape"></path>
            <path d="M292.78,2.27 L295.06,2.27 C313.06,2.27 331.14,2.18 349.18,2.27 C365.54,2.37 380.72,6.46 393.83,16.65 C406.16,26.24 412.91,39.11 415.09,54.41 C416.82,66.49 415.86,78.41 410.93,89.66 C402.78,108.33 388.24,119.42 368.8,124.45 C361.717011,126.166588 354.447559,126.992967 347.16,126.91 C329.6,126.98 312.05,126.91 294.49,126.91 C293.96,126.91 293.42,126.84 292.78,126.8 L292.78,2.27 Z M330.68,98.33 C337.51,98.33 344.12,98.68 350.68,98.26 C362.55,97.5 370.73,91.15 375.2,80.26 C378.7,71.72 378.84,62.81 376.51,53.94 C373.1,40.94 363.51,32.94 350.21,32.01 C343.92,31.58 337.59,31.86 331.28,31.82 C331.068283,31.8616659 330.865319,31.9394688 330.68,32.05 L330.68,98.33 Z" id="Shape"></path>
            <path d="M572.51,126.9 L532.31,126.9 C530.19,121.05 527.98,115.25 526,109.37 C525.4,107.6 524.56,107.09 522.75,107.1 C507.416667,107.173333 492.083333,107.173333 476.75,107.1 C474.75,107.1 474.02,107.74 473.39,109.5 C471.45,114.97 469.33,120.39 467.17,125.78 C466.838602,126.522916 466.18092,127.069753 465.39,127.26 C453.18,127.34 440.97,127.32 428.39,127.32 C429.68,124.32 430.88,121.44 432.09,118.61 C448.396667,80.5366667 464.7,42.4533333 481,4.36 C481.38592,2.95458842 482.743226,2.0440452 484.19,2.22 C495.63,2.30666667 507.076667,2.30666667 518.53,2.22 C519.834934,2.03256416 521.074767,2.84767918 521.42,4.12 C538.173333,44.4266667 554.97,84.72 571.81,125 C572.05,125.54 572.23,126.12 572.51,126.9 Z M515.19,79.9 C510.19,66.29 505.35,52.9 500.3,39.08 C494.98,52.98 489.85,66.37 484.66,79.9 L515.19,79.9 Z" id="Shape"></path>
            <path d="M638.45,52.89 C641.99,46.17 645.4,39.7 648.82,33.23 C654.03,23.38 659.22,13.52 664.49,3.7 C664.90242,2.97906856 665.612644,2.47751879 666.43,2.33 C678.09,2.25 689.74,2.28 701.43,2.33 C701.664356,2.38171201 701.892371,2.45883485 702.11,2.56 C701,4.7 699.93,6.81 698.82,8.9 C685.2,34.5733333 671.593333,60.2733333 658,86 C657.434292,87.0915229 657.132865,88.3006579 657.12,89.53 C657.06,101.18 657.12,112.84 657.12,124.53 L657.12,126.91 L619.61,126.91 L619.61,124.55 C619.61,113.1 619.61,101.65 619.61,90.21 C619.608888,89.0525364 619.334802,87.9116523 618.81,86.88 C604.01,59.2466667 589.19,31.66 574.35,4.12 C574.09,3.64 573.87,3.12 573.53,2.43 C574.29,2.37 574.87,2.27 575.46,2.27 C586.63,2.27 597.8,2.27 608.97,2.27 C610.201206,2.16066836 611.361741,2.86022409 611.84,4 C620.333333,19.7133333 628.846667,35.4133333 637.38,51.1 C637.66,51.65 638,52.15 638.45,52.89 Z" id="Shape"></path>
            <path d="M740.08,1.08 C728.558738,1.10209261 719.232678,10.4520271 719.240043,21.9733077 C719.247407,33.4945884 728.585412,42.8325931 740.106692,42.8399573 C751.627973,42.8473216 760.977907,33.5212618 761,22 C761.010645,16.4484144 758.809999,11.1211431 754.884428,7.19557202 C750.958857,3.27000097 745.631586,1.06935455 740.08,1.08 Z M740.26,31.7 C734.740544,31.8116055 730.174804,27.4293907 730.06,21.91 C730.232472,16.403724 734.746024,12.0293352 740.255,12.0293352 C745.763976,12.0293352 750.277528,16.403724 750.45,21.91 C750.33517,27.4254088 745.775585,31.8060107 740.26,31.7 Z" id="Shape"></path>
        </g>
    </g>
</svg>