<?xml version="1.0" encoding="UTF-8"?>
<svg width="265px" height="129px" viewBox="0 0 265 129" version="1.1" xmlns="http://www.w3.org/2000/svg" xmlns:xlink="http://www.w3.org/1999/xlink">
    <!-- Generator: Sketch 50.2 (55047) - http://www.bohemiancoding.com/sketch -->
    <title>Group 25</title>
    <desc>Created with Sketch.</desc>
    <defs></defs>
    <g id="Page-1" stroke="none" stroke-width="1" fill="none" fill-rule="evenodd">
        <g id="microblink-new-logo-vertical-blue-and-black" transform="translate(-26.000000, -25.000000)">
            <g id="Group-25" transform="translate(26.000000, 25.200000)">
                <polygon id="Fill-1" fill="#000000" points="0.2784 101.16 5.5814 101.16 13.9244 121.035 14.0714 121.035 22.3404 101.16 27.6434 101.16 27.6434 127.413 24.0834 127.413 24.0834 105.832 24.0084 105.832 15.1474 127.413 12.7744 127.413 3.9124 105.832 3.8384 105.832 3.8384 127.413 0.2784 127.413"></polygon>
                <polygon id="Fill-2" fill="#000000" points="38.581 127.413 42.141 127.413 42.141 101.16 38.581 101.16"></polygon>
                <path d="M70.9727,106.8338 C70.2307,105.8688 69.2907,105.1278 68.1547,104.6078 C67.0177,104.0898 65.8427,103.8298 64.6317,103.8298 C63.1487,103.8298 61.8077,104.1078 60.6087,104.6638 C59.4097,105.2208 58.3837,105.9798 57.5317,106.9438 C56.6777,107.9088 56.0167,109.0398 55.5467,110.3378 C55.0767,111.6358 54.8427,113.0258 54.8427,114.5088 C54.8427,115.8938 55.0657,117.2038 55.5107,118.4388 C55.9547,119.6758 56.5977,120.7638 57.4387,121.7018 C58.2787,122.6428 59.3047,123.3838 60.5157,123.9278 C61.7267,124.4718 63.0987,124.7428 64.6317,124.7428 C66.1397,124.7428 67.4617,124.4348 68.5997,123.8158 C69.7367,123.1978 70.7007,122.3328 71.4917,121.2208 L74.4947,123.4818 C74.2967,123.7548 73.9517,124.1438 73.4567,124.6498 C72.9617,125.1568 72.3077,125.6638 71.4917,126.1708 C70.6757,126.6778 69.6937,127.1218 68.5437,127.5058 C67.3947,127.8888 66.0657,128.0798 64.5577,128.0798 C62.4817,128.0798 60.6087,127.6848 58.9407,126.8938 C57.2717,126.1028 55.8497,125.0638 54.6757,123.7788 C53.5017,122.4938 52.6057,121.0418 51.9877,119.4218 C51.3697,117.8038 51.0607,116.1658 51.0607,114.5088 C51.0607,112.4818 51.3947,110.6098 52.0617,108.8918 C52.7297,107.1738 53.6617,105.6898 54.8617,104.4408 C56.0597,103.1938 57.4997,102.2238 59.1807,101.5308 C60.8627,100.8398 62.7157,100.4928 64.7437,100.4928 C66.4727,100.4928 68.1727,100.8268 69.8417,101.4938 C71.5097,102.1608 72.8757,103.1878 73.9397,104.5708 L70.9727,106.8338 Z" id="Fill-3" fill="#000000"></path>
                <path d="M86.3741,112.7293 L91.0461,112.7293 C91.7381,112.7293 92.4241,112.6733 93.1041,112.5623 C93.7841,112.4513 94.3901,112.2473 94.9211,111.9503 C95.4521,111.6543 95.8791,111.2273 96.2001,110.6703 C96.5211,110.1153 96.6831,109.3913 96.6831,108.5013 C96.6831,107.6123 96.5211,106.8893 96.2001,106.3333 C95.8791,105.7773 95.4521,105.3503 94.9211,105.0533 C94.3901,104.7563 93.7841,104.5533 93.1041,104.4413 C92.4241,104.3313 91.7381,104.2753 91.0461,104.2753 L86.3741,104.2753 L86.3741,112.7293 Z M82.8141,101.1603 L92.0481,101.1603 C93.7281,101.1603 95.1121,101.3893 96.2001,101.8463 C97.2881,102.3033 98.1471,102.8843 98.7771,103.5883 C99.4071,104.2933 99.8471,105.0843 100.0941,105.9613 C100.3411,106.8393 100.4641,107.6863 100.4641,108.5013 C100.4641,109.3423 100.3161,110.1523 100.0201,110.9303 C99.7231,111.7093 99.2971,112.4143 98.7401,113.0443 C98.1841,113.6743 97.5041,114.2073 96.7011,114.6383 C95.8971,115.0713 95.0011,115.3373 94.0131,115.4353 L101.4661,127.4133 L97.0171,127.4133 L90.3421,115.8433 L86.3741,115.8433 L86.3741,127.4133 L82.8141,127.4133 L82.8141,101.1603 Z" id="Fill-5" fill="#000000"></path>
                <path d="M121.5392,124.743 C123.0472,124.743 124.4062,124.465 125.6182,123.908 C126.8292,123.352 127.8672,122.605 128.7322,121.665 C129.5982,120.726 130.2662,119.62 130.7352,118.347 C131.2042,117.074 131.4392,115.721 131.4392,114.286 C131.4392,112.853 131.2042,111.5 130.7352,110.226 C130.2662,108.954 129.5982,107.847 128.7322,106.907 C127.8672,105.969 126.8292,105.221 125.6182,104.664 C124.4062,104.108 123.0472,103.83 121.5392,103.83 C120.0312,103.83 118.6712,104.108 117.4612,104.664 C116.2492,105.221 115.2112,105.969 114.3462,106.907 C113.4802,107.847 112.8132,108.954 112.3442,110.226 C111.8742,111.5 111.6402,112.853 111.6402,114.286 C111.6402,115.721 111.8742,117.074 112.3442,118.347 C112.8132,119.62 113.4802,120.726 114.3462,121.665 C115.2112,122.605 116.2492,123.352 117.4612,123.908 C118.6712,124.465 120.0312,124.743 121.5392,124.743 M121.5392,128.08 C119.5372,128.08 117.6952,127.727 116.0152,127.023 C114.3332,126.319 112.8932,125.348 111.6942,124.112 C110.4952,122.877 109.5572,121.419 108.8772,119.737 C108.1962,118.056 107.8572,116.239 107.8572,114.286 C107.8572,112.334 108.1962,110.517 108.8772,108.836 C109.5572,107.155 110.4952,105.697 111.6942,104.461 C112.8932,103.224 114.3332,102.254 116.0152,101.55 C117.6952,100.846 119.5372,100.493 121.5392,100.493 C123.5422,100.493 125.3832,100.846 127.0642,101.55 C128.7452,102.254 130.1852,103.224 131.3842,104.461 C132.5832,105.697 133.5212,107.155 134.2022,108.836 C134.8822,110.517 135.2222,112.334 135.2222,114.286 C135.2222,116.239 134.8822,118.056 134.2022,119.737 C133.5212,121.419 132.5832,122.877 131.3842,124.112 C130.1852,125.348 128.7452,126.319 127.0642,127.023 C125.3832,127.727 123.5422,128.08 121.5392,128.08" id="Fill-7" fill="#000000"></path>
                <path d="M147.4864,124.2977 L152.7154,124.2977 C153.2574,124.2977 153.8574,124.2417 154.5124,124.1307 C155.1684,124.0207 155.7794,123.7977 156.3484,123.4637 C156.9164,123.1297 157.3984,122.6797 157.7954,122.1097 C158.1894,121.5417 158.3874,120.7877 158.3874,119.8487 C158.3874,118.2907 157.8814,117.1227 156.8674,116.3447 C155.8534,115.5657 154.4814,115.1767 152.7514,115.1767 L147.4864,115.1767 L147.4864,124.2977 Z M147.4864,112.0617 L152.3434,112.0617 C153.0104,112.0617 153.6414,111.9937 154.2344,111.8587 C154.8284,111.7227 155.3464,111.4927 155.7924,111.1717 C156.2374,110.8507 156.5894,110.4437 156.8484,109.9477 C157.1084,109.4537 157.2384,108.8487 157.2384,108.1307 C157.2384,107.0937 156.9044,106.1917 156.2374,105.4247 C155.5694,104.6587 154.5184,104.2757 153.0864,104.2757 L147.4864,104.2757 L147.4864,112.0617 Z M143.9264,101.1597 L153.0484,101.1597 C154.1844,101.1597 155.2414,101.2967 156.2184,101.5687 C157.1944,101.8407 158.0354,102.2417 158.7404,102.7737 C159.4444,103.3057 160.0014,103.9857 160.4084,104.8127 C160.8164,105.6417 161.0204,106.6107 161.0204,107.7237 C161.0204,109.2317 160.5994,110.4617 159.7594,111.4127 C158.9194,112.3637 157.8324,113.0627 156.4964,113.5077 L156.4964,113.5817 C157.2874,113.6317 158.0294,113.8357 158.7214,114.1937 C159.4134,114.5527 160.0124,115.0227 160.5194,115.6027 C161.0264,116.1837 161.4284,116.8577 161.7244,117.6237 C162.0214,118.3907 162.1704,119.2177 162.1704,120.1087 C162.1704,121.2947 161.9284,122.3387 161.4464,123.2407 C160.9654,124.1437 160.3024,124.9037 159.4634,125.5217 C158.6224,126.1397 157.6464,126.6097 156.5334,126.9307 C155.4224,127.2517 154.2214,127.4127 152.9364,127.4127 L143.9264,127.4127 L143.9264,101.1597 Z" id="Fill-9" fill="#000000"></path>
                <polygon id="Fill-11" fill="#000000" points="171.7354 101.16 175.2964 101.16 175.2964 124.075 187.3454 124.075 187.3454 127.413 171.7354 127.413"></polygon>
                <polygon id="Fill-13" fill="#000000" points="195.429 127.413 198.99 127.413 198.99 101.16 195.429 101.16"></polygon>
                <polygon id="Fill-15" fill="#000000" points="210.1866 101.16 214.8586 101.16 229.3196 122.741 229.3946 122.741 229.3946 101.16 232.9546 101.16 232.9546 127.413 228.4296 127.413 213.8216 105.832 213.7476 105.832 213.7476 127.413 210.1866 127.413"></polygon>
                <polygon id="Fill-16" fill="#000000" points="243.7198 101.16 247.2808 101.16 247.2808 112.507 247.5768 112.507 259.1828 101.16 264.1518 101.16 251.4698 113.285 265.0038 127.413 259.8128 127.413 247.5768 114.286 247.2808 114.286 247.2808 127.413 243.7198 127.413"></polygon>
                <polygon id="Fill-17" fill="#47B2E8" points="98.6788 5.2645 106.5568 13.1415 109.5838 10.1135 101.7068 2.2365"></polygon>
                <polygon id="Fill-18" fill="#47B2E8" points="97.241 38.291 108.381 38.291 108.381 34.009 97.241 34.009"></polygon>
                <polygon id="Fill-19" fill="#47B2E8" points="163.4386 2.158 155.5616 10.035 158.5896 13.063 166.4666 5.186"></polygon>
                <polygon id="Fill-20" fill="#47B2E8" points="130.412 11.861 134.695 11.861 134.695 0.721 130.412 0.721"></polygon>
                <polygon id="Fill-21" fill="#47B2E8" points="156.901 38.193 168.042 38.193 168.042 33.911 156.901 33.911"></polygon>
                <polygon id="Fill-22" fill="#47B2E8" points="166.4669 66.9959 158.5899 59.1189 155.5619 62.1459 163.4389 70.0239"></polygon>
                <polygon id="Fill-23" fill="#47B2E8" points="101.7071 70.1023 109.5841 62.2253 106.5571 59.1973 98.6791 67.0743"></polygon>
                <polygon id="Fill-24" fill="#47B2E8" points="130.451 71.54 134.733 71.54 134.733 60.4 130.451 60.4"></polygon>
            </g>
        </g>
    </g>
</svg>