<?xml version="1.0" encoding="UTF-8"?>
<svg width="776px" height="204px" viewBox="0 0 776 204" version="1.1" xmlns="http://www.w3.org/2000/svg" xmlns:xlink="http://www.w3.org/1999/xlink">
    <!-- Generator: Sketch 50.2 (55047) - http://www.bohemiancoding.com/sketch -->
    <title>Group</title>
    <desc>Created with Sketch.</desc>
    <defs></defs>
    <g id="Page-1" stroke="none" stroke-width="1" fill="none" fill-rule="evenodd">
        <g id="NodeFactory" transform="translate(0.000000, -4.000000)" fill-rule="nonzero">
            <g id="Group">
                <g transform="translate(0.000000, 51.000000)" id="Shape">
                    <polygon fill="#33C1FF" points="58.59 0.428 75.513 0.428 75.513 90.291 65 90.291 65 90.42 17.824 29.784 17.824 90.291 0.903 90.291 0.903 0.555 14.621 0.555 58.59 56.192 58.59 0.428"></polygon>
                    <path d="M231.565,0.684 L231.565,90.291 L216.95,90.291 L215.924,81.575 C211.054,89.138 203.235,91.703 195.542,91.703 C176.954,91.703 162.98,79.396 162.98,58.627 C162.98,36.834 176.698,25.554 195.157,25.554 C201.823,25.554 212.207,29.144 215.924,35.682 L215.924,0.685 L231.565,0.685 L231.565,0.684 Z M178.621,58.626 C178.621,69.65 186.567,77.214 196.568,77.214 C206.437,77.214 214.9,70.036 214.9,58.626 C214.9,47.602 206.437,40.167 196.568,40.167 C186.567,40.168 178.621,47.217 178.621,58.626 Z" fill="#33C1FF"></path>
                    <path d="M257.387,64.266 C258.411,72.088 265.206,77.728 276.231,77.728 C282,77.728 289.564,75.549 293.152,71.829 L303.15,81.701 C296.486,88.623 285.588,91.958 275.975,91.958 C254.182,91.958 241.234,78.496 241.234,58.243 C241.234,39.012 254.308,25.167 274.819,25.167 C295.971,25.167 309.175,38.244 306.74,64.266 L257.387,64.266 Z M291.742,51.321 C290.716,43.117 284.305,39.012 275.333,39.012 C266.87,39.012 259.948,43.117 257.642,51.321 L291.742,51.321 Z" fill="#33C1FF"></path>
                    <polygon fill="#052437" points="328.781 43.244 380.442 43.244 380.442 49.781 328.781 49.781 328.781 90.42 321.859 90.42 321.859 0.554 382.239 0.554 382.239 7.476 328.781 7.476"></polygon>
                    <path d="M457.222,26.964 C457.222,48.116 457.222,69.139 457.222,90.291 L450.941,90.291 L450.941,76.832 C444.786,86.701 435.3,91.318 425.046,91.318 C407.355,91.318 392.87,77.985 392.87,58.627 C392.87,39.271 407.356,26.195 425.046,26.195 C435.3,26.195 445.684,30.938 450.941,40.81 L450.941,26.965 L457.222,26.965 L457.222,26.964 Z M399.15,58.626 C399.15,74.523 410.686,85.162 425.045,85.162 C460.298,85.162 460.298,32.219 425.045,32.219 C410.686,32.219 399.15,42.732 399.15,58.626 Z" fill="#052437"></path>
                    <path d="M527.588,81.445 C521.178,87.855 512.846,90.931 504.513,90.931 C486.695,90.931 471.951,78.624 471.951,58.625 C471.951,38.628 486.181,26.322 504.513,26.322 C512.847,26.322 521.178,29.527 527.588,35.808 L523.486,39.781 C518.358,34.653 511.309,32.218 504.513,32.218 C490.157,32.218 478.106,41.575 478.106,58.625 C478.106,75.675 490.157,85.035 504.513,85.035 C511.309,85.035 518.231,82.342 523.359,77.213 L527.588,81.445 Z" fill="#052437"></path>
                    <path d="M554.885,7.862 L554.885,26.964 L576.422,26.964 L576.422,32.219 L554.885,32.219 L554.885,70.806 C554.885,79.396 556.679,85.418 566.551,85.418 C569.627,85.418 573.088,84.394 576.293,82.856 L578.472,87.982 C574.499,89.905 570.524,91.187 566.551,91.187 C553.089,91.187 548.731,83.239 548.731,70.805 L548.731,32.218 L535.272,32.218 L535.272,26.963 L548.731,26.963 L548.731,8.502 L554.885,7.862 Z" fill="#052437"></path>
                    <path d="M587.951,58.755 C587.951,38.629 602.307,25.808 620.127,25.808 C637.947,25.808 652.304,38.629 652.304,58.755 C652.304,78.881 637.948,91.187 620.127,91.187 C602.307,91.188 587.951,78.881 587.951,58.755 Z M646.152,58.755 C646.152,42.346 634.486,31.707 620.128,31.707 C605.772,31.707 594.104,42.346 594.104,58.755 C594.104,75.164 605.772,85.035 620.128,85.035 C634.486,85.036 646.152,75.164 646.152,58.755 Z" fill="#052437"></path>
                    <path d="M672.678,26.964 L672.934,38.244 C676.909,29.655 685.882,26.323 693.959,26.323 C698.702,26.194 703.316,27.476 707.545,30.04 L704.725,35.168 C701.393,33.116 697.676,32.219 693.959,32.219 C682.164,32.348 673.063,41.835 673.063,53.371 L673.063,90.291 L666.782,90.291 L666.782,26.964 L672.678,26.964 Z" fill="#052437"></path>
                    <polygon fill="#052437" points="775.096 26.964 736.512 116.698 729.846 116.698 741.512 89.521 716.129 26.964 722.925 26.964 737.667 64.396 745.101 82.728 752.408 64.267 768.305 26.965 775.096 26.965"></polygon>
                </g>
                <path d="M120.771,76.424 C102.398,76.424 87.504,91.318 87.504,109.691 C87.504,128.064 102.398,142.958 120.771,142.958 C139.144,142.958 154.038,128.064 154.038,109.691 C154.038,91.318 139.144,76.424 120.771,76.424 Z M121.042,127.786 C111.048,127.786 102.946,119.684 102.946,109.691 C102.946,99.697 111.048,91.595 121.042,91.595 C131.036,91.595 139.137,99.697 139.137,109.691 C139.137,119.685 131.035,127.786 121.042,127.786 Z" id="Shape" fill="#33C1FF"></path>
                <circle id="Oval" fill="#33C1FF" transform="translate(180.459360, 46.649830) rotate(-37.446320) translate(-180.459360, -46.649830) " cx="180.45936" cy="46.6498301" r="14.6695688"></circle>
                <circle id="Oval" fill="#33C1FF" transform="translate(95.734230, 29.364172) rotate(-37.446320) translate(-95.734230, -29.364172) " cx="95.7342303" cy="29.3641724" r="15.1575544"></circle>
                <circle id="Oval" fill="#33C1FF" transform="translate(80.570740, 171.317219) rotate(-37.446320) translate(-80.570740, -171.317219) " cx="80.5707402" cy="171.317219" r="18.8944446"></circle>
                <circle id="Oval" fill="#33C1FF" transform="translate(169.788134, 166.072582) rotate(-37.446320) translate(-169.788134, -166.072582) " cx="169.788134" cy="166.072582" r="15.7755363"></circle>
                <circle id="Oval" fill="#33C1FF" transform="translate(138.921812, 14.206738) rotate(-37.446320) translate(-138.921812, -14.206738) " cx="138.921812" cy="14.2067383" r="9.50572057"></circle>
                <circle id="Oval" fill="#33C1FF" transform="translate(129.409528, 194.582389) rotate(-37.446320) translate(-129.409528, -194.582389) " cx="129.409528" cy="194.582389" r="12.7336257"></circle>
                <rect id="Rectangle-path" fill="#33C1FF" transform="translate(104.619562, 57.928237) rotate(-17.162965) translate(-104.619562, -57.928237) " x="102.124481" y="28.0102753" width="4.99016033" height="59.8359224"></rect>
                <polygon id="Shape" fill="#33C1FF" points="105.556 60.237 103.611 55.64 143.755 38.661 136.555 14.921 141.332 13.473 149.834 41.508"></polygon>
                <rect id="Rectangle-path" fill="#33C1FF" transform="translate(159.722575, 68.135565) rotate(-46.029106) translate(-159.722575, -68.135565) " x="129.825767" y="65.6395393" width="59.7936153" height="4.99205137"></rect>
                <rect id="Rectangle-path" fill="#33C1FF" transform="translate(94.316013, 151.209150) rotate(-55.582073) translate(-94.316013, -151.209150) " x="69.9735959" y="148.712761" width="48.6848346" height="4.99277793"></rect>
                <polygon id="Shape" fill="#33C1FF" points="130.812 196.66 128.063 192.492 166.026 167.465 134.954 132.807 138.668 129.472 173.606 168.444"></polygon>
                <circle id="Oval" fill="#33C1FF" transform="translate(62.067703, 31.976569) rotate(-37.446320) translate(-62.067703, -31.976569) " cx="62.067703" cy="31.9765691" r="7.08479173"></circle>
                <circle id="Oval" fill="#33C1FF" transform="translate(123.761643, 162.864560) rotate(-37.446320) translate(-123.761643, -162.864560) " cx="123.761643" cy="162.86456" r="7.08479173"></circle>
                <circle id="Oval" fill="#33C1FF" transform="translate(136.498382, 61.318631) rotate(-37.446320) translate(-136.498382, -61.318631) " cx="136.498382" cy="61.3186311" r="7.08479173"></circle>
                <circle id="Oval" fill="#33C1FF" transform="translate(47.893928, 148.510359) rotate(-37.446320) translate(-47.893928, -148.510359) " cx="47.893928" cy="148.510359" r="7.08479173"></circle>
                <circle id="Oval" fill="#33C1FF" transform="translate(165.790191, 21.292568) rotate(-37.446320) translate(-165.790191, -21.292568) " cx="165.790191" cy="21.2925678" r="7.08479173"></circle>
            </g>
        </g>
    </g>
</svg>