<?xml version="1.0" encoding="UTF-8"?>
<svg width="258px" height="63px" viewBox="0 0 258 63" version="1.1" xmlns="http://www.w3.org/2000/svg" xmlns:xlink="http://www.w3.org/1999/xlink">
    <!-- Generator: Sketch 50.2 (55047) - http://www.bohemiancoding.com/sketch -->
    <title>path-1</title>
    <desc>Created with Sketch.</desc>
    <defs></defs>
    <g id="Page-1" stroke="none" stroke-width="1" fill="none" fill-rule="evenodd">
        <g id="getByBus" fill="#006DFF" fill-rule="nonzero">
            <path d="M197.5869,45.70586 L197.4506,45.70586 C196.4509,47.52349 195.1558,48.81854 193.5654,49.59103 C191.975,50.36353 190.1574,50.74977 188.1125,50.74977 C185.1134,50.74977 182.8073,49.96593 181.1942,48.39822 C179.581,46.83051 178.7745,44.20634 178.7745,40.52563 L178.7745,13.3294 L188.1807,13.3294 L188.1807,38.61712 C188.1807,40.52564 188.4988,41.85476 189.1349,42.60454 C189.7711,43.35431 190.7935,43.72919 192.2022,43.72919 C195.5194,43.72919 197.1779,41.7071 197.1779,37.66287 L197.1779,13.3294 L206.5841,13.3294 L206.5841,50 L197.5869,50 L197.5869,45.70586 Z M147.294,1.33308 L156.7002,1.33308 L156.7002,16.73745 L156.8365,16.73745 C157.8362,15.28334 158.9609,14.19278 160.2105,13.46573 C161.4601,12.73867 162.971,12.37515 164.7432,12.37515 C168.6057,12.37515 171.4457,13.88604 173.2633,16.90785 C175.081,19.92967 175.9898,24.84857 175.9898,31.6647 C175.9898,38.48083 175.081,43.36565 173.2633,46.31931 C171.4457,49.27296 168.6057,50.74977 164.7432,50.74977 C162.8347,50.74977 161.2329,50.40897 159.9379,49.72736 C158.6428,49.04574 157.4727,47.84158 156.4276,46.11483 L156.2912,46.11483 L156.2912,50 L147.294,50 L147.294,1.33308 Z M117.6305,54.771267 C118.4485,54.90759 119.2664,54.97575 120.0843,54.97575 C121.8111,54.97575 123.0493,54.521348 123.7991,53.612531 C124.5489,52.70371 124.9919,51.49955 125.1282,50 L114.8359,13.3294 L124.6511,13.3294 L130.104,38.68528 L130.2403,38.68528 L135.0116,13.3294 L144.4178,13.3294 L135.5569,47.54621 C134.7389,50.59074 133.9551,53.055874 133.2053,54.941669 C132.4555,56.827465 131.5695,58.281551 130.547,59.303971 C129.5246,60.32639 128.2977,60.996633 126.8663,61.314719 C125.435,61.632805 123.6287,61.791846 121.4475,61.791846 L117.6305,61.791846 L117.6305,54.771267 Z M85.15005,1.33308 L94.55626,1.33308 L94.55626,16.73745 L94.69258,16.73745 C95.69228,15.28334 96.81693,14.19278 98.06655,13.46573 C99.31618,12.73867 100.8271,12.37515 102.5993,12.37515 C106.4617,12.37515 109.3017,13.88604 111.1194,16.90785 C112.937,19.92967 113.8458,24.84857 113.8458,31.6647 C113.8458,38.48083 112.937,43.36565 111.1194,46.31931 C109.3017,49.27296 106.4617,50.74977 102.5993,50.74977 C100.6907,50.74977 99.08897,50.40897 97.79391,49.72736 C96.49884,49.04574 95.32876,47.84158 94.28362,46.11483 L94.1473,46.11483 L94.1473,50 L85.15005,50 L85.15005,1.33308 Z M28.60427,13.3294 L28.60427,48.15965 C28.60427,52.8855 27.43419,56.429839 25.09398,58.792764 C22.75378,61.155689 18.83456,62.3371335 13.33622,62.3371335 C9.337419,62.3371335 6.258847,61.48513 4.100406,59.781098 C1.941965,58.077065 0.8627603,55.657375 0.8627603,52.52196 L9.860007,52.52196 C9.860007,53.703418 10.33713,54.634942 11.29139,55.316555 C11.7458,55.634641 12.23428,55.884562 12.75685,56.066325 C13.27942,56.248089 13.83606,56.338969 14.42679,56.338969 C16.33531,56.338969 17.67579,55.725527 18.44829,54.498623 C19.22078,53.27172 19.60702,51.74947 19.60702,49.93184 L19.60702,45.09241 L19.4707,45.09241 C18.51644,46.45564 17.34636,47.5462 15.96041,48.36414 C14.57447,49.18207 13.13174,49.59103 11.63219,49.59103 C7.906041,49.59103 5.100109,48.17103 3.214313,45.33097 C1.328517,42.49092 0.3856335,37.73106 0.3856335,31.05125 C0.3856335,28.91553 0.5105941,26.7344 0.7605188,24.5078 C1.010444,22.2812 1.533006,20.27047 2.328221,18.47556 C3.123436,16.68064 4.282161,15.2152 5.80443,14.07917 C7.326699,12.94315 9.360147,12.37515 11.90484,12.37515 C13.22262,12.37515 14.58583,12.73867 15.99449,13.46573 C17.40316,14.19278 18.56188,15.51055 19.4707,17.41906 L19.60702,17.41906 L19.60702,13.3294 L28.60427,13.3294 Z M41.65888,33.09608 L41.65888,36.027 C41.65888,37.11758 41.7384,38.17407 41.89744,39.19649 C42.05648,40.21891 42.31776,41.12771 42.68129,41.92293 C43.04482,42.71814 43.52194,43.3543 44.11267,43.83143 C44.7034,44.30856 45.43045,44.54712 46.29382,44.54712 C47.88425,44.54712 49.04298,43.97912 49.77003,42.8431 C50.49708,41.70708 50.99693,39.98035 51.26957,37.66287 L59.72153,37.66287 C59.53977,41.93431 58.40376,45.18328 56.31348,47.40988 C54.2232,49.63649 50.92879,50.74977 46.43014,50.74977 C43.02208,50.74977 40.36383,50.18177 38.45531,49.04575 C36.54679,47.90972 35.13815,46.4102 34.22933,44.54712 C33.32051,42.68405 32.76387,40.5938 32.55939,38.27632 C32.3549,35.95883 32.25266,33.64138 32.25266,31.3239 C32.25266,28.87009 32.42306,26.5072 32.76387,24.23516 C33.10468,21.96311 33.78628,19.94103 34.8087,18.16883 C35.83112,16.39664 37.29657,14.98799 39.20508,13.94285 C41.1136,12.89771 43.65825,12.37515 46.83911,12.37515 C49.56556,12.37515 51.80349,12.81819 53.55296,13.70429 C55.30244,14.59039 56.677,15.83999 57.6767,17.45314 C58.6764,19.06629 59.358,21.02022 59.72153,23.31498 C60.08506,25.60975 60.26682,28.16576 60.26682,30.98309 L60.26682,33.09608 L41.65888,33.09608 Z M51.26957,27.50688 C51.22413,26.09822 51.13325,24.85997 50.99693,23.79211 C50.86061,22.72425 50.62204,21.81545 50.28124,21.06567 C49.94043,20.3159 49.46331,19.7479 48.84986,19.36165 C48.23641,18.9754 47.45256,18.78228 46.4983,18.78228 C45.54405,18.78228 44.7602,18.99812 44.14675,19.42981 C43.5333,19.8615 43.04482,20.4295 42.68129,21.13383 C42.31776,21.83817 42.05648,22.62201 41.89744,23.48539 C41.7384,24.34876 41.65888,25.21213 41.65888,26.0755 L41.65888,27.50688 L51.26957,27.50688 Z M66.61924,2.83262 L76.02545,2.83262 L76.02545,13.3294 L81.47832,13.3294 L81.47832,19.73653 L76.02545,19.73653 L76.02545,39.57137 C76.02545,41.02548 76.24129,42.05925 76.67298,42.6727 C77.10467,43.28615 78.00211,43.59287 79.36533,43.59287 C79.72886,43.59287 80.09238,43.58151 80.45591,43.55879 C80.81944,43.53607 81.16024,43.50199 81.47832,43.45655 L81.47832,50 C80.43318,50 79.42214,50.03408 78.44516,50.10224 C77.46818,50.1704 76.43442,50.20448 75.34384,50.20448 C73.5262,50.20448 72.03804,50.07952 70.8793,49.8296 C69.72055,49.57967 68.83447,49.07983 68.22102,48.33006 C67.60757,47.58028 67.18724,46.59196 66.96004,45.36505 C66.73284,44.13815 66.61924,42.59319 66.61924,40.73011 L66.61924,19.73653 L61.84797,19.73653 L61.84797,13.3294 L66.61924,13.3294 L66.61924,2.83262 Z M218.1392,38.00367 L218.1392,39.23057 C218.1392,40.821 218.5595,42.10468 219.4002,43.08166 C220.2408,44.05864 221.4564,44.54712 223.0468,44.54712 C224.5009,44.54712 225.6596,44.1836 226.523,43.45655 C227.3864,42.72949 227.8181,41.63893 227.8181,40.18482 C227.8181,39.00336 227.4773,38.10592 226.7957,37.49246 C226.114,36.87901 225.3188,36.39053 224.41,36.027 L217.7984,33.64137 C215.2083,32.73255 213.2543,31.44887 211.9366,29.79028 C210.6188,28.13168 209.9599,26.00736 209.9599,23.41723 C209.9599,21.91768 210.2098,20.49767 210.7097,19.15717 C211.2095,17.81666 212.0047,16.64658 213.0953,15.64688 C214.1859,14.64718 215.5832,13.85197 217.2872,13.26124 C218.9912,12.67051 221.0474,12.37515 223.4558,12.37515 C227.7272,12.37515 230.8853,13.28395 232.9301,15.10159 C234.975,16.91922 235.9974,19.48659 235.9974,22.80378 L235.9974,24.30332 L227.5454,24.30332 C227.5454,22.3948 227.2387,20.99752 226.6252,20.11142 C226.0118,19.22532 224.9326,18.78228 223.3876,18.78228 C222.2061,18.78228 221.1724,19.11172 220.2863,19.77061 C219.4002,20.42951 218.9571,21.41783 218.9571,22.73562 C218.9571,23.64443 219.2411,24.46236 219.8092,25.18941 C220.3772,25.91647 221.4564,26.52991 223.0468,27.02976 L228.7042,28.93826 C231.6578,29.93796 233.7481,31.24437 234.975,32.85752 C236.2019,34.47067 236.8153,36.66316 236.8153,39.43505 C236.8153,41.38901 236.4745,43.08166 235.7929,44.51304 C235.1113,45.94443 234.1684,47.13723 232.9642,48.09149 C231.76,49.04575 230.3287,49.72735 228.6701,50.13632 C227.0115,50.54529 225.1825,50.74977 223.1831,50.74977 C220.5476,50.74977 218.3551,50.49985 216.6056,50 C214.8561,49.50015 213.4702,48.75039 212.4478,47.75069 C211.4254,46.75099 210.7097,45.53546 210.3007,44.10408 C209.8917,42.67269 209.6873,41.07092 209.6873,39.29873 L209.6873,38.00367 L218.1392,38.00367 Z M156.7002,31.6647 C156.7002,35.6635 157.0069,38.67391 157.6204,40.69603 C158.2338,42.71815 159.5857,43.72919 161.676,43.72919 C163.7208,43.72919 165.0499,42.71815 165.6634,40.69603 C166.2768,38.67391 166.5835,35.6635 166.5835,31.6647 C166.5835,27.66591 166.2768,24.65549 165.6634,22.63338 C165.0499,20.61126 163.7208,19.60021 161.676,19.60021 C159.5857,19.60021 158.2338,20.61126 157.6204,22.63338 C157.0069,24.65549 156.7002,27.66591 156.7002,31.6647 Z M94.55626,31.6647 C94.55626,35.6635 94.86298,38.67391 95.47644,40.69603 C96.08989,42.71815 97.44173,43.72919 99.53201,43.72919 C101.5769,43.72919 102.906,42.71815 103.5194,40.69603 C104.1329,38.67391 104.4396,35.6635 104.4396,31.6647 C104.4396,27.66591 104.1329,24.65549 103.5194,22.63338 C102.906,20.61126 101.5769,19.60021 99.53201,19.60021 C97.44173,19.60021 96.08989,20.61126 95.47644,22.63338 C94.86298,24.65549 94.55626,27.66591 94.55626,31.6647 Z M9.791846,32.82344 C9.791846,34.09578 9.848646,35.29995 9.962248,36.43597 C10.07585,37.57199 10.30305,38.58304 10.64386,39.46913 C10.98466,40.35523 11.46179,41.05955 12.07524,41.58212 C12.68869,42.10469 13.49525,42.36597 14.49495,42.36597 C15.49465,42.36597 16.32393,42.10469 16.98283,41.58212 C17.64172,41.05955 18.16428,40.34387 18.55053,39.43505 C18.93678,38.52623 19.20942,37.42431 19.36846,36.12924 C19.5275,34.83418 19.60702,33.41417 19.60702,31.86919 C19.60702,27.41598 19.25486,24.25789 18.55053,22.39481 C17.8462,20.53174 16.56251,19.60021 14.69943,19.60021 C13.65429,19.60021 12.81365,19.82741 12.17748,20.28182 C11.54131,20.73623 11.04147,21.47463 10.67794,22.49705 C10.31441,23.51947 10.07585,24.88268 9.962248,26.58671 C9.848646,28.29074 9.791846,30.36963 9.791846,32.82344 Z M238.77112,9.526087 C238.77112,8.11739996 239.029102,6.84796265 239.545075,5.717737 C240.061048,4.58751135 240.753096,3.62519597 241.62124,2.830762 C242.489384,2.03632803 243.492649,1.42208417 244.631065,0.988012 C245.769481,0.55393983 246.961114,0.336907 248.206,0.336907 C249.450886,0.336907 250.642519,0.55393983 251.780935,0.988012 C252.919351,1.42208417 253.922616,2.03632803 254.79076,2.830762 C255.658904,3.62519597 256.350952,4.58751135 256.866925,5.717737 C257.382898,6.84796265 257.64088,8.11739996 257.64088,9.526087 C257.64088,10.918394 257.382898,12.1796413 256.866925,13.309867 C256.350952,14.4400927 255.658904,15.406503 254.79076,16.209127 C253.922616,17.011751 252.919351,17.6259949 251.780935,18.051877 C250.642519,18.4777591 249.450886,18.690697 248.206,18.690697 C246.961114,18.690697 245.769481,18.4777591 244.631065,18.051877 C243.492649,17.6259949 242.489384,17.011751 241.62124,16.209127 C240.753096,15.406503 240.061048,14.4400927 239.545075,13.309867 C239.029102,12.1796413 238.77112,10.918394 238.77112,9.526087 Z M241.27726,9.526087 C241.27726,10.5744122 241.457438,11.5408226 241.8178,12.425347 C242.178162,13.3098714 242.669557,14.0715338 243.292,14.710357 C243.914443,15.3491802 244.647441,15.8487652 245.491015,16.209127 C246.334589,16.5694888 247.239575,16.749667 248.206,16.749667 C249.156045,16.749667 250.052841,16.5694888 250.896415,16.209127 C251.739989,15.8487652 252.472987,15.3491802 253.09543,14.710357 C253.717873,14.0715338 254.213363,13.3098714 254.581915,12.425347 C254.950467,11.5408226 255.13474,10.5744122 255.13474,9.526087 C255.13474,8.47776176 254.950467,7.51135142 254.581915,6.626827 C254.213363,5.74230258 253.717873,4.98064019 253.09543,4.341817 C252.472987,3.70299381 251.739989,3.2034088 250.896415,2.843047 C250.052841,2.4826852 249.156045,2.302507 248.206,2.302507 C247.239575,2.302507 246.334589,2.4826852 245.491015,2.843047 C244.647441,3.2034088 243.914443,3.70299381 243.292,4.341817 C242.669557,4.98064019 242.178162,5.74230258 241.8178,6.626827 C241.457438,7.51135142 241.27726,8.47776176 241.27726,9.526087 Z M253.02172,11.049427 C252.92344,11.65549 252.739166,12.2001196 252.468895,12.683332 C252.198624,13.1665444 251.862837,13.5760403 251.461525,13.911832 C251.060213,14.2476237 250.609767,14.5015111 250.110175,14.673502 C249.610583,14.8454929 249.090523,14.931487 248.54998,14.931487 C247.747356,14.931487 247.022548,14.7922584 246.375535,14.513797 C245.728522,14.2353356 245.175702,13.8504095 244.71706,13.359007 C244.258418,12.8676045 243.902156,12.2902153 243.648265,11.626822 C243.394374,10.9634287 243.26743,10.2468108 243.26743,9.476947 C243.26743,8.69070307 243.386184,7.96180036 243.623695,7.290217 C243.861206,6.61863364 244.205183,6.03714946 244.655635,5.545747 C245.106087,5.05434454 245.654812,4.66941839 246.301825,4.390957 C246.948838,4.11249561 247.681836,3.973267 248.50084,3.973267 C249.074143,3.973267 249.610583,4.05516618 250.110175,4.218967 C250.609767,4.38276782 251.056118,4.6243704 251.44924,4.943782 C251.842362,5.2631936 252.169959,5.66040462 252.43204,6.135427 C252.694121,6.61044938 252.86611,7.15917389 252.94801,7.781617 L251.03155,7.781617 C250.900509,7.20831413 250.605672,6.75786864 250.14703,6.430267 C249.688388,6.10266536 249.139663,5.938867 248.50084,5.938867 C247.567175,5.938867 246.854652,6.26236876 246.36325,6.909382 C245.871848,7.55639524 245.62615,8.39586184 245.62615,9.427807 C245.62615,9.90282938 245.695764,10.3573698 245.834995,10.791442 C245.974226,11.2255142 246.170784,11.6022504 246.424675,11.921662 C246.678566,12.2410736 246.985688,12.4949611 247.34605,12.683332 C247.706412,12.8717029 248.107718,12.965887 248.54998,12.965887 C249.237943,12.965887 249.803048,12.7938987 250.24531,12.449917 C250.687572,12.1059353 250.94965,11.6391099 251.03155,11.049427 L253.02172,11.049427 Z" id="path-1"></path>
        </g>
    </g>
</svg>