<svg xmlns="http://www.w3.org/2000/svg" width="200" height="60" viewBox="0 0 200 60"><style>  .a{fill:#FFF;}</style><path d="M30.9 16.9c-2 0-3.4 0.8-4.2 2.4l-9.1 18.3L8.7 19.3c-0.8-1.6-2.2-2.4-4.3-2.4-1.4 0-2.4 0.3-3.2 1C0.4 18.5 0 19.3 0 20.3V42.8h4.9V22.5l9.3 18.2c0.4 0.8 0.8 1.4 1.2 1.7 0.6 0.5 1.4 0.8 2.3 0.8 1.6 0 2.8-0.9 3.7-2.7l9-18.1v20.3h4.9V20.4c0-1-0.4-1.9-1.1-2.5C33.4 17.2 32.3 16.9 30.9 16.9zM61 16.9H41.3v3.8h16.8L41.6 38.3c-0.6 0.7-0.9 1.3-0.9 1.8 0 0.5 0.2 1 0.7 1.4 0.5 0.4 1.1 0.7 1.7 0.9s1.5 0.2 2.5 0.2h18.3v-3.8H47.2l16.8-18c0.4-0.4 0.6-0.9 0.6-1.5C64.7 17.7 63.4 16.9 61 16.9zM76.6 38.3c-0.8-0.5-1.3-1.4-1.3-2.8V16.8h-5.1v19.6c0 2.3 0.8 3.9 2.4 4.8 1.6 0.9 3.9 1.4 6.9 1.4h13.6v-3.7H80.6C78.6 38.9 77.2 38.7 76.6 38.3zM116.3 16.9H96.7v3.8h16.8L97 38.3c-0.6 0.7-0.9 1.3-0.9 1.8 0 0.5 0.2 1 0.7 1.4 0.5 0.4 1.1 0.7 1.7 0.9 0.7 0.1 1.5 0.2 2.5 0.2h18.3v-3.8h-16.8l16.8-18c0.4-0.4 0.6-0.9 0.6-1.5C120 17.7 118.8 16.9 116.3 16.9z" class="a"/><path d="M166.1 4.4h0c-3.4-1.5-6.9-3-10.4-4.4-3.7 3.1-7.4 6.1-11.1 9.1l8.2 4C157.1 10.1 161.6 7.2 166.1 4.4zM165.2 19.2c4.7-3.1 9.7-6 15-8.6h0c-4-1.8-8-3.6-12.1-5.3-4.6 2.8-9.1 5.7-13.5 8.7L165.2 19.2zM182.9 11.9c-5.4 2.5-10.5 5.3-15.4 8.5l16 7.8v0c5.2-3.1 10.7-5.8 16.5-8.2C194.5 17.3 188.8 14.6 182.9 11.9zM155.1 26.6c2.5-2 5-3.9 7.6-5.7l-10.6-5.2c-4.8 3.1-9 6.8-13.4 10.6 3.2 2.4 5.8 4.4 8.8 6.8C150 30.9 152.5 28.7 155.1 26.6zM156.5 28.4c-2.5 2-4.8 4-7.2 6.2 4.1 3.2 8.1 6.5 12 9.7 6-5.3 12.5-10.1 19.5-14.5l-15.8-7.7C162.1 24.1 159.3 26.2 156.5 28.4zM135.6 48.9h0c3.5 3.7 6.8 7.4 10 11.1 4.2-4.7 8.6-9.2 13.3-13.4-3.9-3.2-7.9-6.5-12-9.7C142.9 40.7 139.1 44.7 135.6 48.9z" class="a"/></svg>