<?xml version="1.0" encoding="UTF-8"?>
<svg width="137px" height="35px" viewBox="0 0 137 35" version="1.1" xmlns="http://www.w3.org/2000/svg" xmlns:xlink="http://www.w3.org/1999/xlink">
    <!-- Generator: Sketch 50.2 (55047) - http://www.bohemiancoding.com/sketch -->
    <title>Group</title>
    <desc>Created with Sketch.</desc>
    <defs>
        <linearGradient x1="100%" y1="0%" x2="0%" y2="100%" id="linearGradient-1">
            <stop stop-color="#C40F61" offset="0%"></stop>
            <stop stop-color="#E27210" offset="100%"></stop>
        </linearGradient>
    </defs>
    <g id="Page-1" stroke="none" stroke-width="1" fill="none" fill-rule="evenodd">
        <g id="svg-sprite" transform="translate(-380.000000, -828.000000)" fill-rule="nonzero">
            <g id="algebra-hub-logo-small" transform="translate(380.000000, 827.000000)">
                <g id="Group">
                    <g transform="translate(0.000000, 0.601000)" fill="url(#linearGradient-1)" id="Shape">
                        <path d="M18,0.399 C16.077,0.48 14.986,1.557 14.249,2.127 C12.704,3.322 11.925,5.201 11.299,6.709 L0,34.399 L15,34.399 C14.608,34.163 14.966,34.105 14.639,33.831 C13.73,33.066 13.073,32.451 12.685,31.399 L5,31.399 L14.489,8.178 L14.54,8.055 C15.006,6.929 15.588,5.526 16.396,4.901 C16.675,4.684 17.306,4.338 18.458,4.312 C19.628,4.336 20.26,4.683 20.541,4.901 C21.349,5.526 21.93,6.929 22.398,8.056 L22.61,8.576 L25,15.399 C25.805,15.031 27.235,14.786 28,14.399 C28.273,14.26 28.435,14.363 28.707,14.217 L25.7,6.867 L25.637,6.71 C25.011,5.201 24.231,3.322 22.687,2.126 C21.951,1.557 20.931,0.479 19,0.399 L18,0.399 Z"></path>
                        <path d="M15.283,32.955 C17.516,34.833 20.778,35.399 26,35.399 L27,35.399 C30.831,35.373 33.862,35.234 33.996,35.21 L37.068,34.632 L31.307,20.574 C30.257,21.167 29.176,21.634 28.152,22.137 L32.105,31.853 C30.906,31.979 28.564,32.256 26.812,32.268 C22.412,32.302 19.121,31.589 17.546,30.265 C16.793,29.629 16.439,28.869 16.43,27.866 C16.41,25.042 19.46,23.492 24.852,20.996 C28.389,19.357 32.381,17.341 36.294,14.437 L35.013,11.318 C30.041,14.85 27.654,15.822 23.375,17.804 C20.591,19.095 18.186,20.207 16.33,21.627 C14.033,23.384 12.916,25.414 12.916,27.831 C12.931,29.914 13.749,31.663 15.283,32.955 Z"></path>
                    </g>
                    <g transform="translate(43.000000, 12.000000)" fill="#454545" id="Shape">
                        <path d="M4.573,0 L0,13 L3.24,13 L4.14,10.308 L8.86,10.308 L9.757,13 L13,13 L8.427,0 L4.573,0 Z M6.499,3.25 L7.851,7.298 L5.149,7.298 L6.5,3.25 L6.499,3.25 Z M15,0 L15,13 L24,13 L24,9.992 L18.37,9.992 L18.37,0 L15,0 Z M39,5.837 L39,12.767 L36.35,12.767 L36.35,11.012 C35.782,12.122 34.336,13 32.325,13 C28.797,13 26,10.297 26,6.536 C26,2.776 28.797,0 32.637,0 C35.783,0 38.177,1.862 38.872,4.495 L35.545,4.495 C35.033,3.492 33.99,2.901 32.637,2.901 C30.516,2.901 29.145,4.369 29.145,6.571 C29.145,8.578 30.278,10.189 32.563,10.189 C33.972,10.189 35.18,9.579 35.691,8.379 L31.888,8.379 L31.888,5.838 L39,5.838 L39,5.837 Z M45.174,3.01 L45.174,4.94 L50.477,4.94 L50.477,7.95 L45.174,7.95 L45.174,9.992 L51,9.992 L51,13 L42,13 L42,0 L51,0 L51,3.01 L45.174,3.01 Z M61.9,8.914 C61.9,8.19 61.65,7.837 60.621,7.837 L58.063,7.837 L58.063,9.992 L60.621,9.992 C61.649,9.992 61.901,9.582 61.901,8.914 L61.9,8.914 Z M60.28,3.008 L58.063,3.008 L58.063,4.958 L60.406,4.958 C61.09,4.958 61.467,4.661 61.467,3.974 C61.467,3.175 61.017,3.008 60.28,3.008 Z M65,9.193 C65,11.643 63.216,13 60.692,13 L55,13 L55,0 L60.692,0 C62.891,0 64.568,1.114 64.568,3.417 C64.568,4.679 64.044,5.441 63.09,5.961 C64.387,6.444 65,7.725 65,9.193 Z M73.407,3.01 L71.137,3.01 L71.137,5.72 L73.407,5.72 C74.497,5.72 75.013,5.275 75.013,4.384 C75.013,3.474 74.459,3.009 73.407,3.009 L73.407,3.01 Z M72.116,8.488 L71.138,8.488 L71.138,13 L68,13 L68,0 L73.757,0 C76.49,0 78.188,1.635 78.188,4.346 C78.188,6.426 77.191,7.671 75.603,8.191 L79,13 L75.16,13 L72.116,8.488 Z M88.85,7.298 L87.5,3.25 L86.15,7.298 L88.85,7.298 Z M89.858,10.308 L85.142,10.308 L84.242,13 L81,13 L85.574,0 L89.426,0 L94,13 L90.759,13 L89.859,10.308 L89.858,10.308 Z"></path>
                    </g>
                </g>
            </g>
        </g>
    </g>
</svg>