<?xml version="1.0" encoding="utf-8"?>
<!-- Generator: Adobe Illustrator 22.1.0, SVG Export Plug-In . SVG Version: 6.00 Build 0)  -->
<svg version="1.1" id="Layer_1" xmlns="http://www.w3.org/2000/svg" xmlns:xlink="http://www.w3.org/1999/xlink" x="0px" y="0px"
	 viewBox="0 0 415 160.1" style="enable-background:new 0 0 415 160.1;" xml:space="preserve">
<style type="text/css">
	.st0{fill:#0F202C;}
</style>
<title>Asset 1</title>
<g id="Layer_1-2">
	<polygon class="st0" points="48.5,26.2 39.2,46.4 58.6,88.6 19.8,88.6 0,131.5 18.6,131.5 30.3,105.8 66.6,105.8 78.3,131.5 
		97.3,131.5 48.8,26.2 	"/>
	<polygon class="st0" points="366.2,26.2 356.9,46.4 376.3,88.6 337.4,88.6 317.7,131.5 336.3,131.5 348,105.8 384.2,105.8 
		396,131.5 415,131.5 366.5,26.2 	"/>
	<path class="st0" d="M116.7,97.9V28.4h18.2v69.4c0,9.7,7.6,18.4,19,18.4s19.1-8.7,19.1-18.4V28.4h18.2v69.4c0,20.2-14.5,36-37.2,36
		S116.7,118.1,116.7,97.9"/>
	<polygon class="st0" points="264.9,79.9 306.1,131.5 283.6,131.5 249.4,88.1 249.4,131.5 231.2,131.5 231.2,28.4 249.4,28.4 
		249.4,71.6 283.6,28.4 306.1,28.4 	"/>
</g>
</svg>
