<?xml version="1.0" encoding="UTF-8"?>
<svg width="142px" height="55px" viewBox="0 0 142 55" version="1.1" xmlns="http://www.w3.org/2000/svg" xmlns:xlink="http://www.w3.org/1999/xlink">
    <!-- Generator: Sketch 50.2 (55047) - http://www.bohemiancoding.com/sketch -->
    <title>Combined Shape</title>
    <desc>Created with Sketch.</desc>
    <defs></defs>
    <g id="Page-1" stroke="none" stroke-width="1" fill="none" fill-rule="evenodd">
        <g id="btcstore" fill="#ED9600" fill-rule="nonzero">
            <path d="M27.2,0 C12.2,0 0,12.2 0,27.2 C0,42.2 12.2,54.4 27.2,54.4 C42.2,54.4 54.4,42.2 54.4,27.2 C54.3,12.2 42.2,0 27.2,0 M27.2,3.1 C40.5,3.1 51.3,13.9 51.3,27.2 C51.3,40.5 40.5,51.3 27.2,51.3 C13.9,51.3 3.1,40.5 3.1,27.2 C3.1,13.9 13.9,3.1 27.2,3.1 Z M62,24.7 C61.2,24.7 60.7,24.1 60.7,23.3 L60.7,11 C60.7,10.3 61.2,9.6 62,9.6 L66.8,9.6 C69.5,9.6 71.3,11.2 71.3,13.8 C71.3,14.8 70.8,16 69.2,16.6 C71.2,17.1 72,18.8 72,20 C72,22.5 70.2,24.6 67.2,24.6 L62,24.6 L62,24.7 Z M77.7,23.3 C77.7,24.1 77,24.8 76.1,24.8 C75.3,24.8 74.5,24.1 74.5,23.3 L74.5,11 C74.5,10.2 75.3,9.5 76.1,9.5 C77,9.5 77.7,10.2 77.7,11 L77.7,23.3 Z M87.2,12.4 L87.2,23.3 C87.2,24.1 86.5,24.8 85.6,24.8 C84.8,24.8 84,24.1 84,23.3 L84,12.4 L81.1,12.4 C80.4,12.4 79.8,11.7 79.8,11 C79.8,10.2 80.4,9.6 81.1,9.6 L90.1,9.6 C90.8,9.6 91.4,10.2 91.4,11 C91.4,11.7 90.8,12.4 90.1,12.4 L87.2,12.4 Z M99.8,9.4 C101.9,9.4 103.8,10.2 105.1,11.5 C105.7,12 105.5,13.1 104.9,13.7 C104.3,14.2 103.4,14.2 102.8,13.7 C102,13 100.9,12.5 99.7,12.5 C97.2,12.5 95.3,14.6 95.3,17.1 C95.3,19.7 97.2,21.7 99.7,21.7 C100.9,21.7 102,21.3 102.8,20.5 C103.3,20 104.2,20 104.9,20.5 C105.5,21 105.7,22.2 105.1,22.7 C103.8,24 101.9,24.8 99.8,24.8 C95.5,24.8 92.2,21.4 92.2,17.1 C92.2,12.9 95.5,9.4 99.8,9.4 Z M114.6,9.3 C118.9,9.3 122.3,12.8 122.3,17 C122.3,21.2 118.9,24.7 114.6,24.7 C110.3,24.7 107,21.2 107,17 C106.9,12.8 110.3,9.3 114.6,9.3 Z M127.4,23.3 C127.4,24.1 126.7,24.8 125.8,24.8 C125,24.8 124.2,24.1 124.2,23.3 L124.2,11 C124.2,10.2 125,9.5 125.8,9.5 C126.7,9.5 127.4,10.2 127.4,11 L127.4,23.3 Z M141.7,23.2 C141.7,24.1 141,24.8 140.3,24.8 L140,24.8 C139.3,24.8 138.8,24.6 138.3,23.7 L133.6,15.6 L133.6,23.3 C133.6,24.1 132.9,24.8 132,24.8 C131.2,24.8 130.4,24.1 130.4,23.3 L130.4,11.1 C130.4,10.2 131.1,9.5 131.9,9.5 L132.2,9.5 C132.9,9.5 133.5,9.7 134,10.6 L138.6,18.6 L138.6,11 C138.6,10.2 139.4,9.5 140.2,9.5 C141.1,9.5 141.8,10.2 141.8,11 L141.8,23.2 L141.7,23.2 Z M61.6,39.9 C62.5,39.6 63.3,40 63.6,40.7 C63.9,41.4 64.7,42.1 66,42.1 C67.3,42.1 68.2,41.5 68.2,40.5 C68.2,39.8 67.9,39.2 66.4,38.8 L64.6,38.3 C61.3,37.3 60.7,35.4 60.7,34 C60.7,31.3 63,29.5 65.9,29.5 C68.1,29.5 69.7,30.4 70.5,32 C70.9,32.7 70.6,33.4 70,33.8 C69.2,34.3 68.5,34.1 68,33.4 C67.4,32.6 66.5,32.3 65.9,32.3 C64.8,32.3 64,33 64,33.9 C64,34.3 64.2,35 65.6,35.4 L67.4,35.9 C71.1,37 71.6,39 71.5,40.5 C71.5,43.5 68.7,44.9 66.1,44.9 C63.4,44.9 61.5,43.6 60.8,41.7 C60.5,40.9 60.9,40.2 61.6,39.9 Z M79.8,32.5 L79.8,43.4 C79.8,44.2 79.1,44.9 78.2,44.9 C77.4,44.9 76.6,44.2 76.6,43.4 L76.6,32.5 L73.7,32.5 C73,32.5 72.4,31.8 72.4,31.1 C72.4,30.3 73,29.7 73.7,29.7 L82.7,29.7 C83.4,29.7 84,30.3 84,31.1 C84,31.8 83.4,32.5 82.7,32.5 L79.8,32.5 Z M92.2,29.5 C96.5,29.5 99.9,33 99.9,37.2 C99.9,41.4 96.5,44.9 92.2,44.9 C87.9,44.9 84.6,41.4 84.6,37.2 C84.6,33 87.9,29.5 92.2,29.5 Z M63.9,18.2 L63.9,21.9 L67,21.9 C68.1,21.9 68.6,20.9 68.6,20 C68.6,19.1 68.1,18.2 66.9,18.2 L63.9,18.2 Z M66.5,15.6 C67.3,15.6 67.9,14.9 67.9,14 C67.9,13.1 67.4,12.4 66.5,12.4 L64,12.4 L64,15.6 L66.5,15.6 Z M114.6,21.7 C117.2,21.7 119.1,19.6 119.1,17.1 C119.1,14.6 117.2,12.5 114.6,12.5 C112,12.5 110.2,14.6 110.2,17.1 C110.1,19.6 112,21.7 114.6,21.7 Z M92.2,41.8 C94.8,41.8 96.7,39.7 96.7,37.2 C96.7,34.7 94.8,32.6 92.2,32.6 C89.6,32.6 87.8,34.7 87.8,37.2 C87.8,39.8 89.6,41.8 92.2,41.8 Z M110,39 L112.5,42.5 C112.9,43.2 112.7,44.1 111.9,44.6 C111.2,45 110.2,44.8 109.8,44.2 L106.9,39.4 L105.4,39.4 L105.4,43.3 C105.4,44.1 104.7,44.8 103.8,44.8 C103,44.8 102.2,44.1 102.2,43.3 L102.2,31.3 C102.2,30.4 102.8,29.7 103.7,29.7 L108.3,29.7 C111.7,29.7 113.3,32.1 113.3,34.6 C113.4,36.5 112.3,38.4 110,39 Z M105.5,32.5 L105.5,36.7 L108.4,36.7 C109.6,36.7 110.3,35.6 110.3,34.6 C110.3,33.7 109.7,32.5 108.5,32.5 L105.5,32.5 Z M124.3,29.7 C125,29.7 125.6,30.3 125.6,31.1 C125.6,31.8 125,32.5 124.3,32.5 L119.3,32.5 L119.3,36 L123.7,36 C124.4,36 125,36.6 125,37.4 C125,38.1 124.4,38.8 123.7,38.8 L119.3,38.8 L119.3,42 L124.5,42 C125.2,42 125.8,42.6 125.8,43.4 C125.8,44.1 125.2,44.8 124.5,44.8 L117.3,44.8 C116.5,44.8 116.1,44.2 116,43.4 L116,31 C116,30.3 116.5,29.6 117.3,29.6 L124.3,29.6 L124.3,29.7 Z M35.9,26.1 C36.9,24.9 37.4,23.4 37.4,21.8 C37.4,20 36.7,18.3 35.4,17 C34.4,16 33.2,15.4 31.8,15.2 L31.8,11.2 C31.8,10.8 31.6,10.4 31.3,10.1 C31,9.8 30.6,9.6 30.2,9.6 C29.3,9.6 28.6,10.3 28.6,11.2 L28.6,15.1 L26,15.1 L26,11.2 C26,10.8 25.8,10.4 25.5,10.1 C25.2,9.8 24.8,9.6 24.4,9.6 C23.5,9.6 22.8,10.3 22.8,11.2 L22.8,15.1 L17.3,15.1 C16.9,15.1 16.5,15.3 16.2,15.6 C15.9,15.9 15.7,16.3 15.7,16.7 C15.7,17.1 15.9,17.5 16.2,17.8 C16.5,18.1 16.9,18.3 17.3,18.3 L18.9,18.3 L18.9,36 L17.3,36 C16.5,36 15.8,36.6 15.7,37.4 L15.7,37.6 C15.7,38.2 16,38.7 16.5,39 C16.7,39.1 17,39.2 17.3,39.2 L22.8,39.2 L22.8,43.3 C22.8,43.9 23.1,44.4 23.6,44.7 C23.8,44.8 24.1,44.9 24.4,44.9 C25.1,44.9 25.7,44.5 25.9,43.8 C25.9,43.7 26,43.6 26,43.3 L26,39.2 L28.6,39.2 L28.6,43.3 C28.6,43.9 28.9,44.4 29.4,44.7 C29.6,44.8 29.9,44.9 30.2,44.9 C31.1,44.9 31.8,44.2 31.8,43.3 L31.8,39.2 L33,39.2 C34.8,39.2 36.5,38.5 37.8,37.2 C39.1,35.9 39.8,34.2 39.8,32.4 C39.9,29.6 38.3,27.2 35.9,26.1 Z M30.6,18.3 C31.6,18.3 32.5,18.7 33.2,19.4 C33.9,20.1 34.3,21 34.3,21.9 C34.3,23.9 32.7,25.5 30.7,25.5 L22.4,25.5 L22.4,18.3 L30.6,18.3 Z M22.3,35.9 L22.3,28.7 L33.1,28.7 C35.1,28.7 36.7,30.3 36.7,32.3 C36.7,33.3 36.3,34.2 35.6,34.9 C34.9,35.6 34,36 33,36 L22.3,35.9 Z" id="Combined-Shape"></path>
        </g>
    </g>
</svg>