<?xml version="1.0" encoding="UTF-8"?>
<svg width="1501px" height="594px" viewBox="0 0 1501 594" version="1.1" xmlns="http://www.w3.org/2000/svg" xmlns:xlink="http://www.w3.org/1999/xlink">
    <!-- Generator: Sketch 50.2 (55047) - http://www.bohemiancoding.com/sketch -->
    <title>Group</title>
    <desc>Created with Sketch.</desc>
    <defs>
        <path d="M0.412,228.635 C0.412,354.655 102.936,457.179 228.957,457.179 C278.47,457.179 325.18,441.564 363.753,413.224 C365.111,413.633 366.519,413.92 368.008,413.92 C373.869,413.92 378.903,410.507 381.365,405.592 L745.595,405.827 C747.858,411.239 753.202,415.056 759.427,415.056 C760.218,415.056 760.978,414.942 761.736,414.822 L852.344,572.814 C851.609,574.582 851.195,576.515 851.195,578.546 C851.195,586.81 857.92,593.536 866.186,593.536 C874.451,593.536 881.175,586.81 881.175,578.546 C881.175,577.042 880.885,575.62 880.471,574.248 L951.684,484.408 C952.957,484.762 954.273,485.011 955.658,485.011 C963.766,485.011 970.352,478.529 970.602,470.481 L1084.019,430.626 C1086.687,434.774 1091.321,437.543 1096.608,437.543 C1097.371,437.543 1098.104,437.427 1098.835,437.318 L1136.346,506.621 C1135.452,508.54 1134.917,510.657 1134.917,512.909 C1134.917,521.175 1141.641,527.9 1149.907,527.9 C1158.173,527.9 1164.897,521.175 1164.897,512.909 C1164.897,510.615 1164.337,508.464 1163.412,506.518 L1217.492,418.12 C1218.389,418.287 1219.306,418.399 1220.25,418.399 C1225.008,418.399 1229.206,416.127 1231.953,412.659 L1317.037,479.013 C1318.751,485.405 1324.537,490.148 1331.462,490.148 C1339.728,490.148 1346.452,483.424 1346.452,475.158 C1346.452,472.977 1345.96,470.917 1345.118,469.046 L1344.933,468.898 C1402.684,369.83 1457.51,178.963 1469.967,110.51 L1487.36,169.066 C1488.066,171.441 1489.977,173.127 1492.229,173.657 C1493.322,173.914 1494.492,173.897 1495.645,173.556 C1499.173,172.508 1501.181,168.799 1500.135,165.272 L1475.523,82.419 C1474.843,80.126 1472.987,78.377 1470.66,77.83 C1468.333,77.282 1465.892,78.023 1464.262,79.772 L1405.322,142.989 C1402.814,145.682 1402.959,149.895 1405.651,152.405 C1408.344,154.91 1412.558,154.769 1415.069,152.077 L1457.063,107.034 C1444.748,175.988 1389.013,365.737 1334.398,460.465 C1333.448,460.276 1332.468,460.168 1331.462,460.168 C1326.723,460.168 1322.54,462.422 1319.792,465.867 L1234.656,399.495 C1232.923,393.134 1227.153,388.418 1220.25,388.418 C1211.984,388.418 1205.26,395.143 1205.26,403.408 C1205.26,405.756 1205.85,407.951 1206.817,409.931 L1152.801,498.211 C1151.864,498.027 1150.899,497.919 1149.907,497.919 C1148.894,497.919 1147.906,498.026 1146.95,498.219 L1109.782,429.552 C1110.904,427.453 1111.599,425.094 1111.599,422.553 C1111.599,414.286 1104.874,407.563 1096.608,407.563 C1090.323,407.563 1084.949,411.46 1082.726,416.958 L964.943,458.346 C962.382,456.304 959.182,455.031 955.658,455.031 C947.393,455.031 940.668,461.755 940.668,470.022 C940.668,471.96 941.067,473.801 941.739,475.503 L871.208,564.485 C869.631,563.918 867.955,563.556 866.186,563.556 C864.919,563.556 863.71,563.761 862.535,564.057 L772.594,407.079 C773.719,404.977 774.417,402.613 774.417,400.066 C774.417,391.801 767.692,385.075 759.427,385.075 C753.931,385.075 749.169,388.08 746.559,392.501 L381.365,392.268 C378.901,387.353 373.868,383.94 368.008,383.94 C359.742,383.94 353.017,390.665 353.017,398.931 C353.017,400.683 353.377,402.34 353.934,403.903 C317.993,429.685 274.744,443.854 228.957,443.854 C110.284,443.854 13.736,347.307 13.736,228.635 C13.736,109.96 110.284,13.412 228.957,13.412 C276.144,13.412 321.314,28.759 358.244,56.546 C371.303,66.371 383.33,77.751 394.053,90.558 C394.053,90.558 395.145,91.998 396.812,94.289 C389.717,99.706 385.118,108.228 385.118,117.844 C385.118,134.217 398.392,147.49 414.765,147.49 C431.138,147.49 444.411,134.217 444.411,117.844 C444.411,101.47 431.138,88.197 414.765,88.197 C412.928,88.197 411.138,88.388 409.392,88.707 C406.39,84.645 404.271,82.003 404.271,82.003 C360.683,29.944 296.785,0.088 228.957,0.088 C102.936,0.088 0.412,102.615 0.412,228.635 M398.804,117.309 C398.804,108.309 406.126,100.987 415.126,100.987 C424.126,100.987 431.448,108.309 431.448,117.309 C431.448,126.309 424.126,133.63 415.126,133.63 C406.126,133.63 398.804,126.309 398.804,117.309" id="path-1"></path>
        <linearGradient x1="-3.13666679e-05%" y1="49.9999608%" x2="99.9999725%" y2="49.9999608%" id="linearGradient-3">
            <stop stop-color="#288AB8" offset="0%"></stop>
            <stop stop-color="#72F9DF" offset="100%"></stop>
        </linearGradient>
    </defs>
    <g id="Page-1" stroke="none" stroke-width="1" fill="none" fill-rule="evenodd">
        <g id="BitLucky" transform="translate(-500.000000, -453.000000)">
            <g id="Group" transform="translate(500.000000, 453.000000)">
                <path d="M211.3262,214.9863 C227.0152,214.9863 242.4262,215.2983 257.8192,214.8983 C273.2892,214.4953 285.4932,202.0643 286.5132,186.5103 C287.5072,171.3433 276.5312,156.3473 261.2612,155.1243 C244.7992,153.8053 228.1492,154.8253 211.3262,154.8253 L211.3262,214.9863 Z M211.2712,303.3283 C232.6192,303.3283 253.5912,304.0933 274.4752,303.0773 C290.1812,302.3123 302.0052,287.6673 301.3202,272.5343 C300.5842,256.2973 288.7582,243.6293 272.6392,243.1783 C252.6902,242.6203 232.7152,242.9853 212.7512,242.9793 C212.3092,242.9793 211.8682,243.3133 211.2712,243.5543 L211.2712,303.3283 Z M270.1432,110.2213 C299.9582,108.2423 322.4702,119.7603 335.7782,146.1793 C348.6922,171.8153 345.7682,197.1353 330.6942,221.4523 C343.2912,231.0723 351.4432,243.4443 355.8052,258.4113 C366.6402,295.5993 344.9292,335.3163 308.5912,344.2093 C303.2832,345.5083 297.6452,345.6933 292.1412,345.9063 C284.9712,346.1833 277.7822,345.9733 270.0452,345.9733 L270.0452,356.4253 C270.0452,369.5233 270.0632,382.6223 270.0372,395.7203 C270.0212,403.6843 268.6702,404.9823 260.5502,405.0163 C256.8562,405.0313 253.1612,405.0433 249.4672,405.0123 C242.1202,404.9533 240.5072,403.3943 240.4922,396.1733 C240.4612,381.3953 240.4822,366.6183 240.4822,351.8403 L240.4822,346.2203 L211.0522,346.2203 L211.0522,351.4433 C211.0522,366.5563 211.0702,381.6703 211.0432,396.7833 C211.0312,403.2333 209.4352,404.8853 203.0872,405.0003 C198.5552,405.0813 194.0182,405.0843 189.4862,404.9963 C183.3552,404.8773 181.7262,403.2493 181.7132,397.1613 C181.6752,380.3803 181.7002,363.5983 181.7002,345.9743 L176.1982,345.9743 C159.5732,345.9733 142.9482,345.9973 126.3242,345.9623 C119.4522,345.9473 117.5502,343.5903 118.8112,336.9533 C119.7192,332.1743 120.6352,327.3983 121.4512,322.6043 C122.0502,319.0853 123.7352,316.6063 127.4822,316.2283 C142.5232,314.7143 152.3832,304.4343 152.2292,284.5873 C152.0902,266.6203 152.2522,248.6513 152.1882,230.6833 C152.1172,210.3703 152.4492,190.0373 151.6492,169.7513 C151.0322,154.0863 140.1732,143.1613 124.5862,140.5263 C115.6542,139.0153 115.3172,138.6173 115.3142,129.5553 C115.3132,125.6933 115.2832,121.8313 115.3222,117.9683 C115.3832,111.9413 117.0832,110.1923 123.1252,110.1793 C140.5892,110.1413 158.0542,110.1653 175.5182,110.1643 L181.6992,110.1643 L181.6992,104.4943 C181.6992,89.7163 181.6892,74.9393 181.7032,60.1613 C181.7102,52.4653 182.9892,51.2213 190.8632,51.1763 C194.7252,51.1543 198.5882,51.1403 202.4502,51.1803 C209.6072,51.2553 211.0532,52.6793 211.0632,59.7353 C211.0842,74.5123 211.0702,89.2903 211.0702,104.0683 L211.0702,109.8403 L240.4822,109.8403 L240.4822,93.8123 C240.4822,82.3933 240.4462,70.9733 240.4972,59.5553 C240.5272,52.9643 242.2592,51.2743 248.9102,51.1853 C253.2762,51.1263 257.6432,51.1143 262.0082,51.1893 C268.4002,51.2983 270.0912,52.9303 270.1202,59.3323 C270.1862,74.2783 270.1422,89.2233 270.1432,104.1693 L270.1432,110.2213 Z" id="Fill-1" fill="#3F5B67"></path>
                <polygon id="Fill-3" fill="#3F5B67" points="390.476 348.614 440.11 348.614 440.11 173.396 390.476 173.396"></polygon>
                <path d="M479.2456,126.4268 L528.8796,118.4318 L528.8796,170.0648 L588.5066,170.0648 L588.5066,211.3708 L528.8796,211.3708 L528.8796,272.9968 C528.8796,283.4388 530.7126,291.7668 534.3756,297.9798 C538.0396,304.1998 545.4206,307.3088 556.5286,307.3088 C561.8576,307.3088 567.3546,306.8088 573.0166,305.8088 C578.6806,304.8098 583.8436,303.4258 588.5066,301.6448 L595.5016,340.2858 C589.5066,342.7328 582.8446,344.8408 575.5156,346.6138 C568.1876,348.3898 559.1926,349.2808 548.5326,349.2808 C534.9856,349.2808 523.7686,347.4468 514.8896,343.7828 C506.0036,340.1198 498.8986,335.0128 493.5686,328.4608 C488.2406,321.9128 484.5186,313.9708 482.4116,304.6428 C480.2966,295.3158 479.2456,284.9888 479.2456,273.6638 L479.2456,126.4268 Z" id="Fill-5" fill="#3F5B67"></path>
                <polygon id="Fill-6" fill="#3F5B67" points="759.7881 335.624 759.7881 355.277 628.5411 355.277 628.5411 124.43 651.1931 124.43 651.1931 335.624"></polygon>
                <path d="M916.9502,349.2813 C910.5082,351.0603 901.8462,353.0583 890.9682,355.2773 C880.0852,357.4923 866.7612,358.6083 850.9942,358.6083 C838.1122,358.6083 827.3432,356.7183 818.6812,352.9443 C810.0222,349.1713 803.0262,343.8433 797.6962,336.9563 C792.3662,330.0753 788.5352,321.7483 786.2032,311.9723 C783.8722,302.2033 782.7062,291.4343 782.7062,279.6593 L782.7062,183.0563 L804.3582,183.0563 L804.3582,272.6653 C804.3582,284.8813 805.2432,295.2073 807.0222,303.6443 C808.7992,312.0863 811.6872,318.9163 815.6832,324.1313 C819.6812,329.3513 824.8452,333.1253 831.1742,335.4563 C837.5042,337.7883 845.2172,338.9553 854.3252,338.9553 C864.5372,338.9553 873.4232,338.4033 880.9742,337.2893 C888.5212,336.1793 893.3012,335.1803 895.2982,334.2913 L895.2982,183.0563 L916.9502,183.0563 L916.9502,349.2813 Z" id="Fill-7" fill="#3F5B67"></path>
                <path d="M1037.6318,358.9395 C1024.3078,358.9395 1012.5348,356.8295 1002.3218,352.6125 C992.1058,348.3965 983.6108,342.3425 976.8388,334.4575 C970.0628,326.5775 964.8988,317.1345 961.3498,306.1425 C957.7938,295.1505 956.0198,282.9905 956.0198,269.6665 C956.0198,256.1235 957.8508,243.7975 961.5158,232.6915 C965.1798,221.5885 970.4528,212.0385 977.3388,204.0435 C984.2208,196.0495 992.5478,189.8865 1002.3218,185.5545 C1012.0928,181.2255 1023.0848,179.0605 1035.2998,179.0605 C1044.6278,179.0605 1053.3418,179.8405 1061.4488,181.3915 C1069.5548,182.9475 1075.8258,184.9465 1080.2708,187.3885 L1074.6088,206.0425 C1070.1628,203.8245 1065.1658,202.0445 1059.6178,200.7125 C1054.0638,199.3805 1046.6268,198.7135 1037.2988,198.7135 C1018.1968,198.7135 1003.7058,204.8765 993.8278,217.2005 C983.9438,229.5265 979.0038,247.0155 979.0038,269.6665 C979.0038,279.8835 980.1128,289.2695 982.3348,297.8145 C984.5518,306.3675 988.1648,313.6945 993.1608,319.8005 C998.1578,325.9115 1004.5978,330.6835 1012.4828,334.1245 C1020.3608,337.5705 1029.9718,339.2885 1041.2968,339.2885 C1050.6228,339.2885 1058.4518,338.2355 1064.7798,336.1235 C1071.1098,334.0145 1075.7158,332.1835 1078.6048,330.6275 L1083.2698,349.2815 C1079.2718,351.5025 1072.9948,353.6675 1064.4468,355.7745 C1055.8968,357.8825 1046.9588,358.9395 1037.6318,358.9395" id="Fill-8" fill="#3F5B67"></path>
                <path d="M1156.1182,261.5059 C1163.9672,267.0329 1171.8942,273.4139 1179.8892,280.6549 C1187.8832,287.8999 1195.7682,295.7429 1203.5402,304.1909 C1211.3062,312.6389 1218.6302,321.3059 1225.5002,330.1939 C1232.3702,339.0849 1238.2212,347.4439 1243.0612,355.2769 L1217.0422,355.2769 C1211.8252,346.5239 1205.7782,337.9399 1198.8982,329.5179 C1192.0162,321.1019 1184.7932,313.1739 1177.2342,305.7419 C1169.6782,298.3099 1162.1142,291.5269 1154.5562,285.4059 C1146.9992,279.2849 1140.3012,274.6839 1134.4662,271.6129 L1134.4662,355.2769 L1112.8132,355.2769 L1112.8132,100.7779 L1134.4662,96.7799 L1134.4662,257.2379 C1139.0982,253.2709 1144.8712,247.8579 1151.7822,241.0039 C1158.6952,234.1539 1165.7432,227.2569 1172.9142,220.3239 C1180.0872,213.3909 1186.8582,206.6769 1193.2342,200.1759 C1199.6052,193.6739 1204.9552,187.9699 1209.2752,183.0569 L1235.7322,183.0569 C1230.6322,188.3979 1224.7812,194.3159 1218.1822,200.8169 C1211.5822,207.3229 1204.7062,214.0989 1197.5502,221.1519 C1190.3922,228.2039 1183.3452,235.1479 1176.4132,241.9829 C1169.4782,248.8159 1162.7132,255.3219 1156.1182,261.5059" id="Fill-9" fill="#3F5B67"></path>
                <path d="M211.3262,214.9863 C227.0152,214.9863 242.4262,215.2983 257.8192,214.8983 C273.2892,214.4953 285.4932,202.0643 286.5132,186.5103 C287.5072,171.3433 276.5312,156.3473 261.2612,155.1243 C244.7992,153.8053 228.1492,154.8253 211.3262,154.8253 L211.3262,214.9863 Z M211.2712,303.3283 C232.6192,303.3283 253.5912,304.0933 274.4752,303.0773 C290.1812,302.3123 302.0052,287.6673 301.3202,272.5343 C300.5842,256.2973 288.7582,243.6293 272.6392,243.1783 C252.6902,242.6203 232.7152,242.9853 212.7512,242.9793 C212.3092,242.9793 211.8682,243.3133 211.2712,243.5543 L211.2712,303.3283 Z M270.1432,110.2213 C299.9582,108.2423 322.4702,119.7603 335.7782,146.1793 C348.6922,171.8153 345.7682,197.1353 330.6942,221.4523 C343.2912,231.0723 351.4432,243.4443 355.8052,258.4113 C366.6402,295.5993 344.9292,335.3163 308.5912,344.2093 C303.2832,345.5083 297.6452,345.6933 292.1412,345.9063 C284.9712,346.1833 277.7822,345.9733 270.0452,345.9733 L270.0452,356.4253 C270.0452,369.5233 270.0632,382.6223 270.0372,395.7203 C270.0212,403.6843 268.6702,404.9823 260.5502,405.0163 C256.8562,405.0313 253.1612,405.0433 249.4672,405.0123 C242.1202,404.9533 240.5072,403.3943 240.4922,396.1733 C240.4612,381.3953 240.4822,366.6183 240.4822,351.8403 L240.4822,346.2203 L211.0522,346.2203 L211.0522,351.4433 C211.0522,366.5563 211.0702,381.6703 211.0432,396.7833 C211.0312,403.2333 209.4352,404.8853 203.0872,405.0003 C198.5552,405.0813 194.0182,405.0843 189.4862,404.9963 C183.3552,404.8773 181.7262,403.2493 181.7132,397.1613 C181.6752,380.3803 181.7002,363.5983 181.7002,345.9743 L176.1982,345.9743 C159.5732,345.9733 142.9482,345.9973 126.3242,345.9623 C119.4522,345.9473 117.5502,343.5903 118.8112,336.9533 C119.7192,332.1743 120.6352,327.3983 121.4512,322.6043 C122.0502,319.0853 123.7352,316.6063 127.4822,316.2283 C142.5232,314.7143 152.3832,304.4343 152.2292,284.5873 C152.0902,266.6203 152.2522,248.6513 152.1882,230.6833 C152.1172,210.3703 152.4492,190.0373 151.6492,169.7513 C151.0322,154.0863 140.1732,143.1613 124.5862,140.5263 C115.6542,139.0153 115.3172,138.6173 115.3142,129.5553 C115.3132,125.6933 115.2832,121.8313 115.3222,117.9683 C115.3832,111.9413 117.0832,110.1923 123.1252,110.1793 C140.5892,110.1413 158.0542,110.1653 175.5182,110.1643 L181.6992,110.1643 L181.6992,104.4943 C181.6992,89.7163 181.6892,74.9393 181.7032,60.1613 C181.7102,52.4653 182.9892,51.2213 190.8632,51.1763 C194.7252,51.1543 198.5882,51.1403 202.4502,51.1803 C209.6072,51.2553 211.0532,52.6793 211.0632,59.7353 C211.0842,74.5123 211.0702,89.2903 211.0702,104.0683 L211.0702,109.8403 L240.4822,109.8403 L240.4822,93.8123 C240.4822,82.3933 240.4462,70.9733 240.4972,59.5553 C240.5272,52.9643 242.2592,51.2743 248.9102,51.1853 C253.2762,51.1263 257.6432,51.1143 262.0082,51.1893 C268.4002,51.2983 270.0912,52.9303 270.1202,59.3323 C270.1862,74.2783 270.1422,89.2233 270.1432,104.1693 L270.1432,110.2213 Z" id="Fill-10" fill="#3F5B67"></path>
                <polygon id="Fill-11" fill="#3F5B67" points="390.476 348.614 440.11 348.614 440.11 173.396 390.476 173.396"></polygon>
                <path d="M479.2456,126.4268 L528.8796,118.4318 L528.8796,170.0648 L588.5066,170.0648 L588.5066,211.3708 L528.8796,211.3708 L528.8796,272.9968 C528.8796,283.4388 530.7126,291.7668 534.3756,297.9798 C538.0396,304.1998 545.4206,307.3088 556.5286,307.3088 C561.8576,307.3088 567.3546,306.8088 573.0166,305.8088 C578.6806,304.8098 583.8436,303.4258 588.5066,301.6448 L595.5016,340.2858 C589.5066,342.7328 582.8446,344.8408 575.5156,346.6138 C568.1876,348.3898 559.1926,349.2808 548.5326,349.2808 C534.9856,349.2808 523.7686,347.4468 514.8896,343.7828 C506.0036,340.1198 498.8986,335.0128 493.5686,328.4608 C488.2406,321.9128 484.5186,313.9708 482.4116,304.6428 C480.2966,295.3158 479.2456,284.9888 479.2456,273.6638 L479.2456,126.4268 Z" id="Fill-12" fill="#3F5B67"></path>
                <polygon id="Fill-13" fill="#3F5B67" points="759.7881 335.624 759.7881 355.277 628.5411 355.277 628.5411 124.43 651.1931 124.43 651.1931 335.624"></polygon>
                <path d="M916.9502,349.2813 C910.5082,351.0603 901.8462,353.0583 890.9682,355.2773 C880.0852,357.4923 866.7612,358.6083 850.9942,358.6083 C838.1122,358.6083 827.3432,356.7183 818.6812,352.9443 C810.0222,349.1713 803.0262,343.8433 797.6962,336.9563 C792.3662,330.0753 788.5352,321.7483 786.2032,311.9723 C783.8722,302.2033 782.7062,291.4343 782.7062,279.6593 L782.7062,183.0563 L804.3582,183.0563 L804.3582,272.6653 C804.3582,284.8813 805.2432,295.2073 807.0222,303.6443 C808.7992,312.0863 811.6872,318.9163 815.6832,324.1313 C819.6812,329.3513 824.8452,333.1253 831.1742,335.4563 C837.5042,337.7883 845.2172,338.9553 854.3252,338.9553 C864.5372,338.9553 873.4232,338.4033 880.9742,337.2893 C888.5212,336.1793 893.3012,335.1803 895.2982,334.2913 L895.2982,183.0563 L916.9502,183.0563 L916.9502,349.2813 Z" id="Fill-14" fill="#3F5B67"></path>
                <path d="M1037.6318,358.9395 C1024.3078,358.9395 1012.5348,356.8295 1002.3218,352.6125 C992.1058,348.3965 983.6108,342.3425 976.8388,334.4575 C970.0628,326.5775 964.8988,317.1345 961.3498,306.1425 C957.7938,295.1505 956.0198,282.9905 956.0198,269.6665 C956.0198,256.1235 957.8508,243.7975 961.5158,232.6915 C965.1798,221.5885 970.4528,212.0385 977.3388,204.0435 C984.2208,196.0495 992.5478,189.8865 1002.3218,185.5545 C1012.0928,181.2255 1023.0848,179.0605 1035.2998,179.0605 C1044.6278,179.0605 1053.3418,179.8405 1061.4488,181.3915 C1069.5548,182.9475 1075.8258,184.9465 1080.2708,187.3885 L1074.6088,206.0425 C1070.1628,203.8245 1065.1658,202.0445 1059.6178,200.7125 C1054.0638,199.3805 1046.6268,198.7135 1037.2988,198.7135 C1018.1968,198.7135 1003.7058,204.8765 993.8278,217.2005 C983.9438,229.5265 979.0038,247.0155 979.0038,269.6665 C979.0038,279.8835 980.1128,289.2695 982.3348,297.8145 C984.5518,306.3675 988.1648,313.6945 993.1608,319.8005 C998.1578,325.9115 1004.5978,330.6835 1012.4828,334.1245 C1020.3608,337.5705 1029.9718,339.2885 1041.2968,339.2885 C1050.6228,339.2885 1058.4518,338.2355 1064.7798,336.1235 C1071.1098,334.0145 1075.7158,332.1835 1078.6048,330.6275 L1083.2698,349.2815 C1079.2718,351.5025 1072.9948,353.6675 1064.4468,355.7745 C1055.8968,357.8825 1046.9588,358.9395 1037.6318,358.9395" id="Fill-15" fill="#3F5B67"></path>
                <path d="M1156.1182,261.5059 C1163.9672,267.0329 1171.8942,273.4139 1179.8892,280.6549 C1187.8832,287.8999 1195.7682,295.7429 1203.5402,304.1909 C1211.3062,312.6389 1218.6302,321.3059 1225.5002,330.1939 C1232.3702,339.0849 1238.2212,347.4439 1243.0612,355.2769 L1217.0422,355.2769 C1211.8252,346.5239 1205.7782,337.9399 1198.8982,329.5179 C1192.0162,321.1019 1184.7932,313.1739 1177.2342,305.7419 C1169.6782,298.3099 1162.1142,291.5269 1154.5562,285.4059 C1146.9992,279.2849 1140.3012,274.6839 1134.4662,271.6129 L1134.4662,355.2769 L1112.8132,355.2769 L1112.8132,100.7779 L1134.4662,96.7799 L1134.4662,257.2379 C1139.0982,253.2709 1144.8712,247.8579 1151.7822,241.0039 C1158.6952,234.1539 1165.7432,227.2569 1172.9142,220.3239 C1180.0872,213.3909 1186.8582,206.6769 1193.2342,200.1759 C1199.6052,193.6739 1204.9552,187.9699 1209.2752,183.0569 L1235.7322,183.0569 C1230.6322,188.3979 1224.7812,194.3159 1218.1822,200.8169 C1211.5822,207.3229 1204.7062,214.0989 1197.5502,221.1519 C1190.3922,228.2039 1183.3452,235.1479 1176.4132,241.9829 C1169.4782,248.8159 1162.7132,255.3219 1156.1182,261.5059" id="Fill-16" fill="#3F5B67"></path>
                <path d="M1372.7891,183.0562 C1366.3931,210.6522 1356.5241,248.9752 1342.9171,290.4402 C1337.7851,282.7652 1332.7731,275.0152 1328.0131,267.1062 C1320.3141,254.3142 1313.1621,241.7782 1306.5481,229.4992 C1299.9351,217.2222 1293.8711,205.2572 1288.3581,193.6072 C1286.7441,190.1992 1285.2181,186.8732 1283.7371,183.5892 L1259.7021,183.5892 C1263.0331,191.0202 1266.5541,198.4952 1270.2951,206.0182 C1277.3141,220.1302 1284.8281,234.1752 1292.8411,248.1432 C1300.8541,262.1092 1309.2881,275.8532 1318.1341,289.3622 C1323.6601,297.8022 1329.2471,306.0002 1334.8811,314.0072 C1323.9511,344.8442 1311.0161,376.5972 1295.9561,406.3512 L1310.6661,417.8592 C1353.1811,335.0872 1379.3511,236.6742 1391.5871,183.0562 L1372.7891,183.0562 Z" id="Fill-21" fill="#3F5B67"></path>
                <mask id="mask-2" fill="white">
                    <use xlink:href="#path-1"></use>
                </mask>
                <g id="Clip-19"></g>
                <path d="M0.412,228.635 C0.412,354.655 102.936,457.179 228.957,457.179 C278.47,457.179 325.18,441.564 363.753,413.224 C365.111,413.633 366.519,413.92 368.008,413.92 C373.869,413.92 378.903,410.507 381.365,405.592 L745.595,405.827 C747.858,411.239 753.202,415.056 759.427,415.056 C760.218,415.056 760.978,414.942 761.736,414.822 L852.344,572.814 C851.609,574.582 851.195,576.515 851.195,578.546 C851.195,586.81 857.92,593.536 866.186,593.536 C874.451,593.536 881.175,586.81 881.175,578.546 C881.175,577.042 880.885,575.62 880.471,574.248 L951.684,484.408 C952.957,484.762 954.273,485.011 955.658,485.011 C963.766,485.011 970.352,478.529 970.602,470.481 L1084.019,430.626 C1086.687,434.774 1091.321,437.543 1096.608,437.543 C1097.371,437.543 1098.104,437.427 1098.835,437.318 L1136.346,506.621 C1135.452,508.54 1134.917,510.657 1134.917,512.909 C1134.917,521.175 1141.641,527.9 1149.907,527.9 C1158.173,527.9 1164.897,521.175 1164.897,512.909 C1164.897,510.615 1164.337,508.464 1163.412,506.518 L1217.492,418.12 C1218.389,418.287 1219.306,418.399 1220.25,418.399 C1225.008,418.399 1229.206,416.127 1231.953,412.659 L1317.037,479.013 C1318.751,485.405 1324.537,490.148 1331.462,490.148 C1339.728,490.148 1346.452,483.424 1346.452,475.158 C1346.452,472.977 1345.96,470.917 1345.118,469.046 L1344.933,468.898 C1402.684,369.83 1457.51,178.963 1469.967,110.51 L1487.36,169.066 C1488.066,171.441 1489.977,173.127 1492.229,173.657 C1493.322,173.914 1494.492,173.897 1495.645,173.556 C1499.173,172.508 1501.181,168.799 1500.135,165.272 L1475.523,82.419 C1474.843,80.126 1472.987,78.377 1470.66,77.83 C1468.333,77.282 1465.892,78.023 1464.262,79.772 L1405.322,142.989 C1402.814,145.682 1402.959,149.895 1405.651,152.405 C1408.344,154.91 1412.558,154.769 1415.069,152.077 L1457.063,107.034 C1444.748,175.988 1389.013,365.737 1334.398,460.465 C1333.448,460.276 1332.468,460.168 1331.462,460.168 C1326.723,460.168 1322.54,462.422 1319.792,465.867 L1234.656,399.495 C1232.923,393.134 1227.153,388.418 1220.25,388.418 C1211.984,388.418 1205.26,395.143 1205.26,403.408 C1205.26,405.756 1205.85,407.951 1206.817,409.931 L1152.801,498.211 C1151.864,498.027 1150.899,497.919 1149.907,497.919 C1148.894,497.919 1147.906,498.026 1146.95,498.219 L1109.782,429.552 C1110.904,427.453 1111.599,425.094 1111.599,422.553 C1111.599,414.286 1104.874,407.563 1096.608,407.563 C1090.323,407.563 1084.949,411.46 1082.726,416.958 L964.943,458.346 C962.382,456.304 959.182,455.031 955.658,455.031 C947.393,455.031 940.668,461.755 940.668,470.022 C940.668,471.96 941.067,473.801 941.739,475.503 L871.208,564.485 C869.631,563.918 867.955,563.556 866.186,563.556 C864.919,563.556 863.71,563.761 862.535,564.057 L772.594,407.079 C773.719,404.977 774.417,402.613 774.417,400.066 C774.417,391.801 767.692,385.075 759.427,385.075 C753.931,385.075 749.169,388.08 746.559,392.501 L381.365,392.268 C378.901,387.353 373.868,383.94 368.008,383.94 C359.742,383.94 353.017,390.665 353.017,398.931 C353.017,400.683 353.377,402.34 353.934,403.903 C317.993,429.685 274.744,443.854 228.957,443.854 C110.284,443.854 13.736,347.307 13.736,228.635 C13.736,109.96 110.284,13.412 228.957,13.412 C276.144,13.412 321.314,28.759 358.244,56.546 C371.303,66.371 383.33,77.751 394.053,90.558 C394.053,90.558 395.145,91.998 396.812,94.289 C389.717,99.706 385.118,108.228 385.118,117.844 C385.118,134.217 398.392,147.49 414.765,147.49 C431.138,147.49 444.411,134.217 444.411,117.844 C444.411,101.47 431.138,88.197 414.765,88.197 C412.928,88.197 411.138,88.388 409.392,88.707 C406.39,84.645 404.271,82.003 404.271,82.003 C360.683,29.944 296.785,0.088 228.957,0.088 C102.936,0.088 0.412,102.615 0.412,228.635 M398.804,117.309 C398.804,108.309 406.126,100.987 415.126,100.987 C424.126,100.987 431.448,108.309 431.448,117.309 C431.448,126.309 424.126,133.63 415.126,133.63 C406.126,133.63 398.804,126.309 398.804,117.309" id="Fill-18" fill="url(#linearGradient-3)" mask="url(#mask-2)"></path>
            </g>
        </g>
    </g>
</svg>