<svg xmlns="http://www.w3.org/2000/svg" xmlns:xlink="http://www.w3.org/1999/xlink" viewBox="0 0 864.79 153.69">
  <defs>
    <style>
      .cls-1 {
        fill: #6d6e70;
      }

      .cls-2 {
        fill: url(#linear-gradient);
      }
    </style>
    <linearGradient id="linear-gradient" y1="76.84" x2="126.25" y2="76.84" gradientUnits="userSpaceOnUse">
      <stop offset="0" stop-color="#334a96"/>
      <stop offset="1" stop-color="#00a6e0"/>
    </linearGradient>
  </defs>
  <title>Asset 2</title>
  <g id="Layer_2" data-name="Layer 2">
    <g id="Layer_1-2" data-name="Layer 1">
      <g>
        <g>
          <path class="cls-1" d="M178.75,58.33a27.21,27.21,0,0,1,19.62-8A26.15,26.15,0,0,1,206,51.4,23.37,23.37,0,0,1,211.92,54,39.93,39.93,0,0,1,216,57.08a16.33,16.33,0,0,1,2.62,2.67l.77,1.07-8.94,8.94a14.79,14.79,0,0,0-1.36-1.9A16.42,16.42,0,0,0,205,64.8a13,13,0,0,0-16.28,2.29,14.48,14.48,0,0,0,0,20.07,13,13,0,0,0,9.61,4.16A13.9,13.9,0,0,0,205,89.63a15.92,15.92,0,0,0,4.59-3.39L211,84.49l8.42,8.94c-.21.27-.49.66-.85,1.15a20.69,20.69,0,0,1-2.49,2.52,26.89,26.89,0,0,1-4.21,3.13,28.09,28.09,0,0,1-5.88,2.52,24.88,24.88,0,0,1-7.62,1.15,27.21,27.21,0,0,1-19.62-8q-8.26-8-8.26-18.77T178.75,58.33Z"/>
          <path class="cls-1" d="M259.88,65a17.21,17.21,0,0,0-4.72-.56A11.47,11.47,0,0,0,246.3,68Q243,71.55,243,78.18v24.7H228.87V51.32H243v6.32c.41-.48,1-1.1,1.75-1.87a20.61,20.61,0,0,1,5-3.06,17.8,17.8,0,0,1,8-1.9h2.1Z"/>
          <path class="cls-1" d="M281.25,42.34a8.55,8.55,0,0,1-6.16,2.16,7.68,7.68,0,0,1-5.73-2.16,7.81,7.81,0,0,1-2.13-5.73,7.42,7.42,0,0,1,7.86-7.88,8.55,8.55,0,0,1,6.16,2.16,7.58,7.58,0,0,1,2.26,5.72A7.58,7.58,0,0,1,281.25,42.34Zm1.23,60.54H268.26V51.32h14.22Z"/>
          <path class="cls-1" d="M344,58.08a26.64,26.64,0,0,1,7.35,19,26.62,26.62,0,0,1-7.37,19q-7.37,7.78-17.33,7.78a19,19,0,0,1-8.27-1.82,17.15,17.15,0,0,1-5.44-3.62l-1.54-1.9v6.32H297.17V29.25h14.22V57.64a8,8,0,0,1,.61-.77c.28-.31.89-.88,1.83-1.72a21.31,21.31,0,0,1,3.05-2.26,18.69,18.69,0,0,1,4.29-1.8,18.9,18.9,0,0,1,5.47-.79A23.07,23.07,0,0,1,344,58.08ZM332.93,87.32A14.53,14.53,0,0,0,336.6,77.1a14.42,14.42,0,0,0-3.67-10.19,12,12,0,0,0-17.87,0,14.42,14.42,0,0,0-3.67,10.19,14.53,14.53,0,0,0,3.67,10.22,12,12,0,0,0,17.87,0Z"/>
          <path class="cls-1" d="M362.69,90.5a8.69,8.69,0,0,1,11.91,0,7.4,7.4,0,0,1,0,11,8.69,8.69,0,0,1-11.91,0,7.4,7.4,0,0,1,0-11Z"/>
          <path class="cls-1" d="M393.47,59a23.92,23.92,0,0,1,17.74-7.68,26.94,26.94,0,0,1,18.33,7.6l2.21,2.42-5.29,5.23c-.13-.2-.34-.49-.61-.87S425,64.64,424,63.65a16,16,0,0,0-7.31-4.57,17.35,17.35,0,0,0-5.5-.87,16.71,16.71,0,0,0-12.55,5.62,19.36,19.36,0,0,0-5.32,13.81,19.36,19.36,0,0,0,5.32,13.81,16.71,16.71,0,0,0,12.55,5.62,17.56,17.56,0,0,0,8.37-2.1,19.77,19.77,0,0,0,5.75-4.21L427,88.7l5.23,4.73c-.2.27-.52.66-.95,1.15a28,28,0,0,1-2.69,2.52,32.13,32.13,0,0,1-4.31,3.13,28.26,28.26,0,0,1-5.83,2.52,23.46,23.46,0,0,1-7.27,1.15,23.9,23.9,0,0,1-17.76-7.67A25.75,25.75,0,0,1,386,77.61,25.7,25.7,0,0,1,393.47,59Z"/>
          <path class="cls-1" d="M447.65,59a25.62,25.62,0,0,1,36.48,0,25.61,25.61,0,0,1,7.49,18.69,25.51,25.51,0,0,1-7.49,18.66,25.69,25.69,0,0,1-36.48,0,25.47,25.47,0,0,1-7.53-18.66A25.57,25.57,0,0,1,447.65,59Zm31.22,4.88a17.83,17.83,0,0,0-26,0,19.11,19.11,0,0,0-5.41,13.78,19.23,19.23,0,0,0,5.41,13.79,17.78,17.78,0,0,0,26,0,19.14,19.14,0,0,0,5.41-13.81A19.14,19.14,0,0,0,478.87,63.83Z"/>
          <path class="cls-1" d="M512.12,59.75c.13-.21.34-.5.61-.88a23,23,0,0,1,1.95-2,21.29,21.29,0,0,1,3.26-2.59,20.9,20.9,0,0,1,10.45-2.91q9.15,0,14.84,5.91t5.7,15.66v30h-7.39v-30q0-6.63-3.83-10.65a12.94,12.94,0,0,0-9.83-4,14.93,14.93,0,0,0-11.25,4.72A16.75,16.75,0,0,0,512.12,75v27.88h-7.35V52.4h7.35Z"/>
          <path class="cls-1" d="M590.94,63.44A12.26,12.26,0,0,0,589.73,62a14.78,14.78,0,0,0-3.67-2.31,13.34,13.34,0,0,0-6.16-1.46,10.23,10.23,0,0,0-6.83,2.2,6.58,6.58,0,0,0-2.62,5.14,5.62,5.62,0,0,0,2.82,4.88,24.38,24.38,0,0,0,6.83,2.95q4,1.09,8,2.51a16.23,16.23,0,0,1,6.83,4.62,11.91,11.91,0,0,1,2.83,8.19,13.8,13.8,0,0,1-5,10.86q-5,4.35-13.41,4.34a23.83,23.83,0,0,1-6.75-.92,21.07,21.07,0,0,1-5.21-2.21,28.47,28.47,0,0,1-3.57-2.59,17.06,17.06,0,0,1-2.23-2.24L561,95l5.29-5.24.56.8a22.85,22.85,0,0,0,1.62,1.74,20,20,0,0,0,2.7,2.26,14.76,14.76,0,0,0,3.69,1.77,13.92,13.92,0,0,0,4.57.77c3.56,0,6.29-.78,8.19-2.36a7.45,7.45,0,0,0,2.85-6,6,6,0,0,0-2.85-5.1,23.21,23.21,0,0,0-6.82-3.14q-4-1.15-8-2.56a16.87,16.87,0,0,1-6.85-4.47,11.11,11.11,0,0,1-2.85-7.88,13,13,0,0,1,4.8-10,17.47,17.47,0,0,1,12-4.27,23.76,23.76,0,0,1,5.72.7,19.06,19.06,0,0,1,4.6,1.69,27.85,27.85,0,0,1,3.21,2.06,20.07,20.07,0,0,1,2,1.66l.77.78Z"/>
          <path class="cls-1" d="M647.68,96.05c-.14.2-.34.48-.62.84a16.7,16.7,0,0,1-1.92,1.9,21.34,21.34,0,0,1-3.26,2.42,19.76,19.76,0,0,1-4.6,1.87,21,21,0,0,1-5.88.82,19.37,19.37,0,0,1-14.66-6.13q-5.82-6.13-5.83-16V52.4h7.35V81.82a15.24,15.24,0,0,0,4.1,10.94,13.36,13.36,0,0,0,10.07,4.31,14.23,14.23,0,0,0,10.83-4.72,17,17,0,0,0,4.42-12.07V52.4h7.39v50.48h-7.39Z"/>
          <path class="cls-1" d="M680.29,102.88H673V29.25h7.34Z"/>
          <path class="cls-1" d="M702.37,35.56h6.83V52.4h11v6.83h-11v30q0,7.91,6.83,7.85a13.67,13.67,0,0,0,3.36-.41,26.18,26.18,0,0,0,2.54-.72l.93-.41v6.83a15.06,15.06,0,0,1-7.14,1.54q-6.53,0-10.19-3.82t-3.68-10.86v-30h-9.49V52.4h5.8c2.8,0,4.21-1.74,4.21-5.23Z"/>
          <path class="cls-1" d="M735.77,32.2a4.84,4.84,0,1,1-1.36,3.36A4.56,4.56,0,0,1,735.77,32.2Zm-.28,20.2h7.34v50.48h-7.34Z"/>
          <path class="cls-1" d="M767,59.75c.13-.21.34-.5.61-.88a22.08,22.08,0,0,1,2-2,20.75,20.75,0,0,1,3.25-2.59,21,21,0,0,1,10.45-2.91q9.15,0,14.84,5.91t5.7,15.66v30h-7.39v-30q0-6.63-3.83-10.65a12.93,12.93,0,0,0-9.83-4,14.91,14.91,0,0,0-11.24,4.72A16.72,16.72,0,0,0,767,75v27.88h-7.35V52.4H767Z"/>
          <path class="cls-1" d="M857.39,93.43c-.14.2-.34.5-.61.87a21.86,21.86,0,0,1-1.93,2,18.41,18.41,0,0,1-3.31,2.6,22.51,22.51,0,0,1-10.94,2.9A22.29,22.29,0,0,1,824,94.48a24.9,24.9,0,0,1-7.06-17.89,25,25,0,0,1,7-17.9,22.25,22.25,0,0,1,16.63-7.37,22,22,0,0,1,6.14.85,17.88,17.88,0,0,1,4.8,2.11,24.64,24.64,0,0,1,3.26,2.54,18.92,18.92,0,0,1,2,2.1l.61.83V52.4h7.4V99.74a24.49,24.49,0,0,1-7.22,17.92A23.74,23.74,0,0,1,840,125a25.93,25.93,0,0,1-7.63-1.1,23.37,23.37,0,0,1-5.93-2.62,38.67,38.67,0,0,1-4.08-3,15.25,15.25,0,0,1-2.54-2.67l-.82-1.08,4.72-4.72c.14.2.37.5.69.89a27,27,0,0,0,2.06,2.06,22.22,22.22,0,0,0,3.31,2.56,19.9,19.9,0,0,0,4.52,2,18.36,18.36,0,0,0,5.7.9,16.42,16.42,0,0,0,12.24-5.29,18.11,18.11,0,0,0,5.11-13.1Zm-28.16-3.8Q834.18,95,840.6,95a15.68,15.68,0,0,0,11.81-5.29,18.37,18.37,0,0,0,5-13.09,18.38,18.38,0,0,0-5-13.1,15.71,15.71,0,0,0-11.81-5.28q-6.42,0-11.37,5.34a18.41,18.41,0,0,0-5,13A18.45,18.45,0,0,0,829.23,89.63Z"/>
        </g>
        <path class="cls-2" d="M46.65,15.85l32.92,19V28a15.56,15.56,0,0,0-7.78-13.46L46.65,0,0,26.93V80.8l46.65,26.92L71.79,93.2a15.54,15.54,0,0,0,7.78-13.46V72.87l-32.92,19-32.93-19v-38Zm65.88,65v38l-32.93,19-32.92-19v6.87a15.55,15.55,0,0,0,7.77,13.46L79.6,153.69l46.65-26.93V72.9L79.6,46,54.45,60.48A15.55,15.55,0,0,0,46.68,74v6.87l32.92-19Z"/>
      </g>
    </g>
  </g>
</svg>
