<?xml version="1.0" encoding="UTF-8"?>
<svg width="127px" height="70px" viewBox="0 0 127 70" version="1.1" xmlns="http://www.w3.org/2000/svg" xmlns:xlink="http://www.w3.org/1999/xlink">
    <!-- Generator: Sketch 50.2 (55047) - http://www.bohemiancoding.com/sketch -->
    <title>currencycloud</title>
    <desc>Created with Sketch.</desc>
    <defs></defs>
    <g id="Page-1" stroke="none" stroke-width="1" fill="none" fill-rule="evenodd">
        <g id="currencycloud" fill-rule="nonzero">
            <path d="M47.05277,34.230955 L47.05277,42.1917808 C35.365275,42.1917808 25.890411,32.7467975 25.890411,21.0956196 L33.8764221,21.0956196 C33.8764221,28.3501164 39.7758657,34.230955 47.05277,34.230955 Z M102.60274,21.0956196 L94.6167286,21.0956196 C94.6167286,13.8411228 88.7178283,7.96082578 81.4403807,7.96082578 L81.4403807,0 C93.1278757,0 102.60274,9.44498327 102.60274,21.0956196 Z M68.2134988,21.0956196 C68.2134988,28.3501164 74.1129425,34.230955 81.39039,34.230955 L81.39039,42.1917808 C69.7028951,42.1917808 60.2280311,32.7467975 60.2280311,21.0956196 L60.2296612,21.0956196 C60.2296612,13.8411228 54.3302176,7.96082578 47.05277,7.96082578 L47.05277,0 C58.7408083,0 68.2156723,9.44498327 68.2156723,21.0956196 L68.2134988,21.0956196 Z" id="path-1" fill="#E15710"></path>
            <path d="M30.8099433,55.7680084 L30.6158581,58.5966963 C28.7790576,58.5966963 27.4900085,59.4667212 27.4900085,60.7540482 L27.4900085,65.8303004 L24.4876187,65.8303004 L24.4876187,55.9495404 L27.3838008,55.9495404 L27.4366351,57.1461014 C28.2140541,56.2760764 29.3796434,55.7680084 30.8099433,55.7680084 Z M38.1797887,55.7680084 L37.9851644,58.5966963 C36.148903,58.5966963 34.8593148,59.4667212 34.8593148,60.7540482 L34.8593148,65.8303004 L31.8574641,65.8303004 L31.8574641,55.9495404 L34.7536462,55.9495404 L34.8064805,57.1461014 C35.5833603,56.2760764 36.7489496,55.7680084 38.1797887,55.7680084 Z M126.575342,65.8303004 L123.696951,65.8303004 L123.643578,64.6154756 C122.990158,65.5037644 122.019193,66.0112789 120.712353,66.0112789 C118.169298,66.0112789 116.120621,63.9989312 116.120621,60.9350267 C116.120621,57.8534117 118.169298,55.7680084 120.712353,55.7680084 C121.96582,55.7680084 122.919533,56.2578126 123.572953,57.0918632 L123.572953,51.6890748 L126.575342,51.6890748 L126.575342,65.8303004 Z M123.572953,60.8807885 C123.572953,59.4124831 122.707656,58.3969005 121.400816,58.3969005 C120.093976,58.3969005 119.228679,59.4124831 119.228679,60.8990523 C119.228679,62.3673577 120.093976,63.3646764 121.400816,63.3646764 C122.707656,63.3646764 123.572953,62.3856216 123.572953,60.8807885 Z M47.9800117,61.9683196 L41.3751854,61.9683196 C41.5520186,62.9839021 42.0814398,63.6004465 43.2297771,63.6004465 C44.0417001,63.6004465 44.7129113,63.2556465 45.1722462,62.6938938 L47.5034248,63.853927 C46.6731716,65.141254 45.1366639,66.0112789 43.2648202,66.0112789 C40.2273873,66.0112789 38.1965016,64.0171951 38.1965016,60.9898183 C38.1965016,57.8711221 40.1567618,55.7680084 43.1235694,55.7680084 C46.0725858,55.7680084 48.0506372,57.7443818 48.0506372,60.7357843 C48.0506372,61.1525329 48.015594,61.6240731 47.9800117,61.9683196 Z M41.3751854,59.9017337 L44.9069965,59.9017337 C44.7129113,58.7959387 44.1301167,58.1793943 43.1235694,58.1793943 C42.1348132,58.1793943 41.5870617,58.7959387 41.3751854,59.9017337 Z M85.2254959,58.3969005 C83.8658215,58.3969005 82.9827339,59.3942192 82.9827339,60.8807885 C82.9827339,62.3673577 83.8480303,63.3646764 85.2254959,63.3646764 C86.0557492,63.3646764 86.6913781,63.1289063 87.1685042,62.5666001 L88.8635147,64.6154756 C87.9275929,65.5580026 86.5857095,66.0112789 85.1020362,66.0112789 C81.9583955,66.0112789 79.8568844,63.9629569 79.8568844,60.8807885 C79.8568844,57.8168839 81.9761866,55.7680084 85.1726616,55.7680084 C86.4617107,55.7680084 87.6450911,56.2212848 88.5459698,56.946859 L86.8504202,59.0317088 C86.4439195,58.6509345 85.9322895,58.3969005 85.2254959,58.3969005 Z M65.0433334,58.3969005 C63.6836589,58.3969005 62.8005714,59.3942192 62.8005714,60.8807885 C62.8005714,62.3673577 63.6658678,63.3646764 65.0433334,63.3646764 C65.8735866,63.3646764 66.5092156,63.1289063 66.9863416,62.5666001 L68.6813522,64.6154756 C67.7454303,65.5580026 66.403547,66.0112789 64.9198736,66.0112789 C61.7762329,66.0112789 59.6747218,63.9629569 59.6747218,60.8807885 C59.6747218,57.8168839 61.7940241,55.7680084 64.9904991,55.7680084 C66.2795481,55.7680084 67.4629286,56.2212848 68.3638072,56.946859 L66.6682576,59.0317088 C66.2622961,58.6509345 65.7501269,58.3969005 65.0433334,58.3969005 Z M90.0576777,65.8303004 L90.0576777,51.6890748 L93.0595284,51.6890748 L93.0595284,65.8303004 L90.0576777,65.8303004 Z M78.7489815,64.796454 C78.7489815,67.9328606 76.5590538,70 73.2385799,70 C71.7198634,70 70.3779801,69.582698 69.4242671,68.7851751 L70.0776872,66.3737893 C71.0491913,67.1170739 72.0557386,67.3711079 73.1679545,67.3711079 C74.6872101,67.3711079 75.7110094,66.3737893 75.7465917,64.8695096 C75.0403373,65.6487685 74.0688331,66.0112789 73.080077,66.0112789 C70.9429836,66.0112789 69.5126837,64.4704714 69.5126837,62.1315876 L69.5126837,55.9495404 L72.5145344,55.9495404 L72.5145344,61.6783113 C72.5145344,62.6938938 73.1507024,63.3646764 74.1394586,63.3646764 C75.1109627,63.3646764 75.7465917,62.6938938 75.7465917,61.6783113 L75.7465917,55.9495404 L78.7489815,55.9495404 L78.7489815,64.796454 Z M94.149101,60.8807885 C94.149101,57.8168839 96.2684033,55.7680084 99.4476263,55.7680084 C102.573476,55.7680084 104.692239,57.8168839 104.692239,60.8807885 C104.692239,63.9629569 102.573476,66.0112789 99.4476263,66.0112789 C96.2684033,66.0112789 94.149101,63.9629569 94.149101,60.8807885 Z M101.584181,60.8807885 C101.584181,59.3942192 100.718884,58.3969005 99.4298351,58.3969005 C98.1229949,58.3969005 97.2576985,59.3942192 97.2576985,60.8807885 C97.2576985,62.3673577 98.1229949,63.3646764 99.4298351,63.3646764 C100.718884,63.3646764 101.584181,62.3673577 101.584181,60.8807885 Z M115.001397,55.9495404 L115.001397,62.2223536 C115.001397,64.4887353 113.147344,66.0112789 110.374622,66.0112789 C107.601899,66.0112789 105.747308,64.2889395 105.747308,61.6783113 L105.747308,55.9495404 L108.749697,55.9495404 L108.749697,61.6783113 C108.749697,62.6938938 109.403117,63.3646764 110.374622,63.3646764 C111.345587,63.3646764 111.999007,62.6938938 111.999007,61.6783113 L111.999007,55.9495404 L115.001397,55.9495404 Z M23.2821341,55.9495404 L23.2821341,62.2223536 C23.2821341,64.4887353 21.4275424,66.0112789 18.6548201,66.0112789 C15.8820977,66.0112789 14.0280451,64.2889395 14.0280451,61.6783113 L14.0280451,55.9495404 L17.0298959,55.9495404 L17.0298959,61.6783113 C17.0298959,62.6938938 17.6838551,63.3646764 18.6548201,63.3646764 C19.6263242,63.3646764 20.2797443,62.6938938 20.2797443,61.6783113 L20.2797443,55.9495404 L23.2821341,55.9495404 Z M58.6234271,59.6299893 L58.6234271,65.8303004 L55.6215764,65.8303004 L55.6215764,60.1009761 C55.6215764,59.0676831 54.8969917,58.3969005 53.802567,58.3969005 C52.689812,58.3969005 51.9657665,59.0676831 51.9657665,60.1009761 L51.9657665,65.8303004 L48.9633766,65.8303004 L48.9633766,55.9495404 L51.8595587,55.9495404 L51.895141,57.0553354 C52.6542297,56.1853105 53.7314024,55.7680084 54.8619486,55.7680084 C57.1225017,55.7680084 58.6234271,57.3093694 58.6234271,59.6299893 Z M10.8574482,60.9283852 L13.0996711,62.8970103 C11.7788136,64.6691603 9.65358095,65.8192314 7.25662904,65.8192314 C3.24877018,65.8192314 0,62.6064486 0,58.6426328 C0,54.6793704 3.24877018,51.4660341 7.25662904,51.4660341 C9.67029384,51.4660341 11.8073873,52.6327087 13.1266273,54.4258899 L10.9108216,56.4398979 C10.1592807,55.2228592 8.80391919,54.4103932 7.25662904,54.4103932 C4.89310291,54.4103932 2.97705093,56.3054093 2.97705093,58.6426328 C2.97705093,60.9804096 4.89310291,62.8754257 7.25662904,62.8754257 C8.7683369,62.8754257 10.096203,62.098934 10.8574482,60.9283852 Z M124.355763,49.0845346 L123.872706,49.0845346 L123.872706,50.6513543 L123.684012,50.6513543 L123.684012,49.0845346 L123.196104,49.0845346 L123.196104,48.9041096 L124.422614,48.9041096 L124.355763,49.0845346 Z M126.021121,50.6513543 L126.021121,49.3889326 C126.021121,49.373436 126.021121,49.3590463 126.021121,49.3468704 C126.021121,49.3324806 126.021661,49.3191978 126.022739,49.305915 C126.023278,49.2926322 126.024356,49.277689 126.025434,49.2621924 C126.025974,49.2461423 126.027591,49.2267715 126.029208,49.2035266 L126.023817,49.2035266 C126.008722,49.2444819 125.993626,49.277689 125.980148,49.3031477 C125.966131,49.3286065 125.952653,49.3529583 125.938635,49.3756498 L125.481457,50.1316638 L125.357458,50.1316638 L124.874402,49.3756498 C124.860923,49.3546187 124.846367,49.3308203 124.83235,49.3042546 C124.817254,49.277689 124.802698,49.2444819 124.787063,49.2035266 L124.781672,49.2035266 C124.783289,49.2267715 124.785446,49.2461423 124.787063,49.2621924 C124.788681,49.277689 124.789759,49.2926322 124.790837,49.305915 C124.791376,49.3191978 124.791915,49.3324806 124.791915,49.3468704 C124.791915,49.3590463 124.791915,49.373436 124.791915,49.3889326 L124.791915,50.6513543 L124.603761,50.6513543 L124.603761,48.9041096 L124.797307,48.9041096 L125.334276,49.7364998 C125.356919,49.7719207 125.374171,49.8007002 125.38711,49.8239451 C125.400049,49.84719 125.410831,49.8687746 125.419997,49.8903592 L125.422153,49.8903592 C125.430779,49.8687746 125.440483,49.84719 125.451805,49.8239451 C125.463127,49.8007002 125.479839,49.7719207 125.502483,49.7364998 L126.013574,48.9041096 L126.209815,48.9041096 L126.209815,50.6513543 L126.021121,50.6513543 Z" id="path-3" fill="#343432"></path>
        </g>
    </g>
</svg>