<?xml version="1.0" encoding="UTF-8"?>
<svg width="598px" height="164px" viewBox="0 0 598 164" version="1.1" xmlns="http://www.w3.org/2000/svg" xmlns:xlink="http://www.w3.org/1999/xlink">
    <!-- Generator: Sketch 50.2 (55047) - http://www.bohemiancoding.com/sketch -->
    <title>Group</title>
    <desc>Created with Sketch.</desc>
    <defs>
        <linearGradient x1="0%" y1="50.0329755%" x2="99.9656947%" y2="50.0329755%" id="linearGradient-1">
            <stop stop-color="#A68B5A" offset="0%"></stop>
            <stop stop-color="#DAB773" offset="20%"></stop>
            <stop stop-color="#FFD684" offset="33%"></stop>
            <stop stop-color="#A68B5A" offset="100%"></stop>
        </linearGradient>
    </defs>
    <g id="Page-1" stroke="none" stroke-width="1" fill="none" fill-rule="evenodd">
        <g id="Asset-1" fill-rule="nonzero">
            <g id="Group">
                <g id="Shape">
                    <path d="M150.19,108.83 L150.19,110.4 L130.48,110.4 L130.48,108.83 C134.48,107.66 134.7,104.5 134.7,99.13 L134.7,43.56 C134.7,39.86 133.7,38.28 129.43,37.13 L129.43,35.55 L145.87,32.17 L145.87,99.17 C145.87,104.92 146.4,107.87 150.19,108.83 Z M171.91,99.23 L171.91,60.75 L155.46,64.33 L155.46,65.91 C159.79,67.7 160.73,69.49 160.73,73.18 L160.73,99.23 C160.73,104.6 160.52,107.66 156.52,108.83 L156.52,110.4 L176.24,110.4 L176.24,108.83 C172.55,107.77 171.91,105 171.91,99.23 Z M200.8,99.13 L200.8,77.62 C200.8,68.34 198.37,60.75 187.31,60.75 C182.31,60.75 177.81,63.91 174.65,67.8 L175.82,69.39 C177.263934,68.0593439 179.128846,67.2772841 181.09,67.18 C186.89,67.18 189.63,70.76 189.63,77.51 L189.63,99.13 C189.63,104.5 189.41,107.66 185.4,108.83 L185.4,110.4 L205.13,110.4 L205.13,108.83 C201.43,107.87 200.8,104.92 200.8,99.13 Z M229.69,99.13 L229.69,77.19 C229.69,64.44 224.53,60.75 216.2,60.75 C211.14,60.75 206.28,63.91 203.2,67.92 L204.57,69.39 C206.013934,68.0593439 207.878846,67.2772841 209.84,67.18 C215.54,67.18 218.49,70.76 218.49,77.51 L218.49,99.13 C218.49,104.5 218.28,107.66 214.27,108.83 L214.27,110.4 L234,110.4 L234,108.83 C230.22,107.87 229.69,104.92 229.69,99.13 Z M354.75,63.25 C359.19,65.04 360.04,69.6 360.04,73.18 L360.04,107.56 C360.04,109.46 360.04,130.75 352.54,132.87 L352.54,134.45 C362.98,131.82 371.1,125.06 371.1,105.13 L371.1,58.08 L354.75,61.66 L354.75,63.25 Z M439.94,62.65 L439.94,61.05 L416.63,61.05 L416.63,62.65 C418.43,62.75 421.27,62.65 423.8,68.09 C423.8,68.09 424.96,70.34 443.63,111.36 L445.1,111.36 L450.16,98.22 L437.3,70.34 C437.3,70.34 433.51,62.65 439.94,62.65 Z M509.63,99.23 L509.63,60.75 L493.2,64.44 L493.2,65.91 C497.52,67.7 498.47,68.97 498.47,72.66 L498.47,99.23 C498.47,104.6 498.25,107.67 494.25,108.83 L494.25,110.41 L514,110.41 L514,108.83 C510.27,107.87 509.63,105 509.63,99.23 Z M540.33,99.13 L540.33,77.19 C540.33,64.44 534.84,60.75 526.41,60.75 C521.77,60.75 516.71,63.49 513.23,67.07 L514.49,68.97 C515.928066,67.864404 517.676997,67.2382867 519.49,67.18 C525.61,67.18 529.2,71.39 529.2,77.51 L529.2,99.13 C529.2,104.5 528.99,107.77 524.97,108.93 L524.97,110.41 L544.69,110.41 L544.69,108.93 C540.84,108 540.33,104.92 540.33,99.13 Z M547.81,86.05 C547.81,99.23 555.61,110.19 570.05,111.25 L570.05,109.68 C563.83,108.62 560.99,103.13 560.99,86.05 C560.99,68.97 563.83,63.6 570.05,62.54 L570.05,61 C555.61,62 547.81,72.87 547.81,86.05 Z M574.89,61 L574.89,62.58 C581.13,63.64 583.96,69.11 583.96,86.09 C583.96,103.07 581.13,108.66 574.89,109.72 L574.89,111.29 C589.45,110.23 597.25,99.29 597.25,86.09 C597.25,72.89 589.45,62 574.89,61 Z M346.13,99.13 L346.13,58.08 L329.66,61.66 L329.66,63.25 C334,65 335,66.51 335,70.1 L335,99.1 C335,104.47 334.79,107.53 330.78,108.8 L330.78,110.37 L350.4,110.37 L350.4,108.8 C346.65,107.77 346.13,104.92 346.13,99.13 Z M339.13,52.35 C340.636795,52.4032265 342.114989,51.9293556 343.31,51.01 C344.866079,49.8094701 345.801911,47.9745052 345.86,46.01 C345.943822,43.3648826 344.425261,40.9299646 342.012991,39.8415596 C339.600721,38.7531546 336.770272,39.2258198 334.842542,41.0389743 C332.914812,42.8521289 332.269814,45.6483461 333.208552,48.1227032 C334.14729,50.5970603 336.484711,52.2617877 339.13,52.34 L339.13,52.35 Z M364.86,39.29 C363.351632,39.2370812 361.872469,39.7148013 360.68,40.64 C358.156314,42.5779941 357.393703,46.0511075 358.873303,48.868126 C360.352904,51.6851444 363.645267,53.0284378 366.673216,52.0505119 C369.701164,51.072586 371.585846,48.0572804 371.1382,44.906975 C370.690555,41.7566696 368.04051,39.3857298 364.86,39.29 Z M485.54,99.13 L485.54,58.08 L469.08,61.08 L450.6,61.08 L450.6,62.68 C460.5,62.68 457.41,73.88 456.31,77.05 L451,90.91 L452,93.14 L457.88,77.74 C462.83,65.32 466.38,63.12 469.22,62.74 C473.37,64.51 474.39,66.59 474.39,70.11 L474.39,99.11 C474.39,104.48 474.17,107.54 470.17,108.81 L470.17,110.39 L489.79,110.39 L489.79,108.81 C486.06,107.77 485.54,104.92 485.54,99.13 Z M478.54,52.36 C480.272804,52.413817 481.955694,51.775312 483.216697,50.585616 C484.4777,49.3959199 485.212974,47.7530012 485.26,46.02 C485.319225,44.2909732 484.685658,42.6098632 483.5,41.35 C482.307503,40.0881431 480.665219,39.3478574 478.93,39.29 C477.418354,39.2355722 475.93554,39.7133286 474.74,40.64 C473.185037,41.8414561 472.249494,43.6758548 472.19,45.64 C472.089041,49.2521422 474.928254,52.2657329 478.54,52.38 L478.54,52.36 Z M281.35,105.66 C276.35,105.66 276.49,98.66 276.49,98.66 L276.49,84.66 L276.49,81.83 C276.49,70.53 273.71,62.37 263.72,60.97 C262.607448,60.8082895 261.48421,60.7314013 260.36,60.74 C258.647321,60.6921329 256.935085,60.8499272 255.26,61.21 C253.59058,61.5323313 251.974766,62.0877671 250.46,62.86 C244.77,65.91 243.19,68.86 242.24,70.55 C241.059644,72.7910489 241.565673,75.5487379 243.464793,77.2247109 C245.363912,78.9006838 248.163122,79.0598679 250.24,77.61 C251.41745,76.7758968 252.212897,75.5059797 252.449508,74.0825567 C252.686119,72.6591338 252.344286,71.2001703 251.5,70.03 C250.662957,68.8474619 249.359997,68.0795159 247.92,67.92 C247.29,67.81 247.82,65.92 251.5,64.02 C252.606841,63.5008962 253.787572,63.1567975 255,63 L255.24,63 L255.43,63 C261.23,62.55 265.17,68 265.17,77 L265.17,83.34 C246.93,87.97 238.07,89.66 238.07,100.74 C238.07,111.59 250.07,111.48 250.07,111.48 C254.549145,111.411895 258.853061,109.728681 262.19,106.74 C262.1,106.63 261.14,105.16 261.03,104.95 C259.805174,105.616593 258.423527,105.94128 257.03,105.89 C250.39,105.89 249.44,99.89 249.44,98.3 C249.44,92.4 253.86,87.66 265.15,85.02 L265.15,102 C265.15,111.6 274.96,111.39 274.96,111.39 C281.07,111.39 285.18,107.39 286.03,104.12 L284.44,103.49 C283.982649,104.797277 282.744939,105.6693 281.36,105.66 L281.35,105.66 Z M128.35,103.46 C127.923643,104.76107 126.718978,105.648507 125.35,105.67 C120.35,105.67 120.51,98.67 120.51,98.67 L120.51,84.67 L120.51,81.84 C120.51,70.54 117.73,62.38 107.74,60.98 C107.38,60.92 107.01,60.88 106.63,60.85 L106.57,60.85 C106.25,60.85 105.92,60.85 105.57,60.79 L105.44,60.79 L104.37,60.79 L104,60.79 C101.941958,60.7714356 99.8916402,61.044138 97.91,61.6 C96.7215349,61.9123127 95.5712207,62.3549992 94.48,62.92 C88.79,65.97 87.21,68.92 86.26,70.61 C85.0796442,72.8510489 85.5856731,75.6087379 87.4847927,77.2847109 C89.3839122,78.9606838 92.1831217,79.1198679 94.26,77.67 C95.4374504,76.8358968 96.2328968,75.5659797 96.469508,74.1425567 C96.7061192,72.7191338 96.3642862,71.2601703 95.52,70.09 C94.6829575,68.9074619 93.3799969,68.1395159 91.94,67.98 C91.31,67.87 91.84,65.98 95.52,64.08 C96.5983709,63.5479916 97.7516663,63.1837931 98.94,63 L99.18,63 L99.37,63 C99.7363966,62.9800971 100.103603,62.9800971 100.47,63 C105.64,63.3 109.07,68.64 109.07,77 L109.07,83.34 C90.83,87.97 81.98,89.66 81.98,100.74 C81.98,111.59 93.98,111.48 93.98,111.48 C98.4591448,111.411895 102.763061,109.728681 106.1,106.74 C106.01,106.63 105.05,105.16 104.94,104.95 C103.713089,105.611115 102.332953,105.935447 100.94,105.89 C94.32,105.89 93.37,99.89 93.37,98.3 C93.37,92.41 97.79,87.67 109.04,85.03 L109.04,102 C109.04,111.41 118.46,111.4 118.83,111.39 L118.89,111.39 C125,111.39 129.11,107.39 129.96,104.12 L128.37,103.49 L128.35,103.46 Z M310.88,103.8 C303.48,102.64 296.5,97.27 296.5,84.51 C296.5,65.64 307.39,62.37 311.41,62.37 C317.02,62.37 319.66,64.69 318.71,65 C317.24993,65.5772037 316.12403,66.776453 315.64,68.27 C315.061034,69.7108457 315.081861,71.3233115 315.697849,72.7487227 C316.313837,74.1741338 317.473902,75.294281 318.92,75.86 C321.507862,76.8757249 324.454541,75.9807012 326.040319,73.6972757 C327.626097,71.4138502 327.435598,68.3401399 325.58,66.27 C324.21,64.69 320.4,60.79 311.41,60.79 C294.28,60.79 284.87,73.54 284.87,85.98 C284.87,99.9 295.24,111.39 308.03,111.39 C321.14,111.39 326.95,102.96 328.33,97.69 L327.06,96.95 C324.89,100.75 317.49,104.75 310.93,103.8 L310.88,103.8 Z M420.7,105.66 C415.7,105.66 415.84,98.66 415.84,98.66 L415.84,81.8 C415.889259,78.7063543 415.590719,75.6169703 414.95,72.59 L414.89,72.31 L414.89,72.18 C413.68,67.28 411.23,63.65 406.81,61.89 C404.544148,61.0440098 402.138047,60.6367712 399.72,60.69 C397.86345,60.6350822 396.007695,60.8233472 394.2,61.25 C392.65661,61.5778915 391.163571,62.1091981 389.76,62.83 C384.05,65.89 382.46,68.83 381.51,70.54 C380.353059,72.7812787 380.865682,75.5219709 382.754492,77.1935683 C384.643303,78.8651656 387.425985,79.0408184 389.51,77.62 C390.693218,76.7836064 391.493069,75.5089981 391.731586,74.0797784 C391.970102,72.6505588 391.627497,71.1852908 390.78,70.01 C389.934575,68.8317166 388.630742,68.065397 387.19,67.9 C386.56,67.79 387.08,65.9 390.78,63.99 C392.275732,63.2259814 393.930443,62.8251507 395.61,62.82 C395.763162,62.8097366 395.916838,62.8097366 396.07,62.82 L396.28,62.82 C396.346579,62.8151627 396.413421,62.8151627 396.48,62.82 C398.49403,63.1366639 400.295984,64.2502711 401.48,65.91 L401.6,66.07 L401.82,66.39 C403.45,68.83 404.39,72.39 404.39,76.79 L404.39,79.14 L404.39,83.08 C386.12,87.71 377.25,89.41 377.25,100.49 C377.25,111.36 389.25,111.25 389.25,111.25 C393.738069,111.187556 398.051278,109.499934 401.39,106.5 C401.29,106.4 400.33,104.92 400.23,104.71 C399.005616,105.378682 397.624298,105.706745 396.23,105.66 C389.58,105.66 388.63,99.66 388.63,98.06 C388.63,92.15 393.06,87.4 404.36,84.76 L404.36,102 C404.36,111.61 414.18,111.41 414.18,111.41 C420.3,111.41 424.41,107.41 425.26,104.12 L423.68,103.49 C423.239264,104.744652 422.078642,105.604225 420.75,105.66 L420.7,105.66 Z M75,46.39 C73,47.52 64.84,55.6 63.93,56.57 C62.9576007,57.3393681 62.5270173,58.6076319 62.83,59.81 C63.02,62.34 63.12,65.03 63.12,67.91 C63.12,107.85 44.95,112.39 30.8,112.91 L30.8,114.51 C55.64,113.84 79.29,105.83 79.29,67.89 C79.3822687,60.7907407 78.2698279,53.7272488 76,47 C75.59,46.24 75.32,46.19 75,46.39 Z M9.62,36.39 L9.62,98.78 C9.62,107.78 6.14,112.78 0.62,112.94 L0.62,114.67 L23.46,114.67 L23.46,29.07 C18.36,28.49 13.16,28.2 8.06,28.07 C9.1240297,30.7088126 9.64442306,33.5352628 9.59,36.38 L9.62,36.39 Z" fill="#00244C"></path>
                    <g>
                        <path d="M65.12,30 C50.87,17.05 23.48,17.88 0.64,20 L0.64,21.84 C46.41,21.48 56.87,33.84 60.38,48.34 C60.5,48.83 61.06,50.27 62.38,48.88 C68.87,41.88 84.28,27.45 116.57,34.27 C116.828594,33.6666795 117.052296,33.0489942 117.24,32.42 C102.2,26.87 87.45,22.59 65.12,30 Z M106.47,2.48 C89.96,3.15 82.28,12.18 79.67,18.02 C79.19,19.09 78.67,19.55 77.77,18.27 C74.2,13.27 64.95,6.6 47.46,8.65 L47.11,7.06 C55.11,5.2 68.35,3.95 77.05,9.28 C85.14,-0.32 100.3,0.64 106.23,0.76 L106.47,2.48 Z" fill="url(#linearGradient-1)"></path>
                        <path d="M65.12,30 C50.87,17.05 23.48,17.88 0.64,20 L0.64,21.84 C46.41,21.48 56.87,33.84 60.38,48.34 C60.5,48.83 61.06,50.27 62.38,48.88 C68.87,41.88 84.28,27.45 116.57,34.27 C116.828594,33.6666795 117.052296,33.0489942 117.24,32.42 C102.2,26.87 87.45,22.59 65.12,30 Z M106.47,2.48 C89.96,3.15 82.28,12.18 79.67,18.02 C79.19,19.09 78.67,19.55 77.77,18.27 C74.2,13.27 64.95,6.6 47.46,8.65 L47.11,7.06 C55.11,5.2 68.35,3.95 77.05,9.28 C85.14,-0.32 100.3,0.64 106.23,0.76 L106.47,2.48 Z" fill="#A68B5A"></path>
                    </g>
                    <g transform="translate(131.000000, 147.000000)" fill="#8C724F">
                        <path d="M5.57,9.78 L2.33,9.78 L2.33,14.49 L0.83,14.49 L0.83,1.15 L5.83,1.15 C8.83,1.15 10.83,2.75 10.83,5.4 C10.81,8.3 8.41,9.78 5.57,9.78 Z M5.7,2.54 L2.33,2.54 L2.33,8.41 L5.63,8.41 C7.83,8.41 9.28,7.23 9.28,5.41 C9.28,3.53 7.85,2.54 5.7,2.54 Z"></path>
                        <path d="M23,14.72 C20.2031329,14.7564715 17.6609527,13.1008305 16.5634071,10.528052 C15.4658615,7.9552735 16.0301196,4.97442796 17.9920626,2.98079426 C19.9540056,0.987160568 22.9254278,0.375214963 25.5154612,1.43139791 C28.1054947,2.48758086 29.8016547,5.00290759 29.81,7.8 C29.8734338,9.63482613 29.1800364,11.4150917 27.8922853,12.7236435 C26.6045342,14.0321953 24.835607,14.7540275 23,14.72 Z M23,2.31 C21.5693206,2.31383117 20.2024193,2.9024773 19.2165896,3.93929828 C18.2307598,4.97611925 17.711737,6.37094498 17.78,7.8 C17.7203893,9.23565948 18.2451498,10.6341892 19.2344648,11.6762676 C20.2237797,12.7183461 21.5931818,13.3150009 23.03,13.33 C24.4606794,13.3261688 25.8275807,12.7375227 26.8134104,11.7007017 C27.7992402,10.6638807 28.318263,9.26905502 28.25,7.84 C28.3096107,6.40434052 27.7848502,5.0058108 26.7955352,3.96373237 C25.8062203,2.92165394 24.4368182,2.32499909 23,2.31 Z"></path>
                        <polygon points="42.73 10.83 42.65 10.83 37.8 3.71 37.8 14.49 36.33 14.49 36.33 1.15 37.85 1.15 42.71 8.43 47.57 1.15 49.09 1.15 49.09 14.49 47.58 14.49 47.58 3.69"></polygon>
                        <path d="M68.43,14.49 L66.81,14.49 L65.25,11 L58,11 L56.42,14.53 L54.88,14.53 L60.95,1.1 L62.36,1.1 L68.43,14.49 Z M61.63,2.81 L58.58,9.61 L64.66,9.61 L61.63,2.81 Z"></path>
                        <polygon points="74.2 1.15 75.71 1.15 75.71 13.15 83.21 13.15 83.21 14.54 74.21 14.54"></polygon>
                        <path d="M94.5,14.72 C91.7039821,14.7524075 89.1648404,13.0941476 88.0704554,10.5210002 C86.9760705,7.94785269 87.5428402,4.96861813 89.505614,2.97706465 C91.4683878,0.985511162 94.4390573,0.37543796 97.0278612,1.43225412 C99.6166652,2.48907029 101.311707,5.0038066 101.32,7.8 C101.363423,9.63087887 100.662136,11.401029 99.376604,12.7054103 C98.0910721,14.0097917 96.331317,14.7367698 94.5,14.72 Z M94.5,2.31 C93.0710604,2.31655307 91.7067781,2.90639004 90.7231323,3.9428997 C89.7394865,4.97940936 89.2218097,6.37267335 89.29,7.8 C89.2303893,9.23565948 89.7551498,10.6341892 90.7444648,11.6762676 C91.7337797,12.7183461 93.1031818,13.3150009 94.54,13.33 C95.9706794,13.3261688 97.3375807,12.7375227 98.3234104,11.7007017 C99.3092402,10.6638807 99.828263,9.26905502 99.76,7.84 C99.8196563,6.40262263 99.2935445,5.00255254 98.3020555,3.96016963 C97.3105665,2.91778671 95.9385621,2.32230884 94.5,2.31 Z"></path>
                        <path d="M105.13,14.49 L104.45,14.49 L104.45,12.49 L106.2,12.49 L106.2,14.2 C106.275577,14.8276706 106.093964,15.459214 105.696507,15.9508546 C105.299051,16.4424952 104.719574,16.7523939 104.09,16.81 L103.86,16.15 C104.81,15.8 105.21,15.31 105.13,14.49 Z"></path>
                        <path d="M128.14,14.72 C125.34745,14.7361771 122.820495,13.0675073 121.738739,10.4929397 C120.656983,7.91837214 121.233748,4.94561205 123.199795,2.96236902 C125.165842,0.979125991 128.133467,0.376495904 130.717357,1.43579159 C133.301247,2.49508728 134.991859,5.00741543 135,7.8 C135.064048,9.64370096 134.363918,11.432019 133.06513,12.7421663 C131.766342,14.0523136 129.984189,14.7679908 128.14,14.72 Z M128.14,2.31 C126.709321,2.31383117 125.342419,2.9024773 124.35659,3.93929828 C123.37076,4.97611925 122.851737,6.37094498 122.92,7.8 C122.860344,9.23737737 123.386455,10.6374475 124.377944,11.6798304 C125.369433,12.7222133 126.741438,13.3176912 128.18,13.33 C129.60894,13.3234469 130.973222,12.73361 131.956868,11.6971003 C132.940513,10.6605906 133.45819,9.26732665 133.39,7.84 C133.449611,6.40434052 132.92485,5.0058108 131.935535,3.96373237 C130.94622,2.92165394 129.576818,2.32499909 128.14,2.31 Z"></path>
                        <path d="M146.06,14.49 L141.44,14.49 L141.44,1.15 L146.06,1.15 C150.25,1.15 153.15,4.03 153.15,7.8 C153.15,11.57 150.25,14.49 146.06,14.49 Z M146.06,2.54 L142.94,2.54 L142.94,13.1 L146.06,13.1 C148.023915,13.2209279 149.892672,12.2418475 150.911211,10.5583496 C151.92975,8.87485173 151.92975,6.76514827 150.911211,5.08165038 C149.892672,3.3981525 148.023915,2.41907215 146.06,2.54 Z"></path>
                        <polygon points="170.65 1.06 171.75 1.06 171.75 14.49 170.27 14.49 170.27 2.62 167.76 3.4 167.39 2.18"></polygon>
                        <path d="M182.62,14.72 C181.094724,14.6984304 179.631124,14.1144148 178.51,13.08 L179.39,11.92 C180.25729,12.7955685 181.428125,13.3040046 182.66,13.34 C185.06,13.34 186.66,10.91 186.66,7.5 C185.883219,8.84177732 184.440168,9.65708146 182.89,9.63 C180.15,9.63 178.25,7.9 178.25,5.48 C178.242583,4.22785469 178.75265,3.02824248 179.659572,2.16486797 C180.566494,1.30149346 181.789734,0.851026089 183.04,0.92 C184.350933,0.872256796 185.622602,1.37222944 186.55,2.3 C187.6,3.3 188.21,4.79 188.21,7.48 C188.17,11.73 185.92,14.72 182.62,14.72 Z M182.95,2.26 C182.100382,2.22077232 181.272768,2.53692527 180.665693,3.13261757 C180.058619,3.72830987 179.726859,4.5497919 179.75,5.4 C179.763291,6.23424567 180.123405,7.02527178 180.743856,7.58310898 C181.364308,8.14094617 182.189044,8.41519751 183.02,8.34 C184.165413,8.4187754 185.258021,7.84764617 185.84714,6.86219494 C186.436259,5.8767437 186.422066,4.64394992 185.810415,3.67232335 C185.198763,2.70069677 184.093295,2.15487435 182.95,2.26 Z"></path>
                        <path d="M202.33,1.06 L202.33,10.06 L204.4,10.06 L204.4,11.32 L202.33,11.32 L202.33,14.48 L200.88,14.48 L200.88,11.32 L193.88,11.32 L193.49,10.23 L201.04,1.05 L202.33,1.06 Z M200.88,3.19 L195.28,10.07 L200.88,10.07 L200.88,3.19 Z"></path>
                        <path d="M218.53,3.61 C217.687519,2.79065531 216.56499,2.32233922 215.39,2.3 C212.97,2.3 211.47,4.73 211.48,8.18 C212.304551,6.89413562 213.743139,6.13498652 215.27,6.18 C217.77,6.18 219.88,7.78 219.88,10.3 C219.868519,11.5357062 219.350493,12.7125725 218.446958,13.555619 C217.543424,14.3986656 216.33354,14.8340345 215.1,14.76 C213.797854,14.7961368 212.536113,14.3058604 211.6,13.4 C210.53,12.34 209.92,10.97 209.92,8.22 C209.92,4.15 211.98,0.96 215.46,0.96 C216.937195,0.954882972 218.363297,1.50036683 219.46,2.49 L218.53,3.61 Z M215.08,7.44 C213.918142,7.27444427 212.766434,7.80158174 212.132356,8.78913783 C211.498278,9.77669392 211.498278,11.0433061 212.132356,12.0308622 C212.766434,13.0184183 213.918142,13.5455557 215.08,13.38 C215.923571,13.4422482 216.754221,13.1454843 217.367377,12.5627956 C217.980533,11.9801068 218.319211,11.1656462 218.3,10.32 C218.269643,9.50575464 217.909391,8.73888298 217.302061,8.19568143 C216.694732,7.65247989 215.892575,7.3796815 215.08,7.44 Z"></path>
                        <polygon points="223.22 14.49 223.22 12.49 225 12.49 225 14.49"></polygon>
                        <path d="M246.91,14.72 C245.074537,14.7868885 243.295318,14.0800676 242.006131,12.7718653 C240.716943,11.4636631 240.036247,9.67428685 240.13,7.84 C240.067664,6.02793001 240.743506,4.26816335 242.00277,2.96365652 C243.262034,1.65914969 244.996859,0.921638353 246.81,0.92 C248.645704,0.834002679 250.441601,1.47334183 251.81,2.7 L250.81,3.84 C249.713626,2.81094986 248.252839,2.26045624 246.75,2.31 C245.344526,2.34841952 244.014244,2.9532601 243.061365,3.98711448 C242.108487,5.02096887 241.613913,6.39606157 241.69,7.8 C241.69,11 243.69,13.36 246.96,13.36 C248.355458,13.3567288 249.710078,12.8887692 250.81,12.03 L250.81,8.72 L246.75,8.72 L246.75,7.36 L252.26,7.36 L252.26,12.68 C250.783525,13.9870501 248.881877,14.7121646 246.91,14.72 Z"></path>
                        <path d="M265,14.72 C262.203982,14.7524075 259.66484,13.0941476 258.570455,10.5210002 C257.47607,7.94785269 258.04284,4.96861813 260.005614,2.97706465 C261.968388,0.985511162 264.939057,0.37543796 267.527861,1.43225412 C270.116665,2.48907029 271.811707,5.0038066 271.82,7.8 C271.860611,9.63006849 271.15841,11.3985851 269.873492,12.7023435 C268.588574,14.0061019 266.830466,14.7339699 265,14.72 Z M265,2.31 C263.569321,2.31383117 262.202419,2.9024773 261.21659,3.93929828 C260.23076,4.97611925 259.711737,6.37094498 259.78,7.8 C259.720344,9.23737737 260.246455,10.6374475 261.237944,11.6798304 C262.229433,12.7222133 263.601438,13.3176912 265.04,13.33 C266.46894,13.3234469 267.833222,12.73361 268.816868,11.6971003 C269.800513,10.6605906 270.31819,9.26732665 270.25,7.84 C270.309611,6.40434052 269.78485,5.0058108 268.795535,3.96373237 C267.80622,2.92165394 266.436818,2.32499909 265,2.31 Z"></path>
                        <path d="M282.92,14.49 L278.3,14.49 L278.3,1.15 L282.92,1.15 C287.11,1.15 290.01,4.03 290.01,7.8 C290.01,11.57 287.11,14.49 282.92,14.49 Z M282.92,2.54 L279.8,2.54 L279.8,13.1 L282.92,13.1 C284.883915,13.2209279 286.752672,12.2418475 287.771211,10.5583496 C288.78975,8.87485173 288.78975,6.76514827 287.771211,5.08165038 C286.752672,3.3981525 284.883915,2.41907215 282.92,2.54 Z"></path>
                        <polygon points="298 1.15 298 14.49 296.5 14.49 296.5 1.15"></polygon>
                        <polygon points="315 1.15 316.46 1.15 316.46 14.49 315.26 14.49 306.66 3.55 306.66 14.49 305.19 14.49 305.19 1.15 306.6 1.15 315 11.84"></polygon>
                        <polygon points="333.24 2.52 325.11 2.52 325.11 7.08 332.38 7.08 332.38 8.45 325.11 8.45 325.11 13.12 333.33 13.12 333.33 14.49 323.6 14.49 323.6 1.15 333.24 1.15"></polygon>
                    </g>
                </g>
            </g>
        </g>
    </g>
</svg>