<?xml version="1.0" encoding="UTF-8"?>
<svg width="1824px" height="1172px" viewBox="0 0 1824 1172" version="1.1" xmlns="http://www.w3.org/2000/svg" xmlns:xlink="http://www.w3.org/1999/xlink">
    <!-- Generator: Sketch 50.2 (55047) - http://www.bohemiancoding.com/sketch -->
    <title>Vertical Logo with Robot</title>
    <desc>Created with Sketch.</desc>
    <defs></defs>
    <g id="Page-1" stroke="none" stroke-width="1" fill="none" fill-rule="evenodd">
        <g id="Vertical-Logo-with-Robot" fill-rule="nonzero">
            <g id="Group" transform="translate(0.000000, 918.000000)">
                <path d="M231.6,145.7 C231,152.7 230,159.7 228.8,166.7 C227.6,173.7 225.9,180.6 223.9,187.4 C221.9,194.1 219.5,200.3 216.8,205.8 C213,213.8 208.1,220.6 202.2,226.3 C196.2,231.9 189.3,236.6 181.5,240.4 C175.8,243.2 169.8,245.3 163.6,246.8 C157.5,248.3 151.3,249.4 145,250 C138.8,250.6 132.4,250.9 125.9,250.9 C119.6,250.9 113.4,250.9 107.1,250.9 L0.7,250.9 L0.7,0.3 L107,0.3 C117.3,0.3 127.7,0.8 138.4,1.8 C149,2.8 159.2,5 168.8,8.4 C178.5,11.8 187.3,16.6 195.5,22.7 C203.6,28.8 210.3,36.9 215.6,46.9 C221.4,58.2 225.6,71.1 228.4,85.6 C231.1,100.1 232.5,113.6 232.5,126.2 C232.5,132.2 232.2,138.7 231.6,145.7 Z M170.3,95.1 C168.1,84.2 164.6,74.7 159.6,66.6 C153.6,57 145.9,50.9 136.7,48.2 C127.4,45.5 117.5,44.2 107,44.2 L54,44.2 L54,207.1 L107,207.1 C113,207.1 119.7,206.5 127.1,205.2 C134.5,203.9 140.8,201.9 146.1,199.1 C151.6,196.1 156.1,191.6 159.6,185.6 C163.1,179.6 165.8,173.2 167.8,166.2 C169.8,159.3 171.3,152.2 172.1,145 C173,137.8 173.4,131.4 173.4,125.8 C173.5,116.2 172.5,106 170.3,95.1 Z M325.3,250.7 C318.5,250.7 311.7,250.6 304.8,250.5 C297.9,250.4 291.2,249.5 284.7,247.7 C273.2,244.7 264.3,238.2 258.3,228.4 C252.3,218.5 249.3,207.9 249.3,196.6 C249.3,187.8 251.1,179.2 254.8,170.7 C258.4,162.2 263.9,155.2 271.2,149.6 C274.5,147.1 278.4,145.2 282.9,143.8 C287.4,142.4 292.2,141.4 297.1,140.8 C302,140.2 306.8,139.8 311.6,139.7 C316.4,139.6 320.8,139.5 324.8,139.5 L386.7,139.5 L386.7,136.5 C386.7,130 385.8,124.8 384.1,120.9 C382.3,117 379.8,114 376.4,111.9 C373,109.8 368.9,108.4 364.2,107.8 C359.4,107.2 354.2,106.9 348.4,106.9 L263.4,106.9 L263.4,67.8 L348.3,67.8 C351.8,67.8 355.3,67.8 358.7,68 C362.1,68.1 365.5,68.2 369,68.2 C384.5,68.7 397.8,72 408.7,78 C419.7,84 427.6,94.9 432.6,110.7 C434.6,117 435.8,123.1 436.2,129.1 C436.6,135.1 436.8,141.4 436.7,147.9 L436.7,250.8 L325.3,250.8 L325.3,250.7 Z M386.5,178.6 L319.8,178.6 C314.5,178.6 310,180 306.4,182.7 C302.8,185.4 300.9,189.7 300.9,195.4 C300.9,199.4 301.7,202.4 303.4,204.6 C305,206.7 307.2,208.3 309.8,209.3 C312.4,210.3 315.4,210.9 318.7,211.2 C322,211.4 325.1,211.6 328.1,211.6 L386.5,211.6 L386.5,178.6 Z M547.7,250.9 C535.2,250.9 523.9,248.7 514,244.3 C504,239.9 496.6,231.5 491.9,218.9 C489.9,212.9 488.7,206.8 488.2,200.7 C487.7,194.5 487.4,188.3 487.5,182.1 L487.5,106.9 L455.5,106.9 L455.5,67.8 L487.4,67.8 L487.4,0.5 L537.5,0.5 L537.5,67.8 L584.1,67.8 L584.1,106.9 L537.5,106.9 L537.5,173.5 C537.5,177.5 537.6,182.5 537.7,188.5 C537.8,194.6 539.2,199.3 541.7,202.8 C543.9,205.8 546.8,208 550.3,209.4 C553.8,210.8 557.6,211.6 561.6,212 C565.6,212.4 569.6,212.4 573.6,212.2 C577.6,212 581.1,211.8 584.1,211.8 L584.1,250.9 L547.7,250.9 Z M674.3,250.7 C667.5,250.7 660.7,250.7 653.8,250.5 C646.9,250.4 640.2,249.4 633.7,247.7 C622.2,244.7 613.4,238.3 607.4,228.4 C601.4,218.5 598.4,207.9 598.4,196.7 C598.4,188 600.2,179.3 603.9,170.8 C607.5,162.3 613,155.3 620.3,149.7 C623.6,147.2 627.5,145.3 632,143.9 C636.5,142.5 641.3,141.5 646.2,140.9 C651.1,140.3 655.9,139.9 660.7,139.8 C665.5,139.7 669.9,139.6 673.9,139.6 L735.8,139.6 L735.8,136.6 C735.8,130.1 734.9,124.9 733.2,121 C731.4,117.1 728.9,114.1 725.5,112 C722.1,109.9 718,108.5 713.3,107.9 C708.5,107.3 703.3,107 697.5,107 L612.6,107 L612.6,67.9 L697.5,67.9 C701,67.9 704.5,67.9 707.9,68.1 C711.3,68.2 714.7,68.3 718.2,68.3 C733.7,68.8 747,72.1 757.9,78.1 C768.8,84.1 776.8,95 781.8,110.8 C783.8,117.1 785,123.2 785.3,129.2 C785.7,135.2 785.9,141.5 785.9,148 L785.9,250.9 L674.3,250.9 L674.3,250.7 Z M735.6,178.6 L668.8,178.6 C663.5,178.6 659.1,180 655.4,182.7 C651.7,185.4 649.9,189.7 649.9,195.4 C649.9,199.4 650.7,202.4 652.4,204.5 C654,206.6 656.2,208.2 658.8,209.2 C661.4,210.2 664.4,210.8 667.6,211.1 C670.9,211.3 674,211.5 677.1,211.5 L735.5,211.5 L735.6,178.6 Z" id="Shape" fill="#333333"></path>
                <path d="M993.3,250.9 C991.3,245.1 990,239.3 989.6,233.2 C989.1,227.2 988.5,221.2 987.7,215.2 C986.4,203.7 984.4,194.1 981.5,186.5 C978.6,178.9 974.5,172.8 969.3,168.3 C964,163.8 957.4,160.6 949.4,158.7 C941.4,156.8 931.6,155.9 920.1,155.9 L877.3,155.9 L877.3,250.9 L824.1,250.9 L824.1,0.4 L946.6,0.4 C955.9,0.4 965.3,0.7 975,1.3 C984.6,1.9 993.9,3.5 1002.6,6 C1017.4,10.3 1028.9,18.3 1037.2,30.1 C1045.5,41.9 1049.6,55.3 1049.6,70.3 C1049.6,87.6 1045.9,102.7 1038.7,115.6 C1031.4,128.5 1019.1,137.7 1001.9,143.2 C1007.4,145.2 1012.1,147.1 1016,149 C1019.9,150.9 1023.3,153.2 1026.3,155.8 C1029.3,158.4 1032,161.6 1034.2,165.2 C1036.4,168.8 1038.7,173.4 1040.9,178.9 C1044.4,187.2 1046.4,195.7 1046.7,204.4 C1047.1,213.2 1047.8,221.9 1048.8,230.7 C1049.5,237.2 1051,244 1053.3,251 L993.3,251 L993.3,250.9 Z M987.4,60.2 C985.4,55.9 982.7,52.7 979.3,50.4 C975.9,48.1 971.9,46.5 967.1,45.6 C962.3,44.7 957.2,44.2 951.7,44.2 L877,44.2 L877,112.1 L951.6,112.1 C963.9,112.1 973.3,109.6 980.1,104.6 C986.9,99.6 990.2,90.2 990.2,76.7 C990.4,69.9 989.4,64.5 987.4,60.2 Z M1253.8,201.1 C1248.9,212.5 1242.2,222.1 1233.5,229.9 C1224.9,237.7 1214.6,243.6 1202.7,247.6 C1190.8,251.6 1177.8,253.6 1163.5,253.6 C1133,253.6 1109.3,245.3 1092.6,228.6 C1075.8,211.9 1067.4,188.3 1067.4,157.7 C1067.4,143.4 1069.8,130.5 1074.5,119 C1079.2,107.5 1085.9,97.7 1094.4,89.8 C1102.9,81.9 1113.1,75.8 1125,71.6 C1136.9,67.4 1149.8,65.2 1163.8,65.2 C1194.3,65.2 1218.2,73.6 1235.3,90.4 C1252.4,107.2 1261,131 1261,161.9 C1261.1,176.5 1258.7,189.7 1253.8,201.1 Z M1207.2,137.6 C1205.7,130.9 1203.2,125.1 1199.7,120.2 C1196.2,115.3 1191.5,111.4 1185.7,108.5 C1179.9,105.7 1172.7,104.2 1164.3,104.2 C1155.4,104.2 1147.9,105.7 1142.1,108.7 C1136.3,111.7 1131.7,115.7 1128.3,120.7 C1124.9,125.8 1122.6,131.7 1121.2,138.5 C1119.8,145.3 1119.1,152.6 1119.1,160.6 C1119.1,168.3 1119.9,175.4 1121.5,181.9 C1123.1,188.4 1125.7,194.1 1129.3,199 C1132.9,203.8 1137.6,207.6 1143.5,210.3 C1149.3,213 1156.5,214.4 1164.9,214.4 C1173.3,214.4 1180.5,212.9 1186.2,210 C1191.9,207 1196.5,203.1 1200,198.1 C1203.5,193.2 1205.9,187.3 1207.3,180.5 C1208.7,173.7 1209.4,166.6 1209.4,159.2 C1209.4,151.5 1208.7,144.3 1207.2,137.6 Z M1466.2,202.8 C1459.9,216.8 1449.7,228.4 1435.5,237.4 C1425.2,243.9 1414.9,247.8 1404.4,249.1 C1393.9,250.3 1382.8,251 1371,250.9 L1289.2,250.9 L1289.2,0.4 L1339.3,0.4 L1339.3,67.7 L1383.9,67.7 C1412.7,67.7 1435.2,75.3 1451.3,90.5 C1467.4,105.7 1475.5,127.8 1475.5,156.9 C1475.6,173.4 1472.5,188.7 1466.2,202.8 Z M1413.9,120.4 C1406.2,111.4 1393.9,106.9 1376.9,106.9 L1339.3,106.9 L1339.3,211.8 L1376.9,211.8 C1393.1,211.8 1405.3,206.7 1413.3,196.6 C1421.4,186.4 1425.4,173.7 1425.4,158.4 C1425.5,142.1 1421.6,129.4 1413.9,120.4 Z M1677.9,201.1 C1673,212.5 1666.3,222.1 1657.6,229.9 C1649,237.7 1638.7,243.6 1626.9,247.6 C1615,251.6 1601.9,253.6 1587.7,253.6 C1557.2,253.6 1533.5,245.3 1516.8,228.6 C1500,211.9 1491.7,188.3 1491.7,157.7 C1491.7,143.4 1494.1,130.5 1498.8,119 C1503.6,107.5 1510.2,97.7 1518.7,89.8 C1527.2,81.9 1537.4,75.8 1549.3,71.6 C1561.2,67.3 1574.1,65.2 1588.2,65.2 C1618.7,65.2 1642.6,73.6 1659.7,90.4 C1676.8,107.2 1685.4,131 1685.4,161.9 C1685.3,176.5 1682.8,189.7 1677.9,201.1 Z M1631.3,137.6 C1629.8,130.9 1627.3,125.1 1623.8,120.2 C1620.3,115.3 1615.7,111.4 1609.8,108.5 C1604,105.7 1596.8,104.2 1588.3,104.2 C1579.4,104.2 1571.9,105.7 1566.1,108.7 C1560.2,111.7 1555.7,115.7 1552.3,120.8 C1548.9,125.9 1546.6,131.8 1545.2,138.6 C1543.8,145.4 1543.2,152.7 1543.2,160.6 C1543.2,168.3 1544,175.4 1545.6,181.9 C1547.2,188.4 1549.8,194.1 1553.4,198.9 C1557,203.7 1561.8,207.5 1567.6,210.2 C1573.4,212.9 1580.6,214.3 1589,214.3 C1597.5,214.3 1604.5,212.8 1610.3,209.8 C1616,206.9 1620.7,202.9 1624.1,198 C1627.6,193 1630,187.2 1631.4,180.4 C1632.7,173.6 1633.4,166.5 1633.4,159.1 C1633.6,151.5 1632.9,144.3 1631.3,137.6 Z M1786.8,250.9 C1774.3,250.9 1763.1,248.7 1753.1,244.3 C1743.1,239.9 1735.8,231.5 1731.1,218.9 C1729.1,212.9 1727.8,206.8 1727.3,200.7 C1726.8,194.5 1726.5,188.3 1726.5,182.1 L1726.5,106.9 L1694.5,106.9 L1694.5,67.8 L1726.5,67.8 L1726.5,0.5 L1776.6,0.5 L1776.6,67.8 L1823.2,67.8 L1823.2,107 L1776.6,107 L1776.6,173.6 C1776.6,177.6 1776.6,182.6 1776.8,188.7 C1776.9,194.7 1778.2,199.5 1780.8,203 C1783,206 1785.9,208.2 1789.5,209.6 C1793,211 1796.7,211.8 1800.8,212.2 C1804.8,212.6 1808.8,212.7 1812.8,212.4 C1816.8,212.2 1820.3,212 1823.3,212 L1823.3,251.1 L1786.8,251.1 L1786.8,250.9 Z" id="Shape" fill="#118CCC"></path>
            </g>
            <path d="M969.7,192.2 C952.9,192.2 939.2,212.5 939.2,237.5 C939.2,262.5 952.8,282.8 969.7,282.8 C986.5,282.8 1000.2,262.5 1000.2,237.5 C1000.2,212.5 986.5,192.2 969.7,192.2 Z M760.2,192.2 C743.4,192.2 729.7,212.5 729.7,237.5 C729.7,262.5 743.3,282.8 760.2,282.8 C777,282.8 790.7,262.5 790.7,237.5 C790.7,212.5 777,192.2 760.2,192.2 Z M1166.4,135.7 L1163.9,135.3 L1163.9,80.4 C1163.9,36.4 1127.9,0.4 1083.9,0.4 L645.8,0.4 C601.8,0.4 565.8,36.4 565.8,80.4 L565.8,135.3 L563.4,135.7 C550.7,137.8 540.8,149.4 540.8,162.3 L540.8,251.7 C540.8,264.5 550.7,276.2 563.4,278.3 L565.8,278.7 L565.8,368.5 C565.8,412.5 601.8,448.5 645.8,448.5 L771,448.5 L771,469.7 L760.2,469.7 L720.9,485.5 L720.9,491.3 L706.1,491.3 L706.1,506.8 C675.6,508.4 651.4,533.7 651.4,564.5 L651.4,582 L645.5,582 C638.2,589.3 634.1,593.4 626.8,600.7 L626.8,652.2 L645.5,670.9 L684.6,670.9 L692.6,662.9 L692.6,636.5 L708,636.6 L708,594.1 C708,587.5 702.7,582.2 696.1,582.2 L688.8,582.2 L688.8,564.7 C688.8,554.5 696.4,546 706.2,544.5 L706.2,565.1 L723.2,565.1 L723.2,627 L743.8,650.3 L743.8,682.3 C728,682.3 710.7,683.8 688,703.3 L688,735.3 L855.6,735.3 L855.6,672.8 L876.1,672.8 L876.1,735.3 L1043.7,735.3 L1043.7,703.3 C1021,683.8 1003.7,682.3 987.9,682.3 L987.9,650.3 L1009.3,627 L1009.3,565.1 L1025.4,565.1 L1025.4,544.4 C1035.4,545.7 1043.2,554.3 1043.2,564.7 L1043.2,582.2 L1035.9,582.2 C1029.3,582.2 1024,587.5 1024,594.1 L1024,636.6 L1039.4,636.5 L1039.4,662.9 L1047.4,670.9 L1086.5,670.9 C1093.8,663.6 1097.9,659.5 1105.2,652.2 L1105.2,600.7 L1086.5,582 L1080.6,582 L1080.6,564.5 C1080.6,533.5 1056.1,508.2 1025.5,506.8 L1025.5,491.4 L1010.7,491.4 L1010.7,485.6 L971.4,469.8 L960.6,469.8 L960.6,448.6 L1084,448.6 C1128,448.6 1164,412.6 1164,368.6 L1164,278.8 L1166.5,278.4 C1179.2,276.3 1189.1,264.7 1189.1,251.8 L1189.1,162.4 C1189,149.5 1179.1,137.8 1166.4,135.7 Z M1143.1,350 C1143.1,385.2 1114.3,414 1079.1,414 L650.7,414 C615.5,414 586.7,385.2 586.7,350 L586.7,94.1 C586.7,58.9 615.5,30.1 650.7,30.1 L1079.1,30.1 C1114.3,30.1 1143.1,58.9 1143.1,94.1 L1143.1,350 Z" id="Shape" fill="#333333"></path>
        </g>
    </g>
</svg>