<?xml version="1.0" encoding="UTF-8"?>
<svg width="534px" height="213px" viewBox="0 0 534 213" version="1.1" xmlns="http://www.w3.org/2000/svg" xmlns:xlink="http://www.w3.org/1999/xlink">
    <!-- Generator: Sketch 52.4 (67378) - http://www.bohemiancoding.com/sketch -->
    <title>Group</title>
    <desc>Created with Sketch.</desc>
    <g id="Page-1" stroke="none" stroke-width="1" fill="none" fill-rule="evenodd">
        <g id="logo" transform="translate(-33.000000, -316.000000)">
            <g id="Group" transform="translate(33.000000, 316.000000)">
                <text id="Digital-Capital" font-family="Montserrat-Regular, Montserrat" font-size="57.391807" font-weight="normal" fill="#ECCC2B">
                    <tspan x="131.425781" y="126.271786">Digital Capital</tspan>
                </text>
                <path d="M1.355,108.418 C1.195,109.215 1.035,110.012 1.035,110.969 C1.195,114.152 1.992,117.02 3.266,119.25 C3.266,120.047 3.266,120.844 3.266,121.48 C3.746,122.277 4.383,123.074 5.02,123.711 C7.09,126.422 9.797,128.809 12.664,130.879 C16.172,127.695 19.992,124.828 23.816,122.277 C31.781,117.02 40.227,112.719 48.508,107.941 C48.828,107.781 48.668,101.57 48.668,101.887 C48.668,96.949 48.668,92.012 48.668,87.074 C48.668,82.133 48.668,77.195 48.668,72.258 C48.668,72.574 48.352,66.203 48.508,66.203 C40.066,70.984 31.465,75.441 23.34,80.859 C15.535,86.117 8.047,92.328 3.426,100.773 C2.469,102.523 1.672,104.438 1.195,106.348 C1.035,107.621 0.879,108.898 0.879,110.172 C0.879,110.172 0.879,110.332 0.879,110.332 C1.035,109.215 1.355,108.258 1.672,107.305 C1.672,107.465 1.516,107.941 1.355,108.418 Z M5.02,123.711 C4.543,123.074 4.062,122.598 3.746,121.961 C4.223,122.598 4.699,123.074 5.02,123.711 Z" id="Fill-1" fill="#B2D57C"></path>
                <path d="M67.785,157.484 C62.527,154.297 56.953,151.91 51.375,149.52 C51.695,149.68 51.535,155.891 51.535,155.574 C51.535,160.512 51.535,165.449 51.535,170.387 C51.535,175.328 51.535,180.266 51.535,185.203 C51.535,184.883 51.219,191.258 51.375,191.258 C56.793,193.645 62.367,195.719 67.309,198.902 C72.086,201.93 77.023,205.914 77.82,211.965 C77.98,214.039 77.98,208.301 77.98,209.578 C77.98,205.434 78.141,201.293 78.141,196.992 C78.141,188.391 78.617,179.785 77.98,171.184 C77.344,165.133 73.043,160.672 67.785,157.484 Z" id="Fill-2" fill="#3BA2BF"></path>
                <path d="M51.375,185.203 C51.375,180.266 51.375,175.328 51.375,170.387 C51.375,165.449 51.375,160.512 51.375,155.574 C51.375,155.891 51.535,149.68 51.219,149.52 C41.34,144.742 30.984,141.395 21.27,136.137 C18.559,134.703 15.535,132.953 12.664,130.879 C9.797,128.809 7.09,126.422 5.02,123.711 C4.383,123.074 3.902,122.277 3.266,121.48 C1.832,119.094 0.879,115.746 0.879,112.242 C0.879,111.766 0.879,111.445 0.879,110.969 C0.879,110.172 1.035,109.215 1.195,108.418 C1.355,107.941 1.516,107.465 1.516,106.984 C1.195,107.941 0.879,109.055 0.719,110.012 C0.559,110.969 0.398,111.922 0.398,112.879 C0.082,121.641 0.238,130.242 0.238,139.004 C0.238,144.102 0.082,149.199 0.398,154.297 C0.559,155.891 0.719,157.324 1.035,158.918 C2.949,165.133 8.047,169.75 13.305,173.414 C24.934,181.379 38.312,185.363 50.898,191.418 C51.219,191.258 51.375,184.883 51.375,185.203 Z" id="Fill-3" fill="#696B6C"></path>
                <path d="M108.727,104.438 C108.566,104.914 108.406,105.391 108.406,105.871 C108.566,105.391 108.566,104.914 108.727,104.438 C108.887,103.641 109.043,102.844 109.043,101.887 C108.887,98.703 108.09,95.836 106.812,93.605 C106.812,92.809 106.812,92.012 106.812,91.215 C106.336,90.418 105.699,89.621 105.223,88.984 C105.699,89.621 106.02,90.098 106.496,90.734 C106.176,90.098 105.699,89.621 105.223,88.984 C103.148,86.277 100.441,83.887 97.574,81.816 C94.07,85 90.246,87.867 86.422,90.418 C78.457,95.676 70.016,99.977 61.73,104.754 C61.414,104.914 61.57,111.129 61.57,110.809 C61.57,115.746 61.57,120.684 61.57,125.625 C61.57,130.562 61.57,135.5 61.57,140.438 C61.57,140.121 61.891,146.492 61.73,146.492 C70.176,141.715 78.777,137.254 86.902,131.836 C94.707,126.578 102.195,120.367 106.812,111.922 C107.77,110.172 108.566,108.258 109.043,106.348 C109.203,105.074 109.363,103.801 109.363,102.523 C109.363,102.523 109.363,102.367 109.363,102.367 C109.043,103.32 108.887,103.957 108.727,104.438 Z" id="Fill-4" fill="#A0D339"></path>
                <path d="M58.703,57.281 C58.703,52.344 58.703,47.406 58.703,42.469 C58.703,37.527 58.703,32.59 58.703,27.652 C58.703,27.969 59.023,21.598 58.863,21.598 C53.449,19.207 47.871,17.137 42.773,13.953 C37.996,10.926 33.055,6.941 32.262,0.891 C32.102,-1.184 32.102,4.555 32.102,3.277 C32.102,7.422 31.941,11.562 31.941,15.863 C31.941,24.465 31.465,33.07 32.102,41.672 C32.578,48.043 37.039,52.344 42.137,55.691 C47.395,58.875 52.969,61.266 58.547,63.656 C58.547,63.176 58.703,56.965 58.703,57.281 Z" id="Fill-5" fill="#3BA2BF"></path>
                <path d="M109.523,73.852 C109.523,68.754 109.684,63.656 109.363,58.559 C109.203,56.965 109.043,55.531 108.727,53.938 C106.812,47.723 101.715,43.105 96.461,39.441 C84.832,31.477 71.449,27.492 58.863,21.438 C59.023,21.438 58.703,27.969 58.703,27.492 C58.703,32.43 58.703,37.371 58.703,42.309 C58.703,47.246 58.703,52.184 58.703,57.125 C58.703,56.805 58.547,63.016 58.863,63.176 C68.742,67.957 79.094,71.301 88.812,76.559 C91.52,77.992 94.547,79.746 97.414,81.816 C100.281,83.887 102.992,86.277 105.062,88.984 C105.699,89.621 106.176,90.418 106.656,91.215 C108.09,93.605 109.043,96.949 109.043,100.453 C109.043,100.934 109.043,101.25 109.043,101.727 C109.043,102.523 108.887,103.48 108.727,104.277 C108.887,103.801 109.043,103.16 109.043,102.523 C109.203,101.57 109.363,100.613 109.363,99.656 C109.684,91.215 109.523,82.453 109.523,73.852 Z" id="Fill-6" fill="#696B6C"></path>
                <path d="M108.727,104.438 C108.566,104.914 108.406,105.391 108.406,105.871 C108.566,105.391 108.566,104.914 108.727,104.438 Z" id="Fill-7" fill="#696B6C"></path>
            </g>
        </g>
    </g>
</svg>