<?xml version="1.0" encoding="UTF-8"?>
<svg width="534px" height="213px" viewBox="0 0 534 213" version="1.1" xmlns="http://www.w3.org/2000/svg" xmlns:xlink="http://www.w3.org/1999/xlink">
    <!-- Generator: Sketch 52.4 (67378) - http://www.bohemiancoding.com/sketch -->
    <title>digitalCapital</title>
    <desc>Created with Sketch.</desc>
    <defs>
        <path d="M19.76682,16.1549129 C26.9599624,16.1549129 32.4886512,17.9053455 36.3530522,21.4062632 C40.2174532,24.907181 42.1496247,29.7758706 42.1496247,36.0124781 C42.1496247,42.2490857 40.2748444,47.1847317 36.5252276,50.8195643 C32.7756108,54.454397 27.0364875,56.271786 19.3076855,56.271786 L5.99278628,56.271786 L5.99278628,16.1549129 L19.76682,16.1549129 Z M35.3199997,36.1846536 C35.3199997,27.0019185 30.0591366,22.4106199 19.5372527,22.4106199 L12.7650195,22.4106199 L12.7650195,49.9012954 L20.2833462,49.9012954 C25.1425435,49.9012954 28.8634085,48.7439056 31.4460527,46.4290911 C34.0286969,44.1142766 35.3199997,40.6994983 35.3199997,36.1846536 Z M56.3827928,56.271786 L49.9549104,56.271786 L49.9549104,25.7393447 L56.3827928,25.7393447 L56.3827928,56.271786 Z M50.3566531,19.6558131 C49.5531638,18.8523238 49.1514251,17.8958033 49.1514251,16.7862228 C49.1514251,15.6766423 49.5531638,14.7201217 50.3566531,13.9166324 C51.1601424,13.1131431 52.116663,12.7114045 53.2262434,12.7114045 C54.3358239,12.7114045 55.2923445,13.1131431 56.0958338,13.9166324 C56.8993231,14.7201217 57.3010617,15.6766423 57.3010617,16.7862228 C57.3010617,17.8958033 56.8993231,18.8523238 56.0958338,19.6558131 C55.2923445,20.4593024 54.3358239,20.8610411 53.2262434,20.8610411 C52.116663,20.8610411 51.1601424,20.4593024 50.3566531,19.6558131 Z M93.9170346,25.7393447 L93.9170346,52.3691431 C93.9170346,57.764 92.4535582,61.8100819 89.5265614,64.5075103 C86.5995646,67.2049387 82.8404388,68.5536327 78.2490713,68.5536327 C73.6577038,68.5536327 69.5064046,67.1188519 65.7950492,64.2492472 L68.8368149,59.3709436 C71.8212038,61.6283659 74.8342436,62.7570602 77.8760245,62.7570602 C80.9178055,62.7570602 83.3282373,61.9727133 85.1073922,60.4039961 C86.8865471,58.8352789 87.7761113,56.329195 87.7761113,52.8856694 L87.7761113,48.9830265 C86.8195764,50.7813121 85.451752,52.2160929 83.6725971,53.287412 C81.8934421,54.3587311 79.8943142,54.8943826 77.6751532,54.8943826 C73.6194452,54.8943826 70.2907537,53.4787322 67.6889788,50.6473889 C65.0872039,47.8160456 63.7863359,44.29605 63.7863359,40.0872964 C63.7863359,35.8785429 65.0872039,32.3585472 67.6889788,29.5272039 C70.2907537,26.6958606 73.60988,25.2802102 77.6464573,25.2802102 C81.6830346,25.2802102 84.9639001,26.944556 87.4891522,30.2732974 L87.4891522,25.7393447 L93.9170346,25.7393447 Z M70.0994347,39.8577292 C70.0994347,42.3447199 70.8742163,44.4968912 72.4238029,46.3143075 C73.9733894,48.1317238 76.0586042,49.0404183 78.6795098,49.0404183 C81.3004155,49.0404183 83.4238911,48.1604194 85.0500004,46.4003952 C86.6761098,44.640371 87.4891522,42.4499389 87.4891522,39.8290333 C87.4891522,37.2081277 86.6665445,34.989 85.0213045,33.1715837 C83.3760645,31.3541674 81.2525889,30.4454729 78.6508139,30.4454729 C76.049039,30.4454729 73.9733894,31.382863 72.4238029,33.2576714 C70.8742163,35.1324798 70.0994347,37.3324771 70.0994347,39.8577292 Z M109.64239,56.271786 L103.214507,56.271786 L103.214507,25.7393447 L109.64239,25.7393447 L109.64239,56.271786 Z M103.61625,19.6558131 C102.812761,18.8523238 102.411022,17.8958033 102.411022,16.7862228 C102.411022,15.6766423 102.812761,14.7201217 103.61625,13.9166324 C104.419739,13.1131431 105.37626,12.7114045 106.48584,12.7114045 C107.595421,12.7114045 108.551941,13.1131431 109.355431,13.9166324 C110.15892,14.7201217 110.560659,15.6766423 110.560659,16.7862228 C110.560659,17.8958033 110.15892,18.8523238 109.355431,19.6558131 C108.551941,20.4593024 107.595421,20.8610411 106.48584,20.8610411 C105.37626,20.8610411 104.419739,20.4593024 103.61625,19.6558131 Z M126.859932,30.9046073 L126.859932,46.4003952 C126.859932,47.8543282 127.24254,49.0117181 128.007768,49.8725995 C128.772996,50.7334809 129.844299,51.1639152 131.221709,51.1639152 C132.599119,51.1639152 133.919118,50.4943508 135.181744,49.1552019 L137.821767,53.6891547 C135.564345,55.7170087 133.067826,56.7309205 130.332136,56.7309205 C127.596446,56.7309205 125.262536,55.7839651 123.330336,53.890026 C121.398135,51.9960869 120.432049,49.442177 120.432049,46.2282198 L120.432049,30.9046073 L116.586798,30.9046073 L116.586798,25.7393447 L120.432049,25.7393447 L120.432049,16.1549129 L126.859932,16.1549129 L126.859932,25.7393447 L134.894785,25.7393447 L134.894785,30.9046073 L126.859932,30.9046073 Z M167.665507,56.271786 L161.811542,56.271786 L161.811542,52.1969677 C159.28629,55.219618 155.900207,56.7309205 151.653192,56.7309205 C148.477497,56.7309205 145.847065,55.8317911 143.761819,54.0335055 C141.676573,52.2352199 140.633966,49.8343533 140.633966,46.8308337 C140.633966,43.8273142 141.743529,41.5794909 143.96269,40.0872964 C146.181851,38.595102 149.185326,37.849016 152.973204,37.849016 L161.295016,37.849016 L161.295016,36.7011798 C161.295016,32.6454718 159.037628,30.6176483 154.522783,30.6176483 C151.691439,30.6176483 148.745356,31.6506905 145.684445,33.7168058 L142.814854,29.6993794 C146.52621,26.7532519 150.7349,25.2802102 155.441052,25.2802102 C159.037623,25.2802102 161.974141,26.1889047 164.250694,28.0063211 C166.527247,29.8237374 167.665507,32.6837338 167.665507,36.5863962 L167.665507,56.271786 Z M161.237624,44.9082082 L161.237624,42.3255769 L154.006257,42.3255769 C149.376628,42.3255769 147.061848,43.7794881 147.061848,46.6873542 C147.061848,48.1795487 147.63576,49.3178081 148.783602,50.1021667 C149.931444,50.8865254 151.528833,51.2786988 153.575818,51.2786988 C155.622803,51.2786988 157.411496,50.7047865 158.941952,49.5569446 C160.472408,48.4091027 161.237624,46.8595394 161.237624,44.9082082 Z M183.046511,56.271786 L176.618628,56.271786 L176.618628,13.6870652 L183.046511,13.6870652 L183.046511,56.271786 Z M227.295594,50.1308627 C229.629539,50.1308627 231.638232,49.7386892 233.321734,48.9543306 C235.005235,48.169972 236.765233,46.9169301 238.60178,45.1951672 L242.963557,49.6717282 C238.716542,54.3778799 233.560897,56.7309205 227.496465,56.7309205 C221.432034,56.7309205 216.400736,54.7796185 212.40242,50.8769561 C208.404104,46.9742938 206.404976,42.0386477 206.404976,36.0698699 C206.404976,30.1010922 208.442365,25.1271853 212.517204,21.1480001 C216.592042,17.1688149 221.738123,15.1792522 227.9556,15.1792522 C234.173077,15.1792522 239.366983,17.4749015 243.537475,22.066269 L239.23309,26.7723972 C237.32002,24.9358502 235.512196,23.6541127 233.809564,22.9271461 C232.106932,22.2001796 230.107804,21.8367018 227.81212,21.8367018 C223.756412,21.8367018 220.351199,23.147135 217.596379,25.7680406 C214.841558,28.3889462 213.464169,31.7367681 213.464169,35.8116068 C213.464169,39.8864455 214.831993,43.2916586 217.567683,46.0273485 C220.303373,48.7630383 223.545977,50.1308627 227.295594,50.1308627 Z M275.045577,56.271786 L269.191613,56.271786 L269.191613,52.1969677 C266.666361,55.219618 263.280278,56.7309205 259.033263,56.7309205 C255.857567,56.7309205 253.227136,55.8317911 251.14189,54.0335055 C249.056644,52.2352199 248.014036,49.8343533 248.014036,46.8308337 C248.014036,43.8273142 249.1236,41.5794909 251.342761,40.0872964 C253.561922,38.595102 256.565397,37.849016 260.353275,37.849016 L268.675087,37.849016 L268.675087,36.7011798 C268.675087,32.6454718 266.417698,30.6176483 261.902854,30.6176483 C259.07151,30.6176483 256.125427,31.6506905 253.064515,33.7168058 L250.194925,29.6993794 C253.90628,26.7532519 258.114971,25.2802102 262.821123,25.2802102 C266.417694,25.2802102 269.354212,26.1889047 271.630765,28.0063211 C273.907318,29.8237374 275.045577,32.6837338 275.045577,36.5863962 L275.045577,56.271786 Z M268.617695,44.9082082 L268.617695,42.3255769 L261.386327,42.3255769 C256.756699,42.3255769 254.441919,43.7794881 254.441919,46.6873542 C254.441919,48.1795487 255.015831,49.3178081 256.163673,50.1021667 C257.311515,50.8865254 258.908904,51.2786988 260.955889,51.2786988 C263.002874,51.2786988 264.791567,50.7047865 266.322023,49.5569446 C267.852479,48.4091027 268.617695,46.8595394 268.617695,44.9082082 Z M300.355364,25.2802102 C304.449334,25.2802102 307.950199,26.6958606 310.858065,29.5272039 C313.765931,32.3585472 315.219842,36.1272382 315.219842,40.8333899 C315.219842,45.5395416 313.775496,49.3656238 310.886761,52.3117513 C307.998026,55.2578788 304.631073,56.7309205 300.785803,56.7309205 C296.940533,56.7309205 293.487493,55.0474443 290.426582,51.6804414 L290.426582,67.4057966 L283.998699,67.4057966 L283.998699,25.7393447 L290.426582,25.7393447 L290.426582,31.0767827 C292.951834,27.2123817 296.261395,25.2802102 300.355364,25.2802102 Z M290.311798,41.0629571 C290.311798,43.9708232 291.191797,46.3525594 292.951821,48.2082371 C294.711845,50.0639148 296.854452,50.9917398 299.379704,50.9917398 C301.904956,50.9917398 304.104953,50.07348 305.979761,48.236933 C307.85457,46.400386 308.79196,44.0186498 308.79196,41.091653 C308.79196,38.1646563 307.8737,35.7350941 306.037153,33.8028936 C304.200606,31.8706931 302.000609,30.9046073 299.437095,30.9046073 C296.873582,30.9046073 294.711845,31.8706931 292.951821,33.8028936 C291.191797,35.7350941 290.311798,38.1550911 290.311798,41.0629571 Z M328.993876,56.271786 L322.565994,56.271786 L322.565994,25.7393447 L328.993876,25.7393447 L328.993876,56.271786 Z M322.967736,19.6558131 C322.164247,18.8523238 321.762508,17.8958033 321.762508,16.7862228 C321.762508,15.6766423 322.164247,14.7201217 322.967736,13.9166324 C323.771226,13.1131431 324.727746,12.7114045 325.837327,12.7114045 C326.946907,12.7114045 327.903428,13.1131431 328.706917,13.9166324 C329.510406,14.7201217 329.912145,15.6766423 329.912145,16.7862228 C329.912145,17.8958033 329.510406,18.8523238 328.706917,19.6558131 C327.903428,20.4593024 326.946907,20.8610411 325.837327,20.8610411 C324.727746,20.8610411 323.771226,20.4593024 322.967736,19.6558131 Z M346.211418,30.9046073 L346.211418,46.4003952 C346.211418,47.8543282 346.594026,49.0117181 347.359254,49.8725995 C348.124482,50.7334809 349.195785,51.1639152 350.573196,51.1639152 C351.950606,51.1639152 353.270604,50.4943508 354.53323,49.1552019 L357.173253,53.6891547 C354.915831,55.7170087 352.419312,56.7309205 349.683622,56.7309205 C346.947933,56.7309205 344.614023,55.7839651 342.681822,53.890026 C340.749622,51.9960869 339.783536,49.442177 339.783536,46.2282198 L339.783536,30.9046073 L335.938285,30.9046073 L335.938285,25.7393447 L339.783536,25.7393447 L339.783536,16.1549129 L346.211418,16.1549129 L346.211418,25.7393447 L354.246271,25.7393447 L354.246271,30.9046073 L346.211418,30.9046073 Z M387.016993,56.271786 L381.163029,56.271786 L381.163029,52.1969677 C378.637777,55.219618 375.251694,56.7309205 371.004679,56.7309205 C367.828983,56.7309205 365.198551,55.8317911 363.113305,54.0335055 C361.028059,52.2352199 359.985452,49.8343533 359.985452,46.8308337 C359.985452,43.8273142 361.095016,41.5794909 363.314177,40.0872964 C365.533338,38.595102 368.536812,37.849016 372.32469,37.849016 L380.646502,37.849016 L380.646502,36.7011798 C380.646502,32.6454718 378.389114,30.6176483 373.874269,30.6176483 C371.042926,30.6176483 368.096843,31.6506905 365.035931,33.7168058 L362.166341,29.6993794 C365.877696,26.7532519 370.086386,25.2802102 374.792538,25.2802102 C378.389109,25.2802102 381.325627,26.1889047 383.60218,28.0063211 C385.878733,29.8237374 387.016993,32.6837338 387.016993,36.5863962 L387.016993,56.271786 Z M380.589111,44.9082082 L380.589111,42.3255769 L373.357743,42.3255769 C368.728114,42.3255769 366.413334,43.7794881 366.413334,46.6873542 C366.413334,48.1795487 366.987247,49.3178081 368.135088,50.1021667 C369.28293,50.8865254 370.88032,51.2786988 372.927304,51.2786988 C374.974289,51.2786988 376.762982,50.7047865 378.293438,49.5569446 C379.823894,48.4091027 380.589111,46.8595394 380.589111,44.9082082 Z M402.397997,56.271786 L395.970115,56.271786 L395.970115,13.6870652 L402.397997,13.6870652 L402.397997,56.271786 Z" id="path-1"></path>
    </defs>
    <g id="Page-1" stroke="none" stroke-width="1" fill="none" fill-rule="evenodd">
        <g id="digitalCapital">
            <g id="Digital-Capital" transform="translate(131.000000, 70.000000)">
                <g>
                    <use fill="#000000" xlink:href="#path-1"></use>
                    <use fill="#ECCC2B" xlink:href="#path-1"></use>
                </g>
            </g>
            <path d="M1.355,108.418 C1.195,109.215 1.035,110.012 1.035,110.969 C1.195,114.152 1.992,117.02 3.266,119.25 C3.266,120.047 3.266,120.844 3.266,121.48 C3.746,122.277 4.383,123.074 5.02,123.711 C7.09,126.422 9.797,128.809 12.664,130.879 C16.172,127.695 19.992,124.828 23.816,122.277 C31.781,117.02 40.227,112.719 48.508,107.941 C48.828,107.781 48.668,101.57 48.668,101.887 C48.668,96.949 48.668,92.012 48.668,87.074 C48.668,82.133 48.668,77.195 48.668,72.258 C48.668,72.574 48.352,66.203 48.508,66.203 C40.066,70.984 31.465,75.441 23.34,80.859 C15.535,86.117 8.047,92.328 3.426,100.773 C2.469,102.523 1.672,104.438 1.195,106.348 C1.035,107.621 0.879,108.898 0.879,110.172 C0.879,110.172 0.879,110.332 0.879,110.332 C1.035,109.215 1.355,108.258 1.672,107.305 C1.672,107.465 1.516,107.941 1.355,108.418 Z M5.02,123.711 C4.543,123.074 4.062,122.598 3.746,121.961 C4.223,122.598 4.699,123.074 5.02,123.711 Z" id="Fill-1" fill="#B2D57C" fill-rule="nonzero"></path>
            <path d="M67.785,157.484 C62.527,154.297 56.953,151.91 51.375,149.52 C51.695,149.68 51.535,155.891 51.535,155.574 C51.535,160.512 51.535,165.449 51.535,170.387 C51.535,175.328 51.535,180.266 51.535,185.203 C51.535,184.883 51.219,191.258 51.375,191.258 C56.793,193.645 62.367,195.719 67.309,198.902 C72.086,201.93 77.023,205.914 77.82,211.965 C77.98,214.039 77.98,208.301 77.98,209.578 C77.98,205.434 78.141,201.293 78.141,196.992 C78.141,188.391 78.617,179.785 77.98,171.184 C77.344,165.133 73.043,160.672 67.785,157.484 Z" id="Fill-2" fill="#3BA2BF"></path>
            <path d="M51.375,185.203 C51.375,180.266 51.375,175.328 51.375,170.387 C51.375,165.449 51.375,160.512 51.375,155.574 C51.375,155.891 51.535,149.68 51.219,149.52 C41.34,144.742 30.984,141.395 21.27,136.137 C18.559,134.703 15.535,132.953 12.664,130.879 C9.797,128.809 7.09,126.422 5.02,123.711 C4.383,123.074 3.902,122.277 3.266,121.48 C1.832,119.094 0.879,115.746 0.879,112.242 C0.879,111.766 0.879,111.445 0.879,110.969 C0.879,110.172 1.035,109.215 1.195,108.418 C1.355,107.941 1.516,107.465 1.516,106.984 C1.195,107.941 0.879,109.055 0.719,110.012 C0.559,110.969 0.398,111.922 0.398,112.879 C0.082,121.641 0.238,130.242 0.238,139.004 C0.238,144.102 0.082,149.199 0.398,154.297 C0.559,155.891 0.719,157.324 1.035,158.918 C2.949,165.133 8.047,169.75 13.305,173.414 C24.934,181.379 38.312,185.363 50.898,191.418 C51.219,191.258 51.375,184.883 51.375,185.203 Z" id="Fill-3" fill="#696B6C"></path>
            <path d="M108.727,104.438 C108.566,104.914 108.406,105.391 108.406,105.871 C108.566,105.391 108.566,104.914 108.727,104.438 C108.887,103.641 109.043,102.844 109.043,101.887 C108.887,98.703 108.09,95.836 106.812,93.605 C106.812,92.809 106.812,92.012 106.812,91.215 C106.336,90.418 105.699,89.621 105.223,88.984 C105.699,89.621 106.02,90.098 106.496,90.734 C106.176,90.098 105.699,89.621 105.223,88.984 C103.148,86.277 100.441,83.887 97.574,81.816 C94.07,85 90.246,87.867 86.422,90.418 C78.457,95.676 70.016,99.977 61.73,104.754 C61.414,104.914 61.57,111.129 61.57,110.809 C61.57,115.746 61.57,120.684 61.57,125.625 C61.57,130.562 61.57,135.5 61.57,140.438 C61.57,140.121 61.891,146.492 61.73,146.492 C70.176,141.715 78.777,137.254 86.902,131.836 C94.707,126.578 102.195,120.367 106.812,111.922 C107.77,110.172 108.566,108.258 109.043,106.348 C109.203,105.074 109.363,103.801 109.363,102.523 C109.363,102.523 109.363,102.367 109.363,102.367 C109.043,103.32 108.887,103.957 108.727,104.438 Z" id="Fill-4" fill="#A0D339"></path>
            <path d="M58.703,57.281 C58.703,52.344 58.703,47.406 58.703,42.469 C58.703,37.527 58.703,32.59 58.703,27.652 C58.703,27.969 59.023,21.598 58.863,21.598 C53.449,19.207 47.871,17.137 42.773,13.953 C37.996,10.926 33.055,6.941 32.262,0.891 C32.102,-1.184 32.102,4.555 32.102,3.277 C32.102,7.422 31.941,11.562 31.941,15.863 C31.941,24.465 31.465,33.07 32.102,41.672 C32.578,48.043 37.039,52.344 42.137,55.691 C47.395,58.875 52.969,61.266 58.547,63.656 C58.547,63.176 58.703,56.965 58.703,57.281 Z" id="Fill-5" fill="#3BA2BF"></path>
            <path d="M109.523,73.852 C109.523,68.754 109.684,63.656 109.363,58.559 C109.203,56.965 109.043,55.531 108.727,53.938 C106.812,47.723 101.715,43.105 96.461,39.441 C84.832,31.477 71.449,27.492 58.863,21.438 C59.023,21.438 58.703,27.969 58.703,27.492 C58.703,32.43 58.703,37.371 58.703,42.309 C58.703,47.246 58.703,52.184 58.703,57.125 C58.703,56.805 58.547,63.016 58.863,63.176 C68.742,67.957 79.094,71.301 88.812,76.559 C91.52,77.992 94.547,79.746 97.414,81.816 C100.281,83.887 102.992,86.277 105.062,88.984 C105.699,89.621 106.176,90.418 106.656,91.215 C108.09,93.605 109.043,96.949 109.043,100.453 C109.043,100.934 109.043,101.25 109.043,101.727 C109.043,102.523 108.887,103.48 108.727,104.277 C108.887,103.801 109.043,103.16 109.043,102.523 C109.203,101.57 109.363,100.613 109.363,99.656 C109.684,91.215 109.523,82.453 109.523,73.852 Z" id="Fill-6" fill="#696B6C"></path>
            <path d="M108.727,104.438 C108.566,104.914 108.406,105.391 108.406,105.871 C108.566,105.391 108.566,104.914 108.727,104.438 Z" id="Fill-7" fill="#696B6C"></path>
        </g>
    </g>
</svg>