<?xml version="1.0" encoding="UTF-8"?>
<svg width="534px" height="213px" viewBox="0 0 534 213" version="1.1" xmlns="http://www.w3.org/2000/svg" xmlns:xlink="http://www.w3.org/1999/xlink">
    <!-- Generator: Sketch 52.4 (67378) - http://www.bohemiancoding.com/sketch -->
    <title>digitalCapital</title>
    <desc>Created with Sketch.</desc>
    <g id="Page-1" stroke="none" stroke-width="1" fill="none" fill-rule="evenodd">
        <g id="digitalCapital">
            <g id="Digital-Capital" transform="translate(136.000000, 82.000000)" fill="#ECCC2B" fill-rule="nonzero">
                <path d="M14.76682,4.1549129 C21.9599624,4.1549129 27.4886512,5.9053455 31.3530522,9.4062632 C35.2174532,12.907181 37.1496247,17.7758706 37.1496247,24.0124781 C37.1496247,30.2490857 35.2748444,35.1847317 31.5252276,38.8195643 C27.7756108,42.454397 22.0364875,44.271786 14.3076855,44.271786 L0.99278628,44.271786 L0.99278628,4.1549129 L14.76682,4.1549129 Z M30.3199997,24.1846536 C30.3199997,15.0019185 25.0591366,10.4106199 14.5372527,10.4106199 L7.7650195,10.4106199 L7.7650195,37.9012954 L15.2833462,37.9012954 C20.1425435,37.9012954 23.8634085,36.7439056 26.4460527,34.4290911 C29.0286969,32.1142766 30.3199997,28.6994983 30.3199997,24.1846536 Z M51.3827928,44.271786 L44.9549104,44.271786 L44.9549104,13.7393447 L51.3827928,13.7393447 L51.3827928,44.271786 Z M45.3566531,7.6558131 C44.5531638,6.8523238 44.1514251,5.8958033 44.1514251,4.7862228 C44.1514251,3.6766423 44.5531638,2.7201217 45.3566531,1.9166324 C46.1601424,1.1131431 47.116663,0.7114045 48.2262434,0.7114045 C49.3358239,0.7114045 50.2923445,1.1131431 51.0958338,1.9166324 C51.8993231,2.7201217 52.3010617,3.6766423 52.3010617,4.7862228 C52.3010617,5.8958033 51.8993231,6.8523238 51.0958338,7.6558131 C50.2923445,8.4593024 49.3358239,8.8610411 48.2262434,8.8610411 C47.116663,8.8610411 46.1601424,8.4593024 45.3566531,7.6558131 Z M88.9170346,13.7393447 L88.9170346,40.3691431 C88.9170346,45.764 87.4535582,49.8100819 84.5265614,52.5075103 C81.5995646,55.2049387 77.8404388,56.5536327 73.2490713,56.5536327 C68.6577038,56.5536327 64.5064046,55.1188519 60.7950492,52.2492472 L63.8368149,47.3709436 C66.8212038,49.6283659 69.8342436,50.7570602 72.8760245,50.7570602 C75.9178055,50.7570602 78.3282373,49.9727133 80.1073922,48.4039961 C81.8865471,46.8352789 82.7761113,44.329195 82.7761113,40.8856694 L82.7761113,36.9830265 C81.8195764,38.7813121 80.451752,40.2160929 78.6725971,41.287412 C76.8934421,42.3587311 74.8943142,42.8943826 72.6751532,42.8943826 C68.6194452,42.8943826 65.2907537,41.4787322 62.6889788,38.6473889 C60.0872039,35.8160456 58.7863359,32.29605 58.7863359,28.0872964 C58.7863359,23.8785429 60.0872039,20.3585472 62.6889788,17.5272039 C65.2907537,14.6958606 68.60988,13.2802102 72.6464573,13.2802102 C76.6830346,13.2802102 79.9639001,14.944556 82.4891522,18.2732974 L82.4891522,13.7393447 L88.9170346,13.7393447 Z M65.0994347,27.8577292 C65.0994347,30.3447199 65.8742163,32.4968912 67.4238029,34.3143075 C68.9733894,36.1317238 71.0586042,37.0404183 73.6795098,37.0404183 C76.3004155,37.0404183 78.4238911,36.1604194 80.0500004,34.4003952 C81.6761098,32.640371 82.4891522,30.4499389 82.4891522,27.8290333 C82.4891522,25.2081277 81.6665445,22.989 80.0213045,21.1715837 C78.3760645,19.3541674 76.2525889,18.4454729 73.6508139,18.4454729 C71.049039,18.4454729 68.9733894,19.382863 67.4238029,21.2576714 C65.8742163,23.1324798 65.0994347,25.3324771 65.0994347,27.8577292 Z M104.64239,44.271786 L98.214507,44.271786 L98.214507,13.7393447 L104.64239,13.7393447 L104.64239,44.271786 Z M98.61625,7.6558131 C97.812761,6.8523238 97.411022,5.8958033 97.411022,4.7862228 C97.411022,3.6766423 97.812761,2.7201217 98.61625,1.9166324 C99.419739,1.1131431 100.37626,0.7114045 101.48584,0.7114045 C102.595421,0.7114045 103.551941,1.1131431 104.355431,1.9166324 C105.15892,2.7201217 105.560659,3.6766423 105.560659,4.7862228 C105.560659,5.8958033 105.15892,6.8523238 104.355431,7.6558131 C103.551941,8.4593024 102.595421,8.8610411 101.48584,8.8610411 C100.37626,8.8610411 99.419739,8.4593024 98.61625,7.6558131 Z M121.859932,18.9046073 L121.859932,34.4003952 C121.859932,35.8543282 122.24254,37.0117181 123.007768,37.8725995 C123.772996,38.7334809 124.844299,39.1639152 126.221709,39.1639152 C127.599119,39.1639152 128.919118,38.4943508 130.181744,37.1552019 L132.821767,41.6891547 C130.564345,43.7170087 128.067826,44.7309205 125.332136,44.7309205 C122.596446,44.7309205 120.262536,43.7839651 118.330336,41.890026 C116.398135,39.9960869 115.432049,37.442177 115.432049,34.2282198 L115.432049,18.9046073 L111.586798,18.9046073 L111.586798,13.7393447 L115.432049,13.7393447 L115.432049,4.1549129 L121.859932,4.1549129 L121.859932,13.7393447 L129.894785,13.7393447 L129.894785,18.9046073 L121.859932,18.9046073 Z M162.665507,44.271786 L156.811542,44.271786 L156.811542,40.1969677 C154.28629,43.219618 150.900207,44.7309205 146.653192,44.7309205 C143.477497,44.7309205 140.847065,43.8317911 138.761819,42.0335055 C136.676573,40.2352199 135.633966,37.8343533 135.633966,34.8308337 C135.633966,31.8273142 136.743529,29.5794909 138.96269,28.0872964 C141.181851,26.595102 144.185326,25.849016 147.973204,25.849016 L156.295016,25.849016 L156.295016,24.7011798 C156.295016,20.6454718 154.037628,18.6176483 149.522783,18.6176483 C146.691439,18.6176483 143.745356,19.6506905 140.684445,21.7168058 L137.814854,17.6993794 C141.52621,14.7532519 145.7349,13.2802102 150.441052,13.2802102 C154.037623,13.2802102 156.974141,14.1889047 159.250694,16.0063211 C161.527247,17.8237374 162.665507,20.6837338 162.665507,24.5863962 L162.665507,44.271786 Z M156.237624,32.9082082 L156.237624,30.3255769 L149.006257,30.3255769 C144.376628,30.3255769 142.061848,31.7794881 142.061848,34.6873542 C142.061848,36.1795487 142.63576,37.3178081 143.783602,38.1021667 C144.931444,38.8865254 146.528833,39.2786988 148.575818,39.2786988 C150.622803,39.2786988 152.411496,38.7047865 153.941952,37.5569446 C155.472408,36.4091027 156.237624,34.8595394 156.237624,32.9082082 Z M178.046511,44.271786 L171.618628,44.271786 L171.618628,1.6870652 L178.046511,1.6870652 L178.046511,44.271786 Z M222.295594,38.1308627 C224.629539,38.1308627 226.638232,37.7386892 228.321734,36.9543306 C230.005235,36.169972 231.765233,34.9169301 233.60178,33.1951672 L237.963557,37.6717282 C233.716542,42.3778799 228.560897,44.7309205 222.496465,44.7309205 C216.432034,44.7309205 211.400736,42.7796185 207.40242,38.8769561 C203.404104,34.9742938 201.404976,30.0386477 201.404976,24.0698699 C201.404976,18.1010922 203.442365,13.1271853 207.517204,9.1480001 C211.592042,5.1688149 216.738123,3.1792522 222.9556,3.1792522 C229.173077,3.1792522 234.366983,5.4749015 238.537475,10.066269 L234.23309,14.7723972 C232.32002,12.9358502 230.512196,11.6541127 228.809564,10.9271461 C227.106932,10.2001796 225.107804,9.8367018 222.81212,9.8367018 C218.756412,9.8367018 215.351199,11.147135 212.596379,13.7680406 C209.841558,16.3889462 208.464169,19.7367681 208.464169,23.8116068 C208.464169,27.8864455 209.831993,31.2916586 212.567683,34.0273485 C215.303373,36.7630383 218.545977,38.1308627 222.295594,38.1308627 Z M270.045577,44.271786 L264.191613,44.271786 L264.191613,40.1969677 C261.666361,43.219618 258.280278,44.7309205 254.033263,44.7309205 C250.857567,44.7309205 248.227136,43.8317911 246.14189,42.0335055 C244.056644,40.2352199 243.014036,37.8343533 243.014036,34.8308337 C243.014036,31.8273142 244.1236,29.5794909 246.342761,28.0872964 C248.561922,26.595102 251.565397,25.849016 255.353275,25.849016 L263.675087,25.849016 L263.675087,24.7011798 C263.675087,20.6454718 261.417698,18.6176483 256.902854,18.6176483 C254.07151,18.6176483 251.125427,19.6506905 248.064515,21.7168058 L245.194925,17.6993794 C248.90628,14.7532519 253.114971,13.2802102 257.821123,13.2802102 C261.417694,13.2802102 264.354212,14.1889047 266.630765,16.0063211 C268.907318,17.8237374 270.045577,20.6837338 270.045577,24.5863962 L270.045577,44.271786 Z M263.617695,32.9082082 L263.617695,30.3255769 L256.386327,30.3255769 C251.756699,30.3255769 249.441919,31.7794881 249.441919,34.6873542 C249.441919,36.1795487 250.015831,37.3178081 251.163673,38.1021667 C252.311515,38.8865254 253.908904,39.2786988 255.955889,39.2786988 C258.002874,39.2786988 259.791567,38.7047865 261.322023,37.5569446 C262.852479,36.4091027 263.617695,34.8595394 263.617695,32.9082082 Z M295.355364,13.2802102 C299.449334,13.2802102 302.950199,14.6958606 305.858065,17.5272039 C308.765931,20.3585472 310.219842,24.1272382 310.219842,28.8333899 C310.219842,33.5395416 308.775496,37.3656238 305.886761,40.3117513 C302.998026,43.2578788 299.631073,44.7309205 295.785803,44.7309205 C291.940533,44.7309205 288.487493,43.0474443 285.426582,39.6804414 L285.426582,55.4057966 L278.998699,55.4057966 L278.998699,13.7393447 L285.426582,13.7393447 L285.426582,19.0767827 C287.951834,15.2123817 291.261395,13.2802102 295.355364,13.2802102 Z M285.311798,29.0629571 C285.311798,31.9708232 286.191797,34.3525594 287.951821,36.2082371 C289.711845,38.0639148 291.854452,38.9917398 294.379704,38.9917398 C296.904956,38.9917398 299.104953,38.07348 300.979761,36.236933 C302.85457,34.400386 303.79196,32.0186498 303.79196,29.091653 C303.79196,26.1646563 302.8737,23.7350941 301.037153,21.8028936 C299.200606,19.8706931 297.000609,18.9046073 294.437095,18.9046073 C291.873582,18.9046073 289.711845,19.8706931 287.951821,21.8028936 C286.191797,23.7350941 285.311798,26.1550911 285.311798,29.0629571 Z M323.993876,44.271786 L317.565994,44.271786 L317.565994,13.7393447 L323.993876,13.7393447 L323.993876,44.271786 Z M317.967736,7.6558131 C317.164247,6.8523238 316.762508,5.8958033 316.762508,4.7862228 C316.762508,3.6766423 317.164247,2.7201217 317.967736,1.9166324 C318.771226,1.1131431 319.727746,0.7114045 320.837327,0.7114045 C321.946907,0.7114045 322.903428,1.1131431 323.706917,1.9166324 C324.510406,2.7201217 324.912145,3.6766423 324.912145,4.7862228 C324.912145,5.8958033 324.510406,6.8523238 323.706917,7.6558131 C322.903428,8.4593024 321.946907,8.8610411 320.837327,8.8610411 C319.727746,8.8610411 318.771226,8.4593024 317.967736,7.6558131 Z M341.211418,18.9046073 L341.211418,34.4003952 C341.211418,35.8543282 341.594026,37.0117181 342.359254,37.8725995 C343.124482,38.7334809 344.195785,39.1639152 345.573196,39.1639152 C346.950606,39.1639152 348.270604,38.4943508 349.53323,37.1552019 L352.173253,41.6891547 C349.915831,43.7170087 347.419312,44.7309205 344.683622,44.7309205 C341.947933,44.7309205 339.614023,43.7839651 337.681822,41.890026 C335.749622,39.9960869 334.783536,37.442177 334.783536,34.2282198 L334.783536,18.9046073 L330.938285,18.9046073 L330.938285,13.7393447 L334.783536,13.7393447 L334.783536,4.1549129 L341.211418,4.1549129 L341.211418,13.7393447 L349.246271,13.7393447 L349.246271,18.9046073 L341.211418,18.9046073 Z M382.016993,44.271786 L376.163029,44.271786 L376.163029,40.1969677 C373.637777,43.219618 370.251694,44.7309205 366.004679,44.7309205 C362.828983,44.7309205 360.198551,43.8317911 358.113305,42.0335055 C356.028059,40.2352199 354.985452,37.8343533 354.985452,34.8308337 C354.985452,31.8273142 356.095016,29.5794909 358.314177,28.0872964 C360.533338,26.595102 363.536812,25.849016 367.32469,25.849016 L375.646502,25.849016 L375.646502,24.7011798 C375.646502,20.6454718 373.389114,18.6176483 368.874269,18.6176483 C366.042926,18.6176483 363.096843,19.6506905 360.035931,21.7168058 L357.166341,17.6993794 C360.877696,14.7532519 365.086386,13.2802102 369.792538,13.2802102 C373.389109,13.2802102 376.325627,14.1889047 378.60218,16.0063211 C380.878733,17.8237374 382.016993,20.6837338 382.016993,24.5863962 L382.016993,44.271786 Z M375.589111,32.9082082 L375.589111,30.3255769 L368.357743,30.3255769 C363.728114,30.3255769 361.413334,31.7794881 361.413334,34.6873542 C361.413334,36.1795487 361.987247,37.3178081 363.135088,38.1021667 C364.28293,38.8865254 365.88032,39.2786988 367.927304,39.2786988 C369.974289,39.2786988 371.762982,38.7047865 373.293438,37.5569446 C374.823894,36.4091027 375.589111,34.8595394 375.589111,32.9082082 Z M397.397997,44.271786 L390.970115,44.271786 L390.970115,1.6870652 L397.397997,1.6870652 L397.397997,44.271786 Z" id="path-1"></path>
            </g>
            <path d="M1.355,108.418 C1.195,109.215 1.035,110.012 1.035,110.969 C1.195,114.152 1.992,117.02 3.266,119.25 C3.266,120.047 3.266,120.844 3.266,121.48 C3.746,122.277 4.383,123.074 5.02,123.711 C7.09,126.422 9.797,128.809 12.664,130.879 C16.172,127.695 19.992,124.828 23.816,122.277 C31.781,117.02 40.227,112.719 48.508,107.941 C48.828,107.781 48.668,101.57 48.668,101.887 C48.668,96.949 48.668,92.012 48.668,87.074 C48.668,82.133 48.668,77.195 48.668,72.258 C48.668,72.574 48.352,66.203 48.508,66.203 C40.066,70.984 31.465,75.441 23.34,80.859 C15.535,86.117 8.047,92.328 3.426,100.773 C2.469,102.523 1.672,104.438 1.195,106.348 C1.035,107.621 0.879,108.898 0.879,110.172 C0.879,110.172 0.879,110.332 0.879,110.332 C1.035,109.215 1.355,108.258 1.672,107.305 C1.672,107.465 1.516,107.941 1.355,108.418 Z M5.02,123.711 C4.543,123.074 4.062,122.598 3.746,121.961 C4.223,122.598 4.699,123.074 5.02,123.711 Z" id="Fill-1" fill="#B2D57C" fill-rule="nonzero"></path>
            <path d="M67.785,157.484 C62.527,154.297 56.953,151.91 51.375,149.52 C51.695,149.68 51.535,155.891 51.535,155.574 C51.535,160.512 51.535,165.449 51.535,170.387 C51.535,175.328 51.535,180.266 51.535,185.203 C51.535,184.883 51.219,191.258 51.375,191.258 C56.793,193.645 62.367,195.719 67.309,198.902 C72.086,201.93 77.023,205.914 77.82,211.965 C77.98,214.039 77.98,208.301 77.98,209.578 C77.98,205.434 78.141,201.293 78.141,196.992 C78.141,188.391 78.617,179.785 77.98,171.184 C77.344,165.133 73.043,160.672 67.785,157.484 Z" id="Fill-2" fill="#3BA2BF"></path>
            <path d="M51.375,185.203 C51.375,180.266 51.375,175.328 51.375,170.387 C51.375,165.449 51.375,160.512 51.375,155.574 C51.375,155.891 51.535,149.68 51.219,149.52 C41.34,144.742 30.984,141.395 21.27,136.137 C18.559,134.703 15.535,132.953 12.664,130.879 C9.797,128.809 7.09,126.422 5.02,123.711 C4.383,123.074 3.902,122.277 3.266,121.48 C1.832,119.094 0.879,115.746 0.879,112.242 C0.879,111.766 0.879,111.445 0.879,110.969 C0.879,110.172 1.035,109.215 1.195,108.418 C1.355,107.941 1.516,107.465 1.516,106.984 C1.195,107.941 0.879,109.055 0.719,110.012 C0.559,110.969 0.398,111.922 0.398,112.879 C0.082,121.641 0.238,130.242 0.238,139.004 C0.238,144.102 0.082,149.199 0.398,154.297 C0.559,155.891 0.719,157.324 1.035,158.918 C2.949,165.133 8.047,169.75 13.305,173.414 C24.934,181.379 38.312,185.363 50.898,191.418 C51.219,191.258 51.375,184.883 51.375,185.203 Z" id="Fill-3" fill="#696B6C"></path>
            <path d="M108.727,104.438 C108.566,104.914 108.406,105.391 108.406,105.871 C108.566,105.391 108.566,104.914 108.727,104.438 C108.887,103.641 109.043,102.844 109.043,101.887 C108.887,98.703 108.09,95.836 106.812,93.605 C106.812,92.809 106.812,92.012 106.812,91.215 C106.336,90.418 105.699,89.621 105.223,88.984 C105.699,89.621 106.02,90.098 106.496,90.734 C106.176,90.098 105.699,89.621 105.223,88.984 C103.148,86.277 100.441,83.887 97.574,81.816 C94.07,85 90.246,87.867 86.422,90.418 C78.457,95.676 70.016,99.977 61.73,104.754 C61.414,104.914 61.57,111.129 61.57,110.809 C61.57,115.746 61.57,120.684 61.57,125.625 C61.57,130.562 61.57,135.5 61.57,140.438 C61.57,140.121 61.891,146.492 61.73,146.492 C70.176,141.715 78.777,137.254 86.902,131.836 C94.707,126.578 102.195,120.367 106.812,111.922 C107.77,110.172 108.566,108.258 109.043,106.348 C109.203,105.074 109.363,103.801 109.363,102.523 C109.363,102.523 109.363,102.367 109.363,102.367 C109.043,103.32 108.887,103.957 108.727,104.438 Z" id="Fill-4" fill="#A0D339"></path>
            <path d="M58.703,57.281 C58.703,52.344 58.703,47.406 58.703,42.469 C58.703,37.527 58.703,32.59 58.703,27.652 C58.703,27.969 59.023,21.598 58.863,21.598 C53.449,19.207 47.871,17.137 42.773,13.953 C37.996,10.926 33.055,6.941 32.262,0.891 C32.102,-1.184 32.102,4.555 32.102,3.277 C32.102,7.422 31.941,11.562 31.941,15.863 C31.941,24.465 31.465,33.07 32.102,41.672 C32.578,48.043 37.039,52.344 42.137,55.691 C47.395,58.875 52.969,61.266 58.547,63.656 C58.547,63.176 58.703,56.965 58.703,57.281 Z" id="Fill-5" fill="#3BA2BF"></path>
            <path d="M109.523,73.852 C109.523,68.754 109.684,63.656 109.363,58.559 C109.203,56.965 109.043,55.531 108.727,53.938 C106.812,47.723 101.715,43.105 96.461,39.441 C84.832,31.477 71.449,27.492 58.863,21.438 C59.023,21.438 58.703,27.969 58.703,27.492 C58.703,32.43 58.703,37.371 58.703,42.309 C58.703,47.246 58.703,52.184 58.703,57.125 C58.703,56.805 58.547,63.016 58.863,63.176 C68.742,67.957 79.094,71.301 88.812,76.559 C91.52,77.992 94.547,79.746 97.414,81.816 C100.281,83.887 102.992,86.277 105.062,88.984 C105.699,89.621 106.176,90.418 106.656,91.215 C108.09,93.605 109.043,96.949 109.043,100.453 C109.043,100.934 109.043,101.25 109.043,101.727 C109.043,102.523 108.887,103.48 108.727,104.277 C108.887,103.801 109.043,103.16 109.043,102.523 C109.203,101.57 109.363,100.613 109.363,99.656 C109.684,91.215 109.523,82.453 109.523,73.852 Z" id="Fill-6" fill="#696B6C"></path>
            <path d="M108.727,104.438 C108.566,104.914 108.406,105.391 108.406,105.871 C108.566,105.391 108.566,104.914 108.727,104.438 Z" id="Fill-7" fill="#696B6C"></path>
        </g>
    </g>
</svg>