<?xml version="1.0" encoding="UTF-8"?>
<svg width="327px" height="336px" viewBox="0 0 327 336" version="1.1" xmlns="http://www.w3.org/2000/svg" xmlns:xlink="http://www.w3.org/1999/xlink">
    <!-- Generator: Sketch 50.2 (55047) - http://www.bohemiancoding.com/sketch -->
    <title>DPP_logo_ver_1811</title>
    <desc>Created with Sketch.</desc>
    <defs>
        <linearGradient x1="25.7441312%" y1="66.8839312%" x2="94.1421213%" y2="9.97370624%" id="linearGradient-1">
            <stop stop-color="#C41983" offset="0%"></stop>
            <stop stop-color="#B91D83" offset="5.26%"></stop>
            <stop stop-color="#8F2681" offset="26.77%"></stop>
            <stop stop-color="#772980" offset="42.65%"></stop>
            <stop stop-color="#6D2A80" offset="51.08%"></stop>
            <stop stop-color="#372E7C" offset="100%"></stop>
        </linearGradient>
    </defs>
    <g id="Page-1" stroke="none" stroke-width="1" fill="none" fill-rule="evenodd">
        <g id="DPP_logo_ver_1811" fill-rule="nonzero">
            <path d="M181.818,213.367 L87.734,213.367 C84.054,213.367 81.07,210.384 81.07,206.703 C81.07,203.022 84.054,200.039 87.734,200.039 L181.818,200.039 C244.097,200.039 277.017,167.794 277.017,106.788 C277.017,78.92 268.912,14.097 193.818,14.097 L84.402,14.097 C80.722,14.097 77.738,11.114 77.738,7.433 C77.738,3.752 80.722,0.769 84.402,0.769 L193.818,0.769 C226.16,0.769 252.101,12.336 268.845,34.224 C286.616,57.452 290.345,86.506 290.345,106.789 C290.345,139.988 281.349,166.106 263.593,184.413 C244.96,203.625 217.447,213.367 181.818,213.367 Z M75.359,206.416 C75.359,202.736 72.375,199.752 68.697,199.752 L55.09,199.752 C51.406,199.752 48.424,202.736 48.424,206.416 C48.424,210.098 51.406,213.08 55.09,213.08 L68.697,213.08 C72.375,213.08 75.359,210.097 75.359,206.416 Z M241.32,164.015 C254.443,150.483 261.095,131.256 261.095,106.867 C261.095,85.525 255.613,67.077 245.243,53.52 C232.827,37.294 213.649,28.717 189.774,28.717 L114.14,28.717 C110.46,28.717 107.476,31.701 107.476,35.381 C107.476,39.063 110.46,42.045 114.14,42.045 L189.775,42.045 C242.115,42.045 247.767,87.377 247.767,106.866 C247.767,149.533 224.73,172.087 181.14,172.087 C177.46,172.087 174.476,175.072 174.476,178.751 C174.476,182.432 177.46,185.415 181.14,185.415 C207.298,185.416 227.546,178.216 241.32,164.015 Z M169.041,178.751 C169.041,175.072 166.057,172.087 162.377,172.087 L101.525,172.087 C97.843,172.087 94.863,175.072 94.863,178.751 C94.863,182.432 97.843,185.415 101.525,185.415 L162.377,185.415 C166.056,185.416 169.041,182.432 169.041,178.751 Z M67.394,151.107 C67.394,147.429 64.382,144.445 60.701,144.445 C57.021,144.445 54.039,147.428 54.039,151.107 C54.039,154.788 57.021,157.771 60.701,157.771 L60.76,157.771 C64.437,157.771 67.394,154.789 67.394,151.107 Z M50.154,151.107 C50.154,147.429 47.144,144.445 43.465,144.445 C39.786,144.445 36.801,147.428 36.801,151.107 C36.801,154.788 39.785,157.771 43.465,157.771 L43.52,157.771 C47.201,157.771 50.154,154.789 50.154,151.107 Z M125.396,122.957 C125.396,119.276 122.412,116.293 118.732,116.293 L105.125,116.293 C101.445,116.293 98.459,119.276 98.459,122.957 C98.459,126.636 101.445,129.62 105.125,129.62 L118.732,129.62 C122.412,129.619 125.396,126.636 125.396,122.957 Z M102.162,35.381 C102.162,31.701 99.15,28.717 95.471,28.717 C91.792,28.717 88.809,31.701 88.809,35.381 C88.809,39.063 91.791,42.045 95.471,42.045 L95.526,42.045 C99.207,42.045 102.162,39.063 102.162,35.381 Z M82.552,35.381 C82.552,31.701 79.566,28.717 75.886,28.717 L62.279,28.717 C58.597,28.717 55.615,31.701 55.615,35.381 C55.615,39.063 58.597,42.045 62.279,42.045 L75.886,42.045 C79.566,42.045 82.552,39.063 82.552,35.381 Z M231.841,106.945 C231.841,82.64 219.73,56.67 185.732,56.67 C182.052,56.67 179.068,59.652 179.068,63.334 C179.068,67.014 182.052,69.997 185.732,69.997 C215.32,69.997 218.513,95.836 218.513,106.946 C218.513,131.624 205.712,144.138 180.464,144.138 L78.66,144.138 C74.98,144.138 71.996,147.12 71.996,150.801 C71.996,154.482 74.98,157.465 78.66,157.465 L180.465,157.465 C213.117,157.464 231.841,139.052 231.841,106.945 Z M172.134,63.333 C172.134,59.652 169.15,56.669 165.468,56.669 L111.982,56.669 C108.302,56.669 105.32,59.651 105.32,63.333 C105.32,67.013 108.302,69.996 111.982,69.996 L165.468,69.996 C169.15,69.997 172.134,67.013 172.134,63.333 Z M202.589,107.024 C202.589,93.414 194.386,84.62 181.689,84.62 L126.679,84.62 C122.997,84.62 120.017,87.605 120.017,91.284 C120.017,94.964 122.997,97.948 126.679,97.948 L181.689,97.948 C183.761,97.948 189.261,97.948 189.261,107.024 C189.261,113.618 186.605,116.187 179.788,116.187 L139.102,116.187 C135.42,116.187 132.438,119.17 132.438,122.851 C132.438,126.53 135.42,129.515 139.102,129.515 L179.788,129.515 C193.853,129.515 202.589,120.897 202.589,107.024 Z M112.792,91.284 C112.792,87.605 109.808,84.62 106.13,84.62 L55.79,84.62 C52.11,84.62 49.128,87.605 49.128,91.284 C49.128,94.964 52.11,97.948 55.79,97.948 L106.13,97.948 C109.808,97.948 112.792,94.964 112.792,91.284 Z" id="Shape" fill="url(#linearGradient-1)"></path>
            <g id="Group" transform="translate(0.000000, 248.000000)" fill="#414042">
                <path d="M21.894,30.896 C18.361,34.429 14.316,35.044 8.119,35.044 L0.181,35.044 L0.181,0.888 L5.968,0.888 C13.239,0.888 18.156,1.297 21.79,4.933 C25.017,8.16 26.86,12.665 26.86,17.837 C26.861,23.47 25.017,27.773 21.894,30.896 Z M20.205,6.418 C17.029,3.243 13.547,2.782 6.07,2.782 L2.384,2.782 L2.384,33.1490369 L7.3,33.149 C12.318,33.149 16.618,33.2 20.357,29.512 C23.123,26.798 24.455,22.343 24.455,17.735 C24.455,14.407 23.89,10.105 20.205,6.418 Z" id="Shape"></path>
                <polygon id="Shape" points="34.185 35.044 34.185 0.888 36.388 0.888 36.388 35.044"></polygon>
                <path d="M59.472,35.607 C50.665,35.607 43.599,29.36 43.599,18.248 C43.599,6.777 51.076,0.273 59.831,0.273 C65.72,0.273 68.946,2.373 69.407,2.783 L68.331,4.575 C67.923,4.319 64.798,2.476 60.087,2.476 C52.405,2.476 45.901,8.21 45.901,17.837 C45.901,27.464 51.278,33.456 59.78,33.456 C65.413,33.456 67.718,31.767 68.024,31.612 L68.024,20.551 L59.729,20.551 L59.729,18.656 L70.225,18.656 L70.225,32.789 C69.714,33.251 66.386,35.607 59.472,35.607 Z" id="Shape"></path>
                <polygon id="Shape" points="78.289 35.044 78.289 0.888 80.492 0.888 80.492 35.044"></polygon>
                <polygon id="Shape" points="99.023 2.884 99.023 35.044 96.822 35.044 96.822 2.884 86.222 2.884 86.222 0.888 109.675 0.888 109.675 2.884"></polygon>
                <path d="M133.242,35.044 L129.453,24.546 L113.988,24.546 L110.199,35.044 L107.996,35.044 L120.439,0.888 L123.154,0.888 L135.701,35.044 L133.242,35.044 Z M121.72,3.193 L114.755,22.498 L128.735,22.498 L121.72,3.193 Z" id="Shape"></path>
                <polygon id="Shape" points="141.011 35.044 141.011 0.888 143.214 0.888 143.214 32.995 158.319 32.995 158.319 35.044"></polygon>
                <path d="M199.443,35.044 L195.654,24.546 L180.189,24.546 L176.398,35.044 L174.197,35.044 L186.64,0.888 L189.355,0.888 L201.9,35.044 L199.443,35.044 Z M187.921,3.193 L180.956,22.498 L194.936,22.498 L187.921,3.193 Z" id="Shape"></path>
                <path d="M215.416,35.607 C209.682,35.607 206.353,32.432 205.943,32.074 L207.222,30.385 C207.581,30.641 210.96,33.56 215.263,33.56 C220.742,33.56 223.558,30.436 223.558,25.981 C223.558,24.188 222.74,22.653 221.613,21.526 C218.285,18.198 212.189,17.481 208.861,14.152 C207.632,12.923 206.814,11.233 206.814,8.775 C206.814,3.859 210.603,0.274 216.441,0.274 C222.482,0.274 225.146,3.551 225.453,3.859 L224.07,5.242 C223.713,4.934 221.459,2.221 216.646,2.221 C212.087,2.221 208.912,5.037 208.912,8.724 C208.912,10.517 209.578,11.695 210.551,12.667 C213.676,15.791 219.975,16.456 223.354,19.837 C224.84,21.321 225.864,23.216 225.864,25.827 C225.863,31.357 222.431,35.607 215.416,35.607 Z" id="Shape"></path>
                <path d="M240.253,35.607 C234.519,35.607 231.189,32.432 230.78,32.074 L232.059,30.385 C232.418,30.641 235.797,33.56 240.098,33.56 C245.578,33.56 248.395,30.436 248.395,25.981 C248.395,24.188 247.575,22.653 246.448,21.526 C243.12,18.198 237.026,17.481 233.698,14.152 C232.469,12.923 231.649,11.233 231.649,8.775 C231.649,3.859 235.438,0.274 241.276,0.274 C247.319,0.274 249.983,3.551 250.29,3.859 L248.907,5.242 C248.548,4.934 246.296,2.221 241.481,2.221 C236.924,2.221 233.749,5.037 233.749,8.724 C233.749,10.517 234.415,11.695 235.388,12.667 C238.513,15.791 244.81,16.456 248.191,19.837 C249.675,21.321 250.701,23.216 250.701,25.827 C250.701,31.357 247.269,35.607 240.253,35.607 Z" id="Shape"></path>
                <polygon id="Shape" points="257.609 35.044 257.609 0.888 274.918 0.888 274.918 2.884 259.813 2.884 259.813 16.097 273.997 16.097 273.997 17.992 259.813 17.992 259.813 32.996 275.329 32.996 275.329 35.045 257.609 35.045"></polygon>
                <polygon id="Shape" points="292.91 2.884 292.91 35.044 290.707 35.044 290.707 2.884 280.107 2.884 280.107 0.888 303.56 0.888 303.56 2.884"></polygon>
                <path d="M316.517,35.607 C310.783,35.607 307.453,32.432 307.044,32.074 L308.323,30.385 C308.682,30.641 312.061,33.56 316.362,33.56 C321.842,33.56 324.659,30.436 324.659,25.981 C324.659,24.188 323.839,22.653 322.712,21.526 C319.384,18.198 313.29,17.481 309.962,14.152 C308.733,12.923 307.913,11.233 307.913,8.775 C307.913,3.859 311.702,0.274 317.54,0.274 C323.583,0.274 326.247,3.551 326.554,3.859 L325.171,5.242 C324.812,4.934 322.56,2.221 317.745,2.221 C313.188,2.221 310.013,5.037 310.013,8.724 C310.013,10.517 310.679,11.695 311.652,12.667 C314.777,15.791 321.074,16.456 324.455,19.837 C325.939,21.321 326.965,23.216 326.965,25.827 C326.964,31.357 323.533,35.607 316.517,35.607 Z" id="Shape"></path>
                <path d="M47.369,69.461 C46.346,70.485 44.142,72.021 38.971,72.021 L32.776,72.021 L32.776,86.565 L30.573,86.565 L30.573,52.409 L37.844,52.409 C41.686,52.409 45.115,52.562 47.524,54.97 C49.366,56.814 50.288,59.425 50.288,62.088 C50.287,66.184 48.597,68.232 47.369,69.461 Z M45.781,56.199 C43.886,54.304 41.377,54.304 37.332,54.304 L32.775,54.304 L32.775,70.126 L38.714,70.126 C43.118,70.126 44.757,69.052 45.679,68.13 C46.908,66.901 48.034,65.109 48.034,61.933 C48.035,59.373 47.062,57.478 45.781,56.199 Z" id="Shape"></path>
                <path d="M69.978,87.128 C61.785,87.128 55.486,79.907 55.486,69.922 C55.486,59.372 61.683,51.794 70.541,51.794 C78.838,51.794 84.982,59.065 84.982,69.409 C84.982,79.703 78.939,87.128 69.978,87.128 Z M70.132,53.843 C62.706,53.843 57.892,59.988 57.892,69.256 C57.892,78.474 63.167,85.079 70.234,85.079 C77.455,85.079 82.576,79.293 82.576,69.153 C82.576,59.988 77.3,53.843 70.132,53.843 Z" id="Shape"></path>
                <polygon id="Shape" points="121.06 86.565 117.425 86.565 109.282 53.689 100.985 86.565 97.35 86.565 88.746 52.409 91.307 52.409 99.194 85.285 107.387 52.409 111.278 52.409 119.421 85.285 127.359 52.409 129.613 52.409"></polygon>
                <polygon id="Shape" points="135.652 86.565 135.652 52.409 152.961 52.409 152.961 54.406 137.856 54.406 137.856 67.618 152.04 67.618 152.04 69.514 137.856 69.514 137.856 84.518 153.372 84.518 153.372 86.566 135.652 86.566"></polygon>
                <path d="M178.919,86.565 L175.13,77.962 C174.771,77.142 173.441,73.864 172.21,72.636 C170.88,71.304 169.599,70.895 166.116,70.895 L161.866,70.895 L161.866,86.565 L159.665,86.565 L159.665,52.409 L166.425,52.409 C170.06,52.409 173.747,52.306 176.206,54.765 C178.151,56.71 178.919,58.81 178.919,61.576 C178.919,63.982 178.253,65.979 176.718,67.566 C174.925,69.359 172.671,70.025 171.29,70.178 C174.208,70.434 175.386,73.455 176.206,75.298 L181.224,86.565 L178.919,86.565 Z M174.568,56.25 C172.672,54.355 170.47,54.305 167.039,54.305 L161.867,54.305 L161.867,69.0000762 L164.326,69 C168.422,69 172.109,69.052 174.721,66.439 C176.053,65.108 176.668,63.469 176.668,61.37 C176.667,59.629 176.154,57.837 174.568,56.25 Z" id="Shape"></path>
                <path d="M217.378,69.461 C216.355,70.485 214.153,72.021 208.982,72.021 L202.785,72.021 L202.785,86.565 L200.584,86.565 L200.584,52.409 L207.855,52.409 C211.695,52.409 215.126,52.562 217.533,54.97 C219.377,56.814 220.299,59.425 220.299,62.088 C220.298,66.184 218.609,68.232 217.378,69.461 Z M215.792,56.199 C213.897,54.304 211.388,54.304 207.343,54.304 L202.784,54.304 L202.784,70.126 L208.723,70.126 C213.127,70.126 214.766,69.052 215.688,68.13 C216.917,66.901 218.043,65.109 218.043,61.933 C218.044,59.373 217.072,57.478 215.792,56.199 Z" id="Shape"></path>
                <polygon id="Shape" points="226.568 86.565 226.568 52.409 228.769 52.409 228.769 84.517 243.876 84.517 243.876 86.565"></polygon>
                <path d="M273.164,86.565 L269.375,76.068 L253.91,76.068 L250.121,86.565 L247.918,86.565 L260.361,52.409 L263.076,52.409 L275.623,86.565 L273.164,86.565 Z M261.642,54.713 L254.677,74.019 L268.657,74.019 L261.642,54.713 Z" id="Shape"></path>
                <polygon id="Shape" points="287.406 73.097 287.406 86.565 285.205 86.565 285.205 73.097 274.246 52.409 276.807 52.409 286.434 70.793 295.907 52.409 298.366 52.409"></polygon>
            </g>
        </g>
    </g>
</svg>