<?xml version="1.0" encoding="UTF-8"?>
<svg width="235px" height="57px" viewBox="0 0 235 57" version="1.1" xmlns="http://www.w3.org/2000/svg" xmlns:xlink="http://www.w3.org/1999/xlink">
    <!-- Generator: Sketch 52.4 (67378) - http://www.bohemiancoding.com/sketch -->
    <title>Group</title>
    <desc>Created with Sketch.</desc>
    <g id="Page-1" stroke="none" stroke-width="1" fill="none" fill-rule="evenodd">
        <g id="HR_ErstePlavi" transform="translate(-181.000000, -340.000000)">
            <g id="Group" transform="translate(181.000000, 340.000000)">
                <path d="M78.354,14.0585 C78.354,12.5395 79.033,11.7805 80.552,11.7805 L94.534,11.7805 L94.534,14.9375 C94.534,16.4545 93.775,17.1735 92.257,17.1735 L84.748,17.1735 L84.748,21.7675 L93.137,21.7675 L93.137,26.9615 L84.748,26.9615 L84.748,31.9545 L94.734,31.9545 L94.734,35.1105 C94.734,36.6295 93.976,37.3495 92.458,37.3495 L80.552,37.3495 C79.033,37.3495 78.354,36.5895 78.354,35.0725 L78.354,14.0585 Z M76.354,11.7805 L76.354,15.0165 C76.354,16.4945 75.595,17.1735 74.116,17.1735 L70.959,17.1735 L70.959,37.3495 L64.568,37.3495 L64.568,17.1735 L59.175,17.1735 L59.175,13.9375 C59.175,12.4595 59.935,11.7805 61.413,11.7805 L76.354,11.7805 Z M49.385,11.5805 C54.698,11.5805 57.454,12.1805 57.454,14.6575 L57.454,17.1735 L50.183,17.1735 C48.226,17.1735 47.666,17.6925 47.666,18.7315 C47.666,21.8085 58.773,21.1695 58.773,29.7985 C58.773,33.9125 56.417,37.5495 49.226,37.5495 C44.509,37.5495 40.794,36.7885 40.794,34.4725 L40.794,31.9545 L49.385,31.9545 C51.143,31.9545 51.981,31.3955 51.981,30.1585 C51.981,26.8025 40.916,27.4405 40.916,18.5715 C40.916,14.6575 43.513,11.5805 49.385,11.5805 Z M25.61,17.1735 L25.61,21.7675 L29.244,21.7675 C31.083,21.7675 32.522,21.5285 32.522,19.4915 C32.522,17.4945 31.083,17.1735 29.244,17.1735 L25.61,17.1735 Z M19.219,14.0585 C19.219,12.5395 19.897,11.7805 21.415,11.7805 L29.725,11.7805 C35.558,11.7805 38.914,14.4565 38.914,19.4915 C38.914,22.9665 37.595,25.2045 34.438,26.4825 L39.433,36.2305 C39.593,36.5895 39.792,36.9495 39.792,37.3495 L34.278,37.3495 C33.122,37.3495 32.641,37.3495 32.081,36.1895 L27.608,26.9615 L25.61,26.9615 L25.61,37.3495 L19.219,37.3495 L19.219,14.0585 Z M0.239,14.0585 C0.239,12.5395 0.917,11.7805 2.436,11.7805 L16.418,11.7805 L16.418,14.9375 C16.418,16.4545 15.659,17.1735 14.142,17.1735 L6.63,17.1735 L6.63,21.7675 L15.02,21.7675 L15.02,26.9615 L6.63,26.9615 L6.63,31.9545 L16.618,31.9545 L16.618,35.1105 C16.618,36.6295 15.858,37.3495 14.341,37.3495 L2.436,37.3495 C0.917,37.3495 0.239,36.5895 0.239,35.0725 L0.239,14.0585 Z M196.53,37.2305 L190.137,37.2305 L190.137,13.9375 C190.137,12.4195 190.817,11.6615 192.336,11.6615 L196.53,11.6615 L196.53,37.2305 Z M177.31,30.7185 L177.469,30.7185 L181.544,12.6195 C181.744,11.7405 182.063,11.6615 183.143,11.6615 L188.336,11.6615 C188.336,11.9405 188.295,12.2595 188.216,12.6605 L182.184,36.2715 C181.942,37.1895 181.424,37.3095 180.306,37.3095 L174.312,37.3095 C173.233,37.3095 172.715,37.1895 172.476,36.2715 L166.482,12.6605 C166.402,12.3005 166.362,11.9405 166.362,11.6615 L171.597,11.6615 C172.676,11.6615 172.994,11.7405 173.194,12.6195 L177.31,30.7185 Z M154.092,26.3625 L158.048,26.3625 L156.13,18.1725 L155.971,18.1725 L154.092,26.3625 Z M159.247,11.5805 C160.326,11.5805 160.846,11.6995 161.085,12.6195 L167.037,36.2305 C167.118,36.5905 167.157,36.9505 167.157,37.2305 L161.923,37.2305 C160.846,37.2305 160.524,37.1505 160.326,36.2715 L159.088,31.1575 L153.134,31.1575 L151.975,36.2715 C151.777,37.1505 151.456,37.2305 150.377,37.2305 L145.184,37.2305 C145.184,36.9505 145.224,36.6315 145.304,36.2305 L151.256,12.6195 C151.496,11.6995 152.016,11.5805 153.096,11.5805 L159.247,11.5805 Z M128.4,13.9375 C128.4,12.4195 129.079,11.6615 130.598,11.6615 L134.792,11.6615 L134.792,31.8365 L144.58,31.8365 L144.58,34.9925 C144.58,36.5105 143.822,37.2305 142.303,37.2305 L130.598,37.2305 C129.079,37.2305 128.4,36.4705 128.4,34.9535 L128.4,13.9375 Z M112.415,17.0545 L112.415,21.6495 L116.051,21.6495 C118.167,21.6495 119.405,21.2095 119.405,19.3315 C119.405,17.4945 118.167,17.0545 116.051,17.0545 L112.415,17.0545 Z M106.022,13.9375 C106.022,12.4195 106.702,11.6615 108.219,11.6615 L116.53,11.6615 C122.363,11.6615 125.799,14.2175 125.799,19.4525 C125.799,24.5255 122.363,26.8435 116.53,26.8435 L112.415,26.8435 L112.415,37.2305 L106.022,37.2305 L106.022,13.9375 Z M136.428,45.9325 L137.387,45.9325 C138.006,45.9325 138.226,46.2725 138.226,46.8715 L138.226,55.9215 L136.428,55.9215 L136.428,45.9325 Z M138.226,44.8145 L136.428,44.8145 L136.428,43.6755 C136.428,43.0765 136.648,42.7355 137.248,42.7355 L138.226,42.7355 L138.226,44.8145 Z M129.758,55.9605 C129.379,55.9605 129.178,55.9405 129.059,55.5405 L126.102,46.3525 C126.042,46.1525 126.042,46.0325 126.042,45.9325 L127.42,45.9325 C127.8,45.9325 127.939,45.9325 128.039,46.3325 L130.457,54.1035 L130.537,54.1035 L132.955,46.3325 C133.074,45.9325 133.193,45.9325 133.572,45.9325 L134.951,45.9325 C134.951,46.0325 134.951,46.1715 134.891,46.3525 L131.875,55.5405 C131.756,55.9405 131.557,55.9605 131.197,55.9605 L129.758,55.9605 Z M123.467,50.9275 C123.467,48.4705 122.988,47.1715 121.27,47.1715 C119.572,47.1715 119.072,48.4705 119.072,50.9275 C119.072,53.3835 119.572,54.6825 121.27,54.6825 C122.988,54.6825 123.467,53.3835 123.467,50.9275 Z M117.215,50.9275 C117.215,48.1295 118.134,45.8335 121.27,45.8335 C124.426,45.8335 125.325,48.1295 125.325,50.9275 C125.325,53.7245 124.426,56.0205 121.27,56.0205 C118.134,56.0205 117.215,53.7245 117.215,50.9275 Z M111.524,54.5425 C112.324,54.5425 113.002,54.1835 113.521,53.7035 L113.521,48.1105 C113.002,47.6305 112.324,47.2705 111.524,47.2705 C109.946,47.2705 109.327,48.5895 109.327,50.9275 C109.327,53.2645 109.946,54.5425 111.524,54.5425 Z M115.32,55.9215 L114.441,55.9215 C113.782,55.9215 113.521,55.5805 113.521,55.0815 L113.521,54.7625 C112.963,55.4215 112.063,56.0205 110.926,56.0205 C108.568,56.0205 107.469,54.0825 107.469,50.9275 C107.469,47.7695 108.568,45.8335 110.926,45.8335 C112.063,45.8335 112.963,46.4325 113.521,47.0915 L113.521,43.5765 C113.521,43.0765 113.782,42.7355 114.421,42.7355 L115.32,42.7355 L115.32,55.9215 Z M98.083,55.9215 L98.083,45.9325 L98.981,45.9325 C99.621,45.9325 99.88,46.2725 99.88,46.7515 L99.88,47.0915 C100.7,46.1715 101.738,45.8335 102.677,45.8335 C104.615,45.8335 105.574,47.0315 105.574,48.8895 L105.574,55.9215 L103.795,55.9215 L103.795,48.9695 C103.795,47.7905 103.117,47.2905 101.978,47.2905 C101.219,47.2905 100.439,47.6505 99.88,48.1295 L99.88,55.9215 L98.083,55.9215 Z M94.33,50.9275 C94.33,48.4705 93.85,47.1715 92.133,47.1715 C90.434,47.1715 89.936,48.4705 89.936,50.9275 C89.936,53.3835 90.434,54.6825 92.133,54.6825 C93.85,54.6825 94.33,53.3835 94.33,50.9275 Z M88.077,50.9275 C88.077,48.1295 88.996,45.8335 92.133,45.8335 C95.289,45.8335 96.187,48.1295 96.187,50.9275 C96.187,53.7245 95.289,56.0205 92.133,56.0205 C88.996,56.0205 88.077,53.7245 88.077,50.9275 Z M83.464,45.1145 C83.464,43.6555 83.664,42.5365 85.701,42.5365 C86.7,42.5365 87.4,42.7165 87.4,43.4965 L87.4,43.9745 L86.021,43.9745 C85.381,43.9745 85.282,44.2735 85.282,45.1145 L85.282,45.9325 L87.299,45.9325 L87.299,47.2705 L85.282,47.2705 L85.282,55.9215 L83.484,55.9215 L83.484,47.2705 L82.226,47.2705 L82.226,46.2725 L83.464,45.9325 L83.464,45.1145 Z M74.656,45.9325 L75.615,45.9325 C76.235,45.9325 76.455,46.2725 76.455,46.8715 L76.455,55.9215 L74.656,55.9215 L74.656,45.9325 Z M76.455,44.8145 L74.656,44.8145 L74.656,43.6755 C74.656,43.0765 74.875,42.7355 75.476,42.7355 L76.455,42.7355 L76.455,44.8145 Z M67.446,50.3275 L71.142,46.3325 C71.381,46.0535 71.521,45.9325 71.9,45.9325 L73.439,45.9325 C73.439,46.0725 73.379,46.2125 73.279,46.3325 L69.245,50.5875 L73.3,55.5205 C73.419,55.6415 73.439,55.7815 73.439,55.9215 L71.801,55.9215 C71.343,55.9215 71.203,55.7215 70.922,55.3615 L67.446,51.1065 L67.446,55.9215 L65.649,55.9215 L65.649,43.6755 C65.649,43.0765 65.869,42.7355 66.468,42.7355 L67.446,42.7355 L67.446,50.3275 Z M60.557,45.8335 C62.314,45.8335 63.513,45.8725 63.513,46.7515 L63.513,47.2705 L60.497,47.2705 C59.598,47.2705 59.019,47.6705 59.019,48.3095 C59.019,50.3875 64.053,49.7885 64.053,53.1445 C64.053,54.7815 62.974,56.0205 60.157,56.0205 C58.519,56.0205 57.001,56.0205 57.001,55.1615 L57.001,54.6025 L60.356,54.6025 C61.556,54.6025 62.115,54.1835 62.115,53.2845 C62.115,51.3865 57.102,51.7665 57.102,48.4105 C57.102,46.8115 58.399,45.8335 60.557,45.8335 Z M47.815,55.9215 L47.815,45.9325 L48.713,45.9325 C49.353,45.9325 49.611,46.2725 49.611,46.7515 L49.611,47.0915 C50.431,46.1715 51.47,45.8335 52.41,45.8335 C54.346,45.8335 55.305,47.0315 55.305,48.8895 L55.305,55.9215 L53.527,55.9215 L53.527,48.9695 C53.527,47.7905 52.849,47.2905 51.709,47.2905 C50.951,47.2905 50.171,47.6505 49.611,48.1295 L49.611,55.9215 L47.815,55.9215 Z M43.621,45.9325 L44.579,45.9325 C45.198,45.9325 45.418,46.2725 45.418,46.8715 L45.418,55.9215 L43.621,55.9215 L43.621,45.9325 Z M45.418,44.8145 L43.621,44.8145 L43.621,43.6755 C43.621,43.0765 43.84,42.7355 44.439,42.7355 L45.418,42.7355 L45.418,44.8145 Z M36.95,55.9605 C36.571,55.9605 36.372,55.9405 36.251,55.5405 L33.294,46.3525 C33.235,46.1525 33.235,46.0325 33.235,45.9325 L34.613,45.9325 C34.993,45.9325 35.133,45.9325 35.232,46.3325 L37.649,54.1035 L37.729,54.1035 L40.146,46.3325 C40.266,45.9325 40.386,45.9325 40.766,45.9325 L42.145,45.9325 C42.145,46.0325 42.145,46.1715 42.084,46.3525 L39.067,55.5405 C38.948,55.9405 38.748,55.9605 38.388,55.9605 L36.95,55.9605 Z M30.66,50.9275 C30.66,48.4705 30.181,47.1715 28.462,47.1715 C26.764,47.1715 26.265,48.4705 26.265,50.9275 C26.265,53.3835 26.764,54.6825 28.462,54.6825 C30.181,54.6825 30.66,53.3835 30.66,50.9275 Z M24.407,50.9275 C24.407,48.1295 25.326,45.8335 28.462,45.8335 C31.619,45.8335 32.518,48.1295 32.518,50.9275 C32.518,53.7245 31.619,56.0205 28.462,56.0205 C25.326,56.0205 24.407,53.7245 24.407,50.9275 Z M18.895,55.9215 L18.895,45.9325 L19.794,45.9325 C20.394,45.9325 20.653,46.4125 20.693,47.1715 C21.472,46.1325 22.512,45.8335 23.27,45.8335 C23.61,45.8335 23.97,45.9125 23.97,46.3325 L23.97,47.6105 L23.47,47.6105 C22.012,47.6105 21.273,47.9705 20.693,48.4495 L20.693,55.9215 L18.895,55.9215 Z M14.702,45.9325 L15.66,45.9325 C16.28,45.9325 16.5,46.2725 16.5,46.8715 L16.5,55.9215 L14.702,55.9215 L14.702,45.9325 Z M16.5,44.8145 L14.702,44.8145 L14.702,43.6755 C14.702,43.0765 14.921,42.7355 15.521,42.7355 L16.5,42.7355 L16.5,44.8145 Z M5.855,52.7855 L2.48,45.6135 L2.439,45.6135 C2.519,47.3915 2.56,48.2295 2.56,49.8475 L2.56,55.9215 L0.821,55.9215 L0.821,43.9955 C0.821,43.4155 1.101,43.0955 1.72,43.0955 L2.579,43.0955 C2.958,43.0955 3.178,43.1365 3.378,43.5955 L6.634,50.4275 L9.73,43.5955 C9.931,43.1365 10.17,43.0955 10.53,43.0955 L11.409,43.0955 C12.028,43.0955 12.307,43.4155 12.307,44.0355 L12.307,55.9215 L10.57,55.9215 L10.57,49.8475 C10.57,48.2295 10.609,47.3915 10.709,45.6135 L10.649,45.6135 L7.394,52.7855 C7.234,53.1445 7.094,53.2435 6.634,53.2435 C6.195,53.2435 6.015,53.1445 5.855,52.7855 Z" id="Fill-1" fill="#004066"></path>
                <path d="M234.7119,19.6156 L234.7119,16.6846 C234.7119,13.9146 232.4639,11.6586 229.6899,11.6586 L208.3449,11.6586 C205.5719,11.6586 203.3259,13.9146 203.3259,16.6846 L203.3259,27.7236 L227.1359,27.7236 L227.1359,29.3976 L203.3259,29.3976 L203.3259,32.3286 C203.3259,35.0996 205.5719,37.3486 208.3449,37.3486 L229.6899,37.3486 C232.4639,37.3486 234.7119,35.0996 234.7119,32.3286 L234.7119,21.2886 L210.9039,21.2886 L210.9039,19.6156 L234.7119,19.6156 Z M219.0199,0.4986 C220.2959,0.4986 221.4139,0.9736 222.3429,1.9236 C223.2729,2.8656 223.7469,4.0166 223.7469,5.3176 C223.7469,6.6496 223.2819,7.7876 222.3549,8.7306 C221.4229,9.6776 220.2959,10.1516 219.0199,10.1516 C217.7189,10.1516 216.5979,9.6776 215.6859,8.7306 C214.7599,7.7876 214.2949,6.6496 214.2949,5.3176 C214.2949,4.0166 214.7599,2.8776 215.6719,1.9356 C216.5979,0.9836 217.7189,0.4986 219.0199,0.4986 Z" id="Fill-3" fill="#D8232A"></path>
            </g>
        </g>
    </g>
</svg>