<svg xmlns="http://www.w3.org/2000/svg" viewBox="0 0 128.62 53.4">
  <defs>
    <style>
      .cls-1 {
        fill: #004a7c;
      }

      .cls-2 {
        fill: #ed1c24;
      }
    </style>
  </defs>
  <title>Asset 1</title>
  <g id="Layer_2" data-name="Layer 2">
    <g id="Layer_1-2" data-name="Layer 1">
      <g>
        <path class="cls-1" d="M0,13c0-1.47.66-2.21,2.13-2.21H15.7v3.07A1.92,1.92,0,0,1,13.49,16H6.2v4.46h8.15v5H6.2v4.85h9.7v3.06a1.93,1.93,0,0,1-2.21,2.17H2.13C.66,35.6,0,34.86,0,33.39Zm18.42,0c0-1.47.66-2.21,2.13-2.21h8.07c5.66,0,8.92,2.6,8.92,7.49,0,3.37-1.28,5.54-4.35,6.78L38,34.51a2.69,2.69,0,0,1,.35,1.09H33c-1.13,0-1.59,0-2.14-1.12l-4.34-9H24.62V35.6h-6.2Zm6.2,3v4.46h3.53c1.79,0,3.18-.23,3.18-2.21S29.94,16,28.15,16ZM47.7,10.59c5.16,0,7.83.58,7.83,3V16H48.47c-1.9,0-2.44.5-2.44,1.51,0,3,10.78,2.37,10.78,10.74,0,4-2.29,7.52-9.27,7.52-4.57,0-8.18-.73-8.18-3V30.37H47.7c1.7,0,2.52-.55,2.52-1.75,0-3.26-10.74-2.64-10.74-11.24C39.48,13.58,42,10.59,47.7,10.59Zm26.17.19v3.14c0,1.44-.73,2.1-2.17,2.1H68.64V35.6h-6.2V16H57.2V12.88c0-1.44.74-2.1,2.17-2.1ZM75.81,13c0-1.47.66-2.21,2.14-2.21H91.52v3.07A1.93,1.93,0,0,1,89.31,16H82v4.46h8.14v5H82v4.85h9.69v3.06A1.93,1.93,0,0,1,89.5,35.6H78c-1.48,0-2.14-.74-2.14-2.21ZM0,41.82c0-.6.21-.93.8-.93H4.05c2.66,0,4.08,1.1,4.08,3.27A2.68,2.68,0,0,1,6.26,46.9a2.86,2.86,0,0,1,2.31,3c0,2.23-1.41,3.4-4.07,3.4H.8c-.59,0-.8-.33-.8-.93Zm4.07,4.34c1.3,0,2.17-.41,2.17-1.82s-1-1.84-2.32-1.84H1.82v3.66Zm.29,5.53c1.38,0,2.33-.45,2.33-2s-1-2-2.33-2H1.82v4ZM16.09,53.3a.74.74,0,0,1-.85-.82v-.31a3.67,3.67,0,0,1-2.71,1.23A2.58,2.58,0,0,1,9.7,50.7c0-2.44,2.56-3.06,5.54-3.2v-.91c0-1.32-.89-1.69-2.07-1.69h-2.8v-.5c0-.86,1-.9,3.05-.9,2.23,0,3.55,1,3.55,3V53.3Zm-.85-4.7c-2.66.06-3.72.64-3.72,1.89,0,1.06.75,1.45,1.74,1.45a3,3,0,0,0,2-.8Zm3.88,4.7V43.6H20c.62,0,.87.33.87.8v.33a3.58,3.58,0,0,1,2.72-1.23c1.88,0,2.81,1.17,2.81,3V53.3H24.66V46.55c0-1.15-.66-1.63-1.76-1.63a3.32,3.32,0,0,0-2,.81V53.3Zm11.15-5.43L33.86,44a.81.81,0,0,1,.73-.39h1.5a.61.61,0,0,1-.16.39L32,48.12,36,52.91a.5.5,0,0,1,.14.39H34.5c-.45,0-.59-.2-.86-.54l-3.37-4.14V53.3H28.52V41.41c0-.58.21-.91.8-.91h.95Z"/>
        <path class="cls-2" d="M110.24,8a4.51,4.51,0,0,1-1.35-3.29,4.56,4.56,0,0,1,1.33-3.27,4.45,4.45,0,0,1,6.45,0A4.52,4.52,0,0,1,118,4.66,4.51,4.51,0,0,1,116.68,8a4.38,4.38,0,0,1-3.22,1.38A4.3,4.3,0,0,1,110.24,8Zm18.38,10.52V15.64a4.87,4.87,0,0,0-4.86-4.86H103.15a4.85,4.85,0,0,0-4.85,4.86V26.3h23v1.62h-23v2.83a4.84,4.84,0,0,0,4.85,4.85h20.61a4.86,4.86,0,0,0,4.86-4.85V20.08h-23V18.47Z"/>
      </g>
    </g>
  </g>
</svg>
