<?xml version="1.0" encoding="UTF-8"?>
<svg width="128px" height="43px" viewBox="0 0 128 43" version="1.1" xmlns="http://www.w3.org/2000/svg" xmlns:xlink="http://www.w3.org/1999/xlink">
    <!-- Generator: Sketch 50.2 (55047) - http://www.bohemiancoding.com/sketch -->
    <title>Group</title>
    <desc>Created with Sketch.</desc>
    <defs></defs>
    <g id="Page-1" stroke="none" stroke-width="1" fill="none" fill-rule="evenodd">
        <g id="LOGOTIPI-IZVOZ_HR" transform="translate(-203.000000, -549.000000)">
            <g id="Group" transform="translate(203.000000, 549.000000)">
                <polygon id="Fill-207" fill="#243881" points="10.6899 31.7408 21.2659 28.9068 24.0999 39.4828 13.5239 42.3158"></polygon>
                <polygon id="Fill-208" fill="#243881" points="0.3779 25.5464 7.8359 23.5474 9.8349 31.0064 2.3759 33.0054"></polygon>
                <polygon id="Fill-209" fill="#FFF101" points="8.8735 31.9683 5.5865 29.6183 9.6295 29.6033 10.8315 25.7453 12.0795 29.6013 16.1245 29.5753 12.8435 31.9503 14.0975 35.7223 10.8625 33.3893 7.6635 35.7473"></polygon>
                <path d="M6.5791,29.9351 L9.2491,31.8431 L8.2701,34.9031 L10.8611,32.9941 L13.4811,34.8831 L12.4661,31.8311 L15.1281,29.9021 L11.8471,29.9221 L10.8371,26.8041 L9.8661,29.9221 L6.5791,29.9351 Z M7.0581,36.5921 L8.4971,32.0931 L4.5941,29.3021 L9.3941,29.2841 L10.8261,24.6891 L12.3121,29.2801 L17.1201,29.2491 L13.2221,32.0741 L14.7141,36.5611 L10.8651,33.7871 L7.0581,36.5921 Z" id="Fill-210" fill="#FFFFFE"></path>
                <polygon id="Fill-211" fill="#D8232A" points="39.954 5.432 45.134 5.432 45.134 0.251 39.954 0.251"></polygon>
                <polygon id="Fill-212" fill="#D8232A" points="21.268 28.911 33.126 28.911 33.126 17.054 21.268 17.054"></polygon>
                <polygon id="Fill-213" fill="#FFFFFE" points="30.8105 19.4537 22.4115 18.1827 32.0105 18.1827 32.0105 27.7277"></polygon>
                <polygon id="Fill-214" fill="#D8232A" points="30.7383 8.149 39.6443 5.762 42.0303 14.669 33.1253 17.055"></polygon>
                <polygon id="Fill-215" fill="#FFFFFE" points="31.8135 8.813 34.3795 14.788 40.9445 14.052 33.7345 15.983"></polygon>
                <path d="M41.5566,28.8326 L41.5566,28.0766 C41.5566,27.9866 41.4846,27.9136 41.3946,27.9136 L39.7446,27.9136 C39.3636,27.9136 39.2256,27.7836 39.2256,27.3606 L39.2256,26.4996 L41.3296,26.4996 C41.4186,26.4996 41.4926,26.4266 41.4926,26.3376 L41.4926,25.5646 C41.4926,25.4766 41.4186,25.4026 41.3296,25.4026 L39.2256,25.4026 L39.2256,24.6636 C39.2256,24.2406 39.3636,24.1106 39.7446,24.1106 L41.3946,24.1106 C41.4846,24.1106 41.5566,24.0376 41.5566,23.9486 L41.5566,23.1926 C41.5566,23.0866 41.5086,23.0466 41.3946,23.0306 C41.1106,22.9896 40.7036,22.9246 39.8266,22.9246 C38.7786,22.9246 37.8436,23.1856 37.8436,24.6636 L37.8436,27.3606 C37.8436,28.8406 38.7706,29.1076 39.8186,29.1076 C40.6956,29.1076 41.1106,29.0436 41.3946,29.0036 C41.5086,28.9866 41.5566,28.9376 41.5566,28.8326" id="Fill-216" fill="#243881"></path>
                <path d="M47.3193,26.7681 L47.3193,23.1521 C47.3193,23.0631 47.2373,22.9971 47.1483,22.9971 L46.0913,22.9971 C46.0033,22.9971 45.9293,23.0631 45.9293,23.1521 L45.9293,26.7681 C45.9293,27.5971 45.7023,27.9471 44.9703,27.9471 C44.2393,27.9471 44.0193,27.5971 44.0193,26.7681 L44.0193,23.1521 C44.0193,23.0631 43.9463,22.9971 43.8573,22.9971 L42.7923,22.9971 C42.7033,22.9971 42.6303,23.0631 42.6303,23.1521 L42.6303,26.7681 C42.6303,28.6211 43.6783,29.1081 44.9703,29.1081 C46.2623,29.1081 47.3193,28.6211 47.3193,26.7681" id="Fill-217" fill="#243881"></path>
                <path d="M53.1699,28.938 C53.1699,28.914 53.1619,28.881 53.1459,28.848 L51.9189,26.557 C52.5119,26.322 52.9669,25.793 52.9669,24.931 L52.9669,24.827 C52.9669,23.387 51.9019,22.924 50.5209,22.924 C49.9359,22.924 49.2449,22.973 48.8709,23.03 C48.6189,23.071 48.5059,23.144 48.5059,23.42 L48.5059,28.873 C48.5059,28.962 48.5779,29.036 48.6679,29.036 L49.7249,29.036 C49.8149,29.036 49.8869,28.962 49.8869,28.873 L49.8869,26.809 C50.0409,26.809 50.2929,26.825 50.4639,26.825 L50.5539,26.817 L51.6429,28.873 C51.6829,28.954 51.7159,29.036 51.8049,29.036 L53.0479,29.036 C53.1379,29.036 53.1699,28.995 53.1699,28.938 Z M51.5849,24.931 C51.5849,25.484 51.3169,25.704 50.4639,25.704 C50.3749,25.704 49.9769,25.695 49.8869,25.688 L49.8869,24.127 C49.9839,24.119 50.4069,24.103 50.5209,24.103 C51.2029,24.103 51.5849,24.331 51.5849,24.827 L51.5849,24.931 Z" id="Fill-218" fill="#243881"></path>
                <path d="M58.6064,26.5005 L58.6064,25.5335 C58.6064,23.6475 57.5424,22.9245 56.2014,22.9245 C54.8604,22.9245 53.7954,23.6475 53.7954,25.5335 L53.7954,26.5005 C53.7954,28.3855 54.8604,29.1085 56.2014,29.1085 C57.5424,29.1085 58.6064,28.3855 58.6064,26.5005 Z M57.2094,26.5005 C57.2094,27.4755 56.8834,27.8905 56.2014,27.8905 C55.5184,27.8905 55.2014,27.4755 55.2014,26.5005 L55.2014,25.5335 C55.2014,24.5585 55.5184,24.1445 56.2014,24.1445 C56.8834,24.1445 57.2094,24.5585 57.2094,25.5335 L57.2094,26.5005 Z" id="Fill-219" fill="#243881"></path>
                <path d="M64.1328,24.9556 L64.1328,24.8836 C64.1328,23.3546 62.9218,22.9246 61.6948,22.9246 C61.1098,22.9246 60.4588,22.9656 60.0448,23.0306 C59.7928,23.0706 59.6798,23.1436 59.6798,23.4206 L59.6798,28.8806 C59.6798,28.9706 59.7528,29.0356 59.8418,29.0356 L60.8898,29.0356 C60.9798,29.0356 61.0528,28.9626 61.0528,28.8736 L61.0528,26.8976 C61.2558,26.9066 61.5158,26.9226 61.7108,26.9226 C62.9218,26.9226 64.1328,26.4766 64.1328,24.9556 Z M62.7508,24.9556 C62.7508,25.5086 62.4348,25.7766 61.7108,25.7766 C61.6218,25.7766 61.1428,25.7686 61.0528,25.7606 L61.0528,24.1026 C61.1508,24.0946 61.5978,24.0786 61.7108,24.0786 C62.3938,24.0786 62.7508,24.3066 62.7508,24.8836 L62.7508,24.9556 Z" id="Fill-220" fill="#243881"></path>
                <path d="M68.9111,27.3287 C68.9111,26.6707 68.6591,26.1347 67.8141,25.6797 L66.7731,25.1187 C66.3351,24.8837 66.2291,24.7767 66.2291,24.5497 C66.2291,24.2577 66.4001,24.1187 66.8621,24.1187 C67.4161,24.1187 68.3581,24.1917 68.5861,24.2087 L68.6021,24.2087 C68.7081,24.2087 68.7401,24.1437 68.7401,24.0697 L68.7401,23.2497 C68.7401,23.1607 68.6831,23.1197 68.6181,23.1027 C68.3091,23.0217 67.4891,22.9257 66.8951,22.9257 C65.3181,22.9257 64.8151,23.6157 64.8151,24.5097 C64.8151,25.1017 65.0181,25.6147 65.7741,26.0607 L66.8951,26.7277 C67.3181,26.9797 67.4321,27.1097 67.4321,27.3457 C67.4321,27.7347 67.2691,27.9147 66.7091,27.9147 C66.3911,27.9147 65.4981,27.8487 65.1651,27.8157 L65.1401,27.8157 C65.0591,27.8157 64.9941,27.8567 64.9941,27.9717 L64.9941,28.7667 C64.9941,28.8567 65.0751,28.9047 65.1561,28.9307 C65.5711,29.0357 66.0511,29.1077 66.6921,29.1077 C68.3421,29.1077 68.9111,28.1897 68.9111,27.3287" id="Fill-221" fill="#243881"></path>
                <path d="M74.624,23.0875 C74.624,23.0385 74.583,22.9975 74.494,22.9975 L73.251,22.9975 C73.161,22.9975 73.112,23.0295 73.072,23.0955 L71.284,25.7355 L71.284,23.1515 C71.284,23.0635 71.211,22.9975 71.122,22.9975 L70.057,22.9975 C69.968,22.9975 69.895,23.0635 69.895,23.1515 L69.895,28.8725 C69.895,28.9625 69.968,29.0355 70.057,29.0355 L71.122,29.0355 C71.211,29.0355 71.284,28.9625 71.284,28.8725 L71.284,26.2395 L72.934,28.9215 C72.975,28.9865 73.015,29.0355 73.112,29.0355 L74.51,29.0355 C74.583,29.0355 74.624,29.0025 74.624,28.9535 C74.624,28.9305 74.616,28.8985 74.591,28.8645 L72.649,25.9475 L74.583,23.2005 C74.607,23.1605 74.624,23.1195 74.624,23.0875" id="Fill-222" fill="#243881"></path>
                <path d="M76.8672,28.8726 L76.8672,23.1516 C76.8672,23.0626 76.8022,22.9976 76.7132,22.9976 L75.6242,22.9976 C75.5342,22.9976 75.4772,23.0626 75.4772,23.1516 L75.4772,28.8726 C75.4772,28.9626 75.5342,29.0356 75.6242,29.0356 L76.7132,29.0356 C76.8022,29.0356 76.8672,28.9626 76.8672,28.8726" id="Fill-223" fill="#243881"></path>
                <path d="M83.6846,27.4673 C83.6846,26.8173 83.3516,26.3693 82.4096,25.8093 L81.6616,25.3633 C81.0436,24.9883 80.7756,24.7613 80.7756,24.3793 C80.7756,23.7853 81.1326,23.6073 81.9706,23.6073 C82.4416,23.6073 83.0106,23.6313 83.3686,23.6553 L83.3846,23.6553 C83.4656,23.6553 83.5226,23.6073 83.5226,23.5263 L83.5226,23.1763 C83.5226,23.0953 83.4656,23.0543 83.3846,23.0383 C83.0756,22.9893 82.4506,22.9413 81.9706,22.9413 C80.7356,22.9413 80.0286,23.3963 80.0286,24.3793 C80.0286,25.0293 80.4016,25.4443 81.1496,25.8993 L81.9376,26.3783 C82.6766,26.8333 82.9136,27.0613 82.9136,27.4673 C82.9136,28.0353 82.6536,28.4253 81.6776,28.4253 C81.3036,28.4253 80.7106,28.4093 80.3366,28.3763 L80.3126,28.3763 C80.2396,28.3763 80.1746,28.4173 80.1746,28.5073 L80.1746,28.8313 C80.1746,28.9213 80.1906,28.9533 80.3296,28.9793 C80.6866,29.0353 81.1096,29.0923 81.6776,29.0923 C83.2786,29.0923 83.6846,28.2473 83.6846,27.4673" id="Fill-224" fill="#243881"></path>
                <path d="M88.6709,23.5015 L88.6709,23.1445 C88.6709,23.0545 88.6069,22.9975 88.5169,22.9975 L84.6089,22.9975 C84.5189,22.9975 84.4449,23.0625 84.4449,23.1445 L84.4449,23.5015 C84.4449,23.5905 84.5189,23.6315 84.6089,23.6315 L86.1919,23.6315 L86.1919,28.8725 C86.1919,28.9625 86.2579,29.0345 86.3389,29.0345 L86.7859,29.0345 C86.8749,29.0345 86.9319,28.9535 86.9319,28.8725 L86.9319,23.6315 L88.5169,23.6315 C88.6069,23.6315 88.6709,23.5825 88.6709,23.5015" id="Fill-225" fill="#243881"></path>
                <path d="M93.7871,28.9293 C93.7871,28.9063 93.7781,28.8803 93.7631,28.8573 L92.2841,26.3863 C93.0231,26.1913 93.5591,25.6553 93.5591,24.7443 L93.5591,24.6883 C93.5591,23.3713 92.5681,22.9413 91.2841,22.9413 C90.8121,22.9413 90.2031,22.9653 89.8541,23.0063 C89.7081,23.0223 89.6591,23.0713 89.6591,23.1843 L89.6591,28.8723 C89.6591,28.9623 89.7241,29.0353 89.8061,29.0353 L90.2441,29.0353 C90.3341,29.0353 90.3911,28.9533 90.3911,28.8723 L90.3911,26.4843 C90.8211,26.5003 91.0161,26.5083 91.2841,26.5083 L91.4221,26.5083 L91.4951,26.5083 L92.9491,28.9293 C93.0151,29.0353 93.0631,29.0353 93.1611,29.0353 L93.6821,29.0353 C93.7461,29.0353 93.7871,28.9873 93.7871,28.9293 Z M92.8281,24.7443 C92.8281,25.6223 92.2841,25.8743 91.2841,25.8743 C91.0971,25.8743 90.7481,25.8663 90.3911,25.8593 L90.3911,23.6313 C90.5851,23.6073 91.0321,23.6073 91.2841,23.6073 C92.3001,23.6073 92.8281,23.8753 92.8281,24.6883 L92.8281,24.7443 Z" id="Fill-226" fill="#243881"></path>
                <path d="M98.9434,26.8414 L98.9434,23.1524 C98.9434,23.0634 98.8704,22.9974 98.7894,22.9974 L98.3504,22.9974 C98.2604,22.9974 98.1964,23.0704 98.1964,23.1524 L98.1964,26.8414 C98.1964,27.8984 97.8714,28.4584 96.8634,28.4584 C95.8554,28.4584 95.5304,27.8904 95.5304,26.8414 L95.5304,23.1524 C95.5304,23.0634 95.4584,22.9974 95.3764,22.9974 L94.9374,22.9974 C94.8474,22.9974 94.7834,23.0704 94.7834,23.1524 L94.7834,26.8414 C94.7834,28.3934 95.5474,29.0924 96.8634,29.0924 C98.1794,29.0924 98.9434,28.3934 98.9434,26.8414" id="Fill-227" fill="#243881"></path>
                <path d="M104.2061,28.9537 C104.2061,28.9217 104.1901,28.8817 104.1651,28.8567 L101.7201,25.9317 L104.1651,23.1687 C104.1901,23.1437 104.1971,23.1117 104.1971,23.0877 C104.1971,23.0387 104.1651,22.9977 104.0841,22.9977 L103.4991,22.9977 C103.4181,22.9977 103.3861,23.0217 103.3371,23.0707 L100.9961,25.7767 L100.9961,23.1517 C100.9961,23.0627 100.9231,22.9977 100.8421,22.9977 L100.4111,22.9977 C100.3211,22.9977 100.2571,23.0707 100.2571,23.1517 L100.2571,28.8727 C100.2571,28.9627 100.3211,29.0357 100.4031,29.0357 L100.8501,29.0357 C100.9391,29.0357 100.9961,28.9537 100.9961,28.8727 L100.9961,26.1667 L103.2881,28.9537 C103.3371,29.0117 103.3941,29.0357 103.4671,29.0357 L104.1011,29.0357 C104.1731,29.0357 104.2061,28.9947 104.2061,28.9537" id="Fill-228" fill="#243881"></path>
                <path d="M109.0215,23.5015 L109.0215,23.1445 C109.0215,23.0545 108.9565,22.9975 108.8665,22.9975 L104.9585,22.9975 C104.8695,22.9975 104.7955,23.0625 104.7955,23.1445 L104.7955,23.5015 C104.7955,23.5905 104.8695,23.6315 104.9585,23.6315 L106.5425,23.6315 L106.5425,28.8725 C106.5425,28.9625 106.6075,29.0345 106.6895,29.0345 L107.1355,29.0345 C107.2255,29.0345 107.2825,28.9535 107.2825,28.8725 L107.2825,23.6315 L108.8665,23.6315 C108.9565,23.6315 109.0215,23.5825 109.0215,23.5015" id="Fill-229" fill="#243881"></path>
                <path d="M114.1455,26.8414 L114.1455,23.1524 C114.1455,23.0634 114.0725,22.9974 113.9915,22.9974 L113.5515,22.9974 C113.4625,22.9974 113.3975,23.0704 113.3975,23.1524 L113.3975,26.8414 C113.3975,27.8984 113.0725,28.4584 112.0655,28.4584 C111.0575,28.4584 110.7325,27.8904 110.7325,26.8414 L110.7325,23.1524 C110.7325,23.0634 110.6595,22.9974 110.5785,22.9974 L110.1385,22.9974 C110.0495,22.9974 109.9845,23.0704 109.9845,23.1524 L109.9845,26.8414 C109.9845,28.3934 110.7495,29.0924 112.0655,29.0924 C113.3815,29.0924 114.1455,28.3934 114.1455,26.8414" id="Fill-230" fill="#243881"></path>
                <path d="M119.5869,28.9293 C119.5869,28.9063 119.5779,28.8803 119.5629,28.8573 L118.0829,26.3863 C118.8219,26.1913 119.3579,25.6553 119.3579,24.7443 L119.3579,24.6883 C119.3579,23.3713 118.3679,22.9413 117.0839,22.9413 C116.6119,22.9413 116.0029,22.9653 115.6529,23.0063 C115.5069,23.0223 115.4589,23.0713 115.4589,23.1843 L115.4589,28.8723 C115.4589,28.9623 115.5239,29.0353 115.6049,29.0353 L116.0429,29.0353 C116.1329,29.0353 116.1899,28.9533 116.1899,28.8723 L116.1899,26.4843 C116.6199,26.5003 116.8159,26.5083 117.0839,26.5083 L117.2219,26.5083 L117.2949,26.5083 L118.7499,28.9293 C118.8149,29.0353 118.8629,29.0353 118.9599,29.0353 L119.4809,29.0353 C119.5459,29.0353 119.5869,28.9873 119.5869,28.9293 Z M118.6279,24.7443 C118.6279,25.6223 118.0829,25.8743 117.0839,25.8743 C116.8969,25.8743 116.5479,25.8663 116.1899,25.8593 L116.1899,23.6313 C116.3849,23.6073 116.8319,23.6073 117.0839,23.6073 C118.0999,23.6073 118.6279,23.8753 118.6279,24.6883 L118.6279,24.7443 Z" id="Fill-231" fill="#243881"></path>
                <path d="M124.8652,28.7994 L124.8652,23.1524 C124.8652,23.0704 124.8072,22.9974 124.7192,22.9974 L124.2882,22.9974 C124.2072,22.9974 124.1412,23.0704 124.1412,23.1524 L124.1412,27.9054 C124.1412,27.9144 124.1412,27.9304 124.1342,27.9304 L124.1172,27.9054 L121.6232,23.1604 C121.5572,23.0384 121.5162,22.9974 121.2902,22.9974 L120.8432,22.9974 C120.7132,22.9974 120.6072,23.0954 120.6072,23.2254 L120.6072,28.9384 C120.6072,29.0194 120.6722,29.0354 120.7532,29.0354 L121.1762,29.0354 C121.2572,29.0354 121.3222,28.9624 121.3222,28.8814 L121.3222,24.1354 C121.3222,24.1184 121.3222,24.1114 121.3302,24.1114 C121.3392,24.1114 121.3462,24.1184 121.3542,24.1354 L123.8652,28.9044 C123.9062,28.9864 123.9962,29.0354 124.1252,29.0354 L124.6302,29.0354 C124.7602,29.0354 124.8652,28.9304 124.8652,28.7994" id="Fill-232" fill="#243881"></path>
                <path d="M127.0234,28.8726 L127.0234,23.1516 C127.0234,23.0626 126.9584,22.9976 126.8774,22.9976 L126.4294,22.9976 C126.3404,22.9976 126.2844,23.0706 126.2844,23.1516 L126.2844,28.8726 C126.2844,28.9626 126.3484,29.0356 126.4294,29.0356 L126.8774,29.0356 C126.9664,29.0356 127.0234,28.9536 127.0234,28.8726" id="Fill-233" fill="#243881"></path>
                <path d="M38.8945,39.3179 L38.8945,33.5969 C38.8945,33.5069 38.8305,33.4429 38.7485,33.4429 L38.3015,33.4429 C38.2115,33.4429 38.1555,33.5159 38.1555,33.5969 L38.1555,39.3179 C38.1555,39.4069 38.2205,39.4799 38.3015,39.4799 L38.7485,39.4799 C38.8375,39.4799 38.8945,39.3989 38.8945,39.3179" id="Fill-234" fill="#243881"></path>
                <path d="M43.0713,39.3179 L43.0713,33.5969 C43.0713,33.5069 43.0073,33.4429 42.9253,33.4429 L42.4783,33.4429 C42.3883,33.4429 42.3323,33.5159 42.3323,33.5969 L42.3323,39.3179 C42.3323,39.4069 42.3973,39.4799 42.4783,39.4799 L42.9253,39.4799 C43.0143,39.4799 43.0713,39.3989 43.0713,39.3179" id="Fill-235" fill="#243881"></path>
                <path d="M48.6787,39.2447 L48.6787,33.5977 C48.6787,33.5157 48.6217,33.4427 48.5327,33.4427 L48.1017,33.4427 C48.0207,33.4427 47.9547,33.5157 47.9547,33.5977 L47.9547,38.3507 C47.9547,38.3587 47.9547,38.3757 47.9477,38.3757 L47.9307,38.3507 L45.4367,33.6047 C45.3707,33.4827 45.3307,33.4427 45.1027,33.4427 L44.6567,33.4427 C44.5257,33.4427 44.4207,33.5407 44.4207,33.6707 L44.4207,39.3837 C44.4207,39.4647 44.4857,39.4797 44.5667,39.4797 L44.9897,39.4797 C45.0707,39.4797 45.1347,39.4067 45.1347,39.3257 L45.1347,34.5807 C45.1347,34.5637 45.1347,34.5567 45.1437,34.5567 C45.1527,34.5567 45.1597,34.5637 45.1677,34.5807 L47.6797,39.3507 C47.7197,39.4317 47.8087,39.4797 47.9387,39.4797 L48.4427,39.4797 C48.5727,39.4797 48.6787,39.3747 48.6787,39.2447" id="Fill-236" fill="#243881"></path>
                <path d="M54.0742,33.5806 C54.0742,33.4996 54.0162,33.4426 53.9352,33.4426 L53.4572,33.4426 C53.3912,33.4426 53.3352,33.4996 53.3182,33.5646 L51.8962,38.7406 C51.8632,38.8536 51.8232,38.9116 51.7422,38.9116 C51.6522,38.9116 51.6122,38.8536 51.5792,38.7406 L50.1652,33.5646 C50.1492,33.4996 50.0842,33.4426 50.0192,33.4426 L49.5482,33.4426 C49.4672,33.4426 49.4022,33.4996 49.4022,33.5806 C49.4022,33.5976 49.4022,33.6136 49.4102,33.6296 L50.9132,38.9206 C51.0592,39.4316 51.4412,39.5366 51.7422,39.5366 C52.0512,39.5366 52.4252,39.4316 52.5712,38.9206 L54.0662,33.6296 C54.0742,33.6136 54.0742,33.5976 54.0742,33.5806" id="Fill-237" fill="#243881"></path>
                <path d="M58.1699,39.3824 L58.1699,38.9684 C58.1699,38.9114 58.1379,38.8704 58.0799,38.8704 L56.5129,38.8704 C55.6499,38.8704 55.5119,38.6434 55.5119,38.0264 L55.5119,36.6604 L58.0069,36.6604 C58.0969,36.6604 58.1699,36.5874 58.1699,36.4974 L58.1699,36.1904 C58.1699,36.1004 58.0969,36.0274 58.0069,36.0274 L55.5119,36.0274 L55.5119,34.8974 C55.5119,34.2794 55.6499,34.0524 56.5129,34.0524 L58.0799,34.0524 C58.1379,34.0524 58.1699,34.0114 58.1699,33.9544 L58.1699,33.5484 C58.1699,33.4994 58.1379,33.4434 58.0889,33.4354 C57.7469,33.4024 56.9829,33.3864 56.5039,33.3864 C55.3659,33.3864 54.7739,33.8164 54.7739,34.8974 L54.7739,38.0264 C54.7739,39.1074 55.3659,39.5364 56.5039,39.5364 C56.9829,39.5364 57.7799,39.5284 58.0889,39.4964 C58.1379,39.4884 58.1699,39.4324 58.1699,39.3824" id="Fill-238" fill="#243881"></path>
                <path d="M62.6797,37.9117 C62.6797,37.2627 62.3467,36.8147 61.4037,36.2547 L60.6567,35.8077 C60.0387,35.4337 59.7707,35.2067 59.7707,34.8237 C59.7707,34.2307 60.1277,34.0527 60.9647,34.0527 C61.4367,34.0527 62.0047,34.0767 62.3637,34.1007 L62.3787,34.1007 C62.4597,34.1007 62.5177,34.0527 62.5177,33.9717 L62.5177,33.6217 C62.5177,33.5407 62.4597,33.4997 62.3787,33.4827 C62.0707,33.4337 61.4447,33.3867 60.9647,33.3867 C59.7297,33.3867 59.0237,33.8417 59.0237,34.8237 C59.0237,35.4737 59.3967,35.8897 60.1447,36.3447 L60.9327,36.8237 C61.6717,37.2787 61.9087,37.5057 61.9087,37.9117 C61.9087,38.4807 61.6477,38.8707 60.6717,38.8707 C60.2987,38.8707 59.7047,38.8547 59.3307,38.8217 L59.3077,38.8217 C59.2347,38.8217 59.1687,38.8627 59.1687,38.9517 L59.1687,39.2767 C59.1687,39.3667 59.1857,39.3987 59.3237,39.4237 C59.6817,39.4797 60.1037,39.5377 60.6717,39.5377 C62.2737,39.5377 62.6797,38.6927 62.6797,37.9117" id="Fill-239" fill="#243881"></path>
                <path d="M67.5957,33.9468 L67.5957,33.5898 C67.5957,33.4998 67.5307,33.4428 67.4417,33.4428 L63.5337,33.4428 C63.4437,33.4428 63.3707,33.5078 63.3707,33.5898 L63.3707,33.9468 C63.3707,34.0358 63.4437,34.0768 63.5337,34.0768 L65.1167,34.0768 L65.1167,39.3178 C65.1167,39.4068 65.1827,39.4798 65.2637,39.4798 L65.7107,39.4798 C65.7997,39.4798 65.8577,39.3988 65.8577,39.3178 L65.8577,34.0768 L67.4417,34.0768 C67.5307,34.0768 67.5957,34.0278 67.5957,33.9468" id="Fill-240" fill="#243881"></path>
                <path d="M69.335,39.3179 L69.335,33.5969 C69.335,33.5069 69.27,33.4429 69.189,33.4429 L68.741,33.4429 C68.652,33.4429 68.596,33.5159 68.596,33.5969 L68.596,39.3179 C68.596,39.4069 68.66,39.4799 68.741,39.4799 L69.189,39.4799 C69.277,39.4799 69.335,39.3989 69.335,39.3179" id="Fill-241" fill="#243881"></path>
                <path d="M74.1943,39.2691 L74.1943,38.9361 C74.1943,38.8461 74.1533,38.8061 74.0633,38.8061 L74.0313,38.8061 C73.7383,38.8311 73.1543,38.8711 72.6903,38.8711 C71.8943,38.8711 71.2773,38.3911 71.2773,37.0271 L71.2773,35.8971 C71.2773,34.5161 71.8943,34.0521 72.6903,34.0521 C73.1623,34.0521 73.7633,34.1011 74.0553,34.1251 L74.0803,34.1251 C74.1623,34.1251 74.1773,34.0841 74.1773,34.0361 L74.1773,33.6221 C74.1773,33.5481 74.1213,33.5241 74.0483,33.5161 C73.6903,33.4591 73.1953,33.3861 72.6823,33.3861 C71.6833,33.3861 70.5373,33.9061 70.5373,35.8971 L70.5373,37.0271 C70.5373,39.0001 71.6833,39.5381 72.6823,39.5381 C73.3733,39.5381 73.6903,39.4971 74.0313,39.4311 C74.1213,39.4151 74.1943,39.3671 74.1943,39.2691" id="Fill-242" fill="#243881"></path>
                <path d="M75.9326,39.3179 L75.9326,33.5969 C75.9326,33.5069 75.8686,33.4429 75.7866,33.4429 L75.3396,33.4429 C75.2496,33.4429 75.1936,33.5159 75.1936,33.5969 L75.1936,39.3179 C75.1936,39.4069 75.2586,39.4799 75.3396,39.4799 L75.7866,39.4799 C75.8756,39.4799 75.9326,39.3989 75.9326,39.3179" id="Fill-243" fill="#243881"></path>
                <path d="M78.1025,39.7808 L78.1025,33.5968 C78.1025,33.5158 78.0295,33.4428 77.9485,33.4428 L77.5175,33.4428 C77.4365,33.4428 77.3635,33.5158 77.3635,33.5968 L77.3635,39.7808 C77.3635,40.1788 77.2735,40.3498 76.8425,40.3498 L76.5265,40.3498 C76.4375,40.3498 76.3635,40.3988 76.3635,40.4888 L76.3635,40.7888 C76.3635,40.8298 76.3795,40.8618 76.4125,40.8788 C76.4605,40.9028 76.6645,40.9428 76.8425,40.9428 C77.7375,40.9428 78.1025,40.5608 78.1025,39.7808" id="Fill-244" fill="#243881"></path>
                <path d="M82.7988,37.9117 C82.7988,37.2627 82.4658,36.8147 81.5238,36.2547 L80.7768,35.8077 C80.1578,35.4337 79.8908,35.2067 79.8908,34.8237 C79.8908,34.2307 80.2478,34.0527 81.0848,34.0527 C81.5568,34.0527 82.1248,34.0767 82.4828,34.1007 L82.4988,34.1007 C82.5798,34.1007 82.6368,34.0527 82.6368,33.9717 L82.6368,33.6217 C82.6368,33.5407 82.5798,33.4997 82.4988,33.4827 C82.1898,33.4337 81.5648,33.3867 81.0848,33.3867 C79.8498,33.3867 79.1428,33.8417 79.1428,34.8237 C79.1428,35.4737 79.5168,35.8897 80.2648,36.3447 L81.0518,36.8237 C81.7918,37.2787 82.0278,37.5057 82.0278,37.9117 C82.0278,38.4807 81.7678,38.8707 80.7928,38.8707 C80.4188,38.8707 79.8248,38.8547 79.4508,38.8217 L79.4268,38.8217 C79.3538,38.8217 79.2888,38.8627 79.2888,38.9517 L79.2888,39.2767 C79.2888,39.3667 79.3048,39.3987 79.4438,39.4237 C79.8008,39.4797 80.2238,39.5377 80.7928,39.5377 C82.3938,39.5377 82.7988,38.6927 82.7988,37.9117" id="Fill-245" fill="#243881"></path>
                <path d="M87.7891,39.399 C87.7891,39.367 87.7721,39.326 87.7481,39.302 L85.3021,36.377 L87.7481,33.614 C87.7721,33.589 87.7801,33.556 87.7801,33.533 C87.7801,33.483 87.7481,33.443 87.6671,33.443 L87.0821,33.443 C87.0011,33.443 86.9681,33.467 86.9191,33.516 L84.5791,36.222 L84.5791,33.597 C84.5791,33.508 84.5061,33.443 84.4251,33.443 L83.9941,33.443 C83.9041,33.443 83.8391,33.516 83.8391,33.597 L83.8391,39.318 C83.8391,39.407 83.9041,39.48 83.9861,39.48 L84.4341,39.48 C84.5211,39.48 84.5791,39.399 84.5791,39.318 L84.5791,36.612 L86.8711,39.399 C86.9191,39.456 86.9771,39.48 87.0491,39.48 L87.6841,39.48 C87.7571,39.48 87.7891,39.44 87.7891,39.399" id="Fill-246" fill="#243881"></path>
                <path d="M89.5928,39.3179 L89.5928,33.5969 C89.5928,33.5069 89.5278,33.4429 89.4468,33.4429 L88.9998,33.4429 C88.9098,33.4429 88.8538,33.5159 88.8538,33.5969 L88.8538,39.3179 C88.8538,39.4069 88.9178,39.4799 88.9998,39.4799 L89.4468,39.4799 C89.5358,39.4799 89.5928,39.3989 89.5928,39.3179" id="Fill-247" fill="#243881"></path>
                <path d="M96.5732,34.4019 L96.5732,33.6459 C96.5732,33.5409 96.5242,33.4999 96.4102,33.4829 C96.1262,33.4429 95.7192,33.3789 94.8422,33.3789 C93.7932,33.3789 92.8592,33.6369 92.8592,35.1169 L92.8592,39.3179 C92.8592,39.4069 92.9322,39.4799 93.0212,39.4799 L94.0782,39.4799 C94.1672,39.4799 94.2402,39.4069 94.2402,39.3179 L94.2402,36.9449 L96.3442,36.9449 C96.4342,36.9449 96.5082,36.8729 96.5082,36.7829 L96.5082,36.0099 C96.5082,35.9219 96.4342,35.8479 96.3442,35.8479 L94.2402,35.8479 L94.2402,35.1169 C94.2402,34.6939 94.3792,34.5639 94.7612,34.5639 L96.4102,34.5639 C96.5002,34.5639 96.5732,34.4909 96.5732,34.4019" id="Fill-248" fill="#243881"></path>
                <path d="M102.1963,36.9449 L102.1963,35.9779 C102.1963,34.0929 101.1323,33.3699 99.7913,33.3699 C98.4503,33.3699 97.3843,34.0929 97.3843,35.9779 L97.3843,36.9449 C97.3843,38.8309 98.4503,39.5529 99.7913,39.5529 C101.1323,39.5529 102.1963,38.8309 102.1963,36.9449 Z M100.7983,36.9449 C100.7983,37.9209 100.4723,38.3349 99.7913,38.3349 C99.1083,38.3349 98.7923,37.9209 98.7923,36.9449 L98.7923,35.9779 C98.7923,35.0029 99.1083,34.5889 99.7913,34.5889 C100.4723,34.5889 100.7983,35.0029 100.7983,35.9779 L100.7983,36.9449 Z" id="Fill-249" fill="#243881"></path>
                <path d="M107.9814,39.1714 L107.9814,33.5974 C107.9814,33.5084 107.9094,33.4424 107.8194,33.4424 L106.8604,33.4424 C106.7714,33.4424 106.6984,33.5084 106.6984,33.5974 L106.6984,37.0344 C106.6984,37.0914 106.6724,37.1084 106.6574,37.1084 C106.6324,37.1084 106.6254,37.0914 106.5914,37.0424 L104.6674,33.6944 C104.5684,33.5244 104.4874,33.4424 104.3254,33.4424 L103.5034,33.4424 C103.3344,33.4424 103.1954,33.5814 103.1954,33.7514 L103.1954,39.3174 C103.1954,39.4064 103.2684,39.4804 103.3584,39.4804 L104.3174,39.4804 C104.4064,39.4804 104.4794,39.4064 104.4794,39.3174 L104.4794,36.0264 C104.4794,35.9784 104.4964,35.9614 104.5194,35.9614 C104.5444,35.9614 104.5604,35.9784 104.5924,36.0264 L106.4464,39.2294 C106.5764,39.4474 106.6984,39.4804 106.8694,39.4804 L107.6654,39.4804 C107.8354,39.4804 107.9814,39.3424 107.9814,39.1714" id="Fill-250" fill="#243881"></path>
                <path d="M113.6787,36.9859 L113.6787,35.9379 C113.6787,34.2229 112.7027,33.3699 111.0857,33.3699 C110.4107,33.3699 109.6887,33.4339 109.3557,33.4919 C109.1997,33.5159 109.1187,33.5899 109.1187,33.7759 L109.1187,39.1469 C109.1187,39.3349 109.1997,39.4079 109.3557,39.4309 C109.6887,39.4889 110.4107,39.5529 111.0857,39.5529 C112.7027,39.5529 113.6787,38.6999 113.6787,36.9859 Z M112.2877,36.9859 C112.2877,38.0829 111.8177,38.3759 111.0857,38.3759 C110.8827,38.3759 110.6217,38.3679 110.5087,38.3589 L110.5087,34.5639 C110.6217,34.5559 110.8827,34.5479 111.0857,34.5479 C111.8177,34.5479 112.2877,34.8399 112.2877,35.9379 L112.2877,36.9859 Z" id="Fill-251" fill="#243881"></path>
                <path d="M119.334,36.9449 L119.334,35.9779 C119.334,34.0929 118.27,33.3699 116.929,33.3699 C115.588,33.3699 114.523,34.0929 114.523,35.9779 L114.523,36.9449 C114.523,38.8309 115.588,39.5529 116.929,39.5529 C118.27,39.5529 119.334,38.8309 119.334,36.9449 Z M117.937,36.9449 C117.937,37.9209 117.611,38.3349 116.929,38.3349 C116.246,38.3349 115.929,37.9209 115.929,36.9449 L115.929,35.9779 C115.929,35.0029 116.246,34.5889 116.929,34.5889 C117.611,34.5889 117.937,35.0029 117.937,35.9779 L117.937,36.9449 Z" id="Fill-252" fill="#243881"></path>
                <path d="M124.916,33.5728 C124.916,33.4918 124.859,33.4428 124.778,33.4428 L123.641,33.4428 C123.56,33.4428 123.503,33.5088 123.486,33.5898 L122.471,38.2778 C122.454,38.3668 122.43,38.3998 122.356,38.3998 C122.283,38.3998 122.26,38.3668 122.243,38.2778 L121.228,33.5898 C121.211,33.5088 121.145,33.4428 121.064,33.4428 L119.936,33.4428 C119.854,33.4428 119.789,33.4998 119.789,33.5728 C119.789,33.5898 119.797,33.5968 119.797,33.6138 L121.008,38.6508 C121.195,39.4308 121.796,39.5528 122.356,39.5528 C122.917,39.5528 123.511,39.4308 123.697,38.6508 L124.908,33.6138 C124.908,33.5968 124.916,33.5808 124.916,33.5728" id="Fill-253" fill="#243881"></path>
                <path d="M127.1025,39.3179 L127.1025,33.5969 C127.1025,33.5069 127.0375,33.4429 126.9485,33.4429 L125.8585,33.4429 C125.7695,33.4429 125.7125,33.5069 125.7125,33.5969 L125.7125,39.3179 C125.7125,39.4069 125.7695,39.4799 125.8585,39.4799 L126.9485,39.4799 C127.0375,39.4799 127.1025,39.4069 127.1025,39.3179" id="Fill-254" fill="#243881"></path>
            </g>
        </g>
    </g>
</svg>