<?xml version="1.0" encoding="UTF-8"?>
<svg width="625px" height="506px" viewBox="0 0 625 506" version="1.1" xmlns="http://www.w3.org/2000/svg" xmlns:xlink="http://www.w3.org/1999/xlink">
    <!-- Generator: Sketch 50.2 (55047) - http://www.bohemiancoding.com/sketch -->
    <title>generali</title>
    <desc>Created with Sketch.</desc>
    <defs></defs>
    <g id="Page-1" stroke="none" stroke-width="1" fill="none" fill-rule="evenodd">
        <g id="generali">
            <path d="M151.1216,102.1916 C156.5308,122.7819 124.0003,111.3078 111.8784,124.2558 C111.1084,133.4364 114.941,135.2918 118.2878,140.1413 L106.2611,160.6227 C97.1203,155.9769 85.7817,144.2394 68.9734,147.4532 C60.4052,149.0913 61.7022,151.3622 56.8266,154.4913 C47.1423,160.707 41.5507,155.4462 32.774,167.2917 C25.6544,176.9 30.9011,187.5226 33.8149,196.2918 L0.8776,205.5876 L0.8165,368.1173 L624.4387,368.2548 L624.4307,336.2711 L514.069,335.6295 C524.751,327.8942 542.1835,327.9569 544.5509,313.2873 C546.627,300.4229 544.2073,273.459 544.8376,258.4906 C551.3895,267.0426 554.1712,284.6604 569.5214,302.9818 C583.5386,319.7121 597.5707,317.0434 622.2836,313.7199 C619.3781,308.2048 615.3835,304.7811 611.3793,299.6176 C598.1055,282.4992 605.6169,272.0357 566.8977,275.4357 L540.6856,211.5556 C529.9284,189.1702 518.0517,171.4023 503.1153,159.1919 C484.2575,143.7748 464.3363,139.156 435.5818,136.826 C407.5873,134.558 377.74,132.3224 350.031,130.8867 L350.0593,117.0191 C379.0078,117.1122 408.1267,117.0781 437.2174,117.0473 C470.9206,117.0112 480.5163,106.4418 493.1028,85.9242 C531.6886,83.3454 533.1763,67.3211 544.6561,54.1633 C578.1657,52.4969 594.0923,38.8829 603.2655,11.0941 C509.4931,12.7322 407.3654,11.1531 312.0332,11.1265 C296.9742,11.1225 280.9138,10.3573 268.9224,16.78 C257.106,23.1083 252.7307,31.4546 246.2569,43.7842 C237.0086,32.3251 233.1631,11.6717 197.9212,2.4478 C167.5398,-5.504 146.2128,7.8416 134.6752,25.3714 L117.63,53.2329 C109.504,68.6629 101.0846,71.9943 102.0291,82.1528 C102.4962,87.1759 104.0088,87.1468 104.6392,90.8493 C105.2883,94.6569 101.4623,109.7932 116.5699,112.8445 C133.3471,116.2325 138.9453,99.9589 151.1216,102.1916 Z M183.916,11.3551 C174.2733,17.8442 165.3802,22.6159 165.2589,22.5137 C165.2589,22.5137 157.2144,22.2074 150.6654,23.7267 C152.7722,20.18 158.4635,16.0191 162.6647,14.9042 C166.2521,13.69 173.9105,10.8423 183.916,11.3551 Z" id="path2" fill="#C6291E"></path>
            <path d="M240.2053,116.1045 C266.8693,131.9116 256.1529,168.7323 233.0905,177.9431 C238.2584,196.6406 237.5063,209.0916 222.5155,217.5079 C208.547,225.3502 206.6893,222.0732 206.7357,257.255 C206.7562,272.8138 211.4188,299.1149 196.5536,303.7817 C188.3756,306.3493 171.7058,302.2605 172.2529,321.3869 L173.9119,329.7795 C176.6245,336.5546 184.2696,334.6282 190.1296,332.5931 C197.4094,330.0651 195.6159,328.5521 200.3245,325.322 C207.9622,320.0831 219.6619,326.7513 228.9827,318.2186 C232.2538,306.5894 228.7448,311.3976 234.5876,300.1591 C237.0124,295.4955 234.0351,289.0901 233.6935,281.3264 C233.1424,268.7982 233.6431,248.9219 240.0875,239.7707 C244.6865,237.5065 272.5375,237.5069 282.2667,235.3559 C319.3898,227.1484 359.7003,203.4371 396.0381,224.5676 C486.2756,277.0408 509.9469,215.1103 512.8123,298.9671 C495.2299,309.6686 456.0526,298.4069 476.1999,333.9065 C485.5448,332.9388 525.8263,316.4541 531.7063,312.2244 C531.7113,292.3099 531.604,272.3672 531.5995,252.4422 C531.5945,232.4213 534.3062,228.2361 527.0859,213.8798 L520.5556,203.8163 C507.9618,196.8394 473.6064,206.765 446.378,171.0112 C440.9581,163.8941 436.7043,155.8385 430.9943,149.5668 C417.0608,149.0648 346.7201,142.6854 342.0297,144.5445 C338.0364,146.1266 336.7139,149.5196 329.2886,151.1135 C318.7781,153.37 304.2358,149.0534 297.966,143.3502 L305.4582,135.3778 C314.0932,135.8353 318.7809,141.8304 328.0012,138.4684 C336.0473,135.5352 339.146,127.8183 337.0414,118.4829 C332.4387,116.5434 334.1323,117.181 328.1553,116.944 L294.7676,117.1591 C294.8272,112.5365 297.4748,108.6073 300.0142,104.1047 C330.5929,102.6254 363.2343,109.6601 375.9763,85.9825 L310.6515,85.8337 L316.3324,72.7148 C361.3361,71.2923 411.9011,81.5208 426.9233,54.2014 L325.3222,54.0218 L330.6192,40.8614 C357.0323,39.604 386.8992,40.9278 413.104,40.9278 C439.1691,40.9278 470.4185,43.4172 480.3264,24.8206 C461.1023,22.927 344.5745,24.4022 315.2415,24.4017 C283.6928,24.4013 266.9757,23.3422 258.3462,51.1013 C252.2715,70.6415 244.5669,96.9236 240.2053,116.1045 Z" id="path4" fill="#FFFFFF"></path>
            <path d="M14.235,215.9457 L14.0917,323.4174 C31.0853,322.6502 60.0954,309.1911 74.6264,309.0397 C83.6448,308.9455 122.7025,321.4497 134.9461,323.9495 L135.5036,215.7438 C71.776,201.5407 90.876,191.6651 14.235,215.9457 Z" id="path6" fill="#FFFFFF"></path>
            <path d="M202.0253,78.2733 C196.3703,78.8359 191.2133,79.1456 187.2246,81.0778 C184.1772,100.4039 199.0425,111.4878 180.6678,130.6819 C167.8254,144.0974 153.4331,145.0179 131.0651,145.1993 C126.5339,153.5083 118.4091,163.6267 115.6023,172.2276 C123.3146,185.8014 123.7717,182.7049 115.1598,194.6824 C109.0228,190.4854 98.431,162.9309 76.9921,160.3111 C66.2666,159.0004 67.8196,164.0628 63.3665,170.2476 C42.694,168.6528 37.5088,175.5483 47.7887,192.6842 C75.2408,191.0703 54.7447,181.1755 97.7615,192.4445 C113.8397,196.6561 131.5058,202.0641 147.5452,205.1656 L148.7872,217.6106 C165.3596,216.2373 164.4688,206.7154 175.4199,201.1264 L176.0465,237.757 C197.5882,234.4155 195.3103,225.197 203.6429,208.3162 C215.5367,207.8505 224.6861,204.7827 223.425,191.7483 C222.3445,180.573 210.6671,179.9359 205.0617,171.6324 C241.5455,168.5563 259.5045,140.9336 224.0885,122.1833 C226.5933,105.9492 256.1356,53.9354 216.4658,26.5792 C214.9191,37.7049 212.1615,45.8861 206.2159,51.959 C193.9423,64.494 202.2313,61.3253 202.0253,78.2733 Z" id="path8" fill="#FFFFFF"></path>
            <path d="M250.4938,251.9174 C247.0694,259.341 246.5155,270.9597 246.7866,279.748 C247.2363,294.3631 250.7917,294.0702 254.4557,304.0609 C238.5422,309.4953 246.1022,307.8636 241.8483,321.8003 C239.5677,329.2738 233.2943,332.4413 225.6511,335.1962 L297.1183,335.6678 C296.1601,316.8065 299.619,305.8054 312.4128,299.3796 C319.8778,295.6305 327.2062,295.746 335.8549,297.3436 C345.1525,299.0617 349.3445,302.1755 354.6634,296.7824 C372.7543,278.4396 369.2954,281.0409 360.664,266.3525 C355.2942,257.2145 344.3894,241.5016 341.2161,232.7565 C316.6571,235.3241 295.9736,251.7583 250.4938,251.9174 Z" id="path10" fill="#FFFFFF"></path>
            <path d="M380.2106,335.7092 L461.2969,335.6573 C458.3214,322.4788 453.7428,310.6586 464.3502,300.4856 C471.9588,293.1885 486.5671,293.8206 498.038,289.3412 C498.8675,281.6139 497.3045,271.4031 495.1326,265.0655 C468.1583,258.5551 465.5112,264.3602 410.8724,248.8623 C424.1569,287.8232 433.8975,275.1194 397.1418,316.7065 C391.6215,322.9526 383.1097,328.1979 380.2106,335.7092 Z" id="path12" fill="#FFFFFF"></path>
            <path d="M311.0517,335.2981 L360.6103,335.7051 C370.4668,325.719 407.9206,287.312 408.5995,281.1887 C409.4013,273.9525 396.8953,251.7323 393.4951,244.7167 C389.7797,237.0508 389.7192,235.2786 380.7172,231.9638 C371.2154,228.4653 365.0511,228.8014 354.7243,229.5663 C368.9211,266.7095 396.0449,269.8046 370.3854,299.5574 C356.7221,315.4004 360.2984,315.4745 334.2137,310.4917 C315.8426,306.9823 306.9957,316.319 311.0517,335.2981 Z" id="path14" fill="#FFFFFF"></path>
            <path d="M134.3249,58.0414 C141.6011,60.6563 155.8547,57.6517 147.4807,68.3963 C138.0571,80.488 136.7287,68.0298 130.7473,64.334 C123.9017,66.415 118.2058,76.2219 115.4854,80.7827 C118.2868,84.7992 120.4196,85.4436 124.2037,88.3427 C121.4005,94.5511 119.4146,93.3742 117.8734,100.0946 C128.8668,100.4562 156.2398,72.3005 163.5297,101.0342 C169.7022,125.3635 141.6815,126.2998 130.6722,126.8692 C128.3411,126.9897 128.6085,126.7914 126.3347,127.3654 C122.27,128.3908 125.2983,126.9888 123.0199,128.9115 C137.6046,141.3206 167.1,127.9179 173.463,118.653 C185.2309,101.5194 158.4177,77.1692 186.8685,66.7728 L184.9258,51.9731 C196.2553,44.9233 203.1135,39.2661 202.9866,22.5299 C193.1838,25.3022 177.5031,40.0001 169.2319,40.9915 C154.3931,42.7705 130.86,38.0469 134.3249,58.0414 Z" id="path16" fill="#FFFFFF"></path>
            <path d="M148.7781,231.9552 L148.6185,335.4641 L161.0399,335.701 C159.7297,316.9471 151.8446,293.8165 193.3857,291.2203 L193.6263,246.9046 C180.7297,250.7223 174.1047,251.8788 159.5973,251.2699 L163.2022,228.1616 L148.7781,231.9552 Z" id="path18" fill="#FFFFFF"></path>
            <path d="M430.2467,72.8057 C449.6645,72.5997 469.1256,72.9572 488.5408,72.7825 C510.2602,72.5874 519.7088,67.4254 527.965,54.2587 L443.5853,54.015 C438.6443,60.0415 434.4791,67.033 430.2467,72.8057 Z" id="path20" fill="#FFFFFF"></path>
            <path d="M380.0669,103.9306 L390.6437,103.9396 L435.5637,103.9282 C456.4469,103.8937 469.715,99.3615 476.9939,85.9051 L392.0689,85.8837 C387.6341,93.31 384.9878,96.954 380.0669,103.9301 L380.0669,103.9306 Z" id="path22" fill="#FFFFFF"></path>
            <path d="M485.1514,40.7104 L539.8434,40.9201 C559.3772,40.9241 574.7359,37.1264 581.3009,24.8124 L496.0553,24.5536 C493.2262,32.5788 488.5954,34.623 485.1514,40.7104 Z" id="path24" fill="#FFFFFF"></path>
            <path d="M511.5181,188.8851 C502.8849,172.9166 476.6915,150.6324 449.3289,152.2177 C452.2817,155.5638 455.6242,161.1728 458.883,164.9642 C462.6785,169.3795 466.5248,173.5283 472.082,177.3887 C481.7757,184.1229 497.7383,187.4117 511.5181,188.8851 Z" id="path26" fill="#FFFFFF"></path>
            <path d="M27.4503,233.1908 L27.0092,245.5539 L67.7836,235.2718 L68.0283,222.2083 C57.898,222.8804 35.2331,228.524 27.4503,233.1908 Z" id="path28" fill="#C6291E"></path>
            <path d="M27.1452,286.5917 L27.1752,298.4119 C33.1999,298.7911 59.7307,291.1084 67.7823,288.8487 L68.1515,275.9352 C61.3056,276.3336 31.8497,284.1223 27.1452,286.5917 Z" id="path30" fill="#C6291E"></path>
            <path d="M81.477,288.7177 L121.9612,299.2718 L122.2159,286.3743 C116.3286,283.8977 88.4485,276.2713 81.2632,276.1585 L81.477,288.7177 Z" id="path32" fill="#C6291E"></path>
            <path d="M81.3228,261.7926 C89.001,264.387 115.2681,271.7896 122.3014,271.6382 L122.1309,259.4105 L81.3828,248.5549 L81.3228,261.7926 Z" id="path34" fill="#C6291E"></path>
            <path d="M27.1525,259.079 L27.1216,271.364 C34.993,272.1971 58.8439,264.3766 67.9501,262.0163 L68.0724,249.0893 L27.1525,259.079 Z" id="path36" fill="#C6291E"></path>
            <polygon id="path38" fill="#C6291E" points="81.2892 234.908 121.848 245.7272 122.0308 232.4477 81.5406 221.7462"></polygon>
            <path d="M164.6591,465.664 L164.6591,505.2621 L86.968,505.2621 L86.968,500.1639 L101.3703,500.1639 L101.3703,402.6853 L88.2384,402.6853 L88.2384,397.7863 L163.549,397.7863 L163.549,435.4682 L160.5432,435.4682 C160.2303,433.3662 159.9155,431.347 159.5988,429.4644 C159.2747,427.5635 158.9153,425.827 158.4869,424.244 C157.9588,422.6612 157.5087,421.18 157.1369,419.8084 C156.7778,418.4328 156.3227,417.1665 155.7939,416.0185 C153.9016,411.7934 151.2606,408.6285 147.8879,406.5097 C144.7177,404.6172 139.9327,402.9266 134.8771,402.6643 C132.5726,402.543 119.7467,402.4871 117.9474,402.4871 L117.9692,447.1628 L123.3632,447.1628 C125.895,447.1628 128.2556,446.6907 130.4814,445.7414 C132.4835,444.7004 134.6674,442.6609 135.2257,442.1166 C135.7653,441.5523 136.2658,440.8 136.9711,439.5783 C137.6678,438.3609 137.8601,438.0349 138.1144,437.3115 C138.3799,436.6029 138.8774,435.3702 139.1817,434.5084 C139.4869,433.6656 139.4869,432.9518 139.8198,431.5105 C140.1382,430.0758 140.5999,426.4549 140.5999,426.4549 L144.0884,426.4549 L144.0884,475.317 L140.289,475.317 C140.1894,474.2724 139.7087,470.4757 139.5004,469.6263 C139.176,468.0565 138.7456,466.4724 138.2319,464.8828 C137.7019,463.4096 137.1494,462.094 136.5748,460.9347 C135.9898,459.7755 135.5576,458.8308 134.9054,457.9239 C134.1053,456.8046 131.9601,454.8748 130.1619,454.1349 C128.2556,453.3909 126.1445,453.0288 123.8343,453.0288 L117.9692,453.0288 L117.9692,500.1639 L127.7872,500.1639 C133.5896,500.1639 138.1287,499.7932 141.3924,499.0643 C145.2961,498.2141 148.4093,496.6357 150.7394,494.3057 C153.1614,491.8779 155.2174,488.344 156.9058,483.6987 C157.3191,482.5375 157.9079,480.7316 158.0926,479.981 C158.2689,479.2501 158.7532,477.2687 158.9618,475.7957 C159.27,474.3093 159.5735,472.7081 159.8321,470.9705 C160.0927,469.2262 160.3365,467.4622 160.5432,465.664 L164.6591,465.664 Z M586.9939,505.2621 L586.9939,500.1639 L592.6201,500.1639 L592.455,402.8795 L579.0131,402.8795 L579.0131,397.964 L623.4895,397.964 L623.4895,402.8795 L609.2587,402.8795 L609.2587,500.1639 L623.659,500.1639 L623.659,505.2621 L586.9939,505.2621 Z M49.5235,448.9407 L49.5235,453.718 L63.8964,453.718 L63.8964,488.2281 C61.4794,497.0526 48.566,500.6872 44.7343,500.6872 C17.8928,500.6872 19.8126,461.394 19.8126,450.8542 C19.8126,441.2683 18.8569,401.0103 44.7343,401.0103 C62.9465,401.0103 72.5285,419.2198 76.3547,435.5155 L79.2403,435.5155 C79.2403,428.8054 79.3806,396.824 79.3217,396.8934 C79.3806,396.6135 66.8475,405.919 66.7735,405.8012 C67.0665,405.7134 61.0262,397.1825 44.7343,397.1825 C13.1113,397.1825 1.4647,428.8054 1.5974,450.8542 C1.7292,471.0492 10.3252,504.1482 44.7343,505.4839 C55.0207,505.8782 62.7647,500.056 66.7735,493.9719 C66.8475,493.823 80.1805,505.4299 80.1882,505.4839 L80.1882,453.718 L93.6131,453.718 L93.6131,448.9407 L49.5235,448.9407 Z M418.4265,424.9217 C418.4265,420.0857 417.9504,404.457 404.9691,402.5276 L382.2701,402.5276 L382.2701,447.3112 L400.2756,447.3112 C413.7454,447.3112 418.4265,436.5162 418.4265,424.9217 Z M529.9293,500.072 L529.7521,402.8795 L515.2359,402.8795 L515.2359,397.964 L563.1942,397.964 L563.1942,402.8795 L547.6676,402.8795 L547.6676,500.072 L556.7813,500.072 C556.7813,500.072 565.57,500.0976 566.0562,500.056 C570.9723,499.6691 574.8058,493.0883 575.8506,491.2057 C576.9084,489.3346 577.7996,487.0593 578.5657,484.5566 C579.3124,482.0485 579.6784,478.9241 579.9079,477.7571 C580.1401,476.6033 581.1175,468.3884 581.087,467.1598 L583.9594,467.1598 L583.9594,505.2624 L531.7883,505.2621 L515.2359,505.2621 L491.2772,505.2621 L491.2772,500.072 L503.1381,500.072 C502.6224,498.4862 502.1466,497.267 501.721,496.412 C501.5019,495.8867 501.298,495.3568 501.0906,494.8345 C500.8801,494.2952 500.661,493.771 500.4478,493.2325 C500.2469,492.7138 500.0582,492.1869 499.8933,491.6655 C499.7368,491.1262 499.5615,490.5915 499.3367,490.0635 C499.2382,489.7506 498.8513,488.7438 498.1631,487.0518 C497.4637,485.3615 496.7298,483.516 495.945,481.493 C495.1487,479.4909 494.4113,477.5881 493.7258,475.7853 C493.0462,473.9832 492.6015,472.9252 492.3748,472.6124 L457.8881,472.6124 C457.7791,473.0268 457.4396,474.0724 456.8623,475.7 C456.2803,477.3427 455.6623,479.0776 455.0308,480.9328 C454.4062,482.7849 453.701,484.4345 453.2954,486.0051 C452.9008,487.4935 452.4069,488.9202 452.1804,490.1887 C451.9388,491.4522 451.6202,492.6638 451.6923,494.3995 C451.7547,496.1371 452.8546,497.4235 454.2697,498.6948 C456.2652,500.4787 457.8408,500.4011 460.241,500.6116 C461.9302,500.745 462.9577,500.6628 462.9577,500.6628 L462.9577,505.2621 L432.5698,505.2621 L432.5698,505.1853 L432.115,505.1763 C399.0396,505.1763 432.3822,455.9989 400.8738,453.3763 L382.2701,453.1746 L382.2701,500.1433 L396.4583,500.1433 L396.4734,505.2624 L351.9978,505.2624 L352.0272,500.1433 L366.4182,500.1433 L366.4182,402.5279 L352.0272,402.5279 L351.9978,397.7755 L405.9077,397.7755 C424.6154,398.4701 435.9428,404.7963 435.8462,422.8341 C435.7248,445.9733 411.6693,450.9937 411.6864,451.005 C411.4456,451.2061 420.9593,451.6411 426.5581,457.2817 C431.5671,462.3048 431.9053,473.2202 431.9053,478.0482 L431.9053,496.4008 C431.9053,497.3204 431.6808,500.5208 435.7986,500.7123 C435.8327,500.7073 435.8613,500.7073 435.8888,500.7043 C438.4179,500.3612 439.2068,499.7079 440.9375,497.9656 C442.3073,496.595 444.0565,493.2911 444.9068,490.8257 C445.7686,488.3732 446.4207,486.3873 448.7156,479.8984 C450.295,475.4212 452.08,470.3203 454.0964,464.6192 C456.088,458.928 458.1316,453.072 460.1821,447.1183 C462.2373,441.1478 464.2471,435.2904 466.195,429.5373 C468.1478,423.7935 469.9119,418.6098 471.4941,414.0134 C473.0743,409.4215 474.3723,405.6485 475.3618,402.6853 C476.3829,399.741 476.9307,398.0944 477.0331,397.7863 L482.74,397.7863 L521.1893,500.072 L529.9293,500.072 Z M490.171,467.8898 L474.0338,422.6384 L459.1508,467.8898 L490.171,467.8898 Z M345.7337,465.5206 L345.7337,505.119 L268.0484,505.119 L268.0484,500.0216 L282.4488,500.0216 L282.4488,402.543 L268.4532,402.543 C264.282,402.6077 255.5475,403.494 255.0167,411.2263 L255.0167,505.2753 L252.8003,505.2621 L194.0335,420.9544 L193.9432,490.7214 C193.9432,498.4862 205.5746,501.3972 210.4266,501.3972 L210.4266,505.2753 L172.6162,505.2753 L172.6162,501.3972 C172.5103,501.4062 188.8263,498.3734 189.0877,490.7214 C189.0877,490.7214 189.1524,417.9843 189.1524,413.4584 C189.1524,406.015 180.1565,402.6853 168.7458,402.6853 L168.7315,397.6478 L198.793,397.6478 L249.9223,473.109 L249.9639,414.1689 C249.9639,407.3776 245.3362,402.4871 233.7235,402.6853 L233.6971,397.6478 C270.6751,397.6458 307.6438,397.6458 344.6218,397.6458 L344.6218,435.325 L341.6178,435.325 C341.3108,433.2238 340.9844,431.2041 340.6735,429.3212 C340.3617,427.4204 339.9949,425.6855 339.5615,424.1003 C339.044,422.5181 338.5842,421.0396 338.2108,419.6627 C337.8487,418.2896 337.4021,417.0231 336.8732,415.8751 C334.9716,411.6502 332.1723,408.301 328.9606,406.3666 C325.7517,404.4253 320.2127,402.5212 316.4597,402.5212 C312.7068,402.5212 300.8726,402.473 299.0807,402.473 L299.0477,447.0219 L304.4359,447.0219 C306.968,447.0219 309.3349,446.5483 311.5596,445.5976 C313.5534,444.5567 315.1439,443.3451 316.2976,441.9729 C316.6237,441.4399 316.9071,440.9928 317.1707,440.6285 C317.4316,440.2567 317.7274,439.853 318.043,439.4367 C318.2505,439.0155 318.4618,438.6187 318.6715,438.2453 C318.8828,437.8796 319.098,437.4322 319.3038,436.9039 C319.514,436.37 319.6772,435.9188 319.7919,435.5611 C319.8924,435.1879 320.042,434.7975 320.2545,434.3666 C320.4716,433.9552 320.6004,433.5273 320.6554,433.1017 C320.7057,432.6947 320.7825,432.2712 320.8915,431.8403 C321.212,431.0027 321.3675,430.1563 321.3675,429.3212 C321.5703,428.2541 321.6925,427.2621 321.6925,426.3126 L325.1581,426.3126 L325.1581,475.1746 L321.3675,475.1746 C321.2508,474.1301 321.1493,473.1318 321.048,472.1726 C320.9399,471.2293 320.7825,470.3326 320.5739,469.484 C320.2545,467.9086 319.8327,466.3292 319.3038,464.7404 C318.7879,463.2691 318.224,461.9522 317.641,460.7896 C317.0645,459.6339 316.5128,458.631 315.9859,457.7827 C314.6142,455.993 313.0328,454.7316 311.2412,453.9917 C309.3349,453.2485 307.2173,452.8864 304.9031,452.8864 L299.0477,452.8864 L299.0477,500.0215 L308.8666,500.0215 C314.6623,500.0215 319.2023,499.6512 322.4651,498.922 C326.3746,498.0698 329.4914,496.4926 331.8044,494.1622 C334.2245,491.7355 336.2951,488.1997 337.9937,483.5555 C338.4147,482.3943 338.8004,481.1668 339.173,479.8405 C339.5332,478.5305 339.8251,477.1247 340.0345,475.6523 C340.3617,474.1631 340.6405,472.565 340.9115,470.8273 C341.1817,469.0803 341.412,467.3198 341.6178,465.5205 L345.7337,465.5206 Z" id="path40" fill="#C6291E"></path>
        </g>
    </g>
</svg>