<?xml version="1.0" encoding="UTF-8"?>
<svg width="258px" height="62px" viewBox="0 0 258 62" version="1.1" xmlns="http://www.w3.org/2000/svg" xmlns:xlink="http://www.w3.org/1999/xlink">
    <!-- Generator: Sketch 50.2 (55047) - http://www.bohemiancoding.com/sketch -->
    <title>getByBus</title>
    <desc>Created with Sketch.</desc>
    <defs>
        <path d="M218.1392,44.00367 L209.6873,44.00367 L209.6873,45.29873 C209.6873,47.07092 209.8917,48.67269 210.3007,50.10408 C210.7097,51.53546 211.4254,52.75099 212.4478,53.75069 C213.4702,54.75039 214.8561,55.50015 216.6056,56 C218.3551,56.49985 220.5476,56.74977 223.1831,56.74977 C225.1825,56.74977 227.0115,56.54529 228.6701,56.13632 C230.3287,55.72735 231.76,55.04575 232.9642,54.09149 C234.1684,53.13723 235.1113,51.94443 235.7929,50.51304 C236.4745,49.08166 236.8153,47.38901 236.8153,45.43505 C236.8153,42.66316 236.2019,40.47067 234.975,38.85752 C233.7481,37.24437 231.6578,35.93796 228.7042,34.93826 L223.0468,33.02976 C221.4564,32.52991 220.3772,31.91647 219.8092,31.18941 C219.2411,30.46236 218.9571,29.64443 218.9571,28.73562 C218.9571,27.41783 219.4002,26.42951 220.2863,25.77061 C221.1724,25.11172 222.2061,24.78228 223.3876,24.78228 C224.9326,24.78228 226.0118,25.22532 226.6252,26.11142 C227.2387,26.99752 227.5454,28.3948 227.5454,30.30332 L235.9974,30.30332 L235.9974,28.80378 C235.9974,25.48659 234.975,22.91922 232.9301,21.10159 C230.8853,19.28395 227.7272,18.37515 223.4558,18.37515 C221.0474,18.37515 218.9912,18.67051 217.2872,19.26124 C215.5832,19.85197 214.1859,20.64718 213.0953,21.64688 C212.0047,22.64658 211.2095,23.81666 210.7097,25.15717 C210.2098,26.49767 209.9599,27.91768 209.9599,29.41723 C209.9599,32.00736 210.6188,34.13168 211.9366,35.79028 C213.2543,37.44887 215.2083,38.73255 217.7984,39.64137 L224.41,42.027 C225.3188,42.39053 226.114,42.87901 226.7957,43.49246 C227.4773,44.10592 227.8181,45.00336 227.8181,46.18482 C227.8181,47.63893 227.3864,48.72949 226.523,49.45655 C225.6596,50.1836 224.5009,50.54712 223.0468,50.54712 C221.4564,50.54712 220.2408,50.05864 219.4002,49.08166 C218.5595,48.10468 218.1392,46.821 218.1392,45.23057 L218.1392,44.00367 Z" id="path-1"></path>
        <path d="M197.5869,51.70586 L197.5869,56 L206.5841,56 L206.5841,19.3294 L197.1779,19.3294 L197.1779,43.66287 C197.1779,47.7071 195.5194,49.72919 192.2022,49.72919 C190.7935,49.72919 189.7711,49.35431 189.1349,48.60454 C188.4988,47.85476 188.1807,46.52564 188.1807,44.61712 L188.1807,19.3294 L178.7745,19.3294 L178.7745,46.52563 C178.7745,50.20634 179.581,52.83051 181.1942,54.39822 C182.8073,55.96593 185.1134,56.74977 188.1125,56.74977 C190.1574,56.74977 191.975,56.36353 193.5654,55.59103 C195.1558,54.81854 196.4509,53.52349 197.4506,51.70586 L197.5869,51.70586 Z" id="path-3"></path>
        <path d="M147.294,7.33308 L156.7002,7.33308 L156.7002,22.73745 L156.8365,22.73745 C157.8362,21.28334 158.9609,20.19278 160.2105,19.46573 C161.4601,18.73867 162.971,18.37515 164.7432,18.37515 C168.6057,18.37515 171.4457,19.88604 173.2633,22.90785 C175.081,25.92967 175.9898,30.84857 175.9898,37.6647 C175.9898,44.48083 175.081,49.36565 173.2633,52.31931 C171.4457,55.27296 168.6057,56.74977 164.7432,56.74977 C162.8347,56.74977 161.2329,56.40897 159.9379,55.72736 C158.6428,55.04574 157.4727,53.84158 156.4276,52.11483 L156.2912,52.11483 L156.2912,56 L147.294,56 L147.294,7.33308 Z M156.7002,37.6647 C156.7002,41.6635 157.0069,44.67391 157.6204,46.69603 C158.2338,48.71815 159.5857,49.72919 161.676,49.72919 C163.7208,49.72919 165.0499,48.71815 165.6634,46.69603 C166.2768,44.67391 166.5835,41.6635 166.5835,37.6647 C166.5835,33.66591 166.2768,30.65549 165.6634,28.63338 C165.0499,26.61126 163.7208,25.60021 161.676,25.60021 C159.5857,25.60021 158.2338,26.61126 157.6204,28.63338 C157.0069,30.65549 156.7002,33.66591 156.7002,37.6647 Z" id="path-5"></path>
        <path d="M85.15005,7.33308 L94.55626,7.33308 L94.55626,22.73745 L94.69258,22.73745 C95.69228,21.28334 96.81693,20.19278 98.06655,19.46573 C99.31618,18.73867 100.8271,18.37515 102.5993,18.37515 C106.4617,18.37515 109.3017,19.88604 111.1194,22.90785 C112.937,25.92967 113.8458,30.84857 113.8458,37.6647 C113.8458,44.48083 112.937,49.36565 111.1194,52.31931 C109.3017,55.27296 106.4617,56.74977 102.5993,56.74977 C100.6907,56.74977 99.08897,56.40897 97.79391,55.72736 C96.49884,55.04574 95.32876,53.84158 94.28362,52.11483 L94.1473,52.11483 L94.1473,56 L85.15005,56 L85.15005,7.33308 Z M94.55626,37.6647 C94.55626,41.6635 94.86298,44.67391 95.47644,46.69603 C96.08989,48.71815 97.44173,49.72919 99.53201,49.72919 C101.5769,49.72919 102.906,48.71815 103.5194,46.69603 C104.1329,44.67391 104.4396,41.6635 104.4396,37.6647 C104.4396,33.66591 104.1329,30.65549 103.5194,28.63338 C102.906,26.61126 101.5769,25.60021 99.53201,25.60021 C97.44173,25.60021 96.08989,26.61126 95.47644,28.63338 C94.86298,30.65549 94.55626,33.66591 94.55626,37.6647 Z" id="path-7"></path>
        <path d="M9.791846,38.82344 C9.791846,40.09578 9.848646,41.29995 9.962248,42.43597 C10.07585,43.57199 10.30305,44.58304 10.64386,45.46913 C10.98466,46.35523 11.46179,47.05955 12.07524,47.58212 C12.68869,48.10469 13.49525,48.36597 14.49495,48.36597 C15.49465,48.36597 16.32393,48.10469 16.98283,47.58212 C17.64172,47.05955 18.16428,46.34387 18.55053,45.43505 C18.93678,44.52623 19.20942,43.42431 19.36846,42.12924 C19.5275,40.83418 19.60702,39.41417 19.60702,37.86919 C19.60702,33.41598 19.25486,30.25789 18.55053,28.39481 C17.8462,26.53174 16.56251,25.60021 14.69943,25.60021 C13.65429,25.60021 12.81365,25.82741 12.17748,26.28182 C11.54131,26.73623 11.04147,27.47463 10.67794,28.49705 C10.31441,29.51947 10.07585,30.88268 9.962248,32.58671 C9.848646,34.29074 9.791846,36.36963 9.791846,38.82344 Z M28.60427,19.3294 L28.60427,54.15965 C28.60427,58.8855 27.43419,62.429839 25.09398,64.792764 C22.75378,67.155689 18.83456,68.3371335 13.33622,68.3371335 C9.337419,68.3371335 6.258847,67.48513 4.100406,65.781098 C1.941965,64.077065 0.8627603,61.657375 0.8627603,58.52196 L9.860007,58.52196 C9.860007,59.703418 10.33713,60.634942 11.29139,61.316555 C11.7458,61.634641 12.23428,61.884562 12.75685,62.066325 C13.27942,62.248089 13.83606,62.338969 14.42679,62.338969 C16.33531,62.338969 17.67579,61.725527 18.44829,60.498623 C19.22078,59.27172 19.60702,57.74947 19.60702,55.93184 L19.60702,51.09241 L19.4707,51.09241 C18.51644,52.45564 17.34636,53.5462 15.96041,54.36414 C14.57447,55.18207 13.13174,55.59103 11.63219,55.59103 C7.906041,55.59103 5.100109,54.17103 3.214313,51.33097 C1.328517,48.49092 0.3856335,43.73106 0.3856335,37.05125 C0.3856335,34.91553 0.5105941,32.7344 0.7605188,30.5078 C1.010444,28.2812 1.533006,26.27047 2.328221,24.47556 C3.123436,22.68064 4.282161,21.2152 5.80443,20.07917 C7.326699,18.94315 9.360147,18.37515 11.90484,18.37515 C13.22262,18.37515 14.58583,18.73867 15.99449,19.46573 C17.40316,20.19278 18.56188,21.51055 19.4707,23.41906 L19.60702,23.41906 L19.60702,19.3294 L28.60427,19.3294 Z M51.26957,33.50688 C51.22413,32.09822 51.13325,30.85997 50.99693,29.79211 C50.86061,28.72425 50.62204,27.81545 50.28124,27.06567 C49.94043,26.3159 49.46331,25.7479 48.84986,25.36165 C48.23641,24.9754 47.45256,24.78228 46.4983,24.78228 C45.54405,24.78228 44.7602,24.99812 44.14675,25.42981 C43.5333,25.8615 43.04482,26.4295 42.68129,27.13383 C42.31776,27.83817 42.05648,28.62201 41.89744,29.48539 C41.7384,30.34876 41.65888,31.21213 41.65888,32.0755 L41.65888,33.50688 L51.26957,33.50688 Z M41.65888,39.09608 L41.65888,42.027 C41.65888,43.11758 41.7384,44.17407 41.89744,45.19649 C42.05648,46.21891 42.31776,47.12771 42.68129,47.92293 C43.04482,48.71814 43.52194,49.3543 44.11267,49.83143 C44.7034,50.30856 45.43045,50.54712 46.29382,50.54712 C47.88425,50.54712 49.04298,49.97912 49.77003,48.8431 C50.49708,47.70708 50.99693,45.98035 51.26957,43.66287 L59.72153,43.66287 C59.53977,47.93431 58.40376,51.18328 56.31348,53.40988 C54.2232,55.63649 50.92879,56.74977 46.43014,56.74977 C43.02208,56.74977 40.36383,56.18177 38.45531,55.04575 C36.54679,53.90972 35.13815,52.4102 34.22933,50.54712 C33.32051,48.68405 32.76387,46.5938 32.55939,44.27632 C32.3549,41.95883 32.25266,39.64138 32.25266,37.3239 C32.25266,34.87009 32.42306,32.5072 32.76387,30.23516 C33.10468,27.96311 33.78628,25.94103 34.8087,24.16883 C35.83112,22.39664 37.29657,20.98799 39.20508,19.94285 C41.1136,18.89771 43.65825,18.37515 46.83911,18.37515 C49.56556,18.37515 51.80349,18.81819 53.55296,19.70429 C55.30244,20.59039 56.677,21.83999 57.6767,23.45314 C58.6764,25.06629 59.358,27.02022 59.72153,29.31498 C60.08506,31.60975 60.26682,34.16576 60.26682,36.98309 L60.26682,39.09608 L41.65888,39.09608 Z M66.61924,8.83262 L66.61924,19.3294 L61.84797,19.3294 L61.84797,25.73653 L66.61924,25.73653 L66.61924,46.73011 C66.61924,48.59319 66.73284,50.13815 66.96004,51.36505 C67.18724,52.59196 67.60757,53.58028 68.22102,54.33006 C68.83447,55.07983 69.72055,55.57967 70.8793,55.8296 C72.03804,56.07952 73.5262,56.20448 75.34384,56.20448 C76.43442,56.20448 77.46818,56.1704 78.44516,56.10224 C79.42214,56.03408 80.43318,56 81.47832,56 L81.47832,49.45655 C81.16024,49.50199 80.81944,49.53607 80.45591,49.55879 C80.09238,49.58151 79.72886,49.59287 79.36533,49.59287 C78.00211,49.59287 77.10467,49.28615 76.67298,48.6727 C76.24129,48.05925 76.02545,47.02548 76.02545,45.57137 L76.02545,25.73653 L81.47832,25.73653 L81.47832,19.3294 L76.02545,19.3294 L76.02545,8.83262 L66.61924,8.83262 Z" id="path-9"></path>
    </defs>
    <g id="Page-1" stroke="none" stroke-width="1" fill="none" fill-rule="evenodd">
        <g id="getByBus" transform="translate(0.000000, -7.000000)">
            <text id="©" fill="#7ED321" font-family="HelveticaNeue-Bold, Helvetica Neue" font-size="24.57" font-weight="bold">
                <tspan x="238.378" y="24.297577">©</tspan>
            </text>
            <mask id="mask-2" fill="white">
                <use xlink:href="#path-1"></use>
            </mask>
            <use id="path-11" fill="#3D83E1" xlink:href="#path-1"></use>
            <mask id="mask-4" fill="white">
                <use xlink:href="#path-3"></use>
            </mask>
            <use id="path-9" fill="#3D83E1" xlink:href="#path-3"></use>
            <mask id="mask-6" fill="white">
                <use xlink:href="#path-5"></use>
            </mask>
            <use id="path-7" fill="#3D83E1" xlink:href="#path-5"></use>
            <path d="M117.6305,60.771267 L117.6305,67.791846 L121.4475,67.791846 C123.6287,67.791846 125.435,67.632805 126.8663,67.314719 C128.2977,66.996633 129.5246,66.32639 130.547,65.303971 C131.5695,64.281551 132.4555,62.827465 133.2053,60.941669 C133.9551,59.055874 134.7389,56.59074 135.5569,53.54621 L144.4178,19.3294 L135.0116,19.3294 L130.2403,44.68528 L130.104,44.68528 L124.6511,19.3294 L114.8359,19.3294 L125.1282,56 C124.9919,57.49955 124.5489,58.70371 123.7991,59.612531 C123.0493,60.521348 121.8111,60.97575 120.0843,60.97575 C119.2664,60.97575 118.4485,60.90759 117.6305,60.771267 Z" id="path-5-path" fill="#F69D00"></path>
            <mask id="mask-8" fill="white">
                <use xlink:href="#path-7"></use>
            </mask>
            <use id="path-3" fill="#F69D00" xlink:href="#path-7"></use>
            <mask id="mask-10" fill="white">
                <use xlink:href="#path-9"></use>
            </mask>
            <use id="path-1" fill="#7ED321" xlink:href="#path-9"></use>
        </g>
    </g>
</svg>