<?xml version="1.0" encoding="UTF-8"?>
<svg width="129px" height="52px" viewBox="0 0 129 52" version="1.1" xmlns="http://www.w3.org/2000/svg" xmlns:xlink="http://www.w3.org/1999/xlink">
    <!-- Generator: Sketch 50.2 (55047) - http://www.bohemiancoding.com/sketch -->
    <title>Group 3</title>
    <desc>Created with Sketch.</desc>
    <defs></defs>
    <g id="Page-1" stroke="none" stroke-width="1" fill="none" fill-rule="evenodd">
        <g id="LOGOTIPI-IZVOZ_HR" transform="translate(-40.000000, -553.000000)">
            <g id="Group-3" transform="translate(40.000000, 553.000000)">
                <g id="Group-306" transform="translate(50.000000, 16.315000)"></g>
                <path d="M26.5205,29.897 L26.5205,23.995 C26.5205,23.995 26.5205,23.714 26.8015,23.714 L32.7535,23.714 C32.7535,23.714 33.0345,23.714 33.0345,23.433 L33.0345,17.432 C33.0345,17.432 33.0345,17.152 32.7535,17.152 L26.7525,17.152 C26.7525,17.152 26.4725,17.152 26.4725,17.432 L26.4725,23.356 C26.4725,23.356 26.4725,23.636 26.1925,23.636 L20.2725,23.636 C20.2725,23.636 19.9925,23.636 19.9925,23.356 L19.9925,17.432 C19.9925,17.432 19.9925,17.152 19.7115,17.152 L13.7105,17.152 C13.7105,17.152 13.4305,17.152 13.4305,17.432 L13.4305,23.356 C13.4305,23.356 13.4305,23.636 13.1495,23.636 L7.2295,23.636 C7.2295,23.636 6.9505,23.636 6.9505,23.356 L6.9505,17.432 C6.9505,17.432 6.9505,17.152 6.6695,17.152 L0.6685,17.152 C0.6685,17.152 0.3875,17.152 0.3875,17.432 L0.3875,23.433 C0.3875,23.433 0.3875,23.714 0.6685,23.714 L6.6265,23.714 C6.6265,23.714 6.9065,23.714 6.9065,23.995 L6.9065,29.897 C6.9065,29.897 6.9065,30.177 6.6265,30.177 L0.6685,30.177 C0.6685,30.177 0.3875,30.177 0.3875,30.458 L0.9375,36.459 C0.9375,36.459 0.9375,36.74 1.2175,36.74 L6.6265,36.74 C6.6265,36.74 6.9065,36.74 6.9065,37.02 L6.9065,42.894 C6.9065,42.894 6.9065,43.174 6.6265,43.174 L3.3945,43.174 C3.3945,43.174 3.1135,43.174 3.2445,43.422 C3.2445,43.422 3.4045,44.213 4.5415,45.885 C5.5755,47.403 6.7085,48.418 6.7085,48.418 C6.7085,48.418 6.9165,48.606 6.9165,48.325 L6.9165,43.503 C6.9165,43.503 6.9165,43.224 7.1975,43.224 L13.1665,43.224 C13.1665,43.224 13.4465,43.224 13.4465,43.503 L13.4465,51.056 C13.4465,51.056 13.4465,51.335 13.7275,51.335 L19.6955,51.335 C19.6955,51.335 19.9765,51.335 19.9765,51.056 L19.9765,43.503 C19.9765,43.503 19.9765,43.224 20.2565,43.224 L26.2245,43.224 C26.2245,43.224 26.5055,43.224 26.5055,43.503 L26.5055,48.325 C26.5055,48.325 26.5055,48.606 26.6895,48.394 C26.6895,48.394 27.8475,47.403 28.8805,45.885 C30.0175,44.213 30.2335,43.445 30.2335,43.445 C30.2335,43.445 30.3095,43.174 30.0285,43.174 L26.8015,43.174 C26.8015,43.174 26.5205,43.174 26.5205,42.894 L26.5205,37.02 C26.5205,37.02 26.5205,36.74 26.8015,36.74 L32.2055,36.74 C32.2055,36.74 32.4845,36.74 32.4845,36.459 L33.0345,30.458 C33.0345,30.458 33.0345,30.177 32.7535,30.177 L26.8015,30.177 C26.8015,30.177 26.5205,30.177 26.5205,29.897 Z M13.4305,36.381 C13.4305,36.381 13.4305,36.662 13.1495,36.662 L7.2295,36.662 C7.2295,36.662 6.9505,36.662 6.9505,36.381 L6.9505,30.479 C6.9505,30.479 6.9505,30.198 7.2295,30.198 L13.1495,30.198 C13.1495,30.198 13.4305,30.198 13.4305,30.479 L13.4305,36.381 Z M19.9585,29.897 C19.9585,29.897 19.9585,30.177 19.6785,30.177 L13.7495,30.177 C13.7495,30.177 13.4695,30.177 13.4695,29.897 L13.4695,23.995 C13.4695,23.995 13.4695,23.714 13.7495,23.714 L19.6785,23.714 C19.6785,23.714 19.9585,23.714 19.9585,23.995 L19.9585,29.897 Z M19.9585,42.894 C19.9585,42.894 19.9585,43.174 19.6785,43.174 L13.7495,43.174 C13.7495,43.174 13.4695,43.174 13.4695,42.894 L13.4695,37.02 C13.4695,37.02 13.4695,36.74 13.7495,36.74 L19.6785,36.74 C19.6785,36.74 19.9585,36.74 19.9585,37.02 L19.9585,42.894 Z M26.4725,36.381 C26.4725,36.381 26.4725,36.662 26.1925,36.662 L20.2725,36.662 C20.2725,36.662 19.9925,36.662 19.9925,36.381 L19.9925,30.479 C19.9925,30.479 19.9925,30.198 20.2725,30.198 L26.1925,30.198 C26.1925,30.198 26.4725,30.198 26.4725,30.479 L26.4725,36.381 Z" id="Fill-300" fill="#000000"></path>
                <path d="M29.6406,4.2935 L32.7666,0.7865 L30.7416,0.7865 L28.0136,3.9205 L28.0136,0.7865 L26.4646,0.7865 L26.4646,8.3345 L28.0136,8.3345 L28.0136,4.7525 L30.8706,8.3345 L33.0346,8.3345 L29.6406,4.2935 Z M18.7396,8.3555 C19.2586,8.2415 19.7566,8.0575 20.2346,7.8015 L20.2346,3.8565 L17.3596,3.8565 L17.3596,5.3925 L18.6776,5.3925 L18.6776,6.6175 C18.5256,6.7035 18.3216,6.7865 18.0656,6.8685 C17.8086,6.9505 17.5046,6.9905 17.1526,6.9905 C16.8066,6.9905 16.4936,6.9315 16.2136,6.8105 C15.9326,6.6895 15.6926,6.5205 15.4916,6.3035 C15.2906,6.0865 15.1376,5.8305 15.0296,5.5355 C14.9226,5.2405 14.8696,4.9155 14.8696,4.5605 C14.8696,4.2125 14.9226,3.8895 15.0296,3.5905 C15.1376,3.2915 15.2906,3.0335 15.4916,2.8175 C15.6926,2.6015 15.9326,2.4325 16.2136,2.3115 C16.4936,2.1905 16.8066,2.1305 17.1526,2.1305 C17.5666,2.1305 17.9126,2.1905 18.1896,2.3115 C18.4666,2.4325 18.7156,2.6095 18.9366,2.8445 L20.0786,1.5645 C19.7046,1.2095 19.2706,0.9585 18.7756,0.8135 C18.2816,0.6675 17.7406,0.5955 17.1526,0.5955 C16.5776,0.5955 16.0486,0.6875 15.5646,0.8725 C15.0796,1.0575 14.6616,1.3215 14.3086,1.6655 C13.9556,2.0105 13.6816,2.4285 13.4836,2.9185 C13.2866,3.4085 13.1886,3.9565 13.1886,4.5605 C13.1886,5.1645 13.2866,5.7115 13.4836,6.2015 C13.6816,6.6915 13.9556,7.1095 14.3086,7.4545 C14.6616,7.7995 15.0796,8.0645 15.5646,8.2485 C16.0486,8.4345 16.5776,8.5255 17.1526,8.5255 C17.6916,8.5255 18.2206,8.4695 18.7396,8.3555 Z M5.2906,8.3345 L6.9576,8.3345 L6.9576,0.7865 L5.2906,0.7865 L5.2906,3.6015 L2.0546,3.6015 L2.0546,0.7865 L0.3886,0.7865 L0.3886,8.3345 L2.0546,8.3345 L2.0546,5.0715 L5.2906,5.0715 L5.2906,8.3345 Z" id="Fill-301" fill="#000000"></path>
                <path d="M33.0347,14.2457 L30.9277,14.2457 C30.9477,14.1377 30.9967,14.0317 31.0747,13.9277 C31.1527,13.8237 31.2777,13.6997 31.4497,13.5557 L32.2067,12.9367 C32.4737,12.7167 32.6637,12.5087 32.7767,12.3127 C32.8887,12.1167 32.9447,11.9027 32.9447,11.6707 C32.9447,11.3537 32.8207,11.0957 32.5727,10.8927 C32.3247,10.6907 32.0047,10.5907 31.6117,10.5907 C31.3917,10.5907 31.1797,10.6137 30.9757,10.6617 C30.7717,10.7107 30.5817,10.7817 30.4057,10.8787 L30.4057,11.4777 C30.5817,11.3697 30.7597,11.2897 30.9397,11.2377 C31.1197,11.1867 31.3097,11.1607 31.5097,11.1607 C31.7627,11.1607 31.9597,11.2147 32.1047,11.3227 C32.2487,11.4307 32.3207,11.5727 32.3207,11.7487 C32.3207,11.8997 32.2797,12.0357 32.1977,12.1537 C32.1157,12.2717 31.9197,12.4547 31.6117,12.7027 L30.9457,13.2497 C30.6937,13.4487 30.5067,13.6597 30.3847,13.8797 C30.2627,14.0997 30.2017,14.3337 30.2017,14.5817 L30.2017,14.7917 L33.0347,14.7917 L33.0347,14.2457 Z M22.7587,13.4887 C22.7587,13.0897 22.6227,12.7707 22.3507,12.5347 C22.0787,12.2997 21.7107,12.1817 21.2467,12.1817 C21.1617,12.1817 21.0627,12.1857 20.9497,12.1987 C20.8347,12.2107 20.7367,12.2247 20.6517,12.2407 L20.6937,11.2027 L22.3507,11.2027 L22.3507,10.6497 L20.1657,10.6497 L20.0637,12.8107 C20.2477,12.7747 20.4217,12.7477 20.5857,12.7297 C20.7497,12.7127 20.9077,12.7027 21.0597,12.7027 C21.3887,12.7027 21.6457,12.7727 21.8307,12.9137 C22.0177,13.0537 22.1107,13.2447 22.1107,13.4887 C22.1107,13.7287 22.0257,13.9217 21.8557,14.0657 C21.6857,14.2097 21.4577,14.2817 21.1737,14.2817 C20.9697,14.2817 20.7587,14.2567 20.5407,14.2037 C20.3237,14.1517 20.1177,14.0777 19.9257,13.9817 L19.9257,14.5877 C20.0817,14.6677 20.2777,14.7317 20.5137,14.7797 C20.7497,14.8277 20.9897,14.8517 21.2337,14.8517 C21.6947,14.8517 22.0637,14.7277 22.3417,14.4787 C22.6197,14.2317 22.7587,13.9017 22.7587,13.4887 Z M12.2487,13.0207 C12.0937,12.8527 11.8367,12.6967 11.4807,12.5527 C11.7287,12.4447 11.9207,12.3087 12.0577,12.1437 C12.1937,11.9797 12.2617,11.8007 12.2617,11.6037 C12.2617,11.3117 12.1367,11.0697 11.8867,10.8787 C11.6367,10.6857 11.3147,10.5907 10.9227,10.5907 C10.5347,10.5907 10.2087,10.6967 9.9447,10.9117 C9.6807,11.1257 9.5477,11.3847 9.5477,11.6887 C9.5477,11.8967 9.6077,12.0787 9.7247,12.2347 C9.8437,12.3907 10.0207,12.5227 10.2567,12.6307 C9.9677,12.7387 9.7417,12.8887 9.5747,13.0777 C9.4087,13.2677 9.3257,13.4817 9.3257,13.7177 C9.3257,14.0457 9.4747,14.3167 9.7737,14.5307 C10.0717,14.7447 10.4527,14.8517 10.9167,14.8517 C11.3727,14.8517 11.7477,14.7377 12.0417,14.5097 C12.3357,14.2817 12.4837,13.9877 12.4837,13.6277 C12.4837,13.3917 12.4057,13.1887 12.2487,13.0207 Z M11.4697,12.0847 C11.3687,12.2007 11.2227,12.3017 11.0307,12.3857 L10.7847,12.2887 C10.5687,12.2047 10.4137,12.1177 10.3227,12.0277 C10.2297,11.9377 10.1847,11.8327 10.1847,11.7127 C10.1847,11.5487 10.2537,11.4107 10.3937,11.2987 C10.5347,11.1867 10.7087,11.1307 10.9167,11.1307 C11.1167,11.1307 11.2837,11.1867 11.4177,11.2987 C11.5517,11.4107 11.6187,11.5467 11.6187,11.7067 C11.6187,11.8427 11.5697,11.9687 11.4697,12.0847 Z M11.8357,13.6397 C11.8357,13.8437 11.7487,14.0077 11.5767,14.1327 C11.4047,14.2567 11.1827,14.3167 10.9107,14.3167 C10.6387,14.3167 10.4137,14.2507 10.2387,14.1167 C10.0627,13.9817 9.9737,13.8107 9.9737,13.6037 C9.9737,13.4317 10.0377,13.2747 10.1627,13.1357 C10.2887,12.9957 10.4627,12.8837 10.6817,12.7997 L11.1507,12.9847 C11.3907,13.0737 11.5647,13.1687 11.6737,13.2697 C11.7807,13.3717 11.8357,13.4957 11.8357,13.6397 Z M1.2247,14.7917 L1.8837,14.7917 L1.8837,10.6917 L1.2637,10.6917 L0.3937,11.1117 L0.3937,11.6827 L1.2247,11.3097 L1.2247,14.7917 Z" id="Fill-302" fill="#000000"></path>
                <path d="M50.5059,43.1587 L51.9619,43.1587 L51.9619,40.0237 L54.6489,43.1587 L56.6839,43.1587 L53.4919,39.6227 L56.4309,36.5527 L54.5279,36.5527 L51.9619,39.2957 L51.9619,36.5527 L50.5059,36.5527 L50.5059,43.1587 Z M57.2989,41.2927 C57.4769,41.7217 57.7229,42.0877 58.0409,42.3887 C58.3579,42.6907 58.7349,42.9227 59.1699,43.0847 C59.6059,43.2457 60.0809,43.3267 60.5979,43.3267 C61.1129,43.3267 61.5899,43.2457 62.0249,43.0847 C62.4609,42.9227 62.8369,42.6907 63.1539,42.3887 C63.4709,42.0877 63.7189,41.7217 63.8959,41.2927 C64.0729,40.8627 64.1619,40.3847 64.1619,39.8557 C64.1619,39.3267 64.0729,38.8477 63.8959,38.4187 C63.7189,37.9897 63.4709,37.6237 63.1539,37.3217 C62.8369,37.0207 62.4609,36.7887 62.0249,36.6267 C61.5899,36.4657 61.1129,36.3847 60.5979,36.3847 C60.0809,36.3847 59.6059,36.4657 59.1699,36.6267 C58.7349,36.7887 58.3579,37.0207 58.0409,37.3217 C57.7229,37.6237 57.4769,37.9897 57.2989,38.4187 C57.1209,38.8477 57.0329,39.3267 57.0329,39.8557 C57.0329,40.3847 57.1209,40.8627 57.2989,41.2927 Z M58.6899,39.0067 C58.7849,38.7457 58.9239,38.5197 59.1049,38.3307 C59.2849,38.1397 59.5009,37.9927 59.7529,37.8867 C60.0059,37.7807 60.2869,37.7277 60.5979,37.7277 C60.9089,37.7277 61.1899,37.7807 61.4419,37.8867 C61.6939,37.9927 61.9099,38.1397 62.0909,38.3307 C62.2709,38.5197 62.4089,38.7457 62.5059,39.0067 C62.6029,39.2677 62.6509,39.5507 62.6509,39.8557 C62.6509,40.1667 62.6029,40.4517 62.5059,40.7097 C62.4089,40.9687 62.2709,41.1907 62.0909,41.3817 C61.9099,41.5707 61.6939,41.7197 61.4419,41.8247 C61.1899,41.9297 60.9089,41.9827 60.5979,41.9827 C60.2869,41.9827 60.0059,41.9297 59.7529,41.8247 C59.5009,41.7197 59.2849,41.5707 59.1049,41.3817 C58.9239,41.1907 58.7849,40.9687 58.6899,40.7097 C58.5929,40.4517 58.5449,40.1667 58.5449,39.8557 C58.5449,39.5507 58.5929,39.2677 58.6899,39.0067 Z M65.7129,43.1587 L67.1679,43.1587 L67.1679,38.0927 L67.1869,38.0927 L68.8569,43.1587 L69.9679,43.1587 L71.7029,38.0927 L71.7219,38.0927 L71.7219,43.1587 L73.1769,43.1587 L73.1769,36.5527 L70.9849,36.5527 L69.4539,40.8627 L69.4359,40.8627 L67.9149,36.5527 L65.7129,36.5527 L65.7129,43.1587 Z M74.9949,41.2927 C75.1719,41.7217 75.4189,42.0877 75.7359,42.3887 C76.0529,42.6907 76.4299,42.9227 76.8649,43.0847 C77.3009,43.2457 77.7769,43.3267 78.2929,43.3267 C78.8099,43.3267 79.2849,43.2457 79.7199,43.0847 C80.1559,42.9227 80.5319,42.6907 80.8489,42.3887 C81.1669,42.0877 81.4139,41.7217 81.5909,41.2927 C81.7689,40.8627 81.8579,40.3847 81.8579,39.8557 C81.8579,39.3267 81.7689,38.8477 81.5909,38.4187 C81.4139,37.9897 81.1669,37.6237 80.8489,37.3217 C80.5319,37.0207 80.1559,36.7887 79.7199,36.6267 C79.2849,36.4657 78.8099,36.3847 78.2929,36.3847 C77.7769,36.3847 77.3009,36.4657 76.8649,36.6267 C76.4299,36.7887 76.0529,37.0207 75.7359,37.3217 C75.4189,37.6237 75.1719,37.9897 74.9949,38.4187 C74.8179,38.8477 74.7289,39.3267 74.7289,39.8557 C74.7289,40.3847 74.8179,40.8627 74.9949,41.2927 Z M76.3849,39.0067 C76.4819,38.7457 76.6189,38.5197 76.7999,38.3307 C76.9799,38.1397 77.1959,37.9927 77.4479,37.8867 C77.7009,37.7807 77.9819,37.7277 78.2929,37.7277 C78.6039,37.7277 78.8849,37.7807 79.1379,37.8867 C79.3899,37.9927 79.6059,38.1397 79.7859,38.3307 C79.9659,38.5197 80.1049,38.7457 80.2009,39.0067 C80.2979,39.2677 80.3459,39.5507 80.3459,39.8557 C80.3459,40.1667 80.2979,40.4517 80.2009,40.7097 C80.1049,40.9687 79.9659,41.1907 79.7859,41.3817 C79.6059,41.5707 79.3899,41.7197 79.1379,41.8247 C78.8849,41.9297 78.6039,41.9827 78.2929,41.9827 C77.9819,41.9827 77.7009,41.9297 77.4479,41.8247 C77.1959,41.7197 76.9799,41.5707 76.7999,41.3817 C76.6189,41.1907 76.4819,40.9687 76.3849,40.7097 C76.2879,40.4517 76.2399,40.1667 76.2399,39.8557 C76.2399,39.5507 76.2879,39.2677 76.3849,39.0067 Z M83.4089,43.1587 L84.8639,43.1587 L84.8639,40.5177 L85.5819,40.5177 L86.9639,43.1587 L88.7079,43.1587 L87.0289,40.3687 C87.4949,40.2817 87.8499,40.0747 88.0919,39.7477 C88.3349,39.4217 88.4569,39.0247 88.4569,38.5577 C88.4569,38.1737 88.3899,37.8507 88.2559,37.5937 C88.1219,37.3347 87.9419,37.1297 87.7139,36.9767 C87.4869,36.8247 87.2229,36.7157 86.9219,36.6497 C86.6189,36.5847 86.3009,36.5527 85.9649,36.5527 L83.4089,36.5527 L83.4089,43.1587 Z M84.8639,37.7837 L85.8159,37.7837 C85.9459,37.7837 86.0799,37.7937 86.2159,37.8117 C86.3539,37.8307 86.4749,37.8667 86.5809,37.9197 C86.6859,37.9717 86.7739,38.0487 86.8419,38.1477 C86.9099,38.2477 86.9449,38.3817 86.9449,38.5497 C86.9449,38.7287 86.9049,38.8697 86.8279,38.9687 C86.7509,39.0687 86.6519,39.1417 86.5349,39.1877 C86.4159,39.2347 86.2829,39.2627 86.1369,39.2717 C85.9909,39.2817 85.8529,39.2867 85.7219,39.2867 L84.8639,39.2867 L84.8639,37.7837 Z M89.4469,43.1587 L91.0519,43.1587 L91.6029,41.7597 L94.1689,41.7597 L94.7379,43.1587 L96.3809,43.1587 L93.5059,36.5527 L92.3019,36.5527 L89.4469,43.1587 Z M93.6749,40.5267 L92.0599,40.5267 L92.8619,38.4737 L93.6749,40.5267 Z" id="Fill-303" fill="#000000"></path>
                <path d="M56.4312,29.5406 L53.8472,29.5406 L53.8472,30.8846 L55.0312,30.8846 L55.0312,31.9576 C54.8942,32.0316 54.7112,32.1046 54.4812,32.1776 C54.2502,32.2476 53.9772,32.2836 53.6602,32.2836 C53.3482,32.2836 53.0672,32.2306 52.8152,32.1256 C52.5632,32.0196 52.3472,31.8726 52.1662,31.6826 C51.9872,31.4916 51.8482,31.2696 51.7512,31.0106 C51.6552,30.7526 51.6072,30.4676 51.6072,30.1566 C51.6072,29.8516 51.6552,29.5686 51.7512,29.3076 C51.8482,29.0466 51.9872,28.8206 52.1662,28.6316 C52.3472,28.4406 52.5632,28.2936 52.8152,28.1876 C53.0672,28.0816 53.3482,28.0286 53.6602,28.0286 C54.0332,28.0286 54.3442,28.0816 54.5932,28.1876 C54.8422,28.2936 55.0662,28.4486 55.2652,28.6546 L56.2912,27.5346 C55.9552,27.2236 55.5652,27.0046 55.1202,26.8766 C54.6752,26.7486 54.1882,26.6856 53.6602,26.6856 C53.1432,26.6856 52.6672,26.7666 52.2322,26.9276 C51.7962,27.0896 51.4202,27.3216 51.1032,27.6226 C50.7862,27.9246 50.5382,28.2906 50.3612,28.7196 C50.1842,29.1486 50.0952,29.6276 50.0952,30.1566 C50.0952,30.6856 50.1842,31.1636 50.3612,31.5936 C50.5382,32.0216 50.7862,32.3886 51.1032,32.6896 C51.4202,32.9916 51.7962,33.2236 52.2322,33.3856 C52.6672,33.5466 53.1432,33.6276 53.6602,33.6276 C54.1452,33.6276 54.6212,33.5776 55.0882,33.4786 C55.5542,33.3786 56.0022,33.2176 56.4312,32.9936 L56.4312,29.5406 Z M58.4242,31.5936 C58.6012,32.0216 58.8492,32.3886 59.1662,32.6896 C59.4832,32.9916 59.8602,33.2236 60.2952,33.3856 C60.7312,33.5466 61.2062,33.6276 61.7232,33.6276 C62.2392,33.6276 62.7152,33.5466 63.1512,33.3856 C63.5862,33.2236 63.9622,32.9916 64.2802,32.6896 C64.5972,32.3886 64.8442,32.0216 65.0212,31.5936 C65.1992,31.1636 65.2872,30.6856 65.2872,30.1566 C65.2872,29.6276 65.1992,29.1486 65.0212,28.7196 C64.8442,28.2906 64.5972,27.9246 64.2802,27.6226 C63.9622,27.3216 63.5862,27.0896 63.1512,26.9276 C62.7152,26.7666 62.2392,26.6856 61.7232,26.6856 C61.2062,26.6856 60.7312,26.7666 60.2952,26.9276 C59.8602,27.0896 59.4832,27.3216 59.1662,27.6226 C58.8492,27.9246 58.6012,28.2906 58.4242,28.7196 C58.2472,29.1486 58.1592,29.6276 58.1592,30.1566 C58.1592,30.6856 58.2472,31.1636 58.4242,31.5936 Z M59.8142,29.3076 C59.9112,29.0466 60.0502,28.8206 60.2302,28.6316 C60.4102,28.4406 60.6272,28.2936 60.8782,28.1876 C61.1302,28.0816 61.4112,28.0286 61.7232,28.0286 C62.0342,28.0286 62.3152,28.0816 62.5672,28.1876 C62.8192,28.2936 63.0352,28.4406 63.2162,28.6316 C63.3962,28.8206 63.5352,29.0466 63.6312,29.3076 C63.7272,29.5686 63.7752,29.8516 63.7752,30.1566 C63.7752,30.4676 63.7272,30.7526 63.6312,31.0106 C63.5352,31.2696 63.3962,31.4916 63.2162,31.6826 C63.0352,31.8726 62.8192,32.0196 62.5672,32.1256 C62.3152,32.2306 62.0342,32.2836 61.7232,32.2836 C61.4112,32.2836 61.1302,32.2306 60.8782,32.1256 C60.6272,32.0196 60.4102,31.8726 60.2302,31.6826 C60.0502,31.4916 59.9112,31.2696 59.8142,31.0106 C59.7182,30.7526 59.6702,30.4676 59.6702,30.1566 C59.6702,29.8516 59.7182,29.5686 59.8142,29.3076 Z M71.2772,27.3756 C70.9972,27.1266 70.6822,26.9496 70.3342,26.8436 C69.9862,26.7376 69.6252,26.6856 69.2522,26.6856 C68.9282,26.6856 68.6152,26.7296 68.3092,26.8206 C68.0052,26.9106 67.7362,27.0466 67.5032,27.2266 C67.2692,27.4066 67.0832,27.6316 66.9432,27.8976 C66.8032,28.1656 66.7322,28.4766 66.7322,28.8316 C66.7322,29.1986 66.8092,29.4936 66.9612,29.7176 C67.1142,29.9416 67.3052,30.1226 67.5352,30.2596 C67.7652,30.3956 68.0142,30.5046 68.2812,30.5866 C68.5492,30.6666 68.7982,30.7476 69.0282,30.8276 C69.2592,30.9096 69.4502,31.0076 69.6022,31.1226 C69.7542,31.2376 69.8312,31.3946 69.8312,31.5936 C69.8312,31.7116 69.8012,31.8136 69.7422,31.9006 C69.6822,31.9886 69.6052,32.0606 69.5092,32.1156 C69.4122,32.1726 69.3032,32.2146 69.1822,32.2416 C69.0602,32.2696 68.9412,32.2836 68.8232,32.2836 C68.5802,32.2836 68.3462,32.2286 68.1192,32.1206 C67.8912,32.0126 67.7022,31.8576 67.5542,31.6586 L66.5182,32.7966 C66.8352,33.0906 67.1772,33.3016 67.5442,33.4326 C67.9112,33.5616 68.3092,33.6276 68.7392,33.6276 C69.0802,33.6276 69.4062,33.5836 69.7142,33.4966 C70.0222,33.4096 70.2922,33.2756 70.5262,33.0956 C70.7592,32.9156 70.9442,32.6886 71.0812,32.4146 C71.2182,32.1416 71.2862,31.8206 71.2862,31.4536 C71.2862,31.0676 71.2112,30.7596 71.0622,30.5296 C70.9132,30.2996 70.7242,30.1166 70.4982,29.9786 C70.2712,29.8426 70.0272,29.7366 69.7652,29.6616 C69.5042,29.5876 69.2602,29.5126 69.0332,29.4376 C68.8062,29.3626 68.6182,29.2726 68.4682,29.1676 C68.3192,29.0616 68.2442,28.9096 68.2442,28.7106 C68.2442,28.5856 68.2752,28.4796 68.3382,28.3936 C68.4002,28.3056 68.4812,28.2356 68.5802,28.1836 C68.6802,28.1306 68.7852,28.0916 68.8972,28.0656 C69.0102,28.0416 69.1192,28.0286 69.2242,28.0286 C69.4052,28.0286 69.5962,28.0646 69.7982,28.1366 C70.0002,28.2076 70.1602,28.3176 70.2782,28.4676 L71.2772,27.3756 Z M73.1512,33.4596 L74.6072,33.4596 L74.6072,30.8846 L75.6712,30.8846 C76.0192,30.8846 76.3432,30.8516 76.6412,30.7856 C76.9402,30.7216 77.1982,30.6106 77.4162,30.4546 C77.6342,30.2996 77.8052,30.0906 77.9292,29.8296 C78.0542,29.5686 78.1162,29.2456 78.1162,28.8586 C78.1162,28.4676 78.0492,28.1436 77.9152,27.8846 C77.7812,27.6266 77.6002,27.4206 77.3742,27.2686 C77.1472,27.1156 76.8812,27.0096 76.5762,26.9456 C76.2712,26.8846 75.9482,26.8526 75.6062,26.8526 L73.1512,26.8526 L73.1512,33.4596 Z M74.6072,28.0846 L75.3542,28.0846 C75.4912,28.0846 75.6342,28.0936 75.7832,28.1076 C75.9322,28.1246 76.0682,28.1596 76.1892,28.2156 C76.3102,28.2716 76.4102,28.3516 76.4882,28.4536 C76.5652,28.5566 76.6042,28.6916 76.6042,28.8586 C76.6042,29.0156 76.5752,29.1446 76.5152,29.2466 C76.4562,29.3496 76.3792,29.4306 76.2822,29.4896 C76.1852,29.5486 76.0772,29.5906 75.9552,29.6146 C75.8342,29.6406 75.7082,29.6516 75.5772,29.6516 L74.6072,29.6516 L74.6072,28.0846 Z M79.4032,31.5936 C79.5802,32.0216 79.8272,32.3886 80.1442,32.6896 C80.4612,32.9916 80.8382,33.2236 81.2732,33.3856 C81.7092,33.5466 82.1842,33.6276 82.7012,33.6276 C83.2182,33.6276 83.6932,33.5466 84.1282,33.3856 C84.5642,33.2236 84.9402,32.9916 85.2572,32.6896 C85.5752,32.3886 85.8222,32.0216 85.9992,31.5936 C86.1772,31.1636 86.2652,30.6856 86.2652,30.1566 C86.2652,29.6276 86.1772,29.1486 85.9992,28.7196 C85.8222,28.2906 85.5752,27.9246 85.2572,27.6226 C84.9402,27.3216 84.5642,27.0896 84.1282,26.9276 C83.6932,26.7666 83.2182,26.6856 82.7012,26.6856 C82.1842,26.6856 81.7092,26.7666 81.2732,26.9276 C80.8382,27.0896 80.4612,27.3216 80.1442,27.6226 C79.8272,27.9246 79.5802,28.2906 79.4032,28.7196 C79.2252,29.1486 79.1372,29.6276 79.1372,30.1566 C79.1372,30.6856 79.2252,31.1636 79.4032,31.5936 Z M80.7932,29.3076 C80.8892,29.0466 81.0272,28.8206 81.2082,28.6316 C81.3882,28.4406 81.6042,28.2936 81.8562,28.1876 C82.1092,28.0816 82.3902,28.0286 82.7012,28.0286 C83.0122,28.0286 83.2932,28.0816 83.5452,28.1876 C83.7972,28.2936 84.0142,28.4406 84.1942,28.6316 C84.3742,28.8206 84.5132,29.0466 84.6092,29.3076 C84.7052,29.5686 84.7542,29.8516 84.7542,30.1566 C84.7542,30.4676 84.7052,30.7526 84.6092,31.0106 C84.5132,31.2696 84.3742,31.4916 84.1942,31.6826 C84.0142,31.8726 83.7972,32.0196 83.5452,32.1256 C83.2932,32.2306 83.0122,32.2836 82.7012,32.2836 C82.3902,32.2836 82.1092,32.2306 81.8562,32.1256 C81.6042,32.0196 81.3882,31.8726 81.2082,31.6826 C81.0272,31.4916 80.8892,31.2696 80.7932,31.0106 C80.6962,30.7526 80.6482,30.4676 80.6482,30.1566 C80.6482,29.8516 80.6962,29.5686 80.7932,29.3076 Z M87.8162,33.4596 L90.1962,33.4596 C90.6862,33.4596 91.1572,33.3886 91.6042,33.2446 C92.0532,33.1026 92.4472,32.8926 92.7902,32.6156 C93.1322,32.3386 93.4042,31.9966 93.6062,31.5886 C93.8082,31.1816 93.9092,30.7106 93.9092,30.1756 C93.9092,29.5716 93.8052,29.0586 93.5972,28.6356 C93.3892,28.2126 93.1072,27.8686 92.7522,27.6036 C92.3972,27.3406 91.9822,27.1486 91.5072,27.0306 C91.0312,26.9126 90.5282,26.8526 90.0002,26.8526 L87.8162,26.8526 L87.8162,33.4596 Z M89.2712,28.1966 L90.1302,28.1966 C90.4352,28.1966 90.7262,28.2356 91.0022,28.3136 C91.2802,28.3926 91.5202,28.5086 91.7262,28.6636 C91.9312,28.8186 92.0952,29.0166 92.2162,29.2556 C92.3372,29.4956 92.3972,29.7766 92.3972,30.1006 C92.3972,30.4736 92.3372,30.7896 92.2162,31.0476 C92.0952,31.3066 91.9282,31.5146 91.7172,31.6726 C91.5052,31.8316 91.2552,31.9446 90.9652,32.0136 C90.6762,32.0816 90.3642,32.1156 90.0272,32.1156 L89.2712,32.1156 L89.2712,28.1966 Z M94.4072,33.4596 L96.0122,33.4596 L96.5622,32.0606 L99.1282,32.0606 L99.6982,33.4596 L101.3402,33.4596 L98.4652,26.8526 L97.2622,26.8526 L94.4072,33.4596 Z M98.6342,30.8276 L97.0192,30.8276 L97.8222,28.7746 L98.6342,30.8276 Z M102.6402,33.4596 L104.0962,33.4596 L104.0962,30.8186 L104.8152,30.8186 L106.1962,33.4596 L107.9412,33.4596 L106.2612,30.6696 C106.7272,30.5826 107.0822,30.3756 107.3252,30.0486 C107.5682,29.7226 107.6892,29.3256 107.6892,28.8586 C107.6892,28.4746 107.6222,28.1516 107.4882,27.8946 C107.3542,27.6366 107.1742,27.4306 106.9472,27.2776 C106.7202,27.1256 106.4552,27.0166 106.1542,26.9506 C105.8522,26.8856 105.5332,26.8526 105.1972,26.8526 L102.6402,26.8526 L102.6402,33.4596 Z M104.0962,28.0846 L105.0482,28.0846 C105.1792,28.0846 105.3122,28.0946 105.4492,28.1126 C105.5862,28.1316 105.7072,28.1676 105.8132,28.2206 C105.9192,28.2726 106.0062,28.3496 106.0752,28.4486 C106.1432,28.5486 106.1772,28.6826 106.1772,28.8506 C106.1772,29.0296 106.1382,29.1706 106.0602,29.2696 C105.9832,29.3696 105.8842,29.4426 105.7662,29.4896 C105.6482,29.5356 105.5162,29.5636 105.3702,29.5726 C105.2232,29.5826 105.0852,29.5876 104.9542,29.5876 L104.0962,29.5876 L104.0962,28.0846 Z M113.8262,27.3756 C113.5462,27.1266 113.2322,26.9496 112.8832,26.8436 C112.5352,26.7376 112.1742,26.6856 111.8012,26.6856 C111.4772,26.6856 111.1632,26.7296 110.8582,26.8206 C110.5542,26.9106 110.2852,27.0466 110.0522,27.2266 C109.8182,27.4066 109.6322,27.6316 109.4922,27.8976 C109.3512,28.1656 109.2812,28.4766 109.2812,28.8316 C109.2812,29.1986 109.3582,29.4936 109.5102,29.7176 C109.6622,29.9416 109.8532,30.1226 110.0842,30.2596 C110.3142,30.3956 110.5632,30.5046 110.8312,30.5866 C111.0982,30.6666 111.3472,30.7476 111.5772,30.8276 C111.8072,30.9096 111.9982,31.0076 112.1512,31.1226 C112.3032,31.2376 112.3802,31.3946 112.3802,31.5936 C112.3802,31.7116 112.3502,31.8136 112.2912,31.9006 C112.2312,31.9886 112.1542,32.0606 112.0572,32.1156 C111.9612,32.1726 111.8522,32.2146 111.7312,32.2416 C111.6092,32.2696 111.4902,32.2836 111.3712,32.2836 C111.1292,32.2836 110.8942,32.2286 110.6672,32.1206 C110.4402,32.0126 110.2522,31.8576 110.1022,31.6586 L109.0672,32.7966 C109.3842,33.0906 109.7262,33.3016 110.0942,33.4326 C110.4602,33.5616 110.8582,33.6276 111.2882,33.6276 C111.6302,33.6276 111.9552,33.5836 112.2632,33.4966 C112.5712,33.4096 112.8422,33.2756 113.0752,33.0956 C113.3082,32.9156 113.4932,32.6886 113.6302,32.4146 C113.7662,32.1416 113.8352,31.8206 113.8352,31.4536 C113.8352,31.0676 113.7602,30.7596 113.6112,30.5296 C113.4622,30.2996 113.2732,30.1166 113.0462,29.9786 C112.8202,29.8426 112.5762,29.7366 112.3142,29.6616 C112.0532,29.5876 111.8082,29.5126 111.5822,29.4376 C111.3542,29.3626 111.1662,29.2726 111.0172,29.1676 C110.8682,29.0616 110.7932,28.9096 110.7932,28.7106 C110.7932,28.5856 110.8242,28.4796 110.8872,28.3936 C110.9492,28.3056 111.0292,28.2356 111.1292,28.1836 C111.2292,28.1306 111.3342,28.0916 111.4472,28.0656 C111.5582,28.0416 111.6672,28.0286 111.7732,28.0286 C111.9532,28.0286 112.1442,28.0646 112.3472,28.1366 C112.5492,28.2076 112.7092,28.3176 112.8272,28.4676 L113.8262,27.3756 Z M115.3632,33.4596 L116.8182,33.4596 L116.8182,30.3246 L119.5052,33.4596 L121.5402,33.4596 L118.3482,29.9236 L121.2882,26.8526 L119.3842,26.8526 L116.8182,29.5966 L116.8182,26.8526 L115.3632,26.8526 L115.3632,33.4596 Z M122.0662,33.4596 L123.6712,33.4596 L124.2222,32.0606 L126.7872,32.0606 L127.3562,33.4596 L128.9992,33.4596 L126.1252,26.8526 L124.9222,26.8526 L122.0662,33.4596 Z M126.2932,30.8276 L124.6792,30.8276 L125.4812,28.7746 L126.2932,30.8276 Z" id="Fill-304" fill="#000000"></path>
                <path d="M50.4497,23.7603 L51.9057,23.7603 L51.9057,20.9053 L54.7327,20.9053 L54.7327,23.7603 L56.1887,23.7603 L56.1887,17.1543 L54.7327,17.1543 L54.7327,19.6173 L51.9057,19.6173 L51.9057,17.1543 L50.4497,17.1543 L50.4497,23.7603 Z M58.3737,23.7603 L59.8287,23.7603 L59.8287,21.1193 L60.5477,21.1193 L61.9287,23.7603 L63.6737,23.7603 L61.9947,20.9703 C62.4607,20.8833 62.8157,20.6763 63.0577,20.3503 C63.3007,20.0243 63.4217,19.6273 63.4217,19.1593 C63.4217,18.7753 63.3547,18.4523 63.2217,18.1953 C63.0877,17.9363 62.9067,17.7313 62.6797,17.5783 C62.4527,17.4263 62.1887,17.3183 61.8877,17.2523 C61.5847,17.1863 61.2667,17.1543 60.9307,17.1543 L58.3737,17.1543 L58.3737,23.7603 Z M59.8287,18.3853 L60.7817,18.3853 C60.9117,18.3853 61.0457,18.3953 61.1817,18.4133 C61.3197,18.4323 61.4407,18.4683 61.5467,18.5213 C61.6517,18.5733 61.7397,18.6513 61.8077,18.7493 C61.8757,18.8493 61.9107,18.9833 61.9107,19.1513 C61.9107,19.3313 61.8707,19.4713 61.7937,19.5713 C61.7157,19.6703 61.6177,19.7433 61.4997,19.7893 C61.3817,19.8363 61.2487,19.8643 61.1027,19.8733 C60.9567,19.8833 60.8187,19.8883 60.6877,19.8883 L59.8287,19.8883 L59.8287,18.3853 Z M67.1057,23.7603 L68.2717,23.7603 L70.9957,17.1543 L69.4377,17.1543 L67.7767,21.4843 L67.7587,21.4843 L66.1257,17.1543 L64.4637,17.1543 L67.1057,23.7603 Z M70.6517,23.7603 L72.2567,23.7603 L72.8067,22.3613 L75.3737,22.3613 L75.9427,23.7603 L77.5847,23.7603 L74.7107,17.1543 L73.5067,17.1543 L70.6517,23.7603 Z M74.8787,21.1293 L73.2637,21.1293 L74.0667,19.0753 L74.8787,21.1293 Z M79.6647,23.7603 L81.1197,23.7603 L81.1197,18.4423 L83.0057,18.4423 L83.0057,17.1543 L77.7797,17.1543 L77.7797,18.4423 L79.6647,18.4423 L79.6647,23.7603 Z M88.6207,17.6773 C88.3417,17.4283 88.0267,17.2503 87.6787,17.1443 C87.3297,17.0383 86.9697,16.9863 86.5957,16.9863 C86.2727,16.9863 85.9587,17.0313 85.6537,17.1213 C85.3487,17.2113 85.0787,17.3473 84.8457,17.5273 C84.6137,17.7073 84.4267,17.9323 84.2857,18.1983 C84.1457,18.4663 84.0767,18.7783 84.0767,19.1323 C84.0767,19.4993 84.1527,19.7943 84.3047,20.0193 C84.4567,20.2423 84.6487,20.4223 84.8797,20.5603 C85.1087,20.6973 85.3577,20.8053 85.6257,20.8863 C85.8927,20.9673 86.1417,21.0483 86.3717,21.1293 C86.6017,21.2103 86.7937,21.3083 86.9457,21.4223 C87.0987,21.5373 87.1747,21.6953 87.1747,21.8943 C87.1747,22.0123 87.1447,22.1143 87.0857,22.2013 C87.0267,22.2893 86.9487,22.3613 86.8517,22.4173 C86.7557,22.4733 86.6477,22.5153 86.5257,22.5423 C86.4047,22.5713 86.2847,22.5843 86.1667,22.5843 C85.9237,22.5843 85.6887,22.5303 85.4617,22.4213 C85.2347,22.3133 85.0467,22.1583 84.8977,21.9593 L83.8627,23.0983 C84.1787,23.3903 84.5217,23.6023 84.8877,23.7323 C85.2547,23.8633 85.6537,23.9293 86.0827,23.9293 C86.4247,23.9293 86.7497,23.8843 87.0577,23.7973 C87.3667,23.7103 87.6367,23.5763 87.8697,23.3963 C88.1027,23.2163 88.2877,22.9893 88.4247,22.7153 C88.5617,22.4423 88.6297,22.1213 88.6297,21.7543 C88.6297,21.3683 88.5557,21.0613 88.4057,20.8303 C88.2567,20.6013 88.0687,20.4163 87.8417,20.2803 C87.6147,20.1433 87.3697,20.0373 87.1097,19.9623 C86.8477,19.8883 86.6037,19.8133 86.3767,19.7393 C86.1497,19.6643 85.9617,19.5733 85.8127,19.4683 C85.6627,19.3623 85.5887,19.2093 85.5887,19.0113 C85.5887,18.8863 85.6187,18.7813 85.6807,18.6943 C85.7427,18.6063 85.8247,18.5363 85.9237,18.4843 C86.0237,18.4313 86.1297,18.3923 86.2417,18.3663 C86.3527,18.3423 86.4617,18.3293 86.5677,18.3293 C86.7477,18.3293 86.9397,18.3653 87.1417,18.4373 C87.3437,18.5083 87.5037,18.6183 87.6227,18.7683 L88.6207,17.6773 Z M90.2507,23.7603 L91.7067,23.7603 L91.7067,20.6253 L94.3937,23.7603 L96.4287,23.7603 L93.2367,20.2243 L96.1767,17.1543 L94.2727,17.1543 L91.7067,19.8973 L91.7067,17.1543 L90.2507,17.1543 L90.2507,23.7603 Z M96.9537,23.7603 L98.5587,23.7603 L99.1097,22.3613 L101.6757,22.3613 L102.2447,23.7603 L103.8877,23.7603 L101.0127,17.1543 L99.8087,17.1543 L96.9537,23.7603 Z M101.1817,21.1293 L99.5677,21.1293 L100.3687,19.0753 L101.1817,21.1293 Z" id="Fill-305" fill="#000000"></path>
            </g>
        </g>
    </g>
</svg>