<?xml version="1.0" encoding="UTF-8"?>
<svg width="129px" height="33px" viewBox="0 0 129 33" version="1.1" xmlns="http://www.w3.org/2000/svg" xmlns:xlink="http://www.w3.org/1999/xlink">
    <!-- Generator: Sketch 50.2 (55047) - http://www.bohemiancoding.com/sketch -->
    <title>Shape</title>
    <desc>Created with Sketch.</desc>
    <defs></defs>
    <g id="Page-1" stroke="none" stroke-width="1" fill="none" fill-rule="evenodd">
        <g id="logo" fill="#005253" fill-rule="nonzero">
            <path d="M129,24.2 L129,23.7 C129,22 128.6,20.7 127.8,19.9 C127,19.1 125.9,18.7 124.6,18.7 C123.8,18.7 123,18.9 122.4,19.3 C121.8,19.7 121.4,20.3 121.1,21 L120.6,21 L120.6,19 L115,19 L115,22.2 L117.4,22.2 L117.4,32.3 L120.8,32.3 L120.8,24.8 C120.8,23.8 121,23.1 121.4,22.6 C121.8,22.1 122.4,21.8 123.2,21.8 C124,21.8 124.5,22 124.9,22.5 C125.3,22.9 125.5,23.5 125.5,24.3 L129,24.3 L129,24.2 Z M113.1,28.7 C113.5,27.9 113.7,26.9 113.7,25.8 L113.7,25.5 C113.7,24.4 113.5,23.4 113.1,22.6 C112.7,21.8 112.2,21 111.6,20.4 C111,19.8 110.2,19.4 109.4,19.1 C108.6,18.8 107.7,18.6 106.8,18.6 C105.9,18.6 105,18.8 104.2,19.1 C103.4,19.4 102.6,19.8 102,20.4 C101.4,21 100.8,21.7 100.5,22.6 C100.1,23.4 99.9,24.4 99.9,25.5 L99.9,25.8 C99.9,26.9 100.1,27.9 100.5,28.7 C100.9,29.5 101.4,30.3 102,30.8 C102.6,31.4 103.4,31.8 104.2,32.1 C105,32.4 105.9,32.6 106.8,32.6 C107.7,32.6 108.6,32.4 109.4,32.1 C110.2,31.8 111,31.4 111.6,30.8 C112.2,30.3 112.7,29.6 113.1,28.7 Z M110.2,25.9 C110.2,26.5 110.1,26.9 109.9,27.4 C109.7,27.8 109.5,28.2 109.1,28.5 C108.8,28.8 108.4,29 108,29.2 C107.6,29.4 107.1,29.4 106.6,29.4 C106.1,29.4 105.7,29.3 105.2,29.2 C104.8,29 104.4,28.8 104.1,28.5 C103.8,28.2 103.5,27.8 103.3,27.4 C103.1,27 103,26.5 103,25.9 L103,25.4 C103,24.8 103.1,24.4 103.3,23.9 C103.5,23.5 103.7,23.1 104.1,22.8 C104.4,22.5 104.8,22.3 105.2,22.1 C105.6,21.9 106.1,21.9 106.6,21.9 C107.1,21.9 107.5,22 108,22.1 C108.4,22.3 108.8,22.5 109.1,22.8 C109.4,23.1 109.7,23.5 109.9,23.9 C110.1,24.3 110.2,24.8 110.2,25.4 L110.2,25.9 Z M93.3,22.2 L98.1,22.2 L98.1,19 L93.3,19 L93.3,15.1 L89.9,15.1 L89.9,19 L87.5,19 L87.5,22.2 L89.9,22.2 L89.9,30.2 C89.9,30.8 90.1,31.3 90.5,31.7 C90.9,32.1 91.4,32.3 92,32.3 L97.7,32.3 L97.7,29.1 L94,29.1 C93.5,29.1 93.3,28.8 93.3,28.3 L93.3,22.2 Z M82.5,32.3 L85.9,32.3 L85.9,23.9 C85.9,23 85.8,22.2 85.5,21.5 C85.3,20.8 84.9,20.3 84.5,19.9 C84.1,19.5 83.6,19.2 83,19 C82.4,18.8 81.8,18.7 81.2,18.7 C80.3,18.7 79.5,18.9 78.8,19.3 C78.1,19.7 77.6,20.3 77.3,21 L76.8,21 L76.8,19 L73.4,19 L73.4,32.3 L76.8,32.3 L76.8,25.4 C76.8,24.3 77,23.4 77.5,22.7 C78,22 78.7,21.7 79.8,21.7 C80.7,21.7 81.3,22 81.8,22.5 C82.3,23 82.5,23.8 82.5,24.7 L82.5,32.3 Z M68.8,32.3 L71.1,32.3 L71.1,29.1 L70.6,29.1 C70.1,29.1 69.9,28.8 69.9,28.3 L69.9,19 L66.5,19 L66.5,20.6 L66,20.6 C65.7,19.9 65.2,19.4 64.6,19.1 C64,18.8 63.2,18.6 62.3,18.6 C61.5,18.6 60.8,18.8 60.1,19.1 C59.4,19.4 58.8,19.9 58.3,20.5 C57.8,21.1 57.4,21.8 57.1,22.6 C56.8,23.4 56.6,24.4 56.6,25.4 L56.6,25.8 C56.6,26.9 56.8,27.8 57.1,28.7 C57.4,29.5 57.8,30.3 58.4,30.8 C58.9,31.4 59.6,31.8 60.3,32.1 C61,32.4 61.8,32.6 62.6,32.6 C63.5,32.6 64.2,32.4 64.9,32.1 C65.5,31.8 66.1,31.2 66.4,30.3 L66.9,30.3 C66.9,30.9 67.1,31.3 67.5,31.7 C67.6,32.1 68.1,32.3 68.8,32.3 Z M66.4,25.8 C66.4,26.9 66.1,27.8 65.5,28.5 C64.9,29.2 64.1,29.5 63.1,29.5 C62.1,29.5 61.3,29.2 60.7,28.5 C60.1,27.8 59.8,27 59.8,25.8 L59.8,25.5 C59.8,24.4 60.1,23.5 60.7,22.8 C61.3,22.1 62.1,21.8 63.1,21.8 C64.1,21.8 64.9,22.1 65.5,22.8 C66.1,23.5 66.4,24.3 66.4,25.5 L66.4,25.8 Z M50,22.2 L54.8,22.2 L54.8,19 L50,19 L50,15.1 L46.6,15.1 L46.6,19 L44.2,19 L44.2,22.2 L46.6,22.2 L46.6,30.2 C46.6,30.8 46.8,31.3 47.2,31.7 C47.6,32.1 48.1,32.3 48.7,32.3 L54.4,32.3 L54.4,29.1 L50.8,29.1 C50.3,29.1 50.1,28.8 50.1,28.3 L50.1,22.2 L50,22.2 Z M42.8,28.3 L42.8,28.1 C42.8,26.9 42.4,26 41.5,25.3 C40.6,24.6 39.5,24.2 38.2,24.1 C37,24 36.2,23.8 35.7,23.6 C35.3,23.4 35,23.1 35,22.7 C35,22.4 35.1,22.1 35.4,21.9 C35.7,21.7 36.1,21.6 36.7,21.6 C37.3,21.6 37.8,21.7 38.2,22 C38.6,22.3 38.9,22.7 39,23.1 L42.1,21.9 C42,21.5 41.7,21.1 41.5,20.7 C41.2,20.3 40.9,19.9 40.4,19.6 C40,19.3 39.4,19 38.8,18.8 C38.2,18.6 37.4,18.5 36.6,18.5 C36,18.5 35.3,18.6 34.7,18.8 C34.1,19 33.5,19.2 33.1,19.6 C32.6,19.9 32.3,20.4 32,20.9 C31.7,21.4 31.6,22 31.6,22.6 L31.6,22.8 C31.6,24.1 32,25 32.9,25.7 C33.8,26.4 35,26.7 36.5,26.9 C37.1,27 37.5,27 37.9,27.1 C38.3,27.2 38.6,27.3 38.8,27.4 C39,27.5 39.2,27.7 39.2,27.8 C39.3,28 39.3,28.1 39.3,28.3 C39.3,28.6 39.1,28.9 38.8,29.1 C38.5,29.4 37.9,29.5 37.1,29.5 C36.1,29.5 35.4,29.3 35,28.9 C34.5,28.5 34.2,28 34.1,27.4 L31,28.4 C31.1,28.9 31.3,29.3 31.5,29.8 C31.8,30.3 32.1,30.7 32.6,31.1 C33.1,31.5 33.7,31.8 34.4,32.1 C35.1,32.4 36,32.5 37.1,32.5 C38.9,32.5 40.2,32.1 41.2,31.3 C42.3,30.7 42.8,29.6 42.8,28.3 Z M25.7,32.3 L29.1,32.3 L29.1,23.9 C29.1,23 29,22.2 28.7,21.5 C28.5,20.8 28.1,20.3 27.7,19.9 C27.3,19.5 26.8,19.2 26.2,19 C25.6,18.8 25,18.7 24.4,18.7 C23.5,18.7 22.7,18.9 22,19.3 C21.3,19.7 20.8,20.3 20.5,21 L20,21 L20,19 L16.6,19 L16.6,32.3 L20,32.3 L20,25.4 C20,24.3 20.2,23.4 20.7,22.7 C21.2,22 21.9,21.7 23,21.7 C23.9,21.7 24.5,22 25,22.5 C25.5,23 25.7,23.8 25.7,24.7 L25.7,32.3 Z M18.3,5.1 C18.3,2.3 16,0 13.2,0 C10.4,0 8.1,2.3 8.1,5.1 C8.1,7.9 10.4,10.2 13.2,10.2 C16,10.2 18.3,7.8 18.3,5.1 Z M8.1,10.4 C8.1,8.4 6.5,6.9 4.5,6.9 C2.5,6.9 0.9,8.5 0.9,10.4 C0.9,12.4 2.5,13.9 4.5,13.9 C6.5,13.9 8.1,12.4 8.1,10.4 Z M12.4,19 L6.5,19 L6.5,22.2 L9,22.2 L9,32.3 L12.4,32.3 L12.4,19 Z M10.7,17.3 C12.1,17.3 13.2,16.2 13.2,14.8 C13.2,13.4 12.1,12.3 10.7,12.3 C9.3,12.3 8.2,13.4 8.2,14.8 C8.2,16.2 9.3,17.3 10.7,17.3 Z" id="Shape"></path>
        </g>
    </g>
</svg>