<?xml version="1.0" encoding="UTF-8"?>
<svg width="1601px" height="689px" viewBox="0 0 1601 689" version="1.1" xmlns="http://www.w3.org/2000/svg" xmlns:xlink="http://www.w3.org/1999/xlink">
    <!-- Generator: Sketch 50.2 (55047) - http://www.bohemiancoding.com/sketch -->
    <title>logo_koios_eng</title>
    <desc>Created with Sketch.</desc>
    <defs></defs>
    <g id="Page-1" stroke="none" stroke-width="1" fill="none" fill-rule="evenodd">
        <g id="logo_koios_eng" fill-rule="nonzero">
            <path d="M464.011,484.705 C436.216,484.705 410.84,479.819 387.853,470.065 C364.889,460.264 345.138,446.949 328.686,430.154 C312.224,413.334 299.355,393.697 290.086,371.211 C280.85,348.75 276.169,324.806 276.169,299.45 L276.169,298.395 C276.169,273.039 280.85,249.11 290.086,226.634 C299.355,204.155 312.396,184.44 329.181,167.447 C345.994,150.456 365.885,137.009 388.9,127.073 C411.875,117.127 437.268,112.142 465.046,112.142 C492.849,112.142 518.214,117.032 541.222,126.804 C564.188,136.587 583.915,149.877 600.409,166.688 C616.861,183.492 629.723,203.147 638.959,225.618 C648.245,248.093 652.872,272.038 652.872,297.403 L652.872,298.432 C652.872,323.807 648.245,347.75 638.959,370.202 C629.723,392.689 616.693,412.387 599.878,429.397 C583.032,446.37 563.158,459.829 540.17,469.773 C517.19,479.717 491.819,484.705 464.011,484.705 M465.047,426.567 C482.818,426.567 499.11,423.203 514.004,416.518 C528.844,409.816 541.552,400.752 552.154,389.244 C562.755,377.748 571.032,364.309 577.021,348.845 C582.991,333.424 585.986,316.94 585.986,299.45 L585.986,298.395 C585.986,280.922 582.991,264.36 577.021,248.767 C571.033,233.156 562.649,219.597 551.883,208.124 C541.137,196.626 528.251,187.441 513.208,180.556 C498.184,173.726 481.792,170.276 464.011,170.276 C446.259,170.276 429.936,173.642 415.091,180.307 C400.235,187.019 387.492,196.117 376.907,207.598 C366.321,219.094 358.024,232.552 352.053,247.991 C346.063,263.429 343.079,279.886 343.079,297.379 L343.079,298.395 C343.079,315.905 346.063,332.448 352.053,348.061 C358.023,363.698 366.425,377.256 377.154,388.746 C387.92,400.218 400.832,409.395 415.886,416.261 C430.892,423.126 447.273,426.567 465.047,426.567" id="Shape" fill="#000000"></path>
            <path d="M1035.693,484.705 C1007.899,484.705 982.512,479.819 959.528,470.065 C936.517,460.264 916.835,446.949 900.346,430.154 C883.89,413.334 871.019,393.697 861.757,371.211 C852.494,348.75 847.865,324.806 847.865,299.45 L847.865,298.395 C847.865,273.039 852.494,249.11 861.757,226.634 C871.019,204.155 884.059,184.44 900.862,167.447 C917.662,150.456 937.569,137.009 960.547,127.073 C983.542,117.127 1008.937,112.142 1036.708,112.142 C1064.517,112.142 1089.885,117.032 1112.873,126.804 C1135.865,136.587 1155.596,149.877 1172.055,166.688 C1188.51,183.492 1201.364,203.147 1210.644,225.618 C1219.91,248.093 1224.535,272.038 1224.535,297.403 L1224.535,298.432 C1224.535,323.807 1219.91,347.75 1210.644,370.202 C1201.364,392.689 1188.341,412.387 1171.556,429.397 C1154.734,446.37 1134.831,459.829 1111.835,469.773 C1088.858,479.717 1063.465,484.705 1035.693,484.705 M1036.709,426.567 C1054.474,426.567 1070.797,423.203 1085.649,416.518 C1100.502,409.816 1113.233,400.752 1123.823,389.244 C1134.425,377.748 1142.677,364.309 1148.664,348.845 C1154.658,333.424 1157.637,316.94 1157.637,299.45 L1157.637,298.395 C1157.637,280.922 1154.658,264.36 1148.664,248.767 C1142.678,233.156 1134.314,219.597 1123.549,208.124 C1112.786,196.626 1099.915,187.441 1084.871,180.556 C1069.847,173.726 1053.45,170.276 1035.693,170.276 C1017.943,170.276 1001.623,173.642 986.749,180.307 C971.915,187.019 959.165,196.117 948.567,207.598 C937.988,219.094 929.706,232.552 923.719,247.991 C917.751,263.429 914.761,279.886 914.761,297.379 L914.761,298.395 C914.761,315.905 917.751,332.448 923.719,348.061 C929.705,363.698 938.069,377.256 948.849,388.746 C959.608,400.218 972.491,409.395 987.526,416.261 C1002.569,423.126 1018.94,426.567 1036.709,426.567" id="Shape" fill="#000000"></path>
            <path d="M1600.042,363.336 C1600.042,386.761 1581.049,405.789 1557.605,405.789 C1534.18,405.789 1515.168,386.761 1515.168,363.336 C1515.168,339.9 1534.18,320.923 1557.605,320.923 C1581.049,320.923 1600.042,339.9 1600.042,363.336" id="Shape" fill="#000000"></path>
            <path d="M796.461,43.2 C796.461,66.636 777.486,85.629 754.026,85.629 C730.6,85.629 711.575,66.635 711.575,43.2 C711.575,19.765 730.6,0.74 754.026,0.74 C777.486,0.739 796.461,19.764 796.461,43.2" id="Shape" fill="#00AEEF"></path>
            <polygon id="Shape" fill="#000000" points="0.042 117.679 60.021 117.679 60.021 295.498 200.109 117.679 272.481 117.679 146.32 273.289 278.149 479.525 206.824 479.525 104.995 320.839 60.021 375.108 60.021 479.525 0.042 479.525"></polygon>
            <rect id="Rectangle-path" fill="#000000" x="721.958" y="117.679" width="59.959" height="361.858"></rect>
            <path d="M1387.448,484.202 C1319.738,484.202 1270.127,443.35 1270.127,379.774 L1270.127,378.747 C1270.127,326.013 1301.123,298.103 1368.349,272.243 C1429.849,248.455 1443.285,235.035 1443.285,209.703 L1443.285,209.193 C1443.285,185.403 1423.122,167.301 1390.571,167.301 C1361.622,167.301 1334.214,181.275 1309.402,201.429 L1275.281,155.407 C1308.357,126.46 1347.147,113.038 1389.019,113.038 C1456.205,113.038 1503.769,154.904 1503.769,214.357 L1503.769,215.366 C1503.769,273.287 1468.111,298.601 1399.348,324.45 C1341.956,345.643 1330.072,360.669 1330.072,383.388 L1330.072,383.923 C1330.072,410.772 1352.298,429.91 1386.946,429.91 C1425.19,429.91 1455.192,411.314 1482.068,387.01 L1518.24,431.972 C1478.957,468.177 1433.989,484.202 1387.448,484.202" id="Shape" fill="#00AEEF"></path>
            <g id="Group" transform="translate(0.000000, 563.000000)" fill="#000000">
                <path d="M0.108,97.794 L0.108,5.145 L26.903,5.145 C36.297,5.145 43.369,7.496 47.929,12.147 C52.485,16.788 54.798,23.635 54.798,32.487 C54.798,41.452 52.659,48.495 48.428,53.425 C44.246,58.325 37.51,60.802 28.414,60.802 L10.95,60.802 L10.95,97.795 L0.108,97.795 L0.108,97.794 Z M10.951,51.854 L26.766,51.854 C32.287,51.854 36.464,50.457 39.179,47.699 C41.927,44.896 43.262,40.142 43.262,33.173 C43.262,26.207 41.916,21.263 39.262,18.46 C36.575,15.64 32.183,14.216 26.218,14.216 L10.951,14.216 L10.951,51.854 Z" id="Shape"></path>
                <path d="M96.505,99.569 C87.863,99.569 81.101,96.84 76.409,91.444 C71.69,86.018 69.296,76.878 69.296,64.274 C69.296,57.902 69.933,52.408 71.178,47.94 C72.42,43.508 74.182,39.851 76.426,37.082 C78.652,34.339 81.392,32.307 84.564,31.045 C87.773,29.765 91.376,29.115 95.275,29.115 C99.253,29.115 102.813,29.72 105.844,30.905 C108.828,32.068 111.407,33.968 113.498,36.539 C115.598,39.114 117.223,42.548 118.334,46.748 C119.449,50.999 120.014,56.248 120.014,62.363 L120.014,66.141 L80.129,66.141 L80.146,67.033 C80.236,71.713 80.59,75.656 81.189,78.76 C81.805,81.941 82.779,84.479 84.076,86.298 C85.421,88.176 87.178,89.508 89.3,90.248 C91.347,90.956 93.86,91.315 96.783,91.315 C100.644,91.315 103.868,90.669 106.366,89.375 C108.527,88.257 110.681,86.862 112.791,85.245 L118.17,92.343 C115.1,94.749 111.973,96.554 108.873,97.706 C105.554,98.938 101.391,99.569 96.505,99.569 Z M94.997,36.676 C92.903,36.676 90.977,36.994 89.282,37.625 C87.523,38.282 86.007,39.463 84.766,41.146 C83.569,42.775 82.582,45.001 81.821,47.742 C81.078,50.434 80.563,53.912 80.286,58.046 L80.22,58.978 L109.306,58.978 L109.306,58.109 C109.306,54.143 109.068,50.78 108.602,48.094 C108.127,45.324 107.296,43.091 106.126,41.437 C104.941,39.746 103.412,38.525 101.563,37.773 C99.771,37.038 97.563,36.676 94.997,36.676 Z" id="Shape"></path>
                <path d="M163.918,99.569 C159.846,99.569 156.106,98.894 152.802,97.581 C149.526,96.268 146.667,94.195 144.308,91.444 C141.931,88.678 140.055,85.021 138.728,80.601 C137.384,76.144 136.709,70.649 136.709,64.274 C136.709,57.998 137.366,52.546 138.662,48.086 C139.942,43.662 141.771,39.976 144.107,37.158 C146.423,34.359 149.253,32.305 152.522,31.048 C155.819,29.764 159.566,29.114 163.646,29.114 C167.723,29.114 171.494,29.763 174.835,31.048 C178.148,32.306 181.023,34.36 183.393,37.17 C185.768,39.986 187.643,43.662 188.973,48.086 C190.31,52.546 190.987,57.986 190.987,64.274 C190.987,70.63 190.33,76.126 189.037,80.612 C187.763,85.021 185.903,88.678 183.531,91.444 C181.173,94.195 178.313,96.267 175.03,97.581 C171.727,98.895 167.987,99.569 163.918,99.569 Z M163.778,36.676 C161.049,36.676 158.628,37.086 156.603,37.897 C154.501,38.766 152.771,40.289 151.453,42.446 C150.173,44.533 149.186,47.398 148.529,50.964 C147.882,54.459 147.553,58.935 147.553,64.276 C147.553,69.621 147.881,74.066 148.529,77.525 C149.18,81.036 150.195,83.9 151.526,86.049 C152.889,88.236 154.636,89.81 156.72,90.704 C158.741,91.569 161.164,92.01 163.917,92.01 C166.576,92.01 168.97,91.57 171.041,90.704 C173.172,89.809 174.918,88.265 176.242,86.115 C177.522,84.028 178.507,81.185 179.165,77.656 C179.818,74.186 180.141,69.725 180.141,64.407 C180.141,59.099 179.818,54.624 179.165,51.099 C178.501,47.519 177.494,44.654 176.168,42.567 C174.796,40.421 173.028,38.866 170.902,37.974 C168.842,37.115 166.443,36.676 163.778,36.676 Z" id="Shape"></path>
                <path d="M212.337,125.334 L212.337,30.895 L219.954,30.895 L222.101,39.632 L223.214,38.421 C225.785,35.578 228.657,33.293 231.75,31.621 C234.798,29.959 238.111,29.115 241.606,29.115 C244.777,29.115 247.763,29.629 250.483,30.637 C253.139,31.631 255.525,33.413 257.568,35.985 C259.628,38.56 261.253,42.144 262.404,46.619 C263.567,51.131 264.159,56.945 264.159,63.863 C264.159,76.5 262.27,85.744 258.55,91.323 C254.902,96.796 249.154,99.569 241.469,99.569 C237.786,99.569 234.435,98.835 231.51,97.397 C228.541,95.93 225.966,94.162 223.857,92.144 L222.368,90.717 L222.368,125.333 L212.337,125.333 L212.337,125.334 Z M239.551,37.504 C236.026,37.504 232.897,38.3 230.261,39.885 C227.695,41.429 225.133,43.425 222.637,45.827 L222.369,83.591 C224.705,86.21 227.104,87.871 229.779,89.185 C232.487,90.516 235.407,91.18 238.458,91.18 C241.024,91.18 243.239,90.868 245.046,90.248 C246.961,89.584 248.569,88.245 249.82,86.254 C251.018,84.335 251.913,81.607 252.478,78.11 C253.028,74.706 253.314,70.194 253.314,64.681 C253.314,59.215 253.077,54.685 252.619,51.207 C252.146,47.686 251.348,44.894 250.257,42.892 C249.111,40.797 247.605,39.353 245.784,38.6 C244.037,37.867 241.939,37.504 239.551,37.504 Z" id="Shape"></path>
                <path d="M298.195,99.166 C294.118,99.166 291.149,97.984 289.366,95.666 C287.535,93.274 286.602,89.122 286.602,83.323 L286.602,0.339 L296.632,0.339 L296.632,85.509 C296.632,89.177 298.648,91.18 302.305,91.18 C303.257,91.18 303.91,91.136 304.345,91.044 L305.689,97.992 C304.851,98.293 303.822,98.556 302.637,98.759 C301.087,99.026 299.611,99.166 298.195,99.166 Z" id="Shape"></path>
                <path d="M346.972,99.569 C338.328,99.569 331.564,96.84 326.878,91.444 C322.154,86.018 319.76,76.878 319.76,64.274 C319.76,57.902 320.396,52.408 321.647,47.94 C322.883,43.508 324.651,39.851 326.894,37.082 C329.121,34.339 331.857,32.307 335.026,31.045 C338.237,29.765 341.838,29.115 345.737,29.115 C349.72,29.115 353.28,29.72 356.31,30.905 C359.29,32.068 361.869,33.968 363.962,36.539 C366.062,39.114 367.689,42.548 368.798,46.748 C369.911,50.999 370.476,56.248 370.476,62.363 L370.476,66.141 L330.596,66.141 L330.611,67.033 C330.697,71.713 331.051,75.656 331.651,78.76 C332.267,81.941 333.241,84.479 334.541,86.298 C335.882,88.176 337.643,89.508 339.761,90.248 C341.808,90.956 344.324,91.315 347.244,91.315 C351.11,91.315 354.329,90.669 356.827,89.375 C358.987,88.257 361.146,86.862 363.253,85.245 L368.636,92.343 C365.56,94.749 362.433,96.554 359.333,97.706 C356.018,98.938 351.86,99.569 346.972,99.569 Z M345.461,36.676 C343.366,36.676 341.446,36.994 339.746,37.625 C337.987,38.282 336.472,39.463 335.23,41.146 C334.038,42.775 333.045,45.001 332.285,47.742 C331.546,50.434 331.027,53.912 330.75,58.046 L330.687,58.978 L359.77,58.978 L359.77,58.109 C359.77,54.143 359.532,50.78 359.071,48.094 C358.591,45.324 357.763,43.091 356.593,41.437 C355.41,39.746 353.875,38.525 352.03,37.773 C350.24,37.038 348.03,36.676 345.461,36.676 Z" id="Shape"></path>
                <path d="M397.798,99.026 C395.381,99.026 393.415,98.208 391.782,96.543 C390.157,94.87 389.365,92.878 389.365,90.446 C389.365,88.014 390.157,86.018 391.782,84.335 C393.403,82.681 395.371,81.874 397.798,81.874 C400.23,81.874 402.196,82.681 403.814,84.335 C405.446,86.019 406.239,88.015 406.239,90.446 C406.239,92.877 405.447,94.878 403.814,96.543 C402.188,98.208 400.222,99.026 397.798,99.026 Z" id="Shape"></path>
                <path d="M507.689,97.794 L477.766,47.456 L507.584,4.769 L519.043,5.099 L489.787,46.7 L520.254,97.794 L507.689,97.794 Z M464.312,97.794 L464.312,5.145 L475.159,5.145 L475.159,97.794 L464.312,97.794 Z" id="Shape"></path>
                <path d="M573.789,97.794 L573.789,48.659 C573.789,44.463 573.107,41.679 571.711,40.112 C570.31,38.56 567.902,37.779 564.545,37.779 C561.669,37.779 558.663,38.645 555.628,40.361 C552.648,42.034 549.873,43.997 547.389,46.223 L547.099,97.793 L537.065,97.793 L537.065,30.894 L544.653,30.894 L546.621,40.277 L547.771,39.132 C550.72,36.194 553.908,33.74 557.237,31.876 C560.518,30.05 564.181,29.114 568.108,29.114 C572.805,29.114 576.649,30.384 579.528,32.87 C582.371,35.335 583.811,39.399 583.811,44.957 L583.811,97.793 L573.789,97.793 L573.789,97.794 Z" id="Shape"></path>
                <path d="M631.825,99.569 C627.748,99.569 624.01,98.894 620.708,97.581 C617.427,96.268 614.57,94.195 612.209,91.444 C609.838,88.678 607.959,85.021 606.628,80.601 C605.291,76.144 604.616,70.649 604.616,64.274 C604.616,57.998 605.271,52.546 606.562,48.086 C607.846,43.662 609.678,39.976 612.017,37.158 C614.331,34.359 617.162,32.305 620.426,31.048 C623.727,29.764 627.472,29.114 631.548,29.114 C635.631,29.114 639.402,29.763 642.743,31.048 C646.056,32.306 648.931,34.36 651.295,37.17 C653.672,39.986 655.55,43.662 656.88,48.086 C658.215,52.546 658.894,57.986 658.894,64.274 C658.894,70.63 658.237,76.126 656.944,80.612 C655.662,85.021 653.81,88.678 651.433,91.444 C649.074,94.195 646.215,96.267 642.937,97.581 C639.628,98.895 635.891,99.569 631.825,99.569 Z M631.685,36.676 C628.956,36.676 626.535,37.086 624.508,37.897 C622.408,38.766 620.678,40.289 619.36,42.446 C618.08,44.533 617.091,47.398 616.436,50.964 C615.789,54.459 615.46,58.935 615.46,64.276 C615.46,69.621 615.788,74.066 616.436,77.525 C617.085,81.036 618.102,83.9 619.433,86.049 C620.796,88.236 622.542,89.81 624.627,90.704 C626.647,91.569 629.071,92.01 631.824,92.01 C634.478,92.01 636.877,91.57 638.942,90.704 C641.073,89.809 642.825,88.265 644.149,86.115 C645.423,84.028 646.414,81.185 647.072,77.656 C647.718,74.186 648.048,69.725 648.048,64.407 C648.048,59.099 647.717,54.624 647.072,51.099 C646.414,47.53 645.4,44.661 644.07,42.567 C642.704,40.421 640.93,38.866 638.804,37.974 C636.744,37.115 634.346,36.676 631.685,36.676 Z" id="Shape"></path>
                <path d="M729.1,97.794 L719.812,61.864 C719.361,60.224 718.952,58.489 718.592,56.64 L717.499,51.079 L716.399,45.999 L715.588,41.34 L714.121,41.34 L713.855,42.056 L712.4,50.21 C711.96,52.667 711.595,54.513 711.19,56.427 C710.777,58.323 710.348,60.136 709.897,61.864 L700.743,97.794 L690.32,97.794 L672.969,30.895 L683.742,30.895 L691.94,65.438 C692.389,67.243 692.798,69.26 693.16,71.475 C693.527,73.713 693.89,75.851 694.257,77.854 L695.469,85.565 L697,85.565 L697.367,84.798 C697.638,82.527 697.957,80.26 698.319,77.975 C698.596,76.06 698.937,74.094 699.342,72.047 C699.747,70.023 700.175,68.247 700.622,66.717 L709.783,30.895 L720.745,30.895 L729.341,65.588 C729.807,67.396 730.253,69.442 730.702,71.713 L731.946,77.997 C732.307,80.359 732.721,82.662 733.178,84.875 L733.324,85.564 L734.755,85.564 L735.17,84.856 C735.636,82.464 736.041,80.087 736.412,77.696 L737.569,71.497 C737.984,69.365 738.361,67.517 738.723,65.976 L747.057,30.894 L757.146,30.894 L739.519,97.793 L729.1,97.793 L729.1,97.794 Z" id="Shape"></path>
                <path d="M787.614,99.166 C783.535,99.166 780.568,97.984 778.781,95.666 C776.95,93.274 776.023,89.122 776.023,83.323 L776.023,0.339 L786.041,0.339 L786.041,85.509 C786.041,89.177 788.059,91.18 791.719,91.18 C792.666,91.18 793.326,91.136 793.762,91.044 L795.108,97.992 C794.272,98.293 793.238,98.556 792.045,98.759 C790.5,99.026 789.026,99.166 787.614,99.166 Z" id="Shape"></path>
                <path d="M836.378,99.569 C827.735,99.569 820.982,96.84 816.284,91.444 C811.562,86.018 809.168,76.878 809.168,64.274 C809.168,57.91 809.799,52.415 811.075,47.94 C812.307,43.512 814.064,39.855 816.316,37.082 C818.528,34.339 821.276,32.307 824.445,31.045 C827.651,29.765 831.257,29.115 835.141,29.115 C839.139,29.115 842.694,29.72 845.727,30.905 C848.717,32.068 851.281,33.968 853.382,36.539 C855.481,39.114 857.095,42.548 858.206,46.748 C859.332,50.984 859.89,56.23 859.89,62.363 L859.89,66.141 L820.002,66.141 L820.017,67.033 C820.123,71.713 820.468,75.66 821.07,78.76 C821.679,81.922 822.644,84.468 823.968,86.298 C825.303,88.187 827.071,89.511 829.176,90.248 C831.223,90.956 833.739,91.315 836.655,91.315 C840.51,91.315 843.735,90.669 846.248,89.375 C848.419,88.245 850.568,86.859 852.652,85.245 L858.044,92.343 C854.971,94.749 851.853,96.554 848.749,97.706 C845.438,98.938 841.268,99.569 836.378,99.569 Z M834.87,36.676 C832.787,36.676 830.861,36.994 829.159,37.625 C827.39,38.282 825.88,39.474 824.647,41.146 C823.451,42.775 822.46,44.991 821.698,47.742 C820.949,50.453 820.428,53.915 820.157,58.046 L820.102,58.978 L849.183,58.978 L849.183,58.109 C849.183,54.17 848.955,50.801 848.49,48.094 C848.01,45.336 847.187,43.102 846.025,41.437 C844.822,39.746 843.281,38.513 841.443,37.773 C839.657,37.05 837.445,36.676 834.87,36.676 Z" id="Shape"></path>
                <path d="M900.093,99.569 C896.957,99.569 893.953,99.059 891.209,98.05 C888.571,97.059 886.18,95.266 884.147,92.705 C882.085,90.13 880.458,86.558 879.287,82.071 C878.143,77.555 877.538,71.745 877.538,64.816 C877.538,52.171 879.431,42.935 883.153,37.367 C886.854,31.817 892.426,29.114 900.232,29.114 C903.9,29.114 907.227,29.958 910.14,31.612 C913.129,33.303 915.734,35.188 917.846,37.235 L919.335,38.659 L919.335,0.338 L929.367,0.338 L929.367,97.793 L921.73,97.793 L919.577,89.752 L918.495,90.944 C915.934,93.768 913.073,95.94 909.985,97.385 C906.935,98.835 903.6,99.569 900.093,99.569 Z M903.252,37.504 C900.713,37.504 898.498,37.817 896.66,38.436 C894.749,39.104 893.135,40.454 891.884,42.438 C890.674,44.382 889.808,47.035 889.236,50.571 C888.678,53.978 888.396,58.498 888.396,64.004 C888.396,69.62 888.624,74.022 889.1,77.481 C889.566,80.977 890.355,83.779 891.452,85.796 C892.6,87.891 894.075,89.343 895.861,90.084 C897.563,90.807 899.661,91.181 902.155,91.181 C905.666,91.181 908.769,90.517 911.374,89.178 C913.993,87.858 916.579,85.961 919.062,83.536 L919.336,45.773 C917,43.179 914.619,41.408 911.978,39.875 C909.253,38.3 906.325,37.504 903.252,37.504 Z" id="Shape"></path>
                <path d="M976.688,125.059 C966.898,125.059 959.859,123.371 955.794,120.06 C951.736,116.718 949.737,112.415 949.737,106.891 C949.737,103.453 950.607,100.666 952.294,98.605 C954.063,96.452 956.16,94.595 958.52,93.11 L959.719,92.343 L958.501,91.606 C955.276,89.662 953.725,86.771 953.725,82.769 C953.725,79.575 954.445,76.889 955.83,74.766 C957.29,72.569 959.007,70.704 960.926,69.215 L961.887,68.467 L960.86,67.785 C958.23,66.064 956.179,63.731 954.767,60.878 C953.347,57.998 952.624,54.487 952.624,50.435 C952.624,43.425 954.752,38.074 958.919,34.526 C963.152,30.939 968.933,29.116 976.134,29.116 C978.162,29.116 980.033,29.274 981.688,29.586 C983.372,29.898 984.967,30.319 986.474,30.848 L1005.959,30.896 L1005.959,36.467 L996.4,39.046 L996.866,40.007 C998.535,43.345 999.367,46.981 999.367,50.847 C999.367,57.845 997.317,63.106 993.271,66.477 C989.166,69.892 983.436,71.626 976.221,71.626 C972.942,71.626 970.076,71.307 967.714,70.688 L967.2,70.552 L966.841,70.945 C965.69,72.195 964.714,73.655 963.914,75.255 C963.081,76.928 962.652,78.49 962.652,79.896 C962.652,81.143 963.081,82.2 963.947,83.054 C964.801,83.915 966.239,84.334 968.334,84.334 L980.12,84.334 C987.636,84.334 993.574,85.933 997.734,89.103 C1001.828,92.191 1003.896,97.074 1003.896,103.603 C1003.896,110.337 1001.709,115.664 997.418,119.387 C993.084,123.151 986.104,125.059 976.688,125.059 Z M965.474,93.997 C963.828,95.244 962.455,96.84 961.403,98.715 C960.325,100.633 959.774,103.014 959.774,105.79 C959.774,107.701 959.962,109.374 960.361,110.757 C960.772,112.261 961.645,113.541 962.911,114.565 C964.162,115.563 965.933,116.3 968.149,116.792 C970.305,117.25 973.133,117.485 976.548,117.485 C982.208,117.485 986.474,116.418 989.273,114.304 C992.134,112.121 993.594,108.662 993.594,104.008 C993.594,100.046 992.362,97.299 989.963,95.854 C987.677,94.497 984.64,93.818 980.936,93.818 L965.691,93.818 L965.474,93.997 Z M975.858,36.811 C971.625,36.811 968.372,37.882 966.208,40.017 C964.036,42.145 962.929,45.784 962.929,50.846 C962.929,55.728 964.058,59.264 966.296,61.359 C968.5,63.417 971.761,64.459 975.998,64.459 C980.334,64.459 983.631,63.362 985.795,61.201 C987.967,59.033 989.074,55.465 989.074,50.571 C989.074,45.337 988.021,41.815 985.843,39.79 C983.716,37.816 980.352,36.811 975.858,36.811 Z" id="Shape"></path>
                <path d="M1046.962,99.569 C1038.319,99.569 1031.57,96.84 1026.886,91.444 C1022.165,86.018 1019.77,76.878 1019.77,64.274 C1019.77,57.887 1020.397,52.393 1021.648,47.94 C1022.884,43.498 1024.656,39.84 1026.905,37.086 C1029.113,34.339 1031.857,32.307 1035.03,31.045 C1038.239,29.765 1041.842,29.115 1045.752,29.115 C1049.729,29.115 1053.279,29.72 1056.313,30.905 C1059.302,32.068 1061.871,33.968 1063.987,36.539 C1066.07,39.133 1067.703,42.566 1068.796,46.748 C1069.919,51.011 1070.494,56.263 1070.494,62.363 L1070.494,66.141 L1030.607,66.141 L1030.622,67.033 C1030.71,71.713 1031.055,75.671 1031.675,78.763 C1032.269,81.94 1033.244,84.478 1034.554,86.297 C1035.893,88.186 1037.654,89.51 1039.782,90.247 C1041.825,90.955 1044.327,91.314 1047.243,91.314 C1051.116,91.314 1054.341,90.668 1056.824,89.374 C1059.007,88.244 1061.164,86.861 1063.262,85.244 L1068.644,92.342 C1065.574,94.748 1062.459,96.553 1059.352,97.705 C1056.021,98.938 1051.854,99.569 1046.962,99.569 Z M1045.473,36.676 C1043.37,36.676 1041.445,36.994 1039.746,37.625 C1037.996,38.282 1036.467,39.463 1035.23,41.146 C1034.039,42.786 1033.044,45.001 1032.281,47.742 C1031.552,50.441 1031.031,53.812 1030.76,58.046 L1030.686,58.978 L1059.775,58.978 L1059.775,58.109 C1059.775,54.17 1059.544,50.801 1059.078,48.094 C1058.579,45.274 1057.772,43.102 1056.609,41.437 C1055.403,39.746 1053.854,38.513 1052.046,37.773 C1050.241,37.05 1048.044,36.676 1045.473,36.676 Z" id="Shape"></path>
                <path d="M1097.82,99.026 C1095.395,99.026 1093.425,98.208 1091.797,96.543 C1090.169,94.878 1089.376,92.886 1089.376,90.446 C1089.376,88.004 1090.168,86.018 1091.797,84.335 C1093.426,82.681 1095.381,81.874 1097.82,81.874 C1100.233,81.874 1102.207,82.681 1103.828,84.347 C1105.457,86.019 1106.253,88.015 1106.253,90.447 C1106.253,92.879 1105.457,94.879 1103.828,96.544 C1102.207,98.208 1100.233,99.026 1097.82,99.026 Z" id="Shape"></path>
                <path d="M1209.412,97.794 L1200.15,71.79 C1199.137,68.926 1198.085,66.53 1197.009,64.656 C1195.912,62.756 1194.749,61.259 1193.539,60.191 C1192.307,59.109 1190.935,58.353 1189.497,57.947 C1188.073,57.557 1186.548,57.367 1184.952,57.367 L1175.161,57.367 L1175.161,97.794 L1164.3,97.794 L1164.3,5.145 L1189.739,5.145 C1198.535,5.145 1205.534,7.239 1210.559,11.384 C1215.533,15.474 1218.052,21.926 1218.052,30.568 C1218.052,37.563 1216.614,43.004 1213.768,46.749 C1210.94,50.513 1206.564,53.212 1200.75,54.801 L1198.156,55.512 L1200.669,56.474 C1202.873,57.306 1204.917,58.876 1206.729,61.128 C1208.582,63.417 1210.368,67.019 1212.07,71.824 L1221.387,97.795 L1209.412,97.795 L1209.412,97.794 Z M1175.162,48.846 L1189.185,48.846 C1195.741,48.846 1200.34,47.335 1202.874,44.361 C1205.372,41.429 1206.652,36.84 1206.652,30.712 C1206.652,25.012 1205.339,20.797 1202.767,18.171 C1200.178,15.54 1195.619,14.216 1189.184,14.216 L1175.161,14.216 L1175.161,48.846 L1175.162,48.846 Z" id="Shape"></path>
                <path d="M1263.587,99.569 C1254.944,99.569 1248.181,96.84 1243.496,91.444 C1238.794,86.018 1236.384,76.878 1236.384,64.274 C1236.384,57.887 1237.022,52.393 1238.273,47.94 C1239.505,43.498 1241.278,39.84 1243.515,37.086 C1245.734,34.339 1248.478,32.307 1251.655,31.045 C1254.861,29.765 1258.46,29.115 1262.373,29.115 C1266.35,29.115 1269.904,29.72 1272.931,30.905 C1275.912,32.068 1278.492,33.968 1280.597,36.539 C1282.692,39.133 1284.327,42.566 1285.417,46.748 C1286.531,51.011 1287.118,56.263 1287.118,62.363 L1287.118,66.141 L1247.227,66.141 L1247.246,67.033 C1247.33,71.713 1247.679,75.671 1248.288,78.763 C1248.89,81.94 1249.865,84.478 1251.171,86.297 C1252.503,88.186 1254.275,89.51 1256.401,90.247 C1258.437,90.955 1260.95,91.314 1263.866,91.314 C1267.736,91.314 1270.961,90.668 1273.447,89.374 C1275.63,88.244 1277.783,86.861 1279.885,85.244 L1285.263,92.342 C1282.193,94.748 1279.075,96.553 1275.968,97.705 C1272.644,98.938 1268.477,99.569 1263.587,99.569 Z M1262.094,36.676 C1259.981,36.676 1258.07,36.994 1256.367,37.625 C1254.618,38.282 1253.088,39.463 1251.855,41.146 C1250.66,42.786 1249.655,45.001 1248.906,47.742 C1248.166,50.441 1247.656,53.812 1247.381,58.046 L1247.308,58.978 L1276.396,58.978 L1276.396,58.109 C1276.396,54.17 1276.154,50.801 1275.7,48.094 C1275.201,45.274 1274.39,43.102 1273.22,41.437 C1272.025,39.746 1270.48,38.513 1268.657,37.773 C1266.866,37.05 1264.665,36.676 1262.094,36.676 Z" id="Shape"></path>
                <path d="M1323.337,99.569 C1318.807,99.569 1314.504,98.835 1310.542,97.397 C1306.918,96.069 1303.951,94.569 1301.731,92.918 L1305.81,85.673 C1308.513,87.467 1311.293,88.883 1314.052,89.892 C1317.089,91.022 1320.402,91.59 1323.886,91.59 C1328.838,91.59 1332.184,90.636 1334.106,88.641 C1335.995,86.682 1336.953,83.953 1336.953,80.524 C1336.953,78.506 1336.678,76.79 1336.135,75.436 C1335.567,74.06 1334.668,72.869 1333.472,71.9 C1332.287,70.961 1330.746,70.175 1328.751,69.486 C1326.851,68.838 1324.532,68.147 1321.774,67.395 C1319.46,66.776 1317.211,65.957 1315.138,64.982 C1313.098,64.036 1311.293,62.755 1309.764,61.204 C1308.271,59.663 1307.076,57.705 1306.206,55.408 C1305.321,53.101 1304.882,50.269 1304.882,47.009 C1304.882,44.672 1305.288,42.368 1306.067,40.179 C1306.838,38.03 1308.058,36.118 1309.698,34.479 C1311.327,32.838 1313.495,31.526 1316.099,30.568 C1318.718,29.615 1321.895,29.116 1325.519,29.116 C1329.542,29.116 1333.082,29.498 1335.995,30.261 C1338.637,30.929 1341.139,31.905 1343.441,33.14 L1340.023,40.884 C1337.371,39.6 1335.115,38.723 1333.208,38.213 C1331.091,37.652 1328.641,37.369 1325.919,37.369 C1316.254,37.369 1314.229,42.457 1314.229,46.734 C1314.229,48.484 1314.453,49.951 1314.916,51.099 C1315.382,52.294 1316.148,53.34 1317.23,54.202 C1318.25,55.031 1319.599,55.772 1321.251,56.403 C1322.814,57.001 1324.809,57.625 1327.215,58.27 C1329.819,58.997 1332.321,59.833 1334.724,60.772 C1337.042,61.689 1339.111,62.976 1340.898,64.58 C1342.666,66.186 1344.088,68.226 1345.13,70.643 C1346.183,73.093 1346.711,76.2 1346.711,79.894 C1346.711,86.698 1344.796,91.727 1341,94.837 C1337.162,97.984 1331.212,99.569 1323.337,99.569 Z" id="Shape"></path>
                <path d="M1384.033,99.569 C1379.327,99.569 1375.336,98.182 1372.127,95.457 C1368.969,92.775 1367.355,88.546 1367.355,82.904 L1367.355,30.894 L1377.391,30.894 L1377.391,79.207 C1377.391,83.58 1378.164,86.559 1379.745,88.297 C1381.322,90.032 1383.824,90.901 1387.184,90.901 C1390.052,90.901 1393.02,90.064 1395.965,88.399 C1398.848,86.77 1401.625,84.779 1404.196,82.464 L1404.485,30.894 L1414.536,30.894 L1414.536,97.793 L1406.936,97.793 L1404.973,88.398 L1403.818,89.543 C1400.953,92.4 1397.89,94.836 1394.68,96.74 C1391.546,98.623 1387.954,99.569 1384.033,99.569 Z" id="Shape"></path>
                <path d="M1452.403,99.166 C1448.324,99.166 1445.357,97.984 1443.57,95.666 C1441.744,93.285 1440.812,89.133 1440.812,83.323 L1440.812,0.339 L1450.84,0.339 L1450.84,85.509 C1450.84,89.177 1452.847,91.18 1456.522,91.18 C1457.465,91.18 1458.118,91.136 1458.562,91.044 L1459.897,97.992 C1459.046,98.293 1458.038,98.556 1456.845,98.759 C1455.302,99.026 1453.809,99.166 1452.403,99.166 Z" id="Shape"></path>
                <path d="M1495.276,99.569 C1490.835,99.569 1487.067,98.534 1484.07,96.509 C1481.183,94.55 1479.723,90.955 1479.723,85.821 L1479.723,38.876 L1471.907,38.876 L1471.907,30.895 L1479.723,30.895 L1479.723,13.041 L1489.759,10.837 L1489.759,30.895 L1503.87,30.895 L1503.87,38.876 L1489.759,38.876 L1489.759,84.725 C1489.759,90.652 1493.277,91.892 1496.24,91.892 C1497.891,91.892 1499.358,91.668 1500.649,91.228 C1501.522,90.923 1502.362,90.62 1503.191,90.292 L1505.077,97.354 C1503.757,97.941 1502.341,98.436 1500.866,98.847 C1499.194,99.327 1497.305,99.569 1495.276,99.569 Z" id="Shape"></path>
                <path d="M1539.001,99.569 C1534.471,99.569 1530.164,98.835 1526.203,97.397 C1522.586,96.069 1519.622,94.569 1517.385,92.918 L1521.464,85.673 C1524.182,87.467 1526.958,88.883 1529.721,89.892 C1532.754,91.022 1536.067,91.59 1539.544,91.59 C1544.499,91.59 1547.852,90.636 1549.767,88.641 C1551.653,86.682 1552.61,83.953 1552.61,80.524 C1552.61,78.506 1552.339,76.79 1551.796,75.436 C1551.224,74.06 1550.336,72.869 1549.137,71.9 C1547.945,70.961 1546.401,70.175 1544.42,69.486 C1542.513,68.838 1540.201,68.147 1537.44,67.395 C1535.118,66.776 1532.877,65.957 1530.796,64.982 C1528.753,64.036 1526.959,62.755 1525.434,61.204 C1523.945,59.663 1522.742,57.705 1521.865,55.408 C1520.992,53.101 1520.545,50.269 1520.545,47.009 C1520.545,44.672 1520.959,42.368 1521.73,40.179 C1522.501,38.03 1523.718,36.118 1525.365,34.479 C1526.998,32.838 1529.155,31.526 1531.759,30.568 C1534.393,29.615 1537.555,29.116 1541.175,29.116 C1545.206,29.116 1548.743,29.498 1551.655,30.261 C1554.296,30.929 1556.798,31.905 1559.101,33.14 L1555.686,40.884 C1553.027,39.6 1550.789,38.723 1548.877,38.213 C1546.746,37.652 1544.3,37.369 1541.589,37.369 C1531.912,37.369 1529.895,42.457 1529.895,46.734 C1529.895,48.484 1530.119,49.951 1530.574,51.099 C1531.04,52.294 1531.806,53.34 1532.892,54.202 C1533.905,55.031 1535.258,55.772 1536.909,56.403 C1538.465,57.001 1540.478,57.625 1542.874,58.27 C1545.478,58.997 1547.979,59.833 1550.386,60.772 C1552.7,61.689 1554.781,62.976 1556.564,64.58 C1558.324,66.186 1559.748,68.226 1560.804,70.643 C1561.845,73.093 1562.377,76.2 1562.377,79.894 C1562.377,86.698 1560.455,91.727 1556.666,94.837 C1552.818,97.984 1546.865,99.569 1539.001,99.569 Z" id="Shape"></path>
                <path d="M1589.551,99.026 C1587.138,99.026 1585.164,98.208 1583.535,96.543 C1581.899,94.878 1581.114,92.886 1581.114,90.446 C1581.114,88.004 1581.899,86.018 1583.535,84.335 C1585.164,82.681 1587.123,81.874 1589.551,81.874 C1591.976,81.874 1593.943,82.681 1595.571,84.347 C1597.208,86.019 1597.993,88.015 1597.993,90.447 C1597.993,92.879 1597.208,94.879 1595.571,96.544 C1593.942,98.208 1591.976,99.026 1589.551,99.026 Z" id="Shape"></path>
            </g>
        </g>
    </g>
</svg>