<?xml version="1.0" encoding="UTF-8"?>
<svg width="285px" height="115px" viewBox="0 0 285 115" version="1.1" xmlns="http://www.w3.org/2000/svg" xmlns:xlink="http://www.w3.org/1999/xlink">
    <!-- Generator: Sketch 50.2 (55047) - http://www.bohemiancoding.com/sketch -->
    <title>Fill 1</title>
    <desc>Created with Sketch.</desc>
    <defs></defs>
    <g id="Page-1" stroke="none" stroke-width="1" fill="none" fill-rule="evenodd">
        <g id="kpmg-seeklogo.com" transform="translate(-46.000000, -89.000000)" fill="#253D72">
            <path d="M267.382,89.534 L267.382,146.34 C265.397,147.907 263.71,149.585 262.138,151.394 L262.138,89.534 L199.214,89.534 L199.214,141.26 L194.001,141.26 L194.001,89.534 L131.066,89.534 L131.066,141.342 L125.86,141.342 L125.86,89.534 L62.924,89.534 L62.924,148.583 L46.869,202.121 L60.99,202.121 L68.084,178.41 L70.124,178.41 L81.836,202.121 L98.9,202.121 L87.536,178.41 L113.322,178.41 L106.167,202.121 L121.601,202.121 L128.66,178.477 L132.048,178.477 L132.048,178.41 L166.406,178.41 L159.592,202.051 L175.151,202.051 L181.754,178.41 L188.756,178.41 L188.943,202.051 L201.997,202.051 L216.978,178.41 L226.787,178.41 L221.728,202.051 L237.048,202.051 L242.017,178.41 L250.877,178.41 C250.525,185.739 252.398,192.395 257.259,196.877 C263.194,202.332 272.31,203.375 279.058,203.375 C288.288,203.375 297.87,202.051 307.511,199.877 L312.819,178.41 L330.306,178.41 L330.306,89.534 L267.382,89.534 Z M123.592,144.357 L122.677,147.391 L114.314,175.217 L113.984,176.196 L86.461,176.196 L84.314,171.662 L113.984,141.342 L94.921,141.342 L71.72,166.334 L79.235,141.342 L65.179,141.342 L65.179,91.778 L123.592,91.778 L123.592,144.357 Z M139.84,167.887 L139.822,167.887 C139.256,167.916 138.686,167.965 138.033,167.965 C137.18,167.965 136.514,167.996 135.885,167.996 L132.144,167.965 L133.874,161.57 L134.692,158.394 L136.655,150.954 C137.524,150.954 138.377,150.923 139.191,150.923 C140.152,150.923 141.15,150.923 142.088,150.923 C147.031,150.923 150.159,151.204 151.296,152.794 C152.169,153.987 152.056,156.051 151.026,159.189 C149.263,164.594 147.031,167.338 139.84,167.887 Z M182.383,176.196 L188.539,154.342 L188.756,176.196 L182.383,176.196 Z M191.739,141.26 L177.109,141.26 L167.073,176.196 L151.56,176.196 C159.465,173.272 164.275,167.688 165.763,159.402 C166.989,152.963 166.406,148.726 163.781,145.555 C159.846,140.834 151.948,141.239 144.931,141.239 C143.705,141.239 133.327,141.26 133.327,141.26 L133.327,91.778 L191.739,91.778 L191.739,141.26 Z M227.23,176.196 L218.437,176.196 L231.748,155.252 L227.23,176.196 Z M259.874,142.243 L259.845,154.342 C255.769,159.974 253.238,166.123 252.055,171.077 C251.607,172.811 251.293,174.494 251.123,176.196 L242.532,176.196 L249.877,141.342 L225.156,141.319 L203.03,176.196 L201.419,176.196 L201.419,91.778 L259.874,91.778 L259.874,142.243 Z M293.575,190.463 C290.237,191.067 286.909,191.469 283.741,191.469 C275.31,191.469 269.446,187.551 269.323,178.41 L296.563,178.41 L293.575,190.463 Z M328.085,176.196 L313.358,176.196 L315.79,166.457 L286.284,166.457 L283.858,176.196 L269.601,176.196 L269.601,174.196 C269.821,173.098 270.011,171.948 270.286,170.717 C272.88,160.216 279.774,149.839 291.7,149.839 C296.419,149.839 301.108,151.638 300.466,158.165 L318.021,158.165 C318.712,155.119 319.874,149.931 316.562,145.162 C312.819,139.979 305.282,137.899 295.507,137.899 C288.554,137.899 278.386,139.012 269.601,144.746 L269.601,91.778 L328.085,91.778 L328.085,176.196 Z" id="Fill-1"></path>
        </g>
    </g>
</svg>