<svg xmlns="http://www.w3.org/2000/svg" viewBox="0 0 747.8 513.47">
  <defs>
    <style>
      .cls-1, .cls-2 {
        fill: #1256a3;
      }

      .cls-1 {
        fill-rule: evenodd;
      }
    </style>
  </defs>
  <title>Asset 1</title>
  <g id="Layer_2" data-name="Layer 2">
    <g id="Layer_1-2" data-name="Layer 1">
      <g>
        <path class="cls-1" d="M373.9,27.35a124.77,124.77,0,0,1,18.76,1.41l22.95-23A151.92,151.92,0,1,0,453.9,280.88l-20-20L324.84,151.83,433.92,42.75l20-20A151.77,151.77,0,0,0,428.05,9.94L406.36,31.63l-39,39-81.23,81.23L406.36,272A124.49,124.49,0,1,1,373.9,27.35ZM465,67l-50.6,50.61L380.1,151.83,465,236.69a124.47,124.47,0,0,0,7.61-160.76L492,56.46A151.82,151.82,0,0,1,484.31,256a153.39,153.39,0,0,1-20.53,18.15l-19.61-19.61L341.42,151.83,444.17,49.07l19.61-19.61a152.76,152.76,0,0,1,20.53,18.16Z"/>
        <g>
          <g>
            <polygon class="cls-2" points="38.12 413.6 73.22 377.29 55.01 377.29 14.84 419.75 14.84 377.29 0 377.29 0 461.73 14.84 461.73 14.84 437.25 27.99 423.73 56.82 461.73 74.79 461.73 38.12 413.6"/>
            <path class="cls-2" d="M162.43,461.73l-22.8-32a31.41,31.41,0,0,0,8.14-3.44,25,25,0,0,0,6.34-5.43,24.45,24.45,0,0,0,4.16-7.36,30.08,30.08,0,0,0-.66-20.63,22.88,22.88,0,0,0-6.22-8.44,28.45,28.45,0,0,0-9.89-5.31,43.06,43.06,0,0,0-13.09-1.87H90.78v84.44h14.83V432.3h18.58l20.75,29.43ZM144.7,404.92A12.71,12.71,0,0,1,140,415.29q-4.69,3.85-12.66,3.86H105.61V390.8h21.6q8.33,0,12.9,3.56T144.7,404.92Z"/>
            <rect class="cls-2" x="182.16" y="377.29" width="14.84" height="84.44"/>
            <path class="cls-2" d="M288.25,405.64a29.31,29.31,0,0,0-2.23-11.7,25.43,25.43,0,0,0-6.39-8.93,28.53,28.53,0,0,0-10.14-5.73,42.17,42.17,0,0,0-13.33-2H222.87v84.44h14.84V434.59h16.77a44.83,44.83,0,0,0,13.14-1.87,32.18,32.18,0,0,0,10.74-5.49,25.72,25.72,0,0,0,7.24-9.05,28.18,28.18,0,0,0,2.65-12.54Zm-15.08.36a13.8,13.8,0,0,1-4.88,11Q263.4,421.2,255,421.2H237.71V390.8H255q8.32,0,13.27,3.8T273.17,406Z"/>
            <polygon class="cls-2" points="342.48 391.04 369.26 391.04 369.26 377.29 300.74 377.29 300.74 391.04 327.52 391.04 327.52 461.73 342.48 461.73 342.48 391.04"/>
            <path class="cls-2" d="M468.24,419.39A44.22,44.22,0,0,0,465,402.5a41.94,41.94,0,0,0-22.92-23.22,45.2,45.2,0,0,0-17.85-3.44,44,44,0,0,0-31.85,13,42.47,42.47,0,0,0-9.17,13.93,45.51,45.51,0,0,0,0,33.78,41.94,41.94,0,0,0,22.92,23.22A45.21,45.21,0,0,0,424,463.18a44.52,44.52,0,0,0,17.85-3.5,44.06,44.06,0,0,0,14-9.47A42.37,42.37,0,0,0,465,436.28a44.22,44.22,0,0,0,3.26-16.89Zm-15.56.24a32.1,32.1,0,0,1-2.12,11.64,29.11,29.11,0,0,1-5.85,9.53,27.19,27.19,0,0,1-9,6.4,28.35,28.35,0,0,1-32.21-6.58,29.44,29.44,0,0,1-5.91-9.59,33.16,33.16,0,0,1,0-23.28,29.28,29.28,0,0,1,5.85-9.53,27.35,27.35,0,0,1,9-6.39,29.22,29.22,0,0,1,23.1.06,28.23,28.23,0,0,1,9.1,6.51,29.38,29.38,0,0,1,5.91,9.59A32.1,32.1,0,0,1,452.68,419.63Z"/>
            <polygon class="cls-2" points="557.69 401.18 557.69 461.73 572.52 461.73 572.52 377.29 556.72 377.29 531.03 417.22 505.33 377.29 489.53 377.29 489.53 461.73 504.13 461.73 504.13 401.42 530.54 440.99 531.03 440.99 557.69 401.18"/>
            <path class="cls-2" d="M641.22,376.69H627.47l-37.15,85h15.2l8.68-20.38h39.93l8.57,20.38h15.68l-37.16-85Zm7.48,51.51H619.63l14.48-33.78Z"/>
            <polygon class="cls-2" points="721.02 391.04 747.8 391.04 747.8 377.29 679.29 377.29 679.29 391.04 706.07 391.04 706.07 461.73 721.02 461.73 721.02 391.04"/>
          </g>
          <g>
            <path class="cls-2" d="M142.62,486.2H132.16v23.32H143a13.89,13.89,0,0,0,3.53-.42,8.16,8.16,0,0,0,2.73-1.23,5.64,5.64,0,0,0,1.75-2,6.59,6.59,0,0,0,.28-4.88,4.57,4.57,0,0,0-1-1.58,6.19,6.19,0,0,0-1.46-1.15,13,13,0,0,0-1.88-.85,9.69,9.69,0,0,0,1.25-.8,5.17,5.17,0,0,0,1.06-1.08,5.06,5.06,0,0,0,.73-1.45,5.83,5.83,0,0,0,.29-1.9,5.21,5.21,0,0,0-2.07-4.36,8.87,8.87,0,0,0-5.59-1.6Zm-.84,9.83h-5.59v-6.2h5.89a5.07,5.07,0,0,1,3,.78,2.61,2.61,0,0,1,1.05,2.22,2.67,2.67,0,0,1-1.2,2.41,5.7,5.7,0,0,1-3.2.79Zm1.2,9.86h-6.79v-6.4h6.49a6.39,6.39,0,0,1,3.62.83,3,3,0,0,1,0,4.75,5.83,5.83,0,0,1-3.3.82Zm32.81-19.69H171.7v13.42a6.76,6.76,0,0,1-1.57,4.87,6.42,6.42,0,0,1-8.63-.07,7.09,7.09,0,0,1-1.56-5V486.2h-4.1v13.42a12.87,12.87,0,0,0,.7,4.45,8.71,8.71,0,0,0,2,3.22,8.32,8.32,0,0,0,3.13,1.94,12,12,0,0,0,4.1.65,12.34,12.34,0,0,0,4.15-.65,8,8,0,0,0,3.14-2,9,9,0,0,0,2-3.28,13.25,13.25,0,0,0,.71-4.57V486.2Zm16.63,14,9.26-14H197l-6.59,10.33-6.53-10.33H179l9.26,14.12v9.2h4.13Z"/>
            <rect class="cls-2" x="216.17" y="482.62" width="3.23" height="30.85"/>
            <path class="cls-2" d="M239.75,492.48a2.48,2.48,0,0,1,1-2,4.29,4.29,0,0,1,2.8-.82,8.64,8.64,0,0,1,3.17.62,14.06,14.06,0,0,1,3.16,1.78l2.2-3.1a13.81,13.81,0,0,0-3.85-2.18,13.31,13.31,0,0,0-4.61-.75,10.23,10.23,0,0,0-3.2.48,7.18,7.18,0,0,0-2.51,1.39,6.29,6.29,0,0,0-2.25,4.93,6.7,6.7,0,0,0,.51,2.76,5.34,5.34,0,0,0,1.5,1.93,8.27,8.27,0,0,0,2.43,1.33,27.31,27.31,0,0,0,3.32,1,26.37,26.37,0,0,1,2.65.77,6.62,6.62,0,0,1,1.6.78,2.36,2.36,0,0,1,.8.92,2.88,2.88,0,0,1,.21,1.13,2.52,2.52,0,0,1-1.11,2.16,5.05,5.05,0,0,1-3,.8,9.51,9.51,0,0,1-3.93-.78,14.23,14.23,0,0,1-3.43-2.25l-2.47,2.93a14,14,0,0,0,4.57,2.82,14.68,14.68,0,0,0,5.16.91,11.64,11.64,0,0,0,3.37-.46,7.65,7.65,0,0,0,2.63-1.37,6.26,6.26,0,0,0,1.71-2.2,6.81,6.81,0,0,0,.62-3,6.24,6.24,0,0,0-.48-2.55,5.68,5.68,0,0,0-1.42-1.9,8.15,8.15,0,0,0-2.35-1.38,25.05,25.05,0,0,0-3.25-1c-1.11-.27-2-.53-2.74-.77a6.44,6.44,0,0,1-1.7-.8,2.44,2.44,0,0,1-.85-.93,2.73,2.73,0,0,1-.24-1.2Zm35.15-6.1H257.61V509.7h17.46V506H261.71v-6.27H273.4v-3.66H261.71v-6.06H274.9v-3.67Zm5,23.32h16.36V506H284V486.38h-4.1V509.7Zm20.62,0h16.36V506H304.65V486.38h-4.1Z"/>
            <rect class="cls-2" x="332.06" y="482.62" width="3.23" height="30.85"/>
            <path class="cls-2" d="M355.65,492.48a2.45,2.45,0,0,1,1-2,4.26,4.26,0,0,1,2.79-.82,8.6,8.6,0,0,1,3.17.62,14.06,14.06,0,0,1,3.16,1.78L368,489a13.81,13.81,0,0,0-3.85-2.18,13.31,13.31,0,0,0-4.61-.75,10.27,10.27,0,0,0-3.2.48,7.37,7.37,0,0,0-2.51,1.39,6.29,6.29,0,0,0-2.25,4.93,6.54,6.54,0,0,0,.52,2.76,5.13,5.13,0,0,0,1.5,1.93,8,8,0,0,0,2.43,1.33,27.13,27.13,0,0,0,3.31,1,26.37,26.37,0,0,1,2.65.77,6.44,6.44,0,0,1,1.6.78,2.28,2.28,0,0,1,.8.92,2.88,2.88,0,0,1,.21,1.13,2.52,2.52,0,0,1-1.11,2.16,5.05,5.05,0,0,1-3,.8,9.51,9.51,0,0,1-3.93-.78,14.23,14.23,0,0,1-3.43-2.25l-2.46,2.93a14.06,14.06,0,0,0,4.56,2.82,14.72,14.72,0,0,0,5.16.91,11.54,11.54,0,0,0,3.37-.46,7.56,7.56,0,0,0,2.63-1.37,6.29,6.29,0,0,0,1.72-2.2,6.81,6.81,0,0,0,.61-3,6.24,6.24,0,0,0-.48-2.55,5.42,5.42,0,0,0-1.42-1.9,8.15,8.15,0,0,0-2.35-1.38,25.38,25.38,0,0,0-3.24-1c-1.11-.27-2-.53-2.75-.77a6.6,6.6,0,0,1-1.7-.8,2.52,2.52,0,0,1-.85-.93,2.73,2.73,0,0,1-.23-1.2Zm27.21-2.3h7.4v-3.8H371.34v3.8h7.39V509.7h4.13V490.18ZM416.68,498a12.16,12.16,0,0,0-.9-4.66,11.92,11.92,0,0,0-2.5-3.84,12.08,12.08,0,0,0-3.83-2.58,12.56,12.56,0,0,0-4.93-.95,12.32,12.32,0,0,0-4.93,1,12.12,12.12,0,0,0-3.87,2.61,11.76,11.76,0,0,0-2.53,3.85,12.54,12.54,0,0,0,0,9.33,11.81,11.81,0,0,0,2.5,3.83,11.55,11.55,0,0,0,3.83,2.58,12.52,12.52,0,0,0,4.93,1,12.19,12.19,0,0,0,4.93-1,12,12,0,0,0,3.86-2.61,11.69,11.69,0,0,0,2.54-3.85,12.16,12.16,0,0,0,.9-4.66Zm-4.3.07a8.84,8.84,0,0,1-.59,3.21,7.89,7.89,0,0,1-1.61,2.63,7.64,7.64,0,0,1-2.48,1.77,8,8,0,0,1-6.38,0,7.63,7.63,0,0,1-2.52-1.8,8.13,8.13,0,0,1-1.63-2.65,9.2,9.2,0,0,1,0-6.43,8.19,8.19,0,0,1,1.62-2.63,7.41,7.41,0,0,1,2.48-1.76,7.54,7.54,0,0,1,3.18-.65,7.73,7.73,0,0,1,3.2.66,7.86,7.86,0,0,1,4.14,4.45,8.85,8.85,0,0,1,.59,3.22Zm29.05,11.62-6.3-8.83a8.7,8.7,0,0,0,2.25-.95,7,7,0,0,0,1.75-1.49,6.79,6.79,0,0,0,1.15-2,7.77,7.77,0,0,0,.41-2.61,7.66,7.66,0,0,0-.6-3.08,6.45,6.45,0,0,0-1.71-2.34,7.92,7.92,0,0,0-2.73-1.46,11.72,11.72,0,0,0-3.62-.52H421.64V509.7h4.1v-8.13h5.13l5.73,8.13ZM436.53,494a3.51,3.51,0,0,1-1.3,2.87,5.36,5.36,0,0,1-3.5,1.06h-6v-7.83h6a5.65,5.65,0,0,1,3.56,1,3.43,3.43,0,0,1,1.27,2.91ZM463,486.38H445.72V509.7h17.46V506H449.82v-6.27h11.69v-3.66H449.82v-6.06H463Z"/>
            <path class="cls-2" d="M498.32,506l-2.63-2.66a14.38,14.38,0,0,1-3,2.21,7.73,7.73,0,0,1-3.66.82,7.37,7.37,0,0,1-3.09-.65,7.49,7.49,0,0,1-2.44-1.79,7.85,7.85,0,0,1-1.6-2.64,9.18,9.18,0,0,1-.57-3.25,9,9,0,0,1,.57-3.23,7.86,7.86,0,0,1,1.6-2.62,7.55,7.55,0,0,1,2.44-1.76,7.22,7.22,0,0,1,3.09-.65,7.62,7.62,0,0,1,3.56.8,12.94,12.94,0,0,1,3,2.1l2.64-3a16.33,16.33,0,0,0-1.77-1.46,10.87,10.87,0,0,0-2-1.15,12,12,0,0,0-2.42-.75A14.48,14.48,0,0,0,489,486a12.14,12.14,0,0,0-4.86.95,11.68,11.68,0,0,0-3.8,2.6,11.53,11.53,0,0,0-2.48,3.85,12.87,12.87,0,0,0,0,9.43,11.89,11.89,0,0,0,2.48,3.81,11.65,11.65,0,0,0,3.75,2.55,11.88,11.88,0,0,0,4.73.93,14.44,14.44,0,0,0,3-.28,11.2,11.2,0,0,0,2.49-.83,12.58,12.58,0,0,0,2.11-1.3,15.07,15.07,0,0,0,1.88-1.72Zm24.09,3.73-6.3-8.83a8.7,8.7,0,0,0,2.25-.95,7,7,0,0,0,1.75-1.49,6.79,6.79,0,0,0,1.15-2,7.53,7.53,0,0,0,.41-2.61,7.83,7.83,0,0,0-.59-3.08,6.47,6.47,0,0,0-1.72-2.34,7.83,7.83,0,0,0-2.73-1.46,11.68,11.68,0,0,0-3.62-.52H502.62V509.7h4.1v-8.13h5.13l5.73,8.13ZM517.51,494a3.51,3.51,0,0,1-1.3,2.87,5.34,5.34,0,0,1-3.5,1.06h-6v-7.83h6a5.65,5.65,0,0,1,3.56,1,3.43,3.43,0,0,1,1.27,2.91Zm19.35,6.4,9.27-14h-4.7l-6.6,10.33-6.53-10.33h-4.83l9.26,14.13v9.19h4.13v-9.29Zm30.92-6.2a8.09,8.09,0,0,0-.62-3.23,7,7,0,0,0-1.76-2.47,8,8,0,0,0-2.8-1.58,11.8,11.8,0,0,0-3.68-.55h-9.2V509.7h4.1v-7.49h4.63a12.54,12.54,0,0,0,3.63-.52,8.88,8.88,0,0,0,3-1.52,7.18,7.18,0,0,0,2-2.49,7.94,7.94,0,0,0,.73-3.47Zm-4.17.1a3.83,3.83,0,0,1-1.34,3.05,5.49,5.49,0,0,1-3.69,1.15h-4.76v-8.4h4.76a5.86,5.86,0,0,1,3.67,1.05,3.72,3.72,0,0,1,1.36,3.15Zm18.23-4.13h7.39v-3.8H570.31v3.8h7.4V509.7h4.13V490.18ZM615.65,498a12.16,12.16,0,0,0-.9-4.66,11.75,11.75,0,0,0-2.5-3.84,12,12,0,0,0-3.83-2.58,12.52,12.52,0,0,0-4.93-.95,12.36,12.36,0,0,0-4.93,1,12.12,12.12,0,0,0-3.87,2.61,11.93,11.93,0,0,0-2.53,3.85,12.54,12.54,0,0,0,0,9.33,12,12,0,0,0,2.5,3.83,11.65,11.65,0,0,0,3.83,2.58,12.52,12.52,0,0,0,4.93,1,12.22,12.22,0,0,0,8.8-3.58,11.66,11.66,0,0,0,2.53-3.85,12.16,12.16,0,0,0,.9-4.66Zm-4.3.07a8.83,8.83,0,0,1-.58,3.21,8.08,8.08,0,0,1-1.62,2.63,7.53,7.53,0,0,1-2.48,1.77,8,8,0,0,1-6.38,0,7.59,7.59,0,0,1-2.51-1.8,8.16,8.16,0,0,1-1.64-2.65,9.2,9.2,0,0,1,0-6.43,8.19,8.19,0,0,1,1.62-2.63,7.62,7.62,0,0,1,5.66-2.41,7.7,7.7,0,0,1,3.2.66,7.93,7.93,0,0,1,2.52,1.8,8.24,8.24,0,0,1,1.63,2.65A8.84,8.84,0,0,1,611.35,498.08Z"/>
          </g>
        </g>
      </g>
    </g>
  </g>
</svg>
