<?xml version="1.0" encoding="UTF-8"?>
<svg width="166px" height="36px" viewBox="0 0 166 36" version="1.1" xmlns="http://www.w3.org/2000/svg" xmlns:xlink="http://www.w3.org/1999/xlink">
    <!-- Generator: Sketch 50.2 (55047) - http://www.bohemiancoding.com/sketch -->
    <title>Combined Shape</title>
    <desc>Created with Sketch.</desc>
    <defs></defs>
    <g id="Page-2" stroke="none" stroke-width="1" fill="none" fill-rule="evenodd">
        <g id="locastic_2018_styleguide" transform="translate(-338.000000, -278.000000)" fill="#00AAE4">
            <path d="M357.0666,307.439 C357.1545,307.6479 357.2205,307.9238 357.2644,308.266 C357.308,308.6081 357.3305,309.0302 357.3305,309.5315 C357.3305,310.0327 357.308,310.4545 357.2644,310.7966 C357.2205,311.1391 357.1545,311.4231 357.0666,311.6488 C356.9784,311.8742 356.8688,312.0372 356.7367,312.1372 C356.6049,312.2377 356.4507,312.2876 356.275,312.2876 L340.6325,312.2876 C340.052,312.2876 339.5641,312.1246 339.1685,311.7989 C338.7729,311.4735 338.5751,310.9431 338.5751,310.208 L338.5751,280.7648 C338.5751,280.5983 338.6316,280.4479 338.7464,280.314 C338.8608,280.1801 339.0497,280.0721 339.3136,279.9883 C339.5774,279.9046 339.9336,279.8379 340.3819,279.7875 C340.8303,279.7377 341.3883,279.7124 342.057,279.7124 C342.7427,279.7124 343.3055,279.7377 343.7454,279.7875 C344.1846,279.8379 344.5366,279.9046 344.8005,279.9883 C345.0643,280.0721 345.2529,280.1801 345.3677,280.314 C345.4817,280.4479 345.5389,280.5983 345.5389,280.7648 L345.5389,306.8501 L356.275,306.8501 C356.4507,306.8501 356.6049,306.8963 356.7367,306.9878 C356.8688,307.08 356.9784,307.2301 357.0666,307.439 Z M381.053,290.8748 C382.0425,291.9463 382.7781,293.2647 383.2602,294.8294 C383.7416,296.3945 383.9828,298.1883 383.9828,300.2124 C383.9828,302.1515 383.725,303.9207 383.2085,305.519 C382.6921,307.1179 381.9089,308.4953 380.8594,309.652 C379.8096,310.8087 378.4932,311.7014 376.91,312.3307 C375.3265,312.9596 373.4767,313.2747 371.3601,313.2747 C369.3118,313.2747 367.5306,312.9938 366.0164,312.4327 C364.5021,311.8713 363.2454,311.055 362.2476,309.9836 C361.2494,308.9121 360.5091,307.5944 360.0277,306.0293 C359.5459,304.4643 359.3047,302.6787 359.3047,300.6714 C359.3047,298.7326 359.5669,296.9595 360.0923,295.3523 C360.6171,293.7451 361.4043,292.3674 362.4542,291.2193 C363.5036,290.0711 364.816,289.1827 366.3905,288.5535 C367.9654,287.9242 369.8112,287.6094 371.9278,287.6094 C373.9931,287.6094 375.7826,287.886 377.2971,288.4386 C378.8111,288.9914 380.0631,289.8034 381.053,290.8748 Z M376.9616,303.6948 C377.1849,302.7508 377.2971,301.6754 377.2971,300.4676 C377.2971,299.3451 377.2069,298.3115 377.0259,297.3678 C376.8454,296.4238 376.5395,295.6035 376.1097,294.9058 C375.6796,294.2084 375.1069,293.6648 374.3932,293.2729 C373.6789,292.8818 372.7797,292.6862 371.6956,292.6862 C370.7314,292.6862 369.8888,292.861 369.1658,293.2094 C368.4429,293.5578 367.8492,294.0681 367.3847,294.7402 C366.9199,295.4122 366.5715,296.2196 366.3392,297.1636 C366.1067,298.1077 365.9907,299.1834 365.9907,300.3909 C365.9907,301.5134 366.085,302.5469 366.2746,303.4906 C366.4638,304.4347 366.769,305.2552 367.1911,305.9526 C367.6126,306.6504 368.185,307.19 368.9076,307.5726 C369.6306,307.9553 370.5248,308.1469 371.5923,308.1469 C372.5731,308.1469 373.4251,307.9724 374.148,307.6237 C374.8707,307.2753 375.4644,306.7689 375.9288,306.1057 C376.3936,305.4426 376.7378,304.6388 376.9616,303.6948 Z M405.5066,305.9509 C405.5667,306.1809 405.6136,306.4748 405.6481,306.8328 C405.6823,307.1908 405.6996,307.6507 405.6996,308.2129 C405.6996,308.6567 405.6866,309.0272 405.6611,309.3254 C405.6352,309.6233 405.6006,309.8748 405.5581,310.0793 C405.5153,310.2839 405.4638,310.4501 405.4037,310.5775 C405.3433,310.7055 405.2108,310.8678 405.0049,311.0635 C404.799,311.2595 404.4477,311.498 403.9503,311.7791 C403.4522,312.0605 402.8864,312.3119 402.2522,312.5333 C401.6176,312.7544 400.927,312.9335 400.1808,313.0701 C399.4351,313.2064 398.667,313.2747 397.8784,313.2747 C396.1119,313.2747 394.5469,313.0018 393.1832,312.4568 C391.8197,311.9111 390.6748,311.106 389.7484,310.0407 C388.8223,308.976 388.1233,307.6761 387.6518,306.1426 C387.1796,304.6091 386.9442,302.8538 386.9442,300.8766 C386.9442,298.5928 387.2311,296.6205 387.8062,294.959 C388.3807,293.2971 389.1826,291.921 390.2116,290.8302 C391.2406,289.7401 392.4586,288.9302 393.8649,288.4019 C395.2711,287.8737 396.8148,287.6094 398.496,287.6094 C399.1817,287.6094 399.8551,287.6695 400.5156,287.7883 C401.1757,287.9077 401.793,288.0697 402.3677,288.2739 C402.9425,288.4785 403.4569,288.7088 403.9115,288.9641 C404.3657,289.2198 404.6871,289.4412 404.8764,289.6289 C405.065,289.8167 405.1978,289.974 405.2752,290.1017 C405.3522,290.2297 405.4123,290.3957 405.4552,290.6003 C405.4977,290.8048 405.5325,291.0565 405.5581,291.3545 C405.5837,291.6527 405.5966,292.015 405.5966,292.4409 C405.5966,293.4291 405.5106,294.1239 405.3396,294.5241 C405.168,294.9246 404.9445,295.1249 404.6705,295.1249 C404.3787,295.1249 404.0699,295.0061 403.7441,294.7673 C403.4184,294.5284 403.0325,294.2648 402.5866,293.9748 C402.1403,293.6848 401.609,293.4212 400.9914,293.182 C400.3738,292.9434 399.6366,292.8243 398.7789,292.8243 C397.0977,292.8243 395.8114,293.4677 394.9198,294.7541 C394.0279,296.0415 393.582,297.9283 393.582,300.4167 C393.582,301.6433 393.6935,302.7262 393.9163,303.6628 C394.1391,304.6002 394.4695,305.3844 394.9068,306.0146 C395.3445,306.6451 395.893,307.1182 396.5535,307.4336 C397.2133,307.749 397.9813,307.9064 398.856,307.9064 C399.7475,307.9064 400.5156,307.7747 401.1587,307.5105 C401.8019,307.2462 402.3638,306.9519 402.8439,306.6282 C403.3237,306.3046 403.7272,306.0109 404.0533,305.7463 C404.3787,305.4821 404.6533,305.3501 404.8764,305.3501 C405.0305,305.3501 405.1593,305.393 405.2623,305.4778 C405.3652,305.5636 405.4462,305.7209 405.5066,305.9509 Z M428.0377,289.7395 C428.8515,290.4629 429.445,291.3941 429.8183,292.5334 C430.1906,293.6727 430.3777,295.025 430.3777,296.5897 L430.3777,311.897 C430.3777,312.1354 430.2927,312.3221 430.1233,312.4581 C429.9539,312.5944 429.6867,312.6915 429.3223,312.7518 C428.9572,312.8114 428.4192,312.841 427.7068,312.841 C426.9439,312.841 426.3881,312.8114 426.0411,312.7518 C425.6931,312.6915 425.4469,312.5944 425.3034,312.4581 C425.159,312.3221 425.0868,312.1354 425.0868,311.897 L425.0868,310.0857 C424.1545,311.0893 423.0902,311.8713 421.8949,312.4327 C420.6996,312.9938 419.3727,313.2747 417.9142,313.2747 C416.71,313.2747 415.6037,313.1173 414.5953,312.8025 C413.5861,312.488 412.7129,312.0205 411.9753,311.3998 C411.2376,310.7788 410.6654,310.0093 410.2583,309.0906 C409.8513,308.1723 409.6481,307.1008 409.6481,305.8762 C409.6481,304.5496 409.9061,303.3975 410.4235,302.4192 C410.9408,301.4412 411.712,300.6332 412.7382,299.9957 C413.7641,299.3576 415.0401,298.8857 416.5663,298.5795 C418.0924,298.2733 419.8642,298.1202 421.8824,298.1202 L424.095,298.1202 L424.095,296.7428 C424.095,296.0283 424.0225,295.4033 423.879,294.8676 C423.7346,294.3319 423.4976,293.8854 423.1667,293.5281 C422.8361,293.1712 422.3949,292.9075 421.8444,292.7372 C421.2928,292.5676 420.6103,292.482 419.7965,292.482 C418.7283,292.482 417.7747,292.6012 416.9349,292.8393 C416.0958,293.078 415.3539,293.3411 414.7095,293.6302 C414.0648,293.92 413.5267,294.1831 413.0944,294.4211 C412.662,294.6595 412.3098,294.7784 412.0389,294.7784 C411.8521,294.7784 411.6867,294.7188 411.5429,294.5999 C411.3988,294.4811 411.2796,294.3105 411.1867,294.0895 C411.0935,293.8686 411.0213,293.5963 410.9704,293.2729 C410.9198,292.9503 410.8942,292.593 410.8942,292.2015 C410.8942,291.6747 410.9362,291.2578 411.0213,290.9516 C411.1063,290.6453 411.2668,290.3691 411.5045,290.1225 C411.7422,289.8762 412.1571,289.6035 412.751,289.3059 C413.3445,289.0089 414.0395,288.7319 414.8365,288.4767 C415.6336,288.2216 416.5029,288.0138 417.4438,287.8518 C418.3849,287.6901 419.3553,287.6094 420.3563,287.6094 C422.1365,287.6094 423.6584,287.784 424.922,288.1323 C426.1846,288.481 427.2236,289.0168 428.0377,289.7395 Z M424.095,306.0293 L424.095,302.1515 L421.6533,302.1515 C420.6189,302.1515 419.7368,302.2279 419.008,302.381 C418.2789,302.5341 417.6854,302.7636 417.2277,303.0698 C416.7698,303.3757 416.4349,303.7458 416.2229,304.1795 C416.0108,304.6131 415.9051,305.1107 415.9051,305.6721 C415.9051,306.625 416.2058,307.3728 416.8079,307.9171 C417.4096,308.4617 418.2451,308.7337 419.3133,308.7337 C420.2118,308.7337 421.0388,308.5038 421.7931,308.0445 C422.5475,307.5855 423.3151,306.9138 424.095,306.0293 Z M449.3067,300.7481 C449.8458,301.2927 450.2809,301.9434 450.6113,302.7001 C450.9413,303.4567 451.1073,304.3543 451.1073,305.3915 C451.1073,306.6839 450.8591,307.8239 450.3638,308.8101 C449.8677,309.7962 449.1673,310.6214 448.2631,311.2849 C447.3586,311.948 446.2888,312.4452 445.0539,312.7771 C443.8187,313.1087 442.4798,313.2747 441.0358,313.2747 C440.1656,313.2747 439.3356,313.2111 438.5442,313.0834 C437.7522,312.9556 437.044,312.7939 436.418,312.5987 C435.7916,312.4031 435.2696,312.2032 434.8521,311.9991 C434.4348,311.7949 434.1304,311.6036 433.9388,311.4251 C433.7472,311.2467 433.5997,310.9658 433.4956,310.5832 C433.3909,310.2006 433.3391,309.6352 433.3391,308.8868 C433.3391,308.3935 433.3559,307.9981 433.3909,307.7001 C433.4259,307.4031 433.4781,307.1643 433.5475,306.9859 C433.6169,306.8071 433.7041,306.6885 433.8088,306.6286 C433.9129,306.5693 434.0435,306.5394 434.2001,306.5394 C434.3914,306.5394 434.6736,306.6457 435.0477,306.8585 C435.4222,307.0712 435.8866,307.3049 436.4439,307.5598 C437.0005,307.815 437.6481,308.0537 438.3876,308.274 C439.1271,308.4953 439.9663,308.6059 440.9055,308.6059 C441.4965,308.6059 442.0228,308.5466 442.4838,308.4271 C442.9445,308.3086 443.3449,308.138 443.6843,307.9171 C444.0234,307.6965 444.2797,307.4156 444.4538,307.0751 C444.6272,306.7353 444.7148,306.3441 444.7148,305.9016 C444.7148,305.3915 444.5538,304.9536 444.2322,304.5878 C443.91,304.2223 443.484,303.9032 442.9536,303.6312 C442.4229,303.3593 441.8224,303.1041 441.1533,302.8657 C440.4835,302.6276 439.7966,302.3642 439.0921,302.0748 C438.3876,301.7857 437.7,301.4541 437.0308,301.08 C436.3614,300.706 435.761,300.247 435.2306,299.702 C434.6995,299.1581 434.2739,298.5031 433.9519,297.7376 C433.6297,296.9723 433.4694,296.054 433.4694,294.9825 C433.4694,293.8943 433.6866,292.8946 434.1217,291.9848 C434.5561,291.0754 435.1824,290.297 436,289.6503 C436.8177,289.0039 437.8134,288.5024 438.9877,288.1452 C440.1619,287.7879 441.4796,287.6094 442.9408,287.6094 C443.6712,287.6094 444.3794,287.6605 445.067,287.7626 C445.754,287.8646 446.3756,287.9921 446.9326,288.1452 C447.4893,288.2983 447.9587,288.4639 448.3416,288.6427 C448.7238,288.8212 448.9976,288.9743 449.1632,289.1017 C449.3286,289.2295 449.4461,289.3569 449.5155,289.4847 C449.5849,289.6121 449.6367,289.7652 449.6721,289.9437 C449.7068,290.1225 449.7374,290.3434 449.7633,290.6071 C449.7896,290.8709 449.8027,291.1982 449.8027,291.5894 C449.8027,292.0487 449.7896,292.4228 449.7633,292.7119 C449.7374,293.0013 449.6936,293.2308 449.633,293.4007 C449.5717,293.5709 449.4896,293.6855 449.3848,293.7451 C449.2808,293.8051 449.1592,293.8344 449.0198,293.8344 C448.8635,293.8344 448.6194,293.7451 448.2894,293.5663 C447.9587,293.3879 447.5458,293.1966 447.0501,292.9924 C446.5541,292.7886 445.9803,292.597 445.328,292.4185 C444.6757,292.24 443.9318,292.1508 443.0974,292.1508 C442.5057,292.1508 441.9922,292.2104 441.5578,292.3293 C441.1227,292.4481 440.7661,292.6187 440.4882,292.8393 C440.2094,293.0606 440.001,293.3204 439.8616,293.6177 C439.7221,293.9154 439.6531,294.2341 439.6531,294.5742 C439.6531,295.1017 439.8181,295.5436 440.1488,295.9009 C440.4788,296.2578 440.9142,296.5729 441.4534,296.8449 C441.9922,297.1172 442.6054,297.3721 443.293,297.6101 C443.98,297.8485 444.6757,298.1077 445.3802,298.3882 C446.0847,298.6691 446.7801,298.9967 447.4674,299.3704 C448.1543,299.7448 448.7676,300.2042 449.3067,300.7481 Z M468.8254,293.8265 L463.6397,293.8265 L463.6397,304.3274 C463.6397,305.5472 463.8429,306.4619 464.2513,307.0716 C464.6588,307.6817 465.3858,307.9864 466.432,307.9864 C466.7869,307.9864 467.1057,307.9576 467.3893,307.8987 C467.6728,307.8405 467.9254,307.7735 468.1471,307.6982 C468.3689,307.6231 468.5553,307.5565 468.7056,307.4976 C468.8563,307.4391 468.9939,307.4103 469.1182,307.4103 C469.2242,307.4103 469.3265,307.4391 469.4237,307.4976 C469.5208,307.5565 469.5966,307.6733 469.6499,307.8486 C469.7034,308.0239 469.7518,308.262 469.7961,308.5628 C469.84,308.8636 469.8627,309.2482 469.8627,309.7159 C469.8627,310.4512 469.8136,311.015 469.7164,311.4073 C469.619,311.8 469.4902,312.0756 469.331,312.2344 C469.1714,312.3936 468.9359,312.5349 468.626,312.6604 C468.316,312.7859 467.9518,312.8946 467.5355,312.9865 C467.1188,313.0777 466.6671,313.1492 466.1793,313.1993 C465.6912,313.2494 465.1997,313.2747 464.7034,313.2747 C463.3737,313.2747 462.2211,313.1152 461.2462,312.7985 C460.2708,312.4812 459.4645,311.9928 458.826,311.3323 C458.1876,310.6724 457.7181,309.8408 457.4167,308.8387 C457.1146,307.836 456.9643,306.6498 456.9643,305.28 L456.9643,293.8265 L454.1185,293.8265 C453.7821,293.8265 453.5243,293.6301 453.3476,293.2375 C453.1704,292.8451 453.0815,292.1891 453.0815,291.2702 C453.0815,290.7856 453.1035,290.3764 453.1481,290.042 C453.1921,289.7082 453.2583,289.4449 453.3476,289.2527 C453.4361,289.0609 453.547,288.9231 453.6798,288.8393 C453.813,288.7556 453.9681,288.7138 454.1453,288.7138 L456.9643,288.7138 L456.9643,283.7264 C456.9643,283.5598 457.013,283.4094 457.1105,283.2755 C457.2077,283.1419 457.3855,283.029 457.6425,282.9371 C457.8993,282.8456 458.2449,282.7783 458.6795,282.7366 C459.114,282.6952 459.6505,282.6738 460.2886,282.6738 C460.9442,282.6738 461.4896,282.6952 461.9245,282.7366 C462.3587,282.7783 462.6995,282.8456 462.948,282.9371 C463.1966,283.029 463.3737,283.1419 463.4801,283.2755 C463.5861,283.4094 463.6397,283.5598 463.6397,283.7264 L463.6397,288.7138 L468.799,288.7138 C468.9757,288.7138 469.1316,288.7556 469.264,288.8393 C469.3972,288.9231 469.5077,289.0609 469.5966,289.2527 C469.6855,289.4449 469.7518,289.7082 469.7961,290.042 C469.84,290.3764 469.8627,290.7856 469.8627,291.2702 C469.8627,292.1891 469.7738,292.8451 469.5966,293.2375 C469.4192,293.6301 469.1618,293.8265 468.8254,293.8265 Z M477.2899,278.7253 C478.6246,278.7253 479.5297,278.9659 480.0063,279.4472 C480.483,279.9284 480.721,280.7859 480.721,282.018 C480.721,283.3015 480.4744,284.1881 479.9827,284.6778 C479.49,285.1679 478.5769,285.4124 477.2426,285.4124 C475.8922,285.4124 474.9825,285.1757 474.5142,284.703 C474.0455,284.2306 473.8112,283.3774 473.8112,282.1449 C473.8112,280.8617 474.0532,279.9709 474.5382,279.4727 C475.0225,278.9748 475.9399,278.7253 477.2899,278.7253 Z M479.637,288.9458 C479.867,289.0387 480.0303,289.1485 480.1256,289.275 C480.2206,289.4019 480.2686,289.55 480.2686,289.7183 L480.2686,312.2619 C480.2686,312.4306 480.2206,312.5783 480.1256,312.7049 C480.0303,312.8317 479.867,312.937 479.637,313.0216 C479.4066,313.1063 479.1009,313.1694 478.7199,313.2116 C478.3383,313.2534 477.8536,313.2747 477.2662,313.2747 C476.6785,313.2747 476.1942,313.2534 475.8125,313.2116 C475.4315,313.1694 475.1255,313.1063 474.8955,313.0216 C474.6651,312.937 474.5025,312.8317 474.4068,312.7049 C474.3118,312.5783 474.2638,312.4306 474.2638,312.2619 L474.2638,289.7183 C474.2638,289.55 474.3118,289.4019 474.4068,289.275 C474.5025,289.1485 474.6651,289.0387 474.8955,288.9458 C475.1255,288.8533 475.4315,288.7814 475.8125,288.7304 C476.1942,288.68 476.6785,288.6545 477.2662,288.6545 C477.8536,288.6545 478.3383,288.68 478.7199,288.7304 C479.1009,288.7814 479.4066,288.8533 479.637,288.9458 Z M503.3734,306.8328 C503.408,307.1908 503.4249,307.6507 503.4249,308.2132 C503.4249,308.6567 503.4119,309.0272 503.3864,309.3254 C503.3605,309.6233 503.3263,309.8748 503.2834,310.0793 C503.2406,310.2839 503.1888,310.4501 503.129,310.5778 C503.0689,310.7055 502.9361,310.8678 502.7302,311.0635 C502.5244,311.2595 502.1727,311.4983 501.6756,311.7791 C501.1782,312.0605 500.6121,312.3119 499.9772,312.5333 C499.3426,312.7544 498.6523,312.9335 497.9062,313.0701 C497.16,313.2064 496.3927,313.2747 495.6037,313.2747 C493.8369,313.2747 492.2719,313.0018 490.9085,312.4568 C489.5447,311.9114 488.3998,311.106 487.4737,310.041 C486.5476,308.976 485.8486,307.6764 485.3771,306.1426 C484.905,304.6091 484.6695,302.8538 484.6695,300.8766 C484.6695,298.5928 484.9564,296.6205 485.5315,294.959 C486.106,293.2974 486.9079,291.921 487.9369,290.8305 C488.966,289.7401 490.1836,288.9302 491.5902,288.4019 C492.9968,287.874 494.5401,287.6094 496.2213,287.6094 C496.907,287.6094 497.5804,287.6695 498.2409,287.7883 C498.901,287.9077 499.5186,288.0697 500.0931,288.2743 C500.6679,288.4785 501.1822,288.7088 501.6371,288.9641 C502.0914,289.2198 502.4128,289.4415 502.6017,289.6289 C502.7903,289.8167 502.9235,289.974 503.0005,290.1021 C503.0776,290.2297 503.1377,290.3957 503.1805,290.6003 C503.2233,290.8048 503.2575,291.0565 503.2834,291.3545 C503.3093,291.6527 503.322,292.015 503.322,292.4409 C503.322,293.4294 503.2363,294.1239 503.0646,294.5241 C502.8933,294.9246 502.6701,295.1249 502.3959,295.1249 C502.1043,295.1249 501.7955,295.0061 501.4698,294.7673 C501.1437,294.5287 500.7578,294.2648 500.3119,293.9748 C499.8659,293.6848 499.3343,293.4212 498.7167,293.182 C498.0991,292.9434 497.3619,292.8243 496.5042,292.8243 C494.8234,292.8243 493.537,293.4677 492.6448,294.7544 C491.7532,296.0415 491.3073,297.9283 491.3073,300.4167 C491.3073,301.6433 491.4185,302.7262 491.6417,303.6632 C491.8648,304.6002 492.1949,305.3844 492.6322,306.0149 C493.0695,306.6454 493.6184,307.1182 494.2785,307.4336 C494.9393,307.749 495.7066,307.9064 496.5813,307.9064 C497.4732,307.9064 498.2409,307.7747 498.8837,307.5105 C499.5273,307.2462 500.0888,306.9519 500.5692,306.6282 C501.0494,306.3046 501.4525,306.0109 501.7782,305.7463 C502.1043,305.4821 502.3786,305.3501 502.6017,305.3501 C502.7561,305.3501 502.8846,305.393 502.9876,305.4781 C503.0902,305.5636 503.1719,305.7209 503.232,305.9509 C503.2921,306.1809 503.3389,306.4748 503.3734,306.8328 Z" id="Combined-Shape"></path>
        </g>
    </g>
</svg>