<?xml version="1.0" encoding="UTF-8"?>
<svg width="288px" height="366px" viewBox="0 0 288 366" version="1.1" xmlns="http://www.w3.org/2000/svg" xmlns:xlink="http://www.w3.org/1999/xlink">
    <!-- Generator: Sketch 50.2 (55047) - http://www.bohemiancoding.com/sketch -->
    <title>logovector_outlines_svg-01</title>
    <desc>Created with Sketch.</desc>
    <defs></defs>
    <g id="Page-1" stroke="none" stroke-width="1" fill="none" fill-rule="evenodd">
        <g id="logovector_outlines_svg-01" fill="#0C834F" fill-rule="nonzero">
            <polygon id="Shape" points="51.1 311.6 22 311.6 22 262.8 33 262.8 33 302.7 51.1 302.7"></polygon>
            <path d="M73.2,312.5 C67.4,312.5 62.8,310.9 59.5,307.6 C56.2,304.3 54.5,299.9 54.5,294.4 C54.5,288.6 56.2,284.1 59.7,280.9 C63.1,277.6 67.8,276 73.7,276 C79.5,276 84,277.6 87.3,280.9 C90.6,284.2 92.2,288.5 92.2,293.8 C92.2,299.6 90.5,304.1 87.1,307.5 C83.7,310.8 79.1,312.5 73.2,312.5 Z M73.5,284.2 C71,284.2 69,285.1 67.6,286.8 C66.2,288.5 65.5,291 65.5,294.2 C65.5,300.9 68.2,304.2 73.6,304.2 C78.7,304.2 81.3,300.8 81.3,293.9 C81.2,287.5 78.7,284.2 73.5,284.2 Z" id="Shape"></path>
            <path d="M135.2,309.9 C131.6,311.6 127,312.5 121.3,312.5 C113.8,312.5 107.9,310.3 103.7,305.9 C99.4,301.5 97.3,295.6 97.3,288.3 C97.3,280.5 99.7,274.2 104.5,269.3 C109.3,264.4 115.6,262 123.3,262 C128.1,262 132.1,262.6 135.3,263.8 L135.3,274.4 C132,272.5 128.3,271.5 124.1,271.5 C119.5,271.5 115.8,272.9 113,275.8 C110.2,278.7 108.8,282.6 108.8,287.5 C108.8,292.2 110.1,296 112.8,298.8 C115.5,301.6 119,303 123.5,303 C127.8,303 131.7,302 135.3,299.9 L135.3,309.9 L135.2,309.9 Z" id="Shape"></path>
            <path d="M159.2,312.5 C153.4,312.5 148.8,310.9 145.5,307.6 C142.2,304.3 140.5,299.9 140.5,294.4 C140.5,288.6 142.2,284.1 145.7,280.9 C149.1,277.6 153.8,276 159.7,276 C165.5,276 170,277.6 173.3,280.9 C176.6,284.2 178.2,288.5 178.2,293.8 C178.2,299.6 176.5,304.1 173.1,307.5 C169.8,310.8 165.1,312.5 159.2,312.5 Z M159.5,284.2 C157,284.2 155,285.1 153.6,286.8 C152.2,288.5 151.5,291 151.5,294.2 C151.5,300.9 154.2,304.2 159.6,304.2 C164.7,304.2 167.3,300.8 167.3,293.9 C167.3,287.5 164.7,284.2 159.5,284.2 Z" id="Shape"></path>
            <path d="M190.6,271.3 C188.8,271.3 187.3,270.8 186.1,269.7 C184.9,268.6 184.4,267.3 184.4,265.7 C184.4,264.1 185,262.8 186.1,261.8 C187.3,260.8 188.7,260.3 190.6,260.3 C192.4,260.3 193.9,260.8 195.1,261.8 C196.2,262.8 196.8,264.1 196.8,265.7 C196.8,267.3 196.2,268.7 195.1,269.7 C194,270.7 192.5,271.3 190.6,271.3 Z M195.9,311.6 L185.2,311.6 L185.2,276.8 L195.9,276.8 L195.9,311.6 Z" id="Shape"></path>
            <path d="M238.6,311.6 L227.9,311.6 L227.9,292.3 C227.9,286.9 226,284.2 222.1,284.2 C220.2,284.2 218.7,284.9 217.5,286.3 C216.3,287.7 215.7,289.5 215.7,291.7 L215.7,311.6 L205,311.6 L205,276.8 L215.7,276.8 L215.7,282.3 L215.8,282.3 C218.4,278.1 222.1,275.9 227,275.9 C234.7,275.9 238.6,280.7 238.6,290.2 L238.6,311.6 Z" id="Shape"></path>
            <path d="M244.8,310.7 L244.8,302 C246.6,303.1 248.3,303.9 250.1,304.4 C251.9,304.9 253.5,305.2 255.1,305.2 C257,305.2 258.5,304.9 259.6,304.4 C260.7,303.9 261.2,303.1 261.2,302 C261.2,301.3 261,300.8 260.5,300.3 C260,299.8 259.4,299.4 258.6,299.1 C257.8,298.8 257,298.5 256,298.2 C255.1,297.9 254.2,297.6 253.3,297.3 C251.9,296.8 250.7,296.2 249.6,295.6 C248.5,295 247.7,294.3 246.9,293.5 C246.2,292.7 245.6,291.8 245.3,290.7 C245,289.6 244.7,288.4 244.7,287 C244.7,285.1 245.1,283.4 246,282 C246.9,280.6 248,279.4 249.4,278.5 C250.8,277.6 252.4,276.9 254.3,276.5 C256.1,276.1 258,275.9 260,275.9 C261.5,275.9 263.1,276 264.7,276.3 C266.3,276.5 267.9,276.9 269.4,277.3 L269.4,285.6 C268,284.8 266.6,284.2 265,283.8 C263.4,283.4 261.9,283.2 260.4,283.2 C259.7,283.2 259,283.3 258.4,283.4 C257.8,283.5 257.2,283.7 256.8,283.9 C256.3,284.1 255.9,284.4 255.7,284.8 C255.4,285.2 255.3,285.6 255.3,286.1 C255.3,286.7 255.5,287.3 255.9,287.7 C256.3,288.2 256.8,288.5 257.5,288.9 C258.2,289.2 258.9,289.5 259.7,289.8 C260.5,290.1 261.3,290.3 262.1,290.6 C263.5,291.1 264.8,291.6 266,292.2 C267.2,292.8 268.1,293.5 269,294.3 C269.8,295.1 270.5,296 270.9,297.1 C271.3,298.2 271.6,299.4 271.6,300.9 C271.6,303 271.2,304.7 270.3,306.2 C269.4,307.7 268.2,308.9 266.7,309.8 C265.2,310.7 263.5,311.4 261.6,311.8 C259.7,312.2 257.6,312.4 255.6,312.4 C251.7,312.5 248.1,311.9 244.8,310.7 Z" id="Shape"></path>
            <path d="M124.9,358.4 C125,360.5 124,362.6 122.2,363.8 C121.3,364.4 120.2,364.8 119.1,364.9 C118.2,365 116.3,365.1 113.5,365.1 L105.7,365.1 L105.7,359.1 L103.3,359.1 L103.3,357.3 L105.7,357.3 L105.7,342.3 L114.8,342.3 C115.9,342.3 117,342.3 118.1,342.4 C119.2,342.5 120.3,342.9 121.2,343.5 C123.7,345.2 124.4,348.5 122.8,351 C122.2,351.9 121.4,352.6 120.5,353 C121.7,353.3 122.8,354 123.6,355 C124.5,355.9 124.9,357.1 124.9,358.4 Z M119.3,348.6 C119.4,347.3 118.5,346.2 117.2,346.1 C117.1,346.1 117,346.1 117,346.1 C116.6,346 115.3,346 113.1,346 L110.5,346 L110.5,351.3 L113.5,351.3 C115.3,351.3 116.4,351.3 116.9,351.2 C118.4,351 119.3,350.1 119.3,348.6 Z M120.1,358.2 C120.2,356.9 119.4,355.8 118.2,355.4 C116.9,355.1 115.5,355 114.1,355.1 L110.4,355.1 L110.4,357.3 L113.6,357.3 L113.6,359.1 L110.4,359.1 L110.4,361.3 L114.7,361.3 C115.8,361.3 116.8,361.3 117.9,361.2 C119.2,360.9 120.3,359.6 120.1,358.2 Z" id="Shape"></path>
            <polygon id="Shape" points="130.5 365 130.5 342.2 135.1 342.2 135.1 365"></polygon>
            <polygon id="Shape" points="146.6 365 146.6 346 139.8 346 139.8 342.1 157.9 342.1 157.9 346 151.1 346 151.1 365"></polygon>
            <polygon id="Shape" points="162.9 365 162.9 342.2 167.4 342.2 176.7 357.4 176.7 342.2 181 342.2 181 365 176.4 365 167.2 350.1 167.2 365"></polygon>
            <polygon id="Shape" points="187.6 365 187.6 342.2 192.2 342.2 192.2 365"></polygon>
            <polygon id="Shape" points="198.6 365 198.6 342.2 203.2 342.2 203.2 352.3 212.5 342.2 218.7 342.2 210.1 351.1 219.1 365 213.1 365 206.8 354.3 203.1 358.1 203.1 365 198.6 365"></polygon>
            <path d="M75.2,358.8 L75.2,360 L72,360 L72,344.5 L75.2,344.5 L75.2,351.1 C76,349.9 77.1,349.3 78.6,349.3 C80,349.3 81,349.8 81.7,350.7 C82.4,351.6 82.8,352.9 82.8,354.5 C82.8,356.3 82.4,357.7 81.5,358.7 C80.6,359.7 79.5,360.3 78.1,360.3 C76.9,360.3 75.9,359.8 75.2,358.8 Z M75.1,354.4 L75.1,355.5 C75.1,356.2 75.3,356.7 75.7,357.2 C76.1,357.7 76.6,357.9 77.2,357.9 C77.9,357.9 78.5,357.6 78.9,357 C79.3,356.4 79.5,355.6 79.5,354.6 C79.5,353.7 79.3,353.1 78.9,352.6 C78.5,352.1 78,351.9 77.3,351.9 C76.7,351.9 76.1,352.1 75.7,352.6 C75.3,353.1 75.1,353.6 75.1,354.4 Z" id="Shape"></path>
            <path d="M95,349.5 L90.7,360.8 C89.7,363.5 88.1,364.9 86.1,364.9 C85.3,364.9 84.7,364.8 84.2,364.6 L84.2,362 C84.6,362.3 85.1,362.4 85.6,362.4 C86.4,362.4 87,362 87.3,361.2 L87.9,359.9 L83.6,349.4 L87.2,349.4 L89.2,355.8 C89.3,356.2 89.4,356.7 89.5,357.2 C89.6,356.8 89.7,356.3 89.8,355.8 L91.8,349.4 L95,349.4 L95,349.5 Z" id="Shape"></path>
            <path d="M126.3,196.5 C111.8,198.5 97.1,199.5 82.5,199.4 C42.6,199.4 10.2,193 10.2,185.2 C10.2,179.6 26.7,174.8 50.6,172.5 C57.7,179.6 76.4,186.6 122,187.2 C118.6,178.5 116.4,169.2 115.7,159.9 C81.7,158.8 55.8,152.9 55.8,145.9 C55.8,145.3 56,144.6 56.4,144.1 C68.2,146.2 84.2,147.6 105.8,147.6 C109.2,147.6 112.5,147.6 115.6,147.5 C116.1,138.9 117.7,130.3 120.5,122.1 C115.4,122.3 110.4,122.4 105.8,122.4 C76,122.4 31.8,118.1 31.8,106.5 C31.8,95.7 68.5,91.2 97.5,90.4 L106.7,103.7 C108.1,105.7 110.9,106.2 112.9,104.8 C112.9,104.8 112.9,104.8 112.9,104.8 C113.3,104.5 113.7,104.1 114,103.7 L123,90.8 C127.9,91 132.8,91.4 137.6,91.9 C139.2,90.1 140.8,88.3 142.5,86.6 C143.1,86 143.7,85.4 144.3,84.8 C139.5,84.2 134.1,83.8 128.1,83.4 L142.5,62.6 C142.8,62.2 143,61.8 143.3,61.5 L143.5,61.2 C155.4,42.8 150.1,18.3 131.7,6.5 C113.3,-5.3 88.8,-0.1 77,18.3 C68.5,31.4 68.5,48.2 77,61.3 L77,61.2 L77.2,61.5 C77.4,61.9 77.7,62.2 78,62.6 L92.2,83 C33.4,84.8 24.1,98.1 24.1,106.2 C24.1,106.8 24.2,107.4 24.4,107.9 C24.4,108.5 24.1,109.1 24.1,109.6 C24.1,110.2 24.2,110.8 24.4,111.3 C24.4,111.9 24.1,112.5 24.1,113 C24.1,113.6 24.2,114.2 24.4,114.7 C24.4,115.3 24.1,115.9 24.1,116.4 C24.1,117 24.2,117.6 24.4,118.1 C24.4,118.7 24.1,119.3 24.1,119.8 C24.1,120.5 24.2,121.2 24.4,121.8 C24.4,122.4 24.1,123 24.1,123.8 C24.1,129.1 28.1,136.6 47.1,141.7 C46.6,142.9 46.4,144.2 46.4,145.5 C46.4,146.1 46.5,146.7 46.7,147.2 C46.7,147.8 46.4,148.4 46.4,148.9 C46.4,149.5 46.5,150.1 46.7,150.6 C46.7,151.2 46.4,151.8 46.4,152.3 C46.4,152.9 46.5,153.5 46.7,154 C46.7,154.6 46.4,155.2 46.4,155.7 C46.4,156.3 46.5,156.9 46.7,157.4 C46.7,158 46.4,158.6 46.4,159.1 C46.4,159.8 46.5,160.5 46.7,161.1 C46.7,161.6 46.5,162.1 46.4,162.7 C7.5,166.9 0.7,177.7 0.7,184.7 C0.7,185.3 0.8,185.9 1,186.4 C1,187 0.7,187.6 0.7,188.1 C0.7,188.7 0.8,189.3 1,189.8 C1,190.4 0.7,191 0.7,191.5 C0.7,192.1 0.8,192.7 1,193.2 C1,193.8 0.7,194.4 0.7,194.9 C0.7,195.5 0.8,196.1 1,196.6 C1,197.2 0.7,197.8 0.7,198.3 C0.7,199 0.8,199.7 1,200.3 C1,200.9 0.7,201.5 0.7,202.3 C0.7,211 11.4,225.7 82.2,225.7 C112.3,225.7 131.6,223 143.8,219.3 C137,213.2 131,205.2 126.3,196.5 M110.6,23.4 C119.7,23.4 127.1,30.8 127.1,39.9 C127.1,49 119.7,56.4 110.6,56.4 C101.5,56.4 94.1,49 94.1,39.9 C94.1,30.8 101.4,23.4 110.6,23.4" id="Shape"></path>
            <path d="M211.5,134 L208.1,147.7 C212,148.7 223.9,152.6 225.9,144.8 C227.9,136.8 215.4,135 211.5,134" id="Shape"></path>
            <path d="M206.4,154.7 L202.6,169.8 C207.3,171 221.6,175.6 223.8,167 C226,158.1 211,155.8 206.4,154.7" id="Shape"></path>
            <path d="M209.8,99.7 C180,99.9 156.1,124 156.1,153.3 C156,167.5 161.6,181.1 171.6,191.1 C181.7,201.2 195.3,206.8 209.6,206.9 L210,206.9 C239.6,206.4 263.2,182.1 262.7,152.5 C262.3,123.4 238.8,100 209.8,99.7 M239.5,145 C238.6,151.1 235.2,154.1 230.7,155.1 C236.9,158.3 240,163.2 237,171.8 C233.3,182.4 224.5,183.3 212.8,181.1 L209.9,192.5 L203,190.8 L205.8,179.6 C204,179.2 202.2,178.7 200.3,178.2 L197.5,189.5 L190.6,187.8 L193.5,176.4 C191.9,176 190.3,175.5 188.6,175.1 L179.7,172.9 L183.1,165 C183.1,165 188.2,166.4 188.1,166.2 C189.4,166.6 190.8,165.9 191.2,164.6 C191.2,164.6 191.2,164.6 191.2,164.6 L195.7,146.6 L196.4,146.8 C196.2,146.7 195.9,146.6 195.7,146.6 L199,133.7 C199.1,132.2 198.6,130.4 195.8,129.7 C195.9,129.6 190.8,128.5 190.8,128.5 L192.6,121.2 L202.1,123.6 C203.5,124 205,124.3 206.5,124.6 L209.3,113.3 L216.2,115 L213.4,126.1 C215.2,126.5 217.1,126.9 218.9,127.4 L221.6,116.4 L228.5,118.1 L225.7,129.4 C234.4,132.1 240.7,136.6 239.5,145" id="Shape"></path>
            <path d="M264.7,97.1 C250.1,82.6 230.3,74.4 209.7,74.5 L209.2,74.5 C166,75.7 131.9,111.7 133.2,154.9 C134.4,196.6 168,230 209.7,231 L210.2,231 C253.4,230.8 288.3,195.5 288,152.3 C287.8,131.5 279.5,111.7 264.7,97.1 M210,215.2 L209.6,215.2 C175.4,215.1 147.7,187.4 147.7,153.2 C147.8,119.2 175.3,91.6 209.3,91.3 C243.9,91.4 271.7,119.2 271.6,153.3 C271.5,187.4 244,215 210,215.2" id="Shape"></path>
        </g>
    </g>
</svg>