<svg xmlns="http://www.w3.org/2000/svg" viewBox="0 0 708.85 220.16">
  <defs>
    <style>
      .cls-1 {
        fill: #231f20;
      }

      .cls-2 {
        fill: #00a8e5;
      }

      .cls-3 {
        fill: #85c557;
      }
    </style>
  </defs>
  <title>Asset 1</title>
  <g id="Layer_2" data-name="Layer 2">
    <g id="Layer_1-2" data-name="Layer 1">
      <g>
        <g>
          <path class="cls-1" d="M265.69,19.37a172,172,0,0,1,27.43-2.07c14.31,0,24.05,2.36,30.68,8,5.46,4.57,8.56,11.5,8.56,19.91,0,12.84-8.7,21.54-18,24.93v.44c7.08,2.66,11.36,9.59,13.87,19.18,3.1,12.39,5.75,23.9,7.82,27.73H317.31c-1.47-2.95-3.83-11.06-6.63-23.45-2.81-13-7.53-17.11-17.85-17.41h-9.15v40.86h-18Zm18,44h10.77c12.24,0,19.91-6.5,19.91-16.38C314.36,36,306.69,31,294.89,31a51.57,51.57,0,0,0-11.21.89Z"/>
          <path class="cls-1" d="M390.74,117.46l-1.18-8h-.44c-4.43,5.61-11.95,9.59-21.24,9.59-14.44,0-22.55-10.47-22.55-21.39,0-18.14,16.06-27.28,42.61-27.14V69.37c0-4.72-1.92-12.54-14.61-12.54A37.92,37.92,0,0,0,354,62.15l-3.54-11.8C355.8,47.1,365.07,44,376.43,44c23,0,29.65,14.61,29.65,30.24v26a114.89,114.89,0,0,0,1,17.26Zm-2.36-35.11c-12.83-.29-25.07,2.51-25.07,13.43,0,7.08,4.57,10.32,10.32,10.32a14.7,14.7,0,0,0,14.16-9.88,13.12,13.12,0,0,0,.59-4Z"/>
          <path class="cls-1" d="M478.06,115.25c-3.84,1.77-11.36,3.68-20.36,3.68-22.42,0-37-14.3-37-36.58,0-21.53,14.75-38.35,40-38.35,6.64,0,13.42,1.48,17.55,3.4L475,61a31.92,31.92,0,0,0-13.72-2.81c-13.86,0-22.12,10.18-22,23.31,0,14.75,9.59,23.16,22,23.16a35.41,35.41,0,0,0,14.31-2.81Z"/>
          <path class="cls-1" d="M555.79,95.92c0,8.56.29,15.64.59,21.54H540.45l-.89-10.92h-.29c-3.1,5.17-10.18,12.54-23,12.54-13.13,0-25.08-7.82-25.08-31.27V45.62h18.14V84.71c0,12,3.84,19.62,13.43,19.62,7.22,0,11.94-5.16,13.86-9.73a16.53,16.53,0,0,0,1-5.61V45.62h18.15Z"/>
          <path class="cls-1" d="M575.4,67c0-8.26-.15-15.19-.59-21.39h15.93l.88,10.77h.45C595.16,50.79,603,44,614.93,44c12.54,0,25.52,8.12,25.52,30.83v42.63H622.31V76.9c0-10.33-3.84-18.15-13.72-18.15-7.23,0-12.25,5.17-14.16,10.62a18.53,18.53,0,0,0-.74,5.9v42.19H575.4Z"/>
        </g>
        <g>
          <path class="cls-2" d="M.3,27.41C.3,22.88.15,19,0,15.82H9.51L10,20.73h.22a12.59,12.59,0,0,1,11-5.72c4.68,0,8.39,2.37,10,6.16h.15A16.36,16.36,0,0,1,36,16.79,13.12,13.12,0,0,1,42.94,15c7,0,12.26,4.9,12.26,15.75V52.15h-11V32.39c0-5.27-1.7-8.32-5.34-8.32A5.53,5.53,0,0,0,33.65,28a9.61,9.61,0,0,0-.44,2.9V52.15h-11V31.8c0-4.61-1.63-7.73-5.2-7.73a5.75,5.75,0,0,0-5.27,4.09A7.51,7.51,0,0,0,11.29,31V52.15H.3Z"/>
          <path class="cls-2" d="M100.07,33.58C100.07,46.88,90.63,53,80.9,53c-10.63,0-18.8-7-18.8-18.72S69.83,15,81.49,15C92.64,15,100.07,22.66,100.07,33.58ZM73.77,34c0,6.24,2.6,10.92,7.42,10.92,4.39,0,7.21-4.38,7.21-10.92C88.4,28.53,86.32,23,81.19,23,75.77,23,73.77,28.6,73.77,34Z"/>
          <path class="cls-2" d="M99.54,58.84c3-.22,5.28-.89,6.69-2.38,1.63-1.71,2.23-4.6,2.23-11.81V15.82h11.36v31.5c0,8-1.78,12.78-5.12,15.9s-8.62,4.46-14,4.46ZM120.12,5.72c0,3.12-2.3,5.65-6.09,5.65a5.57,5.57,0,0,1-5.87-5.65c0-3.27,2.3-5.72,6-5.72A5.59,5.59,0,0,1,120.12,5.72Z"/>
        </g>
        <path class="cls-1" d="M440.5,31.7a28.19,28.19,0,0,0,15.07,3.45,27.92,27.92,0,0,0,14.2-4.56L466.57,18a19.94,19.94,0,0,1-11.1,3.72,14.79,14.79,0,0,1-11.63-4.81C443.69,17.69,440.87,30.64,440.5,31.7Z"/>
        <path class="cls-2" d="M141.36,15.72h4.45V117.46h-4.45Z"/>
        <path class="cls-1" d="M241.56,110.21c-9.64,5-22.71,7.63-34.57,7.63-27.14,0-40.21-16.48-40.21-40.4,0-29.56,21.71-61.72,55.49-61.72,19.29,0,31.56,11.25,31.56,27.54,0,25.13-26.34,33.17-64.13,32.37-.4,3.41.4,10.05,2.61,13.87,3.82,6.63,10.86,10,20.1,10a57.82,57.82,0,0,0,26.94-6.43Zm-22.31-77c-14.68,0-24.33,13.06-27.14,24.93,24.12.4,39.6-3,39.6-14.68C231.71,37,226.69,33.21,219.25,33.21Z"/>
        <g>
          <path class="cls-2" d="M708.85,106C538.18,266.49,5.93,171.1,0,62.11,36.42,173.27,516.59,195.54,708.85,106Z"/>
          <path class="cls-3" d="M612.77,171.7C425,287.63,23,169.77,3.49,86.76,40.36,162.1,380.81,248.54,612.77,171.7Z"/>
        </g>
      </g>
    </g>
  </g>
</svg>
