<?xml version="1.0" encoding="UTF-8"?>
<svg width="196px" height="72px" viewBox="0 0 196 72" version="1.1" xmlns="http://www.w3.org/2000/svg" xmlns:xlink="http://www.w3.org/1999/xlink">
    <!-- Generator: Sketch 50.2 (55047) - http://www.bohemiancoding.com/sketch -->
    <title>Combined Shape</title>
    <desc>Created with Sketch.</desc>
    <defs></defs>
    <g id="Page-1" stroke="none" stroke-width="1" fill="none" fill-rule="evenodd">
        <g id="Monry-payments_DULJI-LOGO" transform="translate(-72.000000, -35.000000)" fill="#000000">
            <path d="M110.3433,97.9404 L114.2503,97.9404 L114.2503,75.2264 L110.3433,75.2264 L110.3433,77.4984 C108.4353,75.7724 105.8913,74.8634 103.1203,74.8634 C99.0323,74.8634 95.5793,76.8164 93.5353,79.8154 C91.4913,76.8164 88.0843,74.8634 83.9953,74.8634 C81.1793,74.8634 78.6353,75.7724 76.7723,77.4984 L76.7723,75.2264 L72.8663,75.2264 L72.8663,106.2994 L76.7723,106.2994 L76.7723,95.6694 C78.6353,97.3954 81.1793,98.3034 83.9953,98.3034 C88.0843,98.3034 91.4913,96.3954 93.5353,93.3524 C95.5793,96.3954 99.0323,98.3034 103.1203,98.3034 C105.8913,98.3034 108.4353,97.3954 110.3433,95.6694 L110.3433,97.9404 Z M83.9043,78.5434 C88.3563,78.5434 91.5363,82.0864 91.5363,86.5834 C91.5363,91.0814 88.3563,94.6244 83.9043,94.6244 C80.6343,94.6244 78.0443,93.0794 76.7723,90.9444 L76.7723,82.2224 C78.0443,80.0874 80.6343,78.5434 83.9043,78.5434 Z M103.2113,94.6244 C98.7593,94.6244 95.5793,91.0814 95.5793,86.5834 C95.5793,82.0864 98.7593,78.5434 103.2113,78.5434 C106.4823,78.5434 109.0263,80.0874 110.3433,82.2224 L110.3433,90.9444 C109.0263,93.0794 106.4823,94.6244 103.2113,94.6244 Z M118.4743,106.2994 L122.0173,106.2994 C125.1973,106.2994 127.3783,104.8904 128.3323,102.7554 L140.6883,75.2264 L136.4633,75.2264 L129.3313,91.7624 L122.2443,75.2264 L118.0203,75.2264 L127.2873,96.0324 L124.9703,101.1654 C124.5163,102.2104 123.6073,102.7554 121.9723,102.7554 L118.4743,102.7554 L118.4743,106.2994 Z M173.7133,97.9404 L177.6203,97.9404 L177.6203,84.0854 C177.6203,78.4524 174.3493,74.8634 169.1703,74.8634 C166.8533,74.8634 163.7193,75.6354 161.5843,78.5884 C160.1763,76.2264 157.7233,74.8634 154.7243,74.8634 C152.4533,74.8634 150.0003,75.6354 148.3193,77.7254 L148.3193,75.2264 L144.4123,75.2264 L144.4123,97.9404 L148.3193,97.9404 L148.3193,82.8134 C149.2283,80.1334 151.2263,78.5434 153.8613,78.5434 C157.1323,78.5434 159.0853,80.9964 159.0853,84.3124 L159.0853,97.9404 L162.9923,97.9404 L162.9923,84.0854 C162.9923,83.8124 162.9923,83.4944 162.9473,83.1764 C163.8103,80.2694 165.7183,78.5434 168.5343,78.5434 C171.8053,78.5434 173.7133,80.9964 173.7133,84.3124 L173.7133,97.9404 Z M194.2913,98.3034 C198.2433,98.3034 201.4693,96.6684 203.4223,94.6244 L200.9243,91.8984 C199.4703,93.3524 197.1533,94.6244 194.2913,94.6244 C190.1573,94.6244 187.0233,91.5804 186.6603,87.5374 L205.1033,87.5374 C205.0123,79.4514 200.3793,74.8634 194.0193,74.8634 C187.6593,74.8634 182.6173,79.9964 182.6173,86.5834 C182.6173,93.1254 187.5683,98.3034 194.2913,98.3034 Z M193.7923,78.4524 C197.2443,78.4064 200.1513,80.4054 200.6973,84.1304 L186.8413,84.1304 C187.6593,80.6784 190.4753,78.4524 193.7923,78.4524 Z M210.3723,97.9404 L214.2793,97.9404 L214.2793,83.2674 C215.0973,80.3144 217.2773,78.5434 220.4573,78.5434 C224.0003,78.5434 226.1813,80.9964 226.1813,84.3124 L226.1813,97.9404 L230.0883,97.9404 L230.0883,84.0854 C230.0883,78.4524 226.4533,74.8634 221.3203,74.8634 C218.6853,74.8634 216.0053,75.6354 214.2793,77.8164 L214.2793,75.2264 L210.3723,75.2264 L210.3723,97.9404 Z M233.9943,78.7704 L237.6283,78.7704 L237.6283,91.3534 C237.6283,95.6694 240.1263,97.9404 244.4873,97.9404 L247.9403,97.9404 L247.9403,94.3974 L244.8963,94.3974 C242.3983,94.3974 241.5353,93.0794 241.5353,90.7634 L241.5353,78.7704 L247.5313,78.7704 L248.3943,75.2264 L241.5353,75.2264 L241.5353,68.4124 L237.6283,70.3664 L237.6283,75.2264 L233.1313,75.2264 L233.9943,78.7704 Z M259.2513,98.3034 C255.8893,98.3034 253.0273,96.8044 251.2103,93.7614 L254.2993,91.6714 C255.4803,93.6704 256.9343,94.8064 259.3413,94.8064 C261.5673,94.8064 263.3843,93.6704 263.3843,91.9444 C263.3843,90.2174 262.2033,89.2634 259.5233,88.3094 L257.7513,87.6284 C253.7543,86.1294 252.3463,83.6304 252.3463,80.9054 C252.3463,77.4984 255.2983,74.8634 259.4323,74.8634 C262.3403,74.8634 264.8383,76.1804 266.2463,78.9524 L263.2033,80.7234 C262.4763,79.2244 261.2043,78.3614 259.4323,78.3614 C257.7063,78.3614 256.2073,79.2694 256.2073,80.8594 C256.2073,82.2684 256.8883,83.3584 259.5233,84.3124 L261.3863,84.9934 C265.2473,86.4024 267.2913,88.4464 267.2913,91.8074 C267.2913,95.4424 264.2023,98.3034 259.2513,98.3034 Z M113.9775,68.4128 C107.1185,68.4128 102.1665,63.2338 102.1665,56.6928 L102.1665,54.4208 C102.1665,51.1048 100.2585,48.6518 96.9875,48.6518 C94.1715,48.6518 92.2635,50.3778 91.4005,53.2858 C91.4455,53.6038 91.4455,53.9218 91.4455,54.1938 L91.4455,68.0498 L87.5385,68.0498 L87.5385,54.4208 C87.5385,51.1048 85.5855,48.6518 82.3145,48.6518 C79.6805,48.6518 77.6815,50.2418 76.7725,52.9218 L76.7725,68.0498 L72.8665,68.0498 L72.8665,45.3358 L76.7725,45.3358 L76.7725,47.8348 C78.4535,45.7448 80.9065,44.9728 83.1785,44.9728 C86.1765,44.9728 88.6295,46.3348 90.0375,48.6978 C92.1725,45.7448 95.3065,44.9728 97.6235,44.9728 C100.9395,44.9728 103.4835,46.4718 104.8925,49.0608 C106.9815,46.5628 110.2075,44.9728 113.9775,44.9728 C120.7915,44.9728 125.7435,50.1508 125.7435,56.6928 C125.7435,63.2338 120.7915,68.4128 113.9775,68.4128 Z M113.9775,64.7328 C118.6115,64.7328 121.7005,61.1898 121.7005,56.6928 C121.7005,52.1958 118.6115,48.6518 113.9775,48.6518 C109.3435,48.6518 106.2095,52.1958 106.2095,56.6928 C106.2095,61.1898 109.3435,64.7328 113.9775,64.7328 Z M131.1945,68.0498 L131.1945,45.3358 L135.1005,45.3358 L135.1005,47.9248 C136.8275,45.7448 139.5075,44.9728 142.1425,44.9728 C147.2755,44.9728 150.9095,48.5608 150.9095,54.1938 L150.9095,68.0498 L147.0025,68.0498 L147.0025,54.4208 C147.0025,51.1048 144.8225,48.6518 141.2785,48.6518 C138.0995,48.6518 135.9185,50.4238 135.1005,53.3768 L135.1005,68.0498 L131.1945,68.0498 Z M157.4505,68.0498 L157.4505,45.3358 L161.3575,45.3358 L161.3575,48.0158 C162.9015,46.0628 165.0825,45.1088 167.6265,45.1088 C168.1715,45.1088 168.7165,45.1538 169.2165,45.2448 L169.2165,49.2878 C168.5805,49.1068 167.8535,49.0158 167.0355,49.0158 C164.5825,49.0158 162.3565,50.2418 161.3575,52.6038 L161.3575,68.0498 L157.4505,68.0498 Z M173.7585,40.3848 C173.2135,39.8848 172.8955,39.1578 172.8955,38.2948 C172.8955,36.7048 174.1215,35.4328 175.7115,35.4328 C177.3015,35.4328 178.5285,36.7048 178.5285,38.2948 C178.5285,39.1578 178.2105,39.8848 177.6655,40.3848 L173.7585,40.3848 Z M173.7585,68.0498 L173.7585,45.3358 L177.6655,45.3358 L177.6655,68.0498 L173.7585,68.0498 Z" id="Combined-Shape"></path>
        </g>
    </g>
</svg>