<?xml version="1.0" encoding="UTF-8"?>
<svg width="252px" height="117px" viewBox="0 0 252 117" version="1.1" xmlns="http://www.w3.org/2000/svg" xmlns:xlink="http://www.w3.org/1999/xlink">
    <!-- Generator: Sketch 50.2 (55047) - http://www.bohemiancoding.com/sketch -->
    <title>Group</title>
    <desc>Created with Sketch.</desc>
    <defs></defs>
    <g id="Page-1" stroke="none" stroke-width="1" fill="none" fill-rule="evenodd">
        <g id="MonrI-payments-logo" transform="translate(-84.000000, -55.000000)">
            <g id="Group" transform="translate(84.000000, 55.000000)">
                <path d="M97.939,79.275 C114.117,79.275 125.873,66.98 125.873,51.45 C125.873,35.919 114.117,23.624 97.939,23.624 C88.988,23.624 81.33,27.399 76.369,33.331 C73.025,27.183 66.986,23.624 59.113,23.624 C53.612,23.624 46.17,25.457 41.101,32.468 C37.758,26.859 31.934,23.624 24.816,23.624 C19.423,23.624 13.599,25.457 9.609,30.419 L9.609,24.487 L0.333,24.487 L0.333,78.412 L9.609,78.412 L9.609,42.498 C11.766,36.135 16.511,32.36 22.767,32.36 C30.532,32.36 35.169,38.184 35.169,46.057 L35.169,78.412 L44.445,78.412 L44.445,45.518 C44.445,44.871 44.445,44.116 44.337,43.361 C46.386,36.458 50.916,32.36 57.603,32.36 C65.368,32.36 69.898,38.184 69.898,46.057 L69.898,51.45 C69.898,66.98 81.654,79.275 97.939,79.275 Z M97.939,70.539 C86.938,70.539 79.497,62.127 79.497,51.45 C79.497,40.772 86.938,32.36 97.939,32.36 C108.94,32.36 116.274,40.772 116.274,51.45 C116.274,62.127 108.94,70.539 97.939,70.539 Z M138.815,78.412 L148.09,78.412 L148.09,43.576 C150.031,36.566 155.208,32.36 162.758,32.36 C171.17,32.36 176.347,38.184 176.347,46.057 L176.347,78.412 L185.622,78.412 L185.622,45.518 C185.622,32.144 176.994,23.624 164.807,23.624 C158.552,23.624 152.188,25.457 148.09,30.634 L148.09,24.487 L138.815,24.487 L138.815,78.412 Z M201.152,78.412 L210.427,78.412 L210.427,41.743 C212.8,36.135 218.084,33.223 223.908,33.223 C225.85,33.223 227.575,33.438 229.085,33.87 L229.085,24.271 C227.899,24.055 226.605,23.947 225.31,23.947 C219.271,23.947 214.094,26.212 210.427,30.85 L210.427,24.487 L201.152,24.487 L201.152,78.412 Z M239.87,12.731 L249.145,12.731 C250.439,11.544 251.194,9.819 251.194,7.77 C251.194,3.995 248.282,0.975 244.507,0.975 C240.733,0.975 237.821,3.995 237.821,7.77 C237.821,9.819 238.576,11.544 239.87,12.731 Z M239.87,78.412 L249.145,78.412 L249.145,24.487 L239.87,24.487 L239.87,78.412 Z" id="Fill-1" fill="#121B2C"></path>
                <path d="M0.333,116.036 L2.717,116.036 L2.717,110.68 L5.534,110.68 C8.97,110.68 11.23,108.761 11.23,105.541 C11.23,102.415 9.652,100.526 5.348,100.526 L0.333,100.526 L0.333,116.036 Z M2.717,108.668 L2.717,102.57 L5.287,102.57 C7.794,102.57 8.723,103.591 8.723,105.634 C8.723,107.863 7.33,108.668 5.41,108.668 L2.717,108.668 Z M17.701,116.036 L19.186,112.012 L25.657,112.012 L27.173,116.036 L29.743,116.036 L23.675,100.526 L21.292,100.526 L15.224,116.036 L17.701,116.036 Z M23.335,105.758 L24.975,110.154 L19.837,110.154 L21.508,105.758 L22.406,103.003 L23.335,105.758 Z M38.071,116.036 L40.485,116.036 L40.485,110.03 L45.81,100.526 L43.364,100.526 L41.197,104.489 L39.34,107.987 L37.297,104.458 L34.975,100.526 L32.312,100.526 L38.071,109.999 L38.071,116.036 Z M51.66,116.036 L53.827,116.036 L53.827,107.647 L53.796,104.675 L55.22,108.142 L58.811,116.036 L61.195,116.036 L64.786,107.739 L65.901,104.613 L65.901,116.036 L68.192,116.036 L68.192,100.495 L65.653,100.495 L61.845,109.318 L60.05,113.807 L58.192,109.194 L54.261,100.526 L51.66,100.526 L51.66,116.036 Z M76.116,116.036 L86.115,116.036 L86.115,113.962 L78.5,113.962 L78.5,109.102 L85.187,109.102 L85.187,107.058 L78.5,107.058 L78.5,102.57 L86.115,102.57 L86.115,100.526 L76.116,100.526 L76.116,116.036 Z M93.297,116.036 L95.619,116.036 L95.619,106.811 L95.588,103.932 L97.91,107.213 L104.534,116.036 L106.825,116.036 L106.825,100.526 L104.534,100.526 L104.534,109.999 L104.565,112.445 L102.305,109.287 L95.681,100.526 L93.297,100.526 L93.297,116.036 Z M118.031,116.036 L120.415,116.036 L120.415,102.57 L125.523,102.57 L125.523,100.526 L112.892,100.526 L112.892,102.57 L118.031,102.57 L118.031,116.036 Z M135.46,116.253 C138.649,116.253 141.187,114.519 141.187,111.919 C141.187,108.854 138.711,107.894 136.513,107.027 C134.81,106.377 133.293,105.789 133.293,104.303 C133.293,103.096 134.377,102.353 136.079,102.353 C137.503,102.353 139.02,102.941 139.825,103.653 L140.599,101.424 C139.423,100.805 137.875,100.31 136.017,100.31 C133.045,100.31 130.785,101.981 130.785,104.489 C130.785,107.275 133.076,108.173 135.212,109.009 C136.977,109.721 138.68,110.402 138.68,112.135 C138.68,113.559 137.194,114.21 135.584,114.21 C133.974,114.21 132.148,113.467 131.25,112.785 L130.414,114.983 C131.59,115.634 133.448,116.253 135.46,116.253 Z" id="Fill-2" fill="#733982"></path>
            </g>
        </g>
    </g>
</svg>