<svg xmlns="http://www.w3.org/2000/svg" viewBox="0 0 370.06 65.49">
  <defs>
    <style>
      .cls-1 {
        fill: #808184;
      }
    </style>
  </defs>
  <title>Asset 1</title>
  <g id="Layer_2" data-name="Layer 2">
    <g id="Layer_1-2" data-name="Layer 1">
      <g>
        <g>
          <path d="M48.7,37.16V0H88.54V6.58H57.83v8.1H75.72v6.39H57.83v9.14H89v6.95Z"/>
          <path d="M301.56,0h-8.71L274.94,30.21H248.17V0H239V37.16h40.8L284.52,29h24.6l4.66,8.15H324ZM288.34,22.23l8.4-15.5,8.7,15.5Z"/>
          <polygon points="36.42 0 36.42 24.99 6.66 0 0.13 0 0.13 37.13 8.05 37.13 8.05 11.59 38.35 37.12 38.35 37.13 44.34 37.13 44.34 0 36.42 0"/>
          <path d="M127.39,0V30.21H101.55V0h-9V29.77a7.39,7.39,0,0,0,7.38,7.39h29.24a7.39,7.39,0,0,0,7.38-7.39V0Z"/>
          <path d="M214,0h-8.71l-20.79,35L171.88,23.1H176a6.88,6.88,0,0,0,6.89-6.88V6.9A6.88,6.88,0,0,0,176,0H140.66V37.16h8.92V23.1h10.61l13.89,14.06h18.16L196.92,29h24.6l4.67,8.15h10.16ZM149.58,16.7V6.41h22.1a2.68,2.68,0,0,1,2.69,2.68V14a2.68,2.68,0,0,1-2.69,2.69Zm51.16,5.53,8.41-15.5,8.69,15.5Z"/>
          <path d="M362.42,18H363a6.22,6.22,0,0,0,6.22-6.22V6.24A6.21,6.21,0,0,0,363,0H326.63V37.16h35a7.86,7.86,0,0,0,7.86-7.87V25.07A7.05,7.05,0,0,0,362.42,18ZM336,6.06h21.52a2.86,2.86,0,0,1,2.85,2.85V12a2.86,2.86,0,0,1-2.85,2.85H336Zm24.71,22a2.85,2.85,0,0,1-2.85,2.85H336V21.46h21.86a2.84,2.84,0,0,1,2.85,2.85Z"/>
        </g>
        <g>
          <path class="cls-1" d="M331.63,55.17V51.58H342.5V52.7H346V51.59a2.93,2.93,0,0,0-2.93-2.93H331.16a2.93,2.93,0,0,0-2.93,2.93v3.85a2.94,2.94,0,0,0,2.94,2.94h11.62v3.84H331V61h-3.47v1.49a2.93,2.93,0,0,0,2.93,2.93h12.81a2.93,2.93,0,0,0,2.93-2.93V58.11a2.94,2.94,0,0,0-2.94-2.94Z"/>
          <path class="cls-1" d="M25.38,65.38l9.44-16.72h3.75l9.57,16.71H43.77l-2-3.65H31.19l-1.94,3.65Zm7.46-6.68h7.32l-3.6-6.8Z"/>
          <path class="cls-1" d="M51.57,65.37V48.66H55.5v7l9.26-7h5.63L59.74,56.78l12,8.59H65.5L55.5,58v7.35Z"/>
          <path class="cls-1" d="M73.9,65.37V48.66h3.88V65.37Z"/>
          <path class="cls-1" d="M166.31,65.37V48.66h3.89V65.37Z"/>
          <path class="cls-1" d="M200.3,65.37V48.66h3.89V65.37Z"/>
          <path class="cls-1" d="M225.06,65.38l9.44-16.72h3.75l9.58,16.71h-4.37l-2-3.65H230.87l-1.94,3.65Zm7.46-6.68h7.33l-3.61-6.8Z"/>
          <path class="cls-1" d="M251.36,65.37V48.66h3.89V62.22h12.54v3.15Z"/>
          <path class="cls-1" d="M281.35,65.37V48.66h17.1V51.5H285.24v3.73H293v2.85h-7.72v4.14h13.37v3.15Z"/>
          <path class="cls-1" d="M301.89,65.38l9.44-16.72h3.75l9.58,16.71h-4.37l-2-3.65H307.7l-1.94,3.65Zm7.47-6.68h7.32l-3.61-6.8Z"/>
          <polygon class="cls-1" points="99.14 48.78 99.14 60.03 85.75 48.78 82.81 48.78 82.81 65.49 86.37 65.49 86.37 54 100.01 65.49 100.01 65.49 102.7 65.49 102.7 48.78 99.14 48.78"/>
          <polygon class="cls-1" points="18.71 48.66 10.91 58.74 3.12 48.66 0 48.66 0 65.37 3.21 65.37 3.21 54.02 10.54 63.34 11.31 63.34 18.63 53.98 18.65 65.37 21.83 65.37 21.83 48.66 18.71 48.66"/>
          <path class="cls-1" d="M127.19,52.85V51.7a3,3,0,0,0-3-3H110.41a3,3,0,0,0-3,3V62.34a3,3,0,0,0,3,3h13.76a3,3,0,0,0,3-3V55.66H117.06V58.5h6.35v3.72H111.27V51.65h12.14v1.2Z"/>
          <path class="cls-1" d="M195.23,52.85V51.7a3,3,0,0,0-3-3H178.45a3,3,0,0,0-3,3V62.34a3,3,0,0,0,3,3h13.76a3,3,0,0,0,3-3V55.66H185.1V58.5h6.35v3.72H179.31V51.65h12.14v1.2Z"/>
          <path class="cls-1" d="M153.66,48.66h-12V65.37h12a8.26,8.26,0,0,0,8.3-8v-.74A8.26,8.26,0,0,0,153.66,48.66Zm4.28,8.68a4.87,4.87,0,0,1-4.88,4.88h-7.51V51.65h7.51a4.87,4.87,0,0,1,4.88,4.88Z"/>
          <polygon class="cls-1" points="227.38 48.66 208.13 48.66 208.13 51.65 215.81 51.65 215.81 65.37 219.7 65.37 219.7 51.65 227.38 51.65 227.38 48.66"/>
          <rect class="cls-1" x="271.61" y="60.35" width="5.07" height="5.01" rx="0.4" ry="0.4"/>
          <rect class="cls-1" x="131.73" y="60.35" width="5.07" height="5.01" rx="0.4" ry="0.4"/>
          <polygon class="cls-1" points="365.57 48.66 359.44 55.17 353.31 48.66 348.81 48.66 357.49 57.87 357.49 65.37 361.38 65.37 361.38 57.87 370.06 48.66 365.57 48.66"/>
        </g>
      </g>
    </g>
  </g>
</svg>
