<svg xmlns="http://www.w3.org/2000/svg" viewBox="0 0 502.31 136.77">
  <defs>
    <style>
      .cls-1 {
        fill: #ed1c24;
      }

      .cls-1, .cls-2 {
        fill-rule: evenodd;
      }

      .cls-2, .cls-3 {
        fill: #00427a;
      }
    </style>
  </defs>
  <title>Asset 1</title>
  <g id="Layer_2" data-name="Layer 2">
    <g id="Layer_1-2" data-name="Layer 1">
      <g>
        <path class="cls-1" d="M53.81,88.77c0,7.34-6.5,5.29-6.5,7.79,0,1.06.76,1.21,2.49,1.21s3.56-.32,5.38-.32c3.76,0,7.55.32,18.8.32,12.31,0,19.26-6.5,19.26-16.47,0-6.8-2.86-10.88-12.07-13.23,5.36-1.89,8.23-6,8.23-10.79,0-1.82-.08-13-18.59-13-6.36,0-12.76.29-19.19.29a28,28,0,0,1-4.53-.29c-.38,0-1.3-.09-1.3,1.13,0,3.7,8-.46,8,10v33.4ZM17.17,87.41c0,9.44,7.62,6.57,7.62,9.21,0,1.3-.75,1.15-1.8,1.15-5.3,0-8.61-.32-10.29-.32-3,0-8.83.32-9.28.32-.23,0-1.59.15-1.59-1.15,0-2.19,6-.51,6-10V53.42c0-8-7.87-4.92-7.87-7.72,0-.44.33-1.42,2.13-1.42.54,0,4.69.29,10.43.29,1.06,0,6.42-.21,11.79-.29,9.66-.15,19,3.63,19,14.66,0,9.43-7,15.16-16,15.16-7.41,0-7.78-1.87-7.78-2.17,0-.54.14-1.44,1-1.44a31,31,0,0,0,3.57.45c9.13,0,9.81-8.54,9.89-10.51s-.6-13-12.31-13c-3.41,0-4.61,1.51-4.61,4.92v35ZM63.11,77c0-3.94.15-5.82,4.6-5.82,13.75,0,16,6.8,16,11.33,0,7.32-3.86,12.25-11.27,12.25s-9.28-2.12-9.28-9.3V77Zm0-22.29c0-4.31.15-7.18,5.28-7.18,6.73,0,12.33,4.85,12.33,11.79,0,5.61-2.2,8.46-7.94,8.46H68.25c-4.39,0-5.14-.61-5.14-4.31V54.7Zm38.61-10.42c1.51,0,8.91.37,14.2.29,7.17-.07,11.11-.15,19.86-.29,2.5,0,3.11-.15,3.11.75,0,.67-.75,1.89-3.18,6.12l-22.43,39a8.81,8.81,0,0,0-1.07,2.43c0,1,2.26,1.35,7,1.35,18.73,0,17.67-9.89,20.55-9.89.3,0,.83.21.83,1.66,0,5.89-4.46,12.09-10.66,12.09-11.48,0-16-.32-19.79-.32-3.25,0-8,.32-10,.32-1,0-1.45,0-1.45-.53,0-.83,2-3.86,2.89-5.37l22.2-38.31a10.57,10.57,0,0,0,1.51-3.47c0-2.27-4.74-2-9.06-2-16.24,0-11.18,9.08-14.88,9.08-1.28,0-1-1.95-.84-3.18l1.22-9.73Z"/>
        <path class="cls-2" d="M192.5,60.18c-3.79-7.15-10.4-13.57-19.05-13.57-8.48,0-14,6.15-16.22,13.58a25.7,25.7,0,0,0-1,7.13,31.16,31.16,0,0,0,.51,5.56,29.67,29.67,0,0,0,5.36,12.7,17.79,17.79,0,0,0,14.6,7.35c7.83,0,12.71-4.42,15.69-7.35,1.48-1.47,2.48-2.55,3.12-2.55.38,0,1.07.38,1.07.84a4.47,4.47,0,0,1-.48,1.71c-1.93,4.29-9.79,12.71-23.62,12.71-12.55,0-19.09-6.23-22.38-12.71a29.91,29.91,0,0,1-3.16-12.7,34.24,34.24,0,0,1,2.54-12.71c3.64-8.91,11.36-16.57,24.28-16.57,9.14,0,15,4.59,17.23,4.59,1.44,0,1.51-2.49,2.56-2.49.37,0,.91.08.91.46l1.33,14,0,.33c.07.76.38,2.5-.9,2.5s-1.74-1.59-2.27-2.58Z"/>
        <path class="cls-2" d="M234.56,60.18c-.12-7.23-4.32-12.66-11.85-12.66-2.79,0-5.14,0-5.14,4.53V67.32c0,1.88,2.79,1.88,5.06,1.88,11.49,0,11.94-4.22,11.94-8.69Zm9.2,0a11.39,11.39,0,0,1-4.29,7.67c-2.18,1.74-4.37,2.4-4.37,3.16a12.44,12.44,0,0,0,1,1.89c1.4,2.57,4.23,7.45,7.25,12.69L247,92a2.91,2.91,0,0,0,2.7,1.18c.76,0,1.53-.43,2.27-.43a1.06,1.06,0,0,1,1.15,1.07c0,2.34-5,4-8,4-6,0-8.39-4.76-10.75-9.15l-1.6-3L228,76.68c-1.24-2.37-2.27-3.39-4.17-3.8a14.81,14.81,0,0,0-2.7-.2,10.65,10.65,0,0,0-2.6.2c-1.17.34-1,1.16-1,3V88.92c0,8.1,7.5,5,7.5,7.7,0,.69-.63,1.15-2.36,1.15-1.28,0-3.31-.32-6.5-.32-4.08,0-7.86.32-11.63.32-.83,0-2.41.23-2.41-1.29,0-2.42,6.1.08,6.1-9.45V53.79c0-8.47-8.22-5.68-8.22-8.38,0-.76.75-1.13,1.66-1.13,3.46,0,4.08.29,8.83.29,5.08,0,10.21-.29,15.27-.29,16.54,0,18.05,10.64,18.05,14.12A14.47,14.47,0,0,1,243.76,60.18Z"/>
        <path class="cls-2" d="M298.5,85.58c-2.46,5.63-7.1,9.33-14.89,9.46-6.92.11-11.54-4-14.41-9.46a36.14,36.14,0,0,1-3.64-12.7,40.33,40.33,0,0,1-.24-4.43,37.78,37.78,0,0,1,.85-8.27,19.54,19.54,0,0,1,.54-1.93c2-6.48,6.56-11.25,15.16-11.41,7.06-.1,13.86,4.45,17.06,13.34.31.89.6,1.8.84,2.76a37.72,37.72,0,0,1,1.06,9.19v.75A32.92,32.92,0,0,1,298.5,85.58Zm11.44-12.7c.12-1.28.18-2.53.18-3.68a29,29,0,0,0-1.35-9l-.31-.9c-3.63-10-12.94-15.8-24.33-15.67-10.56.07-18.37,4.39-23,11.23a27.55,27.55,0,0,0-2.82,5.35A34.38,34.38,0,0,0,256,72.76a28.41,28.41,0,0,0,2.89,12.82,23.08,23.08,0,0,0,17.17,12.25,30.65,30.65,0,0,0,5.33.46,39.58,39.58,0,0,0,6.16-.46c9.61-1.47,15.3-6.46,18.55-12.25A32.31,32.31,0,0,0,309.94,72.88Z"/>
        <path class="cls-2" d="M347.29,85.58c-2.39-5.67-2.79-6.4-4.72-6.4H327.69c-1.29,0-2.87.3-4.62,5.28l-.41,1.12a17.25,17.25,0,0,0-1.19,4.86c0,5.43,8.17,4.21,8.17,6.25,0,1.6-2.34,1.08-3.93,1.08-2.41,0-4.68-.32-7.09-.32s-4.46.32-6.65.32c-1.06,0-2.26.15-2.26-.84,0-1.74,3.85-1.28,5.73-5.5l2.6-5.85,5.71-12.7,5.68-12.7,6.49-14.48c.53-1.2.92-2.63,1.89-2.63.68,0,.83.15,1.81,2.41l6.47,14.7,5.62,12.7,5.61,12.7L360,91.72c2.34,5.36,6.48,2.42,6.48,4.9,0,1.3-.68,1.15-2.72,1.15-2.72,0-4.76-.32-9.73-.32-3.34,0-6.13.32-8.33.32-1.34,0-2.35.15-2.35-.92,0-2.2,5.38-1.35,5.38-6a12.88,12.88,0,0,0-1.37-5.06Zm-19.47-12.7a4.44,4.44,0,0,0-.29,1.54c0,.76,1.06.68,2.42.68h10.26c1.38,0,2.43.08,2.43-.68a4.23,4.23,0,0,0-.31-1.54c-.14-.42-.34-.83-.52-1.25l-5.18-11.45-1-2.24c-.45-.59-.22-.59-.6-.59-.15,0-.46.08-.83.91l-.85,1.92-5,11.45C328.19,72.05,328,72.46,327.82,72.88Z"/>
        <path class="cls-2" d="M483.07,85.58c-2.4-5.67-2.78-6.4-4.72-6.4H463.47c-1.3,0-2.87.3-4.61,5.29l-.39,1.11a16.28,16.28,0,0,0-1.19,4.86c0,5.43,8.15,4.21,8.15,6.25,0,1.6-2.34,1.08-3.94,1.08-2.4,0-4.67-.32-7.09-.32-2.26,0-4.46.32-6.65.32-1.05,0-2.27.15-2.27-.84,0-1.74,3.87-1.28,5.74-5.5l2.6-5.85,5.71-12.7,5.69-12.7,6.47-14.48c.55-1.2.91-2.63,1.91-2.63.67,0,.83.14,1.8,2.41l6.48,14.7,5.63,12.7,5.58,12.7,2.72,6.14c2.33,5.36,6.5,2.42,6.5,4.9,0,1.3-.68,1.15-2.73,1.15-2.71,0-4.75-.32-9.75-.32-3.32,0-6.12.32-8.31.32-1.35,0-2.35.15-2.35-.92,0-2.2,5.37-1.35,5.37-6a12.93,12.93,0,0,0-1.36-5.06Zm-19.45-12.7a4.23,4.23,0,0,0-.31,1.54c0,.76,1.07.68,2.43.68H476c1.37,0,2.43.08,2.43-.68a4.23,4.23,0,0,0-.32-1.54c-.15-.42-.34-.83-.51-1.25l-5.18-11.45-1-2.24c-.45-.58-.23-.58-.6-.58-.17,0-.45.07-.83.9l-.84,1.92-5,11.45C464,72.05,463.76,72.46,463.62,72.88Z"/>
        <path class="cls-2" d="M392.52,85.58V87c0,9.29,9.65,7.1,9.65,9.22,0,1.82-1.5,1.59-3.69,1.59-3,0-5.52-.32-10.59-.32s-7.56.32-10.57.32c-1.35,0-2.64.06-2.64-1.59,0-2.94,8.52.67,8.52-8.31V52.8c0-3.61-.74-4-3.85-4H373c-8.54,0-6.28,9.89-9.66,9.89-1.59,0-1.15-1.66-1-2.65l1.23-10c.06-.76.06-1.8,1.2-1.8,7,0,12.09.29,23.11.29s16.1-.29,23.11-.29c1.15,0,1.15,1,1.22,1.8l.84,7c.08.92,1,3.86-1,3.86-3,0-.59-8.08-9.27-8.08h-6.43c-3.11,0-3.85.38-3.85,4V85.58Z"/>
        <path class="cls-2" d="M434.45,85.58v2.81c0,9.29,8.44,5.83,8.44,8.23,0,.83-.66,1.15-2.4,1.15-2.81,0-5.61-.32-11.5-.32-3.23,0-6.49.32-8.44.32a.82.82,0,0,1-.86-.92c0-2.63,5.45-.67,5.45-7.85V52.74c0-6.89-8.54-4.75-8.54-7.42,0-1.27,1.9-1,2.58-1,2.94,0,5.89.29,8.55.29s5.43-.29,9.73-.29c2.27,0,2.65.14,2.65,1,0,2.59-5.66-.14-5.66,7V85.58Z"/>
        <path class="cls-3" d="M197.75,123.33s0,0,0,0a1.69,1.69,0,0,1,.59,1.44h4.56a6.23,6.23,0,0,0-.09-1.46h-5.09Z"/>
        <polygon class="cls-3" points="423.16 123.33 423.13 132.22 419.13 123.33 417.62 119.96 411.24 119.96 411.24 123.33 411.24 136.42 415.33 136.42 415.39 123.83 420.97 136.42 427.27 136.42 427.27 123.33 427.27 119.96 423.17 119.96 423.16 123.33"/>
        <path class="cls-3" d="M164.17,123.34h-2.71c1.43,1,1.77,3,1.77,4.92,0,2.43-.63,5.31-3.73,5.31s-3.74-2.88-3.74-5.31c0-1.9.36-4,1.8-4.92H152.1a10.06,10.06,0,0,0-1.11,4.86c0,5.43,3.07,8.57,8.51,8.57s8.52-3.14,8.52-8.57a9.77,9.77,0,0,0-1.12-4.85Z"/>
        <path class="cls-3" d="M197.75,123.33h5.09c-.6-2.79-3.59-3.69-6.52-3.69s-6.11.84-6.86,3.69h5.12a2.24,2.24,0,0,1,1.44-.52A2.57,2.57,0,0,1,197.75,123.33Z"/>
        <polygon class="cls-3" points="489.74 123.16 497.7 123.16 497.7 119.96 485.2 119.96 485.2 123.33 485.2 136.42 497.7 136.42 497.7 133.23 489.74 133.23 489.74 129.75 497.08 129.75 497.08 126.56 489.74 126.56 489.74 123.33 489.74 123.16"/>
        <path class="cls-3" d="M344.65,128.32c2.3-.35,4.18-1.66,4.18-4.11a4.67,4.67,0,0,0-.09-.88h-6a1.59,1.59,0,0,1,1.31,1.73c0,1.67-1.41,1.88-2.86,1.88h-1.78v-3.78h1.78a5.9,5.9,0,0,1,1.55.16h6c-.55-2.74-3.75-3.37-6.28-3.37h-7.6v16.46h4.55v-6.29h1.71c2.32,0,2.42.83,2.6,2.81a29.16,29.16,0,0,0,.5,3.48h4.93a22.46,22.46,0,0,1-.75-4C348.13,129.88,347.55,128.4,344.65,128.32Z"/>
        <path class="cls-3" d="M157.56,123.33a3.58,3.58,0,0,1,1.94-.52,3.43,3.43,0,0,1,1.94.53h5.46c-1.35-2.39-3.88-3.69-7.4-3.69s-6,1.3-7.39,3.69h5.45Z"/>
        <path class="cls-3" d="M457.07,123.33v7.77c0,.28.07,2.47-1.69,2.47-1.26,0-1.57-1.41-1.52-2.42h-4.51c-.2,4,2.34,5.61,6,5.61,3.05,0,6.26-1.4,6.26-5.27V120h-4.57Z"/>
        <path class="cls-3" d="M306.72,123.33v6.83a3.3,3.3,0,1,1-6.6,0V120h-4.56v10.42c0,4.57,3.72,6.38,7.85,6.38s7.86-1.81,7.86-6.38V120h-4.55Z"/>
        <path class="cls-3" d="M196.73,126.24c-1.21-.33-2.66-.72-2.66-1.92a1.3,1.3,0,0,1,.51-1h-5.12a5.48,5.48,0,0,0-.17,1.26,4,4,0,0,0,2.48,4c3.58,1.58,6.94,1.09,6.94,3.33,0,1.1-1.35,1.64-2.39,1.64-1.64,0-2.79-.85-2.76-2.4H189c.07,4.47,3.43,5.59,7.25,5.59s7.21-1.65,7.21-5.11C203.48,127.21,199.49,126.94,196.73,126.24Z"/>
        <polygon class="cls-3" points="227.92 123.33 227.92 136.42 232.47 136.42 232.47 123.33 232.47 119.96 227.92 119.96 227.92 123.33"/>
        <path class="cls-3" d="M382.59,120H377l-1.34,3.37-5.16,13.09h4.56l1.07-3.21h6.67l1.09,3.21h5.14l-5.16-13.09Zm-5.27,10,2.19-6.68,0-.15.05.15,2.11,6.68Z"/>
        <path class="cls-3" d="M264.05,127.08H272v8.79c-3.7.55-4.4,1-8.36.89-5.13-.09-8.24-3.42-8.24-8.57a9.35,9.35,0,0,1,1.21-4.85h5.68c-1.52.92-2.11,2.91-2.11,4.85,0,3.24,1.62,5.38,4.89,5.38a12.67,12.67,0,0,0,2.36-.27v-3.05h-3.34Zm-1.8-3.74h0a3.87,3.87,0,0,1,2-.53,3.73,3.73,0,0,1,2.09.52h5.26c-.88-3.35-4.55-3.79-8-3.69a8,8,0,0,0-7,3.69h5.69A0,0,0,0,1,262.25,123.34Zm4.13,0a2.13,2.13,0,0,1,.9,1.56h4.56a6.78,6.78,0,0,0-.2-1.56h-5.26Z"/>
        <path class="cls-3" d="M12.67,18.5a7.36,7.36,0,0,1-5.36,2.17A7.31,7.31,0,0,1,2,18.5c-2-2-2-4.26-2-8.17S0,4.17,2,2.17A7.27,7.27,0,0,1,7.31,0a7.32,7.32,0,0,1,5.36,2.17c2,2,1.94,4.25,1.94,8.16S14.67,16.5,12.67,18.5ZM10.33,4a4.13,4.13,0,0,0-3-1.25A4.17,4.17,0,0,0,4.28,4c-1,1.09-1.2,2.23-1.2,6.31s.2,5.22,1.2,6.31a4.17,4.17,0,0,0,3,1.26,4.13,4.13,0,0,0,3-1.26c1-1.09,1.2-2.23,1.2-6.31S11.33,5.11,10.33,4Z"/>
        <path class="cls-3" d="M31.54,20.49H23.32V.17h7.9c3.77,0,6.14,2.14,6.14,5.57a4.61,4.61,0,0,1-2.74,4.31,4.82,4.82,0,0,1,3.05,4.71C37.67,18.5,35.13,20.49,31.54,20.49ZM31,2.94H26.4V8.76H31c2,0,3.3-1,3.3-2.91S32.93,2.94,31,2.94Zm.28,8.59H26.4v6.19h4.85a3,3,0,0,0,3.34-3.11A3,3,0,0,0,31.25,11.53Z"/>
        <path class="cls-3" d="M52.94,20.49h-2.4L43.86.17h3.2L51.74,15,56.42.17h3.25Z"/>
        <path class="cls-3" d="M66.61,20.49V.17h13V2.94h-9.9V8.88h8.45v2.74H69.69v6.1h9.9v2.77Z"/>
        <path class="cls-3" d="M86.67,20.49V17.84l9.39-14.9h-9V.17H99.68V2.68l-9.44,15h9.44v2.77Z"/>
        <path class="cls-3" d="M120.32,20.49l-9.4-14.3v14.3h-3.08V.17h2.83l9.39,14.27V.17h3.08V20.49Z"/>
        <path class="cls-3" d="M132.58,20.49V.17h3.09V20.49Z"/>
        <path class="cls-3" d="M170.94,20.49V6.91l-4.68,9.9H164l-4.8-9.9V20.49H156.1V.17h3.08l5.94,12.65L170.94.17H174V20.49Z"/>
        <path class="cls-3" d="M183.44,20.49V.17h3.08V20.49Z"/>
        <path class="cls-3" d="M207.18,20.49l-4.28-8.56H199v8.56H196V.17h7.88c3.85,0,6.31,2.48,6.31,5.94a5.34,5.34,0,0,1-4.05,5.39l4.68,9ZM203.61,2.94H199V9.3h4.57c2.06,0,3.45-1.17,3.45-3.17S205.67,2.94,203.61,2.94Z"/>
        <path class="cls-3" d="M230.72,18.5a7.68,7.68,0,0,1-10.7,0c-2-2-2-4.26-2-8.17s0-6.16,2-8.16a7.68,7.68,0,0,1,10.7,0c2,2,1.94,4.25,1.94,8.16S232.72,16.5,230.72,18.5ZM228.38,4a4.29,4.29,0,0,0-6,0c-1,1.09-1.2,2.23-1.2,6.31s.2,5.22,1.2,6.31a4.26,4.26,0,0,0,6,0c1-1.09,1.2-2.23,1.2-6.31S229.38,5.11,228.38,4Z"/>
        <path class="cls-3" d="M247.65,20.49h-2.4L238.57.17h3.2L246.45,15,251.13.17h3.25Z"/>
        <path class="cls-3" d="M261.31,20.49V.17h3.09V20.49Z"/>
        <path class="cls-3" d="M286.32,20.49l-9.4-14.3v14.3h-3.08V.17h2.83l9.39,14.27V.17h3.08V20.49Z"/>
        <path class="cls-3" d="M304,20.67c-3.05,0-5.25-.72-7.19-2.69l2-2A6.7,6.7,0,0,0,304,17.9c2.65,0,4.19-1.15,4.19-3.12a2.72,2.72,0,0,0-.8-2.11,3.52,3.52,0,0,0-2.22-.85l-2.4-.35A7,7,0,0,1,299,9.85,5.1,5.1,0,0,1,297.47,6c0-3.54,2.57-6,6.79-6a8.48,8.48,0,0,1,6.31,2.31l-2,1.94a6,6,0,0,0-4.42-1.57c-2.4,0-3.71,1.37-3.71,3.17a2.45,2.45,0,0,0,.77,1.89,4.64,4.64,0,0,0,2.28.94l2.31.34a6.7,6.7,0,0,1,3.8,1.51,5.34,5.34,0,0,1,1.66,4.17C311.29,18.44,308.23,20.67,304,20.67Z"/>
        <path class="cls-3" d="M331.78,20.49l-5.71-10-3.43,4.12v5.9h-3.08V.17h3.08V10.39L331,.17h3.76l-6.59,8,7.28,12.36Z"/>
        <path class="cls-3" d="M342.47,20.49V.17h3.09V20.49Z"/>
        <path class="cls-3" d="M369.07,2.94V9.13h8.45V11.9h-8.45v8.59H366V.17h13V2.94Z"/>
        <path class="cls-3" d="M398.18,18.5a7.38,7.38,0,0,1-5.37,2.17,7.31,7.31,0,0,1-5.33-2.17c-2-2-2-4.26-2-8.17s0-6.16,2-8.16A7.27,7.27,0,0,1,392.81,0a7.34,7.34,0,0,1,5.37,2.17c2,2,1.94,4.25,1.94,8.16S400.18,16.5,398.18,18.5ZM395.84,4a4.29,4.29,0,0,0-6,0c-1,1.09-1.2,2.23-1.2,6.31s.2,5.22,1.2,6.31a4.26,4.26,0,0,0,6,0c1-1.09,1.2-2.23,1.2-6.31S396.84,5.11,395.84,4Z"/>
        <path class="cls-3" d="M421.3,20.49l-9.39-14.3v14.3h-3.09V.17h2.83L421,14.44V.17h3.08V20.49Z"/>
        <path class="cls-3" d="M446,18.58a7.26,7.26,0,0,1-5.25,1.91h-7.14V.17h7.14A7.26,7.26,0,0,1,446,2.08c2.2,2.2,2.06,5.17,2.06,8.11S448.15,16.38,446,18.58ZM443.84,4.31a4.41,4.41,0,0,0-3.45-1.37h-3.74V17.72h3.74a4.37,4.37,0,0,0,3.45-1.37c1.05-1.16,1.08-3.36,1.08-6.16S444.89,5.48,443.84,4.31Z"/>
        <path class="cls-3" d="M468.64,18.5a7.69,7.69,0,0,1-10.71,0c-2-2-2-4.26-2-8.17s0-6.16,2-8.16a7.69,7.69,0,0,1,10.71,0c2,2,1.94,4.25,1.94,8.16S470.64,16.5,468.64,18.5ZM466.3,4a4.29,4.29,0,0,0-6.05,0c-1,1.09-1.2,2.23-1.2,6.31s.2,5.22,1.2,6.31a4.26,4.26,0,0,0,6.05,0c1-1.09,1.19-2.23,1.19-6.31S467.3,5.11,466.3,4Z"/>
        <path class="cls-3" d="M485.56,20.49h-2.4L476.48.17h3.2L484.36,15,489,.17h3.25Z"/>
        <path class="cls-3" d="M499.23,20.49V.17h3.08V20.49Z"/>
      </g>
    </g>
  </g>
</svg>
