<?xml version="1.0" encoding="UTF-8"?>
<svg width="363px" height="86px" viewBox="0 0 363 86" version="1.1" xmlns="http://www.w3.org/2000/svg" xmlns:xlink="http://www.w3.org/1999/xlink">
    <!-- Generator: Sketch 50.2 (55047) - http://www.bohemiancoding.com/sketch -->
    <title>pbz</title>
    <desc>Created with Sketch.</desc>
    <defs></defs>
    <g id="Page-1" stroke="none" stroke-width="1" fill="none" fill-rule="evenodd">
        <g id="pbz" transform="translate(-1.000000, -1.000000)">
            <g id="Group-2" transform="translate(182.500000, 45.500000) scale(1, -1) translate(-182.500000, -45.500000) translate(1.000000, 25.000000)">
                <path d="M73.39875,39.1638757 C74.49125,39.1638757 79.83,38.8938757 83.65,38.9501257 C88.82625,39.0076257 91.66625,39.0601257 97.9825,39.1638757 C99.78625,39.1638757 100.2225,39.2726257 100.2225,38.6213757 C100.2225,38.1363757 99.68,37.2576257 97.93,34.2088757 L81.74625,6.07637573 C81.63125,5.85387573 80.97125,4.76387573 80.97125,4.32637573 C80.97125,3.61762573 82.60375,3.35137573 85.995,3.35137573 C99.50875,3.35137573 98.74375,10.4888757 100.82125,10.4888757 C101.04125,10.4888757 101.42125,10.3313757 101.42125,9.29012573 C101.42125,5.04012573 98.20125,0.56137573 93.73125,0.56137573 C85.44625,0.56137573 82.1725,0.79512573 79.4475,0.79512573 C77.105,0.79512573 73.67125,0.56137573 72.25625,0.56137573 C71.54125,0.56137573 71.2075,0.56137573 71.2075,0.94637573 C71.2075,1.54762573 72.6825,3.73387573 73.29125,4.82137573 L89.3125,32.4626257 C89.69875,33.0563757 90.40375,34.4326257 90.40375,34.9701257 C90.40375,36.6076257 86.97875,36.3988757 83.8675,36.3988757 C72.145,36.3988757 75.7975,29.8451257 73.12875,29.8451257 C72.20125,29.8451257 72.4075,31.2563757 72.525,32.1376257 L73.39875,39.1638757 Z M45.54375,31.6413757 C45.54375,34.7526257 45.64625,36.8263757 49.34875,36.8263757 C54.20625,36.8263757 58.25,33.3288757 58.25,28.3176257 C58.25,24.2713757 56.6575,22.2113757 52.52125,22.2113757 L49.2475,22.2113757 C46.08375,22.2113757 45.54375,22.6501257 45.54375,25.3238757 L45.54375,31.6413757 Z M45.54375,15.5601257 C45.54375,18.4001257 45.64625,19.7601257 48.86,19.7601257 C58.78625,19.7601257 60.37,14.8488757 60.37,11.5826257 C60.365,6.30262573 57.585,2.74512573 52.23875,2.74512573 C46.96,2.74512573 45.54375,4.27137573 45.54375,9.45387573 L45.54375,15.5601257 Z M12.3925,8.03762573 C12.3925,1.22637573 17.8925,3.29637573 17.8925,1.39262573 C17.88625,0.45512573 17.35125,0.56137573 16.59,0.56137573 C12.765,0.56137573 10.37625,0.79512573 9.16625,0.79512573 C7.00125,0.79512573 2.79625,0.56137573 2.4675,0.56137573 C2.30125,0.56137573 1.3175,0.45512573 1.3175,1.39262573 C1.3175,2.97262573 5.6825,1.76387573 5.6825,8.58012573 L5.6825,32.5688757 C5.6825,38.3463757 3.10307335e-14,36.1138757 3.10307335e-14,38.1363757 C3.10307335e-14,38.4563757 0.23625,39.1638757 1.54125,39.1638757 C1.92625,39.1638757 4.91875,38.9501257 9.065,38.9501257 C9.82875,38.9501257 13.69375,39.1063757 17.575,39.1638757 C24.54125,39.2726257 31.30875,36.5413757 31.30875,28.5851257 C31.30875,21.7813757 26.2325,17.6413757 19.7525,17.6413757 C14.4075,17.6413757 14.135,18.9938757 14.135,19.2088757 C14.135,19.5988757 14.23875,20.2488757 14.89,20.2488757 C15.32875,20.2488757 16.25625,19.9251257 17.46,19.9251257 C24.05125,19.9251257 24.54125,26.0876257 24.6025,27.5051257 C24.65625,28.9201257 24.1675,36.8738757 15.71625,36.8738757 C13.26,36.8738757 12.3925,35.7851257 12.3925,33.3288757 L12.3925,8.03762573 Z M38.8325,7.06012573 C38.8325,1.76387573 34.1375,3.24387573 34.1375,1.43387573 C34.1375,0.67512573 34.6875,0.56137573 35.935,0.56137573 C37.08625,0.56137573 38.505,0.79512573 39.8175,0.79512573 C42.5325,0.79512573 45.265,0.56137573 53.38625,0.56137573 C62.27,0.56137573 67.2825,5.25387573 67.2825,12.4488757 C67.2825,17.3576257 65.215,20.2988757 58.57125,21.9926257 C62.4375,23.3563757 64.5125,26.3588757 64.5125,29.7851257 C64.5125,31.0976257 64.4575,39.1638757 51.09625,39.1638757 C46.50875,39.1638757 41.8875,38.9501257 37.25125,38.9501257 C34.73625,38.9501257 34.36625,39.1638757 33.98375,39.1638757 C33.705,39.1638757 33.045,39.2276257 33.045,38.3463757 C33.045,35.6738757 38.8325,38.6763757 38.8325,31.1563757 L38.8325,7.06012573 Z" id="path4468" fill="#ED1C24"></path>
                <path d="M138.909,28.43062 C136.174,33.59062 131.40525,38.22187 125.164,38.22187 C119.04525,38.22187 115.0215,33.78187 113.45775,28.42312 C112.9765,26.75562 112.73025,25.01312 112.73025,23.27937 C112.73025,22.00687 112.844,20.65187 113.0965,19.26312 C113.6765,16.06312 114.92775,12.74312 116.9665,10.10062 C119.35025,6.98187 122.8165,4.79812 127.504,4.79812 C133.1515,4.79812 136.674,7.98437 138.82525,10.10062 C139.8915,11.15812 140.6115,11.94437 141.0765,11.94437 C141.349,11.94437 141.844,11.66312 141.844,11.33187 C141.844,11.02937 141.73025,10.60312 141.50025,10.10062 C140.11025,7.00562 134.43275,0.92812 124.454,0.92812 C115.39775,0.92812 110.68025,5.42562 108.30275,10.10062 C106.489,13.65562 106.02525,17.39437 106.02525,19.26312 C106.03525,22.18687 106.6165,25.41312 107.8565,28.43437 C110.484,34.86312 116.05775,40.39687 125.3765,40.39687 C131.974,40.39687 136.18025,37.08062 137.809,37.08062 C138.849,37.08062 138.904,38.87687 139.66025,38.87687 C139.92775,38.87687 140.314,38.82187 140.314,38.54312 L141.27775,28.43062 L141.29775,28.19062 C141.349,27.64687 141.57275,26.39062 140.6465,26.39062 C139.779,26.39062 139.3965,27.53437 139.01275,28.24687 L138.909,28.43062 Z" id="path4472" fill="#113E74"></path>
                <path d="M175.89875,27.7000847 C175.5675,24.9938347 174.18875,23.3088347 172.805,22.1663347 C171.2325,20.9075847 169.6475,20.4313347 169.6475,19.8863347 C169.6475,19.8063347 169.8975,19.3175847 170.34,18.5225847 C171.35375,16.6638347 173.39375,13.1450847 175.57375,9.36383467 L178.215,4.77508467 C178.69875,3.92133467 179.74,3.92133467 180.165,3.92133467 C180.71125,3.92133467 181.265,4.23133467 181.8,4.23133467 C182.295,4.23133467 182.6275,3.92133467 182.6275,3.46258467 C182.6275,1.77383467 179.02375,0.571334675 176.84875,0.571334675 C172.54125,0.571334675 170.8,4.01133467 169.09625,7.17758467 L167.94,9.37008467 L164.52625,15.7900847 C163.6325,17.5050847 162.885,18.2413347 161.51875,18.5325847 C160.9875,18.6375847 160.33625,18.6813347 159.57,18.6813347 C158.66,18.6813347 158.07875,18.6463347 157.69375,18.5325847 C156.85125,18.2900847 156.9975,17.6988347 156.9975,16.3900847 L156.9975,9.37008467 L156.9975,6.95883467 C156.9975,1.11758467 162.40875,3.36133467 162.40875,1.40258467 C162.40875,0.906334675 161.96,0.571334675 160.70875,0.571334675 C159.78625,0.571334675 158.31875,0.805084675 156.01875,0.805084675 C153.0775,0.805084675 150.3475,0.571334675 147.62375,0.571334675 C147.02375,0.571334675 145.885,0.408834675 145.885,1.50633467 C145.885,3.25383467 150.2925,1.44508467 150.2925,8.32508467 L150.2925,9.37008467 L150.2925,18.5325847 L150.2925,27.7000847 L150.2925,32.3100847 C150.2925,38.4238347 144.36,36.4088347 144.36,38.3563347 C144.36,38.9038347 144.89875,39.1738347 145.555,39.1738347 C148.055,39.1738347 148.50125,38.9600847 151.92625,38.9600847 C155.5925,38.9600847 159.29625,39.1738347 162.94625,39.1738347 C174.8825,39.1738347 175.9725,31.4925847 175.9725,28.9825847 C175.9725,28.5363347 175.9475,28.1025847 175.89875,27.7000847 Z M169.25875,27.7000847 C169.1725,32.9175847 166.14125,36.8363347 160.7125,36.8363347 C158.69375,36.8363347 156.9975,36.8363347 156.9975,33.5650847 L156.9975,27.7000847 L156.9975,22.5488347 C156.9975,21.1875847 159.01625,21.1875847 160.655,21.1875847 C168.94625,21.1875847 169.2675,24.2338347 169.2675,27.4600847 L169.25875,27.7000847 Z" id="path4476" fill="#113E74"></path>
                <path d="M223.655125,19.263745 C223.741375,20.191245 223.783875,21.091245 223.783875,21.919995 C223.783875,24.288745 223.448875,26.471245 222.812625,28.436245 L222.587625,29.084995 C219.966375,36.314995 213.247625,40.487495 205.031375,40.398745 C197.410125,40.342495 191.772625,37.229995 188.402625,32.288745 C187.586375,31.098745 186.920125,29.798745 186.372625,28.431245 C185.301375,25.707495 184.751375,22.647495 184.751375,19.353745 C184.773875,15.811245 185.510125,12.711245 186.840125,10.102495 C189.237625,5.401245 193.598875,2.238745 199.225125,1.259995 C200.452625,1.047495 201.738875,0.928745 203.072625,0.928745 C204.665125,0.928745 206.151375,1.047495 207.518875,1.259995 C214.457625,2.324995 218.562625,5.921245 220.908875,10.102495 C222.587625,13.084995 223.378875,16.379995 223.655125,19.263745 M215.398875,10.102495 C213.625125,6.036245 210.277625,3.366245 204.651375,3.274995 C199.662625,3.196245 196.328875,6.136245 194.253875,10.102495 C192.797625,12.882495 191.963875,16.164995 191.630125,19.263745 C191.508875,20.373745 191.458875,21.453745 191.458875,22.467495 C191.458875,24.518745 191.641375,26.551245 192.072625,28.431245 C192.180125,28.909995 192.306375,29.374995 192.457625,29.827495 C193.925125,34.496245 197.190125,37.944995 203.396375,38.056245 C208.493875,38.129995 213.401375,34.844995 215.708875,28.431245 C215.931375,27.786245 216.138875,27.129995 216.315125,26.439995 C216.813875,24.459995 217.080125,22.242495 217.080125,19.804995 L217.080125,19.263745 C217.027625,15.832495 216.537625,12.678745 215.398875,10.102495" id="path4480" fill="#113E74"></path>
                <path d="M236.55675,18.6301479 C236.43425,18.2913979 236.34675,17.9326479 236.34675,17.5251479 C236.34675,16.9763979 237.1105,17.0276479 238.0955,17.0276479 L245.5005,17.0276479 C246.49175,17.0276479 247.248,16.9763979 247.248,17.5251479 C247.248,17.9326479 247.15925,18.2913979 247.0305,18.6301479 C246.923,18.9326479 246.78175,19.2288979 246.64925,19.5326479 L242.9105,27.7976479 L242.17925,29.4163979 C241.85175,29.8388979 242.018,29.8388979 241.74175,29.8388979 C241.638,29.8388979 241.4155,29.7838979 241.1455,29.1826479 L240.533,27.7976479 L236.93925,19.5326479 C236.823,19.2288979 236.67675,18.9326479 236.55675,18.6301479 Z M250.60675,9.46889794 C248.8805,13.5576479 248.5955,14.0901479 247.2005,14.0901479 L236.4605,14.0901479 C235.52925,14.0901479 234.393,13.8676479 233.12675,10.2763979 L232.8355,9.46889794 C232.4605,8.39014794 231.97425,6.98639794 231.97425,5.96139794 C231.97425,2.04389794 237.873,2.92264794 237.873,1.44889794 C237.873,0.295147942 236.18175,0.670147942 235.033,0.670147942 C233.29425,0.670147942 231.65925,0.902647942 229.91925,0.902647942 C228.278,0.902647942 226.70175,0.670147942 225.11925,0.670147942 C224.3555,0.670147942 223.48675,0.563897942 223.48675,1.27889794 C223.48675,2.53639794 226.268,2.19889794 227.623,5.25014794 L229.5005,9.46889794 L233.618,18.6301479 L237.71675,27.7976479 L242.403,38.2451479 C242.783,39.1151479 243.06175,40.1426479 243.768,40.1426479 C244.25425,40.1426479 244.36675,40.0376479 245.07175,38.4013979 L249.74425,27.7976479 L253.798,18.6301479 L257.843,9.46889794 L259.80175,5.03889794 C261.488,1.16764794 264.47925,3.29139794 264.47925,1.49889794 C264.47925,0.563897942 263.98675,0.671397942 262.5155,0.671397942 C260.553,0.671397942 259.078,0.902647942 255.48925,0.902647942 C253.08175,0.902647942 251.06925,0.671397942 249.4805,0.671397942 C248.51175,0.671397942 247.788,0.563897942 247.788,1.33514794 C247.788,2.92264794 251.66675,2.31264794 251.66675,5.63639794 C251.66675,6.84014794 251.28425,7.81389794 250.678,9.29139794 L250.60675,9.46889794 Z" id="path4484" fill="#113E74"></path>
                <path d="M334.553625,18.6285077 C334.423625,18.2897577 334.327375,17.9310077 334.327375,17.5235077 C334.327375,16.9747577 335.097375,17.0260077 336.078625,17.0260077 L343.481125,17.0260077 C344.469875,17.0260077 345.234875,16.9747577 345.234875,17.5235077 C345.234875,17.9310077 345.134875,18.2897577 345.009875,18.6285077 C344.894875,18.9310077 344.763625,19.2272577 344.637375,19.5310077 L340.898625,27.7960077 L340.164875,29.4147577 C339.838625,29.8322577 339.997375,29.8322577 339.732375,29.8322577 C339.612375,29.8322577 339.406125,29.7822577 339.132375,29.1810077 L338.527375,27.7960077 L334.922375,19.5310077 C334.796125,19.2272577 334.654875,18.9310077 334.553625,18.6285077 Z M348.584875,9.46725768 C346.856125,13.5560077 346.578625,14.0885077 345.183625,14.0885077 L334.439875,14.0885077 C333.507375,14.0885077 332.371125,13.8660077 331.112375,10.2672577 L330.831125,9.46725768 C330.437375,8.38850768 329.973625,6.98475768 329.973625,5.95975768 C329.973625,2.04225768 335.857375,2.92100768 335.857375,1.44725768 C335.857375,0.293507676 334.164875,0.669757676 333.017375,0.669757676 C331.278625,0.669757676 329.642375,0.901007676 327.894875,0.901007676 C326.266125,0.901007676 324.681125,0.669757676 323.097375,0.669757676 C322.342375,0.669757676 321.463625,0.562257676 321.463625,1.27725768 C321.463625,2.53475768 324.251125,2.19725768 325.604875,5.24850768 L327.479875,9.46725768 L331.601125,18.6285077 L335.703625,27.7960077 L340.374875,38.2435077 C340.771125,39.1135077 341.033625,40.1410077 341.751125,40.1410077 C342.233625,40.1410077 342.351125,40.0397577 343.053625,38.3997577 L347.728625,27.7960077 L351.787375,18.6285077 L355.816125,9.46725768 L357.778625,5.03725768 C359.462375,1.16600768 362.468625,3.28975768 362.468625,1.49725768 C362.468625,0.562257676 361.974875,0.669757676 360.501125,0.669757676 C358.542375,0.669757676 357.068625,0.901007676 353.464875,0.901007676 C351.069875,0.901007676 349.051125,0.669757676 347.466125,0.669757676 C346.494875,0.669757676 345.774875,0.562257676 345.774875,1.33350768 C345.774875,2.92100768 349.649875,2.31100768 349.649875,5.63475768 C349.649875,6.82975768 349.272375,7.81225768 348.666125,9.28975768 L348.584875,9.46725768 Z" id="path4488" fill="#113E74"></path>
                <path d="M283.24375,9.36320002 L283.24375,8.36695002 C283.24375,1.66195002 290.21,3.24570002 290.21,1.71320002 C290.21,0.401950023 289.1225,0.565700023 287.5475,0.565700023 C285.35875,0.565700023 283.56375,0.796950023 279.90625,0.796950023 C276.2625,0.796950023 274.44875,0.565700023 272.275,0.565700023 C271.29875,0.565700023 270.37125,0.520700023 270.37125,1.71320002 C270.37125,3.83570002 276.5225,1.22945002 276.5225,7.70820002 L276.5225,9.36320002 L276.5225,18.52445 L276.5225,27.6932 L276.5225,33.0207 C276.5225,35.6232 275.98375,35.89945 273.74375,35.89945 L269.1625,35.89945 C263.0075,35.89945 264.6375,28.7607 262.1925,28.7607 C261.04875,28.7607 261.3675,29.95695 261.4725,30.6682 L262.36,37.8682 C262.40375,38.41695 262.40375,39.16695 263.22375,39.16695 C268.2875,39.16695 271.95,38.9532 279.90625,38.9532 C287.86375,38.9532 291.52,39.16695 296.57875,39.16695 C297.41125,39.16695 297.41125,38.41695 297.46,37.8682 L298.065,32.8532 C298.1225,32.1907 298.7675,30.06445 297.3525,30.06445 C295.17375,30.06445 296.925,35.89945 290.6625,35.89945 L286.0225,35.89945 C283.78125,35.89945 283.24375,35.6232 283.24375,33.0207 L283.24375,27.6932 L283.24375,18.52445 L283.24375,9.36320002 Z" id="path4492" fill="#113E74"></path>
                <path d="M313.500125,9.35012 L313.500125,7.32012 C313.500125,0.61762 319.593875,3.11887 319.593875,1.38012 C319.593875,0.78387 319.115125,0.55262 317.857625,0.55262 C315.832625,0.55262 313.813875,0.78387 309.558875,0.78387 C307.227625,0.78387 304.881375,0.55262 303.472625,0.55262 C302.962625,0.55262 302.851375,0.93637 302.851375,1.21637 C302.851375,3.11887 306.785125,1.70012 306.785125,6.88262 L306.785125,9.35012 L306.785125,18.51137 L306.785125,27.68012 L306.785125,33.04637 C306.785125,38.01637 300.620125,36.47762 300.620125,38.40387 C300.620125,39.32012 301.988875,39.15387 302.483875,39.15387 C304.603875,39.15387 306.732625,38.94012 308.648875,38.94012 C310.598875,38.94012 312.570125,39.15387 315.676375,39.15387 C317.310125,39.15387 317.583875,39.04887 317.583875,38.40387 C317.583875,36.53137 313.500125,38.50262 313.500125,33.31762 L313.500125,27.68012 L313.500125,18.51137 L313.500125,9.35012 Z" id="path4496" fill="#113E74"></path>
            </g>
            <g id="Group" transform="translate(182.456375, 8.404495) scale(1, -1) translate(-182.456375, -8.404495) translate(0.956375, 0.404495)" fill="#113E74" fill-rule="nonzero">
                <path d="M7.5,12.5 C6.98625,13.0575 6.18125,13.40625 5.3175,13.40625 C4.4525,13.40625 3.64875,13.0575 3.13375,12.5 C2.41375,11.7175 2.2675,10.89375 2.2675,7.94875 C2.2675,5.00375 2.41375,4.18 3.13375,3.3975 C3.64875,2.83875 4.4525,2.49 5.3175,2.49 C6.18125,2.49 6.98625,2.83875 7.5,3.3975 C8.22125,4.18 8.36375,5.00375 8.36375,7.94875 C8.36375,10.89375 8.22125,11.7175 7.5,12.5 M9.18875,2.0575 C8.17875,1.04875 6.8825,0.4925 5.3175,0.4925 C3.7525,0.4925 2.47375,1.04875 1.46625,2.0575 C0.02375,3.50125 0.04375,5.12625 0.04375,7.94875 C0.04375,10.77 0.02375,12.39625 1.46625,13.84 C2.47375,14.84875 3.7525,15.40375 5.3175,15.40375 C6.8825,15.40375 8.17875,14.84875 9.18875,13.84 C10.63125,12.39625 10.58875,10.77 10.58875,7.94875 C10.58875,5.12625 10.63125,3.50125 9.18875,2.0575" id="path4552"></path>
                <path d="M22.594,7.083125 L19.09275,7.083125 L19.09275,2.614375 L22.594,2.614375 C24.139,2.614375 25.004,3.561875 25.004,4.859375 C25.004,6.155625 24.139,7.083125 22.594,7.083125 M22.389,13.283125 L19.09275,13.283125 L19.09275,9.080625 L22.389,9.080625 C23.809,9.080625 24.7765,9.821875 24.7765,11.181875 C24.7765,12.541875 23.809,13.283125 22.389,13.283125 M22.80025,0.616875 L16.869,0.616875 L16.869,15.280625 L22.57275,15.280625 C25.2915,15.280625 27.0015,13.736875 27.0015,11.265625 C27.0015,9.678125 26.01275,8.545625 25.024,8.153125 C26.15775,7.701875 27.229,6.610625 27.229,4.755625 C27.229,2.058125 25.39525,0.616875 22.80025,0.616875" id="path4556"></path>
                <polygon id="path4560" points="38.2435 0.6165 36.51475 0.6165 31.696 15.28025 34.001 15.28025 37.37975 4.61275 40.75725 15.28025 43.106 15.28025"></polygon>
                <polygon id="path4564" points="48.108 0.6165 48.108 15.28025 57.478 15.28025 57.478 13.28275 50.33175 13.28275 50.33175 8.99775 56.428 8.99775 56.428 7.0215 50.33175 7.0215 50.33175 2.61525 57.478 2.61525 57.478 0.6165"></polygon>
                <polygon id="path4568" points="62.58425 0.6165 62.58425 2.5315 69.3605 13.28275 62.87175 13.28275 62.87175 15.28025 71.9755 15.28025 71.9755 13.46775 65.15925 2.61525 71.9755 2.61525 71.9755 0.6165"></polygon>
                <polygon id="path4572" points="86.864 0.6165 80.08775 10.934 80.08775 0.6165 77.864 0.6165 77.864 15.28025 79.90275 15.28025 86.679 4.984 86.679 15.28025 88.90275 15.28025 88.90275 0.6165"></polygon>
                <polygon id="path4574" points="95.716 15.281125 97.93975 15.281125 97.93975 0.617375 95.716 0.617375"></polygon>
                <polygon id="path4578" points="123.394875 0.6165 123.394875 10.419 120.017375 3.27275 118.368625 3.27275 114.908625 10.419 114.908625 0.6165 112.684875 0.6165 112.684875 15.28025 114.908625 15.28025 119.193625 6.15525 123.394875 15.28025 125.618625 15.28025 125.618625 0.6165"></polygon>
                <polygon id="path4580" points="132.41225 15.281125 134.636 15.281125 134.636 0.617375 132.41225 0.617375"></polygon>
                <path d="M146.9715,13.283125 L143.67525,13.283125 L143.67525,8.690625 L146.9715,8.690625 C148.45525,8.690625 149.46275,9.534375 149.46275,10.976875 C149.46275,12.416875 148.45525,13.283125 146.9715,13.283125 Z M149.5465,0.616875 L146.4565,6.795625 L143.67525,6.795625 L143.67525,0.616875 L141.4515,0.616875 L141.4515,15.280625 L147.1365,15.280625 C149.91525,15.280625 151.6865,13.489375 151.6865,10.995625 C151.6865,8.896875 150.4115,7.556875 148.764,7.103125 L152.1415,0.616875 L149.5465,0.616875 Z" id="path4584"></path>
                <path d="M164.84625,12.5 C164.33125,13.0575 163.52875,13.40625 162.66375,13.40625 C161.7975,13.40625 160.995,13.0575 160.48,12.5 C159.76,11.7175 159.61375,10.89375 159.61375,7.94875 C159.61375,5.00375 159.76,4.18 160.48,3.3975 C160.995,2.83875 161.7975,2.49 162.66375,2.49 C163.52875,2.49 164.33125,2.83875 164.84625,3.3975 C165.5675,4.18 165.71125,5.00375 165.71125,7.94875 C165.71125,10.89375 165.5675,11.7175 164.84625,12.5 M166.53625,2.0575 C165.52625,1.04875 164.22875,0.4925 162.66375,0.4925 C161.09875,0.4925 159.82,1.04875 158.8125,2.0575 C157.37125,3.50125 157.39125,5.12625 157.39125,7.94875 C157.39125,10.77 157.37125,12.39625 158.8125,13.84 C159.82,14.84875 161.09875,15.40375 162.66375,15.40375 C164.22875,15.40375 165.52625,14.84875 166.53625,13.84 C167.9775,12.39625 167.93625,10.77 167.93625,7.94875 C167.93625,5.12625 167.9775,3.50125 166.53625,2.0575" id="path4588"></path>
                <polygon id="path4592" points="178.746375 0.6165 177.015125 0.6165 172.196375 15.28025 174.502625 15.28025 177.881375 4.61275 181.258875 15.28025 183.607625 15.28025"></polygon>
                <polygon id="path4594" points="188.60975 15.281125 190.8335 15.281125 190.8335 0.617375 188.60975 0.617375"></polygon>
                <polygon id="path4598" points="206.651625 0.6165 199.874125 10.93525 199.874125 0.6165 197.650375 0.6165 197.650375 15.28025 199.690375 15.28025 206.464125 4.984 206.464125 15.28025 208.689125 15.28025 208.689125 0.6165"></polygon>
                <path d="M219.39575,0.492 C217.19325,0.492 215.607,1.00825 214.207,2.42825 L215.6895,3.892 C216.76075,2.82075 217.93325,2.49075 219.437,2.49075 C221.352,2.49075 222.4645,3.3145 222.4645,4.73575 C222.4645,5.3745 222.28075,5.9095 221.887,6.2595 C221.517,6.61075 221.147,6.75325 220.282,6.877 L218.552,7.1245 C217.35825,7.28825 216.40825,7.702 215.77075,8.2995 C215.05075,8.9795 214.6995,9.90575 214.6995,11.09825 C214.6995,13.65325 216.5545,15.4045 219.602,15.4045 C221.53825,15.4045 222.897,14.9095 224.15575,13.737 L222.732,12.33575 C221.827,13.20075 220.77575,13.467 219.54075,13.467 C217.8095,13.467 216.86325,12.4795 216.86325,11.182 C216.86325,10.647 217.02825,10.17325 217.41825,9.822 C217.79075,9.49325 218.387,9.24575 219.067,9.142 L220.7345,8.897 C222.09325,8.69075 222.857,8.36075 223.47575,7.8045 C224.27825,7.10325 224.6695,6.0545 224.6695,4.797 C224.6695,2.0995 222.4645,0.492 219.39575,0.492" id="path4602"></path>
                <polygon id="path4606" points="239.454375 0.6165 235.335625 7.8465 232.864375 4.879 232.864375 0.6165 230.639375 0.6165 230.639375 15.28025 232.864375 15.28025 232.864375 7.90775 238.856875 15.28025 241.575625 15.28025 236.819375 9.53525 242.070625 0.6165"></polygon>
                <polygon id="path4608" points="247.1735 15.281125 249.39725 15.281125 249.39725 0.617375 247.1735 0.617375"></polygon>
                <polygon id="path4612" points="266.3685 13.283125 266.3685 8.813125 272.4635 8.813125 272.4635 6.815625 266.3685 6.815625 266.3685 0.616875 264.1435 0.616875 264.1435 15.280625 273.51475 15.280625 273.51475 13.283125"></polygon>
                <path d="M285.683625,12.5 C285.169875,13.0575 284.364875,13.40625 283.501125,13.40625 C282.636125,13.40625 281.831125,13.0575 281.317375,12.5 C280.596125,11.7175 280.452375,10.89375 280.452375,7.94875 C280.452375,5.00375 280.596125,4.18 281.317375,3.3975 C281.831125,2.83875 282.636125,2.49 283.501125,2.49 C284.364875,2.49 285.169875,2.83875 285.683625,3.3975 C286.404875,4.18 286.547375,5.00375 286.547375,7.94875 C286.547375,10.89375 286.404875,11.7175 285.683625,12.5 M287.373625,2.0575 C286.363625,1.04875 285.066125,0.4925 283.501125,0.4925 C281.936125,0.4925 280.658625,1.04875 279.649875,2.0575 C278.207375,3.50125 278.228625,5.12625 278.228625,7.94875 C278.228625,10.77 278.207375,12.39625 279.649875,13.84 C280.658625,14.84875 281.936125,15.40375 283.501125,15.40375 C285.066125,15.40375 286.363625,14.84875 287.373625,13.84 C288.813625,12.39625 288.772375,10.77 288.772375,7.94875 C288.772375,5.12625 288.813625,3.50125 287.373625,2.0575" id="path4616"></path>
                <polygon id="path4620" points="304.054 0.6165 297.2765 10.93525 297.2765 0.6165 295.05275 0.6165 295.05275 15.28025 297.09275 15.28025 303.86775 4.984 303.86775 15.28025 306.0915 15.28025 306.0915 0.6165"></polygon>
                <path d="M320.321125,12.294375 C319.703625,12.973125 318.879875,13.283125 317.828625,13.283125 L315.129875,13.283125 L315.129875,2.614375 L317.828625,2.614375 C318.879875,2.614375 319.703625,2.921875 320.321125,3.601875 C321.081125,4.446875 321.103625,6.034375 321.103625,8.051875 C321.103625,10.068125 321.081125,11.449375 320.321125,12.294375 M321.843625,1.996875 C320.919875,1.070625 319.578625,0.616875 318.056125,0.616875 L312.904875,0.616875 L312.904875,15.280625 L318.056125,15.280625 C319.578625,15.280625 320.919875,14.826875 321.843625,13.899375 C323.429875,12.314375 323.327375,10.173125 323.327375,8.051875 C323.327375,5.930625 323.429875,3.581875 321.843625,1.996875" id="path4624"></path>
                <path d="M336.525875,12.5 C336.012125,13.0575 335.209625,13.40625 334.343375,13.40625 C333.478375,13.40625 332.674625,13.0575 332.159625,12.5 C331.438375,11.7175 331.294625,10.89375 331.294625,7.94875 C331.294625,5.00375 331.438375,4.18 332.159625,3.3975 C332.674625,2.83875 333.478375,2.49 334.343375,2.49 C335.209625,2.49 336.012125,2.83875 336.525875,3.3975 C337.247125,4.18 337.389625,5.00375 337.389625,7.94875 C337.389625,10.89375 337.247125,11.7175 336.525875,12.5 M338.215875,2.0575 C337.205875,1.04875 335.908375,0.4925 334.343375,0.4925 C332.779625,0.4925 331.500875,1.04875 330.492125,2.0575 C329.050875,3.50125 329.070875,5.12625 329.070875,7.94875 C329.070875,10.77 329.050875,12.39625 330.492125,13.84 C331.500875,14.84875 332.779625,15.40375 334.343375,15.40375 C335.908375,15.40375 337.205875,14.84875 338.215875,13.84 C339.658375,12.39625 339.614625,10.77 339.614625,7.94875 C339.614625,5.12625 339.658375,3.50125 338.215875,2.0575" id="path4628"></path>
                <polygon id="path4632" points="350.426125 0.6165 348.697375 0.6165 343.877375 15.28025 346.183625 15.28025 349.562375 4.61275 352.937375 15.28025 355.286125 15.28025"></polygon>
                <polygon id="path4634" points="360.28975 15.281125 362.51225 15.281125 362.51225 0.617375 360.28975 0.617375"></polygon>
            </g>
            <g id="Group-3" transform="translate(235.104375, 80.496370) scale(1, -1) translate(-235.104375, -80.496370) translate(109.604375, 73.996370)" fill="#113E74" fill-rule="nonzero">
                <path d="M31.805,10 C32.0625,10.22625 32.4375,10.37375 32.84625,10.37375 C33.39375,10.37375 33.815,10.24375 34.09375,10 L34.2178021,10 C34.4438396,9.76512173 34.5522186,9.45096629 34.54125,9.055 L37.83125,9.055 C37.8475,9.43625 37.83125,9.78375 37.76625,10.11 L37.765,10.11 C37.765,10.10875 37.76625,10.10625 37.76625,10.10375 L37.7409377,10.1037931 C37.2587426,12.0349176 35.140643,12.6625 33.05875,12.6625 C30.8675,12.6625 28.655,12.05875 28.1125,10 L31.5837,10 L28.11275,9.994125 C28.04025,9.715375 27.99525,9.415375 27.98775,9.081625 C27.939,7.814125 28.57775,6.724125 29.77525,6.197875 C32.35775,5.056625 34.78775,5.407875 34.78775,3.791625 C34.78775,3.004125 33.81525,2.612875 33.059,2.612875 C31.88025,2.612875 31.0465,3.221625 31.0715,4.344125 L27.794,4.344125 C27.8415,1.120375 30.26525,0.310375 33.02775,0.310375 C35.77275,0.310375 38.23025,1.499125 38.23025,3.994125 C38.23025,7.201625 35.34775,7.399125 33.35525,7.899125 C32.4815,8.136625 31.439,8.419125 31.439,9.289125 C31.439,9.55020429 31.575072,9.80878684 31.8047992,10 Z M196.75,10 L196.7275,3.58625 L193.83875,10 L192.75375,12.43 L188.14875,12.43 L188.14875,10 L188.14875,0.555 L191.10125,0.555 L191.14375,9.64 L195.17125,0.555 L199.71875,0.555 L199.71875,10 L199.71875,12.43 L196.75875,12.43 L196.75,10 Z M9.864,9.996375 L7.904,9.993875 C8.9415,9.308875 9.18275,7.812625 9.18275,6.445125 C9.18275,4.688875 8.73025,2.613875 6.49525,2.613875 C4.25775,2.613875 3.79525,4.688875 3.79525,6.445125 C3.79525,7.817625 4.05275,9.318875 5.094,9.993875 L3.124,9.996375 L1.154,9.993875 C1.15525,9.996375 1.15775,9.998875 1.159,10.000125 L1.154,10.000125 C0.63025,9.043875 0.35025,7.878875 0.35025,6.492625 C0.35025,2.575125 2.564,0.310125 6.49525,0.310125 C10.43025,0.310125 12.63775,2.575125 12.63775,6.492625 C12.63775,7.878875 12.3665,9.043875 11.83275,9.993875 L9.864,9.996375 Z M244.796875,10.1245 L250.541875,10.1245 L250.541875,12.43075 L241.516875,12.43075 L241.516875,9.9995 L241.516875,0.55575 L250.541875,0.55575 L250.541875,2.8595 L244.796875,2.8595 L244.796875,5.36825 L250.089375,5.36825 L250.089375,7.6695 L244.796875,7.6695 L244.796875,9.9995 L244.796875,10.1245 Z M140.0935,6.39775 C141.7535,6.6515 143.1135,7.5965 143.1135,9.36275 C143.1135,9.599 143.0885,9.809 143.051,10.00025 L138.71475,10.00025 C139.276,9.864 139.661,9.52025 139.661,8.75275 C139.661,7.54525 138.646,7.399 137.59725,7.399 L136.31475,7.399 L136.31475,10.00025 L136.31475,10.124 L137.59725,10.124 C137.991,10.124 138.3885,10.10275 138.71475,10.0065 L143.051,10.00025 C142.65475,11.97525 140.34225,12.43025 138.5135,12.43025 L133.03475,12.43025 L133.03475,10.00025 L133.03475,0.55525 L136.31475,0.55525 L136.31475,5.09025 L137.551,5.09025 C139.2235,5.09025 139.2935,4.49525 139.4285,3.0665 C139.50225,2.23525 139.606,1.3715 139.78725,0.55525 L143.34225,0.55525 C143.06725,1.514 142.90475,2.4415 142.79975,3.4365 C142.61225,5.2765 142.19225,6.34025 140.0935,6.39775 Z M221.222625,10 L221.222625,4.39125 C221.222625,4.1925 221.270125,2.61375 219.998875,2.61375 C219.087625,2.61375 218.870125,3.63125 218.903875,4.3575 L215.646375,4.3575 C215.507625,1.445 217.335125,0.31 220.001375,0.31 C222.197625,0.31 224.516375,1.3225 224.516375,4.11375 L224.516375,10 L224.516375,12.43 L221.222625,12.43 L221.222625,10 Z M112.73025,10 L112.73025,5.07125 C112.73025,3.5675 111.88275,2.61375 110.33775,2.61375 C108.79775,2.61375 107.96275,3.5675 107.96275,5.07125 L107.96275,10 L107.96275,12.43 L104.6765,12.43 L104.6765,10 L104.6765,4.915 C104.6765,1.61375 107.359,0.31 110.33775,0.31 C113.33275,0.31 116.0065,1.61375 116.0065,4.915 L116.0065,10 L116.0065,12.43 L112.73025,12.43 L112.73025,10 Z M55.86375,10 L55.86375,0.555 L59.15125,0.555 L59.15125,10 L59.15125,12.43 L55.86375,12.43 L55.86375,10 Z M167.473875,12.43075 L163.460125,12.43075 L162.496375,9.9995 L158.775125,0.55575 L162.062625,0.55575 L162.837625,2.872 L167.647625,2.872 L168.433875,0.55575 L172.143875,0.55575 L168.420125,9.9995 L167.473875,12.43075 Z M163.670125,5.17825 L165.253875,9.9995 L165.281375,10.107 L165.317625,9.9995 L166.840125,5.17825 L163.670125,5.17825 Z M83.6165,10 C83.9565,9.775 84.194,9.4025 84.26775,8.87875 L87.55275,8.87875 C87.54775,9.29 87.50025,9.66125 87.4115,10 L87.41025,10 C87.41025,9.99875 87.4115,9.99625 87.4115,9.99375 L83.6165,10 Z M80.639,9.99375 L80.64775,9.99375 C81.04025,10.23 81.52275,10.37375 82.1115,10.37375 C82.6965,10.37375 83.22275,10.265 83.6165,10 L87.41025,10 C86.77525,12.42 84.129,12.7375 81.61275,12.6625 C79.2765,12.5975 77.509,11.625 76.53775,10 L78.5915,9.99625 L80.64775,10 C80.644,9.99875 80.64275,9.995 80.639,9.99375 Z M81.9365,7.2975 L81.9365,5.00375 L84.3465,5.00375 L84.3465,2.8075 C83.85275,2.71125 83.25275,2.61375 82.6465,2.61375 C80.2815,2.61375 79.11525,4.1575 79.11525,6.4925 C79.11525,7.89375 79.5365,9.33125 80.639,9.99375 L78.5915,9.99625 L76.53775,9.99375 C75.96525,9.03125 75.66775,7.8625 75.66775,6.4925 C75.66775,2.7775 77.91275,0.3775 81.61275,0.31 C84.4715,0.2625 84.9715,0.555 87.64025,0.95375 L87.64025,7.2975 L81.9365,7.2975 Z M5.0935,10.0125 C5.45975,10.2425 5.91975,10.38625 6.49475,10.38625 C7.0685,10.38625 7.536,10.2425 7.89475,10.00625 L7.9035,10.00625 C7.901,10.0075 7.8985,10.01125 7.89475,10.0125 L9.8635,10.00875 L11.8335,10.0125 C10.85475,11.735 9.03475,12.675 6.49475,12.675 C3.95475,12.675 2.1335,11.73875 1.15975,10.0125 L3.12475,10.00875 L5.0935,10.0125 Z" id="Combined-Shape"></path>
            </g>
        </g>
    </g>
</svg>