<?xml version="1.0" encoding="UTF-8"?>
<svg width="432px" height="99px" viewBox="0 0 432 99" version="1.1" xmlns="http://www.w3.org/2000/svg" xmlns:xlink="http://www.w3.org/1999/xlink">
    <!-- Generator: Sketch 50.2 (55047) - http://www.bohemiancoding.com/sketch -->
    <title>Group 70</title>
    <desc>Created with Sketch.</desc>
    <defs></defs>
    <g id="Page-1" stroke="none" stroke-width="1" fill="none" fill-rule="evenodd">
        <g id="00_PROFICO_LOGO_VEKTOR" transform="translate(-196.000000, -515.000000)">
            <g id="Group-70" transform="translate(196.000000, 515.390000)">
                <path d="M172.6108,47.9102 C175.2738,34.0822 169.6398,30.1892 161.8558,30.1892 C158.3728,30.1892 154.7878,30.9062 152.6358,31.6232 L145.0568,67.4742 C146.6948,68.2942 150.5878,69.1132 154.0698,69.1132 C163.9038,69.1132 170.1528,61.0212 172.4058,49.0372 L172.6108,47.9102 Z M143.2128,76.0792 L139.3198,94.2092 C138.8078,96.8732 137.4768,97.9992 134.9158,97.9992 L131.4328,97.9992 C128.7698,97.9992 127.8478,96.8732 128.3598,94.2092 L142.2908,28.7552 C143.1108,25.0672 145.2608,24.4532 147.0028,23.8392 C150.4858,22.5072 157.8608,21.4822 163.6988,21.4822 C178.1418,21.4822 188.5898,28.6522 184.2878,47.8072 L183.9808,49.1392 C179.8828,67.2692 170.7668,77.8202 155.5048,77.8202 C150.8948,77.8202 146.7978,77.0012 143.2128,76.0792 Z" id="Fill-30" fill="#4D4E4E"></path>
                <path d="M227.5146,27.4238 C226.5926,29.3698 226.8996,31.0088 223.9296,30.9058 C222.1876,30.5988 220.1396,30.4958 218.1936,30.4958 C215.5296,30.4958 211.0226,31.1118 207.9506,32.2378 L199.2436,73.0058 C198.7306,75.6688 197.3996,76.7958 194.8386,76.7958 L191.3556,76.7958 C188.6926,76.7958 187.7706,75.6688 188.2836,73.0058 L197.8086,28.3458 C198.3216,26.0918 199.5506,24.7608 202.4186,23.9408 C207.6426,21.9948 213.4816,21.4828 218.8076,21.4828 C222.5976,21.4828 224.7486,21.7898 226.7976,22.1988 C229.1536,22.6098 228.8466,23.8388 227.9246,26.6048 L227.5146,27.4238 Z" id="Fill-32" fill="#4D4E4E"></path>
                <path d="M263.1621,48.7295 C265.8241,37.1545 262.8531,30.1895 254.3531,30.1895 C245.5431,30.1895 240.5231,36.7455 237.7581,48.7295 L237.3491,50.4705 C234.6851,62.2505 237.8611,69.1135 246.0551,69.1135 C254.3531,69.1135 259.8851,62.9675 262.7521,50.4705 L263.1621,48.7295 Z M226.2861,48.7295 C230.4861,30.3945 240.5231,21.4825 256.1971,21.4825 C271.3551,21.4825 278.7321,30.8035 274.6351,48.7295 L274.2251,50.4705 C270.0251,68.8065 259.8851,77.8205 244.2111,77.8205 C229.0521,77.8205 221.7791,68.3965 225.8761,50.4705 L226.2861,48.7295 Z" id="Fill-34" fill="#4D4E4E"></path>
                <path d="M284.2637,26.2969 C284.8767,23.6339 286.2087,22.5069 288.7697,22.5069 L292.2517,22.5069 L293.2777,17.5899 C295.7347,6.0159 305.3637,0.4839 319.9097,0.4839 C325.3377,0.4839 330.6637,1.5079 333.2247,2.4299 C335.6837,3.0449 336.6057,3.9669 335.2737,6.6299 L334.8657,7.4489 C333.6347,9.9069 332.5077,10.6249 329.7427,10.4199 C327.3867,9.9069 324.4157,9.1909 319.9097,9.1909 C309.2557,9.1909 305.2617,12.2639 304.1347,17.5899 L303.1117,22.5069 L328.7187,22.5069 C331.3807,22.5069 332.3027,23.6339 331.6897,26.2969 L324.0057,62.7629 C323.1877,66.5529 323.6997,68.0889 326.0547,68.0889 C326.9767,68.0889 327.7967,67.8849 328.6157,67.6799 C329.8457,67.4749 330.0507,67.9859 330.0507,69.7289 L329.9477,71.1619 C329.8457,73.4159 329.7427,74.9519 326.3637,75.8739 C324.6207,76.4879 322.9827,76.7959 321.0347,76.7959 C314.2757,76.7959 310.5877,74.0299 312.9437,62.8649 L319.8067,31.0089 L301.3687,31.0089 L292.3557,73.0059 C291.8437,75.6689 290.5117,76.7959 287.9517,76.7959 L284.4667,76.7959 C281.9067,76.7959 280.9847,75.6689 281.4977,73.0059 L290.5117,31.0089 L287.0297,31.0089 C284.7757,31.0089 283.4437,29.9849 284.0587,27.2189 L284.2637,26.2969 Z" id="Fill-36" fill="#4D4E4E"></path>
                <path d="M380.6523,27.7305 C379.7303,30.1895 379.1173,30.8035 377.2733,30.7015 C375.0193,30.4965 372.9703,30.1895 368.7713,30.1895 C358.0153,30.1895 352.6893,36.6425 349.9233,48.8325 L349.5133,50.5735 C346.6463,63.0705 350.7423,69.1135 360.8843,69.1135 C364.1623,69.1135 367.2343,68.8065 369.6933,68.4995 C371.1273,68.3965 371.6383,69.1135 371.4333,71.5725 L371.3323,73.2105 C371.1273,76.1815 368.8733,76.5905 367.8493,76.6935 C362.4203,77.5125 359.5523,77.8205 356.3773,77.8205 C340.3963,77.8205 333.7403,68.7045 338.1443,50.0615 L338.4513,48.8325 C342.5483,31.5205 350.6403,21.4825 368.0543,21.4825 C372.5603,21.4825 375.6343,21.7905 379.2183,22.5065 C381.0623,22.9175 382.1893,23.5315 381.2673,26.0915 L380.6523,27.7305 Z" id="Fill-38" fill="#4D4E4E"></path>
                <path d="M418.5547,48.7295 C421.2167,37.1545 418.2457,30.1895 409.7457,30.1895 C400.9357,30.1895 395.9157,36.7455 393.1507,48.7295 L392.7417,50.4705 C390.0777,62.2505 393.2537,69.1135 401.4477,69.1135 C409.7457,69.1135 415.2777,62.9675 418.1447,50.4705 L418.5547,48.7295 Z M381.6797,48.7295 C385.8787,30.3945 395.9157,21.4825 411.5897,21.4825 C426.7477,21.4825 434.1247,30.8035 430.0277,48.7295 L429.6177,50.4705 C425.4177,68.8065 415.2777,77.8205 399.6037,77.8205 C384.4457,77.8205 377.1717,68.3965 381.2697,50.4705 L381.6797,48.7295 Z" id="Fill-40" fill="#4D4E4E"></path>
                <path d="M63.1528,33.7939 C62.6778,36.0539 60.4618,37.8859 58.2028,37.8859 L51.6168,37.8859 C49.3588,37.8859 47.9088,36.0539 48.3848,33.7939 L49.7678,27.2029 C50.2408,24.9449 52.4598,23.1119 54.7178,23.1119 L61.3028,23.1119 C63.5608,23.1119 65.0078,24.9449 64.5358,27.2029 L63.1528,33.7939 Z" id="Fill-42" fill="#3D9B00"></path>
                <path d="M83.0464,33.7939 C82.5704,36.0539 80.3554,37.8859 78.0954,37.8859 L71.4994,37.8859 C69.2414,37.8859 67.7914,36.0539 68.2684,33.7939 L69.6504,27.2029 C70.1234,24.9449 72.3424,23.1119 74.6014,23.1119 L81.1954,23.1119 C83.4554,23.1119 84.9014,24.9449 84.4294,27.2029 L83.0464,33.7939 Z" id="Fill-44" fill="#006CBC"></path>
                <path d="M102.9292,33.7939 C102.4532,36.0539 100.2382,37.8859 97.9782,37.8859 L91.3882,37.8859 C89.1282,37.8859 87.6802,36.0539 88.1552,33.7939 L89.5362,27.2029 C90.0102,24.9449 92.2302,23.1119 94.4872,23.1119 L101.0782,23.1119 C103.3362,23.1119 104.7842,24.9449 104.3122,27.2029 L102.9292,33.7939 Z" id="Fill-46" fill="#7DCC00"></path>
                <path d="M58.978,53.6816 C58.504,55.9406 56.288,57.7736 54.029,57.7736 L47.445,57.7736 C45.185,57.7736 43.737,55.9406 44.21,53.6816 L45.594,47.0896 C46.067,44.8306 48.285,42.9976 50.543,42.9976 L57.128,42.9976 C59.388,42.9976 60.836,44.8306 60.362,47.0896 L58.978,53.6816 Z" id="Fill-48" fill="#006CBC"></path>
                <path d="M78.8706,53.6816 C78.3986,55.9406 76.1816,57.7736 73.9216,57.7736 L67.3276,57.7736 C65.0676,57.7736 63.6196,55.9406 64.0936,53.6816 L65.4756,47.0896 C65.9496,44.8306 68.1676,42.9976 70.4266,42.9976 L77.0226,42.9976 C79.2806,42.9976 80.7276,44.8306 80.2556,47.0896 L78.8706,53.6816 Z" id="Fill-50" fill="#00A4FF"></path>
                <path d="M98.7534,53.6816 C98.2814,55.9406 96.0644,57.7736 93.8044,57.7736 L87.2144,57.7736 C84.9544,57.7736 83.5064,55.9406 83.9814,53.6816 L85.3644,47.0896 C85.8374,44.8306 88.0554,42.9976 90.3144,42.9976 L96.9044,42.9976 C99.1614,42.9976 100.6104,44.8306 100.1384,47.0896 L98.7534,53.6816 Z" id="Fill-52" fill="#B7B7B7"></path>
                <path d="M54.8062,73.5674 C54.3302,75.8264 52.1152,77.6584 49.8562,77.6584 L43.2712,77.6584 C41.0112,77.6584 39.5632,75.8264 40.0382,73.5674 L41.4182,66.9774 C41.8952,64.7174 44.1132,62.8854 46.3692,62.8854 L52.9542,62.8854 C55.2142,62.8854 56.6622,64.7174 56.1882,66.9774 L54.8062,73.5674 Z" id="Fill-54" fill="#7DCC00"></path>
                <path d="M74.6987,73.5674 C74.2247,75.8264 72.0087,77.6584 69.7497,77.6584 L63.1537,77.6584 C60.8937,77.6584 59.4457,75.8264 59.9207,73.5674 L61.3017,66.9774 C61.7777,64.7174 63.9957,62.8854 66.2527,62.8854 L72.8487,62.8854 C75.1067,62.8854 76.5557,64.7174 76.0807,66.9774 L74.6987,73.5674 Z" id="Fill-56" fill="#3D9B00"></path>
                <path d="M23.5845,33.7939 C23.1075,36.0539 20.8925,37.8859 18.6335,37.8859 L12.0365,37.8859 C9.7805,37.8859 8.3295,36.0539 8.8055,33.7939 L10.1885,27.2029 C10.6605,24.9449 12.8795,23.1119 15.1395,23.1119 L21.7325,23.1119 C23.9945,23.1119 25.4395,24.9449 24.9665,27.2029 L23.5845,33.7939 Z" id="Fill-58" fill="#00A4FF"></path>
                <path d="M66.979,15.0205 C66.503,17.2805 64.288,19.1125 62.029,19.1125 L55.438,19.1125 C53.179,19.1125 51.73,17.2805 52.204,15.0205 L53.587,8.4295 C54.06,6.1715 56.28,4.3385 58.537,4.3385 L65.127,4.3385 C67.387,4.3385 68.834,6.1715 68.362,8.4295 L66.979,15.0205 Z" id="Fill-60" fill="#B7B7B7"></path>
                <path d="M39.2915,53.6816 C38.8185,55.9406 36.6015,57.7736 34.3425,57.7736 L27.7515,57.7736 C25.4925,57.7736 24.0435,55.9406 24.5195,53.6816 L25.9025,47.0896 C26.3755,44.8306 28.5935,42.9976 30.8525,42.9976 L37.4425,42.9976 C39.7005,42.9976 41.1485,44.8306 40.6755,47.0896 L39.2915,53.6816 Z" id="Fill-62" fill="#B7B7B7"></path>
                <path d="M15.2368,73.5674 C14.7618,75.8264 12.5468,77.6584 10.2868,77.6584 L3.6908,77.6584 C1.4318,77.6584 -0.0162,75.8264 0.4588,73.5674 L1.8398,66.9774 C2.3148,64.7174 4.5328,62.8854 6.7908,62.8854 L13.3858,62.8854 C15.6458,62.8854 17.0938,64.7174 16.6178,66.9774 L15.2368,73.5674 Z" id="Fill-64" fill="#006CBC"></path>
                <path d="M35.1196,73.5674 C34.6446,75.8264 32.4276,77.6584 30.1696,77.6584 L23.5796,77.6584 C21.3196,77.6584 19.8716,75.8264 20.3456,73.5674 L21.7266,66.9774 C22.2016,64.7174 24.4196,62.8854 26.6786,62.8854 L33.2686,62.8854 C35.5276,62.8854 36.9766,64.7174 36.5006,66.9774 L35.1196,73.5674 Z" id="Fill-66" fill="#00A4FF"></path>
                <path d="M29.2251,93.9639 C28.7511,96.2219 26.5331,98.0539 24.2761,98.0539 L17.6851,98.0539 C15.4251,98.0539 13.9781,96.2219 14.4511,93.9639 L15.8341,87.3739 C16.3081,85.1139 18.5251,83.2819 20.7851,83.2819 L27.3741,83.2819 C29.6341,83.2819 31.0831,85.1139 30.6081,87.3739 L29.2251,93.9639 Z" id="Fill-68" fill="#B7B7B7"></path>
            </g>
        </g>
    </g>
</svg>