<?xml version="1.0" encoding="UTF-8"?>
<svg width="201px" height="44px" viewBox="0 0 201 44" version="1.1" xmlns="http://www.w3.org/2000/svg" xmlns:xlink="http://www.w3.org/1999/xlink">
    <!-- Generator: Sketch 51.3 (57544) - http://www.bohemiancoding.com/sketch -->
    <title>Group</title>
    <desc>Created with Sketch.</desc>
    <defs></defs>
    <g id="Page-1" stroke="none" stroke-width="1" fill="none" fill-rule="evenodd">
        <g id="logotip-Prosperus---krivulje" transform="translate(-355.000000, -279.000000)">
            <g id="Group" transform="translate(355.000000, 279.000000)">
                <path d="M3.0008,17.1992 C3.0008,13.1 3.0008,12.3008 2.9,11.4992 C2.9,10.5008 2.6,10.1 1.8008,9.9008 C1.5008,9.9008 1.1,9.9008 0.6992,9.9008 C0.3992,9.9008 0.3008,9.8 0.3008,9.6008 C0.3008,9.3992 0.3992,9.3992 0.8,9.3992 C2.3,9.3992 3.9992,9.3992 4.7,9.3992 C5.9,9.3992 7.4,9.3992 8.7008,9.3992 C12.0992,9.3992 13.2992,10.5008 13.7,10.8992 C14.3,11.4992 15.0008,12.6992 15.0008,14.1008 C15.0008,18.0008 12.3008,20.7008 8.4008,20.7008 C8.3,20.7008 7.8992,20.7008 7.8008,20.6 C7.7,20.6 7.5008,20.6 7.5008,20.4008 C7.5008,20.1992 7.7,20.1008 8.3,20.1008 C9.8,20.1008 11.9,18.3992 11.9,15.6008 C11.9,14.7992 11.7992,12.9008 10.2992,11.6 C9.3008,10.7 8.1992,10.5008 7.5992,10.5008 C7.2008,10.5008 6.8,10.5008 6.5,10.5992 C6.3992,10.7 6.3008,10.8008 6.3008,11.1008 L6.3008,21.9008 C6.3008,24.3992 6.3008,26.6 6.3992,27.6992 C6.5,28.5008 6.6992,29.1008 7.5008,29.1992 C7.8992,29.1992 8.4992,29.3 8.9,29.3 C9.2,29.3 9.3008,29.4008 9.3008,29.4992 C9.3008,29.7008 9.0992,29.7992 8.7992,29.7992 C6.9992,29.7992 5.3,29.7008 4.5992,29.7008 C3.9992,29.7008 2.3,29.7992 1.2008,29.7992 C0.8,29.7992 0.6992,29.7008 0.6992,29.4992 C0.6992,29.4008 0.8,29.3 1.1,29.3 C1.5008,29.3 1.8008,29.1992 2.1008,29.1992 C2.6,29.1008 2.7008,28.5008 2.7992,27.6992 C3.0008,26.6 3.0008,24.3992 3.0008,21.9008 L3.0008,17.1992" id="Fill-63" fill="#0093D0"></path>
                <path d="M23.7992,19.2992 C23.7992,19.5992 23.9,19.7 24.0008,19.8008 C24.6008,20 25.4,20.1008 26.1008,20.1008 C27.0992,20.1008 27.5,20 27.9992,19.5992 C28.8008,18.9992 29.6,17.7992 29.6,15.6008 C29.6,11.7008 27.0992,10.5992 25.5008,10.5992 C24.8,10.5992 24.3008,10.5992 24.0008,10.7 C23.9,10.8008 23.7992,10.8992 23.7992,11.1008 L23.7992,19.2992 Z M20.6,17.1992 C20.6,13.1 20.6,12.3008 20.6,11.4992 C20.4992,10.5008 20.3,10.1 19.4,9.9008 C19.2008,9.9008 18.6992,9.9008 18.3992,9.9008 C18.0008,9.9008 17.9,9.8 17.9,9.6008 C17.9,9.3992 18.0992,9.3992 18.5,9.3992 C19.8992,9.3992 21.6008,9.3992 22.2008,9.3992 C23.1008,9.3992 25.1,9.3992 26,9.3992 C27.6992,9.3992 29.4992,9.5 30.9992,10.5008 C31.7,11 32.7992,12.3992 32.7992,14.1992 C32.7992,16.2008 32,18.0992 29.1992,20.3 C31.5992,23.3 33.5,25.7 35.1008,27.3992 C36.6008,29 37.7,29.1008 38.1008,29.1992 C38.4008,29.3 38.6,29.3 38.7992,29.3 C39.0992,29.3 39.2,29.4008 39.2,29.4992 C39.2,29.7008 39.0008,29.7992 38.6,29.7992 L36.0992,29.7992 C34.5992,29.7992 33.9008,29.6 33.2,29.3 C32.1008,28.5992 30.9992,27.3992 29.4992,25.2992 C28.4,23.7992 27.2,21.9992 26.7992,21.6008 C26.7008,21.3992 26.4992,21.3992 26.3,21.3992 L24.0008,21.3008 C23.9,21.3008 23.7992,21.3992 23.7992,21.5 L23.7992,21.9008 C23.7992,24.3992 23.7992,26.6 23.9,27.6992 C24.0008,28.5008 24.2,29.1008 24.9992,29.1992 C25.4,29.1992 26,29.3 26.3,29.3 C26.4992,29.3 26.6,29.4008 26.6,29.4992 C26.6,29.7008 26.4008,29.7992 26.1008,29.7992 C24.5,29.7992 22.5008,29.7008 22.1,29.7008 C21.6008,29.7008 19.8992,29.7992 18.8,29.7992 C18.5,29.7992 18.3008,29.7008 18.3008,29.4992 C18.3008,29.4008 18.3992,29.3 18.6992,29.3 C19.1,29.3 19.5008,29.1992 19.7,29.1992 C20.1992,29.1008 20.4008,28.5008 20.4992,27.6992 C20.6,26.6 20.6,24.3992 20.6,21.9008 L20.6,17.1992 Z" id="Fill-64" fill="#0093D0"></path>
                <path d="M56.1992,20.1008 C56.1992,14 52.7,10.2008 48.3008,10.2008 C45.2,10.2008 41.6,12.0008 41.6,18.6992 C41.6,24.3008 44.7008,28.8008 49.8992,28.8008 C51.8,28.8008 56.1992,27.9008 56.1992,20.1008 Z M37.8992,19.5008 C37.8992,14.9 40.8992,9.0008 49.1,9.0008 C55.8008,9.0008 60.0008,12.9008 60.0008,18.9992 C60.0008,25.2008 55.7,30.0992 48.8,30.0992 C41,30.0992 37.8992,24.3008 37.8992,19.5008 Z" id="Fill-65" fill="#0093D0"></path>
                <path d="M64.2992,29.4008 C63.9008,29.1992 63.8,29.1008 63.8,28.5008 C63.8,27.0008 63.9008,25.4 63.9008,24.9992 C63.9992,24.6008 63.9992,24.3008 64.2992,24.3008 C64.5008,24.3008 64.5008,24.5 64.5008,24.6992 C64.5008,25.1 64.5992,25.5992 64.8008,26.1008 C65.4008,28.1 66.9992,28.8008 68.6,28.8008 C71.1008,28.8008 72.3008,27.2 72.3008,25.8008 C72.3008,24.3992 71.9,23.1992 69.6008,21.3992 L68.4008,20.4992 C65.4008,18.0992 64.4,16.2008 64.4,14 C64.4,11.1008 66.9008,9.0008 70.5992,9.0008 C72.3992,9.0008 73.5008,9.2 74.1992,9.3992 C74.4008,9.5 74.6,9.5 74.6,9.6992 C74.6,10.1 74.4992,10.8992 74.4992,12.9992 C74.4992,13.5992 74.4008,13.8008 74.1992,13.8008 C74,13.8008 73.8992,13.5992 73.8992,13.2992 C73.8992,13.1 73.8008,12.2 73.2008,11.4992 C72.8,11 72.0008,10.2008 70.2992,10.2008 C68.1992,10.2008 67.1,11.4008 67.1,12.9992 C67.1,14.1992 67.5992,15.2 69.9008,16.8992 L70.7,17.4008 C73.8992,19.8992 75.0992,21.8 75.0992,24.3008 C75.0992,25.8992 74.4992,27.6992 72.6008,29 C71.1992,29.9 69.6992,30.0992 68.1992,30.0992 C66.6992,30.0992 65.4992,29.9 64.2992,29.4008" id="Fill-66" fill="#0093D0"></path>
                <path d="M81.5,17.1992 C81.5,13.1 81.5,12.3008 81.3992,11.4992 C81.3992,10.5008 81.0992,10.1 80.3,9.9008 C80,9.9008 79.5992,9.9008 79.2008,9.9008 C78.9008,9.9008 78.8,9.8 78.8,9.6008 C78.8,9.3992 78.9008,9.3992 79.2992,9.3992 C80.7992,9.3992 82.5008,9.3992 83.1992,9.3992 C84.3008,9.3992 85.8992,9.3992 87.0992,9.3992 C90.5,9.3992 91.8008,10.5008 92.1992,10.8992 C92.7992,11.4992 93.5,12.6992 93.5,14.1008 C93.6008,18.0008 90.6992,20.7008 86.9,20.7008 C86.7992,20.7008 86.4008,20.7008 86.3,20.6 C86.1992,20.6 86,20.6 86,20.4008 C86,20.1992 86.1992,20.1008 86.7992,20.1008 C88.2992,20.1008 90.3992,18.3992 90.3992,15.6008 C90.3992,14.7992 90.3008,12.9008 88.8008,11.6 C87.8,10.7 86.7008,10.5008 86.1008,10.5008 C85.7,10.5008 85.2992,10.5008 84.9992,10.5992 C84.9008,10.7 84.8,10.8008 84.8,11.1008 L84.8,21.9008 C84.8,24.3992 84.8,26.6 84.9008,27.6992 C84.9992,28.5008 85.2008,29.1008 86,29.1992 C86.4008,29.1992 86.9,29.3 87.3992,29.3 C87.6992,29.3 87.8,29.4008 87.8,29.4992 C87.8,29.7008 87.6008,29.7992 87.3008,29.7992 C85.5008,29.7992 83.7992,29.7008 83.1008,29.7008 C82.5008,29.7008 80.7992,29.7992 79.7,29.7992 C79.2992,29.7992 79.2008,29.7008 79.2008,29.4992 C79.2008,29.4008 79.2992,29.3 79.5992,29.3 C80,29.3 80.3,29.1992 80.4992,29.1992 C81.0992,29.1008 81.2,28.5008 81.3008,27.6992 C81.5,26.6 81.5,24.3992 81.5,21.9008 L81.5,17.1992" id="Fill-67" fill="#0093D0"></path>
                <path d="M99.0992,17.1992 C99.0992,13.1 99.0992,12.3008 99.0992,11.4008 C99.0008,10.5008 98.7992,10.1 97.8992,9.9008 C97.7,9.9008 97.2008,9.8 96.9008,9.8 C96.6008,9.8 96.3992,9.8 96.3992,9.6008 C96.3992,9.3992 96.6008,9.3008 96.9992,9.3008 C97.7,9.3008 98.4992,9.3992 99.2,9.3992 C99.9008,9.3992 100.5008,9.3992 100.8992,9.3992 C101.7008,9.3992 107.1008,9.3992 107.6,9.3992 C108.2,9.3008 108.6008,9.3008 108.8,9.2 C108.9008,9.2 109.1,9.0992 109.2008,9.0992 C109.4,9.0992 109.4,9.2 109.4,9.3992 C109.4,9.6008 109.2992,9.9008 109.2008,11.1008 C109.1,11.4008 109.1,12.6008 108.9992,12.9008 C108.9992,12.9992 108.9992,13.2008 108.8,13.2008 C108.6008,13.2008 108.5,13.1 108.5,12.8 C108.5,12.6008 108.5,12.2 108.3992,11.9 C108.2,11.4008 107.9,11 106.5992,10.8992 C106.1,10.8008 103.2992,10.8008 102.6992,10.8008 C102.6008,10.8008 102.5,10.8008 102.5,11 L102.5,17.9 C102.5,18.0008 102.5,18.2 102.6992,18.2 C103.2992,18.2 106.4,18.2 107,18.0992 C107.7008,18.0008 108.0992,18.0008 108.3992,17.7008 C108.5,17.4992 108.6008,17.3 108.8,17.3 C108.9008,17.3 108.9992,17.4008 108.9992,17.6 C108.9992,17.7008 108.9008,18.2 108.6992,19.5008 C108.6992,20.1008 108.6008,21.2 108.6008,21.3992 C108.6008,21.6008 108.6008,21.9008 108.3992,21.9008 C108.2,21.9008 108.2,21.8 108.2,21.6008 C108.0992,21.3992 108.0992,21.0008 108.0008,20.7008 C107.9,20.1008 107.4992,19.7 106.5008,19.5992 C105.9992,19.5008 103.4,19.5008 102.6992,19.5008 C102.5,19.5008 102.5,19.5992 102.5,19.8008 L102.5,21.9008 C102.5,22.8008 102.5,25.2992 102.5,26.1008 C102.6008,27.9992 102.9992,28.4 105.8,28.4 C106.5008,28.4 107.6,28.4 108.3008,27.9992 C108.9992,27.6992 109.2992,27.2 109.5008,26.1008 C109.5992,25.8008 109.5992,25.5992 109.8008,25.5992 C110.1008,25.5992 110.1008,25.8992 110.1008,26.1008 C110.1008,26.7008 109.8008,28.5992 109.7,29.1008 C109.5008,29.7992 109.2992,29.7992 108.2,29.7992 C106.2008,29.7992 104.7008,29.7992 103.5992,29.7008 C102.3992,29.7008 101.4992,29.7008 100.8008,29.7008 C100.4,29.7008 99.8,29.7008 99.2,29.7008 C98.6,29.7008 97.8992,29.7008 97.4,29.7008 C96.9992,29.7008 96.8,29.7008 96.8,29.4992 C96.8,29.4008 96.9008,29.3 97.2008,29.3 C97.5992,29.3 98,29.1992 98.1992,29.1992 C98.7008,29 98.9,28.4 99.0008,27.6992 C99.0992,26.4992 99.0992,24.3992 99.0992,21.9008 L99.0992,17.1992" id="Fill-68" fill="#0093D0"></path>
                <path d="M119.3,19.2992 C119.3,19.5992 119.4008,19.7 119.4992,19.8008 C120.0992,20 120.9008,20.1008 121.5992,20.1008 C122.7008,20.1008 123.0008,20 123.5,19.5992 C124.2992,18.9992 125.1008,17.7992 125.1008,15.6008 C125.1008,11.7008 122.6,10.5992 120.9992,10.5992 C120.3008,10.5992 119.7992,10.5992 119.4992,10.7 C119.4008,10.8008 119.3,10.8992 119.3,11.1008 L119.3,19.2992 Z M116.1008,17.1992 C116.1008,13.1 116.1008,12.3008 116.1008,11.4992 C116,10.5008 115.8008,10.1 114.9008,9.9008 C114.6992,9.9008 114.2,9.9008 113.9,9.9008 C113.6,9.9008 113.4008,9.8 113.4008,9.6008 C113.4008,9.3992 113.6,9.3992 114.0008,9.3992 C115.4,9.3992 117.0992,9.3992 117.6992,9.3992 C118.5992,9.3992 120.6992,9.3992 121.5008,9.3992 C123.2,9.3992 125,9.5 126.5,10.5008 C127.2008,11 128.3,12.3992 128.3,14.1992 C128.3,16.2008 127.5008,18.0992 124.8008,20.3 C127.1,23.3 129.0008,25.7 130.5992,27.3992 C132.0992,29 133.2008,29.1008 133.5992,29.1992 C133.8992,29.3 134.1992,29.3 134.4008,29.3 C134.6,29.3 134.7008,29.4008 134.7008,29.4992 C134.7008,29.7008 134.4992,29.7992 134.1992,29.7992 L131.6,29.7992 C130.1,29.7992 129.3992,29.6 128.7008,29.3 C127.5992,28.5992 126.5,27.3992 125,25.2992 C123.9008,23.7992 122.7008,21.9992 122.4008,21.6008 C122.1992,21.3992 122.1008,21.3992 121.8992,21.3992 L119.4992,21.3008 C119.4008,21.3008 119.3,21.3992 119.3,21.5 L119.3,21.9008 C119.3,24.3992 119.3,26.6 119.4008,27.6992 C119.4992,28.5008 119.7008,29.1008 120.5,29.1992 C120.9008,29.1992 121.5008,29.3 121.8008,29.3 C122,29.3 122.1992,29.4008 122.1992,29.4992 C122.1992,29.7008 122,29.7992 121.5992,29.7992 C120.0008,29.7992 117.9992,29.7008 117.6008,29.7008 C117.0992,29.7008 115.4,29.7992 114.3992,29.7992 C114.0008,29.7992 113.7992,29.7008 113.7992,29.4992 C113.7992,29.4008 113.9,29.3 114.2,29.3 C114.6008,29.3 114.9992,29.1992 115.2008,29.1992 C115.7,29.1008 115.8992,28.5008 116,27.6992 C116.1008,26.6 116.1008,24.3992 116.1008,21.9008 L116.1008,17.1992 Z" id="Fill-69" fill="#0093D0"></path>
                <path d="M135.2,17.1992 C135.2,13.1 135.2,12.3008 135.0992,11.4992 C135.0992,10.5008 134.9,10.1 134,9.9008 C133.7,9.9008 133.2992,9.9008 132.9008,9.9008 C132.6008,9.9008 132.5,9.8 132.5,9.6008 C132.5,9.3992 132.6008,9.3992 132.9992,9.3992 C134.4992,9.3992 136.2008,9.3992 137,9.3992 C137.6,9.3992 139.2992,9.3992 140.3,9.3992 C140.7008,9.3992 140.9,9.3992 140.9,9.6008 C140.9,9.8 140.7008,9.9008 140.4992,9.9008 C140.1992,9.9008 140,9.9008 139.7,9.9008 C138.9992,9.9992 138.6992,10.5008 138.6992,11.4992 C138.6008,12.3008 138.6008,13.1 138.6008,17.1992 L138.6008,21.0008 C138.6008,24.9008 139.4,26.4992 140.7008,27.6008 C141.9008,28.5992 143.1992,28.7 144.0992,28.7 C145.2992,28.7 146.7992,28.4 147.8,27.3008 C149.3,25.8008 149.4008,23.3 149.4008,20.6 L149.4008,17.1992 C149.4008,13.1 149.4008,12.3008 149.4008,11.4992 C149.3,10.5008 149.1008,10.1 148.2008,9.9008 C147.9992,9.9008 147.5,9.9008 147.2,9.9008 C146.9,9.9008 146.7992,9.8 146.7992,9.6008 C146.7992,9.3992 147.0008,9.3992 147.3008,9.3992 C148.7,9.3992 150.3992,9.3992 150.3992,9.3992 C150.8,9.3992 152.4992,9.3992 153.5,9.3992 C153.9008,9.3992 154.1,9.3992 154.1,9.6008 C154.1,9.8 153.9008,9.9008 153.6008,9.9008 C153.3008,9.9008 153.0992,9.9008 152.7992,9.9008 C152.1008,9.9992 151.8992,10.5008 151.8008,11.4992 C151.7,12.3008 151.7,13.1 151.7,17.1992 L151.7,20.1008 C151.7,23.1008 151.5008,26.3 149.1992,28.2008 C147.3008,29.9 145.2992,30.0992 143.6,30.0992 C142.1,30.0992 139.5008,30.0992 137.6,28.2992 C136.2008,27.0992 135.2,25.1 135.2,21.0992 L135.2,17.1992" id="Fill-70" fill="#0093D0"></path>
                <path d="M157.8008,29.4008 C157.4,29.1992 157.2992,29.1008 157.2992,28.5008 C157.2992,27.0008 157.4,25.4 157.4,24.9992 C157.4,24.6008 157.5008,24.3008 157.8008,24.3008 C158,24.3008 158,24.5 158,24.6992 C158,25.1 158.1008,25.5992 158.3,26.1008 C158.9,28.1 160.5008,28.8008 162.0992,28.8008 C164.6,28.8008 165.8,27.2 165.8,25.8008 C165.8,24.3992 165.3992,23.1992 163.1,21.3992 L161.7992,20.4992 C158.9,18.0992 157.8008,16.2008 157.8008,14 C157.8008,11.1008 160.2992,9.0008 164.1008,9.0008 C165.9008,9.0008 167,9.2 167.7008,9.3992 C167.9,9.5 168.0992,9.5 168.0992,9.6992 C168.0992,10.1 168.0008,10.8992 168.0008,12.9992 C168.0008,13.5992 167.9,13.8008 167.7008,13.8008 C167.4992,13.8008 167.4008,13.5992 167.4008,13.2992 C167.4008,13.1 167.3,12.2 166.7,11.4992 C166.2992,11 165.5,10.2008 163.8008,10.2008 C161.7008,10.2008 160.5008,11.4008 160.5008,12.9992 C160.5008,14.1992 161.1008,15.2 163.4,16.8992 L164.1992,17.4008 C167.4008,19.8992 168.6008,21.8 168.6008,24.3008 C168.6008,25.8992 168.0008,27.6992 165.9992,29 C164.7008,29.9 163.2008,30.0992 161.7008,30.0992 C160.2008,30.0992 158.9,29.9 157.8008,29.4008" id="Fill-71" fill="#0093D0"></path>
                <path d="M184.1,42.5 L175.1,42.5 C183.9008,34.2992 188.1008,24.0992 183.8,12.6992 C189.9008,24.8 189.0008,33.9992 184.1,42.5" id="Fill-72" fill="#63B2DF"></path>
                <path d="M171.0992,42.5 L152,42.5 C166.8992,41 178.8992,34.5008 180.6992,20.7992 C180.5,30.9008 176.7992,37.7 171.0992,42.5" id="Fill-73" fill="#B0D4EE"></path>
                <path d="M180.3008,0.3992 C194.1008,14.6 195.9008,28.5992 188.4992,42.6008 L200.6,42.6008 C201.9008,26.1008 194.7992,12.0992 180.5,0.2 L180.3008,0.3992" id="Fill-74" fill="#0093D0"></path>
                <path d="M3.3992,40.4 C3.3992,41 3.3992,41.4992 3.5,41.7992 C3.5,42.0008 3.5,42.0992 3.6992,42.2 L3.9992,42.2 L4.1,42.3008 C4.1,42.3008 4.1,42.3008 3.9992,42.3008 C3.6008,42.3008 3.2,42.3008 3.0008,42.3008 C2.9,42.3008 2.4008,42.3008 2.1992,42.3008 L2.1008,42.3008 L2.1992,42.2 C2.3,42.2 2.3,42.2 2.4008,42.2 C2.4992,42.0992 2.4992,42.0008 2.6,41.7992 C2.6,41.4992 2.6,41 2.6,40.4 L2.6,39.3008 C2.6,38.3 2.6,38.1008 2.6,37.8992 C2.6,37.7 2.4992,37.5992 2.3,37.5008 L2.1008,37.5008 L2,37.5008 C2,37.4 2,37.4 2.1008,37.4 C2.3,37.4 2.4008,37.4 2.6,37.4 C2.7992,37.4 3.0008,37.4 3.0008,37.4 C3.3008,37.4 4.5992,37.4 4.8008,37.4 C4.8992,37.4 5,37.4 5,37.4 L5.1008,37.4 L5.1992,37.4 C5.1992,37.5008 5.1008,37.5008 5.1008,37.7 L5.1008,38.1992 L5,38.3 L5,38.1992 L4.8992,38 C4.8992,37.8992 4.7,37.8008 4.5008,37.8008 L3.5,37.8008 L3.3992,37.8992 L3.3992,39.5 L3.5,39.5 L4.2992,39.5 C4.4,39.5 4.5008,39.5 4.5992,39.5 C4.7,39.5 4.8008,39.5 4.8992,39.3992 L5,39.3008 L5,39.3992 C5,39.3992 5,39.6008 5,39.8 C4.8992,39.9008 4.8992,40.2008 4.8992,40.2992 L4.8992,40.4 L4.8008,40.2992 L4.8008,40.1 C4.7,39.9992 4.7,39.9008 4.5008,39.9008 C4.2992,39.8 3.6008,39.8 3.5,39.8 L3.3992,39.9008 L3.3992,40.4" id="Fill-75" fill="#838587"></path>
                <path d="M11,39.9992 C11,38.4992 10.1,37.5992 9.0008,37.5992 C8.3,37.5992 7.4,38 7.4,39.6008 C7.4,41 8.1992,42.0008 9.3992,42.0008 C9.9008,42.0008 11,41.7992 11,39.9992 Z M6.6008,39.8 C6.6008,38.7008 7.2992,37.2992 9.2,37.2992 C10.8008,37.2992 11.7992,38.1992 11.7992,39.6992 C11.7992,41.1992 10.8008,42.3992 9.2,42.3992 C7.2992,42.3992 6.6008,41 6.6008,39.8 Z" id="Fill-76" fill="#838587"></path>
                <path d="M14.1008,41.4008 C14.1008,41.9 14.1992,42.0992 14.4008,42.2 C14.4008,42.2 14.6,42.2 14.7008,42.2 L14.7992,42.3008 L14.6,42.3008 C14.1992,42.3008 14,42.3008 13.8008,42.3008 C13.8008,42.3008 13.5008,42.3008 13.2008,42.3008 L12.9992,42.3008 L13.1,42.2 L13.4,42.2 C13.5992,42.0992 13.5992,41.9 13.5992,41.4008 L13.5992,37.5008 C13.5992,37.4 13.7,37.2992 13.7,37.2992 C13.8008,37.2992 13.8992,37.4 14,37.5008 C14,37.5992 15.0008,38.7008 15.9992,39.6008 C16.4,39.9992 17.3,40.8992 17.4008,41.1008 L17.4008,38.1008 C17.4008,37.7 17.3,37.5992 17.1992,37.5992 C17,37.5008 16.8992,37.5008 16.8008,37.5008 L16.7,37.5008 C16.7,37.4 16.8008,37.4 16.8992,37.4 C17.1992,37.4 17.4992,37.4 17.6,37.4 C17.7008,37.4 18.0008,37.4 18.3008,37.4 L18.3992,37.5008 L18.3008,37.5008 L18.0992,37.5008 C17.9,37.5992 17.9,37.7 17.9,38.1008 L17.7992,42.2 C17.7992,42.3008 17.7992,42.3992 17.7008,42.3992 L17.4992,42.3008 C17.1008,41.9 16.2992,41 15.6008,40.4 C14.9,39.6008 14.1992,38.7992 14.1008,38.7008 L14,38.7008 L14.1008,41.4008" id="Fill-77" fill="#838587"></path>
                <path d="M21.3008,39.9992 C21.3008,40.7 21.3008,41.1992 21.3008,41.3 C21.3008,41.4992 21.3008,41.7008 21.3992,41.7992 C21.3992,41.9 21.6992,42.0992 22.2008,42.0992 C22.8992,42.0992 23.3,41.9 23.7008,41.6 C24.0992,41.3 24.2,40.7 24.2,39.9992 C24.2,39.2 23.9,38.6 23.6,38.4008 C23,37.8008 22.2992,37.7 21.8,37.7 C21.6992,37.7 21.3992,37.7 21.3992,37.8008 L21.3008,37.8992 C21.3008,38.1008 21.3008,38.7008 21.3008,39.2 L21.3008,39.9992 Z M20.4008,39.3008 C20.4008,38.3 20.4008,38.1008 20.4008,37.8992 C20.4008,37.7 20.4008,37.5992 20.1992,37.5008 L19.8992,37.5008 L19.8008,37.5008 C19.8008,37.4 19.8992,37.4 20,37.4 C20.3,37.4 20.7008,37.4 20.9,37.4 C21.0992,37.4 21.5,37.4 21.9008,37.4 C22.7,37.4 23.7992,37.4 24.5,38.1008 C24.8,38.4992 25.1,39.0008 25.1,39.8 C25.1,40.5992 24.8,41.3 24.3992,41.6 C24.0992,41.9 23.4008,42.3992 22.2008,42.3992 C21.9992,42.3992 21.8,42.3992 21.5,42.3008 C21.2,42.3008 21.0008,42.3008 20.7992,42.3008 C20.7992,42.3008 20.6,42.3008 20.4992,42.3008 C20.3,42.3008 20.1992,42.3008 20,42.3008 L19.8992,42.3008 L20,42.2 C20.1008,42.2 20.1992,42.2 20.3,42.2 C20.4008,42.2 20.4008,42.0008 20.4008,41.7992 C20.4008,41.6 20.4008,41 20.4008,40.4 L20.4008,39.3008 Z" id="Fill-78" fill="#838587"></path>
                <path d="M31.7,41.9 C32.4008,41.9 32.6,41.7992 32.7008,41.6 C32.7992,41.4992 32.7992,41.4008 32.7992,41.3 L32.9,41.1992 C32.9,41.1992 32.9,41.1992 32.9,41.4008 C32.9,41.6 32.9,42.0008 32.7992,42.2 C32.7992,42.3008 32.7992,42.3008 32.6,42.3008 C31.5008,42.3008 30.5,42.3008 29.1008,42.3008 L29,42.2 C29,42.2 29,42.0992 29.1008,42.0008 C30.0992,40.5992 30.9992,39.0992 31.8992,37.8008 L30.6008,37.8008 C30.3008,37.8008 29.9,37.8008 29.7008,37.8992 C29.4008,38 29.3,38.3 29.3,38.4008 L29.1992,38.4992 L29.1992,38.4008 C29.1992,38.3 29.3,37.7 29.3,37.5008 L29.4008,37.4 C29.4008,37.4 29.4992,37.4 29.6,37.4 C30.3008,37.4 30.6008,37.4 30.9008,37.4 L32.7992,37.4 L32.9,37.5008 L32.9,37.5992 C32,39.0992 30.9992,40.5008 30.0992,41.9 L31.7,41.9" id="Fill-79" fill="#838587"></path>
                <path d="M36.3992,40.2992 L35.7992,38.7008 L35.7992,38.6 L35.7008,38.7008 L35.1008,40.2992 L35.1992,40.2992 L36.3992,40.2992 Z M35,40.5992 L35,40.7 L34.5992,41.6 C34.5992,41.7992 34.5008,41.9 34.5008,42.0008 C34.5008,42.0992 34.5992,42.2 34.8008,42.2 L34.8992,42.2 L35,42.3008 L34.8008,42.3008 C34.7,42.3008 34.4,42.3008 34.2008,42.3008 C34.1,42.3008 33.8,42.3008 33.3992,42.3008 L33.3008,42.3008 L33.3992,42.2 L33.6008,42.2 C33.9008,42.2 33.9992,41.9 34.1,41.6 L35.7008,37.5008 C35.7992,37.2992 35.7992,37.2992 35.9,37.2992 C36.0008,37.2992 36.0008,37.2992 36.0992,37.5008 C36.3008,37.8008 37.2992,40.5008 37.7,41.4992 C37.8992,42.0992 38.1008,42.0992 38.3,42.2 C38.4008,42.2 38.4008,42.2 38.4992,42.2 L38.6,42.3008 C38.6,42.3008 38.6,42.3008 38.3,42.3008 C38.1008,42.3008 37.5992,42.3008 37.1,42.3008 C36.9992,42.3008 36.9008,42.3008 36.9008,42.3008 L36.9992,42.2 L37.1,42.0992 L36.5,40.7 L36.5,40.5992 L35,40.5992 Z" id="Fill-80" fill="#838587"></path>
                <path d="M46.4,41.7992 C46.4,42.0008 46.4,42.0008 46.2992,42.0992 C45.9008,42.3008 45.3008,42.3992 44.7992,42.3992 C43.2008,42.3992 41.7992,41.6 41.7992,39.8 C41.7992,38.7992 42.3008,38.1008 42.9008,37.7 C43.5992,37.2992 44.1008,37.2992 44.7008,37.2992 C45.0992,37.2992 45.6992,37.4 45.8,37.4 C45.9008,37.4 46.2008,37.5008 46.2992,37.5008 L46.4,37.5008 C46.4,37.5992 46.4,37.8008 46.4,38.6 C46.4,38.7008 46.2992,38.7008 46.2992,38.7008 L46.2008,38.7008 C46.2008,38.4992 46.2008,38.3 45.9992,38.1008 C45.8,37.8992 45.3008,37.5992 44.4992,37.5992 C44.1992,37.5992 43.7,37.7 43.2992,38 C42.9008,38.3 42.6992,38.7992 42.6992,39.6008 C42.6992,41 43.5992,42.0008 44.9,42.0008 C45.0992,42.0008 45.3008,42.0008 45.5,42.0008 C45.6008,41.9 45.6008,41.7992 45.6008,41.7008 L45.6008,41.1008 C45.6008,40.8008 45.6008,40.5008 45.6008,40.4 C45.6008,40.2008 45.5,39.9992 45.3008,39.9992 L45.0992,39.9992 L45.0008,39.9008 L45.0992,39.9008 C45.3992,39.9008 45.8,39.9008 45.9992,39.9008 C46.2008,39.9008 46.5992,39.9008 46.8008,39.9008 L46.8992,39.9008 L46.8008,39.9992 L46.7,39.9992 C46.5008,39.9992 46.4,40.2008 46.4,40.4 C46.4,40.5008 46.4,40.8008 46.4,41.1008 L46.4,41.7992" id="Fill-81" fill="#838587"></path>
                <path d="M52.5008,39.9992 C52.5008,38.4992 51.6008,37.5992 50.6,37.5992 C49.8008,37.5992 48.9992,38 48.9992,39.6008 C48.9992,41 49.8008,42.0008 51.0008,42.0008 C51.3992,42.0008 52.5008,41.7992 52.5008,39.9992 Z M48.0992,39.8 C48.0992,38.7008 48.8,37.2992 50.7992,37.2992 C52.4,37.2992 53.4008,38.1992 53.4008,39.6992 C53.4008,41.1992 52.4,42.3992 50.7008,42.3992 C48.9008,42.3992 48.0992,41 48.0992,39.8 Z" id="Fill-82" fill="#838587"></path>
                <path d="M54.9992,42.2 C54.9008,42.0992 54.9008,42.0992 54.9008,42.0008 C54.9008,41.6 54.9008,41.1992 54.9008,41.1008 C54.9008,41 54.9992,41 54.9992,41 L55.1,41.1008 C55.1,41.1008 55.1,41.3 55.1,41.4008 C55.2992,41.9 55.7,42.0992 56.1008,42.0992 C56.6,42.0992 56.9,41.7008 56.9,41.3 C56.9,41 56.7992,40.7 56.3,40.2992 L56,40.1 C55.2992,39.5 54.9992,39.0008 54.9992,38.4992 C54.9992,37.8008 55.5992,37.2992 56.4992,37.2992 C57.0008,37.2992 57.2,37.4 57.3992,37.4 L57.5,37.5008 C57.5,37.5992 57.5,37.8008 57.5,38.3 C57.5,38.4008 57.3992,38.4992 57.3992,38.4992 L57.3008,38.3 C57.3008,38.3 57.3008,38.1008 57.2,37.8992 C57.0992,37.8008 56.9,37.5992 56.4992,37.5992 C56,37.5992 55.7,37.8992 55.7,38.3 C55.7,38.6 55.8008,38.7992 56.4008,39.2 L56.6,39.3008 C57.3008,39.9008 57.6008,40.4 57.6008,41 C57.6008,41.3 57.5,41.7992 57.0008,42.0992 C56.7008,42.3008 56.3,42.3992 56,42.3992 C55.5992,42.3992 55.2992,42.3008 54.9992,42.2" id="Fill-83" fill="#838587"></path>
                <path d="M59.7992,39.3008 C59.7992,38.3 59.7992,38.1008 59.7992,37.8992 C59.7008,37.7 59.7008,37.5992 59.4992,37.5008 L59.1992,37.5008 L59.1008,37.5008 C59.1008,37.4 59.1992,37.4 59.3,37.4 C59.6,37.4 60.0008,37.4 60.2,37.4 C60.5,37.4 60.8,37.4 61.2008,37.4 C62,37.4 62.3,37.7 62.4008,37.8008 C62.4992,37.8992 62.7008,38.1992 62.7008,38.4992 C62.7008,39.5 62,40.1 61.1,40.1 L60.9992,40.1 L60.9008,40.1 C60.9008,39.9992 60.9008,39.9992 60.9992,39.9992 C61.4,39.9992 61.8992,39.6008 61.8992,38.9 C61.8992,38.7008 61.8992,38.3 61.5008,37.8992 C61.2992,37.7 60.9992,37.7 60.9008,37.7 C60.8,37.7 60.6992,37.7 60.6008,37.7 L60.6008,37.8008 L60.6008,40.4 C60.6008,41 60.6008,41.6 60.6008,41.7992 C60.6008,42.0008 60.6992,42.2 60.9008,42.2 C60.9992,42.2 61.1,42.2 61.2008,42.2 L61.2992,42.3008 L61.2008,42.3008 C60.8,42.3008 60.3992,42.3008 60.2,42.3008 C60.0008,42.3008 59.6,42.3008 59.3,42.3008 L59.1992,42.3008 L59.3,42.2 C59.4008,42.2 59.4992,42.2 59.6,42.2 C59.7008,42.2 59.7008,42.0008 59.7008,41.7992 C59.7992,41.6 59.7992,41 59.7992,40.4 L59.7992,39.3008" id="Fill-84" fill="#838587"></path>
                <path d="M68.3,39.9992 C68.3,38.4992 67.4,37.5992 66.3992,37.5992 C65.7008,37.5992 64.8008,38 64.8008,39.6008 C64.8008,41 65.6,42.0008 66.8,42.0008 C67.2008,42.0008 68.3,41.7992 68.3,39.9992 Z M63.9008,39.8 C63.9008,38.7008 64.5992,37.2992 66.6008,37.2992 C68.1992,37.2992 69.2,38.1992 69.2,39.6992 C69.2,41.1992 68.1992,42.3992 66.5,42.3992 C64.7,42.3992 63.9008,41 63.9008,39.8 Z" id="Fill-85" fill="#838587"></path>
                <path d="M72.0008,39.9992 C72.0008,40.7 72.0008,41.1992 72.0008,41.3 C72.0008,41.4992 72.0008,41.7008 72.0992,41.7992 C72.0992,41.9 72.3992,42.0992 72.9008,42.0992 C73.5008,42.0992 74,41.9 74.4008,41.6 C74.7992,41.3 74.9,40.7 74.9,39.9992 C74.9,39.2 74.6,38.6 74.3,38.4008 C73.7,37.8008 72.9992,37.7 72.5,37.7 C72.3992,37.7 72.0992,37.7 72.0992,37.8008 L72.0008,37.8992 C72.0008,38.1008 72.0008,38.7008 72.0008,39.2 L72.0008,39.9992 Z M71.1008,39.3008 C71.1008,38.3 71.1008,38.1008 71.1008,37.8992 C71.1008,37.7 71.1008,37.5992 70.8008,37.5008 L70.5992,37.5008 L70.5008,37.5008 C70.5008,37.4 70.5008,37.4 70.5992,37.4 C71,37.4 71.4008,37.4 71.6,37.4 C71.7992,37.4 72.2,37.4 72.6008,37.4 C73.4,37.4 74.4992,37.4 75.2,38.1008 C75.5,38.4992 75.8,39.0008 75.8,39.8 C75.8,40.5992 75.3992,41.3 75.0992,41.6 C74.7992,41.9 74.1008,42.3992 72.9008,42.3992 C72.6992,42.3992 72.3992,42.3992 72.2,42.3008 C71.9,42.3008 71.7008,42.3008 71.4992,42.3008 C71.4008,42.3008 71.3,42.3008 71.1992,42.3008 C71,42.3008 70.8008,42.3008 70.7,42.3008 L70.5992,42.3008 L70.7,42.2 C70.8008,42.2 70.8992,42.2 70.8992,42.2 C71,42.2 71.1008,42.0008 71.1008,41.7992 C71.1008,41.6 71.1008,41 71.1008,40.4 L71.1008,39.3008 Z" id="Fill-86" fill="#838587"></path>
                <path d="M79.4,40.2992 L78.8,38.7008 L78.8,38.6 L78.6992,38.7008 L78.0992,40.2992 L78.2,40.2992 L79.4,40.2992 Z M78.0008,40.5992 L78.0008,40.7 L77.6,41.6 C77.6,41.7992 77.4992,41.9 77.4992,42.0008 C77.4992,42.0992 77.6,42.2 77.7992,42.2 L77.9,42.2 L78.0008,42.3008 L77.9,42.3008 C77.7008,42.3008 77.4008,42.3008 77.1992,42.3008 C77.1008,42.3008 76.8008,42.3008 76.4,42.3008 L76.2992,42.3008 L76.4,42.2 L76.5992,42.2 C76.8992,42.2 77,41.9 77.1008,41.6 L78.6992,37.5008 C78.8,37.2992 78.8,37.2992 78.9008,37.2992 C78.9992,37.2992 78.9992,37.2992 79.1,37.5008 C79.2992,37.8008 80.3,40.5008 80.7008,41.4992 C80.9,42.0992 81.0992,42.0992 81.3008,42.2 L81.5,42.2 L81.6008,42.3008 C81.6008,42.3008 81.6008,42.3008 81.3008,42.3008 C81.0992,42.3008 80.6,42.3008 80.1008,42.3008 C80,42.3008 79.8992,42.3008 79.8992,42.3008 L80,42.2 L80.1008,42.0992 L79.5992,40.7 L79.5008,40.5992 L78.0008,40.5992 Z" id="Fill-87" fill="#838587"></path>
                <path d="M83.7008,39.8 L83.7008,39.9008 C83.9,39.9992 84.0992,39.9992 84.2,39.9992 C84.5,39.9992 84.5,39.9992 84.6992,39.9008 C84.9008,39.6992 85.1,39.3992 85.1,38.9 C85.1,38 84.3992,37.7 84.0992,37.7 C83.9,37.7 83.7992,37.7 83.7008,37.7 L83.7008,37.8008 L83.7008,39.8 Z M82.8992,39.3008 C82.8992,38.3 82.8992,38.1008 82.8992,37.8992 C82.8992,37.7 82.8008,37.5992 82.5992,37.5008 L82.4,37.5008 L82.2992,37.5008 C82.2992,37.4 82.2992,37.4 82.4,37.4 C82.7,37.4 83.1992,37.4 83.3,37.4 C83.4992,37.4 84.0008,37.4 84.2,37.4 C84.6008,37.4 85.1,37.5008 85.4,37.7 C85.5992,37.8008 85.8008,38.1008 85.8008,38.6 C85.8008,39.0992 85.5992,39.5 84.9992,39.9992 C85.5992,40.7 86,41.3 86.4008,41.7008 C86.7008,42.0992 87.0008,42.2 87.0992,42.2 L87.3008,42.2 L87.3008,42.3008 L87.2,42.3008 L86.6,42.3008 C86.1992,42.3008 86.1008,42.3008 85.8992,42.2 C85.5992,42.0992 85.4,41.7008 85.1,41.3 C84.8,40.8992 84.5,40.4 84.3992,40.4 L84.3008,40.2992 L83.7008,40.2992 L83.7008,40.4 C83.7008,41 83.7008,41.6 83.7008,41.7992 C83.7008,42.0008 83.7008,42.2 83.9,42.2 C84.0008,42.2 84.2,42.2 84.3008,42.2 L84.3008,42.3008 L84.2,42.3008 C83.7992,42.3008 83.3,42.3008 83.3,42.3008 C83.1992,42.3008 82.7,42.3008 82.5008,42.3008 L82.4,42.3008 L82.4,42.2 C82.5992,42.2 82.5992,42.2 82.7,42.2 C82.8008,42.2 82.8008,42.0008 82.8992,41.7992 C82.8992,41.6 82.8992,41 82.8992,40.4 L82.8992,39.3008 Z" id="Fill-88" fill="#838587"></path>
                <path d="M87.9008,42.2 C87.8,42.0992 87.8,42.0992 87.8,42.0008 C87.8,41.6 87.8,41.1992 87.9008,41.1008 C87.9008,41 87.9008,41 87.9008,41 L87.9992,41.1008 C87.9992,41.1008 87.9992,41.3 88.1,41.4008 C88.2008,41.9 88.5992,42.0992 89,42.0992 C89.6,42.0992 89.7992,41.7008 89.7992,41.3 C89.7992,41 89.7992,40.7 89.1992,40.2992 L88.8992,40.1 C88.2008,39.5 87.9008,39.0008 87.9008,38.4992 C87.9008,37.8008 88.5008,37.2992 89.4992,37.2992 C89.9,37.2992 90.2,37.4 90.3008,37.4 L90.3992,37.5008 C90.3992,37.5992 90.3992,37.8008 90.3992,38.3 C90.3992,38.4008 90.3992,38.4992 90.3008,38.4992 L90.2,38.3 C90.2,38.3 90.2,38.1008 90.0992,37.8992 C90.0008,37.8008 89.7992,37.5992 89.4008,37.5992 C88.8992,37.5992 88.5992,37.8992 88.5992,38.3 C88.5992,38.6 88.7,38.7992 89.3,39.2 L89.4992,39.3008 C90.2,39.9008 90.5,40.4 90.5,41 C90.5,41.3 90.3992,41.7992 89.9,42.0992 C89.6,42.3008 89.1992,42.3992 88.8992,42.3992 C88.5008,42.3992 88.2008,42.3008 87.9008,42.2" id="Fill-89" fill="#838587"></path>
                <path d="M93.3992,39.6008 L93.5,39.6008 C93.6992,39.3992 94.7,38.4008 94.8008,38.1008 C95,37.8992 95.1992,37.8008 95.1992,37.7 L95.1008,37.5008 L95,37.5008 L95.1008,37.4 C95.1992,37.4 95.6,37.4 95.7008,37.4 C95.9,37.4 96.3008,37.4 96.5,37.4 L96.6008,37.5008 L96.5,37.5008 C96.3992,37.5008 96.2,37.5992 96.0992,37.5992 C95.9,37.7 95.7008,37.8008 95.4992,38.1008 C95.3,38.3 94.2992,39.3008 93.9992,39.5 C94.2992,39.8 95.4992,41.1992 95.7992,41.4008 C96.0992,41.7008 96.3992,42.0008 96.6992,42.0992 C96.9008,42.2 96.9992,42.2 97.1,42.2 L97.2008,42.3008 C97.2008,42.3008 97.2008,42.3008 96.9992,42.3008 L96.5,42.3008 C96.3008,42.3008 96.2,42.3008 96.0008,42.3008 C95.7008,42.3008 95.4992,42.0992 95.3,41.9 C95,41.6 93.6992,40.1 93.6008,39.9992 L93.5,39.8 L93.3992,39.8 L93.3992,40.4 C93.3992,41 93.3992,41.6 93.5,41.7992 C93.5,42.0008 93.5,42.2 93.6992,42.2 L93.9992,42.2 L94.1,42.3008 L93.9992,42.3008 C93.6008,42.3008 93.2,42.3008 93.0008,42.3008 C92.9,42.3008 92.4992,42.3008 92.1992,42.3008 L92.1008,42.3008 L92.1992,42.2 C92.3,42.2 92.4008,42.2 92.4008,42.2 C92.6,42.2 92.6,42.0008 92.6,41.7992 C92.6,41.6 92.6,41 92.6,40.4 L92.6,39.3008 C92.6,38.3 92.6,38.1008 92.6,37.8992 C92.6,37.7 92.6,37.5992 92.4008,37.5008 L92.1008,37.5008 L92,37.5008 C92,37.4 92.1008,37.4 92.1008,37.4 C92.4992,37.4 92.9,37.4 93.0008,37.4 C93.2,37.4 93.6008,37.4 93.8,37.4 L93.9992,37.5008 L93.9008,37.5008 L93.6992,37.5008 C93.5,37.5992 93.5,37.7 93.3992,37.8992 C93.3992,38.1008 93.3992,38.3 93.3992,39.3008 L93.3992,39.6008" id="Fill-90" fill="#838587"></path>
                <path d="M97.8992,39.3008 C97.8992,38.3 97.8992,38.1008 97.8992,37.8992 C97.8992,37.7 97.8992,37.5992 97.7,37.5008 L97.4,37.5008 L97.2992,37.5008 C97.2992,37.4 97.4,37.4 97.4,37.4 C97.8008,37.4 98.1992,37.4 98.4008,37.4 C98.4992,37.4 98.9,37.4 99.2,37.4 C99.3008,37.4 99.3008,37.4 99.3008,37.5008 L99.2,37.5008 L99.0008,37.5008 C98.9,37.5992 98.7992,37.7 98.7992,37.8992 C98.7992,38.1008 98.7992,38.3 98.7992,39.3008 L98.7992,40.2008 C98.7992,41.1008 99.0008,41.4992 99.3008,41.7992 C99.6008,42.0008 99.8,42.0992 100.1,42.0992 C100.4,42.0992 100.7,41.9 101,41.7008 C101.3,41.3 101.3,40.8008 101.3,40.1 L101.3,39.3008 C101.3,38.3 101.3,38.1008 101.3,37.8992 C101.3,37.7 101.3,37.5992 101.1008,37.5008 L100.8008,37.5008 L100.7,37.5008 L100.8992,37.4 C101.1992,37.4 101.6,37.4 101.6,37.4 C101.7008,37.4 102.0992,37.4 102.3008,37.4 L102.5,37.5008 L102.3992,37.5008 L102.2,37.5008 C102.0008,37.5992 101.9,37.7 101.9,37.8992 C101.9,38.1008 101.9,38.3 101.9,39.3008 L101.9,39.9992 C101.9,40.7 101.9,41.4992 101.3,41.9 C100.8992,42.3008 100.4,42.3992 99.9992,42.3992 C99.6008,42.3992 99.0008,42.3992 98.4992,41.9 C98.1992,41.7008 97.8992,41.1992 97.8992,40.2008 L97.8992,39.3008" id="Fill-91" fill="#838587"></path>
                <path d="M106.5992,42.2 C106.5008,42.0992 106.5008,42.0992 106.5008,42.0008 C106.5008,41.6 106.5008,41.1992 106.5008,41.1008 C106.5008,41 106.5008,41 106.5008,41 L106.5992,41.1008 C106.5992,41.1008 106.7,41.3 106.7,41.4008 C106.8008,41.9 107.1992,42.0992 107.6,42.0992 C108.2,42.0992 108.5,41.7008 108.5,41.3 C108.5,41 108.3992,40.7 107.7992,40.2992 L107.4992,40.1 C106.8008,39.5 106.5992,39.0008 106.5992,38.4992 C106.5992,37.8008 107.1992,37.2992 108.0992,37.2992 C108.5,37.2992 108.8,37.4 108.9008,37.4 L108.9992,37.5008 C108.9992,37.5992 108.9992,37.8008 108.9992,38.3 C108.9992,38.4008 108.9992,38.4992 108.9008,38.4992 L108.9008,38.3 C108.9008,38.3 108.8,38.1008 108.6992,37.8992 C108.6008,37.8008 108.3992,37.5992 108.0008,37.5992 C107.4992,37.5992 107.1992,37.8992 107.1992,38.3 C107.1992,38.6 107.4008,38.7992 107.9,39.2 L108.0992,39.3008 C108.9008,39.9008 109.1,40.4 109.1,41 C109.1,41.3 108.9992,41.7992 108.5,42.0992 C108.2,42.3008 107.9,42.3992 107.4992,42.3992 C107.1008,42.3992 106.8008,42.3008 106.5992,42.2" id="Fill-92" fill="#838587"></path>
                <path d="M111.0008,39.3008 C111.0008,38.3 111.0008,38.1008 111.0008,37.8992 C111.0008,37.7 110.9,37.5992 110.7008,37.5008 L110.4008,37.5008 C110.4008,37.4 110.4008,37.4 110.4992,37.4 C110.7992,37.4 111.2,37.4 111.3992,37.4 C111.6008,37.4 111.9992,37.4 112.2008,37.4 C112.2992,37.4 112.2992,37.4 112.2992,37.5008 L112.1,37.5008 C111.9008,37.5992 111.8,37.7 111.8,37.8992 C111.8,38.1008 111.8,38.3 111.8,39.3008 L111.8,40.2008 C111.8,41.1008 111.9992,41.4992 112.2992,41.7992 C112.5992,42.0008 112.8992,42.0992 113.1008,42.0992 C113.4008,42.0992 113.7992,41.9 114.0008,41.7008 C114.3992,41.3 114.3992,40.8008 114.3992,40.1 L114.3992,39.3008 C114.3992,38.3 114.3992,38.1008 114.3992,37.8992 C114.3992,37.7 114.3008,37.5992 114.0992,37.5008 L113.9,37.5008 L113.7992,37.5008 L113.9,37.4 C114.2,37.4 114.6008,37.4 114.6008,37.4 C114.6992,37.4 115.1,37.4 115.4,37.4 L115.5008,37.5008 L115.4,37.5008 L115.2008,37.5008 C114.9992,37.5992 114.9992,37.7 114.9992,37.8992 C114.9992,38.1008 114.9992,38.3 114.9992,39.3008 L114.9992,39.9992 C114.9992,40.7 114.9008,41.4992 114.3992,41.9 C113.9,42.3008 113.4008,42.3992 113,42.3992 C112.7,42.3992 111.9992,42.3992 111.6008,41.9 C111.2,41.7008 111.0008,41.1992 111.0008,40.2008 L111.0008,39.3008" id="Fill-93" fill="#838587"></path>
                <path d="M118.2008,39.8 L118.2008,39.9008 C118.4,39.9992 118.5992,39.9992 118.7,39.9992 C119,39.9992 119,39.9992 119.1992,39.9008 C119.4008,39.6992 119.6,39.3992 119.6,38.9 C119.6,38 118.8992,37.7 118.5992,37.7 C118.4,37.7 118.2992,37.7 118.2008,37.7 L118.2008,37.8008 L118.2008,39.8 Z M117.3992,39.3008 C117.3992,38.3 117.3992,38.1008 117.3992,37.8992 C117.3992,37.7 117.3008,37.5992 117.0992,37.5008 L116.9,37.5008 L116.7992,37.5008 C116.7992,37.4 116.7992,37.4 116.9,37.4 C117.2,37.4 117.6008,37.4 117.8,37.4 C117.9992,37.4 118.5008,37.4 118.7,37.4 C119.1008,37.4 119.4992,37.5008 119.9,37.7 C120.0992,37.8008 120.3008,38.1008 120.3008,38.6 C120.3008,39.0992 120.0992,39.5 119.4992,39.9992 C120.0992,40.7 120.5,41.3 120.9008,41.7008 C121.2008,42.0992 121.5008,42.2 121.5992,42.2 L121.8008,42.2 L121.8008,42.3008 L121.7,42.3008 L121.1,42.3008 C120.6992,42.3008 120.6008,42.3008 120.3992,42.2 C120.0992,42.0992 119.9,41.7008 119.4992,41.3 C119.3,40.8992 119,40.4 118.8992,40.4 L118.8008,40.2992 L118.2008,40.2992 L118.2008,40.4 C118.2008,41 118.2008,41.6 118.2008,41.7992 C118.2008,42.0008 118.2008,42.2 118.4,42.2 C118.5008,42.2 118.7,42.2 118.8008,42.2 L118.8008,42.3008 L118.7,42.3008 C118.2992,42.3008 117.8,42.3008 117.8,42.3008 C117.6008,42.3008 117.2,42.3008 117.0008,42.3008 L116.9,42.3008 L117.0008,42.2 C117.0992,42.2 117.0992,42.2 117.2,42.2 C117.3008,42.2 117.3008,42.0008 117.3992,41.7992 C117.3992,41.6 117.3992,41 117.3992,40.4 L117.3992,39.3008 Z" id="Fill-94" fill="#838587"></path>
                <path d="M124.5008,40.2992 L123.9008,38.7008 L123.9008,38.6 L123.8,38.7008 L123.2,40.2992 L123.3008,40.2992 L124.5008,40.2992 Z M123.0992,40.5992 L123.0992,40.7 L122.7008,41.6 C122.7008,41.7992 122.6,41.9 122.6,42.0008 C122.6,42.0992 122.7008,42.2 122.9,42.2 L123.0008,42.2 L123.0992,42.3008 L122.9,42.3008 C122.7992,42.3008 122.4992,42.3008 122.3,42.3008 C122.1992,42.3008 121.8992,42.3008 121.5008,42.3008 L121.4,42.3008 L121.5008,42.2 L121.7,42.2 C122,42.2 122.1008,41.9 122.1992,41.6 L123.8,37.5008 C123.9008,37.2992 123.9008,37.2992 123.9992,37.2992 C124.1,37.2992 124.1,37.2992 124.2008,37.5008 C124.4,37.8008 125.4008,40.5008 125.7992,41.4992 C126.0008,42.0992 126.2,42.0992 126.3992,42.2 C126.5,42.2 126.5,42.2 126.6008,42.2 L126.6992,42.3008 C126.6992,42.3008 126.6992,42.3008 126.3992,42.3008 C126.2,42.3008 125.7008,42.3008 125.1992,42.3008 C125.1008,42.3008 125,42.3008 125,42.3008 L125.1008,42.2 L125.1992,42.0992 L124.7,40.7 L124.5992,40.5992 L123.0992,40.5992 Z" id="Fill-95" fill="#838587"></path>
                <path d="M128.7992,39.9992 C128.7992,40.7 128.7992,41.1992 128.7992,41.3 C128.7992,41.4992 128.9,41.7008 128.9,41.7992 C129.0008,41.9 129.2,42.0992 129.8,42.0992 C130.4,42.0992 130.8992,41.9 131.1992,41.6 C131.7008,41.3 131.7992,40.7 131.7992,39.9992 C131.7992,39.2 131.4992,38.6 131.1008,38.4008 C130.5992,37.8008 129.8,37.7 129.3008,37.7 C129.2,37.7 129.0008,37.7 128.9,37.8008 L128.7992,37.8992 C128.7992,38.1008 128.7992,38.7008 128.7992,39.2 L128.7992,39.9992 Z M128,39.3008 C128,38.3 128,38.1008 128,37.8992 C128,37.7 127.8992,37.5992 127.7,37.5008 L127.5008,37.5008 L127.4,37.5008 C127.4,37.4 127.4,37.4 127.5008,37.4 C127.8008,37.4 128.3,37.4 128.4008,37.4 C128.6,37.4 129.0008,37.4 129.3992,37.4 C130.2008,37.4 131.3,37.4 132.0008,38.1008 C132.3992,38.4992 132.6008,39.0008 132.6008,39.8 C132.6008,40.5992 132.3008,41.3 132.0008,41.6 C131.7008,41.9 131,42.3992 129.8,42.3992 C129.6008,42.3992 129.3008,42.3992 129.0008,42.3008 C128.7992,42.3008 128.6,42.3008 128.4008,42.3008 C128.3,42.3008 128.1992,42.3008 128,42.3008 C127.8992,42.3008 127.7,42.3008 127.5992,42.3008 L127.5008,42.3008 L127.5008,42.2 C127.7,42.2 127.7,42.2 127.8008,42.2 C127.8992,42.2 127.8992,42.0008 128,41.7992 C128,41.6 128,41 128,40.4 L128,39.3008 Z" id="Fill-96" fill="#838587"></path>
                <path d="M135.0008,41.4008 C135.0008,41.9 135.0992,42.0992 135.2,42.2 C135.3008,42.2 135.3992,42.2 135.5,42.2 L135.6008,42.3008 L135.5,42.3008 C135.0992,42.3008 134.7992,42.3008 134.7008,42.3008 C134.6,42.3008 134.3,42.3008 134,42.3008 L133.8992,42.3008 L133.8992,42.2 L134.1992,42.2 C134.4008,42.0992 134.4008,41.9 134.4008,41.4008 L134.4992,37.5008 C134.4992,37.4 134.4992,37.2992 134.6,37.2992 C134.7008,37.2992 134.7008,37.4 134.7992,37.5008 C134.9,37.5992 135.9008,38.7008 136.8008,39.6008 C137.3,39.9992 138.0992,40.8992 138.2,41.1008 L138.3008,41.1008 L138.2,38.1008 C138.2,37.7 138.0992,37.5992 138.0008,37.5992 C137.9,37.5008 137.7008,37.5008 137.7008,37.5008 L137.4992,37.5008 C137.4992,37.4 137.6,37.4 137.7008,37.4 C138.0992,37.4 138.3992,37.4 138.5,37.4 C138.6008,37.4 138.8,37.4 139.1,37.4 L139.2992,37.5008 L139.2008,37.5008 L138.9992,37.5008 C138.8,37.5992 138.6992,37.7 138.6992,38.1008 L138.6992,42.2 C138.6992,42.3008 138.6008,42.3992 138.6008,42.3992 L138.3008,42.3008 C137.9,41.9 137.1008,41 136.4,40.4 C135.6992,39.6008 135.0008,38.7992 134.9,38.7008 L135.0008,41.4008" id="Fill-97" fill="#838587"></path>
                <path d="M141.3008,39.3008 C141.3008,38.3 141.3008,38.1008 141.3008,37.8992 C141.3008,37.7 141.2,37.5992 141.0008,37.5008 L140.7992,37.5008 L140.6,37.5008 C140.6,37.4 140.7008,37.4 140.7992,37.4 C141.0992,37.4 141.6008,37.4 141.6992,37.4 C141.9008,37.4 142.2992,37.4 142.5008,37.4 L142.7,37.5008 L142.5992,37.5008 L142.4,37.5008 C142.2008,37.5992 142.1,37.7 142.1,37.8992 C142.1,38.1008 142.1,38.3 142.1,39.3008 L142.1,40.5008 C142.1,40.8008 142.1,41.1008 142.1,41.4008 C142.1,41.7992 142.1,42.2 141.9992,42.5 C141.9008,42.9008 141.5,43.4 140.9,43.8008 C140.7992,43.8008 140.7008,43.8008 140.6,43.8992 L140.4008,44 L140.4008,43.8992 C140.4008,43.8992 140.4008,43.8008 140.4992,43.8008 C140.6,43.7 140.7008,43.7 140.7992,43.5008 C141.3008,42.9992 141.3008,42.3992 141.3008,41.1008 L141.3008,39.3008" id="Fill-98" fill="#838587"></path>
                <path d="M144.3008,39.3008 C144.3008,38.3 144.3008,38.1008 144.3008,37.8992 C144.3008,37.7 144.3008,37.5992 144.0008,37.5008 L143.7992,37.5008 L143.7008,37.5008 C143.7008,37.4 143.7008,37.4 143.7992,37.4 C144.2,37.4 144.6008,37.4 144.6992,37.4 C144.9008,37.4 145.2992,37.4 145.5008,37.4 C145.7,37.4 145.7,37.4 145.7,37.5008 L145.5992,37.5008 L145.4,37.5008 C145.2008,37.5992 145.2008,37.7 145.2008,37.8992 C145.1,38.1008 145.1,38.3 145.1,39.3008 L145.1,40.2008 C145.1,41.1008 145.2992,41.4992 145.7,41.7992 C145.8992,42.0008 146.1992,42.0992 146.4992,42.0992 C146.7992,42.0992 147.0992,41.9 147.3992,41.7008 C147.6992,41.3 147.6992,40.8008 147.6992,40.1 L147.6992,39.3008 C147.6992,38.3 147.6992,38.1008 147.6992,37.8992 C147.6992,37.7 147.6992,37.5992 147.3992,37.5008 L147.2,37.5008 L147.0992,37.5008 L147.2,37.4 C147.6008,37.4 147.9992,37.4 147.9992,37.4 C148.1,37.4 148.5008,37.4 148.7,37.4 L148.8992,37.5008 L148.7,37.5008 L148.5008,37.5008 C148.4,37.5992 148.2992,37.7 148.2992,37.8992 C148.2992,38.1008 148.2992,38.3 148.2992,39.3008 L148.2992,39.9992 C148.2992,40.7 148.2008,41.4992 147.6992,41.9 C147.2,42.3008 146.7992,42.3992 146.4008,42.3992 C146,42.3992 145.4,42.3992 144.9008,41.9 C144.6008,41.7008 144.3008,41.1992 144.3008,40.2008 L144.3008,39.3008" id="Fill-99" fill="#838587"></path>
            </g>
        </g>
    </g>
</svg>