<svg xmlns="http://www.w3.org/2000/svg" xmlns:xlink="http://www.w3.org/1999/xlink" viewBox="0 0 220.16 59.31">
  <defs>
    <style>
      .cls-1 {
        fill: none;
      }

      .cls-2 {
        fill: #231f20;
      }

      .cls-3 {
        clip-path: url(#clip-path);
      }

      .cls-4 {
        fill: #fff200;
      }
    </style>
    <clipPath id="clip-path">
      <polygon class="cls-1" points="0 2.63 56.6 2.63 56.6 59.28 0 59.25 0 2.63 0 2.63"/>
    </clipPath>
  </defs>
  <title>Asset 1</title>
  <g id="Layer_2" data-name="Layer 2">
    <g>
      <g>
        <g>
          <polygon class="cls-2" points="0 2.63 56.6 2.63 56.6 59.28 0 59.25 0 2.63"/>
          <g class="cls-3">
            <polygon class="cls-4" points="1.52 57.69 1.51 4.22 55.01 4.23 54.96 57.71 1.52 57.69"/>
          </g>
        </g>
        <path class="cls-2" d="M28.21,37.76l17,17,6.67-6.67-17.05-17,3.32-3.29V21.13l2.37-2.37v5.5l2.31,2.27,8.32-8.32,2.25,2.22a14.93,14.93,0,0,0-4.38-10.22C44.64,5.89,40.2,8.42,38.67,10l-8,8,2,2-4.43,4.41L23.79,20l2-2-8-8c-1.53-1.53-6-4.06-10.4.26A14.67,14.67,0,0,0,3.08,20.43l2.15-2.22,8.32,8.32,2.32-2.3V18.76l2.37,2.37v6.62l3.34,3.31L4.68,47.92l6.66,6.66Z"/>
      </g>
      <path class="cls-2" d="M72.16,7.26h.58c2,0,4.18.37,4.18,2.88S74.7,13,72.74,13h-.58Zm6,9.06c3.29-.59,5.07-3.35,5.07-6.54,0-4.95-3.47-7.14-8-7.14h-9V25.82h6V16.91h.06l5.68,8.91h7.5Z"/>
      <path class="cls-2" d="M95.15,14.38A3.43,3.43,0,0,1,98.74,18a3.6,3.6,0,0,1-7.19,0A3.43,3.43,0,0,1,95.15,14.38Zm9-4.33H98.56v1.54a6.44,6.44,0,0,0-4.89-2.06c-4.67,0-7.9,3.88-7.9,8.39s3.29,8.42,8,8.42a5.58,5.58,0,0,0,4.77-2.27h.06v1.75h5.59Z"/>
      <path class="cls-2" d="M113.45,25.82h-5.58V10.05h5.58ZM113.8,4A3.14,3.14,0,1,1,110.66.86,3.15,3.15,0,0,1,113.8,4Z"/>
      <path class="cls-2" d="M123.29,25.82H117.7V14.66h-2V10.05h2v-2c0-2.18.06-3.77,1.6-5.53A7.15,7.15,0,0,1,124.8,0a5.12,5.12,0,0,1,2.4.55V5.37a4.91,4.91,0,0,0-2-.51c-1.45,0-1.94.86-1.94,2.64v2.55h3.91v4.61h-3.91Z"/>
      <path class="cls-2" d="M135.22,25.82h-5.59V14.66h-2V10.05h2v-2c0-2.18.05-3.77,1.59-5.53A7.15,7.15,0,0,1,136.72,0a5.1,5.1,0,0,1,2.4.55V5.37a4.87,4.87,0,0,0-2-.51c-1.45,0-1.93.86-1.93,2.64v2.55h3.9v4.61h-3.9Z"/>
      <path class="cls-2" d="M145.52,15.64a3.35,3.35,0,0,1,6.48,0Zm11.67,2.65c0-5.38-3.16-8.76-8.64-8.76-5.13,0-8.72,3.16-8.72,8.42,0,5.44,3.9,8.39,9.12,8.39,3.6,0,7.13-1.69,8-5.41H151.6a2.79,2.79,0,0,1-2.67,1.44c-2.32,0-3.51-1.22-3.51-3.5h11.77Z"/>
      <path class="cls-2" d="M165.33,25.82h-5.59V10.05h5.59ZM165.67,4A3.14,3.14,0,1,1,162.54.86,3.14,3.14,0,0,1,165.67,4Z"/>
      <path class="cls-2" d="M179.44,14.11a7,7,0,0,0-3-.77c-.65,0-1.75.27-1.75,1.08,0,1.07,1.75,1.22,2.52,1.38,2.61.52,4.57,1.75,4.57,4.67,0,4.15-3.78,5.87-7.43,5.87A12.25,12.25,0,0,1,168,24.53l2-3.91a9,9,0,0,0,4.43,1.6c.7,0,1.75-.34,1.75-1.2,0-1.23-1.75-1.29-3.5-1.75s-3.5-1.32-3.5-4.15c0-3.87,3.5-5.59,6.94-5.59a12.34,12.34,0,0,1,5.19,1Z"/>
      <path class="cls-2" d="M189.31,15.64a3.35,3.35,0,0,1,6.48,0ZM201,18.29c0-5.38-3.16-8.76-8.63-8.76-5.14,0-8.73,3.16-8.73,8.42,0,5.44,3.9,8.39,9.12,8.39,3.6,0,7.14-1.69,8-5.41h-5.38a2.79,2.79,0,0,1-2.68,1.44c-2.31,0-3.5-1.22-3.5-3.5H201Z"/>
      <path class="cls-2" d="M209.13,12.08h.06a5.43,5.43,0,0,1,5-2.55c4.24,0,5.93,2.67,5.93,6.54v9.75h-5.6V18.13c0-1.5.25-4.14-2.52-4.14-2.27,0-2.91,1.69-2.91,3.65v8.18h-5.6V10.05h5.6Z"/>
      <path class="cls-2" d="M73.86,49.71h.62c2,0,5-.29,4.55,2.52-.4,2.55-3.4,2.46-5.19,2.46h-.77Zm1.74,9.6c4.24,0,8.66-1.6,9.43-6.47.51-3.23-.55-5.47-3.8-5.91v-.06a5.83,5.83,0,0,0,3.31-4.74c.7-4.43-1.82-6-5.94-6H70L66.31,59.31Zm-.32-18.6h.43c1.63,0,3.49.13,3.16,2.25s-2,2.25-3.62,2.25h-.68Z"/>
      <path class="cls-2" d="M101.1,50.66h-5l3.67-7.39h.06Zm.9,4.61.87,4h6.43L104.23,36.1H97.65L85.05,59.31h6.4l2.24-4Z"/>
      <path class="cls-2" d="M114.85,36.1h6l8.8,14.19h.06L132,36.1h6l-3.67,23.21h-6l-8.8-14.23h-.06L117.2,59.31h-6Z"/>
      <path class="cls-2" d="M155.35,36.1h7.48l-11,11L160,59.31h-7.82L146,49.24h-.06l-1.59,10.07h-6L142,36.1h6l-1.52,9.57h.06Z"/>
    </g>
  </g>
</svg>
