<?xml version="1.0" encoding="UTF-8"?>
<svg width="624px" height="83px" viewBox="0 0 624 83" version="1.1" xmlns="http://www.w3.org/2000/svg" xmlns:xlink="http://www.w3.org/1999/xlink">
    <!-- Generator: Sketch 50.2 (55047) - http://www.bohemiancoding.com/sketch -->
    <title>rentalcars</title>
    <desc>Created with Sketch.</desc>
    <defs></defs>
    <g id="Page-1" stroke="none" stroke-width="1" fill="none" fill-rule="evenodd">
        <g id="rentalcars" fill-rule="nonzero">
            <path d="M478.49,82.52 C482.28289,82.514479 485.353676,79.4362349 485.349997,75.643343 C485.346317,71.8504512 482.269565,68.7781704 478.476672,68.7800081 C474.683778,68.7818457 471.610004,71.8571064 471.61,75.65 C471.607332,77.4745879 472.331651,79.225067 473.622769,80.5143082 C474.913887,81.8035494 476.665418,82.5253215 478.49,82.52" id="Shape" fill="#006AAA"></path>
            <path d="M623.47,54.23 C622.624505,48.7128276 618.83061,44.0992427 613.580646,42.2040018 C608.330683,40.3087608 602.464667,41.4351103 598.29,45.14 C595.49319,42.6757747 591.887467,41.3267432 588.16,41.35 C587.655647,41.3514489 587.151683,41.378149 586.65,41.43 L586.32,41.43 C585.93,41.48 585.54,41.53 585.17,41.61 L584.86,41.68 C584.47,41.77 584.09,41.86 583.72,41.98 L583.49,42.05 C583.09,42.18 582.69,42.32 582.3,42.48 L582.18,42.54 C581.76,42.72 581.35,42.91 580.95,43.13 C579.916343,43.6837948 578.949966,44.3548904 578.07,45.13 L578.07,45.22 C575.153882,47.8087822 573.360503,51.4314087 573.07,55.32 L573.01,55.43 L573.01,82.51 L583.14,82.51 L583.14,55.44 C583.145293,54.1643053 583.657143,52.9429637 584.562946,52.044662 C585.468749,51.1463604 586.694305,50.6446846 587.97,50.65 L588.45,50.65 C589.72477,50.6446857 590.949295,51.1466789 591.853511,52.0452668 C592.757727,52.9438546 593.267355,54.1652219 593.27,55.44 L593.27,82.52 L603.42,82.52 L603.42,55.44 C603.422645,54.1652219 603.932273,52.9438546 604.836489,52.0452668 C605.740705,51.1466789 606.96523,50.6446857 608.24,50.65 L608.73,50.65 C611.3826,50.6444623 613.538976,52.7874174 613.55,55.44 L613.55,82.52 L623.680025,82.52 L623.68,55.44 C623.681313,55.0319497 623.630911,54.6253778 623.53,54.23" id="Shape" fill="#006AAA"></path>
            <path d="M517.56,67.86 C517.281858,68.2531142 516.977852,68.6272749 516.65,68.98 C513.731405,72.0460534 509.222365,72.9907856 505.318471,71.3541772 C501.414577,69.7175689 498.927252,65.8397888 499.067653,61.6090482 C499.208054,57.3783077 501.946997,53.6739657 505.950807,52.2997811 C509.954617,50.9255965 514.391102,52.1671935 517.1,55.42 C517.470945,55.840883 517.80548,56.2925055 518.1,56.77 L526.77,51.06 C522.133957,43.6202101 513.292354,39.9358775 504.745106,41.8821349 C496.197858,43.8283923 489.823109,50.9775752 488.865273,59.6911234 C487.907438,68.4046715 492.576987,76.7678975 500.497365,80.5243566 C508.417743,84.2808156 517.84855,82.6050754 523.99,76.35 C524.796298,75.5191441 525.532163,74.6227267 526.19,73.67 L517.56,67.86 Z" id="Shape" fill="#006AAA"></path>
            <path d="M199.54,67.82 C198.203134,68.4319406 196.750265,68.7491162 195.28,68.75 C189.547958,68.7334652 184.909976,64.082066 184.91,58.35 L184.91,41.55 L202.14,41.55 L202.14,27.76 L184.91,27.76 L184.91,14.07 L171.169967,14.07 L171.17,58.35 C171.159383,64.7549809 173.693573,70.9018473 178.215077,75.4383542 C182.736581,79.9748611 188.875019,82.5294001 195.28,82.54 C199.493693,82.5516079 203.634866,81.4438441 207.28,79.33 L199.54,67.82 Z" id="Shape" fill="#00A0E9"></path>
            <path d="M233.42,68.8 C225.848176,68.8 219.71,62.6618239 219.71,55.09 C219.71,47.5181761 225.848176,41.38 233.42,41.38 C240.991824,41.38 247.13,47.5181761 247.13,55.09 C247.13,62.6618239 240.991824,68.8 233.42,68.8 M233.42,27.69 C221.902096,27.6758366 211.604957,34.8663519 207.651212,45.6844022 C203.697466,56.5024525 206.931299,68.6382225 215.74394,76.0543991 C224.556581,83.4705757 237.066399,84.5836944 247.05,78.84 L247.05,82.49 L260.81,82.4902111 L260.81,55.78 C260.81,55.55 260.81,55.32 260.81,55.09 C260.810001,39.9613022 248.548697,27.6955214 233.42,27.69" id="Shape" fill="#00A0E9"></path>
            <path d="M363.48,68.82 C357.933913,68.8199985 352.934118,65.4785812 350.812658,60.3542775 C348.691197,55.2299739 349.866001,49.3322746 353.789107,45.4120299 C357.712213,41.4917851 363.610768,40.3212853 368.733523,42.446484 C373.856277,44.5716827 377.194045,49.5739144 377.19,55.12 C377.190001,58.7551992 375.74524,62.2413641 373.173828,64.8109002 C370.602416,67.3804362 367.115198,68.8226534 363.48,68.82 M363.48,27.72 C351.963308,27.7100336 341.669605,34.9028014 337.718907,45.7206697 C333.76821,56.5385379 337.003864,68.6722422 345.816478,76.0865608 C354.629092,83.5008793 367.137458,84.6130953 377.12,78.87 L377.12,82.52 L390.86,82.5202211 L390.86,55.81 C390.86,55.58 390.86,55.35 390.86,55.12 C390.86,39.9873979 378.592602,27.72 363.46,27.72" id="Shape" fill="#00A0E9"></path>
            <polygon id="Shape" fill="#00A0E9" points="265.12 82.5 278.85 82.5 278.85 7.14 265.12 7.14 265.12 81.93"></polygon>
            <path d="M166.95,82.49 L153.21,82.49 L153.21,51.84 C153.21,46.0686244 148.531376,41.39 142.76,41.39 C136.988624,41.39 132.31,46.0686244 132.31,51.84 L132.31,82.49 L118.57,82.49 L118.57,51.84 C118.57,38.4802319 129.400232,27.65 142.76,27.65 C156.119768,27.65 166.95,38.4802319 166.95,51.84 L166.95,82.49 Z" id="Shape" fill="#00A0E9"></path>
            <path d="M320.99,63.82 C317.327108,68.2155617 311.303423,69.846095 305.92347,67.8983142 C300.543517,65.9505335 296.959784,60.8416907 296.959784,55.12 C296.959784,49.3983093 300.543517,44.2894665 305.92347,42.3416858 C311.303423,40.393905 317.327108,42.0244383 320.99,46.42 C321.46475,46.9820208 321.889687,47.5842931 322.26,48.22 L333.81,40.61 C332.896138,39.158019 331.851817,37.7923681 330.69,36.53 C323.035296,28.2360342 311.079222,25.4820219 300.567468,29.5914492 C290.055714,33.7008765 283.137508,43.8335316 283.137508,55.12 C283.137508,66.4064684 290.055714,76.5391235 300.567468,80.6485508 C311.079222,84.7579781 323.035296,82.0039658 330.69,73.71 C331.849479,72.445671 332.893633,71.0802387 333.81,69.63 L322.25,62.02 C321.877248,62.6541371 321.452454,63.256208 320.98,63.82" id="Shape" fill="#00A0E9"></path>
            <path d="M13.7398489,46.250003 L13.74,29.99 C13.7116577,23.3779254 17.6733974,17.401329 23.7744322,14.8522687 C29.875467,12.3032084 36.9115306,13.6848362 41.5956189,18.3517036 C46.2797072,23.0185709 47.687241,30.0494979 45.1606695,36.1598801 C42.634098,42.2702623 36.6721342,46.2539883 30.06,46.25 L13.7398489,46.250003 Z M63.37,82.48 L55.99,69.11 L47.81,54.22 C59.1994161,45.8466308 63.1980622,30.6584669 57.4083621,17.762286 C51.618662,4.86610497 37.6117401,-2.23851544 23.7861048,0.708333814 C9.96046952,3.65518306 0.06792031,15.853829 0.04,29.99 L0.04,82.48 L13.74,82.48 L13.74,59.99 L30.06,59.99 C31.7354472,59.989308 33.4079156,59.8488207 35.06,59.57 L47.7,82.48 L63.37,82.48 Z" id="Shape" fill="#00A0E9"></path>
            <path d="M450.35,49.66 C450.35,49.66 446.2,49.04 444.35,47.95 C444.111447,47.7823364 443.887332,47.595017 443.68,47.39 C443.644732,47.3392895 443.600711,47.2952683 443.55,47.26 C442.642725,46.3608497 442.165582,45.1151787 442.24,43.84 L442.33,43.31 C442.30548,43.398367 442.288749,43.4887124 442.28,43.58 C442.292747,43.4450291 442.316153,43.3112783 442.35,43.18 L442.35,43.31 C442.463862,42.7969694 442.663318,42.3067799 442.94,41.86 C443.703664,40.7541678 444.833494,39.9537238 446.13,39.6 C447.006715,39.3885355 447.909299,39.3043392 448.81,39.35 C452.146327,39.5453216 455.419442,40.3449645 458.47,41.71 L464.31,31.33 C460.53,29.69 452.09,26.6 444.98,28.01 C436.15,29.1 429.72,35.15 429.16,42.9 C428.72,49.1 432.16,54.76 437.9,57.98 C438.328313,58.2226362 438.768903,58.4429311 439.22,58.64 L439.6,58.82 C441.504641,59.7053325 443.524476,60.3180158 445.6,60.64 C446.945898,60.7392106 448.282774,60.9363998 449.6,61.23 C452.13,62 453.88,64.05 453.71,66.32 L453.62,66.86 C453.62,66.75 453.62,66.66 453.68,66.59 C453.68,66.73 453.63,66.86 453.6,66.99 L453.6,66.86 C453.481297,67.3683643 453.282119,67.8544935 453.01,68.3 C452.247418,69.4089657 451.117626,70.212924 449.82,70.57 C448.970498,70.7833751 448.095455,70.8776105 447.22,70.85 C441,70.69 434.79,67.14 434.79,67.14 L428.05,76.97 L429.71,77.97 C429.71,77.97 441.57,84.1 451.05,82.21 C459.88,81.12 466.31,75.08 466.87,67.32 C467.49,58.73 460.66,51.17 450.44,49.73" id="Shape" fill="#00A0E9"></path>
            <path d="M428.81,29.7 C425.810158,28.3899031 422.573426,27.7092023 419.3,27.7 C405.948713,27.722058 395.135497,38.5486957 395.13,51.9 L395.13,82.46 L408.91,82.46 L408.91,51.93 C408.896871,48.4431874 410.630305,45.1813587 413.527502,43.2411819 C416.424699,41.3010051 420.100855,40.9401723 423.32,42.28" id="Shape" fill="#00A0E9"></path>
            <path d="M86.69,40.35 C92.5879592,40.3552422 97.8776624,43.9809923 100.01,49.48 L73.38,49.48 C75.5063788,43.9807246 80.7939417,40.3537186 86.69,40.35 Z M96.81,65.25 L96.32,65.7 C92.6810321,68.7372082 87.8206296,69.8757601 83.2113358,68.7707114 C78.6020421,67.6656628 74.7862426,64.4470471 72.92,60.09 L113.63,60.09 C113.929946,58.4402423 114.080556,56.766803 114.08,55.09 C114.060399,41.0264498 103.378465,29.2701261 89.3811269,27.9069115 C75.3837888,26.5436969 62.6341834,36.0179999 59.9013627,49.813489 C57.1685421,63.6089781 65.3434066,77.2283189 78.8033656,81.3042642 C92.2633247,85.3802094 106.620427,78.5839994 112,65.59 L112.15,65.21 L96.81,65.25 Z" id="Shape" fill="#00A0E9"></path>
            <path d="M548.69,72.45 C544.418879,72.45 540.568319,69.8771386 538.933832,65.931137 C537.299345,61.9851355 538.202814,57.4430912 541.222952,54.4229524 C544.243091,51.4028136 548.785135,50.4993448 552.731137,52.1338321 C556.677139,53.7683195 559.25,57.6188787 559.25,61.89 C559.252657,64.6914997 558.140942,67.3790209 556.159981,69.3599813 C554.179021,71.3409416 551.4915,72.4526567 548.69,72.45 M548.69,41.26 C537.296366,41.26 528.06,50.4963656 528.06,61.89 C528.06,73.2836344 537.296366,82.52 548.69,82.52 C560.083634,82.52 569.32,73.2836344 569.32,61.89 C569.32,50.4963656 560.083634,41.26 548.69,41.26" id="Shape" fill="#006AAA"></path>
        </g>
    </g>
</svg>