<?xml version="1.0" encoding="UTF-8"?>
<svg width="698px" height="246px" viewBox="0 0 698 246" version="1.1" xmlns="http://www.w3.org/2000/svg" xmlns:xlink="http://www.w3.org/1999/xlink">
    <!-- Generator: Sketch 52.4 (67378) - http://www.bohemiancoding.com/sketch -->
    <title>safe</title>
    <desc>Created with Sketch.</desc>
    <g id="Page-1" stroke="none" stroke-width="1" fill="none" fill-rule="evenodd">
        <g id="safe" transform="translate(-1.000000, 0.000000)" fill="#FFFFFF">
            <path d="M139.76,92.52 L129.27,109.83 C128.777436,110.769345 128.777436,111.890655 129.27,112.83 L139.76,130.15 L139.76,192.5 C139.76,197.5 126.22,198.5 123.52,198.5 C120.82,198.5 107.12,197.45 107.12,192.5 L107.12,152.77 L117.62,135.46 C118.102458,134.518191 118.102458,133.401809 117.62,132.46 L107.12,115.15 L107.12,53.52 C107.12,48.52 117.62,46.73 123.52,46.73 C128.69,46.73 139.76,48.54 139.76,53.52 L139.76,92.52 Z M123.64,0 C74.0308859,-0.00404460596 29.3045437,29.8771861 10.3180892,75.7092574 C-8.6683653,121.541329 1.82441257,174.297705 36.9033537,209.376646 C71.9822948,244.455587 124.738671,254.948365 170.570743,235.961911 C216.402814,216.975456 246.284045,172.249114 246.28,122.64 C246.28,90.1138497 233.359037,58.9198858 210.359576,35.9204244 C187.360114,12.9209629 156.16615,1.99165229e-15 123.64,0 Z" id="Shape" fill-rule="nonzero"></path>
            <g id="Group" transform="translate(276.000000, 49.000000)">
                <path d="M21.86,102.08 C23.39,115.77 36.69,124.76 54.86,124.76 C72.28,124.76 84.81,115.76 84.81,103.42 C84.81,92.7 77.25,86.29 59.36,81.89 L41.46,77.58 C16.1,71.46 4.33,59.58 4.33,40.35 C4.33,16.52 25.09,0.16 54.57,0.16 C83.76,0.16 103.76,16.52 104.43,40.35 L83.59,40.35 C82.34,26.57 70.96,18.25 54.3,18.25 C37.64,18.25 26.3,26.67 26.3,38.92 C26.3,48.68 33.58,54.42 51.38,58.82 L66.59,62.56 C94.92,69.26 106.69,80.64 106.69,100.84 C106.69,126.68 86.12,142.84 53.39,142.84 C22.76,142.84 2.09,127.05 0.75,102.07 L21.86,102.08 Z" id="Path"></path>
                <path d="M183.66,113.28 L114.56,113.28 L114.56,94.52 C126.43,72.22 142.12,47.43 173.23,2.45 L204.23,2.45 L204.23,95.29 L223.18,95.29 L223.18,113.29 L204.23,113.29 L204.23,140.56 L183.66,140.56 L183.66,113.28 Z M134.56,95.57 L183.85,95.57 L183.85,19 L183.47,19 C159.54,53.55 145.57,75.08 134.56,95.09 L134.56,95.57 Z" id="Shape" fill-rule="nonzero"></path>
                <polygon id="Path" points="235.78 140.55 235.78 2.45 322 2.45 322 20.93 257.22 20.93 257.22 64.66 316.55 64.66 316.55 82.75 257.22 82.75 257.22 140.55"></polygon>
                <polygon id="Path" points="422.46 140.55 334.8 140.55 334.8 2.45 422.46 2.45 422.46 20.93 356.23 20.93 356.23 61.31 418.92 61.31 418.92 79.11 356.23 79.11 356.23 122 422.46 122"></polygon>
            </g>
        </g>
    </g>
</svg>