<svg xmlns="http://www.w3.org/2000/svg" viewBox="0 0 697.46 245.29">
  <defs>
    <style>
      .cls-1 {
        fill: #eba721;
      }
    </style>
  </defs>
  <title>Asset 1</title>
  <g id="Layer_2" data-name="Layer 2">
    <g id="Layer_1-2" data-name="Layer 1">
      <g>
        <path class="cls-1" d="M138.76,92.52l-10.49,17.31a3.23,3.23,0,0,0,0,3l10.49,17.32v62.35c0,5-13.54,6-16.24,6s-16.4-1.05-16.4-6V152.77l10.5-17.31a3.29,3.29,0,0,0,0-3l-10.5-17.31V53.52c0-5,10.5-6.79,16.4-6.79,5.17,0,16.24,1.81,16.24,6.79ZM122.64,0A122.65,122.65,0,1,0,245.28,122.64,122.64,122.64,0,0,0,122.64,0"/>
        <g>
          <path class="cls-1" d="M296.86,151.08c1.53,13.69,14.83,22.68,33,22.68,17.42,0,29.95-9,29.95-21.34,0-10.72-7.56-17.13-25.45-21.53l-17.9-4.31c-25.36-6.12-37.13-18-37.13-37.23,0-23.83,20.76-40.19,50.24-40.19,29.19,0,49.19,16.36,49.86,40.19H358.59c-1.25-13.78-12.63-22.1-29.29-22.1s-28,8.42-28,20.67c0,9.76,7.28,15.5,25.08,19.9l15.21,3.74c28.33,6.7,40.1,18.08,40.1,38.28,0,25.84-20.57,42-53.3,42-30.63,0-51.3-15.79-52.64-40.77Z"/>
          <path class="cls-1" d="M458.66,162.28h-69.1V143.52c11.87-22.3,27.56-47.09,58.67-92.07h31v92.84h18.95v18H479.23v27.27H458.66Zm-49.1-17.71h49.29V68h-.38c-23.93,34.55-37.9,56.08-48.91,76.09Z"/>
          <path class="cls-1" d="M510.78,189.55V51.45H597V69.93H532.22v43.73h59.33v18.09H532.22v57.8Z"/>
          <path class="cls-1" d="M697.46,189.55H609.8V51.45h87.66V69.93H631.23v40.38h62.69v17.8H631.23V171h66.23Z"/>
        </g>
      </g>
    </g>
  </g>
</svg>
