<?xml version="1.0" encoding="UTF-8"?>
<svg width="61px" height="30px" viewBox="0 0 61 30" version="1.1" xmlns="http://www.w3.org/2000/svg" xmlns:xlink="http://www.w3.org/1999/xlink">
    <!-- Generator: Sketch 50.2 (55047) - http://www.bohemiancoding.com/sketch -->
    <title>Combined Shape</title>
    <desc>Created with Sketch.</desc>
    <defs></defs>
    <g id="Page-1" stroke="none" stroke-width="1" fill="none" fill-rule="evenodd">
        <g id="t-logo-desktop" fill="#E20074" fill-rule="nonzero">
            <path d="M0.137,19.955 L0.137,13.928 L6.164,13.928 L6.164,19.955 L0.137,19.955 Z M18.516,19.955 L18.516,13.928 L24.542,13.928 L24.542,19.955 L18.516,19.955 Z M36.597,19.955 L36.597,13.928 L42.623,13.928 L42.623,19.955 L36.597,19.955 Z M54.677,19.955 L54.677,13.928 L60.704,13.928 L60.704,19.955 L54.677,19.955 Z M24.413,0.029 L24.714,10.605 L23.124,10.88 C22.828,7.764 22.01,5.451 20.67,3.943 C19.26,2.364 17.316,1.539 14.82,1.468 L14.82,23.59 C14.82,25.524 15.093,26.778 15.657,27.357 C16.136,27.851 16.947,28.155 18.089,28.266 C18.428,28.294 19.006,28.308 19.824,28.308 L19.824,30 L5.028,30 L5.028,28.308 C5.846,28.308 6.424,28.294 6.762,28.266 C7.904,28.155 8.715,27.851 9.194,27.357 C9.757,26.778 10.028,25.524 10.028,23.59 L10.028,1.467 C7.533,1.538 5.591,2.363 4.181,3.942 C2.841,5.45 2.024,7.763 1.728,10.879 L0.137,10.604 L0.437,0.029 L24.413,0.029 Z" id="Combined-Shape"></path>
        </g>
    </g>
</svg>