<?xml version="1.0" encoding="UTF-8"?>
<svg width="764px" height="767px" viewBox="0 0 764 767" version="1.1" xmlns="http://www.w3.org/2000/svg" xmlns:xlink="http://www.w3.org/1999/xlink">
    <!-- Generator: Sketch 52.4 (67378) - http://www.bohemiancoding.com/sketch -->
    <title>veniture</title>
    <desc>Created with Sketch.</desc>
    <defs>
        <linearGradient x1="50.0013389%" y1="-2.74542907%" x2="50.0013389%" y2="100.516646%" id="linearGradient-1">
            <stop stop-color="#1AA1DB" offset="0%"></stop>
            <stop stop-color="#1C82B0" offset="100%"></stop>
        </linearGradient>
        <linearGradient x1="-0.219838432%" y1="97.9818329%" x2="98.5962124%" y2="97.9818329%" id="linearGradient-2">
            <stop stop-color="#1AA1DB" offset="0%"></stop>
            <stop stop-color="#1C82B0" offset="100%"></stop>
        </linearGradient>
        <path d="M39.06312,170 L1.40768,76.38928 L21.81904,76.38928 L50.32456,147.1252 L78.83008,76.38928 L99.24144,76.38928 L61.586,170 L39.06312,170 Z M202.00208,131.81668 L128.62676,131.81668 C129.095989,138.620501 132.204585,144.104533 137.95264,148.26894 C143.700695,152.433347 150.269803,154.51552 157.66016,154.51552 C169.390885,154.51552 178.306103,150.820397 184.40608,143.43004 L195.66752,155.74724 C185.579096,166.187586 172.440881,171.40768 156.25248,171.40768 C143.114068,171.40768 131.940719,167.03805 122.7321,158.29866 C113.523481,149.55927 108.91924,137.82872 108.91924,123.10666 C108.91924,108.3846 113.61146,96.6833767 122.99604,88.00264 C132.38062,79.3219033 143.436663,74.9816 156.1645,74.9816 C168.892337,74.9816 179.713769,78.8233549 188.62912,86.50698 C197.544471,94.1906051 202.00208,104.777426 202.00208,118.26776 L202.00208,131.81668 Z M128.62676,116.3322 L182.29456,116.3322 C182.29456,108.472614 179.831145,102.431381 174.90424,98.20832 C169.977335,93.9852589 163.906776,91.87376 156.69238,91.87376 C149.477984,91.87376 142.996855,94.073238 137.2488,98.47226 C131.500745,102.871282 128.62676,108.824536 128.62676,116.3322 Z M243.35268,119.32352 L243.35268,170 L223.64516,170 L223.64516,76.38928 L243.35268,76.38928 L243.35268,93.4574 C246.519976,87.7093446 250.889605,83.1930831 256.4617,79.90848 C262.033795,76.6238769 268.045701,74.9816 274.4976,74.9816 C285.055253,74.9816 293.589227,78.2075011 300.09978,84.6594 C306.610333,91.1112989 309.86556,100.437086 309.86556,112.63704 L309.86556,170 L290.15804,170 L290.15804,118.61968 C290.15804,101.375514 283.002405,92.75356 268.69092,92.75356 C261.887099,92.75356 255.963172,95.0116908 250.91896,99.52802 C245.874748,104.044349 243.35268,110.642783 243.35268,119.32352 Z M339.25088,47.00396 L360.01416,47.00396 L360.01416,170 L339.25088,170 L339.25088,47.00396 Z M440.60384,66.00764 L440.60384,170 L419.84056,170 L419.84056,66.00764 L382.53704,66.00764 L382.53704,47.00396 L477.90736,47.00396 L477.90736,66.00764 L440.60384,66.00764 Z M553.92208,127.06576 L553.92208,76.38928 L573.6296,76.38928 L573.6296,170 L553.92208,170 L553.92208,152.93188 C550.754784,158.679935 546.385155,163.196197 540.81306,166.4808 C535.240965,169.765403 529.229059,171.40768 522.77716,171.40768 C512.219507,171.40768 503.685533,168.181779 497.17498,161.72988 C490.664427,155.277981 487.4092,145.952194 487.4092,133.75224 L487.4092,76.38928 L507.11672,76.38928 L507.11672,127.7696 C507.11672,145.013766 514.272355,153.63572 528.58384,153.63572 C535.387661,153.63572 541.311588,151.377589 546.3558,146.86126 C551.400012,142.344931 553.92208,135.746497 553.92208,127.06576 Z M651.22796,94.86508 C641.491458,94.86508 634.159865,98.0323283 629.23296,104.36692 C624.306055,110.701512 621.84264,119.20616 621.84264,129.88112 L621.84264,170 L602.13512,170 L602.13512,76.38928 L621.84264,76.38928 L621.84264,95.217 C625.009936,89.3516373 629.320913,84.5421121 634.7757,80.78828 C640.230487,77.0344479 646.007783,75.0989073 652.10776,74.9816 L652.28372,94.86508 L651.22796,94.86508 Z M759.09144,131.81668 L685.71612,131.81668 C686.185349,138.620501 689.293945,144.104533 695.042,148.26894 C700.790055,152.433347 707.359163,154.51552 714.74952,154.51552 C726.480245,154.51552 735.395463,150.820397 741.49544,143.43004 L752.75688,155.74724 C742.668456,166.187586 729.530241,171.40768 713.34184,171.40768 C700.203428,171.40768 689.030079,167.03805 679.82146,158.29866 C670.612841,149.55927 666.0086,137.82872 666.0086,123.10666 C666.0086,108.3846 670.70082,96.6833767 680.0854,88.00264 C689.46998,79.3219033 700.526023,74.9816 713.25386,74.9816 C725.981697,74.9816 736.803129,78.8233549 745.71848,86.50698 C754.633831,94.1906051 759.09144,104.777426 759.09144,118.26776 L759.09144,131.81668 Z M685.71612,116.3322 L739.38392,116.3322 C739.38392,108.472614 736.920505,102.431381 731.9936,98.20832 C727.066695,93.9852589 720.996136,91.87376 713.78174,91.87376 C706.567344,91.87376 700.086215,94.073238 694.33816,98.47226 C688.590105,102.871282 685.71612,108.824536 685.71612,116.3322 Z" id="path-3"></path>
    </defs>
    <g id="Page-1" stroke="none" stroke-width="1" fill="none" fill-rule="evenodd">
        <g id="veniture" transform="translate(-1.000000, 0.000000)">
            <g id="Group-2" transform="translate(1.000000, 0.000000)">
                <path d="M163.67,294.79 L325.19,574.57 C329.96,582.82 337.76,582.82 342.53,574.57 L354.73,553.44 L375.61,517.28 L2.16,15.09 L163.67,294.79 Z" id="Path" fill="url(#linearGradient-1)"></path>
                <path d="M252.81,159.85 L169.17,15.09 C169.17,15.09 169.17,15.09 169.17,15.09 C164.39,6.84 152.68,0.09 143.17,0.09 L10.81,0.09 C1.27,0.09 -2.64,6.86 2.14,15.09 L375.63,517.28 C398.63,477.5 384.84,388.59 345.06,319.7 L252.81,159.85 Z" id="Path" fill="#1AA1DB"></path>
                <path d="M384.31,243.03 L450.45,357.61 C455.23,365.86 463.02,365.86 467.79,357.61 L524.93,258.61 L582.08,159.61 C586.86,151.34 598.57,144.61 608.08,144.61 L669.61,144.61 C679.15,144.61 690.85,137.85 695.61,129.61 L728.81,72.32 L761.81,15.09 L384.26,243.09 L384.31,243.03 Z" id="Path" fill="url(#linearGradient-2)"></path>
                <path d="M753.17,0 L266.44,0 C266.44,79.8824662 331.197534,144.64 411.08,144.64 L417.41,144.64 C420.9,144.64 419.85,151.4 415.07,159.64 L399.69,186.29 L384.31,212.96 C379.54,221.23 379.53,234.74 384.31,243.02 L761.81,15.09 C766.62,6.77 762.71,0 753.17,0 Z" id="Path" fill="#1AA1DB"></path>
            </g>
            <g id="Group" transform="translate(0.000000, 595.000000)" fill="#000000">
                <g id="venITure">
                    <use xlink:href="#path-3"></use>
                    <use xlink:href="#path-3"></use>
                </g>
            </g>
        </g>
    </g>
</svg>