<svg id="Ebene_1" data-name="Ebene 1" xmlns="http://www.w3.org/2000/svg" xmlns:xlink="http://www.w3.org/1999/xlink" viewBox="0 0 776 811.04"><defs><style>.cls-1{fill:url(#linear-gradient);}.cls-2{fill:#1aa1db;}.cls-3{fill:url(#linear-gradient-2);}.cls-4{font-size:175.96px;font-family:Montserrat-Medium, Montserrat;}.cls-5{letter-spacing:-0.02em;}.cls-6{letter-spacing:-0.01em;}.cls-7{letter-spacing:-0.01em;}</style><linearGradient id="linear-gradient" x1="235.08" y1="572.53" x2="235.08" y2="-11.59" gradientTransform="matrix(1, 0, 0, -1, 0, 598)" gradientUnits="userSpaceOnUse"><stop offset="0" stop-color="#1aa1db"/><stop offset="1" stop-color="#1c82b0"/></linearGradient><linearGradient id="linear-gradient-2" x1="429.62" y1="382.67" x2="802.7" y2="382.67" xlink:href="#linear-gradient"/></defs><title>veniture-logo</title><path class="cls-1" d="M209.86,320.7,371.38,600.48h0c4.77,8.25,12.57,8.25,17.34,0h0l12.2-21.13,20.88-36.16L48.35,41Z" transform="translate(-42.19 -25.91)"/><path class="cls-2" d="M299,185.76,215.36,41s0,0,0,0c-4.78-8.25-16.49-15-26-15H57c-9.54,0-13.45,6.77-8.67,15L421.82,543.19c23-39.78,9.21-128.69-30.57-197.58Z" transform="translate(-42.19 -25.91)"/><path class="cls-3" d="M430.5,268.94l66.14,114.58h0c4.78,8.25,12.57,8.25,17.34,0h0l57.14-99,57.15-99c4.78-8.27,16.49-15,26-15h61.53c9.54,0,21.24-6.76,26-15h0L775,98.23,808,41l-377.55,228Z" transform="translate(-42.19 -25.91)"/><path class="cls-2" d="M799.36,25.91H312.63A144.64,144.64,0,0,0,457.27,170.55h6.33c3.49,0,2.44,6.76-2.34,15l-15.38,26.65L430.5,238.87c-4.77,8.27-4.78,21.78,0,30.06L808,41C812.81,32.68,808.9,25.91,799.36,25.91Z" transform="translate(-42.19 -25.91)"/><text class="cls-4" transform="translate(0.35 764.76)"><tspan class="cls-5">v</tspan><tspan x="95.72" y="0">enI</tspan><tspan class="cls-6" x="377.79" y="0">T</tspan><tspan x="478.8" y="0">u</tspan><tspan class="cls-7" x="597.92" y="0">r</tspan><tspan x="667.96" y="0">e</tspan></text></svg>