<?xml version="1.0" encoding="UTF-8"?>
<svg width="518px" height="333px" viewBox="0 0 518 333" version="1.1" xmlns="http://www.w3.org/2000/svg" xmlns:xlink="http://www.w3.org/1999/xlink">
    <!-- Generator: Sketch 50.2 (55047) - http://www.bohemiancoding.com/sketch -->
    <title>Group 11</title>
    <desc>Created with Sketch.</desc>
    <defs></defs>
    <g id="Web" stroke="none" stroke-width="1" fill="none" fill-rule="evenodd">
        <g id="Desktop-HD" transform="translate(-232.000000, -1156.000000)">
            <g id="BG" transform="translate(-839.000000, -29.000000)">
                <g id="Group" transform="translate(0.000000, 29.000000)">
                    <g id="Group-122">
                        <g id="Group-18">
                            <g id="Group-10" transform="translate(1071.000000, 1157.000000)">
                                <g id="Group-11">
                                    <polygon id="Stroke-30" stroke="#FF697E" points="516.7285 29.2311 487.9515 0.4541 444.7855 43.6201 401.6195 0.4541 372.8415 29.2311 416.0075 72.3971 372.8415 115.5631 401.6195 144.3401 444.7855 101.1741 487.9515 144.3401 516.7285 115.5631 473.5625 72.3971"></polygon>
                                    <path d="M392.500981,332 C374.550804,332 360,317.449196 360,299.499019 C360,281.550804 374.550804,267 392.500981,267 C410.451157,267 425,281.550804 425,299.499019 C425,317.449196 410.451157,332 392.500981,332" id="Fill-155" fill="#FF697E"></path>
                                    <path d="M95.0028669,227 C42.5331201,227 0,184.46688 0,131.997133 C0,79.5331201 42.5331201,37 95.0028669,37 C147.472614,37 190,79.5331201 190,131.997133 C190,184.46688 147.472614,227 95.0028669,227" id="Fill-155-Copy" fill="#FF697E"></path>
                                </g>
                            </g>
                        </g>
                    </g>
                </g>
            </g>
        </g>
    </g>
</svg>