<?xml version="1.0" encoding="UTF-8"?>
<svg width="1440px" height="1137px" viewBox="0 0 1440 1137" version="1.1" xmlns="http://www.w3.org/2000/svg" xmlns:xlink="http://www.w3.org/1999/xlink">
    <!-- Generator: Sketch 50.2 (55047) - http://www.bohemiancoding.com/sketch -->
    <title>top-bg</title>
    <desc>Created with Sketch.</desc>
    <defs></defs>
    <g id="Page-1" stroke="none" stroke-width="1" fill="none" fill-rule="evenodd">
        <g id="top-bg">
            <rect id="Rectangle-2" fill="#092E82" fill-rule="nonzero" x="0" y="0" width="1440" height="1137"></rect>
            <path d="M1239.207,892.6647 L1239.207,916.0607" id="Stroke-94" stroke="#0FD895" stroke-width="5.849"></path>
            <path d="M1250.9053,904.3624 L1227.5093,904.3624" id="Stroke-96" stroke="#0FD895" stroke-width="5.849"></path>
            <path d="M412,936.396 L412,913" id="Stroke-148" stroke="#0FD895" stroke-width="5.849"></path>
            <path d="M400,925 L423.396,925" id="Stroke-150" stroke="#0FD895" stroke-width="5.849"></path>
            <path d="M1265.1563,262.2384 L1265.1563,285.6344" id="Stroke-90" stroke="#0FD895" stroke-width="5.849"></path>
            <path d="M1276.8545,273.9366 L1253.4585,273.9366" id="Stroke-92" stroke="#0FD895" stroke-width="5.849"></path>
            <path d="M1134.096,94.048 C1134.096,108.986 1121.986,121.096 1107.048,121.096 C1092.11,121.096 1080,108.986 1080,94.048 C1080,79.11 1092.11,67 1107.048,67 C1121.986,67 1134.096,79.11 1134.096,94.048" id="Fill-2" fill="#0FD895" fill-rule="nonzero"></path>
            <path d="M1153.879,93.939 C1153.879,119.863 1132.863,140.878 1106.94,140.878 C1081.016,140.878 1060,119.863 1060,93.939 C1060,68.015 1081.016,47 1106.94,47 C1132.863,47 1153.879,68.015 1153.879,93.939 Z" id="Stroke-4" stroke="#FFFFFF" stroke-width="0.877"></path>
            <path d="M1140.5,224 C1133.044,224 1127,217.956 1127,210.5 C1127,203.044 1133.044,197 1140.5,197 C1147.955,197 1154,203.044 1154,210.5 C1154,217.956 1147.955,224 1140.5,224" id="Fill-6" fill="#FF697E" fill-rule="nonzero"></path>
            <path d="M208.6055,614.6988 C208.6055,640.6228 187.5905,661.6378 161.6665,661.6378 C135.7425,661.6378 114.7275,640.6228 114.7275,614.6988 C114.7275,588.7748 135.7425,567.7598 161.6665,567.7598 C187.5905,567.7598 208.6055,588.7748 208.6055,614.6988 Z" id="Stroke-8" stroke="#FFFFFF" stroke-width="0.877"></path>
            <path d="M1379.289,141.355 C1379.289,95.712 1342.288,58.71 1296.644,58.71 C1251.001,58.71 1214,95.712 1214,141.355 C1214,186.999 1251.001,224 1296.644,224 C1342.288,224 1379.289,186.999 1379.289,141.355" id="Fill-16" fill="#017FFF" fill-rule="nonzero"></path>
            <path d="M190.7876,897.4645 C190.7876,913.7295 177.6016,926.9145 161.3376,926.9145 C145.0726,926.9145 131.8876,913.7295 131.8876,897.4645 C131.8876,881.1995 145.0726,868.0145 161.3376,868.0145 C177.6016,868.0145 190.7876,881.1995 190.7876,897.4645" id="Fill-18" fill="#FF697E" fill-rule="nonzero"></path>
            <path d="M73.2231,261.5806 C73.2231,269.0496 67.1681,275.1046 59.6991,275.1046 C52.2301,275.1046 46.1751,269.0496 46.1751,261.5806 C46.1751,254.1116 52.2301,248.0566 59.6991,248.0566 C67.1681,248.0566 73.2231,254.1116 73.2231,261.5806" id="Fill-20" fill="#0FD895" fill-rule="nonzero"></path>
            <path d="M1380.1436,810.8238 L1380.1436,834.1408" id="Stroke-22" stroke="#017FFF" stroke-width="5.829"></path>
            <path d="M1391.8018,822.483 L1368.4848,822.483" id="Stroke-24" stroke="#017FFF" stroke-width="5.829"></path>
            <path d="M734.3398,938.3912 L619.2308,1053.5002" id="Stroke-26" stroke="#017FFF" stroke-width="40.697"></path>
            <path d="M734.3398,1053.5006 L619.2308,938.3916" id="Stroke-28" stroke="#017FFF" stroke-width="40.697"></path>
            <path d="M1273.523,194.048 C1266.054,194.048 1260,187.993 1260,180.524 C1260,173.055 1266.054,167 1273.523,167 C1280.993,167 1287.047,173.055 1287.047,180.524 C1287.047,187.993 1280.993,194.048 1273.523,194.048" id="Fill-44" fill="#FFFFFF" fill-rule="nonzero"></path>
            <path d="M1377.1436,428.5235 C1375.8986,428.5235 1374.8896,427.5145 1374.8896,426.2695 C1374.8896,425.0245 1375.8986,424.0155 1377.1436,424.0155 C1378.3876,424.0155 1379.3976,425.0245 1379.3976,426.2695 C1379.3976,427.5145 1378.3876,428.5235 1377.1436,428.5235" id="Fill-48" fill="#FFFFFF" fill-rule="nonzero"></path>
            <path d="M1372.762,261.6046 C1369.028,261.6046 1366,258.5776 1366,254.8426 C1366,251.1076 1369.028,248.0806 1372.762,248.0806 C1376.496,248.0806 1379.524,251.1076 1379.524,254.8426 C1379.524,258.5776 1376.496,261.6046 1372.762,261.6046" id="Fill-52" fill="#FFFFFF" fill-rule="nonzero"></path>
            <path d="M1321.8203,825.7008 C1320.5763,825.7008 1319.5663,824.6908 1319.5663,823.4458 C1319.5663,822.2018 1320.5763,821.1918 1321.8203,821.1918 C1323.0653,821.1918 1324.0743,822.2018 1324.0743,823.4458 C1324.0743,824.6908 1323.0653,825.7008 1321.8203,825.7008" id="Fill-60" fill="#FFFFFF" fill-rule="nonzero"></path>
            <path d="M190.999,74.047 C183.53,74.047 177.476,67.992 177.476,60.524 C177.476,53.054 183.53,47 190.999,47 C198.469,47 204.523,53.054 204.523,60.524 C204.523,67.992 198.469,74.047 190.999,74.047" id="Fill-66" fill="#FFFFFF" fill-rule="nonzero"></path>
            <path d="M191.73,146.509 C190.486,146.509 189.476,145.499 189.476,144.254 C189.476,143.01 190.486,142 191.73,142 C192.975,142 193.985,143.01 193.985,144.254 C193.985,145.499 192.975,146.509 191.73,146.509" id="Fill-72" fill="#FFFFFF" fill-rule="nonzero"></path>
            <path d="M275.238,150.524 C271.504,150.524 268.476,147.497 268.476,143.761 C268.476,140.027 271.504,137 275.238,137 C278.972,137 282,140.027 282,143.761 C282,147.497 278.972,150.524 275.238,150.524" id="Fill-74" fill="#FFFFFF" fill-rule="nonzero"></path>
            <path d="M1339.762,926.524 C1336.028,926.524 1333,923.497 1333,919.761 C1333,916.027 1336.028,913 1339.762,913 C1343.496,913 1346.524,916.027 1346.524,919.761 C1346.524,923.497 1343.496,926.524 1339.762,926.524" id="Fill-76" fill="#FFFFFF" fill-rule="nonzero"></path>
            <path d="M1377.1436,676.7008 C1375.8986,676.7008 1374.8896,675.6908 1374.8896,674.4458 C1374.8896,673.2018 1375.8986,672.1918 1377.1436,672.1918 C1378.3876,672.1918 1379.3976,673.2018 1379.3976,674.4458 C1379.3976,675.6908 1378.3876,676.7008 1377.1436,676.7008" id="Fill-78" fill="#FFFFFF" fill-rule="nonzero"></path>
            <path d="M1041.8203,1010.1412 C1040.5763,1010.1412 1039.5663,1009.1322 1039.5663,1007.8872 C1039.5663,1006.6422 1040.5763,1005.6332 1041.8203,1005.6332 C1043.0653,1005.6332 1044.0743,1006.6422 1044.0743,1007.8872 C1044.0743,1009.1322 1043.0653,1010.1412 1041.8203,1010.1412" id="Fill-80" fill="#FFFFFF" fill-rule="nonzero"></path>
            <path d="M1209.4814,1010.1412 C1208.2374,1010.1412 1207.2274,1009.1322 1207.2274,1007.8872 C1207.2274,1006.6422 1208.2374,1005.6332 1209.4814,1005.6332 C1210.7264,1005.6332 1211.7364,1006.6422 1211.7364,1007.8872 C1211.7364,1009.1322 1210.7264,1010.1412 1209.4814,1010.1412" id="Fill-82" fill="#FFFFFF" fill-rule="nonzero"></path>
            <path d="M1293.3125,1014.649 C1289.5785,1014.649 1286.5505,1011.622 1286.5505,1007.887 C1286.5505,1004.153 1289.5785,1001.126 1293.3125,1001.126 C1297.0465,1001.126 1300.0745,1004.153 1300.0745,1007.887 C1300.0745,1011.622 1297.0465,1014.649 1293.3125,1014.649" id="Fill-84" fill="#FFFFFF" fill-rule="nonzero"></path>
            <path d="M1125.6514,1014.649 C1121.9174,1014.649 1118.8894,1011.622 1118.8894,1007.887 C1118.8894,1004.153 1121.9174,1001.126 1125.6514,1001.126 C1129.3854,1001.126 1132.4134,1004.153 1132.4134,1007.887 C1132.4134,1011.622 1129.3854,1014.649 1125.6514,1014.649" id="Fill-86" fill="#FFFFFF" fill-rule="nonzero"></path>
            <path d="M1377.1436,1010.1412 C1375.8986,1010.1412 1374.8896,1009.1322 1374.8896,1007.8872 C1374.8896,1006.6422 1375.8986,1005.6332 1377.1436,1005.6332 C1378.3876,1005.6332 1379.3976,1006.6422 1379.3976,1007.8872 C1379.3976,1009.1322 1378.3876,1010.1412 1377.1436,1010.1412" id="Fill-88" fill="#FFFFFF" fill-rule="nonzero"></path>
            <path d="M1237.9902,816.3424 C1241.7242,816.3424 1244.7522,819.3694 1244.7522,823.1044 C1244.7522,826.8384 1241.7242,829.8654 1237.9902,829.8654 C1234.2552,829.8654 1231.2272,826.8384 1231.2272,823.1044 C1231.2272,819.3694 1234.2552,816.3424 1237.9902,816.3424" id="Fill-102" fill="#FFFFFF" fill-rule="nonzero"></path>
            <path d="M1132.254,908 C1133.499,908 1134.508,909.009 1134.508,910.254 C1134.508,911.499 1133.499,912.508 1132.254,912.508 C1131.009,912.508 1130,911.499 1130,910.254 C1130,909.009 1131.009,908 1132.254,908" id="Fill-104" fill="#FFFFFF" fill-rule="nonzero"></path>
            <path d="M372.254,56 C373.499,56 374.508,57.009 374.508,58.254 C374.508,59.499 373.499,60.508 372.254,60.508 C371.009,60.508 370,59.499 370,58.254 C370,57.009 371.009,56 372.254,56" id="Fill-106" fill="#FFFFFF" fill-rule="nonzero"></path>
            <path d="M1238.254,541 C1239.499,541 1240.508,542.009 1240.508,543.254 C1240.508,544.499 1239.499,545.508 1238.254,545.508 C1237.01,545.508 1236,544.499 1236,543.254 C1236,542.009 1237.01,541 1238.254,541" id="Fill-108" fill="#FFFFFF" fill-rule="nonzero"></path>
            <path d="M1237.524,663 C1244.993,663 1251.047,669.055 1251.047,676.523 C1251.047,683.992 1244.993,690.048 1237.524,690.048 C1230.055,690.048 1224,683.992 1224,676.523 C1224,669.055 1230.055,663 1237.524,663" id="Fill-114" fill="#FFFFFF" fill-rule="nonzero"></path>
            <path d="M162.667,611.8502 C163.912,611.8502 164.921,612.8592 164.921,614.1042 C164.921,615.3492 163.912,616.3582 162.667,616.3582 C161.422,616.3582 160.413,615.3492 160.413,614.1042 C160.413,612.8592 161.422,611.8502 162.667,611.8502" id="Fill-116" fill="#FFFFFF" fill-rule="nonzero"></path>
            <path d="M489.762,67 C493.497,67 496.524,70.027 496.524,73.762 C496.524,77.496 493.497,80.523 489.762,80.523 C486.028,80.523 483,77.496 483,73.762 C483,70.027 486.028,67 489.762,67" id="Fill-120" fill="#FFFFFF" fill-rule="nonzero"></path>
            <path d="M993.2595,54 C996.9945,54 1000.0225,57.027 1000.0225,60.762 C1000.0225,64.496 996.9945,67.523 993.2595,67.523 C989.5255,67.523 986.4975,64.496 986.4975,60.762 C986.4975,57.027 989.5255,54 993.2595,54" id="Fill-122" fill="#FFFFFF" fill-rule="nonzero"></path>
            <path d="M874.1592,116.692 C875.4042,116.692 876.4132,117.701 876.4132,118.946 C876.4132,120.191 875.4042,121.2 874.1592,121.2 C872.9142,121.2 871.9052,120.191 871.9052,118.946 C871.9052,117.701 872.9142,116.692 874.1592,116.692" id="Fill-128" fill="#FFFFFF" fill-rule="nonzero"></path>
            <path d="M790.3281,116.692 C791.5731,116.692 792.5821,117.701 792.5821,118.946 C792.5821,120.191 791.5731,121.2 790.3281,121.2 C789.0841,121.2 788.0741,120.191 788.0741,118.946 C788.0741,117.701 789.0841,116.692 790.3281,116.692" id="Fill-132" fill="#FFFFFF" fill-rule="nonzero"></path>
            <path d="M706.498,105.422 C713.967,105.422 720.021,111.477 720.021,118.946 C720.021,126.415 713.967,132.47 706.498,132.47 C699.029,132.47 692.974,126.415 692.974,118.946 C692.974,111.477 699.029,105.422 706.498,105.422" id="Fill-134" fill="#FFFFFF" fill-rule="nonzero"></path>
            <path d="M622.667,116.692 C623.912,116.692 624.921,117.701 624.921,118.946 C624.921,120.191 623.912,121.2 622.667,121.2 C621.422,121.2 620.413,120.191 620.413,118.946 C620.413,117.701 621.422,116.692 622.667,116.692" id="Fill-136" fill="#FFFFFF" fill-rule="nonzero"></path>
            <path d="M622.667,29.1656 C626.402,29.1656 629.429,32.1926 629.429,35.9276 C629.429,39.6626 626.402,42.6896 622.667,42.6896 C618.933,42.6896 615.905,39.6626 615.905,35.9276 C615.905,32.1926 618.933,29.1656 622.667,29.1656" id="Fill-140" fill="#FFFFFF" fill-rule="nonzero"></path>
            <path d="M790.3281,29.1656 C794.0631,29.1656 797.0911,32.1926 797.0911,35.9276 C797.0911,39.6626 794.0631,42.6896 790.3281,42.6896 C786.5941,42.6896 783.5661,39.6626 783.5661,35.9276 C783.5661,32.1926 786.5941,29.1656 790.3281,29.1656" id="Fill-142" fill="#FFFFFF" fill-rule="nonzero"></path>
            <path d="M192,466.396 L192,443" id="Stroke-144" stroke="#017FFF" stroke-width="5.849"></path>
            <path d="M180,454 L203.396,454" id="Stroke-146" stroke="#017FFF" stroke-width="5.849"></path>
            <path d="M129.979,1007.8873 L960.244,1007.8873" id="Stroke-155" stroke="#FFFFFF" stroke-width="0.877"></path>
        </g>
    </g>
</svg>