<?xml version="1.0" encoding="UTF-8"?>
<svg width="227px" height="116px" viewBox="0 0 227 116" version="1.1" xmlns="http://www.w3.org/2000/svg" xmlns:xlink="http://www.w3.org/1999/xlink">
    <!-- Generator: Sketch 50.2 (55047) - http://www.bohemiancoding.com/sketch -->
    <title>Combined Shape</title>
    <desc>Created with Sketch.</desc>
    <defs></defs>
    <g id="Web" stroke="none" stroke-width="1" fill="none" fill-rule="evenodd">
        <g id="Desktop-HD" transform="translate(-34.000000, -10256.000000)" fill="#FFFFFF">
            <g id="FOOTER-#10" transform="translate(-105.000000, 10153.000000)">
                <path d="M250.1909,218.7813 C248.5709,218.7813 247.2579,217.4683 247.2579,215.8483 C247.2579,214.2283 248.5709,212.9143 250.1909,212.9143 C251.8109,212.9143 253.1239,214.2283 253.1239,215.8483 C253.1239,217.4683 251.8109,218.7813 250.1909,218.7813 Z M142.1489,217.988 C140.5289,217.988 139.2159,216.675 139.2159,215.055 C139.2159,213.435 140.5289,212.121 142.1489,212.121 C143.7689,212.121 145.0819,213.435 145.0819,215.055 C145.0819,216.675 143.7689,217.988 142.1489,217.988 Z M362.1489,108.8887 C360.5289,108.8887 359.2159,107.5757 359.2159,105.9557 C359.2159,104.3357 360.5289,103.0217 362.1489,103.0217 C363.7689,103.0217 365.0819,104.3357 365.0819,105.9557 C365.0819,107.5757 363.7689,108.8887 362.1489,108.8887 Z M360.9816,218.7813 C359.3616,218.7813 358.0486,217.4683 358.0486,215.8483 C358.0486,214.2283 359.3616,212.9143 360.9816,212.9143 C362.6016,212.9143 363.9146,214.2283 363.9146,215.8483 C363.9146,217.4683 362.6016,218.7813 360.9816,218.7813 Z" id="Combined-Shape"></path>
            </g>
        </g>
    </g>
</svg>