<?xml version="1.0" encoding="UTF-8"?>
<svg width="394px" height="308px" viewBox="0 0 394 308" version="1.1" xmlns="http://www.w3.org/2000/svg" xmlns:xlink="http://www.w3.org/1999/xlink">
    <!-- Generator: Sketch 50.2 (55047) - http://www.bohemiancoding.com/sketch -->
    <title>ICONS</title>
    <desc>Created with Sketch.</desc>
    <defs></defs>
    <g id="Web" stroke="none" stroke-width="1" fill="none" fill-rule="evenodd">
        <g id="Desktop-HD" transform="translate(-1046.000000, -7773.000000)">
            <g id="LOCATION-#8" transform="translate(95.000000, 6698.000000)">
                <g id="ACCOMODATION-info" transform="translate(0.000000, 1077.000000)">
                    <g id="ICONS" transform="translate(953.000000, 0.000000)">
                        <g id="Group-3" opacity="0.175613839" transform="translate(22.000000, 0.000000)">
                            <path d="M48.833757,32.7453362 C49.3257993,34.1863275 50.8965035,34.9566463 52.3421021,34.4655755 C53.7877007,33.9751015 54.5604824,32.4094033 54.0678415,30.968412 C53.5757993,29.5280174 52.0050951,28.7576987 50.5594965,29.2481727 C49.1144965,29.7386468 48.3417148,31.304345 48.833757,32.7453362" id="Fill-72" fill="#FF697E"></path>
                            <path d="M68.2446444,34.9845114 C68.7366866,36.4255027 70.3073908,37.1958214 71.7529894,36.7047507 C73.198588,36.2142766 73.9713697,34.6485784 73.4787289,33.2075872 C72.9866866,31.7671926 71.4159824,30.9968738 69.9703838,31.4873479 C68.5253838,31.9778219 67.7526021,33.5435201 68.2446444,34.9845114" id="Fill-73" fill="#FF697E"></path>
                            <path d="M53.8107465,53.3306276 C54.3027887,54.7716189 55.873493,55.5419377 57.3190915,55.0508669 C58.7646901,54.5603929 59.5374718,52.9946947 59.044831,51.5537034 C58.5527887,50.1133088 56.9820845,49.3429901 55.5364859,49.8334641 C54.0914859,50.3239382 53.3187042,51.8896364 53.8107465,53.3306276" id="Fill-75" fill="#FF697E"></path>
                            <path d="M1.10751408,40.3259648 C1.59955634,41.766956 3.17026056,42.5372748 4.61585915,42.046204 C6.06145775,41.55573 6.83423944,39.9900318 6.34159859,38.5490405 C5.84955634,37.1086459 4.27885211,36.3383272 2.83325352,36.8288012 C1.38825352,37.3192753 0.615471831,38.8849735 1.10751408,40.3259648" id="Fill-76" fill="#FF697E"></path>
                            <path d="M66.2521725,54.1057199 C66.7442148,55.5467111 68.314919,56.3170299 69.7605176,55.8259591 C71.2061162,55.3354851 71.9788979,53.7697869 71.486257,52.3287956 C70.9942148,50.888401 69.4235106,50.1180823 67.977912,50.6085563 C66.532912,51.0990304 65.7601303,52.6647286 66.2521725,54.1057199" id="Fill-77" fill="#FF697E"></path>
                            <polyline id="Stroke-107" stroke="#16CAD8" stroke-width="4.7112" stroke-linecap="round" stroke-linejoin="round" points="4.45196479 46.6687131 5.43006338 60.9604826 21.8673873 60.9604826 28.2346056 60.9604826 31.0018944 20.5279976 2.66277465 20.5279976 3.4379507 31.8548454"></polyline>
                            <path d="M16.8324542,12.9587657 L16.8324542,6.54680203 C16.8324542,3.23878726 19.5231232,0.557290444 22.8417148,0.557290444 L28.2350246,0.557290444" id="Stroke-108" stroke="#16CAD8" stroke-width="4.7112" stroke-linecap="round" stroke-linejoin="round"></path>
                            <path d="M81.2260599,51.2973681 C81.2260599,56.6341076 76.8856725,60.9606616 71.5318697,60.9606616 L50.8307782,60.9606616 C45.4769754,60.9606616 41.1371866,56.6341076 41.1371866,51.2973681" id="Stroke-109" stroke="#16CAD8" stroke-width="4.7112" stroke-linecap="round" stroke-linejoin="round"></path>
                            <path d="M41.1370669,32.7181871 C41.1370669,27.3814476 45.4774542,23.0548936 50.831257,23.0548936 L71.5323486,23.0548936 C76.8861514,23.0548936 81.2259401,27.3814476 81.2259401,32.7181871" id="Stroke-110" stroke="#16CAD8" stroke-width="4.7112" stroke-linecap="round" stroke-linejoin="round"></path>
                            <path d="M37.4507606,39.6626911 C43.3828028,39.6626911 43.3828028,45.3401371 49.3148451,45.3401371 C55.2474859,45.3401371 55.2474859,39.6626911 61.1795282,39.6626911 C67.1127676,39.6626911 67.1127676,45.3401371 73.046007,45.3401371 C78.9792465,45.3401371 78.9792465,39.6626911 84.9124859,39.6626911" id="Stroke-111" stroke="#16CAD8" stroke-width="4.7112" stroke-linecap="round" stroke-linejoin="round"></path>
                        </g>
                        <g id="Group-4" opacity="0.175613839" transform="translate(280.000000, 61.000000)">
                            <path d="M22.0175331,8.26413479 C23.0319023,10.1925547 25.4175485,10.9324802 27.3446792,9.91743235 C29.27181,8.90238454 30.0112408,6.51514248 28.9968715,4.58672254 C27.9816485,2.65830259 25.5968562,1.91837717 23.6697254,2.93342498 C21.7425946,3.9493272 21.0031638,6.33571484 22.0175331,8.26413479" id="Fill-6" fill="#00287A"></path>
                            <path d="M79.5330369,6.98515746 C80.5474062,8.91357741 82.9330523,9.65350283 84.8601831,8.63845502 C86.7873138,7.62340722 87.5267446,5.23616516 86.5123754,3.30774521 C85.4971523,1.37932527 83.11236,0.639399848 81.1852292,1.65444765 C79.2580985,2.67034988 78.5186677,5.05673752 79.5330369,6.98515746" id="Fill-8" fill="#00287A"></path>
                            <path d="M56.3715208,21.8464655 C57.38589,23.7748855 59.7715362,24.5148109 61.6986669,23.4997631 C63.6257977,22.4847153 64.3652285,20.0974732 63.3508592,18.1690533 C62.3356362,16.2406333 59.9508438,15.5007079 58.0237131,16.5157557 C56.0965823,17.531658 55.3571515,19.9180456 56.3715208,21.8464655" id="Fill-9" fill="#00287A"></path>
                            <path d="M30.0477,53.4338475 C31.0620692,55.3622675 33.4477154,56.1021929 35.3748462,55.0871451 C37.3019769,54.0720973 38.0414077,51.6848552 37.0270385,49.7564353 C36.0118154,47.8280153 33.6270231,47.0880899 31.6998923,48.1031377 C29.7727615,49.11904 29.0333308,51.5054276 30.0477,53.4338475" id="Fill-10" fill="#00287A"></path>
                            <path d="M74.0448554,53.4338475 C75.0592246,55.3622675 77.4448708,56.1021929 79.3720015,55.0871451 C81.2991323,54.0720973 82.0385631,51.6848552 81.0241938,49.7564353 C80.0089708,47.8280153 77.6241785,47.0880899 75.6970477,48.1031377 C73.7699169,49.11904 73.0304862,51.5054276 74.0448554,53.4338475" id="Fill-11" fill="#00287A"></path>
                            <path d="M51.6149146,66.7496001 C52.6292838,68.67802 55.01493,69.4179455 56.9420608,68.4028976 C58.8691915,67.3878498 59.6086223,65.0006078 58.5942531,63.0721878 C57.57903,61.1437679 55.1942377,60.4038425 53.2671069,61.4188903 C51.3399762,62.4347925 50.6005454,64.8211801 51.6149146,66.7496001" id="Fill-12" fill="#00287A"></path>
                            <path d="M44.9696862,21.1296094 C34.6902323,23.1212562 24.8744169,28.0999461 16.9140092,36.0665334" id="Stroke-27" stroke="#017FFF" stroke-width="6.6742" stroke-linecap="round" stroke-linejoin="round"></path>
                            <path d="M93.7903892,36.0661916 C87.7519892,30.0237522 80.6471354,25.7004004 73.0820585,23.0952819" id="Stroke-28" stroke="#017FFF" stroke-width="6.6742" stroke-linecap="round" stroke-linejoin="round"></path>
                            <path d="M67.1205046,43.6686263 C59.4341815,38.818099 50.4816046,38.7557265 43.4877508,43.6327407" id="Stroke-29" stroke="#017FFF" stroke-width="6.6742" stroke-linecap="round" stroke-linejoin="round"></path>
                            <path d="M13.5392677,12.5052062 C8.79017538,15.5187361 4.29638308,19.0987448 0.153521538,23.2443778" id="Stroke-30" stroke="#017FFF" stroke-width="6.6742" stroke-linecap="round" stroke-linejoin="round"></path>
                            <path d="M68.9120446,1.69127304 C58.3158138,-0.211514385 47.4010985,0.0969302764 36.9090369,2.61575261" id="Stroke-31" stroke="#017FFF" stroke-width="6.6742" stroke-linecap="round" stroke-linejoin="round"></path>
                            <path d="M110.076395,23.2441214 C105.114695,18.2791022 99.6492254,14.1257795 93.8439254,10.7832989" id="Stroke-32" stroke="#017FFF" stroke-width="6.6742" stroke-linecap="round" stroke-linejoin="round"></path>
                        </g>
                        <g id="Group-15" opacity="0.711272321" transform="translate(0.000000, 240.000000)">
                            <path d="M9.759,28.7322998 C10.17,29.9408732 11.482,30.586947 12.69,30.1750812 C13.8975,29.7637158 14.543,28.4505496 14.131,27.2419763 C13.7205,26.0339034 12.408,25.3878296 11.201,25.799195 C9.994,26.2105603 9.3485,27.5237265 9.759,28.7322998" id="Fill-69" fill="#FF697E"></path>
                            <path d="M18.5485,18.0108782 C18.9595,19.2194515 20.2715,19.8655253 21.479,19.4536595 C22.6865,19.0422942 23.332,17.7291279 22.921,16.5205546 C22.5095,15.3124817 21.1975,14.6664079 19.99,15.0777733 C18.783,15.4891386 18.1375,16.8023048 18.5485,18.0108782" id="Fill-70" fill="#FF697E"></path>
                            <path d="M9.6035,3.05704767 C10.0145,4.265621 11.3265,4.91169478 12.534,4.499829 C13.7415,4.08846367 14.387,2.77529745 13.9755,1.56672411 C13.5645,0.358651225 12.2525,-0.287422552 11.045,0.123942781 C9.838,0.535308114 9.1925,1.84847434 9.6035,3.05704767" id="Fill-78" fill="#FF697E"></path>
                            <path d="M32.3315,47.3335196 C32.3315,56.2694556 25.094,63.5133889 16.166,63.5133889 C7.2375,63.5133889 0,56.2694556 0,47.3335196 L0,36.54694 L16.262,36.54694 L32.524,36.54694 L32.3315,47.3335196 Z" id="Stroke-102" stroke="#FFCF6E" stroke-width="3.926" stroke-linecap="round" stroke-linejoin="round"></path>
                            <path d="M11.7895,21.5934098 L11.7895,8.51479469" id="Stroke-103" stroke="#FFCF6E" stroke-width="3.926" stroke-linecap="round" stroke-linejoin="round"></path>
                            <path d="M20.735,28.2331065 L20.735,23.9027607" id="Stroke-104" stroke="#FFCF6E" stroke-width="3.926" stroke-linecap="round" stroke-linejoin="round"></path>
                            <path d="M38.2285,52.881847 C41.459,52.881847 44.0775,50.2610195 44.0775,47.0276479 C44.0775,43.7942764 41.459,41.1734488 38.2285,41.1734488" id="Stroke-106" stroke="#FFCF6E" stroke-width="3.926" stroke-linecap="round" stroke-linejoin="round"></path>
                        </g>
                        <g id="Group-16" transform="translate(125.000000, 141.000000)">
                            <path d="M35.00375,42.1469546 C35.4993676,43.6027361 37.0814853,44.3809613 38.5375882,43.8848502 C39.9936912,43.389342 40.7720882,41.8075736 40.2764706,40.3517921 C39.78025,38.8966134 38.1981324,38.1183881 36.7420294,38.6138964 C35.2865294,39.1094046 34.5081324,40.691173 35.00375,42.1469546" id="Fill-71" fill="#017FFF"></path>
                            <path d="M5.05385294,20.0312522 C1.91313235,23.5100577 0,28.1179226 0,33.173674 C0,44.0103549 8.78726471,52.7956799 19.6269412,52.7956799 C24.9436765,52.7956799 29.7617794,50.6810291 33.2907941,47.2468315" id="Stroke-113" stroke="#0FD895" stroke-width="4.7112" stroke-linecap="round" stroke-linejoin="round"></path>
                            <path d="M13.5227647,27.8183873 C11.8194559,25.0231662 10.8203824,21.7517268 10.8203824,18.2397669 C10.8203824,17.3234986 10.9096176,16.4301371 11.0386471,15.5500373 C11.2551029,14.068335 11.6361618,12.6414883 12.1830294,11.2960206 C13.3895147,8.32960206 15.34425,5.75199471 17.8138971,3.79286844 C20.2925882,1.82711129 23.2904118,0.484657697 26.5692059,0 C26.2267353,1.40635125 26.02475,2.86816085 26.02475,4.38000352 C26.02475,9.75222913 27.1860147,13.0459725 31.9980882,17.947405 C36.0655294,22.0892993 39.2532794,27.4398238 39.2532794,33.1731315 C39.2532794,33.3792919 39.2285588,33.5788213 39.2225294,33.7831733" id="Stroke-114" stroke="#0FD895" stroke-width="4.7112" stroke-linecap="round" stroke-linejoin="round"></path>
                        </g>
                    </g>
                </g>
            </g>
        </g>
    </g>
</svg>