<?xml version="1.0" encoding="UTF-8"?>
<svg width="1346px" height="1040px" viewBox="0 0 1346 1040" version="1.1" xmlns="http://www.w3.org/2000/svg" xmlns:xlink="http://www.w3.org/1999/xlink">
    <!-- Generator: Sketch 50.2 (55047) - http://www.bohemiancoding.com/sketch -->
    <title>landing-bg</title>
    <desc>Created with Sketch.</desc>
    <defs></defs>
    <g id="Page-1" stroke="none" stroke-width="1" fill="none" fill-rule="evenodd">
        <g id="landing-bg" transform="translate(0.000000, 1.000000)">
            <g id="Group" transform="translate(672.000000, 512.500000) scale(-1, 1) translate(-672.000000, -512.500000) ">
                <path d="M1191.207,863.6647 L1191.207,887.0607" id="Stroke-94" stroke="#0FD895" stroke-width="5.849"></path>
                <path d="M1202.9053,875.3624 L1179.5093,875.3624" id="Stroke-96" stroke="#0FD895" stroke-width="5.849"></path>
                <path d="M364,907.396 L364,884" id="Stroke-148" stroke="#0FD895" stroke-width="5.849"></path>
                <path d="M352,896 L375.396,896" id="Stroke-150" stroke="#0FD895" stroke-width="5.849"></path>
                <path d="M1217.1563,233.2384 L1217.1563,256.6344" id="Stroke-90" stroke="#0FD895" stroke-width="5.849"></path>
                <path d="M1228.8545,244.9366 L1205.4585,244.9366" id="Stroke-92" stroke="#0FD895" stroke-width="5.849"></path>
                <path d="M1086.096,65.048 C1086.096,79.986 1073.986,92.096 1059.048,92.096 C1044.11,92.096 1032,79.986 1032,65.048 C1032,50.11 1044.11,38 1059.048,38 C1073.986,38 1086.096,50.11 1086.096,65.048" id="Fill-2" fill="#0FD895" fill-rule="nonzero"></path>
                <path d="M1105.879,64.939 C1105.879,90.863 1084.863,111.878 1058.94,111.878 C1033.016,111.878 1012,90.863 1012,64.939 C1012,39.015 1033.016,18 1058.94,18 C1084.863,18 1105.879,39.015 1105.879,64.939 Z" id="Stroke-4" stroke="#FFFFFF" stroke-width="0.877"></path>
                <path d="M1092.5,195 C1085.044,195 1079,188.956 1079,181.5 C1079,174.044 1085.044,168 1092.5,168 C1099.955,168 1106,174.044 1106,181.5 C1106,188.956 1099.955,195 1092.5,195" id="Fill-6" fill="#52D2DF" fill-rule="nonzero"></path>
                <path d="M270.6055,915.6988 C270.6055,941.6228 249.5905,962.6378 223.6665,962.6378 C197.7425,962.6378 176.7275,941.6228 176.7275,915.6988 C176.7275,889.7748 197.7425,868.7598 223.6665,868.7598 C249.5905,868.7598 270.6055,889.7748 270.6055,915.6988 Z" id="Stroke-8" stroke="#FFFFFF" stroke-width="0.877"></path>
                <path d="M1331.289,112.355 C1331.289,66.712 1294.288,29.71 1248.644,29.71 C1203.001,29.71 1166,66.712 1166,112.355 C1166,157.999 1203.001,195 1248.644,195 C1294.288,195 1331.289,157.999 1331.289,112.355" id="Fill-16" fill="#017FFF" fill-rule="nonzero"></path>
                <path d="M1031.9,879.45 C1031.9,895.715 1018.714,908.9 1002.45,908.9 C986.185,908.9 973,895.715 973,879.45 C973,863.185 986.185,850 1002.45,850 C1018.714,850 1031.9,863.185 1031.9,879.45" id="Fill-18" fill="#FF697E" fill-rule="nonzero"></path>
                <path d="M65.2231,342.5806 C65.2231,350.0496 59.1681,356.1046 51.6991,356.1046 C44.2301,356.1046 38.1751,350.0496 38.1751,342.5806 C38.1751,335.1116 44.2301,329.0566 51.6991,329.0566 C59.1681,329.0566 65.2231,335.1116 65.2231,342.5806" id="Fill-20" fill="#FF697E" fill-rule="nonzero"></path>
                <path d="M1332.1436,781.8238 L1332.1436,805.1408" id="Stroke-22" stroke="#017FFF" stroke-width="5.829"></path>
                <path d="M1343.8018,793.483 L1320.4848,793.483" id="Stroke-24" stroke="#017FFF" stroke-width="5.829"></path>
                <path d="M686.3398,909.3912 L571.2308,1024.5002" id="Stroke-26" stroke="#017FFF" stroke-width="40.697"></path>
                <path d="M686.3398,1024.5006 L571.2308,909.3916" id="Stroke-28" stroke="#017FFF" stroke-width="40.697"></path>
                <path d="M1225.523,165.048 C1218.054,165.048 1212,158.993 1212,151.524 C1212,144.055 1218.054,138 1225.523,138 C1232.993,138 1239.047,144.055 1239.047,151.524 C1239.047,158.993 1232.993,165.048 1225.523,165.048" id="Fill-44" fill="#FFFFFF" fill-rule="nonzero"></path>
                <path d="M1329.1436,399.5235 C1327.8986,399.5235 1326.8896,398.5145 1326.8896,397.2695 C1326.8896,396.0245 1327.8986,395.0155 1329.1436,395.0155 C1330.3876,395.0155 1331.3976,396.0245 1331.3976,397.2695 C1331.3976,398.5145 1330.3876,399.5235 1329.1436,399.5235" id="Fill-48" fill="#FFFFFF" fill-rule="nonzero"></path>
                <path d="M1324.762,232.6046 C1321.028,232.6046 1318,229.5776 1318,225.8426 C1318,222.1076 1321.028,219.0806 1324.762,219.0806 C1328.496,219.0806 1331.524,222.1076 1331.524,225.8426 C1331.524,229.5776 1328.496,232.6046 1324.762,232.6046" id="Fill-52" fill="#FFFFFF" fill-rule="nonzero"></path>
                <path d="M1273.8203,796.7008 C1272.5763,796.7008 1271.5663,795.6908 1271.5663,794.4458 C1271.5663,793.2018 1272.5763,792.1918 1273.8203,792.1918 C1275.0653,792.1918 1276.0743,793.2018 1276.0743,794.4458 C1276.0743,795.6908 1275.0653,796.7008 1273.8203,796.7008" id="Fill-60" fill="#FFFFFF" fill-rule="nonzero"></path>
                <path d="M142.999,565.047 C135.53,565.047 129.476,558.992 129.476,551.524 C129.476,544.054 135.53,538 142.999,538 C150.469,538 156.523,544.054 156.523,551.524 C156.523,558.992 150.469,565.047 142.999,565.047" id="Fill-66" fill="#FFFFFF" fill-rule="nonzero"></path>
                <path d="M53.73,487.509 C52.486,487.509 51.476,486.499 51.476,485.254 C51.476,484.01 52.486,483 53.73,483 C54.975,483 55.985,484.01 55.985,485.254 C55.985,486.499 54.975,487.509 53.73,487.509" id="Fill-72" fill="#FFFFFF" fill-rule="nonzero"></path>
                <path d="M7.238,231.524 C3.504,231.524 0.476,228.497 0.476,224.761 C0.476,221.027 3.504,218 7.238,218 C10.972,218 14,221.027 14,224.761 C14,228.497 10.972,231.524 7.238,231.524" id="Fill-74" fill="#FFFFFF" fill-rule="nonzero"></path>
                <path d="M1291.762,897.524 C1288.028,897.524 1285,894.497 1285,890.761 C1285,887.027 1288.028,884 1291.762,884 C1295.496,884 1298.524,887.027 1298.524,890.761 C1298.524,894.497 1295.496,897.524 1291.762,897.524" id="Fill-76" fill="#FFFFFF" fill-rule="nonzero"></path>
                <path d="M1329.1436,647.7008 C1327.8986,647.7008 1326.8896,646.6908 1326.8896,645.4458 C1326.8896,644.2018 1327.8986,643.1918 1329.1436,643.1918 C1330.3876,643.1918 1331.3976,644.2018 1331.3976,645.4458 C1331.3976,646.6908 1330.3876,647.7008 1329.1436,647.7008" id="Fill-78" fill="#FFFFFF" fill-rule="nonzero"></path>
                <path d="M993.8203,981.1412 C992.5763,981.1412 991.5663,980.1322 991.5663,978.8872 C991.5663,977.6422 992.5763,976.6332 993.8203,976.6332 C995.0653,976.6332 996.0743,977.6422 996.0743,978.8872 C996.0743,980.1322 995.0653,981.1412 993.8203,981.1412" id="Fill-80" fill="#FFFFFF" fill-rule="nonzero"></path>
                <path d="M1161.4814,981.1412 C1160.2374,981.1412 1159.2274,980.1322 1159.2274,978.8872 C1159.2274,977.6422 1160.2374,976.6332 1161.4814,976.6332 C1162.7264,976.6332 1163.7364,977.6422 1163.7364,978.8872 C1163.7364,980.1322 1162.7264,981.1412 1161.4814,981.1412" id="Fill-82" fill="#FFFFFF" fill-rule="nonzero"></path>
                <path d="M1245.3125,985.649 C1241.5785,985.649 1238.5505,982.622 1238.5505,978.887 C1238.5505,975.153 1241.5785,972.126 1245.3125,972.126 C1249.0465,972.126 1252.0745,975.153 1252.0745,978.887 C1252.0745,982.622 1249.0465,985.649 1245.3125,985.649" id="Fill-84" fill="#FFFFFF" fill-rule="nonzero"></path>
                <path d="M1077.6514,985.649 C1073.9174,985.649 1070.8894,982.622 1070.8894,978.887 C1070.8894,975.153 1073.9174,972.126 1077.6514,972.126 C1081.3854,972.126 1084.4134,975.153 1084.4134,978.887 C1084.4134,982.622 1081.3854,985.649 1077.6514,985.649" id="Fill-86" fill="#FFFFFF" fill-rule="nonzero"></path>
                <path d="M1329.1436,981.1412 C1327.8986,981.1412 1326.8896,980.1322 1326.8896,978.8872 C1326.8896,977.6422 1327.8986,976.6332 1329.1436,976.6332 C1330.3876,976.6332 1331.3976,977.6422 1331.3976,978.8872 C1331.3976,980.1322 1330.3876,981.1412 1329.1436,981.1412" id="Fill-88" fill="#FFFFFF" fill-rule="nonzero"></path>
                <path d="M1189.9902,787.3424 C1193.7242,787.3424 1196.7522,790.3694 1196.7522,794.1044 C1196.7522,797.8384 1193.7242,800.8654 1189.9902,800.8654 C1186.2552,800.8654 1183.2272,797.8384 1183.2272,794.1044 C1183.2272,790.3694 1186.2552,787.3424 1189.9902,787.3424" id="Fill-102" fill="#FFFFFF" fill-rule="nonzero"></path>
                <path d="M1084.254,879 C1085.499,879 1086.508,880.009 1086.508,881.254 C1086.508,882.499 1085.499,883.508 1084.254,883.508 C1083.009,883.508 1082,882.499 1082,881.254 C1082,880.009 1083.009,879 1084.254,879" id="Fill-104" fill="#FFFFFF" fill-rule="nonzero"></path>
                <path d="M324.254,27 C325.499,27 326.508,28.009 326.508,29.254 C326.508,30.499 325.499,31.508 324.254,31.508 C323.009,31.508 322,30.499 322,29.254 C322,28.009 323.009,27 324.254,27" id="Fill-106" fill="#FFFFFF" fill-rule="nonzero"></path>
                <path d="M1190.254,512 C1191.499,512 1192.508,513.009 1192.508,514.254 C1192.508,515.499 1191.499,516.508 1190.254,516.508 C1189.01,516.508 1188,515.499 1188,514.254 C1188,513.009 1189.01,512 1190.254,512" id="Fill-108" fill="#FFFFFF" fill-rule="nonzero"></path>
                <path d="M1189.524,634 C1196.993,634 1203.047,640.055 1203.047,647.523 C1203.047,654.992 1196.993,661.048 1189.524,661.048 C1182.055,661.048 1176,654.992 1176,647.523 C1176,640.055 1182.055,634 1189.524,634" id="Fill-114" fill="#FFFFFF" fill-rule="nonzero"></path>
                <path d="M224.667,912.8502 C225.912,912.8502 226.921,913.8592 226.921,915.1042 C226.921,916.3492 225.912,917.3582 224.667,917.3582 C223.422,917.3582 222.413,916.3492 222.413,915.1042 C222.413,913.8592 223.422,912.8502 224.667,912.8502" id="Fill-116" fill="#FFFFFF" fill-rule="nonzero"></path>
                <path d="M441.762,38 C445.497,38 448.524,41.027 448.524,44.762 C448.524,48.496 445.497,51.523 441.762,51.523 C438.028,51.523 435,48.496 435,44.762 C435,41.027 438.028,38 441.762,38" id="Fill-120" fill="#FFFFFF" fill-rule="nonzero"></path>
                <path d="M945.2595,25 C948.9945,25 952.0225,28.027 952.0225,31.762 C952.0225,35.496 948.9945,38.523 945.2595,38.523 C941.5255,38.523 938.4975,35.496 938.4975,31.762 C938.4975,28.027 941.5255,25 945.2595,25" id="Fill-122" fill="#FFFFFF" fill-rule="nonzero"></path>
                <path d="M826.1592,87.692 C827.4042,87.692 828.4132,88.701 828.4132,89.946 C828.4132,91.191 827.4042,92.2 826.1592,92.2 C824.9142,92.2 823.9052,91.191 823.9052,89.946 C823.9052,88.701 824.9142,87.692 826.1592,87.692" id="Fill-128" fill="#FFFFFF" fill-rule="nonzero"></path>
                <path d="M742.3281,87.692 C743.5731,87.692 744.5821,88.701 744.5821,89.946 C744.5821,91.191 743.5731,92.2 742.3281,92.2 C741.0841,92.2 740.0741,91.191 740.0741,89.946 C740.0741,88.701 741.0841,87.692 742.3281,87.692" id="Fill-132" fill="#FFFFFF" fill-rule="nonzero"></path>
                <path d="M658.498,76.422 C665.967,76.422 672.021,82.477 672.021,89.946 C672.021,97.415 665.967,103.47 658.498,103.47 C651.029,103.47 644.974,97.415 644.974,89.946 C644.974,82.477 651.029,76.422 658.498,76.422" id="Fill-134" fill="#FFFFFF" fill-rule="nonzero"></path>
                <path d="M574.667,87.692 C575.912,87.692 576.921,88.701 576.921,89.946 C576.921,91.191 575.912,92.2 574.667,92.2 C573.422,92.2 572.413,91.191 572.413,89.946 C572.413,88.701 573.422,87.692 574.667,87.692" id="Fill-136" fill="#FFFFFF" fill-rule="nonzero"></path>
                <path d="M574.667,0.1656 C578.402,0.1656 581.429,3.1926 581.429,6.9276 C581.429,10.6626 578.402,13.6896 574.667,13.6896 C570.933,13.6896 567.905,10.6626 567.905,6.9276 C567.905,3.1926 570.933,0.1656 574.667,0.1656" id="Fill-140" fill="#FFFFFF" fill-rule="nonzero"></path>
                <path d="M742.3281,0.1656 C746.0631,0.1656 749.0911,3.1926 749.0911,6.9276 C749.0911,10.6626 746.0631,13.6896 742.3281,13.6896 C738.5941,13.6896 735.5661,10.6626 735.5661,6.9276 C735.5661,3.1926 738.5941,0.1656 742.3281,0.1656" id="Fill-142" fill="#FFFFFF" fill-rule="nonzero"></path>
                <path d="M144,437.396 L144,414" id="Stroke-144" stroke="#017FFF" stroke-width="5.849"></path>
                <path d="M132,425 L155.396,425" id="Stroke-146" stroke="#017FFF" stroke-width="5.849"></path>
                <path d="M81.979,978.8873 L912.244,978.8873" id="Stroke-155" stroke="#FFFFFF" stroke-width="0.877"></path>
            </g>
            <g id="Group-2" transform="translate(1069.000000, 0.000000)">
                <polyline id="Stroke-6" stroke="#16CAD8" stroke-width="8.394" stroke-linejoin="round" points="0.683427576 4.89195684 181.354031 109.068603 212.845631 90.9081712"></polyline>
                <path d="M181.909091,106.636364 L181.909091,277.340616" id="Stroke-10" stroke="#16CAD8" stroke-width="8.394" stroke-linejoin="round"></path>
                <polygon id="Stroke-12" stroke="#FFFFFF" stroke-width="2.099" stroke-linejoin="round" points="181.349661 217.9288 86.9571594 163.498627 86.9571594 54.6382787 181.349661 0.208105045 275.742163 54.6382787 275.742163 163.498627"></polygon>
                <path d="M24.23004,35.353157 C16.0875382,35.353157 9.48662182,28.7603899 9.48662182,20.6279406 C9.48662182,12.4954912 16.0875382,5.90272418 24.23004,5.90272418 C32.3725418,5.90272418 38.9734582,12.4954912 38.9734582,20.6279406 C38.9734582,28.7603899 32.3725418,35.353157 24.23004,35.353157" id="Fill-24" fill="#005DF2" fill-rule="nonzero"></path>
                <polygon id="Fill-36" fill="#009DFF" fill-rule="nonzero" points="98.8650539 137.198076 98.8650539 106.524719 75.0492648 93.0073916 75.0492648 123.680247"></polygon>
                <polygon id="Fill-38" fill="#52D2DF" fill-rule="nonzero" points="98.8650539 181.388862 98.8650539 150.715505 75.0492648 137.198177 75.0492648 167.871033"></polygon>
                <polygon id="Fill-40" fill="#B9E8F2" fill-rule="nonzero" points="98.8650539 225.579597 98.8650539 194.90624 75.0492648 181.388912 75.0492648 212.061769"></polygon>
            </g>
            <path d="M1114.96336,795.997232 C1104.49024,795.997232 1096,787.517474 1096,777.058003 L1096,777.057284 C1096,766.597813 1104.49024,758.118055 1114.96336,758.118055 C1125.43648,758.118055 1133.926,766.597813 1133.926,777.057284 L1133.926,777.058003 C1133.926,787.517474 1125.43648,795.997232 1114.96336,795.997232" id="Fill-42" fill="#0FD895" fill-rule="nonzero"></path>
            <polygon id="Stroke-44" stroke="#FFFFFF" stroke-width="2.583" stroke-linejoin="round" points="1213.29858 858.686534 1114.96314 801.982466 1114.96314 688.575048 1213.29858 631.87098 1311.63402 688.575048 1311.63402 801.982466"></polygon>
            <path d="M1262.45702,845.810706 C1218.98414,845.810706 1183.7423,810.612375 1183.7423,767.193165 C1183.7423,723.773236 1218.98414,688.574904 1262.45702,688.574904 C1305.9299,688.574904 1341.17174,723.773236 1341.17174,767.193165 C1341.17174,810.612375 1305.9299,845.810706 1262.45702,845.810706" id="Fill-46" fill="#52D2DF" fill-rule="nonzero"></path>
            <polyline id="Stroke-48" stroke="#FFFFFF" stroke-width="2.583" stroke-linejoin="round" points="1114.96329 688.57512 1213.30305 745.279189 1311.63417 688.57512"></polyline>
            <path d="M1213.30334,745.278901 L1213.30334,858.686319" id="Stroke-50" stroke="#FFFFFF" stroke-width="2.583" stroke-linejoin="round"></path>
        </g>
    </g>
</svg>