<?xml version="1.0" encoding="UTF-8"?>
<svg width="450px" height="236px" viewBox="0 0 450 236" version="1.1" xmlns="http://www.w3.org/2000/svg" xmlns:xlink="http://www.w3.org/1999/xlink">
    <!-- Generator: Sketch 50.2 (55047) - http://www.bohemiancoding.com/sketch -->
    <title>Group 13</title>
    <desc>Created with Sketch.</desc>
    <defs></defs>
    <g id="Web" stroke="none" stroke-width="1" fill="none" fill-rule="evenodd">
        <g id="Desktop-HD" transform="translate(-43.000000, -6704.000000)">
            <g id="BG" transform="translate(-839.000000, -29.000000)">
                <g id="Group-45" transform="translate(898.500000, 6220.500000) rotate(-90.000000) translate(-898.500000, -6220.500000) translate(150.000000, 5787.000000)">
                    <g id="Group-13" transform="translate(0.000000, 417.000000)">
                        <path d="M8.9194,225.1249 C7.2994,225.1249 5.9864,223.8119 5.9864,222.1919 C5.9864,220.5719 7.2994,219.2579 8.9194,219.2579 C10.5394,219.2579 11.8524,220.5719 11.8524,222.1919 C11.8524,223.8119 10.5394,225.1249 8.9194,225.1249" id="Fill-5" fill="#FFFFFF"></path>
                        <path d="M118.0187,225.1249 C116.3987,225.1249 115.0857,223.8119 115.0857,222.1919 C115.0857,220.5719 116.3987,219.2579 118.0187,219.2579 C119.6387,219.2579 120.9517,220.5719 120.9517,222.1919 C120.9517,223.8119 119.6387,225.1249 118.0187,225.1249" id="Fill-7" fill="#FFFFFF"></path>
                        <path d="M9.7127,122.9497 C4.8527,122.9497 0.9127,119.0097 0.9127,114.1497 C0.9127,109.2897 4.8527,105.3497 9.7127,105.3497 C14.5727,105.3497 18.5127,109.2897 18.5127,114.1497 C18.5127,119.0097 14.5727,122.9497 9.7127,122.9497" id="Fill-9" fill="#FFFFFF"></path>
                        <path d="M118.812,117.0829 C117.192,117.0829 115.879,115.7699 115.879,114.1499 C115.879,112.5299 117.192,111.2159 118.812,111.2159 C120.432,111.2159 121.745,112.5299 121.745,114.1499 C121.745,115.7699 120.432,117.0829 118.812,117.0829" id="Fill-15" fill="#FFFFFF"></path>
                        <path d="M118.812,6.2922 C117.192,6.2922 115.879,4.9792 115.879,3.3592 C115.879,1.7392 117.192,0.4252 118.812,0.4252 C120.432,0.4252 121.745,1.7392 121.745,3.3592 C121.745,4.9792 120.432,6.2922 118.812,6.2922" id="Fill-17" fill="#FFFFFF"></path>
                        <path d="M227.9113,117.0829 C226.2913,117.0829 224.9783,115.7699 224.9783,114.1499 C224.9783,112.5299 226.2913,111.2159 227.9113,111.2159 C229.5313,111.2159 230.8443,112.5299 230.8443,114.1499 C230.8443,115.7699 229.5313,117.0829 227.9113,117.0829" id="Fill-19" fill="#FFFFFF"></path>
                        <path d="M227.118,230.9916 C222.258,230.9916 218.318,227.0516 218.318,222.1916 C218.318,217.3316 222.258,213.3916 227.118,213.3916 C231.978,213.3916 235.918,217.3316 235.918,222.1916 C235.918,227.0516 231.978,230.9916 227.118,230.9916" id="Fill-29" fill="#FFFFFF"></path>
                        <path d="M8.9194,341.7823 C4.0594,341.7823 0.1194,337.8423 0.1194,332.9823 C0.1194,328.1223 4.0594,324.1823 8.9194,324.1823 C13.7794,324.1823 17.7194,328.1223 17.7194,332.9823 C17.7194,337.8423 13.7794,341.7823 8.9194,341.7823" id="Fill-33" fill="#FFFFFF"></path>
                        <path d="M118.0187,335.9156 C116.3987,335.9156 115.0857,334.6026 115.0857,332.9826 C115.0857,331.3626 116.3987,330.0486 118.0187,330.0486 C119.6387,330.0486 120.9517,331.3626 120.9517,332.9826 C120.9517,334.6026 119.6387,335.9156 118.0187,335.9156" id="Fill-35" fill="#FFFFFF"></path>
                        <path d="M227.118,335.9156 C225.498,335.9156 224.185,334.6026 224.185,332.9826 C224.185,331.3626 225.498,330.0486 227.118,330.0486 C228.738,330.0486 230.051,331.3626 230.051,332.9826 C230.051,334.6026 228.738,335.9156 227.118,335.9156" id="Fill-37" fill="#FFFFFF"></path>
                        <path d="M227.118,449.8243 C222.258,449.8243 218.318,445.8843 218.318,441.0243 C218.318,436.1643 222.258,432.2243 227.118,432.2243 C231.978,432.2243 235.918,436.1643 235.918,441.0243 C235.918,445.8843 231.978,449.8243 227.118,449.8243" id="Fill-39" fill="#FFFFFF"></path>
                        <path d="M173.7434,262.4718 L173.7434,293.4928" id="Stroke-41" stroke="#0FD895" stroke-width="7.755"></path>
                        <path d="M189.2538,277.9822 L158.2328,277.9822" id="Stroke-43" stroke="#0FD895" stroke-width="7.755"></path>
                    </g>
                </g>
            </g>
        </g>
    </g>
</svg>