<?xml version="1.0" encoding="UTF-8"?>
<svg width="424px" height="365px" viewBox="0 0 424 365" version="1.1" xmlns="http://www.w3.org/2000/svg" xmlns:xlink="http://www.w3.org/1999/xlink">
    <!-- Generator: Sketch 50.2 (55047) - http://www.bohemiancoding.com/sketch -->
    <title>shift_money_logo</title>
    <desc>Created with Sketch.</desc>
    <defs></defs>
    <g id="Page-1" stroke="none" stroke-width="1" fill="none" fill-rule="evenodd">
        <g id="shift_money_logo" fill="#017FFF" fill-rule="nonzero">
            <path d="M0.423,288.231 L0.423,0.813 L423.578,0.813 L423.578,288.231 L0.423,288.231 Z M15.418,273.235 L408.582,273.235 L408.582,15.809 L15.418,15.809 L15.418,273.235 Z M44.0524,107.9896 L57.2054,95.9546 C61.7744,102.0196 68.0254,105.1876 75.2084,105.1876 C81.0854,105.1876 84.7214,103.1376 84.7214,99.6866 C84.7214,96.3276 82.8574,94.9266 76.6994,93.6236 L68.3054,91.7566 C55.5264,88.9566 49.0904,81.9616 49.0904,70.9546 C49.0904,58.3626 59.5364,50.7136 76.4214,50.7136 C87.5214,50.7136 97.2234,54.1646 103.8444,60.6936 L92.7444,73.1016 C88.1734,68.0646 81.2704,64.9846 74.9274,64.9846 C69.7974,64.9846 66.6264,66.7566 66.6264,69.6506 C66.6264,72.7266 68.7714,74.2196 75.5814,75.7136 L85.0954,77.8566 C97.6894,80.6566 103.1934,86.8136 103.1934,97.9146 C103.1934,111.7186 92.2784,120.1146 74.4614,120.1146 C61.5884,120.1146 50.3954,115.7316 44.0524,107.9896 Z M110.364,50.9014 L129.206,50.9014 L129.206,79.9114 C132.191,73.6614 137.043,70.5834 143.758,70.5834 C153.833,70.5834 158.963,77.0174 158.963,89.5184 L158.963,118.5284 L140.121,118.5284 L140.121,91.4754 C140.121,86.8144 138.442,84.4804 134.991,84.4804 C131.259,84.4804 129.206,87.4654 129.206,92.9694 L129.206,118.5284 L110.364,118.5284 L110.364,50.9014 Z M168.748,118.529 L168.748,71.887 L187.59,71.887 L187.59,118.529 L168.748,118.529 Z M168.563,66.293 L168.563,50.621 L187.779,50.621 L187.779,66.293 L168.563,66.293 Z M230.1247,83.8265 L219.8637,83.8265 L219.8637,118.5285 L201.0197,118.5285 L201.0197,83.8265 L194.1167,83.8265 L194.1167,71.8865 L201.0197,71.8865 L201.0197,69.0895 C201.0197,56.5905 208.0167,50.3395 221.9137,50.3395 C224.6207,50.3395 227.5127,50.7135 230.1247,51.2725 L230.1247,64.2375 C228.6307,63.9595 227.1397,63.7735 225.8337,63.7735 C222.0097,63.7735 219.8637,65.7315 219.8637,69.0895 L219.8637,71.8865 L230.1247,71.8865 L230.1247,83.8265 Z M235.2453,71.8866 L242.9873,71.8866 L242.9873,61.2546 L261.8293,54.1646 L261.8293,71.8866 L272.5563,71.8866 L272.5563,83.8266 L261.8293,83.8266 L261.8293,97.7266 C261.8293,102.0196 264.2553,104.4436 268.6393,104.4436 C270.2253,104.4436 271.3463,104.3506 272.5563,104.1626 L272.5563,118.5286 C268.3613,119.1826 265.8423,119.4606 263.2303,119.4606 C249.5163,119.4606 242.9873,114.1446 242.9873,103.0446 L242.9873,83.8266 L235.2453,83.8266 L235.2453,71.8866 Z M45.824,241.223 L45.824,231.426 L91.719,231.426 L91.719,241.223 L45.824,241.223 Z M45.6212,363.1493 L45.6212,314.6923 L54.5542,314.6923 L62.8592,339.5463 L71.1642,314.6923 L80.0972,314.6923 L80.0972,363.1493 L70.7492,363.1493 L70.7492,333.1083 L65.8372,347.5033 L59.8812,347.5033 L54.9692,333.1083 L54.9692,363.1493 L45.6212,363.1493 Z M110.0419,313.6552 C121.1169,313.6552 127.9699,321.8932 127.9699,338.1612 C127.9699,355.9492 121.3249,364.1872 110.0419,364.1872 C98.7589,364.1872 92.1139,355.9492 92.1139,338.1612 C92.1139,321.8932 98.9669,313.6552 110.0419,313.6552 Z M110.0419,322.6552 C103.9519,322.6552 101.4619,326.8102 101.4619,338.1612 C101.4619,344.5982 102.0839,349.0962 103.3969,351.5192 C104.7139,353.9412 106.9289,355.1862 110.0419,355.1862 C113.1589,355.1862 115.3019,354.0142 116.6199,351.5912 C117.9319,349.1682 118.6269,344.6662 118.6269,338.1612 C118.6269,326.8782 116.1369,322.6552 110.0419,322.6552 Z M141.5115,363.1493 L141.5115,314.6923 L150.1645,314.6923 L167.3295,345.7763 L167.3295,314.6923 L176.7455,314.6923 L176.7455,363.1493 L168.2325,363.1493 L150.8545,332.0703 L150.8545,363.1493 L141.5115,363.1493 Z M191.8118,363.1493 L191.8118,314.6923 L222.4758,314.6923 L222.4758,323.6933 L201.1548,323.6933 L201.1548,333.1753 L220.5358,333.1753 L220.5358,342.1763 L201.1548,342.1763 L201.1548,354.1493 L222.4758,354.1493 L222.4758,363.1493 L191.8118,363.1493 Z M249.0999,363.1493 L249.0999,342.7313 L233.3149,314.6923 L243.6269,314.6923 L253.8049,333.8703 L264.1909,314.6923 L274.4309,314.6923 L258.4429,342.7313 L258.4429,363.1493 L249.0999,363.1493 Z"></path>
        </g>
    </g>
</svg>