<?xml version="1.0" encoding="UTF-8"?>
<svg width="1231px" height="630px" viewBox="0 0 1231 630" version="1.1" xmlns="http://www.w3.org/2000/svg" xmlns:xlink="http://www.w3.org/1999/xlink">
    <!-- Generator: Sketch 50.2 (55047) - http://www.bohemiancoding.com/sketch -->
    <title>Group 12</title>
    <desc>Created with Sketch.</desc>
    <defs></defs>
    <g id="Web" stroke="none" stroke-width="1" fill="none" fill-rule="evenodd">
        <g id="Desktop-HD" transform="translate(-145.000000, -2499.000000)">
            <g id="BG" transform="translate(-839.000000, -29.000000)">
                <g id="Group" transform="translate(0.000000, 29.000000)">
                    <g id="Group-122">
                        <g id="Group-18">
                            <g id="Group-12" transform="translate(984.000000, 2499.000000)">
                                <path d="M1085,27.83 C1085,12.918 1072.911,0.83 1058,0.83 C1043.088,0.83 1031,12.918 1031,27.83 C1031,42.742 1043.088,54.83 1058,54.83 C1072.911,54.83 1085,42.742 1085,27.83" id="Fill-2" fill="#E2E3E8"></path>
                                <path d="M54,27.83 C54,12.918 41.911,0.83 27,0.83 C12.088,0.83 0,12.918 0,27.83 C0,42.742 12.088,54.83 27,54.83 C41.911,54.83 54,42.742 54,27.83" id="Fill-2-Copy" fill="#082A82"></path>
                                <path d="M1203.8226,608.985 C1188.8846,608.985 1176.7746,596.876 1176.7746,581.937 C1176.7746,566.999 1188.8846,554.889 1203.8226,554.889 C1218.7606,554.889 1230.8706,566.999 1230.8706,581.937 C1230.8706,596.876 1218.7606,608.985 1203.8226,608.985" id="Fill-4" fill="#0FD895"></path>
                                <path d="M1156.8832,628.8766 C1130.9592,628.8766 1109.9442,607.8606 1109.9442,581.9376 C1109.9442,556.0136 1130.9592,534.9976 1156.8832,534.9976 C1182.8072,534.9976 1203.8222,556.0136 1203.8222,581.9376 C1203.8222,607.8606 1182.8072,628.8766 1156.8832,628.8766 Z" id="Stroke-6" stroke="#FFFFFF" stroke-width="0.877"></path>
                                <path d="M452.8295,167.6441 L324.5775,295.8961" id="Stroke-8" stroke="#017FFF" stroke-width="45.344"></path>
                                <path d="M452.8295,295.8961 L324.5775,167.6441" id="Stroke-10" stroke="#017FFF" stroke-width="45.344"></path>
                                <path d="M773,472 L773,498" id="Stroke-22" stroke="#0FD895" stroke-width="5.829"></path>
                                <path d="M786,485 L760,485" id="Stroke-24" stroke="#0FD895" stroke-width="5.829"></path>
                            </g>
                        </g>
                    </g>
                </g>
            </g>
        </g>
    </g>
</svg>