<?xml version="1.0" encoding="UTF-8"?>
<svg width="867px" height="377px" viewBox="0 0 867 377" version="1.1" xmlns="http://www.w3.org/2000/svg" xmlns:xlink="http://www.w3.org/1999/xlink">
    <!-- Generator: Sketch 50.2 (55047) - http://www.bohemiancoding.com/sketch -->
    <title>Group 17</title>
    <desc>Created with Sketch.</desc>
    <defs></defs>
    <g id="Web" stroke="none" stroke-width="1" fill="none" fill-rule="evenodd">
        <g id="Desktop-HD" transform="translate(-197.000000, -8435.000000)">
            <g id="BG" transform="translate(-839.000000, -29.000000)">
                <g id="Group" transform="translate(0.000000, 29.000000)">
                    <g id="Group-122">
                        <g id="Group-18">
                            <g id="Group-17" transform="translate(1036.000000, 8435.000000)">
                                <path d="M390.259766,23.9961477 L392.997559,0.79139667 L404.904785,0.79139667 L399.255371,23.9961477 L390.259766,23.9961477 Z M406.989853,23.9961477 L409.684624,0.79139667 L421.677896,0.79139667 L415.985459,23.9961477 L406.989853,23.9961477 Z" id="„" fill="#FFFFFF"></path>
                                <path d="M638.6909,359.3806 C637.0709,359.3806 635.7579,358.0676 635.7579,356.4476 C635.7579,354.8276 637.0709,353.5136 638.6909,353.5136 C640.3109,353.5136 641.6239,354.8276 641.6239,356.4476 C641.6239,358.0676 640.3109,359.3806 638.6909,359.3806" id="Fill-5" fill="#FFFFFF"></path>
                                <path d="M638.6909,250.2813 C637.0709,250.2813 635.7579,248.9683 635.7579,247.3483 C635.7579,245.7283 637.0709,244.4143 638.6909,244.4143 C640.3109,244.4143 641.6239,245.7283 641.6239,247.3483 C641.6239,248.9683 640.3109,250.2813 638.6909,250.2813" id="Fill-7" fill="#FFFFFF"></path>
                                <path d="M530.6497,376.1873 C525.7897,376.1873 521.8497,372.2473 521.8497,367.3873 C521.8497,362.5273 525.7897,358.5873 530.6497,358.5873 C535.5097,358.5873 539.4497,362.5273 539.4497,367.3873 C539.4497,372.2473 535.5097,376.1873 530.6497,376.1873" id="Fill-9" fill="#FFFFFF"></path>
                                <path d="M105.0871,267.8813 C100.2271,267.8813 96.2871,263.9413 96.2871,259.0813 C96.2871,254.2213 100.2271,250.2813 105.0871,250.2813 C109.9471,250.2813 113.8871,254.2213 113.8871,259.0813 C113.8871,263.9413 109.9471,267.8813 105.0871,267.8813" id="Fill-11" fill="#FFFFFF"></path>
                                <path d="M207.0777,376.1873 C202.2177,376.1873 198.2777,372.2473 198.2777,367.3873 C198.2777,362.5273 202.2177,358.5873 207.0777,358.5873 C211.9377,358.5873 215.8777,362.5273 215.8777,367.3873 C215.8777,372.2473 211.9377,376.1873 207.0777,376.1873" id="Fill-13" fill="#FFFFFF"></path>
                                <path d="M530.6489,249.488 C529.0289,249.488 527.7159,248.175 527.7159,246.555 C527.7159,244.935 529.0289,243.621 530.6489,243.621 C532.2689,243.621 533.5819,244.935 533.5819,246.555 C533.5819,248.175 532.2689,249.488 530.6489,249.488" id="Fill-15" fill="#FFFFFF"></path>
                                <path d="M419.8582,249.488 C418.2382,249.488 416.9252,248.175 416.9252,246.555 C416.9252,244.935 418.2382,243.621 419.8582,243.621 C421.4782,243.621 422.7912,244.935 422.7912,246.555 C422.7912,248.175 421.4782,249.488 419.8582,249.488" id="Fill-17" fill="#FFFFFF"></path>
                                <path d="M530.6489,140.3887 C529.0289,140.3887 527.7159,139.0757 527.7159,137.4557 C527.7159,135.8357 529.0289,134.5217 530.6489,134.5217 C532.2689,134.5217 533.5819,135.8357 533.5819,137.4557 C533.5819,139.0757 532.2689,140.3887 530.6489,140.3887" id="Fill-19" fill="#FFFFFF"></path>
                                <path d="M309.0675,140.3887 C307.4475,140.3887 306.1345,139.0757 306.1345,137.4557 C306.1345,135.8357 307.4475,134.5217 309.0675,134.5217 C310.6875,134.5217 312.0005,135.8357 312.0005,137.4557 C312.0005,139.0757 310.6875,140.3887 309.0675,140.3887" id="Fill-21" fill="#FFFFFF"></path>
                                <path d="M105.0864,140.3887 C103.4664,140.3887 102.1534,139.0757 102.1534,137.4557 C102.1534,135.8357 103.4664,134.5217 105.0864,134.5217 C106.7064,134.5217 108.0194,135.8357 108.0194,137.4557 C108.0194,139.0757 106.7064,140.3887 105.0864,140.3887" id="Fill-23" fill="#FFFFFF"></path>
                                <path d="M3.0958,140.3887 C1.4758,140.3887 0.1628,139.0757 0.1628,137.4557 C0.1628,135.8357 1.4758,134.5217 3.0958,134.5217 C4.7158,134.5217 6.0288,135.8357 6.0288,137.4557 C6.0288,139.0757 4.7158,140.3887 3.0958,140.3887" id="Fill-25" fill="#FFFFFF"></path>
                                <path d="M3.0958,249.488 C1.4758,249.488 0.1628,248.175 0.1628,246.555 C0.1628,244.935 1.4758,243.621 3.0958,243.621 C4.7158,243.621 6.0288,244.935 6.0288,246.555 C6.0288,248.175 4.7158,249.488 3.0958,249.488" id="Fill-27" fill="#FFFFFF"></path>
                                <path d="M638.6916,158.782 C633.8316,158.782 629.8916,154.842 629.8916,149.982 C629.8916,145.122 633.8316,141.182 638.6916,141.182 C643.5516,141.182 647.4916,145.122 647.4916,149.982 C647.4916,154.842 643.5516,158.782 638.6916,158.782" id="Fill-29" fill="#FFFFFF"></path>
                                <path d="M749.4823,376.9806 C744.6223,376.9806 740.6823,373.0406 740.6823,368.1806 C740.6823,363.3206 744.6223,359.3806 749.4823,359.3806 C754.3423,359.3806 758.2823,363.3206 758.2823,368.1806 C758.2823,373.0406 754.3423,376.9806 749.4823,376.9806" id="Fill-33" fill="#FFFFFF"></path>
                                <path d="M749.4816,250.2813 C747.8616,250.2813 746.5486,248.9683 746.5486,247.3483 C746.5486,245.7283 747.8616,244.4143 749.4816,244.4143 C751.1016,244.4143 752.4146,245.7283 752.4146,247.3483 C752.4146,248.9683 751.1016,250.2813 749.4816,250.2813" id="Fill-35" fill="#FFFFFF"></path>
                                <path d="M749.4816,141.182 C747.8616,141.182 746.5486,139.869 746.5486,138.249 C746.5486,136.629 747.8616,135.315 749.4816,135.315 C751.1016,135.315 752.4146,136.629 752.4146,138.249 C752.4146,139.869 751.1016,141.182 749.4816,141.182" id="Fill-37" fill="#FFFFFF"></path>
                                <path d="M857.5243,158.782 C852.6643,158.782 848.7243,154.842 848.7243,149.982 C848.7243,145.122 852.6643,141.182 857.5243,141.182 C862.3843,141.182 866.3243,145.122 866.3243,149.982 C866.3243,154.842 862.3843,158.782 857.5243,158.782" id="Fill-39" fill="#FFFFFF"></path>
                                <path d="M692,194 L692,225.021" id="Stroke-41" stroke="#0FD895" stroke-width="7.755"></path>
                                <path d="M708.021,209 L677,209" id="Stroke-43" stroke="#0FD895" stroke-width="7.755"></path>
                            </g>
                        </g>
                    </g>
                </g>
            </g>
        </g>
    </g>
</svg>