<?xml version="1.0" encoding="UTF-8"?>
<svg width="1440px" height="1137px" viewBox="0 0 1440 1137" version="1.1" xmlns="http://www.w3.org/2000/svg" xmlns:xlink="http://www.w3.org/1999/xlink">
    <!-- Generator: Sketch 50.2 (55047) - http://www.bohemiancoding.com/sketch -->
    <title>top-bg</title>
    <desc>Created with Sketch.</desc>
    <defs></defs>
    <g id="Page-1" stroke="none" stroke-width="1" fill="none" fill-rule="evenodd">
        <g id="top-bg">
            <rect id="Rectangle-2" fill="#092E82" fill-rule="nonzero" x="0" y="0" width="1440" height="1137"></rect>
            <path d="M999.207,622.6647 L999.207,646.0607" id="Stroke-94" stroke="#0FD895" stroke-width="5.849"></path>
            <path d="M1010.9053,634.3624 L987.5093,634.3624" id="Stroke-96" stroke="#0FD895" stroke-width="5.849"></path>
            <path d="M917.7734,476.7086 L917.7734,453.3126" id="Stroke-148" stroke="#0FD895" stroke-width="5.849"></path>
            <path d="M906.0752,465.0104 L929.4712,465.0104" id="Stroke-150" stroke="#0FD895" stroke-width="5.849"></path>
            <path d="M1335.1563,372.2384 L1335.1563,395.6344" id="Stroke-90" stroke="#0FD895" stroke-width="5.849"></path>
            <path d="M1346.8545,383.9366 L1323.4585,383.9366" id="Stroke-92" stroke="#0FD895" stroke-width="5.849"></path>
            <path d="M1152.6992,841.1666 C1152.6992,856.1046 1140.5892,868.2146 1125.6512,868.2146 C1110.7132,868.2146 1098.6032,856.1046 1098.6032,841.1666 C1098.6032,826.2286 1110.7132,814.1186 1125.6512,814.1186 C1140.5892,814.1186 1152.6992,826.2286 1152.6992,841.1666" id="Fill-2" fill="#0FD895" fill-rule="nonzero"></path>
            <path d="M1172.5908,841.1666 C1172.5908,867.0906 1151.5748,888.1056 1125.6518,888.1056 C1099.7278,888.1056 1078.7118,867.0906 1078.7118,841.1666 C1078.7118,815.2426 1099.7278,794.2276 1125.6518,794.2276 C1151.5748,794.2276 1172.5908,815.2426 1172.5908,841.1666 Z" id="Stroke-4" stroke="#FFFFFF" stroke-width="0.877"></path>
            <path d="M957.9902,275.0806 C950.5342,275.0806 944.4902,269.0366 944.4902,261.5806 C944.4902,254.1246 950.5342,248.0806 957.9902,248.0806 C965.4452,248.0806 971.4902,254.1246 971.4902,261.5806 C971.4902,269.0366 965.4452,275.0806 957.9902,275.0806" id="Fill-6" fill="#FF697E" fill-rule="nonzero"></path>
            <path d="M668.6055,674.6988 C668.6055,700.6228 647.5905,721.6378 621.6665,721.6378 C595.7425,721.6378 574.7275,700.6228 574.7275,674.6988 C574.7275,648.7748 595.7425,627.7598 621.6665,627.7598 C647.5905,627.7598 668.6055,648.7748 668.6055,674.6988 Z" id="Stroke-8" stroke="#FFFFFF" stroke-width="0.877"></path>
            <path d="M1208.2959,425.8209 C1208.2959,380.1779 1171.2949,343.1759 1125.6509,343.1759 C1080.0079,343.1759 1043.0069,380.1779 1043.0069,425.8209 C1043.0069,471.4649 1080.0079,508.4659 1125.6509,508.4659 C1171.2949,508.4659 1208.2959,471.4649 1208.2959,425.8209" id="Fill-16" fill="#017FFF" fill-rule="nonzero"></path>
            <path d="M190.7876,897.4645 C190.7876,913.7295 177.6016,926.9145 161.3376,926.9145 C145.0726,926.9145 131.8876,913.7295 131.8876,897.4645 C131.8876,881.1995 145.0726,868.0145 161.3376,868.0145 C177.6016,868.0145 190.7876,881.1995 190.7876,897.4645" id="Fill-18" fill="#FF697E" fill-rule="nonzero"></path>
            <path d="M73.2231,261.5806 C73.2231,269.0496 67.1681,275.1046 59.6991,275.1046 C52.2301,275.1046 46.1751,269.0496 46.1751,261.5806 C46.1751,254.1116 52.2301,248.0566 59.6991,248.0566 C67.1681,248.0566 73.2231,254.1116 73.2231,261.5806" id="Fill-20" fill="#0FD895" fill-rule="nonzero"></path>
            <path d="M1377.1436,828.8238 L1377.1436,852.1408" id="Stroke-22" stroke="#017FFF" stroke-width="5.829"></path>
            <path d="M1388.8018,840.483 L1365.4848,840.483" id="Stroke-24" stroke="#017FFF" stroke-width="5.829"></path>
            <path d="M734.3398,938.3912 L619.2308,1053.5002" id="Stroke-26" stroke="#017FFF" stroke-width="40.697"></path>
            <path d="M734.3398,1053.5006 L619.2308,938.3916" id="Stroke-28" stroke="#017FFF" stroke-width="40.697"></path>
            <path d="M957.9902,511.5421 C956.7452,511.5421 955.7362,510.5331 955.7362,509.2881 C955.7362,508.0431 956.7452,507.0341 957.9902,507.0341 C959.2342,507.0341 960.2442,508.0431 960.2442,509.2881 C960.2442,510.5331 959.2342,511.5421 957.9902,511.5421" id="Fill-32" fill="#FFFFFF" fill-rule="nonzero"></path>
            <path d="M957.9902,433.0318 C954.2552,433.0318 951.2272,430.0038 951.2272,426.2698 C951.2272,422.5348 954.2552,419.5078 957.9902,419.5078 C961.7242,419.5078 964.7522,422.5348 964.7522,426.2698 C964.7522,430.0038 961.7242,433.0318 957.9902,433.0318" id="Fill-36" fill="#FFFFFF" fill-rule="nonzero"></path>
            <path d="M1041.8203,428.5235 C1040.5763,428.5235 1039.5663,427.5145 1039.5663,426.2695 C1039.5663,425.0245 1040.5763,424.0155 1041.8203,424.0155 C1043.0653,424.0155 1044.0743,425.0245 1044.0743,426.2695 C1044.0743,427.5145 1043.0653,428.5235 1041.8203,428.5235" id="Fill-38" fill="#FFFFFF" fill-rule="nonzero"></path>
            <path d="M1041.8203,511.5421 C1040.5763,511.5421 1039.5663,510.5331 1039.5663,509.2881 C1039.5663,508.0431 1040.5763,507.0341 1041.8203,507.0341 C1043.0653,507.0341 1044.0743,508.0431 1044.0743,509.2881 C1044.0743,510.5331 1043.0653,511.5421 1041.8203,511.5421" id="Fill-40" fill="#FFFFFF" fill-rule="nonzero"></path>
            <path d="M1125.6514,428.5235 C1124.4064,428.5235 1123.3974,427.5145 1123.3974,426.2695 C1123.3974,425.0245 1124.4064,424.0155 1125.6514,424.0155 C1126.8964,424.0155 1127.9054,425.0245 1127.9054,426.2695 C1127.9054,427.5145 1126.8964,428.5235 1125.6514,428.5235" id="Fill-42" fill="#FFFFFF" fill-rule="nonzero"></path>
            <path d="M1209.4814,439.7936 C1202.0124,439.7936 1195.9584,433.7386 1195.9584,426.2696 C1195.9584,418.8006 1202.0124,412.7456 1209.4814,412.7456 C1216.9514,412.7456 1223.0054,418.8006 1223.0054,426.2696 C1223.0054,433.7386 1216.9514,439.7936 1209.4814,439.7936" id="Fill-44" fill="#FFFFFF" fill-rule="nonzero"></path>
            <path d="M1293.3125,428.5235 C1292.0675,428.5235 1291.0585,427.5145 1291.0585,426.2695 C1291.0585,425.0245 1292.0675,424.0155 1293.3125,424.0155 C1294.5575,424.0155 1295.5665,425.0245 1295.5665,426.2695 C1295.5665,427.5145 1294.5575,428.5235 1293.3125,428.5235" id="Fill-46" fill="#FFFFFF" fill-rule="nonzero"></path>
            <path d="M1377.1436,428.5235 C1375.8986,428.5235 1374.8896,427.5145 1374.8896,426.2695 C1374.8896,425.0245 1375.8986,424.0155 1377.1436,424.0155 C1378.3876,424.0155 1379.3976,425.0245 1379.3976,426.2695 C1379.3976,427.5145 1378.3876,428.5235 1377.1436,428.5235" id="Fill-48" fill="#FFFFFF" fill-rule="nonzero"></path>
            <path d="M1209.4814,511.5421 C1208.2374,511.5421 1207.2274,510.5331 1207.2274,509.2881 C1207.2274,508.0431 1208.2374,507.0341 1209.4814,507.0341 C1210.7264,507.0341 1211.7364,508.0431 1211.7364,509.2881 C1211.7364,510.5331 1210.7264,511.5421 1209.4814,511.5421" id="Fill-50" fill="#FFFFFF" fill-rule="nonzero"></path>
            <path d="M1377.3252,516.0499 C1373.5912,516.0499 1370.5632,513.0229 1370.5632,509.2879 C1370.5632,505.5529 1373.5912,502.5259 1377.3252,502.5259 C1381.0592,502.5259 1384.0872,505.5529 1384.0872,509.2879 C1384.0872,513.0229 1381.0592,516.0499 1377.3252,516.0499" id="Fill-52" fill="#FFFFFF" fill-rule="nonzero"></path>
            <path d="M1125.6514,516.0499 C1121.9174,516.0499 1118.8894,513.0229 1118.8894,509.2879 C1118.8894,505.5529 1121.9174,502.5259 1125.6514,502.5259 C1129.3854,502.5259 1132.4134,505.5529 1132.4134,509.2879 C1132.4134,513.0229 1129.3854,516.0499 1125.6514,516.0499" id="Fill-54" fill="#FFFFFF" fill-rule="nonzero"></path>
            <path d="M1293.3125,511.5421 C1292.0675,511.5421 1291.0585,510.5331 1291.0585,509.2881 C1291.0585,508.0431 1292.0675,507.0341 1293.3125,507.0341 C1294.5575,507.0341 1295.5665,508.0431 1295.5665,509.2881 C1295.5665,510.5331 1294.5575,511.5421 1293.3125,511.5421" id="Fill-56" fill="#FFFFFF" fill-rule="nonzero"></path>
            <path d="M1041.8203,676.7008 C1040.5763,676.7008 1039.5663,675.6908 1039.5663,674.4458 C1039.5663,673.2018 1040.5763,672.1918 1041.8203,672.1918 C1043.0653,672.1918 1044.0743,673.2018 1044.0743,674.4458 C1044.0743,675.6908 1043.0653,676.7008 1041.8203,676.7008" id="Fill-60" fill="#FFFFFF" fill-rule="nonzero"></path>
            <path d="M1041.8203,593.6822 C1040.5763,593.6822 1039.5663,592.6732 1039.5663,591.4282 C1039.5663,590.1832 1040.5763,589.1742 1041.8203,589.1742 C1043.0653,589.1742 1044.0743,590.1832 1044.0743,591.4282 C1044.0743,592.6732 1043.0653,593.6822 1041.8203,593.6822" id="Fill-62" fill="#FFFFFF" fill-rule="nonzero"></path>
            <path d="M1125.6514,593.6822 C1124.4064,593.6822 1123.3974,592.6732 1123.3974,591.4282 C1123.3974,590.1832 1124.4064,589.1742 1125.6514,589.1742 C1126.8964,589.1742 1127.9054,590.1832 1127.9054,591.4282 C1127.9054,592.6732 1126.8964,593.6822 1125.6514,593.6822" id="Fill-64" fill="#FFFFFF" fill-rule="nonzero"></path>
            <path d="M1209.4814,604.9518 C1202.0124,604.9518 1195.9584,598.8968 1195.9584,591.4288 C1195.9584,583.9588 1202.0124,577.9048 1209.4814,577.9048 C1216.9514,577.9048 1223.0054,583.9588 1223.0054,591.4288 C1223.0054,598.8968 1216.9514,604.9518 1209.4814,604.9518" id="Fill-66" fill="#FFFFFF" fill-rule="nonzero"></path>
            <path d="M1293.3125,593.6822 C1292.0675,593.6822 1291.0585,592.6732 1291.0585,591.4282 C1291.0585,590.1832 1292.0675,589.1742 1293.3125,589.1742 C1294.5575,589.1742 1295.5665,590.1832 1295.5665,591.4282 C1295.5665,592.6732 1294.5575,593.6822 1293.3125,593.6822" id="Fill-68" fill="#FFFFFF" fill-rule="nonzero"></path>
            <path d="M1377.1436,593.6822 C1375.8986,593.6822 1374.8896,592.6732 1374.8896,591.4282 C1374.8896,590.1832 1375.8986,589.1742 1377.1436,589.1742 C1378.3876,589.1742 1379.3976,590.1832 1379.3976,591.4282 C1379.3976,592.6732 1378.3876,593.6822 1377.1436,593.6822" id="Fill-70" fill="#FFFFFF" fill-rule="nonzero"></path>
            <path d="M1209.4814,676.7008 C1208.2374,676.7008 1207.2274,675.6908 1207.2274,674.4458 C1207.2274,673.2018 1208.2374,672.1918 1209.4814,672.1918 C1210.7264,672.1918 1211.7364,673.2018 1211.7364,674.4458 C1211.7364,675.6908 1210.7264,676.7008 1209.4814,676.7008" id="Fill-72" fill="#FFFFFF" fill-rule="nonzero"></path>
            <path d="M1293.3125,681.2086 C1289.5785,681.2086 1286.5505,678.1816 1286.5505,674.4456 C1286.5505,670.7116 1289.5785,667.6846 1293.3125,667.6846 C1297.0465,667.6846 1300.0745,670.7116 1300.0745,674.4456 C1300.0745,678.1816 1297.0465,681.2086 1293.3125,681.2086" id="Fill-74" fill="#FFFFFF" fill-rule="nonzero"></path>
            <path d="M1125.6514,681.2086 C1121.9174,681.2086 1118.8894,678.1816 1118.8894,674.4456 C1118.8894,670.7116 1121.9174,667.6846 1125.6514,667.6846 C1129.3854,667.6846 1132.4134,670.7116 1132.4134,674.4456 C1132.4134,678.1816 1129.3854,681.2086 1125.6514,681.2086" id="Fill-76" fill="#FFFFFF" fill-rule="nonzero"></path>
            <path d="M1377.1436,676.7008 C1375.8986,676.7008 1374.8896,675.6908 1374.8896,674.4458 C1374.8896,673.2018 1375.8986,672.1918 1377.1436,672.1918 C1378.3876,672.1918 1379.3976,673.2018 1379.3976,674.4458 C1379.3976,675.6908 1378.3876,676.7008 1377.1436,676.7008" id="Fill-78" fill="#FFFFFF" fill-rule="nonzero"></path>
            <path d="M1041.8203,1010.1412 C1040.5763,1010.1412 1039.5663,1009.1322 1039.5663,1007.8872 C1039.5663,1006.6422 1040.5763,1005.6332 1041.8203,1005.6332 C1043.0653,1005.6332 1044.0743,1006.6422 1044.0743,1007.8872 C1044.0743,1009.1322 1043.0653,1010.1412 1041.8203,1010.1412" id="Fill-80" fill="#FFFFFF" fill-rule="nonzero"></path>
            <path d="M1209.4814,1010.1412 C1208.2374,1010.1412 1207.2274,1009.1322 1207.2274,1007.8872 C1207.2274,1006.6422 1208.2374,1005.6332 1209.4814,1005.6332 C1210.7264,1005.6332 1211.7364,1006.6422 1211.7364,1007.8872 C1211.7364,1009.1322 1210.7264,1010.1412 1209.4814,1010.1412" id="Fill-82" fill="#FFFFFF" fill-rule="nonzero"></path>
            <path d="M1293.3125,1014.649 C1289.5785,1014.649 1286.5505,1011.622 1286.5505,1007.887 C1286.5505,1004.153 1289.5785,1001.126 1293.3125,1001.126 C1297.0465,1001.126 1300.0745,1004.153 1300.0745,1007.887 C1300.0745,1011.622 1297.0465,1014.649 1293.3125,1014.649" id="Fill-84" fill="#FFFFFF" fill-rule="nonzero"></path>
            <path d="M1125.6514,1014.649 C1121.9174,1014.649 1118.8894,1011.622 1118.8894,1007.887 C1118.8894,1004.153 1121.9174,1001.126 1125.6514,1001.126 C1129.3854,1001.126 1132.4134,1004.153 1132.4134,1007.887 C1132.4134,1011.622 1129.3854,1014.649 1125.6514,1014.649" id="Fill-86" fill="#FFFFFF" fill-rule="nonzero"></path>
            <path d="M1377.1436,1010.1412 C1375.8986,1010.1412 1374.8896,1009.1322 1374.8896,1007.8872 C1374.8896,1006.6422 1375.8986,1005.6332 1377.1436,1005.6332 C1378.3876,1005.6332 1379.3976,1006.6422 1379.3976,1007.8872 C1379.3976,1009.1322 1378.3876,1010.1412 1377.1436,1010.1412" id="Fill-88" fill="#FFFFFF" fill-rule="nonzero"></path>
            <path d="M957.9902,588.8321 C959.2342,588.8321 960.2442,589.8411 960.2442,591.0861 C960.2442,592.3311 959.2342,593.3401 957.9902,593.3401 C956.7452,593.3401 955.7362,592.3311 955.7362,591.0861 C955.7362,589.8411 956.7452,588.8321 957.9902,588.8321" id="Fill-98" fill="#FFFFFF" fill-rule="nonzero"></path>
            <path d="M957.9902,667.3424 C961.7242,667.3424 964.7522,670.3694 964.7522,674.1044 C964.7522,677.8384 961.7242,680.8654 957.9902,680.8654 C954.2552,680.8654 951.2272,677.8384 951.2272,674.1044 C951.2272,670.3694 954.2552,667.3424 957.9902,667.3424" id="Fill-102" fill="#FFFFFF" fill-rule="nonzero"></path>
            <path d="M874.1592,671.8502 C875.4042,671.8502 876.4132,672.8592 876.4132,674.1042 C876.4132,675.3492 875.4042,676.3582 874.1592,676.3582 C872.9142,676.3582 871.9052,675.3492 871.9052,674.1042 C871.9052,672.8592 872.9142,671.8502 874.1592,671.8502" id="Fill-104" fill="#FFFFFF" fill-rule="nonzero"></path>
            <path d="M874.1592,588.8321 C875.4042,588.8321 876.4132,589.8411 876.4132,591.0861 C876.4132,592.3311 875.4042,593.3401 874.1592,593.3401 C872.9142,593.3401 871.9052,592.3311 871.9052,591.0861 C871.9052,589.8411 872.9142,588.8321 874.1592,588.8321" id="Fill-106" fill="#FFFFFF" fill-rule="nonzero"></path>
            <path d="M790.3281,671.8502 C791.5731,671.8502 792.5821,672.8592 792.5821,674.1042 C792.5821,675.3492 791.5731,676.3582 790.3281,676.3582 C789.0841,676.3582 788.0741,675.3492 788.0741,674.1042 C788.0741,672.8592 789.0841,671.8502 790.3281,671.8502" id="Fill-108" fill="#FFFFFF" fill-rule="nonzero"></path>
            <path d="M706.498,660.5807 C713.967,660.5807 720.021,666.6357 720.021,674.1037 C720.021,681.5727 713.967,687.6287 706.498,687.6287 C699.029,687.6287 692.974,681.5727 692.974,674.1037 C692.974,666.6357 699.029,660.5807 706.498,660.5807" id="Fill-114" fill="#FFFFFF" fill-rule="nonzero"></path>
            <path d="M622.667,671.8502 C623.912,671.8502 624.921,672.8592 624.921,674.1042 C624.921,675.3492 623.912,676.3582 622.667,676.3582 C621.422,676.3582 620.413,675.3492 620.413,674.1042 C620.413,672.8592 621.422,671.8502 622.667,671.8502" id="Fill-116" fill="#FFFFFF" fill-rule="nonzero"></path>
            <path d="M706.498,588.8321 C707.743,588.8321 708.752,589.8411 708.752,591.0861 C708.752,592.3311 707.743,593.3401 706.498,593.3401 C705.253,593.3401 704.244,592.3311 704.244,591.0861 C704.244,589.8411 705.253,588.8321 706.498,588.8321" id="Fill-118" fill="#FFFFFF" fill-rule="nonzero"></path>
            <path d="M622.667,584.3243 C626.402,584.3243 629.429,587.3513 629.429,591.0863 C629.429,594.8203 626.402,597.8473 622.667,597.8473 C618.933,597.8473 615.905,594.8203 615.905,591.0863 C615.905,587.3513 618.933,584.3243 622.667,584.3243" id="Fill-120" fill="#FFFFFF" fill-rule="nonzero"></path>
            <path d="M790.3281,584.3243 C794.0631,584.3243 797.0911,587.3513 797.0911,591.0863 C797.0911,594.8203 794.0631,597.8473 790.3281,597.8473 C786.5941,597.8473 783.5661,594.8203 783.5661,591.0863 C783.5661,587.3513 786.5941,584.3243 790.3281,584.3243" id="Fill-122" fill="#FFFFFF" fill-rule="nonzero"></path>
            <path d="M874.1592,506.692 C875.4042,506.692 876.4132,507.701 876.4132,508.946 C876.4132,510.191 875.4042,511.2 874.1592,511.2 C872.9142,511.2 871.9052,510.191 871.9052,508.946 C871.9052,507.701 872.9142,506.692 874.1592,506.692" id="Fill-128" fill="#FFFFFF" fill-rule="nonzero"></path>
            <path d="M874.1592,423.6734 C875.4042,423.6734 876.4132,424.6824 876.4132,425.9274 C876.4132,427.1724 875.4042,428.1814 874.1592,428.1814 C872.9142,428.1814 871.9052,427.1724 871.9052,425.9274 C871.9052,424.6824 872.9142,423.6734 874.1592,423.6734" id="Fill-130" fill="#FFFFFF" fill-rule="nonzero"></path>
            <path d="M790.3281,506.692 C791.5731,506.692 792.5821,507.701 792.5821,508.946 C792.5821,510.191 791.5731,511.2 790.3281,511.2 C789.0841,511.2 788.0741,510.191 788.0741,508.946 C788.0741,507.701 789.0841,506.692 790.3281,506.692" id="Fill-132" fill="#FFFFFF" fill-rule="nonzero"></path>
            <path d="M706.498,495.422 C713.967,495.422 720.021,501.477 720.021,508.946 C720.021,516.415 713.967,522.47 706.498,522.47 C699.029,522.47 692.974,516.415 692.974,508.946 C692.974,501.477 699.029,495.422 706.498,495.422" id="Fill-134" fill="#FFFFFF" fill-rule="nonzero"></path>
            <path d="M622.667,506.692 C623.912,506.692 624.921,507.701 624.921,508.946 C624.921,510.191 623.912,511.2 622.667,511.2 C621.422,511.2 620.413,510.191 620.413,508.946 C620.413,507.701 621.422,506.692 622.667,506.692" id="Fill-136" fill="#FFFFFF" fill-rule="nonzero"></path>
            <path d="M706.498,423.6734 C707.743,423.6734 708.752,424.6824 708.752,425.9274 C708.752,427.1724 707.743,428.1814 706.498,428.1814 C705.253,428.1814 704.244,427.1724 704.244,425.9274 C704.244,424.6824 705.253,423.6734 706.498,423.6734" id="Fill-138" fill="#FFFFFF" fill-rule="nonzero"></path>
            <path d="M622.667,419.1656 C626.402,419.1656 629.429,422.1926 629.429,425.9276 C629.429,429.6626 626.402,432.6896 622.667,432.6896 C618.933,432.6896 615.905,429.6626 615.905,425.9276 C615.905,422.1926 618.933,419.1656 622.667,419.1656" id="Fill-140" fill="#FFFFFF" fill-rule="nonzero"></path>
            <path d="M790.3281,419.1656 C794.0631,419.1656 797.0911,422.1926 797.0911,425.9276 C797.0911,429.6626 794.0631,432.6896 790.3281,432.6896 C786.5941,432.6896 783.5661,429.6626 783.5661,425.9276 C783.5661,422.1926 786.5941,419.1656 790.3281,419.1656" id="Fill-142" fill="#FFFFFF" fill-rule="nonzero"></path>
            <path d="M660,559.9117 L660,536.5157" id="Stroke-144" stroke="#017FFF" stroke-width="5.849"></path>
            <path d="M648.3018,548.2135 L671.6978,548.2135" id="Stroke-146" stroke="#017FFF" stroke-width="5.849"></path>
            <path d="M129.979,1007.8873 L960.244,1007.8873" id="Stroke-155" stroke="#FFFFFF" stroke-width="0.877"></path>
        </g>
    </g>
</svg>