<?xml version="1.0" encoding="UTF-8"?>
<svg width="1440px" height="809px" viewBox="0 0 1440 809" version="1.1" xmlns="http://www.w3.org/2000/svg" xmlns:xlink="http://www.w3.org/1999/xlink">
    <!-- Generator: Sketch 46.2 (44496) - http://www.bohemiancoding.com/sketch -->
    <title>top-bg2</title>
    <desc>Created with Sketch.</desc>
    <defs>
        <polygon id="path-1" points="0 809 1440 809 1440 0 0 0"></polygon>
    </defs>
    <g id="Page-1" stroke="none" stroke-width="1" fill="none" fill-rule="evenodd">
        <g id="top-bg2">
            <mask id="mask-2" fill="white">
                <use xlink:href="#path-1"></use>
            </mask>
            <use id="Fill-1-Copy" fill="#00287A" fill-rule="nonzero" xlink:href="#path-1"></use>
            <g id="Group-1405" mask="url(#mask-2)">
                <g transform="translate(184.000000, 114.000000)">
                    <g id="Group" stroke="none" stroke-width="1" fill="none" fill-rule="evenodd" transform="translate(463.000000, 81.000000)">
                        <path d="M19.7427064,0.567238341 L0.44729355,19.8618596" id="Stroke-1376" stroke="#FF697E" stroke-width="8"></path>
                        <path d="M19.7427064,19.8616617 L0.44729355,0.567040427" id="Stroke-1378" stroke="#FF697E" stroke-width="8"></path>
                        <path d="M334.6222,10.2145 L34.6222,10.2145" id="Stroke-1388" stroke="#FFFFFF" stroke-width="1.992"></path>
                    </g>
                    <path d="M1250,264.733383 C1250,154.276415 1160.45788,64.7343 1050.00092,64.7343 C939.543948,64.7343 850,154.276415 850,264.733383 C850,375.190352 939.543948,464.732467 1050.00092,464.732467 C1160.45788,464.732467 1250,375.190352 1250,264.733383" id="Fill-1269" stroke="none" fill="#017FFF" fill-rule="evenodd"></path>
                    <path d="M307.6463,555.390496 C307.6463,494.639163 258.398137,445.391 197.646804,445.391 C136.895472,445.391 87.6463,494.639163 87.6463,555.390496 C87.6463,616.141828 136.895472,665.389992 197.646804,665.389992 C258.398137,665.389992 307.6463,616.141828 307.6463,555.390496" id="Fill-1269-Copy" stroke="none" fill="#0FD895" fill-rule="evenodd"></path>
                    <path d="M1198.8,508.6 L1198.8,508.6 C1193.94,508.6 1190,504.66 1190,499.8 C1190,494.94 1193.94,491 1198.8,491 C1203.66,491 1207.6,494.94 1207.6,499.8 C1207.6,504.66 1203.66,508.6 1198.8,508.6" id="Fill-1279" stroke="none" fill="#017FFF" fill-rule="evenodd"></path>
                    <path d="M596.8,284.6 L596.8,284.6 C591.94,284.6 588,280.66 588,275.8 C588,270.94 591.94,267 596.8,267 C601.66,267 605.6,270.94 605.6,275.8 C605.6,280.66 601.66,284.6 596.8,284.6" id="Fill-1279-Copy" stroke="none" fill="#017FFF" fill-rule="evenodd"></path>
                    <path d="M799.6,623.201 L799.6,623.201 C789.88,623.201 782,615.321 782,605.601 C782,595.88 789.88,588 799.6,588 L799.6,588 C809.32,588 817.2,595.88 817.2,605.601 C817.2,615.321 809.32,623.201 799.6,623.201" id="Fill-1287" stroke="none" fill="#FFFFFF" fill-rule="evenodd"></path>
                    <path d="M749.8,423.6 L749.8,423.6 C744.94,423.6 741,419.66 741,414.8 L741,414.8 C741,409.94 744.94,406 749.8,406 C754.66,406 758.6,409.94 758.6,414.8 L758.6,414.8 C758.6,419.66 754.66,423.6 749.8,423.6" id="Fill-1297" stroke="none" fill="#FFFFFF" fill-rule="evenodd"></path>
                    <path d="M515.6,509.201 L515.6,509.201 C505.88,509.201 498,501.321 498,491.601 L498,491.601 C498,481.88 505.88,474 515.6,474 L515.6,474 C525.32,474 533.2,481.88 533.2,491.601 L533.2,491.601 C533.2,501.321 525.32,509.201 515.6,509.201" id="Fill-1313" stroke="none" fill="#017FFF" fill-rule="evenodd"></path>
                    <path d="M385.933,627.867 L385.933,627.867 C384.313,627.867 383,626.554 383,624.934 C383,623.314 384.313,622 385.933,622 C387.553,622 388.866,623.314 388.866,624.934 C388.866,626.554 387.553,627.867 385.933,627.867" id="Fill-1319" stroke="none" fill="#FFFFFF" fill-rule="evenodd"></path>
                    <path d="M414.8,405.6 L414.8,405.6 C409.94,405.6 406,401.66 406,396.8 C406,391.94 409.94,388 414.8,388 C419.66,388 423.6,391.94 423.6,396.8 C423.6,401.66 419.66,405.6 414.8,405.6" id="Fill-1321" stroke="none" fill="#FFFFFF" fill-rule="evenodd"></path>
                    <path d="M660.8,568.6 L660.8,568.6 C655.94,568.6 652,564.66 652,559.8 C652,554.94 655.94,551 660.8,551 C665.66,551 669.6,554.94 669.6,559.8 C669.6,564.66 665.66,568.6 660.8,568.6" id="Fill-1323" stroke="none" fill="#FFFFFF" fill-rule="evenodd"></path>
                    <path d="M758.3242,65.4653 L758.3242,65.4653 C756.7042,65.4653 755.3912,64.1523 755.3912,62.5323 C755.3912,60.9123 756.7042,59.5983 758.3242,59.5983 C759.9442,59.5983 761.2572,60.9123 761.2572,62.5323 C761.2572,64.1523 759.9442,65.4653 758.3242,65.4653" id="Fill-1329" stroke="none" fill="#017FFF" fill-rule="evenodd"></path>
                    <path d="M1008.5898,49.6000047 L1008.5898,49.6000047 C1005.82812,49.6000047 1003.5898,47.3616822 1003.5898,44.6000047 C1003.5898,41.8383273 1005.82812,39.5983 1008.5898,39.5983 C1011.35148,39.5983 1013.5898,41.8383273 1013.5898,44.6000047 C1013.5898,47.3616822 1011.35148,49.6000047 1008.5898,49.6000047" id="Fill-1343" stroke="none" fill="#FFFFFF" fill-rule="evenodd"></path>
                    <path d="M1076.933,5.867 L1076.933,5.867 C1075.313,5.867 1074,4.554 1074,2.934 C1074,1.314 1075.313,0 1076.933,0 C1078.553,0 1079.866,1.314 1079.866,2.934 C1079.866,4.554 1078.553,5.867 1076.933,5.867" id="Fill-1345" stroke="none" fill="#FFFFFF" fill-rule="evenodd"></path>
                    <path d="M902.8,40.6 L902.8,40.6 C897.94,40.6 894,36.66 894,31.8 L894,31.8 C894,26.94 897.94,23 902.8,23 C907.66,23 911.6,26.94 911.6,31.8 L911.6,31.8 C911.6,36.66 907.66,40.6 902.8,40.6" id="Fill-1349" stroke="none" fill="#FFFFFF" fill-rule="evenodd"></path>
                    <path d="M758.3242,284.298 L758.3242,284.298 C756.7042,284.298 755.3912,282.985 755.3912,281.365 C755.3912,279.745 756.7042,278.431 758.3242,278.431 C759.9442,278.431 761.2572,279.745 761.2572,281.365 C761.2572,282.985 759.9442,284.298 758.3242,284.298" id="Fill-1353" stroke="none" fill="#FFFFFF" fill-rule="evenodd"></path>
                    <path d="M667.9905,157.390193 L667.9905,157.390193 C666.057326,157.390193 664.4905,155.823368 664.4905,153.890193 C664.4905,151.957019 666.057326,150.389 667.9905,150.389 C669.923674,150.389 671.4905,151.957019 671.4905,153.890193 C671.4905,155.823368 669.923674,157.390193 667.9905,157.390193" id="Fill-1361" stroke="none" fill="#FFFFFF" fill-rule="evenodd"></path>
                    <path d="M1134.6,377.201 L1134.6,377.201 C1124.88,377.201 1117,369.321 1117,359.601 L1117,359.601 C1117,349.88 1124.88,342 1134.6,342 C1144.32,342 1152.2,349.88 1152.2,359.601 L1152.2,359.601 C1152.2,369.321 1144.32,377.201 1134.6,377.201" id="Fill-1363" stroke="none" fill="#FFFFFF" fill-rule="evenodd"></path>
                    <path d="M861.653,577.305 L861.653,577.305 C840.306,577.305 823,560 823,538.652 L823,538.652 C823,517.305 840.306,500 861.653,500 C883,500 900.306,517.305 900.306,538.652 L900.306,538.652 C900.306,560 883,577.305 861.653,577.305" id="Fill-1365" stroke="none" fill="#FF697E" fill-rule="evenodd"></path>
                    <path d="M35,515.999095 L35,515.999095 C15.6704525,515.999095 0,500.329548 0,480.999095 L0,480.999095 C0,461.669547 15.6704525,446 35,446 C54.3295475,446 70,461.669547 70,480.999095 L70,480.999095 C70,500.329548 54.3295475,515.999095 35,515.999095" id="Fill-1365-Copy" stroke="none" fill="#FFFFFF" fill-rule="evenodd"></path>
                    <path d="M1210.933,53.867 L1210.933,53.867 C1209.313,53.867 1208,52.554 1208,50.934 C1208,49.314 1209.313,48 1210.933,48 C1212.553,48 1213.866,49.314 1213.866,50.934 C1213.866,52.554 1212.553,53.867 1210.933,53.867" id="Fill-1370" stroke="none" fill="#FFFFFF" fill-rule="evenodd"></path>
                    <path d="M1070.8,212.6 L1070.8,212.6 C1065.94,212.6 1062,208.66 1062,203.8 C1062,198.94 1065.94,195 1070.8,195 C1075.66,195 1079.6,198.94 1079.6,203.8 C1079.6,208.66 1075.66,212.6 1070.8,212.6" id="Fill-1372" stroke="none" fill="#FFFFFF" fill-rule="evenodd"></path>
                    <path d="M858.8,341.6 L858.8,341.6 C853.94,341.6 850,337.66 850,332.8 C850,327.94 853.94,324 858.8,324 C863.66,324 867.6,327.94 867.6,332.8 C867.6,337.66 863.66,341.6 858.8,341.6" id="Fill-1374" stroke="none" fill="#FFFFFF" fill-rule="evenodd"></path>
                    <path d="M29,592 L29,610" id="Stroke-1380" stroke="#FF697E" stroke-width="5" fill="none"></path>
                    <path d="M38,601 L20,601" id="Stroke-1382" stroke="#FF697E" stroke-width="5" fill="none"></path>
                    <path d="M815.5706,212.6336 L815.5706,243.6546" id="Stroke-1384" stroke="#0FD895" stroke-width="7.755" fill="none"></path>
                    <path d="M831.0809,228.144 L800.0599,228.144" id="Stroke-1386" stroke="#0FD895" stroke-width="7.755" fill="none"></path>
                </g>
            </g>
        </g>
    </g>
</svg>