<?xml version="1.0" encoding="UTF-8"?>
<svg width="379px" height="656px" viewBox="0 0 379 656" version="1.1" xmlns="http://www.w3.org/2000/svg" xmlns:xlink="http://www.w3.org/1999/xlink">
    <!-- Generator: Sketch 50.2 (55047) - http://www.bohemiancoding.com/sketch -->
    <title>Group 22</title>
    <desc>Created with Sketch.</desc>
    <defs></defs>
    <g id="Web" stroke="none" stroke-width="1" fill="none" fill-rule="evenodd">
        <g id="Group-22" transform="translate(15.000000, 0.000000)">
            <path d="M115.3608,450 L0.2518,565.109" id="Stroke-26" stroke="#017FFF" stroke-width="40.697"></path>
            <path d="M115.3608,565.1094 L0.2518,450.0004" id="Stroke-28" stroke="#017FFF" stroke-width="40.697"></path>
            <path d="M340.5,27 C333.044,27 327,20.956 327,13.5 C327,6.044 333.044,0 340.5,0 C347.955,0 354,6.044 354,13.5 C354,20.956 347.955,27 340.5,27" id="Fill-6" fill="#FF697E"></path>
            <path d="M191,656 C163.385185,656 141,633.614815 141,606 C141,578.385185 163.385185,556 191,556 C218.611111,556 241,578.385185 241,606 C241,633.614815 218.611111,656 191,656" id="Fill-6-Copy" fill="#FF697E"></path>
            <path d="M310.8151,262.7121 C309.5701,262.7121 308.5611,261.7031 308.5611,260.4581 C308.5611,259.2131 309.5701,258.2041 310.8151,258.2041 C312.0591,258.2041 313.0691,259.2131 313.0691,260.4581 C313.0691,261.7031 312.0591,262.7121 310.8151,262.7121" id="Fill-32" fill="#FFFFFF"></path>
            <path d="M352.0319,373.8347 L352.0319,397.2307" id="Stroke-94" stroke="#0FD895" stroke-width="5.849"></path>
            <path d="M363.7302,385.5324 L340.3342,385.5324" id="Stroke-96" stroke="#0FD895" stroke-width="5.849"></path>
            <path d="M270.5983,297.8786 L270.5983,274.4826" id="Stroke-148" stroke="#0FD895" stroke-width="5.849"></path>
            <path d="M258.9001,286.1804 L282.2961,286.1804" id="Stroke-150" stroke="#0FD895" stroke-width="5.849"></path>
        </g>
    </g>
</svg>