<?xml version="1.0" encoding="UTF-8"?>
<svg width="10px" height="9px" viewBox="0 0 10 9" version="1.1" xmlns="http://www.w3.org/2000/svg" xmlns:xlink="http://www.w3.org/1999/xlink">
    <!-- Generator: Sketch 50.2 (55047) - http://www.bohemiancoding.com/sketch -->
    <title>Shape</title>
    <desc>Created with Sketch.</desc>
    <defs></defs>
    <g id="Web" stroke="none" stroke-width="1" fill="none" fill-rule="evenodd">
        <g id="Desktop-HD" transform="translate(-1038.000000, -9203.000000)" fill="#017FFF" fill-rule="nonzero">
            <g id="11-Sponsors" transform="translate(73.000000, 8081.000000)">
                <g id="General" transform="translate(837.000000, 1118.000000)">
                    <g id="Group-4">
                        <g id="5-STAR-SPONSOR" transform="translate(77.000000, 0.000000)">
                            <g id="5-star" transform="translate(51.000000, 4.000000)">
                                <g id="star">
                                    <path d="M9.60511119,4.07864816 C9.79836629,3.89844501 9.86658554,3.63397149 9.78322831,3.38812022 C9.69967447,3.14226895 9.48204131,2.96676838 9.21466905,2.92952389 L6.83741507,2.59902604 C6.73616748,2.58491828 6.6486817,2.52416085 6.60346433,2.43631652 L5.54065958,0.375454583 C5.42132505,0.143899177 5.17911724,0 4.90918921,0 C4.63945778,0 4.39724996,0.143899177 4.27791543,0.375454583 L3.21491408,2.43650462 C3.16969671,2.52434895 3.08201434,2.58510638 2.98076675,2.59921415 L0.603512769,2.92971199 C0.336337102,2.96676838 0.118507345,3.14245705 0.0349535129,3.38830832 C-0.0484037224,3.6341596 0.0198155244,3.89863311 0.213070624,4.07883627 L1.93309999,5.6829829 C2.00643077,5.75145258 2.0400489,5.85001881 2.02274834,5.9463278 L1.61697161,8.21147013 C1.58099431,8.41085984 1.63564835,8.60479455 1.77051406,8.75772269 C1.98008673,8.99604983 2.34595422,9.06865778 2.63849094,8.92156084 L4.76449363,7.85200435 C4.85335559,7.80742382 4.96521942,7.80780003 5.05388479,7.85200435 L7.18008408,8.92156084 C7.28349423,8.97366551 7.39378529,9 7.5076151,9 C7.7154184,9 7.91240885,8.91159136 8.04786435,8.75772269 C8.18292667,8.60479455 8.2373841,8.41048363 8.20140681,8.21147013 L7.79543348,5.9463278 C7.77813292,5.84983071 7.81175105,5.75145258 7.88508183,5.6829829 L9.60511119,4.07864816 Z" id="Shape"></path>
                                </g>
                            </g>
                        </g>
                    </g>
                </g>
            </g>
        </g>
    </g>
</svg>